<?xml version="1.0" encoding="utf-8"?>
<!-- Generator: Adobe Illustrator 19.0.0, SVG Export Plug-In . SVG Version: 6.00 Build 0)  -->
<svg version="1.1" id="Layer_1" xmlns="http://www.w3.org/2000/svg" xmlns:xlink="http://www.w3.org/1999/xlink" x="0px" y="0px"
	 viewBox="106.3 127 555.1 203.1" style="enable-background:new 106.3 127 555.1 203.1;" xml:space="preserve">
<style type="text/css">
	.st0{fill:#d6d6d6;}
</style>
<g>
	<title>Logos</title>
	<desc>Created with Sketch.</desc>
	<g>
		<g>
			<path class="st0" d="M175.1,233.7c-15.8,0-27.8,12.6-27.8,27.3c0,13,8.6,20,8.6,20c0.8,0.8,0.7,1.1,0,1.8c0,0-8.8,7.8-8.8,19.7
				c0,16.5,13.3,27.6,27.8,27.6c16.3,0,27.8-13,27.8-27.3c0-12.3-8.4-19.6-8.4-19.6c-1.2-1.1-1.2-1.4,0-2.2c0,0,8.4-6.9,8.4-19.7
				C203,246.3,191.1,233.8,175.1,233.7 M179,249.1c0.4-0.8,1.2-1.4,2.1-1.4c1.2,0,2.2,1.1,2.2,2.2s-1.1,2.2-2.2,2.2
				c-1,0-1.8-0.5-2.1-1.4c-0.4,0.8-1.2,1.4-2.1,1.4c-0.8,0-1.8-0.5-2.1-1.4c-0.4,0.8-1.2,1.4-2.1,1.4c-0.8,0-1.5-0.4-1.9-1.1
				c-0.1,0.3-0.4,0.4-0.7,0.7c0.5,0.4,1,1.1,1,1.9c0,0.8-0.4,1.5-1,1.8c0.5,0.4,1,1.1,1,1.9c0,0.8-0.4,1.5-1,1.8
				c0.1,0.1,0.4,0.3,0.5,0.4c0.4-0.5,1.1-0.8,1.8-0.8c0.8,0,1.6,0.4,1.9,1.1c0.4-0.7,1.2-1.1,1.9-1.1c0.8,0,1.6,0.4,1.9,1.1
				c0.4-0.7,1.1-1.1,1.9-1.1c1.2,0,2.2,1.1,2.2,2.2s-1.1,2.2-2.2,2.2c-0.8,0-1.6-0.4-1.9-1.1c-0.4,0.7-1.1,1.1-1.9,1.1
				c-0.8,0-1.6-0.4-1.9-1.1c-0.4,0.7-1.1,1.1-1.9,1.1c-0.7,0-1.4-0.3-1.8-0.8c-0.1,0.1-0.3,0.3-0.5,0.4c0.5,0.4,1,1.1,1,1.9
				c0,0.8-0.4,1.5-1,1.8c0.5,0.4,1,1.1,1,1.9c0,0.8-0.4,1.5-1,1.8c0.3,0.1,0.4,0.4,0.7,0.7c0.4-0.7,1.1-1.1,1.9-1.1
				c1,0,1.8,0.5,2.1,1.4c0.4-0.8,1.2-1.4,2.1-1.4c0.8,0,1.8,0.5,2.1,1.4c0.4-0.8,1.2-1.4,2.1-1.4c1.2,0,2.2,1.1,2.2,2.2
				s-1.1,2.2-2.2,2.2c-1,0-1.8-0.5-2.1-1.4c-0.4,0.8-1.2,1.4-2.1,1.4c-0.8,0-1.8-0.5-2.1-1.4c-0.4,0.8-1.2,1.4-2.1,1.4
				c-0.8,0-1.5-0.4-1.9-1.1c-0.4,0.7-1.1,1.1-1.9,1.1c-1.2,0-2.2-1.1-2.2-2.2c0-0.8,0.4-1.5,1-1.9c-0.5-0.4-1-1.1-1-1.8
				c0-0.8,0.4-1.5,1-1.9c-0.5-0.4-1-1.1-1-1.8c0-0.8,0.4-1.5,1-1.9c-0.5-0.4-1-1.1-1-1.8c0-0.8,0.4-1.5,1-1.9c-0.5-0.4-1-1.1-1-1.8
				c0-0.8,0.4-1.5,1-1.9c-0.5-0.4-1-1.1-1-1.8c0-0.8,0.4-1.5,1-1.9c-0.5-0.4-1-1.1-1-1.8c0-1.2,1-2.2,2.2-2.2c0.8,0,1.5,0.4,1.9,1.1
				c0.4-0.7,1.1-1.1,1.9-1.1c1,0,1.8,0.5,2.1,1.4c0.4-0.8,1.2-1.4,2.1-1.4C177.7,247.4,178.6,248.4,179,249.1 M179,290.7
				c0.4-0.8,1.2-1.4,2.1-1.4c1.2,0,2.2,1.1,2.2,2.2c0,1.1-1.1,2.2-2.2,2.2c-1,0-1.8-0.5-2.1-1.4c-0.4,0.8-1.2,1.4-2.1,1.4
				c-0.8,0-1.8-0.5-2.1-1.4c-0.4,0.8-1.2,1.4-2.1,1.4c-0.8,0-1.5-0.4-1.9-1.1c-0.1,0.3-0.4,0.4-0.7,0.7c0.5,0.4,1,1.1,1,1.8
				c0,0.8-0.4,1.5-1,1.9c0.5,0.4,1,1.1,1,1.8c0,0.8-0.4,1.5-1,1.9c0.1,0.1,0.4,0.3,0.5,0.4c0.4-0.5,1.1-0.8,1.8-0.8
				c0.8,0,1.6,0.4,1.9,1.1c0.4-0.7,1.2-1.1,1.9-1.1c0.8,0,1.6,0.4,1.9,1.1c0.4-0.7,1.1-1.1,1.9-1.1c1.2,0,2.2,1.1,2.2,2.2
				c0,1.2-1.1,2.2-2.2,2.2c-0.8,0-1.6-0.4-1.9-1.1c-0.4,0.7-1.1,1.1-1.9,1.1c-0.8,0-1.6-0.4-1.9-1.1c-0.4,0.7-1.1,1.1-1.9,1.1
				c-0.7,0-1.4-0.3-1.8-0.8c-0.1,0.1-0.3,0.3-0.5,0.4c0.5,0.4,1,1.1,1,1.8c0,0.8-0.4,1.5-1,1.8c0.5,0.4,1,1.1,1,1.9s-0.4,1.5-1,1.8
				c0.3,0.1,0.4,0.4,0.7,0.7c0.4-0.7,1.1-1.1,1.9-1.1c1,0,1.8,0.5,2.1,1.4c0.4-0.8,1.2-1.4,2.1-1.4c0.8,0,1.8,0.5,2.1,1.4
				c0.4-0.8,1.2-1.4,2.1-1.4c1.2,0,2.2,1.1,2.2,2.2c0,1.2-1.1,2.2-2.2,2.2c-1,0-1.8-0.5-2.1-1.4c-0.4,0.8-1.2,1.4-2.1,1.4
				c-0.8,0-1.8-0.5-2.1-1.4c-0.4,0.8-1.2,1.4-2.1,1.4c-0.8,0-1.5-0.4-1.9-1.1c-0.4,0.7-1.1,1.1-1.9,1.1c-1.2,0-2.2-1.1-2.2-2.2
				c0-0.8,0.4-1.5,1-1.8c-0.5-0.4-1-1.1-1-1.8c0-0.8,0.4-1.5,1-1.9c-0.5-0.4-1-1.1-1-1.8c0-0.8,0.4-1.5,1-1.8c-0.5-0.4-1-1.1-1-1.8
				c0-0.8,0.4-1.5,1-1.9c-0.5-0.4-1-1.1-1-1.9c0-0.8,0.4-1.5,1-1.8c-0.5-0.4-1-1.1-1-1.9c0-0.8,0.4-1.5,1-1.8c-0.5-0.4-1-1.1-1-1.9
				c0-1.2,1-2.2,2.2-2.2c0.8,0,1.5,0.4,1.9,1.1c0.4-0.7,1.1-1.1,1.9-1.1c1,0,1.8,0.5,2.1,1.4c0.4-0.8,1.2-1.4,2.1-1.4
				C177.7,289.1,178.6,289.9,179,290.7"/>
			<path class="st0" d="M325.3,277.9H323c-4.1,0-5.3,2.2-5.3,4.5v1.5h-2.2v3h2.2v11.8h4.7v-11.8h2.9v-3.2h-2.7v-1.2
				c0-1,0.7-1.4,1.2-1.4h1.8v-3.3L325.3,277.9L325.3,277.9z"/>
		</g>
		<rect x="327.1" y="283.3" class="st0" width="4.4" height="15.2"/>
		<rect x="327.2" y="277.9" class="st0" width="4.4" height="3.6"/>
		<g>
			<path class="st0" d="M344.2,283.3c-3.7,0-4.7,0.8-5.5,2.6v-2.2h-4.4v15.1h4.5V292c0.1-1.8,0.4-4.5,3.8-4.5c0.4,0,0.8,0,1.4,0.1
				L344.2,283.3L344.2,283.3z"/>
			<path class="st0" d="M351.6,283.3c-3.3,0-6.6,1.2-6.6,5.1c0,2.6,2.3,3.4,4.8,4.1c3,0.8,4.5,0.7,4.7,1.9c0.3,1.8-1.9,1.9-2.6,1.9
				c-1.6,0-3.2-0.5-3.2-2.2h-4c0.1,4,3.6,5.2,7.1,5.2c3.4,0,7-1.6,7-5.5c0.1-5.6-9.3-3.4-9.3-6.3c0-0.8,1.1-1.4,2.3-1.4
				c1.4,0,2.9,0.7,2.7,1.9h4C358.2,284.3,354.9,283.3,351.6,283.3"/>
			<path class="st0" d="M366.2,278.9h-4.4v4.8h-2.1v3.2h2.1v7.8c0,2.5-0.1,4.1,5.3,4.1c0.5,0,1.2,0,1.9,0v-3.3
				c-2.9,0-2.9-0.1-2.7-1.8V287h2.7v-3.2h-2.7v-4.9H366.2z"/>
			<path class="st0" d="M392,277.9h-4.4v7.3c-1-1.5-2.6-1.9-4.4-1.9c-4.5,0-6.7,3.7-6.7,7.8c0,4.1,2.2,8.1,6.9,8.1
				c1.8,0,3.3-0.4,4.3-1.9l0.1,1.6h4.3V277.9z M384.1,296c-2.2,0-3.4-1.9-3.4-4.8c0-3.8,1.9-4.7,3.4-4.7c2.3,0,3.4,1.9,3.4,4.7
				S386.6,296,384.1,296"/>
		</g>
		<rect x="394.7" y="283.3" class="st0" width="4.4" height="15.2"/>
		<rect x="394.8" y="277.9" class="st0" width="4.3" height="3.6"/>
		<g>
			<path class="st0" d="M411.8,283.3c-3.7,0-4.7,0.8-5.5,2.6v-2.2H402v14.9h4.5V292c0.1-1.9,0.4-4.5,3.7-4.5c0.4,0,1,0,1.5,0.1v-4.3
				L411.8,283.3L411.8,283.3z"/>
			<path class="st0" d="M420.1,283.3c-4.7,0-7.8,3.4-7.8,8c0,4.7,2.9,8,7.8,8c3.4-0.1,5.9-1.2,7.1-4.8h-4.3c-0.4,0.7-1.2,1.6-3,1.6
				c-1.4,0-3.4-1.1-3.6-3.7h11.1C427.7,287.5,425.3,283.3,420.1,283.3 M416.5,289.5c0-1.2,1-3,3.4-3c1.9,0,3,1.1,3,3H416.5z"/>
			<path class="st0" d="M436.9,283.3c-4.9,0-7.8,3.4-7.8,8.1c0,4.9,3,7.8,7.7,7.8c4,0,6.7-1.9,7.3-5.9l-4.1-0.1
				c-0.3,1.8-1.5,2.7-3.3,2.7c-2.2,0-3.2-2.2-3.2-4.7c0-2.2,1-4.9,3.4-4.9c1.5,0,2.7,1.1,3,2.7h4.1
				C443.8,285,440.5,283.3,436.9,283.3"/>
			<path class="st0" d="M451.5,279.1h-4.5v4.8H445v3.2h2.1v7.8c0,2.5-0.3,4,5.8,4c0.4,0,1,0,1.5,0v-3.3c-2.9,0-2.9,0-2.9-1.8V287
				h2.7v-3.2h-2.7V279.1z"/>
			<path class="st0" d="M533.5,299.8h-2.1c-0.3,0-0.4,0.1-0.4,0.4v9.1c0,0.3,0.1,0.4,0.4,0.4h5.9c0.3,0,0.4-0.1,0.4-0.4v-1.1
				c0-0.3-0.1-0.4-0.4-0.4H534h-0.1v-7.5C533.9,299.8,533.8,299.8,533.5,299.8"/>
			<path class="st0" d="M546.6,299.8H545c-0.3,0-0.4,0.1-0.4,0.4h0.1v6.2c0,1.1-0.5,1.6-1.6,1.6s-1.6-0.5-1.6-1.6v-6.2
				c0-0.3-0.1-0.4-0.4-0.4H539c-0.3,0-0.4,0.1-0.4,0.4v6c0,2.5,2.1,3.4,4.3,3.4c2.6,0,4.1-1.6,4.1-3.6v-5.9
				C547.1,299.8,546.9,299.8,546.6,299.8"/>
			<path class="st0" d="M553.6,299.5c-2.9,0-5.6,1.8-5.6,5.2s2.6,5.2,5.6,5.2c1.6,0,2.3-0.4,2.7-0.5c0.3,0,0.4-0.3,0.4-0.5v-1.6
				c0-0.1,0-0.3-0.1-0.3c-0.1,0-0.1,0-0.3,0.1c-0.4,0.5-1.4,1-2.3,1c-1.5,0-2.6-0.8-2.6-3.3c0-2.5,1.2-3.3,2.6-3.3
				c1,0,1.9,0.4,2.3,1c0.1,0.1,0.3,0.1,0.3,0.1s0.1-0.1,0.1-0.3v-1.6c0-0.3-0.3-0.4-0.4-0.5C556,299.8,555,299.5,553.6,299.5"/>
			<path class="st0" d="M562.7,299.5c-3,0-5.2,1.9-5.2,5.2c0,3.4,2.1,5.2,5.2,5.2c3,0,5.2-1.8,5.2-5.2S565.8,299.5,562.7,299.5
				 M562.7,308.2c-0.3,0-0.4-0.1-0.7-0.1c-1-0.3-1.4-1.1-1.4-3.3s0.4-3,1.4-3.3c0.1-0.1,0.4-0.1,0.7-0.1c0.3,0,0.4,0.1,0.7,0.1
				c1,0.3,1.4,1.1,1.4,3.3s-0.4,3-1.4,3.3C563.2,308.2,563,308.2,562.7,308.2"/>
			<path class="st0" d="M575.9,299.7h-7c-0.3,0-0.4,0.1-0.4,0.4v1.1c0,0.3,0.1,0.4,0.4,0.4h3.8l-3.7,5.9c-0.1,0.3-0.5,1.1-0.5,1.4
				v0.4c0,0.3,0.1,0.4,0.4,0.4h7.1c0.3,0,0.4-0.1,0.4-0.4v-1.1c0-0.3-0.1-0.4-0.4-0.4h-3.8l3.7-6c0.1-0.1,0.4-0.7,0.4-1.2v-0.4
				C576.3,299.8,576.1,299.7,575.9,299.7"/>
			<path class="st0" d="M582.7,299.8h-1.8c-1,0-1.5,0.4-1.8,1.2l-2.6,8.1c-0.1,0.3-0.1,0.3-0.1,0.4c0,0.1,0,0.3,0.3,0.3h1.8
				c0.4,0,0.5-0.3,0.7-0.5l0.5-1.8h2.7l0.5,1.8c0.1,0.3,0.3,0.5,0.7,0.5h2.2c0.1,0,0.3-0.1,0.3-0.3c0-0.1-0.1-0.3-0.1-0.4l-2.7-8.9
				C583.1,299.8,583,299.8,582.7,299.8 M580.1,305.6l1-3.4l1,3.4H580.1z"/>
			<path class="st0" d="M591.1,299.8h-3.6c-0.3,0-0.4,0.1-0.4,0.4v9.1c0,0.3,0.1,0.4,0.4,0.4h3.6c3.7,0,5.6-2.3,5.6-4.9
				C596.7,302.1,594.8,299.8,591.1,299.8 M590.5,307.9c-0.1-0.1-0.4-0.1-0.4-0.4v-5.8c0-0.3,0.3-0.4,0.4-0.4h0.5
				c1.8,0,2.5,1.1,2.5,3.3c0,2.2-0.8,3.3-2.5,3.3H590.5"/>
			<path class="st0" d="M604,299.8h-5.6c-0.3,0-0.4,0.1-0.4,0.4v9.1c0,0.3,0.1,0.4,0.4,0.4h5.6c0.3,0,0.4-0.1,0.4-0.4v-1.1
				c0-0.3-0.1-0.4-0.4-0.4h-3v-2.3h2.6c0.3,0,0.4-0.1,0.4-0.4v-1.1c0-0.3-0.1-0.4-0.4-0.4H601v-1.8h3c0.3,0,0.4-0.1,0.4-0.4v-1.1
				C604.4,299.8,604.2,299.8,604,299.8"/>
			<path class="st0" d="M613.4,299.5c-1.6,0-2.7,0.3-3.3,0.5c-0.4,0.3-0.7,0.4-0.7,1v8.2c0,0.3,0.1,0.4,0.4,0.4h2.2
				c0.3,0,0.4-0.1,0.4-0.4v-7.4c0-0.1,0.1-0.3,0.3-0.4c0.1-0.1,0.4-0.1,0.7-0.1c0.8,0,1.4,0.3,1.4,1.4c0,1.1-0.4,1.5-1,1.8
				c-0.3,0.1-0.5,0.3-0.5,0.8c0,0.4,0.1,0.7,0.3,1l1.4,3c0.1,0.4,0.4,0.5,1.1,0.5l1.8-0.3c0.3,0,0.5,0,0.5-0.4
				c0-0.3-0.1-0.4-0.3-0.7l-1.4-2.5c-0.1-0.4-0.7-0.8-1.1-1c1-0.3,1.9-1,1.9-2.3C617.5,300.5,616.2,299.5,613.4,299.5"/>
			<path class="st0" d="M621.8,299.8h-2.1c-0.3,0-0.4,0.1-0.4,0.4v9.1c0,0.3,0.1,0.4,0.4,0.4h2.1c0.3,0,0.4-0.1,0.4-0.4v-9.1
				C622.2,299.8,622.1,299.8,621.8,299.8"/>
			<path class="st0" d="M628,299.5c-1.6,0-2.6,0.3-3.2,0.5c-0.4,0.1-0.7,0.4-0.7,1v8.1c0,0.3,0.1,0.4,0.4,0.4h4.1
				c2.5,0,3.8-1.2,3.8-3c0-1.1-0.8-1.8-1.9-2.1c0.8-0.3,1.6-0.8,1.6-2.1C632.1,300.5,630.8,299.5,628,299.5 M628.1,308.2
				c-0.3,0-0.5-0.1-0.7-0.1c-0.1-0.1-0.3-0.1-0.3-0.4l0.1-5.8c0-0.1,0.1-0.3,0.3-0.4c0.1-0.1,0.4-0.1,0.7-0.1c0.8,0,1.2,0.4,1.2,1.2
				c0,0.7-0.3,1-0.7,1.4c-0.3,0.3-0.5,0.5-0.5,0.8c0,0.4,0.1,0.7,0.4,0.8c0.4,0.4,1,0.8,1,1.6C629.5,307.5,629.1,308.2,628.1,308.2"
				/>
			<path class="st0" d="M640.2,299.8h-5.6c-0.3,0-0.4,0.1-0.4,0.4H634v9.1c0,0.3,0.1,0.4,0.4,0.4h5.6c0.3,0,0.4-0.1,0.4-0.4v-1.1
				c0-0.3-0.1-0.4-0.4-0.4h-3v-2.3h2.6c0.3,0,0.4-0.1,0.4-0.4v-1.1c0-0.3-0.1-0.4-0.4-0.4H637v-1.8h3.2c0.3,0,0.4-0.1,0.4-0.4v-1.1
				C640.4,299.8,640.3,299.8,640.2,299.8"/>
			<path class="st0" d="M644.4,299.7h-1.9c-0.3,0-0.4,0.1-0.4,0.4v9.1c0,0.3,0.1,0.4,0.4,0.4h1.6c0.3,0,0.4-0.1,0.4-0.4v-6.9l2.3,6
				c0.3,1,1,1.4,1.9,1.4h1.8c0.3,0,0.4-0.1,0.4-0.4v-9.1c0-0.3-0.1-0.4-0.4-0.4h-1.6c-0.3,0-0.4,0.1-0.4,0.4v6.6l-2.2-6
				C646.1,300.1,645.4,299.7,644.4,299.7"/>
			<path class="st0" d="M658,299.8h-1.9c-1,0-1.5,0.4-1.8,1.2l-2.5,8.1c-0.1,0.3-0.1,0.3-0.1,0.4c0,0.1,0,0.3,0.3,0.3h1.8
				c0.4,0,0.5-0.3,0.7-0.5l0.5-1.8h2.7l0.5,1.8c0.1,0.3,0.3,0.5,0.7,0.5h2.2c0.1,0,0.3-0.1,0.3-0.3c0-0.1-0.1-0.3-0.1-0.4l-2.7-8.9
				C658.4,299.8,658.3,299.8,658,299.8 M655.3,305.6l1-3.4l1,3.4H655.3z"/>
			<path class="st0" d="M566.8,314.6c-1.2,0-2.1,0.3-2.7,1c-0.5,0.4-0.8,1.1-0.8,1.8c0,0.7,0.1,1.2,0.4,1.6c0.4,0.5,1.1,1.1,2.2,1.5
				c0.8,0.3,1.2,0.5,1.5,0.8c0.1,0.3,0.3,0.5,0.3,0.8c0,0.8-0.5,1.2-1.8,1.2c-0.7,0-1.4-0.1-2.1-0.5l-0.7,1.4c1,0.4,1.9,0.7,3,0.7
				c1.1,0,1.9-0.3,2.6-0.8c0.7-0.4,1-1.2,1-1.9c0-0.7-0.1-1.2-0.4-1.6c-0.4-0.5-1.1-1.1-2.2-1.5c-0.8-0.3-1.2-0.5-1.5-0.8
				c-0.3-0.3-0.4-0.5-0.4-0.8c0-0.7,0.7-1.1,1.8-1.1c0.7,0,1.5,0.1,2.1,0.5l0.8-1.4C569,314.7,567.9,314.6,566.8,314.6"/>
			<path class="st0" d="M580,314.7l-1.9,0.1v6c0,0.7-0.1,1.2-0.5,1.6c-0.4,0.4-1,0.7-1.6,0.7c-1.5,0-2.1-0.7-2.1-2.1V315h-1.9v6
				c0,1.1,0.4,1.8,1,2.5c0.8,0.7,1.8,1.1,3,1.1c1.2,0,2.1-0.3,2.9-1c0.8-0.7,1.2-1.6,1.2-2.6V314.7L580,314.7z"/>
			<path class="st0" d="M584.8,314.6l-2.2,0.5v9.3h1.8v-5.6c0-0.4,0-1.1-0.1-1.9c0.3,0.5,0.5,1.2,1,1.8l3.4,6l2.2-0.5l0.1-9.3H589
				v5.6c0,0.5,0,1.2,0.1,1.9c-0.3-0.7-0.5-1.2-1-1.8L584.8,314.6z"/>
		</g>
		<polygon class="st0" points="599.6,314.7 592.6,314.7 592.6,316.1 595.2,316.1 595.2,324.2 597.1,324.2 597.1,316.1 599.6,316.1 
					"/>
		<g>
			<path class="st0" d="M605.9,314.6c-1.5,0-2.6,0.4-3.6,1.6c-1,1-1.5,2.1-1.5,3.6c0,1.5,0.4,2.6,1.2,3.4c1,1,2.1,1.5,3.7,1.5
				c1.5,0,2.6-0.5,3.6-1.5c1-1.1,1.5-2.2,1.5-3.7c0-1.5-0.4-2.5-1.2-3.4C608.6,315,607.4,314.6,605.9,314.6 M605.8,323
				c-1.9,0-2.7-1.2-2.7-3.4c0-1.2,0.3-2.1,1-2.7c0.5-0.5,1.2-0.8,1.9-0.8c1,0,1.8,0.5,2.3,1.2c0.4,0.5,0.5,1.4,0.5,2.2
				c0,0.7-0.1,1.4-0.4,1.8C607.8,322.3,606.8,323,605.8,323"/>
			<path class="st0" d="M616.3,314.6c-0.5,0-1.6,0-3,0.1h-0.1l-0.1,9.6h1.9v-8.2h1.1c1.2,0,1.8,0.4,1.8,1.5c0,1-0.7,1.5-1.9,1.6
				l-0.5,0.8l3,4.5l1.9-0.8l-1.9-3c-0.1-0.3-0.3-0.5-0.5-0.7c1.5-0.4,2.2-1.4,2.2-2.7C620,315.4,618.8,314.6,616.3,314.6"/>
			<path class="st0" d="M627.4,314.3l-1.9,3c-0.3,0.4-0.4,0.7-0.5,1.1c-0.1-0.4-0.4-0.8-0.5-1.1l-1.9-3l-1.8,0.8l3.2,4.8v4.3h1.9
				v-4.4l3.3-4.7L627.4,314.3z"/>
			<path class="st0" d="M595.7,245.6c-3.7,7.1-8.2,13.2-12.1,20.4c-6.4,12.3-3.3,27.8,12.1,27.8c6.2,0,10.3-2.3,12.8-6
				c-1.9,1.4-4.5,2.3-8.2,2.3c-6.3,0-9.6-3-11.2-5.6c-2.9-4.8-2.7-11.9,0.5-18.1c1.5-2.7,3-5.5,4.7-8c1.5-2.3,3-4.9,4.5-7.5
				C597.5,249.1,596.6,247.4,595.7,245.6"/>
			<path class="st0" d="M604.2,260.6c-0.4,0.7-0.8,1.4-1.2,1.9c-0.8,1.4-1.6,2.5-2.2,3.8c-1.4,2.5-1.5,5.5-0.4,7.1
				c0.8,1.2,2.1,1.9,3.8,1.9s3.2-0.7,4-1.9c0.8-1.4,1-3.4,0.3-5.5c-0.1-0.7-0.5-1.4-1-2.1l0.1,0.1c0,0,0,0-0.1-0.1
				C606.6,264.1,605.5,262.1,604.2,260.6"/>
			<path class="st0" d="M600.1,253.7c-1.2,2.1-2.5,4.3-3.7,6.2c-1.6,2.5-3.2,5.1-4.5,7.7c-2.9,5.6-3.2,11.7-0.7,15.6
				c1.8,2.9,4.9,4.4,9.1,4.4s7.3-1.5,9.2-4.4c1.1-1.8,1.6-3.8,1.6-6.2c0-0.5-0.1-1.2-0.1-1.8c-1.5,1.9-3.7,3-6.4,3s-5.1-1.2-6.3-3.2
				c-1.6-2.6-1.5-6.4,0.3-9.9c0.8-1.5,1.6-2.7,2.3-4.1c0.7-1.1,1.4-2.1,1.9-3.2C601.9,256.6,601,255.1,600.1,253.7"/>
			<path class="st0" d="M166,164.7h-2.9v13.4c0,0.5,0.7,1.2,1.2,1.2h8.5l-1.9-3H166L166,164.7L166,164.7z"/>
			<path class="st0" d="M119.2,161.1c-7.1,0-12.9,5.6-12.9,12.8c0,7,5.6,12.8,12.9,12.8c0.8,0,1.5-0.1,2.1-0.1v4.9h3.7v-6.2
				c4.1-1.9,7-6.2,7-11.2C132.1,166.8,126.3,161.1,119.2,161.1 M119.3,181.9c-4.7,0-8.4-3.7-8.4-8.2s3.7-8.2,8.4-8.2
				s8.4,3.7,8.4,8.2c-0.1,2.3-1.1,4.5-2.6,5.9v-4.1l-3.6,1.1v5.1C120.8,181.9,120,181.9,119.3,181.9"/>
			<path class="st0" d="M145.1,164.7h-2.9v11.7h-5.1v-11.7h-2.9v13.4c0,0.5,0.7,1.2,1.2,1.2h8.4c0.5,0,1.2-0.7,1.4-1.2L145.1,164.7
				L145.1,164.7z"/>
			<path class="st0" d="M178.7,164.3c-4.4,0-7.8,3.4-7.8,7.8s3.6,7.8,7.8,7.8c1.4,0,2.6-0.4,3.7-1l-1.5-2.5
				c-0.7,0.4-1.5,0.5-2.3,0.5c-2.7,0-4.9-2.2-4.9-4.9c0-2.6,2.2-4.9,4.9-4.9c1,0,1.8,0.3,2.5,0.7l1.6-2.5
				C181.5,164.7,180.2,164.3,178.7,164.3"/>
			<path class="st0" d="M189.4,164.3c-4.4,0-7.8,3.6-7.8,7.8c0,4.3,3.4,7.8,7.8,7.8c4.4,0,7.8-3.4,7.8-7.8S193.8,164.3,189.4,164.3
				 M189.4,177.1c-2.7,0-4.9-2.1-4.9-4.9c0-2.9,2.2-4.9,4.9-4.9c2.7,0,4.9,2.2,4.9,4.9C194.5,174.9,192.1,177.1,189.4,177.1"/>
		</g>
		<path class="st0" d="M155.4,164.7h-2.9l-6.4,14.5h3l1.5-3.2h6.7l0.1,0.3l1.4,2.9h3L155.4,164.7z M151.7,173.6l2.3-5.3l2.3,5.3
			H151.7z"/>
		<g>
			<path class="st0" d="M237,164.7c-0.7,0-1.4,0.3-1.6,0.8l-3.8,9.1l-3.8-9.1c-0.3-0.5-1-0.8-1.6-0.8c-0.8,0-1.4,0.3-1.6,0.8
				l-3.8,9.1l-3.8-9.1c-0.3-0.5-1-0.8-1.6-0.8s-1.4,0.3-1.6,0.8l-3.8,9.1l-3.8-9.1c-0.3-0.5-1-0.8-1.6-0.8c-0.7,0-1.4,0.3-1.6,0.8
				l-5.3,12.2c-0.5,1.2,0.4,2.1,1.4,2.1c0.5,0,1-0.3,1.4-0.8l4.3-9.6l4.3,9.6c0.3,0.4,0.8,0.7,1.4,0.7c0.5,0,1.1-0.3,1.4-0.7
				l4.3-9.6l4.3,9.6c0.3,0.5,0.7,0.7,1.2,0.7h0.1h0.1c0.5,0,1-0.3,1.2-0.7l4.3-9.6l4.3,9.6c0.3,0.4,0.8,0.7,1.4,0.7s1.1-0.3,1.4-0.7
				l4.3-9.6l4.3,9.6c-0.1,0.5,0.1,0.8,0.4,0.8c0.5,0,1.6-0.8,1.1-2.1l-5.3-12.2C238.4,165.1,237.7,164.7,237,164.7"/>
			<path class="st0" d="M243.8,165c-1,0-1.8,0.7-1.8,1.8c0,1,0.8,1.8,1.8,1.8c1,0,1.8-0.7,1.8-1.8C245.5,165.7,244.7,165,243.8,165
				 M243.8,168.1c-0.8,0-1.5-0.7-1.5-1.5s0.7-1.5,1.5-1.5c0.8,0,1.4,0.7,1.4,1.5C245.1,167.5,244.5,168.1,243.8,168.1 M243.8,165.7
				H243v1.9h0.3v-0.8h0.4l0.5,0.8h0.4l-0.5-1c0.1,0,0.4-0.1,0.4-0.5C244.5,165.7,244.3,165.7,243.8,165.7 M243.4,166.5v-0.7h0.4
				c0.3,0,0.4,0,0.4,0.3s-0.3,0.3-0.5,0.3L243.4,166.5z"/>
		</g>
		<polygon class="st0" points="423.5,163.3 423.4,163.3 423.4,163.6 423.5,163.6 423.6,163.6 423.8,163.3 423.6,163.3 423.6,163.3 
					"/>
		<g>
			<path class="st0" d="M435,127l-77.6,19.9c-11.1,2.9-20.3,14.1-20.3,25.2v32.6l77.5-20.3c11.1-2.9,20.3-14.1,20.3-25.2L435,127z
				 M417.9,166.8c-2.1,0-3.6-1.5-3.6-3.7v-14.9l3.2-0.8v3.8l3.4-1c-0.1,0.7-0.3,1.4-0.3,1.5c-0.3,1.2-1.2,2.2-2.3,2.5l-0.8,0.3v8
				c0,0.8,0.5,1.2,1.2,1.2h0.4c0.3-0.1,0.1,0,2.1-0.5v3.2c-1.6,0.4-1.9,0.5-2.1,0.5c-0.1,0-0.3,0-0.4,0
				C418.4,166.8,418.1,166.8,417.9,166.8 M386.9,175.3v-18.5c0-2.6,2.1-5.5,4.9-6c0.1,0,3.8-1.1,3.8-1.1c-0.1,0.5-0.3,1-0.3,1.2v0.3
				c-0.3,1.1-1.2,2.1-2.3,2.3l-1.1,0.3c-1,0.3-1.6,1.2-1.6,1.9v2.3l3.6-1c0,0.3-0.4,1.6-0.4,1.6c-0.3,1.1-1.2,1.9-2.2,2.2l-1,0.3
				v10.6c0,1.4-1.1,2.6-2.3,3C387.6,175,386.9,175.3,386.9,175.3 M407.6,166.6L407.6,166.6h0.5h0.3c1-0.3,1.6-1.4,1.6-2.2
				c0-3-6.3-1.1-6.3-5.3c0-2.5,1.8-4.8,4.4-5.5c0.4-0.1,0.8-0.1,1.2-0.1c1.9,0,3.2,1.5,3.2,3.6v0.4l-1.1,0.3c-0.4,0.1-0.8,0.1-1,0.1
				c-0.5,0-0.8-0.3-1.1-0.8c0,0,0-0.1-0.1-0.1c-0.1-0.1-0.3-0.3-0.5-0.4h-0.3l0,0h-0.3c-0.7,0.1-1.2,0.7-1.2,1.5
				c0,2.1,6.3,0.3,6.3,5.5c0,2.7-1.9,5.5-4.7,6l-0.5,0.1c-0.4,0.1-1,0.1-1.4,0.1c-1.9,0-3.4-1.5-3.4-3.6v-0.8l1.5-0.4
				c0.3-0.1,0.5-0.1,0.7-0.1c0.7,0,0.8,0.4,1.1,1l0.1,0.1C407,166.4,407.3,166.6,407.6,166.6 M395,160.2V157
				c1.5-0.4,2.2-0.7,2.5-0.7c0.4-0.1,0.8-0.1,1.2-0.1c2.1,0,3.6,1.5,3.6,3.7v9.1c0,1.4-1.1,2.6-2.3,3l-0.8,0.3v-0.8
				c-0.3,0.5-1.5,1.4-2.2,1.5l-0.3,0.1c-0.5,0.1-1,0.1-1.4,0.1c-1.9,0-3.3-1.4-3.3-3.4v-0.5c0-2.7,2.3-4.7,5.6-6.9
				c1-0.7,1.6-1.2,1.8-1.9v-0.1c0-0.7-0.4-1.1-1.1-1.1h-0.4C397.9,159.2,396.5,159.8,395,160.2 M361.5,181.9c-0.7,0-1.6-0.7-1.6-2.3
				v-18.8c0-0.3,0.1-0.4,0.4-0.5l1.5-0.4h0.1c0.1,0,0.3,0.1,0.3,0.3v21.3c0,0.3-0.1,0.4-0.4,0.5H361.5 M352.3,182.1
				c0.3,0,0.5,0,0.8-0.1c1.8-0.5,3.2-2.2,3.2-4c0-2.1-1.8-3.6-3.7-5.1l-0.3-0.3c-1.9-1.5-4.1-2.9-4.1-5.8c0-2.6,2.2-5.5,4.9-6.2
				c0.4-0.1,1-0.1,1.4-0.1c2.1,0,3.6,1.5,3.6,3.6c0,0.3-0.1,0.5-0.4,0.5l-1.4,0.4h-0.1c-0.1,0-0.4-0.1-0.4-0.4
				c0-1.2-0.8-1.8-1.8-1.8c-0.3,0-0.5,0-0.8,0.1c-1.5,0.4-2.6,1.8-2.6,3.3c0,1.9,1.6,3,3.3,4.4l0.4,0.3c2.3,1.8,4.4,3.4,4.4,6.4
				c0,2.9-2.3,6-5.5,6.9c-0.5,0.1-1,0.1-1.5,0.1c-2.3,0-4.1-1.6-4.1-4.1c0-0.4,0-0.8,0.1-1.4c0-0.3,0.3-0.4,0.5-0.5h1.4
				c0.3,0,0.4,0.1,0.3,0.4c0,0.3-0.1,0.5-0.1,0.8C349.9,181.2,351,182.1,352.3,182.1 M377.3,163.2c0.7-1.2,1.9-1.9,3-2.3
				c0.4-0.1,0.7-0.1,1-0.1c1.6,0,2.7,1.2,2.7,2.9v11.9c0,0.3-0.1,0.4-0.4,0.5h-0.3c-0.7,0-1.5-0.7-1.6-2.3v-9.2c0-1-0.7-1.5-1.5-1.5
				c-0.1,0-0.3,0-0.5,0.1c-1,0.3-1.9,1.2-1.9,2.2v11.8c0,0.3-0.1,0.4-0.4,0.5H377c-0.8,0-1.6-0.8-1.6-2.7v-0.1v-8.6
				c0-1-0.7-1.5-1.5-1.5c-0.1,0-0.3,0-0.5,0.1c-1,0.3-1.9,1.2-1.9,2.2v11.8c0,0.3-0.1,0.4-0.4,0.5h-0.3c-0.8,0-1.6-0.8-1.6-2.6V164
				c0-0.3,0.1-0.4,0.4-0.5l1.5-0.4h0.1c0.1,0,0.3,0.1,0.3,0.3v0.4c0.7-0.7,1.5-1.2,2.3-1.5c0.4-0.1,0.7-0.1,1-0.1c0.1,0,0.3,0,0.4,0
				C376.3,162.4,377,162.7,377.3,163.2 M365.6,163.3c-0.5,0-1-0.4-1-1c0-0.7,0.5-1.5,1.4-1.6h0.3c0.5,0,1,0.4,1,1
				c0,0.7-0.5,1.5-1.4,1.6H365.6 M423.5,165c-0.1,0-0.3,0-0.4-0.1c-0.1,0-0.3-0.1-0.4-0.3c-0.1-0.1-0.1-0.3-0.3-0.4
				c-0.1-0.1-0.1-0.3-0.1-0.4s0-0.3,0.1-0.4c0-0.1,0.1-0.3,0.3-0.4s0.3-0.1,0.4-0.3c0.1,0,0.3-0.1,0.4-0.1c0.1,0,0.3,0,0.4,0.1
				c0.1,0,0.3,0.1,0.4,0.3c0.1,0.1,0.1,0.3,0.3,0.4c0,0.1,0.1,0.3,0.1,0.4s0,0.3-0.1,0.4c-0.1,0.1-0.1,0.3-0.3,0.4s-0.3,0.1-0.4,0.3
				C423.8,165,423.6,165,423.5,165 M366.6,180.8c0,0-0.1,0-0.3,0c-0.7,0-1.5-0.7-1.6-2.3v-13c0-0.3,0.1-0.4,0.4-0.5l1.5-0.4h0.1
				c0.1,0,0.3,0.1,0.3,0.3v15.4C367,180.5,366.9,180.5,366.6,180.8"/>
			<path class="st0" d="M399.2,163.9c-0.3,0.4-1.2,1.1-1.9,1.5c-1.4,1-2.2,1.9-2.2,3c0,1,0.5,1.4,1.2,1.4c0.1,0,0.4,0,0.5-0.1h0.1
				c1.2-0.3,2.2-1.8,2.2-3V163.9z"/>
			<path class="st0" d="M423.5,162.7c-0.1,0-0.3,0-0.4,0.1c-0.1,0-0.1,0.1-0.3,0.1c-0.1,0.1-0.1,0.1-0.1,0.3s-0.1,0.3-0.1,0.4
				s0,0.3,0.1,0.4c0,0.1,0.1,0.3,0.1,0.3s0.1,0.1,0.3,0.1c0.1,0,0.3,0.1,0.4,0.1c0.1,0,0.3,0,0.4-0.1c0.1,0,0.1-0.1,0.3-0.1
				s0.1-0.1,0.1-0.3c0-0.1,0.1-0.3,0.1-0.4s0-0.3-0.1-0.4c0-0.1-0.1-0.3-0.1-0.3c-0.1-0.1-0.1-0.1-0.3-0.1
				C423.8,162.9,423.6,162.7,423.5,162.7 M423.1,164.3v-1.2h0.4h0.1h0.1l0.1,0.1v0.3v0.1v0.1h-0.1h-0.1l0.3,0.5h-0.4l-0.3-0.5
				L423.1,164.3L423.1,164.3z"/>
			<path class="st0" d="M597.4,156.1c-0.1,0-0.3,0-0.4,0.1h0.1h0.1h0.4l0.3,0.1l0.3,0.1l0.3,0.3l0.3,0.1h0.3l0,0h0.1h0.1h0.1
				l0.4,0.4v0.1v0.1c0.1-0.1,0.4-0.1,0.5-0.1s0.4,0,0.5,0.1h0.1h0.1h0.1l0.1-0.1c-1-0.1-1,0.1-1.6-0.5c-0.1-0.1-0.4-0.1-0.4-0.1
				c-0.1,0-0.1,0-0.1,0h-0.1c-0.1,0-0.3,0-0.4-0.1c-0.5-0.7-0.3-0.4-1-0.5C597.7,156.4,597.5,156.1,597.4,156.1"/>
			<path class="st0" d="M617.5,175.5h-17.1l1.9,1.6h0.1l0.1,0.1l0.1,0.1l0.1,0.1c0.4,0.4,0.7,1,0.8,1.5v0.1l-0.1,0.1l-0.1,0.1
				l-0.1,0.3v0.4v0.7c0,0.5,0.1,1.5-0.5,1.8c0,1.4-0.5,2.7-1.5,3.8c-0.5,0.4-0.5,1-0.3,1.5c-0.3,0.1-0.8,1.9-0.7,2.1v0.3l0.1,0.3
				l0.1,0.1l0.3,0.1l0.3,0.1h0.3h0.3h0.1l-0.1-0.1l-0.1-0.1v-0.1l0.1-0.1l0.3-0.1l0.5-0.3l0.3-0.3v-0.3l-0.1-0.3h-0.1h0.1h0.1h0.3
				l0.3-0.1l0.3-0.3l0.3-0.3l0.3-0.4l0.3-0.5h0.4h0.3l0.1-0.1l0.3-0.1l0.3-0.1l0.4-0.1l0.5-0.1l1.1-0.3h0.1l0.1-0.1h0.1v-0.1v-0.1
				c-0.1-0.8,0.1-0.5,1.1-1.1c1.8-1.1,2.6-1.8,3.6-3.4l0.1-0.3l0.3-0.3l0.3-0.3l0.4-0.3l0.5-0.3l0.4-0.1h0.5l0,0h0.1l0.1-0.1
				l0.1-0.1l0.4-0.4l0.3-0.4c0.4-0.7,0.3-1.1,1-1.8l0.1-0.1l0.1-0.1l0.1-0.1v-0.1l0.1-0.1l-0.3-0.5l-0.1-0.3L617.5,175.5
				L617.5,175.5z"/>
		</g>
		<polygon class="st0" points="605.1,158.5 605.1,159.1 605.3,159.1 605.5,158.8 605.5,158.8 605.3,158.8 605.2,158.8 605.2,158.5 
					"/>
		<g>
			<path class="st0" d="M602.3,157.9c-0.1,0-0.4,0-0.5,0.1v0.4v0.1l-0.1,0.1c0.4,0,0.5,0,0.7,0.3c0.5-0.3,1.2-0.3,1.8-0.4
				C603.7,158.4,603,157.9,602.3,157.9"/>
			<path class="st0" d="M625.6,176.9c-5.1,12.5-17.3,18.8-29.3,18.8s-24.1-6.2-29.2-18.5c4.8,13.9,16.9,20.6,28.9,20.6
				C608.4,197.6,620.7,190.8,625.6,176.9"/>
			<path class="st0" d="M596.2,138.2c-14.7,0-24.8,7.8-29.3,20.7c3.7-9.1,11-14.7,19.5-17.1c-0.1,0.3-0.3,0.5-0.3,0.5
				c-0.1,0.3-0.3,0.7-0.5,0.8c-0.7,0.3-1.1,1.5-1.5,1.9l-0.1,0.3v0.1v0.3c-0.3,1-1.4,1.6-1.9,2.5l-0.3,0.5l-0.1,0.5l-0.1,0.5
				l-0.1,0.4v0.3c0.7,1.1,0.8,2.3,0.5,3.6h0.1l0.1,0.1l0.1,0.3l0.1,0.3l0.1,0.3l0.1,0.3l0.1,0.4l0.1,0.3l0.1,0.1
				c0.7-1.1-0.7-2.7-0.4-4l0.1-0.1h0.1c0.1,1.8,1.2,3.4,2.1,4.9l-0.1,0.1l-0.3,0.3v0.3l0.4,0.1l-0.3,0.5h0.3h0.1h0.3h0.1h0.3
				l0.1,0.1l0.1,0.1l0.3,0.3l0.4,0.3l0,0h0.1h6c0.1-0.8,0.4-1.6,1-2.2h-0.1H593h-0.1l-0.1-0.1l-0.1-0.1h-0.1
				c-0.3,0.1-0.5,1.1-0.8,1.2c-0.3,0.7-1.5,0.7-2.1,0.7c-0.1,0-0.3,0-0.3,0c-0.1,0-0.1-0.1-0.5-0.4c-0.1-0.3-0.4-0.7-0.5-1
				c-1-1.8,0.5-4.4,2.6-4.4c0.4,0,0.7,0.1,1.1,0.3c0.4-0.4,0.8-0.5,1.1-0.5s0.4,0,0.5,0.1c0.1,0,0.4,0.1,0.7,0.1
				c0.1,0,0.4,0,0.5-0.1l0.5-0.1l0.3,0.1l0.3,0.3l0.1,0.4l0.1,0.5l0.3,0.5l0.3,0.4l0.5,0.3l0.1-0.5l-0.1-0.5l-0.1-0.5l-0.4-1
				l-0.1-0.4l0.1-0.4l0.4-0.3c0.7-0.3,1.8-1,2.1-1.6l0.1-0.4l0.1-0.4l0.3-0.5l0.1-0.3l0.1-0.1l0.1-0.1h0.3l0.3-0.1l0.3-0.1l0.1-0.1
				l0.1-0.3v-0.1V147v-0.1h0.1h0.1h0.3h0.3l0.3-0.1l0.4-0.1l0.3-0.3l-0.3-0.1l-0.3-0.1l-0.3-0.1l-0.3-0.1l-0.3-0.1l-0.1-0.1v-0.4
				l0.3-0.1h0.3h0.4l0.5,0.1l0.5,0.1h0.5l0.4-0.1v-0.3c-1.4-0.5-2.1-1.4-3.3-1.9L601,143l-0.1,0.1h-0.4h-0.3L600,143l-0.3-0.1
				l-0.3-0.1c-0.4-0.3-0.7-0.4-1-0.4h-0.1h-0.1c-0.3,0-0.4,0-0.7-0.3l-0.1,0.4v0.5l0.1,0.1l0.1,0.1h0.3h0.1l0.1,0.1l0.1,0.1h-0.3
				h-0.3l-0.3,0.1l-0.1,0.3v0.5v0.1v0.1l-0.1,0.1h-0.1h-0.3c-1-0.5-0.3-0.7-1.2-1.1c-0.7-0.4-1.9-0.1-2.5-0.7l0.1-0.1l0.1-0.1
				l0.3-0.1l0.3-0.3l0.3-0.1l0.4-0.3l0.4-0.3l0.5-0.1c1.1-0.5,2.5-0.8,3.7-0.8c0.5,0,1.1,0,1.5,0.1c0,0-0.1,0-0.3-0.1
				c11.1,1.2,20.8,7.4,25.1,18.4C621.5,146.9,610.3,138.2,596.2,138.2 M600.8,141L600.8,141L600.8,141"/>
			<path class="st0" d="M535.3,161.8h-4.8l0.8,0.8c0.4,5.9-1.9,10,5.6,10.1c7.8-0.1,5.3-4.1,5.6-10.1l0.7-0.7h-4.9l0.8,0.8v6.4
				l-0.1,0.4l-0.3,0.3c-0.4,0.5-1.4,0.7-1.9,0.7h-0.5l-0.4-0.1l-0.4-0.1l-0.3-0.3l-0.3-0.3l-0.3-0.3l-0.1-0.4v-6.4L535.3,161.8z"/>
		</g>
		<polygon class="st0" points="560.1,162 556.1,162 556.7,162.7 556.7,168.1 550.9,162 547.2,162 548,162.7 548,172 547.2,172.8 
			551.3,172.8 550.5,172 550.5,166.5 556.7,172.8 559.4,172.8 559.4,162.7 		"/>
		<polygon class="st0" points="569.4,162 564.5,162 565.3,162.7 565.3,172 564.5,172.8 569.4,172.8 568.7,172 568.7,162.7 		"/>
		<polygon class="st0" points="585.5,162 581.3,162 582.2,162.7 579.1,168.7 576.4,162.7 577.2,162 572.3,162 577.6,172.8 
			580,172.8 		"/>
		<polygon class="st0" points="599.2,162 588.3,162 589,162.7 589,172 588.3,172.8 599.2,172.8 599.2,169.8 598.2,170.6 
			592.4,170.6 592.4,168.4 596.2,168.4 597,169.1 597,165.7 596.2,166.4 592.4,166.4 592.4,164 598.2,164 599.2,164.7 		"/>
		<g>
			<path class="st0" d="M610.4,162h-7.1l0.8,0.8v9.2l-0.8,0.8h4.8l-0.8-0.8v-3h1.4l2.2,3l-0.8,0.8h5.5l-3.2-4.3
				c1.6-0.5,2.6-1.6,2.6-3.3v-0.7l-0.3-0.5l-0.3-0.5l-0.4-0.5l-0.7-0.4l-0.8-0.3l-1-0.1L610.4,162z M608.9,166.8
				c-0.5,0-1.1,0-1.4-0.1V164h2.9l0.3,0.1h0.3c0.5,0.3,0.7,0.7,0.7,1.1C611.5,166.8,610.1,166.8,608.9,166.8"/>
			<path class="st0" d="M629.5,161.6l-1,0.8c-1.2-0.4-2.6-0.8-4-0.8c-1.4,0-2.7,0.3-3.8,1c-0.7,0.5-1.2,1.4-1.2,2.1
				c-0.1,2.1,1.8,3,3.6,3.6l0.5,0.1l0.5,0.1l0.5,0.1l0.5,0.1l0.4,0.1l0.3,0.3l0.3,0.3v0.4c0,0.7-1,0.8-1.5,0.8
				c-1.9-0.1-3.7-0.7-5.3-1.6v4l1-1c1.2,0.4,3,0.7,4.8,0.7c2.5,0,4.8-0.8,4.9-3.4c0-2.3-2.6-3-4.7-3.6c-0.7,0-3.3-1-1.9-1.8
				c0.3-0.1,0.7-0.3,1.1-0.3c1.5,0,3.8,0.7,4.8,1.2v-3.3L629.5,161.6L629.5,161.6z"/>
		</g>
		<path class="st0" d="M641.5,162h-3.8l0.4,0.8l-5.1,9.9h4.3l-0.8-0.8l0.7-1.2h5.5l0.5,1.2l-0.8,0.8l4.9,0.1L641.5,162z
			 M637.8,168.8l1.9-3.8l1.9,3.8H637.8z"/>
		<polygon class="st0" points="655,162 650.2,162 651,162.7 651,172 650.2,172.8 660.6,172.8 660.6,169.8 659.9,170.6 654.3,170.6 
			654.3,162.7 		"/>
		<g>
			<path class="st0" d="M659.4,162.7L659.4,162.7h-0.3h-0.3l-0.3,0.1l-0.1,0.3v0.1c0.1-0.1,0.3-0.3,0.5-0.3c0.1,0,0.4,0.1,0.5,0.3
				l0.1-0.3L659.4,162.7z M658.4,163.2c0,0.1-0.1,0.1-0.1,0.3l0.3,0.4l-0.1-0.3V163.2L658.4,163.2z M659.6,163.9L659.6,163.9
				l-0.3,0.3h-0.1h-0.1h-0.3l-0.3-0.1l0.3,0.1h0.3h0.1h0.1h0.1L659.6,163.9L659.6,163.9z"/>
			<path class="st0" d="M659.1,162c-0.8,0-1.6,0.5-1.6,1.4c0,1,0.8,1.5,1.5,1.5c0.8,0,1.5-0.5,1.6-1.5
				C660.6,162.5,659.8,162,659.1,162 M659,164.7c-0.7,0-1.4-0.4-1.4-1.4c0-0.8,0.8-1.2,1.5-1.2c0.7,0,1.4,0.4,1.5,1.2
				C660.5,164.3,659.8,164.7,659,164.7"/>
		</g>
	</g>
</g>
</svg>
