<svg style="position: absolute; width: 0; height: 0; overflow: hidden;" version="1.1" xmlns="http://www.w3.org/2000/svg">
<defs>
<symbol id="icon-pepsico" viewBox="0 0 16 16">
<title>pepsico</title>
<path d="M12.894 8.225c0 0.992 0.744 1.025 1.146 1.025s1.146-0.032 1.146-1.025c0-0.992-0.744-1.025-1.146-1.025s-1.146 0.032-1.146 1.025zM13.598 8.225c0-0.389 0.171-0.542 0.441-0.542s0.441 0.153 0.441 0.542-0.171 0.542-0.441 0.542c-0.27 0-0.441-0.153-0.441-0.542z"></path>
<path d="M12.732 8.437c-0.043 0.252-0.117 0.456-0.281 0.595-0.162 0.139-0.415 0.217-0.819 0.217-0.402 0-1.146-0.032-1.146-1.025s0.744-1.025 1.146-1.025c0.399 0 1.014 0.059 1.101 0.818h-0.746c-0.019-0.137-0.098-0.335-0.354-0.335-0.27 0-0.441 0.153-0.441 0.542s0.166 0.542 0.409 0.542c0.209 0 0.334-0.1 0.387-0.33h0.746z"></path>
<path d="M9.617 9.182h0.662v-1.915h-0.662z"></path>
<path d="M7.737 8.37c-0.324-0.056-0.458-0.271-0.458-0.539 0-0.497 0.425-0.63 0.97-0.63 0.746 0 1.054 0.223 1.078 0.627h-0.77c0-0.078-0.040-0.126-0.101-0.153-0.059-0.029-0.134-0.040-0.207-0.040-0.197 0-0.266 0.056-0.266 0.137 0 0.053 0.021 0.088 0.087 0.099l0.791 0.134c0.334 0.056 0.54 0.233 0.54 0.558 0 0.467-0.334 0.687-1.078 0.687-0.51 0-1.066-0.081-1.068-0.644h0.798c0.002 0.065 0.024 0.107 0.070 0.137 0.050 0.027 0.122 0.040 0.226 0.040 0.207 0 0.263-0.065 0.263-0.155 0-0.056-0.030-0.113-0.12-0.129l-0.756-0.129z"></path>
<path d="M5.087 9.182h0.662v-0.595h0.709c0.47 0 0.638-0.284 0.638-0.652 0-0.426-0.173-0.668-0.643-0.668h-1.366v1.915zM5.748 7.718h0.427c0.167 0 0.23 0.059 0.23 0.204 0 0.139-0.064 0.198-0.23 0.198h-0.427v-0.402z"></path>
<path d="M3.027 7.267h1.782v0.467h-1.119v0.258h1.040v0.467h-1.040v0.258h1.119v0.467h-1.782z"></path>
<path d="M0.8 9.182v-1.915h1.366c0.47 0 0.643 0.242 0.643 0.668 0 0.368-0.169 0.652-0.639 0.652h-0.709v0.595h-0.662zM1.462 7.718v0.403h0.427c0.167 0 0.23-0.059 0.23-0.199 0-0.145-0.063-0.204-0.23-0.204h-0.427z"></path>
</symbol>
<symbol id="icon-castrol" viewBox="0 0 16 16">
<title>castrol</title>
<path d="M15.38 6.261h-12.81c-0.692 0.007-1.375 0.196-1.75 0.838-0.328 0.518-0.308 1.339 0.030 1.844 0.337 0.553 0.909 0.777 1.502 0.795h12.082l0.947-3.477h0.001zM14.505 9.825h-12.225c-0.659-0.030-1.308-0.378-1.603-1.020-0.288-0.585-0.225-1.425 0.202-1.934 0.417-0.505 0.989-0.679 1.615-0.695h13.007l-0.995 3.648-0.001 0.001zM3.614 7.49h-2.033l0.224-0.838c0.492-0.185 1.030-0.077 1.401 0.249 0.296 0.261 0.398 0.559 0.408 0.59z"></path>
<path d="M5.772 6.909c0.106 0.232 0.003 0.516-0.058 0.734l-0.54 0.092c0.027-0.207 0.143-0.407 0.106-0.635-0.013-0.027-0.040-0.053-0.069-0.061-0.148-0.018-0.244 0.136-0.309 0.242-0.183 0.395-0.321 0.83-0.385 1.277-0.003 0.123-0.039 0.296 0.093 0.349 0.066 0.010 0.116-0.012 0.16-0.055 0.119-0.151 0.242-0.531 0.242-0.531 0.188-0.027 0.367-0.065 0.553-0.103-0.109 0.411-0.264 0.982-0.769 1.065-0.256 0.030-0.532 0.023-0.705-0.177-0.22-0.277-0.138-0.716-0.072-1.040 0.151-0.551 0.444-1.325 1.125-1.395 0.241-0.021 0.503 0.003 0.628 0.237h-0zM9.617 6.697l-0.136 0.549h0.363l-0.079 0.314h-0.364c0 0-0.142 0.498-0.207 0.738-0.050 0.184-0.111 0.405-0.113 0.549 0.082 0.088 0.222 0.033 0.331 0.048-0.008 0.104-0.050 0.206-0.076 0.309-0.264-0.023-0.626 0.101-0.774-0.176-0.044-0.088-0.017-0.204 0-0.296 0.096-0.383 0.313-1.171 0.313-1.171h-0.178l0.076-0.314h0.185c0.047-0.154 0.136-0.466 0.136-0.466l0.525-0.083zM12.795 8.666c0.002 0.058-0.032 0.126 0.007 0.177 0.079 0.080 0.207 0.045 0.319 0.052 0 0.005-0.065 0.315-0.065 0.315s-0.188-0.005-0.285-0.001c-0.207 0.007-0.409-0.001-0.496-0.216-0.057-0.34 0.108-0.645 0.178-0.961 0.101-0.405 0.331-1.226 0.331-1.226l0.54-0.108-0.528 1.969zM1.458 6.848c-0.116 0.388-0.22 0.78-0.331 1.171-0.021 0.105-0.032 0.232 0.047 0.309 0.059 0.061 0.128 0.096 0.212 0.098h2.255c-0.11 0.432-0.473 0.784-0.869 0.933-0.446 0.168-0.977 0.079-1.331-0.21-0.439-0.36-0.645-0.892-0.522-1.46 0.067-0.319 0.254-0.634 0.54-0.841l0-0zM8.64 7.247c0.004 0.003-0.088 0.306-0.089 0.306-0.194-0.016-0.478-0.068-0.596 0.141-0.079 0.317 0.37 0.425 0.419 0.705 0.059 0.245 0 0.502-0.2 0.66-0.281 0.256-0.748 0.204-1.090 0.116 0.003 0.001 0.085-0.322 0.083-0.322 0.205 0.040 0.557 0.131 0.703-0.101 0.099-0.283-0.252-0.388-0.372-0.6-0.133-0.176-0.106-0.448 0-0.63 0.253-0.362 0.751-0.405 1.141-0.277z"></path>
<path d="M11.027 7.234l-0.197 0.309c-0.121-0.013-0.252-0.007-0.361 0.030l-0.444 1.636h-0.508l0.503-1.878c0.255-0.12 0.546-0.174 0.858-0.141l0.149 0.043v0zM11.636 7.535c-0.047 0.013-0.089 0.043-0.127 0.086-0.222 0.357-0.377 0.842-0.389 1.19 0.005 0.056 0.034 0.090 0.089 0.091 0.079 0.001 0.114-0.037 0.161-0.085 0.206-0.338 0.363-0.775 0.377-1.204 0.002-0.069-0.059-0.082-0.111-0.078h-0.001zM12.198 7.44c0.152 0.319 0.022 0.698-0.072 1.002-0.109 0.307-0.326 0.659-0.656 0.768-0.231 0.065-0.522 0.075-0.717-0.078-0.264-0.246-0.165-0.693-0.072-0.979 0.133-0.407 0.45-0.913 0.917-0.966 0.236-0.005 0.478 0.025 0.6 0.254l0.001-0zM6.606 8.27c-0.158 0.025-0.353 0.076-0.444 0.246-0.048 0.103-0.069 0.259 0.017 0.35 0.064 0.063 0.173 0.030 0.254 0.030l0.172-0.626h0zM7.181 7.362c0.126 0.159 0.084 0.42 0.035 0.604l-0.325 1.188c-0.136 0.060-0.301 0.070-0.457 0.098-0.301 0.030-0.636 0.018-0.803-0.266-0.087-0.199-0.052-0.466 0.077-0.634 0.257-0.312 0.628-0.362 0.994-0.423 0.030-0.096 0.066-0.212 0.030-0.315-0.111-0.146-0.33-0.075-0.483-0.061-0.087 0.015-0.162 0.045-0.244 0.068 0.004 0.003 0.077-0.332 0.077-0.333 0.322-0.121 0.824-0.207 1.101 0.072l-0 0zM2.001 7.894c0.018 0 0.035-0.016 0.037-0.035l0.001-0.005c0.002-0.019-0.012-0.035-0.031-0.035h-0.093c-0.018 0-0.035 0.016-0.037 0.035l-0 0.005c-0.002 0.019 0.012 0.035 0.031 0.035h0.093zM1.942 8.1c0.018 0 0.035-0.015 0.037-0.035l0-0.005c0.002-0.019-0.012-0.036-0.031-0.036h-0.093c-0.018 0-0.035 0.017-0.037 0.036l-0 0.005c-0.002 0.020 0.012 0.035 0.031 0.035h0.094zM1.813 7.989c0.012 0 0.023-0.012 0.024-0.027v-0.003c0.001-0.016-0.008-0.027-0.020-0.027h-0.062c-0.012 0-0.023 0.012-0.024 0.027v0.003c-0.001 0.016 0.008 0.027 0.020 0.027h0.062zM1.871 7.786c0.012 0 0.023-0.013 0.024-0.027l0-0.003c0.001-0.015-0.008-0.027-0.020-0.027h-0.062c-0.012 0-0.023 0.012-0.024 0.027l-0 0.003c-0.001 0.015 0.008 0.027 0.020 0.027h0.062zM1.754 8.197c0.012 0 0.024-0.012 0.024-0.027l0-0.004c0.001-0.015-0.008-0.027-0.020-0.027h-0.062c-0.012 0-0.023 0.012-0.024 0.027v0.004c-0.001 0.015 0.008 0.027 0.020 0.027h0.062zM1.7 7.887c0.012 0 0.023-0.012 0.024-0.027l0-0.003c0.001-0.015-0.008-0.027-0.020-0.027h-0.062c-0.012 0-0.023 0.012-0.024 0.027v0.003c-0.001 0.015 0.008 0.027 0.020 0.027h0.061zM1.642 8.094c0.012 0 0.023-0.012 0.024-0.027l0-0.003c0.001-0.015-0.008-0.027-0.020-0.027h-0.062c-0.012 0-0.023 0.012-0.024 0.027v0.003c-0.001 0.015 0.008 0.027 0.020 0.027h0.062zM1.534 7.989c0.012 0 0.023-0.012 0.024-0.027v-0.003c0.001-0.015-0.008-0.027-0.020-0.027h-0.062c-0.012 0-0.023 0.013-0.024 0.027v0.003c-0.001 0.015 0.008 0.027 0.020 0.027 0 0 0.062 0 0.062 0zM1.593 7.785c0.012 0 0.023-0.012 0.024-0.027l0-0.003c0.001-0.016-0.008-0.027-0.020-0.027h-0.062c-0.012 0-0.023 0.012-0.024 0.027v0.003c-0.002 0.016 0.008 0.027 0.020 0.027h0.061zM1.476 8.196c0.012 0 0.023-0.012 0.024-0.027l0-0.004c0.001-0.015-0.008-0.027-0.020-0.027h-0.062c-0.012 0-0.024 0.012-0.024 0.027l-0 0.004c-0.001 0.015 0.008 0.027 0.020 0.027h0.063zM2.162 7.906h-0.087c-0.031 0-0.058 0.022-0.062 0.051l-0.001 0.006c-0.003 0.028 0.021 0.050 0.052 0.050h0.063l0.034-0.107v0zM2.098 8.113h-0.080c-0.031 0-0.058 0.023-0.062 0.050l-0 0.006c-0.003 0.028 0.020 0.051 0.052 0.051h0.059l0.030-0.107h-0.001zM2.228 7.705h-0.086c-0.031 0-0.058 0.022-0.062 0.051l-0.001 0.006c-0.003 0.029 0.020 0.051 0.052 0.051h0.059l0.038-0.107h-0.001zM2.901 7.744c-0.012 0-0.022 0.008-0.023 0.021v0.003c-0.001 0.011 0.007 0.019 0.019 0.019h0.058c0.012 0 0.022-0.008 0.023-0.019l0.001-0.003c0.001-0.011-0.007-0.021-0.019-0.021h-0.058zM2.786 8.143c-0.012 0-0.022 0.009-0.023 0.021v0.002c-0.001 0.011 0.007 0.021 0.019 0.021h0.058c0.012 0 0.022-0.009 0.023-0.021l0.001-0.002c0.001-0.011-0.007-0.021-0.019-0.021h-0.058zM2.841 7.941c-0.012 0-0.022 0.009-0.022 0.020l-0.001 0.003c-0.001 0.011 0.007 0.021 0.019 0.021h0.058c0.011 0 0.022-0.009 0.023-0.021l0.001-0.003c0.001-0.011-0.007-0.020-0.019-0.020h-0.059zM2.713 7.839c-0.012 0-0.022 0.009-0.023 0.020v0.003c-0.001 0.011 0.007 0.021 0.019 0.021h0.058c0.012 0 0.022-0.009 0.023-0.021l0.001-0.003c0.001-0.011-0.007-0.020-0.019-0.020 0 0-0.058 0-0.058 0zM2.656 8.046c-0.012 0-0.022 0.009-0.023 0.021v0.002c-0.001 0.011 0.007 0.021 0.019 0.021h0.058c0.012 0 0.022-0.009 0.023-0.021l0.001-0.002c0.001-0.011-0.007-0.021-0.019-0.021h-0.058zM2.583 7.742c-0.012 0-0.022 0.008-0.023 0.019v0.003c-0.001 0.011 0.007 0.021 0.019 0.021h0.058c0.012 0 0.022-0.008 0.023-0.021v-0.003c0.001-0.011-0.007-0.019-0.019-0.019h-0.058zM2.469 8.141c-0.012 0-0.022 0.009-0.023 0.021l-0.001 0.002c-0.001 0.011 0.007 0.020 0.019 0.020h0.058c0.012 0 0.022-0.008 0.023-0.020l0.001-0.002c0.001-0.011-0.007-0.021-0.019-0.021h-0.058zM2.524 7.938c-0.012 0-0.022 0.009-0.023 0.021l-0.001 0.003c-0.001 0.011 0.007 0.021 0.019 0.021h0.058c0.011 0 0.022-0.009 0.023-0.021l0.001-0.003c0.001-0.011-0.007-0.021-0.019-0.021h-0.058zM2.378 7.83c-0.018 0-0.033 0.011-0.034 0.026l-0.001 0.003c-0.002 0.015 0.012 0.027 0.030 0.027h0.088c0.018 0 0.033-0.011 0.034-0.027l0.001-0.003c0.002-0.014-0.012-0.026-0.030-0.026 0 0-0.088 0-0.088 0zM2.316 8.035c-0.018 0-0.033 0.011-0.034 0.027l-0.001 0.003c-0.002 0.015 0.012 0.027 0.030 0.027h0.088c0.018 0 0.033-0.011 0.034-0.027l0.001-0.003c0.002-0.015-0.012-0.027-0.030-0.027h-0.088zM2.129 8.014h0.093c0.031 0 0.058-0.022 0.062-0.051l0.001-0.006c0.002-0.029-0.021-0.051-0.052-0.051h-0.071l0.030-0.091h0.097c0.031 0 0.059-0.022 0.062-0.051l0.001-0.006c0.003-0.027-0.019-0.051-0.050-0.051l1.379-0c0.064 0.294 0.013 0.513 0.013 0.513h-1.527c0.031 0 0.059-0.023 0.062-0.051l0.001-0.006c0.003-0.028-0.021-0.050-0.052-0.050h-0.076l0.031-0.098 0.001-0.001z"></path>
</symbol>
<symbol id="icon-ee" viewBox="0 0 16 16">
<title>ee</title>
<path d="M7.29 8.882c0.091 0 0.172 0.047 0.219 0.118 0.046-0.071 0.127-0.118 0.219-0.118 0.105 0 0.196 0.062 0.237 0.151 0.042-0.089 0.131-0.151 0.237-0.151s0.196 0.062 0.237 0.15c0.042-0.089 0.133-0.15 0.237-0.15 0.145 0 0.261 0.117 0.261 0.261s-0.117 0.261-0.261 0.261c-0.105 0-0.196-0.062-0.237-0.151-0.041 0.089-0.132 0.151-0.237 0.151s-0.196-0.062-0.237-0.151c-0.042 0.089-0.132 0.151-0.237 0.151-0.091 0-0.172-0.047-0.219-0.118-0.019 0.028-0.042 0.053-0.070 0.072 0.068 0.047 0.113 0.126 0.113 0.214s-0.045 0.166-0.112 0.213c0.068 0.047 0.112 0.125 0.112 0.213s-0.045 0.166-0.112 0.213c0.021 0.014 0.039 0.032 0.055 0.052 0.048-0.060 0.122-0.098 0.205-0.098 0.096 0 0.179 0.052 0.225 0.129 0.045-0.077 0.129-0.129 0.225-0.129 0.095 0 0.178 0.050 0.223 0.126 0.046-0.075 0.129-0.126 0.223-0.126 0.144 0 0.261 0.117 0.261 0.261s-0.117 0.261-0.261 0.261c-0.095 0-0.178-0.050-0.223-0.126-0.046 0.075-0.129 0.126-0.223 0.126-0.096 0-0.18-0.052-0.225-0.128-0.045 0.076-0.129 0.128-0.225 0.128-0.083 0-0.157-0.039-0.205-0.098-0.016 0.020-0.035 0.038-0.056 0.053 0.068 0.047 0.113 0.126 0.113 0.214s-0.045 0.168-0.113 0.214c0.068 0.047 0.113 0.126 0.113 0.214s-0.045 0.168-0.113 0.214c0.027 0.020 0.051 0.043 0.070 0.072 0.046-0.072 0.128-0.118 0.219-0.118 0.105 0 0.196 0.062 0.237 0.151 0.042-0.089 0.132-0.151 0.237-0.151s0.196 0.062 0.237 0.15c0.042-0.089 0.133-0.15 0.237-0.15 0.145 0 0.261 0.117 0.261 0.261s-0.117 0.261-0.261 0.261c-0.105 0-0.196-0.062-0.237-0.15-0.041 0.089-0.132 0.15-0.237 0.15s-0.196-0.062-0.237-0.151c-0.042 0.089-0.132 0.151-0.237 0.151-0.091 0-0.171-0.046-0.218-0.117-0.046 0.072-0.128 0.118-0.22 0.118-0.144 0-0.261-0.117-0.261-0.261 0-0.089 0.045-0.168 0.113-0.214-0.069-0.047-0.113-0.126-0.113-0.214s0.045-0.168 0.113-0.214c-0.068-0.047-0.113-0.126-0.113-0.214s0.045-0.167 0.113-0.214c-0.069-0.047-0.113-0.126-0.113-0.214s0.045-0.167 0.112-0.214c-0.068-0.047-0.112-0.125-0.112-0.213s0.045-0.166 0.112-0.213c-0.068-0.047-0.112-0.125-0.112-0.213s0.045-0.168 0.113-0.214c-0.068-0.047-0.113-0.126-0.113-0.214 0-0.144 0.117-0.261 0.261-0.261zM7.29 4.027c0.091 0 0.172 0.047 0.219 0.118 0.046-0.071 0.127-0.118 0.219-0.118 0.105 0 0.196 0.062 0.237 0.151 0.042-0.089 0.131-0.151 0.237-0.151s0.196 0.061 0.237 0.151c0.042-0.089 0.133-0.151 0.237-0.151 0.145 0 0.261 0.117 0.261 0.261s-0.117 0.261-0.261 0.261c-0.105 0-0.196-0.061-0.237-0.151-0.041 0.089-0.132 0.151-0.237 0.151s-0.196-0.062-0.237-0.151c-0.042 0.089-0.132 0.151-0.237 0.151-0.091 0-0.172-0.047-0.219-0.118-0.019 0.029-0.043 0.053-0.070 0.072 0.068 0.047 0.113 0.125 0.113 0.215s-0.044 0.167-0.112 0.214c0.067 0.047 0.112 0.125 0.112 0.214s-0.044 0.167-0.112 0.214c0.021 0.014 0.039 0.032 0.054 0.051 0.048-0.060 0.122-0.098 0.205-0.098 0.096 0 0.179 0.051 0.225 0.128 0.045-0.077 0.129-0.128 0.225-0.128 0.095 0 0.178 0.050 0.223 0.125 0.046-0.075 0.129-0.125 0.223-0.125 0.144 0 0.261 0.117 0.261 0.261s-0.117 0.261-0.261 0.261c-0.095 0-0.178-0.050-0.223-0.125-0.046 0.075-0.129 0.125-0.223 0.125-0.096 0-0.18-0.051-0.225-0.128-0.045 0.077-0.129 0.128-0.225 0.128-0.083 0-0.157-0.038-0.205-0.098-0.016 0.020-0.035 0.037-0.056 0.052 0.069 0.047 0.113 0.125 0.113 0.215s-0.045 0.168-0.113 0.215c0.068 0.047 0.113 0.125 0.113 0.215s-0.045 0.168-0.113 0.215c0.027 0.019 0.051 0.043 0.070 0.071 0.046-0.072 0.128-0.119 0.219-0.119 0.105 0 0.196 0.062 0.237 0.151 0.042-0.089 0.132-0.151 0.237-0.151s0.196 0.061 0.237 0.151c0.042-0.089 0.133-0.151 0.237-0.151 0.145 0 0.261 0.117 0.261 0.261s-0.117 0.261-0.261 0.261c-0.105 0-0.196-0.061-0.237-0.151-0.041 0.089-0.132 0.151-0.237 0.151s-0.196-0.061-0.237-0.151c-0.042 0.090-0.132 0.151-0.237 0.151-0.091 0-0.171-0.046-0.218-0.117-0.046 0.072-0.128 0.119-0.22 0.119-0.144 0-0.261-0.117-0.261-0.261 0-0.089 0.045-0.168 0.113-0.215-0.069-0.047-0.113-0.125-0.113-0.215s0.045-0.168 0.113-0.215c-0.069-0.047-0.113-0.126-0.113-0.215s0.045-0.168 0.113-0.215c-0.069-0.047-0.113-0.125-0.113-0.215s0.044-0.167 0.112-0.214c-0.067-0.047-0.112-0.125-0.112-0.214s0.044-0.167 0.112-0.214c-0.067-0.047-0.112-0.125-0.112-0.214s0.045-0.168 0.113-0.215c-0.069-0.047-0.113-0.126-0.113-0.215 0-0.144 0.117-0.261 0.261-0.261zM8.005 2.376c-1.811 0-3.214 1.467-3.214 3.183 0 1.521 0.995 2.339 0.995 2.339 0.098 0.087 0.074 0.132 0.003 0.202 0 0-0.998 0.906-0.998 2.307 0 1.921 1.54 3.217 3.214 3.217 1.871 0 3.203-1.518 3.203-3.194 0-1.443-0.959-2.295-0.959-2.295-0.136-0.13-0.135-0.152 0-0.27 0 0 0.959-0.803 0.959-2.306 0-1.697-1.367-3.183-3.203-3.183z"></path>
</symbol>
<symbol id="icon-first-direct" viewBox="0 0 16 16">
<title>first-direct</title>
<path d="M0.951 7.151h0.191v-0.388c-0.081-0.003-0.183-0.002-0.268-0.002-0.466 0-0.616 0.257-0.616 0.532v0.162h-0.257v0.357h0.257v1.385h0.535v-1.385h0.329v-0.357h-0.315v-0.132c0-0.12 0.070-0.173 0.144-0.173z"></path>
<path d="M1.346 7.42h0.501v1.777h-0.501v-1.777z"></path>
<path d="M1.357 6.756h0.492v0.413h-0.492v-0.413z"></path>
<path d="M3.324 7.876v-0.49c-0.43 0-0.538 0.096-0.627 0.317l0.002-0.266h-0.495v1.761h0.519v-0.798c0-0.236 0.051-0.603 0.602-0.522z"></path>
<path d="M3.915 7.872c0-0.21 0.599-0.21 0.585 0.075h0.458c-0.037-0.431-0.389-0.559-0.772-0.559-0.376 0-0.763 0.141-0.763 0.588 0 0.309 0.28 0.405 0.555 0.475 0.345 0.088 0.514 0.072 0.538 0.216 0.035 0.21-0.227 0.232-0.308 0.232-0.189 0-0.366-0.055-0.369-0.265h-0.458c0.020 0.464 0.417 0.609 0.823 0.609 0.4 0 0.8-0.18 0.8-0.64 0-0.66-1.091-0.398-1.091-0.731z"></path>
<path d="M6.17 9.2v-0.381c-0.33 0.002-0.33-0.012-0.326-0.21v-0.782h0.319v-0.365h-0.319v-0.553h-0.511v0.553h-0.248v0.365h0.248v0.916c0 0.305-0.024 0.498 0.838 0.457z"></path>
<path d="M7.505 8.31c0-0.452 0.224-0.537 0.391-0.537 0.274 0 0.397 0.215 0.397 0.534 0 0.315-0.105 0.56-0.397 0.56-0.255 0-0.391-0.232-0.391-0.557zM8.295 9.013l0.011 0.184h0.486v-2.437h-0.508l-0.004 0.854c-0.112-0.173-0.3-0.226-0.506-0.226-0.516 0-0.776 0.437-0.776 0.909 0 0.485 0.258 0.944 0.787 0.944 0.223 0 0.4-0.039 0.511-0.229z"></path>
<path d="M9.126 7.42h0.501v1.777h-0.501v-1.777z"></path>
<path d="M9.137 6.756h0.492v0.413h-0.492v-0.413z"></path>
<path d="M11.103 7.88v-0.49c-0.431 0-0.539 0.096-0.627 0.317l0.002-0.266h-0.495v1.752h0.519v-0.79c0-0.249 0.055-0.62 0.601-0.522z"></path>
<path d="M11.627 8.108c0.007-0.136 0.111-0.357 0.4-0.357 0.209 0 0.351 0.128 0.351 0.357zM12.863 8.691h-0.482c-0.039 0.073-0.13 0.181-0.345 0.181-0.149 0-0.401-0.129-0.415-0.434h1.272c0.038-0.562-0.262-1.059-0.858-1.059-0.531 0-0.895 0.408-0.895 0.933 0 0.542 0.342 0.922 0.895 0.922 0.397 0 0.693-0.13 0.828-0.544z"></path>
<path d="M13.591 8.32c0-0.258 0.106-0.574 0.402-0.569 0.166 0.002 0.325 0.12 0.356 0.32l0.472-0.005c-0.034-0.461-0.41-0.677-0.823-0.677-0.569 0-0.895 0.403-0.895 0.949 0 0.568 0.356 0.906 0.885 0.906 0.461 0 0.774-0.225 0.836-0.688l-0.464-0.011c-0.035 0.215-0.175 0.321-0.375 0.321-0.283 0-0.392-0.268-0.392-0.544z"></path>
<path d="M15.674 8.607v-0.782h0.319v-0.365h-0.319v-0.553h-0.511v0.553h-0.248v0.365h0.248v0.916c0 0.305-0.024 0.498 0.838 0.457v-0.381c-0.331 0.002-0.331-0.012-0.326-0.21z"></path>
</symbol>
<symbol id="icon-itv" viewBox="0 0 16 16">
<title>itv</title>
<path d="M1.042 5.889c0.032 0.099 0.083 0.186 0.149 0.257 0.463 0.502 1.637 0.324 1.645-0.444 0.15-0.547-0.358-1.014-0.911-1.008-0.079 0.001-0.159 0.011-0.238 0.032-0.342 0.045-0.55 0.278-0.638 0.556-0.061 0.195-0.066 0.412-0.008 0.605v0z"></path>
<path d="M13.89 6.99v0c-0.33 0.966-0.645 1.973-1.267 2.814-0.492-0.7-0.79-1.521-1.401-2.146-0.056-1.115-1.784-0.728-1.926 0.125 0.085 0.332 0.286 0.625 0.467 0.918 0.002 0.405-0.075 0.832-0.379 1.141-0.107 0.106-0.23 0.193-0.366 0.259-0.88 0.432-2.229 0.041-2.314-0.95-0.006-0.076-0.005-0.156 0.005-0.239 0.012-0.149 0.014-0.297 0.011-0.447s-0.008-0.298-0.010-0.447c0.517 0.14 1.059 0.084 1.587 0.089 0.007-0.178 0.011-0.357 0.011-0.535s-0.002-0.356-0.008-0.535c-0.532-0.013-1.066 0.022-1.596-0.024-0.003-0.067-0.003-0.134-0.003-0.202 0.004-0.271 0.030-0.545 0.024-0.816-0.004-0.204-0.024-0.404-0.085-0.598-0.386-0.29-1.127-0.359-1.549-0.072-0.060 0.040-0.114 0.090-0.159 0.144-0.019 0.665-0.029 1.333-0.029 2.001s0.010 1.336 0.029 2.001c-0.106 0.472-0.595 0.772-1.075 0.8-0.32 0.018-0.636-0.085-0.833-0.339-0.033-0.042-0.062-0.089-0.087-0.14-0.249-0.905 0-1.861-0.143-2.78-0.592 0.021-1.188-0.028-1.776 0.035 0 0.207 0 0.415-0.002 0.622s-0.004 0.414-0.005 0.621 0 0.829 0.021 1.242c0.004 0.057 0.018 0.113 0.028 0.169 0.006 0.037 0.009 0.073 0.018 0.11 0.007 0.027 0.020 0.053 0.029 0.081 0.020 0.063 0.038 0.125 0.066 0.185 0.008 0.017 0.019 0.033 0.028 0.049 0.034 0.068 0.069 0.136 0.111 0.198 0.048 0.072 0.103 0.139 0.16 0.204 0.006 0.007 0.010 0.014 0.016 0.021 0.065 0.070 0.135 0.136 0.21 0.197l0 0.001c0.227 0.182 0.497 0.318 0.792 0.385 1.048 0.29 2.346 0.225 3.187-0.486 1.477 0.978 3.966 0.948 4.977-0.617 0.307 0.339 0.498 0.764 0.842 1.072 0.217 0.126 0.484 0.194 0.749 0.198 0.442 0.005 0.88-0.171 1.083-0.564 0.681-1.099 1.415-2.245 1.668-3.498-0.355-0.134-0.722-0.263-1.112-0.248l0.002 0.002z"></path>
</symbol>
<symbol id="icon-lucozade-ribena-suntory" viewBox="0 0 16 16">
<title>lucozade-ribena-suntory</title>
<path d="M0.841 10.633h0.386c0.030 0 0.045 0.021 0.045 0.050v0.119c0 0.029-0.014 0.050-0.045 0.050h-0.682c-0.030 0-0.045-0.021-0.045-0.050v-1.049c0-0.029 0.015-0.050 0.045-0.050h0.251c0.030 0 0.045 0.021 0.045 0.050v0.88z"></path>
<path d="M2.049 9.753c0-0.029 0.014-0.050 0.045-0.050h0.18c0.030 0 0.045 0.021 0.045 0.050v0.701c0 0.239-0.163 0.42-0.474 0.42-0.249 0-0.492-0.111-0.492-0.403v-0.717c0-0.029 0.014-0.050 0.045-0.050h0.251c0.030 0 0.045 0.021 0.045 0.050v0.723c0 0.126 0.065 0.18 0.177 0.18 0.129 0 0.179-0.055 0.179-0.18v-0.724z"></path>
<path d="M3.092 9.681c0.174 0 0.27 0.039 0.317 0.061 0.022 0.011 0.045 0.027 0.045 0.066v0.18c0 0.016-0.008 0.026-0.021 0.026s-0.022-0.007-0.032-0.014c-0.059-0.055-0.166-0.103-0.281-0.103-0.169 0-0.302 0.094-0.302 0.381s0.134 0.381 0.303 0.381c0.115 0 0.222-0.049 0.281-0.103 0.010-0.008 0.019-0.014 0.032-0.014s0.021 0.009 0.021 0.025v0.18c0 0.039-0.022 0.055-0.045 0.066-0.046 0.023-0.143 0.061-0.317 0.061-0.343 0-0.633-0.206-0.633-0.597s0.291-0.597 0.633-0.597z"></path>
<path d="M4.058 10.668c0.024 0.007 0.048 0.011 0.079 0.011s0.054-0.005 0.079-0.011c0.104-0.029 0.154-0.127 0.154-0.391s-0.050-0.362-0.154-0.391c-0.024-0.007-0.048-0.011-0.079-0.011s-0.055 0.005-0.079 0.011c-0.104 0.029-0.155 0.127-0.155 0.391s0.050 0.362 0.155 0.391zM4.728 10.277c0 0.389-0.25 0.597-0.592 0.597s-0.59-0.207-0.59-0.597c0-0.391 0.248-0.597 0.59-0.597s0.592 0.206 0.592 0.597z"></path>
<path d="M5.227 10.633h0.434c0.030 0 0.045 0.021 0.045 0.050v0.119c0 0.029-0.014 0.050-0.045 0.050h-0.83c-0.030 0-0.045-0.021-0.045-0.050v-0.040c0-0.039 0.053-0.125 0.067-0.148l0.428-0.69h-0.434c-0.030 0-0.045-0.021-0.045-0.050v-0.119c0-0.029 0.014-0.050 0.045-0.050h0.814c0.030 0 0.045 0.021 0.045 0.050v0.045c0 0.066-0.037 0.12-0.051 0.143l-0.428 0.69z"></path>
<path d="M6.24 9.998l-0.107 0.397h0.221l-0.109-0.397h-0.003zM6.035 9.85c0.027-0.095 0.090-0.146 0.194-0.146h0.212c0.029 0 0.053 0.016 0.061 0.043l0.327 1.030c0.005 0.018 0.010 0.024 0.010 0.040s-0.013 0.034-0.037 0.034h-0.266c-0.043 0-0.064-0.027-0.074-0.065l-0.058-0.21h-0.322l-0.056 0.21c-0.010 0.037-0.029 0.065-0.072 0.065h-0.191c-0.024 0-0.035-0.018-0.035-0.034s0.003-0.023 0.008-0.040l0.299-0.928z"></path>
<path d="M7.284 10.618c0 0.027 0.026 0.039 0.042 0.042 0.022 0.005 0.032 0.007 0.061 0.007 0.202 0 0.293-0.126 0.293-0.387 0-0.265-0.090-0.391-0.293-0.391-0.029 0-0.038 0.002-0.061 0.007-0.016 0.003-0.042 0.014-0.042 0.042v0.682zM6.943 9.753c0-0.029 0.014-0.050 0.045-0.050h0.407c0.426 0 0.639 0.284 0.639 0.574s-0.213 0.574-0.638 0.574h-0.407c-0.030 0-0.045-0.021-0.045-0.050v-1.049z"></path>
<path d="M8.194 9.753c0-0.029 0.014-0.050 0.045-0.050 0.255 0 0.261 0 0.649 0.002 0.030 0 0.045 0.021 0.045 0.050v0.119c0 0.029-0.014 0.050-0.045 0.050h-0.354v0.219h0.306c0.030 0 0.045 0.021 0.045 0.050v0.119c0 0.029-0.014 0.050-0.045 0.050h-0.306v0.272h0.354c0.030 0 0.045 0.021 0.045 0.050v0.119c0 0.029-0.014 0.050-0.045 0.050h-0.649c-0.030 0-0.045-0.021-0.045-0.050v-1.049z"></path>
<path d="M10.261 10.851c-0.071 0-0.103-0.009-0.126-0.063l-0.149-0.357c-0.013-0.033-0.029-0.062-0.029-0.113 0-0.055 0.033-0.071 0.066-0.091 0.059-0.037 0.107-0.071 0.107-0.201 0-0.129-0.059-0.158-0.151-0.158-0.025 0-0.059 0.002-0.081 0.014-0.021 0.011-0.030 0.026-0.030 0.049v0.87c0 0.030-0.013 0.050-0.043 0.050h-0.252c-0.030 0-0.045-0.021-0.045-0.050v-0.959c0-0.061 0.029-0.085 0.075-0.107 0.056-0.027 0.204-0.055 0.377-0.055 0.322 0 0.47 0.127 0.47 0.345 0 0.164-0.119 0.24-0.233 0.28v0.005c0.053 0.014 0.106 0.068 0.129 0.111l0.151 0.3c0.018 0.036 0.032 0.052 0.032 0.079 0 0.043-0.032 0.050-0.063 0.050h-0.204z"></path>
<path d="M10.657 9.753c0-0.029 0.014-0.050 0.045-0.050h0.251c0.030 0 0.045 0.021 0.045 0.050v1.049c0 0.029-0.014 0.050-0.045 0.050h-0.251c-0.030 0-0.045-0.021-0.045-0.050v-1.049z"></path>
<path d="M11.548 10.627c0 0.029 0.018 0.037 0.027 0.040 0.016 0.005 0.046 0.009 0.074 0.009 0.12 0 0.169-0.059 0.169-0.146 0-0.1-0.059-0.145-0.109-0.184-0.029-0.023-0.053-0.040-0.053-0.091 0-0.037 0.030-0.069 0.061-0.097 0.043-0.040 0.078-0.079 0.078-0.151 0-0.091-0.043-0.133-0.135-0.133-0.026 0-0.059 0.002-0.081 0.014-0.021 0.011-0.030 0.026-0.030 0.049v0.69zM11.942 10.243v0.005c0.132 0.027 0.223 0.119 0.223 0.249 0 0.217-0.159 0.354-0.439 0.354h-0.474c-0.030 0-0.045-0.021-0.045-0.050v-0.959c0-0.062 0.029-0.085 0.075-0.108 0.056-0.027 0.187-0.055 0.358-0.055 0.335 0 0.47 0.13 0.47 0.316 0 0.14-0.090 0.211-0.168 0.246z"></path>
<path d="M12.342 9.753c0-0.029 0.014-0.050 0.045-0.050 0.256 0 0.261 0 0.649 0.002 0.030 0 0.045 0.021 0.045 0.050v0.119c0 0.029-0.014 0.050-0.045 0.050h-0.354v0.219h0.306c0.030 0 0.045 0.021 0.045 0.050v0.119c0 0.029-0.014 0.050-0.045 0.050h-0.306v0.272h0.354c0.030 0 0.045 0.021 0.045 0.050v0.119c0 0.029-0.014 0.050-0.045 0.050h-0.649c-0.030 0-0.045-0.021-0.045-0.050v-1.049z"></path>
<path d="M14.023 10.524v-0.772c0-0.029 0.014-0.050 0.045-0.050h0.18c0.030 0 0.045 0.021 0.045 0.050v1.049c0 0.029-0.014 0.050-0.045 0.050h-0.204c-0.113 0-0.178-0.052-0.219-0.152l-0.277-0.704h-0.003v0.807c0 0.029-0.014 0.050-0.045 0.050h-0.181c-0.030 0-0.045-0.021-0.045-0.050v-1.049c0-0.029 0.014-0.050 0.045-0.050h0.217c0.113 0 0.178 0.040 0.209 0.12l0.271 0.701h0.005z"></path>
<path d="M14.902 9.998l-0.107 0.397h0.22l-0.11-0.397h-0.003zM14.696 9.85c0.027-0.095 0.090-0.146 0.194-0.146h0.213c0.029 0 0.053 0.016 0.061 0.043l0.326 1.030c0.005 0.018 0.009 0.024 0.009 0.040s-0.013 0.034-0.037 0.034h-0.265c-0.043 0-0.065-0.027-0.074-0.065l-0.058-0.21h-0.322l-0.056 0.21c-0.009 0.037-0.029 0.065-0.072 0.065h-0.191c-0.024 0-0.036-0.018-0.036-0.034s0.003-0.023 0.008-0.040l0.3-0.928z"></path>
<path d="M4.96 11.52l-0.088 0.152c-0.077-0.040-0.161-0.060-0.251-0.060-0.128 0-0.191 0.043-0.191 0.128 0 0.036 0.013 0.066 0.038 0.092 0.027 0.027 0.083 0.057 0.167 0.088 0.13 0.049 0.213 0.104 0.253 0.164 0.035 0.053 0.053 0.113 0.053 0.179 0 0.1-0.034 0.179-0.101 0.239-0.074 0.065-0.177 0.097-0.309 0.097-0.123 0-0.239-0.027-0.348-0.083l0.082-0.152c0.088 0.039 0.17 0.059 0.247 0.059 0.133 0 0.199-0.046 0.199-0.139 0-0.037-0.013-0.067-0.037-0.091-0.027-0.027-0.081-0.056-0.163-0.086-0.13-0.049-0.215-0.104-0.256-0.164-0.035-0.053-0.053-0.113-0.053-0.178 0-0.081 0.029-0.15 0.086-0.208 0.076-0.077 0.182-0.116 0.317-0.116 0.127 0 0.246 0.027 0.358 0.080z"></path>
<path d="M6.112 11.457l-0.003 0.723c-0.001 0.13-0.044 0.233-0.13 0.308s-0.198 0.111-0.339 0.111c-0.151 0-0.266-0.043-0.343-0.131-0.068-0.074-0.101-0.174-0.1-0.3l0.005-0.71h0.222l-0.005 0.723c-0.001 0.168 0.080 0.252 0.245 0.252 0.078 0 0.139-0.024 0.184-0.074 0.042-0.047 0.063-0.111 0.063-0.191l0.003-0.71h0.199z"></path>
<path d="M7.378 11.457l-0.011 1.092-0.256 0.060-0.402-0.707c-0.046-0.081-0.080-0.155-0.101-0.22v0.006c0.010 0.104 0.014 0.179 0.014 0.225l-0.002 0.667h-0.2l0.008-1.086 0.258-0.057 0.399 0.703c0.040 0.071 0.075 0.145 0.105 0.22-0.010-0.086-0.014-0.164-0.014-0.231l0.002-0.672h0.202z"></path>
<path d="M7.58 11.457v0.174h0.293l-0.006 0.949h0.224l0.006-0.949h0.293v-0.174z"></path>
<path d="M9.095 11.606c-0.088 0-0.162 0.030-0.222 0.089-0.076 0.076-0.114 0.186-0.114 0.329 0 0.271 0.108 0.405 0.323 0.405 0.143 0 0.242-0.069 0.299-0.205 0.027-0.063 0.040-0.133 0.040-0.211 0-0.106-0.020-0.194-0.060-0.264-0.056-0.097-0.146-0.145-0.267-0.145zM9.098 11.44c0.183 0 0.325 0.057 0.428 0.171 0.091 0.102 0.137 0.234 0.137 0.396 0 0.171-0.056 0.313-0.168 0.425s-0.249 0.166-0.415 0.166c-0.184 0-0.326-0.056-0.427-0.168-0.091-0.1-0.136-0.233-0.136-0.402 0-0.171 0.056-0.313 0.168-0.425 0.108-0.109 0.245-0.164 0.412-0.164z"></path>
<path d="M10.759 12.515l-0.207 0.092-0.351-0.533 0.056-0.1c0.152-0.011 0.228-0.074 0.228-0.188 0-0.117-0.072-0.175-0.216-0.175-0.050 0-0.091 0.002-0.127 0.005l-0.006 0.965h-0.223l0.008-1.123h0.011c0.174-0.010 0.292-0.015 0.354-0.015 0.284 0 0.427 0.105 0.427 0.315 0 0.166-0.088 0.275-0.262 0.327 0.024 0.021 0.047 0.046 0.066 0.075l0.242 0.357z"></path>
<path d="M11.789 11.526l-0.376 0.547-0.003 0.507h-0.223l0.003-0.496-0.359-0.552 0.199-0.098 0.222 0.354c0.020 0.032 0.039 0.072 0.059 0.121l0.002 0.003c0.015-0.041 0.037-0.082 0.065-0.124l0.234-0.354 0.178 0.092z"></path>
<path d="M8.447 8.582c-0.736 0-1.109-0.36-1.294-0.662-0.338-0.555-0.313-1.388 0.066-2.125 0.168-0.325 0.355-0.63 0.537-0.923 0.173-0.281 0.352-0.572 0.511-0.877-0.114-0.196-0.226-0.396-0.33-0.604h-0.005c-0.421 0.838-0.949 1.546-1.378 2.381-0.741 1.439-0.38 3.242 1.381 3.242 0.709 0 1.189-0.28 1.465-0.707-0.217 0.156-0.524 0.274-0.95 0.274z"></path>
<path d="M9.306 5.757c-0.12-0.218-0.248-0.43-0.375-0.636-0.046 0.078-0.093 0.154-0.139 0.229-0.094 0.152-0.181 0.295-0.262 0.45-0.152 0.294-0.168 0.631-0.042 0.838 0.089 0.146 0.239 0.219 0.448 0.219 0.213 0 0.366-0.073 0.454-0.217 0.097-0.159 0.107-0.396 0.035-0.634-0.034-0.080-0.070-0.158-0.111-0.236-0.002-0.005-0.005-0.010-0.008-0.015z"></path>
<path d="M8.935 7.188c-0.322 0-0.581-0.134-0.729-0.377-0.187-0.306-0.175-0.761 0.030-1.16 0.086-0.168 0.182-0.322 0.274-0.473 0.079-0.128 0.153-0.25 0.223-0.378-0.098-0.16-0.194-0.323-0.287-0.492-0.138 0.252-0.286 0.49-0.43 0.724-0.178 0.289-0.362 0.588-0.524 0.903-0.33 0.643-0.361 1.359-0.077 1.824 0.205 0.336 0.563 0.514 1.031 0.514 0.479 0 0.839-0.177 1.043-0.511 0.123-0.202 0.185-0.454 0.188-0.727-0.005-0.067-0.012-0.135-0.022-0.203-0.149 0.229-0.405 0.354-0.721 0.354z"></path>
</symbol>
<symbol id="icon-qualcomm" viewBox="0 0 16 16">
<title>qualcomm</title>
<path d="M6.511 8.544c0 0.066 0.077 0.144 0.142 0.144l0.974-0.001-0.218-0.354h-0.564v-1.364h-0.333v1.575z"></path>
<path d="M2.131 8.716v-0.479l-0.413 0.12 0 0.593c-0.079 0.021-0.163 0.035-0.248 0.035-0.526 0-0.953-0.431-0.953-0.963s0.426-0.963 0.953-0.963c0.526 0 0.952 0.431 0.952 0.963 0 0.272-0.111 0.518-0.291 0.694zM2.94 8.022c0-0.821-0.658-1.486-1.47-1.486s-1.47 0.665-1.47 1.486 0.658 1.486 1.47 1.486c0.087 0 0.169-0.008 0.25-0.023l-0.002 0.578h0.413v-0.72c0.478-0.245 0.808-0.744 0.808-1.322z"></path>
<path d="M4.296 8.688h-0.961c-0.066 0-0.143-0.077-0.143-0.143l-0.001-1.575h0.333v1.364h0.579v-1.364h0.333v1.576c0 0.066-0.076 0.143-0.142 0.143z"></path>
<path d="M8.777 7.032c-0.133-0.079-0.29-0.125-0.456-0.125-0.498 0-0.902 0.408-0.902 0.912s0.404 0.911 0.902 0.911c0.155 0 0.305-0.041 0.432-0.111l-0.162-0.296c-0.081 0.044-0.171 0.069-0.27 0.069-0.313 0-0.568-0.257-0.568-0.574s0.255-0.574 0.568-0.574c0.106 0 0.206 0.030 0.29 0.082l0.165-0.295z"></path>
<path d="M9.55 8.398c-0.313 0-0.568-0.255-0.568-0.572s0.254-0.577 0.568-0.577c0.313 0 0.568 0.257 0.568 0.574s-0.255 0.574-0.568 0.574zM9.55 6.912c-0.498 0-0.902 0.41-0.902 0.914s0.403 0.909 0.902 0.909c0.498 0 0.902-0.408 0.902-0.912s-0.404-0.912-0.902-0.912z"></path>
<path d="M5.206 8.023l0.269-0.617 0.269 0.617h-0.537zM5.64 6.971h-0.33l-0.744 1.707h0.354l0.175-0.376h0.771l0.016 0.036 0.149 0.339h0.354l-0.745-1.707z"></path>
<path d="M15.82 8.476l-0.611-1.425c-0.037-0.069-0.1-0.101-0.188-0.101s-0.152 0.032-0.188 0.101l-0.449 1.045-0.449-1.045c-0.037-0.069-0.1-0.101-0.188-0.101s-0.152 0.032-0.188 0.101l-0.449 1.047-0.449-1.048c-0.037-0.069-0.1-0.101-0.188-0.101s-0.152 0.032-0.188 0.101l-0.449 1.045-0.449-1.045c-0.037-0.069-0.099-0.101-0.188-0.101s-0.152 0.032-0.188 0.101l-0.611 1.425c-0.084 0.223 0.22 0.338 0.319 0.159l0.48-1.135 0.48 1.135c0.063 0.116 0.256 0.111 0.313 0l0.48-1.135 0.48 1.135c0.031 0.057 0.084 0.082 0.137 0.085 0.007 0.001 0.012 0.002 0.020 0.002s0.012-0.001 0.020-0.002c0.053-0.004 0.106-0.028 0.137-0.085l0.48-1.135 0.48 1.135c0.057 0.111 0.251 0.116 0.313 0l0.48-1.135 0.48 1.135c0.099 0.179 0.402 0.065 0.319-0.159z"></path>
<path d="M15.759 7.168v-0.071h0.047c0.024 0 0.050 0.005 0.050 0.034 0 0.035-0.026 0.037-0.056 0.037h-0.041zM15.891 7.133c0-0.045-0.027-0.066-0.081-0.066h-0.086v0.23h0.034v-0.099h0.040l0.060 0.099h0.039l-0.065-0.101c0.034-0.005 0.059-0.022 0.059-0.064zM15.8 7.349c-0.090 0-0.161-0.071-0.161-0.167 0-0.095 0.070-0.165 0.161-0.165s0.159 0.071 0.159 0.165c0 0.096-0.070 0.167-0.159 0.167zM15.8 6.984c-0.108 0-0.2 0.085-0.2 0.199 0 0.115 0.092 0.2 0.2 0.2s0.2-0.085 0.2-0.2c0-0.114-0.092-0.199-0.2-0.199z"></path>
</symbol>
<symbol id="icon-samsung" viewBox="0 0 16 16">
<title>samsung</title>
<path d="M5.019 8.629l-0.143-1.056h-0.032l-0.144 1.056h-0.391l0.242-1.362h0.619l0.242 1.362h-0.393zM6.448 7.268l0.117 0.746h0.029l0.123-0.746h0.609l0.040 1.361h-0.366l-0.009-1.026h-0.026l-0.191 1.026h-0.383l-0.193-1.026h-0.028l-0.005 1.026h-0.364l0.030-1.362h0.615zM8.379 7.684v-0.116c0-0.082-0.102-0.088-0.102-0.088-0.079 0-0.097 0.052-0.097 0.052-0.043 0.080 0.031 0.148 0.031 0.148 0.038 0.042 0.229 0.128 0.229 0.128 0.062 0.024 0.162 0.084 0.162 0.084 0.187 0.11 0.17 0.318 0.17 0.318v0.137c-0.023 0.34-0.504 0.331-0.504 0.331-0.504 0-0.493-0.322-0.493-0.322v-0.168h0.392v0.116c0 0.098 0.098 0.103 0.098 0.103 0.107 0.005 0.116-0.097 0.116-0.097 0.015-0.098-0.096-0.159-0.096-0.159-0.11-0.055-0.293-0.151-0.293-0.151-0.090-0.058-0.127-0.11-0.127-0.11-0.064-0.080-0.061-0.202-0.061-0.202v-0.107c0-0.147 0.041-0.191 0.041-0.191 0.104-0.191 0.467-0.168 0.467-0.168 0.461 0.013 0.433 0.292 0.433 0.292l0.001 0.171-0.368-0-0.001-0.001zM9.607 8.291c0 0.116 0.113 0.11 0.113 0.11 0.107 0 0.101-0.113 0.101-0.113v-1.027h0.391v1.039c0 0.374-0.486 0.369-0.486 0.369-0.56 0-0.519-0.387-0.519-0.387v-1.021h0.4l0.001 1.030h-0.001zM11.893 8.63h-0.434l-0.387-0.833h-0.016l0.022 0.833h-0.365v-1.361h0.448l0.374 0.826h0.016l-0.026-0.827h0.369v1.362zM13.243 8.509c1.189-0.566 1.845-1.212 1.748-1.745-0.204-1.123-3.697-1.303-7.301-0.68-1.649 0.285-3.228 0.714-4.295 1.139 0.057-0.003 0.096-0.001 0.096-0.001 0.462 0.012 0.433 0.292 0.433 0.292l0.001 0.171h-0.369v-0.116c0-0.082-0.103-0.088-0.103-0.088-0.079 0-0.098 0.053-0.098 0.053-0.043 0.080 0.031 0.148 0.031 0.148 0.038 0.042 0.229 0.128 0.229 0.128 0.062 0.024 0.162 0.084 0.162 0.084 0.187 0.11 0.17 0.319 0.17 0.319v0.137c-0.022 0.34-0.504 0.331-0.504 0.331-0.504 0-0.493-0.322-0.493-0.322v-0.168h0.392v0.116c0 0.098 0.098 0.103 0.098 0.103 0.107 0.005 0.116-0.097 0.116-0.097 0.014-0.098-0.096-0.159-0.096-0.159-0.11-0.055-0.292-0.151-0.292-0.151-0.091-0.058-0.127-0.109-0.127-0.109-0.064-0.079-0.061-0.203-0.061-0.203v-0.107c0-0.147 0.041-0.191 0.041-0.191 0.002-0.003 0.003-0.006 0.006-0.010-1.317 0.593-2.123 1.28-2.021 1.845 0.207 1.146 3.501 1.296 7.375 0.715 1.784-0.268 3.337-0.76 4.511-1.271-0.008 0.001-0.017 0.001-0.026 0.001 0 0-0.475 0.037-0.486-0.335v-0.721c0 0-0.059-0.398 0.473-0.398 0 0 0.346-0.011 0.438 0.189 0 0 0.045 0.053 0.033 0.274h-0.369v-0.114c0 0-0.001-0.092-0.097-0.092 0 0-0.1 0.005-0.1 0.081v0.746c0 0-0.005 0.1 0.108 0.1 0 0 0.092-0.002 0.092-0.107v-0.216h-0.101v-0.2h0.474v0.424c0 0-0.001 0.089-0.040 0.141 0-0.001-0.038 0.057-0.053 0.068v-0.001z"></path>
</symbol>
<symbol id="icon-slimfast" viewBox="0 0 16 16">
<title>slimfast</title>
<path d="M13.012 7.652h-0.018v0.036h0.018l0.008-0 0.008-0.002 0.007-0.005 0.002-0.010-0.002-0.010-0.007-0.005-0.008-0.002z"></path>
<path d="M14.566 2.731l-10.422 2.696c-1.497 0.388-2.709 1.917-2.709 3.413l0.006 4.431 10.416-2.732c1.496-0.389 2.71-1.916 2.71-3.413v-4.394zM12.261 8.126c-0.277 0-0.482-0.199-0.482-0.5v-2.028l0.433-0.116v0.515l0.465-0.125c-0.020 0.095-0.037 0.178-0.040 0.19-0.034 0.154-0.162 0.297-0.318 0.338l-0.107 0.029v1.080c0 0.101 0.069 0.167 0.161 0.167 0.018 0 0.037-0.003 0.056-0.008 0.033-0.009 0.024-0.006 0.29-0.077v0.433c-0.21 0.056-0.25 0.067-0.29 0.078-0.059 0.015-0.115 0.023-0.169 0.023zM8.1 9.262v-2.515c0-0.359 0.291-0.729 0.65-0.825 0.023-0.006 0.508-0.136 0.508-0.136-0.014 0.069-0.027 0.132-0.034 0.166l-0.007 0.032c-0.037 0.152-0.163 0.29-0.316 0.331l-0.15 0.040c-0.12 0.032-0.217 0.155-0.217 0.275v0.33l0.486-0.13c-0.008 0.038-0.047 0.22-0.047 0.22-0.043 0.143-0.165 0.27-0.31 0.309l-0.129 0.035v1.425c0 0.181-0.146 0.366-0.327 0.414-0.006 0.002-0.107 0.029-0.107 0.029zM10.921 8.087c0.018 0 0.037-0.002 0.056-0.007 0.010-0.002 0.021-0.005 0.032-0.008 0.12-0.032 0.217-0.176 0.217-0.296 0-0.41-0.845-0.141-0.845-0.72 0-0.34 0.236-0.651 0.585-0.745 0.055-0.014 0.107-0.021 0.156-0.021 0.261 0 0.432 0.197 0.432 0.484v0.051l-0.144 0.038c-0.055 0.014-0.098 0.022-0.133 0.022-0.078 0-0.115-0.035-0.148-0.101-0.003-0.006-0.008-0.014-0.015-0.022-0.016-0.022-0.039-0.038-0.066-0.045-0.010-0.003-0.021-0.005-0.032-0.005-0.004 0-0.008 0-0.011 0-0.012 0-0.025 0.003-0.040 0.006-0.092 0.024-0.164 0.095-0.164 0.2 0 0.295 0.857 0.038 0.857 0.742 0 0.38-0.271 0.733-0.63 0.829l-0.074 0.020c-0.060 0.016-0.118 0.024-0.172 0.024-0.27 0-0.457-0.191-0.457-0.489v-0.095l0.192-0.051c0.039-0.010 0.069-0.014 0.095-0.014 0.082 0 0.109 0.048 0.15 0.123l0.009 0.014c0.030 0.043 0.088 0.068 0.149 0.068zM9.194 7.217v-0.433c0.188-0.051 0.306-0.082 0.346-0.093 0.059-0.016 0.115-0.023 0.168-0.023 0.277 0 0.482 0.199 0.482 0.5v1.212c-0.003 0.178-0.148 0.361-0.326 0.409l-0.107 0.028v-0.111c-0.044 0.069-0.194 0.173-0.301 0.201-0.001 0-0.034 0.009-0.039 0.011-0.064 0.018-0.126 0.025-0.183 0.025-0.264 0-0.447-0.175-0.447-0.47v-0.028c0-0.374 0.313-0.629 0.743-0.923 0.121-0.083 0.219-0.155 0.226-0.25 0.001-0.005 0.001-0.011 0.001-0.016 0-0.088-0.060-0.146-0.142-0.146-0.016 0-0.033 0.002-0.050 0.007-0.007 0.002-0.184 0.050-0.373 0.1zM4.69 10.168c-0.094 0-0.205-0.093-0.219-0.324v-2.546c0-0.030 0.025-0.062 0.056-0.071l0.2-0.053c0.005-0.002 0.010-0.002 0.014-0.002 0.024 0 0.041 0.017 0.041 0.043v2.877c0 0.030-0.024 0.062-0.054 0.070l-0.003 0.001c-0.011 0.003-0.023 0.005-0.035 0.005zM3.45 10.201c0.035 0 0.072-0.005 0.11-0.015 0.235-0.063 0.425-0.305 0.425-0.54 0-0.29-0.228-0.48-0.505-0.68l-0.039-0.028c-0.269-0.194-0.548-0.396-0.548-0.789 0-0.364 0.296-0.739 0.66-0.837 0.062-0.016 0.121-0.024 0.177-0.024 0.276 0 0.473 0.191 0.473 0.489 0 0.033-0.027 0.067-0.059 0.075l-0.186 0.050c-0.006 0.002-0.011 0.002-0.015 0.002-0.026 0-0.045-0.019-0.045-0.046 0-0.157-0.101-0.255-0.247-0.255-0.031 0-0.064 0.005-0.099 0.013-0.192 0.051-0.356 0.257-0.356 0.449 0 0.267 0.209 0.418 0.451 0.592l0.046 0.034c0.313 0.227 0.595 0.465 0.595 0.873 0 0.403-0.328 0.819-0.731 0.927-0.066 0.018-0.128 0.026-0.189 0.026-0.312 0-0.542-0.223-0.542-0.561 0-0.057 0.006-0.116 0.019-0.174 0.007-0.034 0.040-0.063 0.072-0.063l0.181-0.005c0.001 0 0.001 0 0.002 0 0.031 0 0.050 0.027 0.042 0.060s-0.011 0.068-0.011 0.101c0 0.197 0.135 0.326 0.316 0.326zM6.819 7.631c0.092-0.152 0.242-0.277 0.412-0.322 0.045-0.012 0.089-0.018 0.131-0.018 0.215 0 0.375 0.154 0.375 0.388v1.623c0 0.030-0.024 0.061-0.054 0.070l-0.003 0.001c-0.011 0.003-0.023 0.005-0.035 0.005-0.093 0-0.204-0.092-0.219-0.32 0-0.452 0-1.213 0-1.233 0-0.119-0.080-0.197-0.189-0.197-0.021 0-0.043 0.003-0.067 0.009-0.133 0.035-0.242 0.165-0.255 0.298v1.588c0 0.030-0.024 0.062-0.054 0.070h-0c-0.011 0.003-0.024 0.005-0.035 0.005-0.1 0-0.221-0.105-0.221-0.373 0-0.005 0-0.009 0-0.014 0-0.456 0-1.147 0-1.166 0-0.119-0.080-0.197-0.189-0.197-0.021 0-0.043 0.003-0.066 0.009-0.132 0.035-0.242 0.165-0.255 0.297v1.588c0 0.030-0.024 0.062-0.054 0.070h-0.001c-0.011 0.003-0.023 0.005-0.035 0.005-0.098 0-0.215-0.101-0.22-0.357v-1.708c0-0.030 0.025-0.062 0.056-0.070l0.2-0.053c0.005-0.001 0.010-0.002 0.014-0.002 0.024 0 0.041 0.017 0.041 0.043v0.056c0.087-0.093 0.197-0.165 0.317-0.197 0.045-0.012 0.089-0.018 0.13-0.018 0.114 0 0.213 0.043 0.28 0.12zM5.239 7.646c-0.072 0-0.125-0.051-0.125-0.13 0-0.093 0.075-0.189 0.17-0.215 0.015-0.004 0.030-0.006 0.044-0.006 0.072 0 0.125 0.051 0.125 0.13 0 0.093-0.076 0.189-0.17 0.215-0.015 0.004-0.030 0.006-0.044 0.006zM13.012 7.863c-0.022 0-0.043-0.004-0.062-0.013s-0.036-0.020-0.050-0.034-0.025-0.032-0.034-0.051c-0.008-0.019-0.012-0.040-0.012-0.061s0.004-0.043 0.012-0.061c0.008-0.019 0.020-0.036 0.034-0.051s0.031-0.026 0.050-0.034c0.020-0.008 0.040-0.013 0.062-0.013s0.043 0.004 0.062 0.013c0.019 0.008 0.036 0.020 0.050 0.034s0.026 0.031 0.034 0.051c0.008 0.019 0.012 0.040 0.012 0.061s-0.004 0.043-0.012 0.061c-0.008 0.019-0.020 0.036-0.034 0.051s-0.031 0.026-0.050 0.034c-0.020 0.008-0.040 0.013-0.062 0.013zM5.345 9.993c-0.093 0-0.204-0.091-0.219-0.319v-1.746c0-0.030 0.025-0.062 0.056-0.071l0.2-0.053c0.005-0.002 0.010-0.002 0.014-0.002 0.024 0 0.041 0.017 0.041 0.043v2.072c0 0.030-0.024 0.062-0.054 0.070l-0.003 0.001c-0.011 0.003-0.023 0.005-0.035 0.005z"></path>
<path d="M9.758 7.727c-0.035 0.056-0.16 0.138-0.251 0.2-0.178 0.124-0.306 0.275-0.306 0.404v0.007c0 0.117 0.067 0.184 0.168 0.184 0.022 0 0.046-0.003 0.070-0.010 0.012-0.003 0.019-0.005 0.024-0.006l0.002-0.001c0.166-0.044 0.294-0.236 0.294-0.419v-0.359z"></path>
<path d="M13.012 7.584c-0.016 0-0.031 0.003-0.045 0.010s-0.026 0.015-0.037 0.026c-0.011 0.011-0.019 0.024-0.024 0.038s-0.009 0.030-0.009 0.046c0 0.016 0.003 0.032 0.009 0.046s0.014 0.027 0.024 0.038c0.011 0.011 0.023 0.019 0.037 0.026s0.029 0.010 0.045 0.010 0.031-0.003 0.045-0.010c0.014-0.006 0.027-0.015 0.037-0.026s0.019-0.024 0.024-0.038c0.006-0.014 0.009-0.030 0.009-0.046s-0.003-0.032-0.009-0.046c-0.006-0.014-0.014-0.027-0.024-0.038s-0.023-0.019-0.037-0.026c-0.014-0.006-0.029-0.010-0.045-0.010zM12.951 7.785v-0.167h0.059c0.005 0 0.011 0 0.019 0.001s0.016 0.003 0.024 0.006c0.008 0.003 0.014 0.009 0.020 0.016s0.008 0.018 0.008 0.031c0 0.008-0.001 0.016-0.004 0.021s-0.005 0.010-0.008 0.013c-0.004 0.003-0.008 0.006-0.012 0.008s-0.009 0.003-0.014 0.003l0.043 0.066h-0.045l-0.038-0.064h-0.007v0.064h-0.043z"></path>
</symbol>
<symbol id="icon-universal" viewBox="0 0 16 16">
<title>universal</title>
<path d="M8.155 6.638c0.024-0.030 0.067-0.013 0.099-0.014 0.083 0.013 0.040-0.016 0.107 0.062 0.066 0.046 0.057-0.016 0.137 0.033 0.082 0.075 0.083 0.048 0.187 0.062v0.007l-0.015 0.011-0.019 0.003-0.019 0.008-0.015 0.003-0.008 0.003c-0.039-0.024-0.091-0.024-0.133-0.007v-0.011l-0.004-0.011-0.042-0.040-0.015-0.008-0.015-0.003h-0.019l-0.015-0.003-0.023-0.007-0.027-0.019-0.038-0.029-0.030-0.014-0.027-0.011h-0.046l-0.015 0.003h-0.011v-0.008l0.008-0.011z"></path>
<path d="M10.544 8.963l-0.011-0.030 0.004-0.029 0.008-0.022 0.004-0.008h-1.993l0.221 0.187 0.019 0.007 0.019 0.015 0.019 0.011 0.019 0.015c0.050 0.043 0.070 0.107 0.084 0.168l-0.004 0.022-0.011 0.011-0.011 0.018-0.015 0.030-0.008 0.051-0.008 0.081c0.001 0.059 0.008 0.165-0.057 0.201l-0.008-0.007h-0.004c-0.003 0.161-0.064 0.318-0.16 0.45-0.056 0.051-0.066 0.111-0.023 0.171-0.036 0.021-0.085 0.215-0.080 0.245l0.008 0.025 0.011 0.029 0.019 0.022 0.023 0.018 0.030 0.018 0.027 0.004 0.027-0.004 0.011-0.007-0.004-0.008-0.015-0.011-0.011-0.011-0.008-0.015 0.011-0.018 0.030-0.022 0.061-0.029 0.034-0.029 0.008-0.033-0.015-0.025-0.011-0.007h0.008l0.011-0.008 0.030-0.007 0.027-0.015 0.034-0.025 0.034-0.037 0.034-0.052 0.034-0.066 0.042 0.004 0.034-0.007 0.023-0.011 0.027-0.018 0.034-0.022 0.046-0.022 0.065-0.018 0.118-0.033 0.019-0.007 0.019-0.011 0.011-0.008 0.004-0.014 0.004-0.011c-0.015-0.1 0.022-0.063 0.126-0.12 0.197-0.124 0.297-0.22 0.415-0.409l0.015-0.033 0.023-0.029 0.030-0.025 0.046-0.025 0.053-0.025 0.042-0.014h0.057l0.023 0.007h0.015l0.019-0.011 0.019-0.018 0.039-0.051 0.030-0.040c0.039-0.075 0.036-0.13 0.099-0.201l0.011-0.011 0.011-0.014 0.011-0.011 0.008-0.018 0.011-0.014v-0.018l-0.004-0.011z"></path>
<path d="M9.096 6.905l0.008 0.040h0.030l0.011-0.011 0.004-0.014-0.015-0.007h-0.011l-0.011-0.008z"></path>
<path d="M8.989 6.887c-0.072 0.013-0.15 0.008-0.213 0.048-0.012-0.037-0.037-0.029-0.069-0.029l0.015-0.019 0.004-0.018v-0.055c0.107-0.044 0.188 0.054 0.263 0.073z"></path>
<path d="M11.46 9.036c-1.117 3.21-5.638 3.292-6.747 0.030 1.181 2.902 5.591 2.884 6.747-0.030z"></path>
<path d="M11.467 6.979c-0.477-1.457-1.773-2.455-3.389-2.455-1.687-0.002-2.857 0.916-3.373 2.423 0.423-1.053 1.269-1.723 2.231-2.015-0.019 0.034-0.032 0.060-0.032 0.060-0.019 0.032-0.029 0.074-0.061 0.098-0.083 0.036-0.12 0.164-0.16 0.237l-0.015 0.029v0.014l0.003 0.003v0.033c-0.035 0.106-0.152 0.189-0.206 0.289l-0.030 0.062-0.019 0.055-0.016 0.055-0.015 0.040-0.003 0.029-0.004 0.008c0.070 0.128 0.088 0.277 0.065 0.42v0.003l0.004 0.003 0.011 0.008 0.016 0.014 0.019 0.029 0.015 0.029 0.011 0.037 0.016 0.037 0.015 0.040 0.011 0.037 0.016 0.019 0.008 0.003c0.082-0.12-0.080-0.322-0.050-0.464h0.008l0.019-0.014 0.016-0.003c0.015 0.212 0.134 0.4 0.244 0.577l-0.011 0.014-0.023 0.033v0.033l0.042 0.011-0.027 0.059h0.027l0.016 0.003h0.019l0.019 0.008 0.023 0.007 0.016 0.015 0.019 0.011 0.030 0.029 0.045 0.032 0.019 0.003 0.015 0.003h0.705c0.022-0.088 0.045-0.18 0.099-0.256h-0.004l-0.015-0.008h-0.069l-0.019-0.003-0.019-0.011-0.011-0.011h-0.016c-0.032 0.017-0.066 0.117-0.088 0.139-0.024 0.074-0.172 0.071-0.237 0.077-0.058 0.013-0.045-0.005-0.084-0.044-0.021-0.036-0.042-0.072-0.065-0.106-0.117-0.242 0.133-0.612 0.431-0.482 0.157-0.119 0.2 0.007 0.335-0.051l0.057-0.011 0.038 0.011 0.023 0.032 0.015 0.048 0.015 0.059 0.023 0.055 0.034 0.048 0.053 0.032 0.019-0.069-0.011-0.062-0.019-0.062-0.046-0.103-0.011-0.048 0.011-0.040 0.042-0.037c0.069-0.037 0.207-0.112 0.236-0.186l0.023-0.043 0.019-0.044 0.030-0.066 0.015-0.026 0.015-0.022 0.015-0.014 0.015-0.008 0.034-0.018 0.027-0.022 0.015-0.022 0.011-0.026 0.004-0.022v-0.014l-0.004-0.014v-0.003h0.008l0.015 0.003 0.019 0.003h0.030l0.034-0.003 0.034-0.011 0.042-0.014 0.034-0.029-0.027-0.011-0.034-0.014-0.027-0.014-0.023-0.019-0.023-0.014-0.019-0.022v-0.048l0.023-0.022h0.034l0.050 0.003 0.053 0.014 0.053 0.011h0.053l0.046-0.019 0.034-0.040c-0.155-0.059-0.238-0.158-0.373-0.219l-0.023 0.022-0.019 0.011h-0.042l-0.023-0.007-0.019-0.011-0.027-0.018-0.027-0.022c-0.113-0.093-0.152-0.002-0.225-0.073l-0.015 0.040v0.055l0.015 0.018 0.011 0.011 0.023 0.007 0.015 0.008 0.015 0.011 0.019 0.022v0.008l-0.008-0.003-0.023-0.003-0.023 0.003-0.023 0.019-0.011 0.032v0.069l-0.004 0.022-0.008 0.011-0.019 0.011-0.019-0.003-0.023-0.008c-0.102-0.064-0.029-0.084-0.141-0.124-0.079-0.041-0.229-0.014-0.293-0.080l0.011-0.019 0.016-0.022 0.027-0.019 0.027-0.026 0.038-0.022 0.042-0.029 0.046-0.029 0.053-0.022c0.177-0.090 0.41-0.109 0.606-0.084 0 0-0.015-0.007-0.040-0.019 1.206 0.172 2.327 0.899 2.823 2.178z"></path>
<path d="M1.983 7.282h-0.556l0.084 0.098v0.753l-0.019 0.047-0.023 0.037c-0.050 0.064-0.151 0.085-0.229 0.084l-0.057-0.004-0.050-0.011-0.050-0.014-0.038-0.025-0.030-0.030-0.023-0.037-0.019-0.047v-0.752l0.084-0.098h-0.556l0.084 0.098c0.051 0.694-0.234 1.184 0.655 1.191 0.901-0.008 0.602-0.486 0.659-1.191l0.084-0.098z"></path>
<path d="M3.912 7.282h-0.465l0.080 0.098v0.64l-0.671-0.738h-0.42l0.084 0.098v1.075l-0.084 0.091h0.465l-0.080-0.091v-0.647l0.713 0.739h0.293v-1.166z"></path>
<path d="M4.99 8.546l-0.080-0.091v-1.075l0.080-0.098h-0.556l0.084 0.098v1.075l-0.084 0.091z"></path>
<path d="M6.84 7.282h-0.473l0.084 0.098-0.332 0.698-0.321-0.698 0.084-0.098h-0.556l0.614 1.264h0.274z"></path>
<path d="M8.41 8.546v-0.34l-0.103 0.077h-0.67v-0.241h0.423l0.1 0.081v-0.409l-0.1 0.080h-0.423v-0.245h0.671l0.103 0.080v-0.347h-1.242l0.084 0.098v1.075l-0.084 0.091z"></path>
<path d="M9.374 7.862v-0.314h0.332l0.030 0.011 0.030 0.008c0.055 0.027 0.073 0.072 0.076 0.128-0.016 0.211-0.333 0.174-0.469 0.168zM10.297 8.546l-0.358-0.497c0.178-0.066 0.299-0.189 0.297-0.38l-0.004-0.080-0.023-0.069-0.034-0.066-0.050-0.059-0.072-0.044-0.088-0.037-0.107-0.022-0.13-0.011h-0.823l0.084 0.098v1.074l-0.084 0.091h0.553l-0.084-0.091v-0.354h0.168l0.252 0.354-0.084 0.091h0.587z"></path>
<path d="M11.97 8.181c-0.005-0.279-0.31-0.359-0.537-0.424-0.082-0.007-0.375-0.106-0.21-0.208 0.148-0.077 0.54 0.053 0.678 0.12v-0.428l-0.107 0.098c-0.271-0.103-0.646-0.143-0.896 0.026-0.076 0.061-0.138 0.149-0.13 0.248-0.015 0.241 0.213 0.356 0.415 0.423l0.069 0.022 0.069 0.014 0.061 0.014 0.057 0.018 0.042 0.015 0.034 0.025 0.027 0.025 0.008 0.040c-0.002 0.072-0.104 0.097-0.164 0.095-0.216-0.011-0.431-0.075-0.614-0.186v0.467l0.107-0.11c0.34 0.125 1.077 0.22 1.090-0.3z"></path>
<path d="M12.866 8.093l0.217-0.453 0.222 0.453h-0.438zM13.937 8.546l-0.648-1.264h-0.446l0.046 0.098-0.583 1.165h0.484l-0.084-0.091 0.069-0.135h0.625l0.065 0.135-0.084 0.091h0.556z"></path>
<path d="M14.296 7.282l0.084 0.098v1.074l-0.084 0.091h1.204v-0.34l-0.099 0.077h-0.636v-0.902l0.084-0.098z"></path>
<path d="M15.382 7.395l-0.011-0.011-0.019-0.008-0.015-0.003h-0.019l-0.034 0.003-0.030 0.019-0.019 0.033-0.008 0.037 0.008 0.037 0.019 0.026 0.030 0.022 0.034 0.008 0.019-0.008h0.015l0.019-0.007 0.011-0.011v-0.022l-0.011 0.011-0.019 0.011-0.015 0.003-0.019 0.003-0.030-0.008-0.023-0.014-0.023-0.051c0.019-0.081 0.085-0.099 0.141-0.048v-0.022z"></path>
<path d="M15.146 7.46c0.011-0.207 0.326-0.207 0.332 0-0.003 0.212-0.324 0.211-0.332 0zM15.13 7.46c-0.002 0.225 0.355 0.242 0.366 0-0.014-0.238-0.366-0.221-0.366 0z"></path>
</symbol>
<symbol id="icon-veuve-clicquot" viewBox="0 0 16 16">
<title>veuve-clicquot</title>
<path d="M6.554 7.205c0.281 0.056 0.55 0.158 0.8 0.301 0.263 0.151 0.496 0.338 0.676 0.542 0.198-0.223 0.416-0.399 0.663-0.536 0.253-0.141 0.527-0.238 0.815-0.29-0.095-0.27-0.143-0.553-0.141-0.84 0.002-0.287 0.051-0.567 0.148-0.834-0.287-0.054-0.561-0.155-0.816-0.3s-0.479-0.326-0.668-0.538c-0.191 0.215-0.417 0.396-0.672 0.539s-0.527 0.242-0.813 0.295c0.096 0.271 0.146 0.552 0.146 0.839 0 0.284-0.046 0.56-0.138 0.822zM8.030 8.239l-0.048-0.057c-0.178-0.215-0.417-0.412-0.691-0.569-0.258-0.149-0.538-0.25-0.83-0.3l-0.074-0.013 0.026-0.068c0.103-0.269 0.154-0.554 0.154-0.848 0-0.296-0.054-0.587-0.162-0.864l-0.027-0.069 0.075-0.012c0.297-0.046 0.582-0.146 0.845-0.293 0.264-0.149 0.495-0.339 0.686-0.566l0.048-0.058 0.048 0.058c0.188 0.226 0.418 0.416 0.682 0.566 0.263 0.149 0.548 0.25 0.847 0.298l0.075 0.012-0.027 0.069c-0.108 0.274-0.164 0.564-0.165 0.859-0.002 0.298 0.052 0.59 0.158 0.867l0.027 0.069-0.075 0.011c-0.3 0.046-0.585 0.143-0.846 0.288-0.254 0.141-0.476 0.325-0.677 0.563l-0.049 0.057z"></path>
<path d="M7.915 5.247c0-0.061 0.051-0.112 0.114-0.112s0.114 0.050 0.114 0.112c0 0.061-0.052 0.112-0.114 0.112s-0.114-0.050-0.114-0.112zM7.968 6.138h0.124v-0.29l0.714 0.019 0.001-0.121-0.715 0.016v-0.291c0.101-0.027 0.177-0.117 0.177-0.225 0-0.128-0.107-0.232-0.239-0.232s-0.239 0.104-0.239 0.232c0 0.107 0.075 0.198 0.176 0.225v0.291l-0.696-0.023-0 0.121 0.697-0.013v0.291z"></path>
<path d="M8.977 6.697c-0.018 0.277-0.368 0.595-0.758 0.595-0.098 0-0.127-0.080-0.13-0.142v-0.345c0.078-0.004 0.154-0.021 0.198-0.061-0.002-0.014 0.002-0.082 0-0.096-0.126 0.119-0.252 0.152-0.343 0.061-0.067-0.069-0.079-0.196-0.079-0.249 0-0.125 0.048-0.276 0.192-0.276 0.070 0 0.117 0.027 0.157 0.064 0.038 0.038 0.067 0.072 0.067 0.072 0.004-0.001 0.005-0.003 0.004-0.008-0.004-0.026 0.002-0.171 0.002-0.171s-0.020 0.002-0.028 0.001c0.002 0.005-0.009 0.022-0.009 0.022-0.002 0.032-0.107-0.015-0.19-0.015-0.109 0-0.186 0.042-0.234 0.091-0.063 0.066-0.092 0.147-0.092 0.232 0 0.077 0.024 0.188 0.091 0.245 0.040 0.035 0.079 0.067 0.141 0.082v0.338c0 0.064-0.026 0.157-0.131 0.157-0.391 0-0.74-0.316-0.758-0.595l-0.2-0.117c0.175 0.784 1.123 0.868 1.151 1.034v0.002c0-0 0-0 0-0.001s0 0 0 0.001v-0.002c0.028-0.166 0.978-0.25 1.152-1.034l-0.2 0.117z"></path>
<path d="M7.053 6.184h0.058c0.027 0 0.028 0.003 0.039 0.027s0.208 0.478 0.239 0.551c0.005 0.011 0.009 0.020 0.020 0.020 0.008 0 0.014-0.005 0.018-0.011 0.009-0.019 0.204-0.502 0.234-0.548 0.021-0.031 0.059-0.040 0.081-0.040h0.021c0.005 0 0.008-0.003 0.008-0.007v-0.021c0-0.005-0.002-0.006-0.008-0.006h-0.229c-0.005 0-0.007 0.002-0.007 0.007v0.020c0 0.005 0.003 0.008 0.006 0.008h0.024c0.051-0 0.051 0.016 0.045 0.032-0.011 0.034-0.152 0.364-0.152 0.364l-0.161-0.394 0.088-0.002c0.005 0 0.007-0.003 0.007-0.008v-0.019c0-0.005-0.002-0.007-0.009-0.007h-0.321c-0.003 0-0.005 0.002-0.005 0.007v0.020c0 0.005 0.002 0.008 0.005 0.008z"></path>
<path d="M8.256 6.138v0z"></path>
<path d="M8.796 6.337c0 0.032-0.004 0.066-0.023 0.093-0.023 0.030-0.072 0.061-0.115 0.061-0.025 0-0.052-0.002-0.069-0.008v-0.292c0.015-0.008 0.039-0.006 0.056-0.006 0.046 0 0.152 0.028 0.152 0.151zM8.383 6.155c-0.004 0-0.006 0.002-0.006 0.007v0.022c0 0.005 0.002 0.006 0.006 0.006l0.084 0.001-0.002 0.571-0.074-0.001c-0.006 0-0.006 0.002-0.006 0.008v0.022c0 0.003 0 0.006 0.008 0.006h0.28c0.008 0 0.008-0.003 0.008-0.009v-0.021c0-0.003 0-0.006-0.008-0.006l-0.084 0.001-0.001-0.247c0.025 0.003 0.053 0.003 0.086 0.003 0.163 0 0.255-0.071 0.255-0.182 0-0.056-0.029-0.106-0.073-0.137-0.056-0.036-0.111-0.046-0.226-0.046h-0.248z"></path>
<path d="M1.768 9.002v0.069h0.278l-0.49 1.463h-0.006l-0.513-1.463h0.238v-0.069h-0.772v0.069h0.224l0.683 1.933h0.077l0.647-1.933h0.216v-0.069z"></path>
<path d="M2.296 10.206h0.477v-0.099c0-0.069-0.010-0.123-0.030-0.165s-0.047-0.070-0.081-0.088c-0.034-0.018-0.073-0.027-0.118-0.027-0.063 0-0.115 0.024-0.153 0.070s-0.062 0.085-0.069 0.115c-0.014 0.047-0.023 0.111-0.026 0.193zM2.944 10.597h0.055c-0.017 0.089-0.046 0.165-0.086 0.224s-0.091 0.104-0.152 0.133c-0.061 0.029-0.128 0.044-0.203 0.044-0.131 0-0.247-0.055-0.348-0.165s-0.151-0.244-0.151-0.402c0-0.114 0.021-0.222 0.062-0.323s0.099-0.184 0.174-0.246c0.075-0.062 0.16-0.092 0.256-0.092 0.083 0 0.16 0.021 0.229 0.065s0.123 0.104 0.162 0.184c0.039 0.080 0.059 0.171 0.059 0.274h-0.707v0.119c0 0.171 0.020 0.301 0.059 0.391s0.122 0.134 0.245 0.134c0.046 0 0.095-0.015 0.144-0.046s0.092-0.072 0.128-0.123c0.036-0.052 0.061-0.11 0.072-0.171z"></path>
<path d="M4.339 10.893v0.066l-0.349 0.002v-0.22h-0.005c-0.034 0.080-0.086 0.143-0.155 0.19s-0.147 0.069-0.234 0.069c-0.211 0-0.316-0.095-0.316-0.285v-0.851h-0.145v-0.066l0.354-0.001v0.892c0 0.145 0.054 0.217 0.163 0.217 0.093 0 0.171-0.037 0.232-0.111s0.092-0.165 0.092-0.271v-0.659h-0.207v-0.066l0.416-0.001v1.095h0.152z"></path>
<path d="M13.495 10.893v0.066l-0.325 0.004v-0.222h-0.005c-0.032 0.080-0.080 0.143-0.144 0.19s-0.137 0.069-0.219 0.069c-0.197 0-0.294-0.095-0.294-0.285v-0.851h-0.135v-0.066l0.331-0.003v0.895c0 0.145 0.051 0.217 0.152 0.217 0.087 0 0.159-0.037 0.216-0.111s0.086-0.165 0.086-0.271v-0.659h-0.143v-0.066l0.338 0.001v1.094h0.143z"></path>
<path d="M4.489 9.866h-0.12v-0.066h0.575v0.066h-0.207l0.285 0.793 0.24-0.793h-0.152v-0.066h0.339v0.066h-0.12l-0.345 1.133h-0.084z"></path>
<path d="M5.713 10.206h0.477v-0.099c0-0.069-0.010-0.123-0.030-0.165s-0.047-0.070-0.081-0.088c-0.034-0.018-0.073-0.027-0.117-0.027-0.064 0-0.114 0.024-0.153 0.070s-0.061 0.085-0.069 0.115c-0.014 0.047-0.023 0.111-0.026 0.193zM6.361 10.597h0.055c-0.017 0.089-0.046 0.165-0.086 0.224s-0.091 0.104-0.152 0.133c-0.061 0.029-0.128 0.044-0.203 0.044-0.131 0-0.247-0.055-0.348-0.165s-0.152-0.244-0.152-0.402c0-0.114 0.021-0.222 0.061-0.323s0.099-0.184 0.174-0.246 0.16-0.092 0.256-0.092c0.083 0 0.16 0.021 0.229 0.065s0.123 0.104 0.162 0.184c0.039 0.080 0.059 0.171 0.060 0.274h-0.707v0.119c0 0.171 0.020 0.301 0.059 0.391s0.122 0.134 0.245 0.134c0.046 0 0.095-0.015 0.144-0.046s0.093-0.072 0.128-0.123c0.037-0.052 0.061-0.11 0.072-0.171z"></path>
<path d="M9.211 10.96h-0.666v-0.066h0.222v-1.813h-0.222v-0.066l0.446 0.002v1.878h0.221z"></path>
<path d="M9.476 9.314c0-0.038 0.014-0.071 0.042-0.099s0.060-0.043 0.097-0.043c0.023 0 0.046 0.007 0.069 0.020s0.041 0.030 0.056 0.052c0.014 0.021 0.022 0.044 0.022 0.070 0 0.044-0.014 0.082-0.040 0.111s-0.063 0.044-0.105 0.044c-0.042 0-0.076-0.015-0.101-0.045s-0.038-0.066-0.038-0.11zM9.899 10.96h-0.585v-0.066h0.192v-1.027h-0.192v-0.066l0.416-0.003v1.097h0.169v0.066z"></path>
<path d="M10.902 10.597h0.054c-0.034 0.119-0.083 0.214-0.148 0.285s-0.159 0.11-0.283 0.117c-0.123 0-0.223-0.033-0.3-0.097s-0.133-0.142-0.167-0.232c-0.034-0.089-0.050-0.174-0.050-0.252 0-0.159 0.030-0.287 0.091-0.384s0.13-0.165 0.21-0.205c0.080-0.039 0.151-0.059 0.213-0.059 0.043 0 0.088 0.006 0.135 0.018s0.091 0.030 0.133 0.056c0.041 0.025 0.075 0.059 0.099 0.1s0.037 0.088 0.037 0.142c0 0.040-0.011 0.077-0.031 0.108s-0.050 0.047-0.085 0.047c-0.034 0-0.063-0.013-0.087-0.039s-0.035-0.059-0.035-0.101c0-0.032 0.006-0.057 0.018-0.077 0.030-0.050 0.059-0.196-0.152-0.196-0.080 0-0.143 0.023-0.189 0.066s-0.077 0.11-0.095 0.195c-0.018 0.086-0.027 0.195-0.027 0.328 0 0.056 0.003 0.107 0.009 0.151s0.013 0.083 0.021 0.117c0.008 0.034 0.016 0.062 0.024 0.084 0.041 0.103 0.125 0.159 0.252 0.168 0.078 0 0.149-0.032 0.214-0.095s0.112-0.145 0.14-0.245z"></path>
<path d="M11.838 10.359c0-0.111-0.005-0.196-0.018-0.252s-0.041-0.111-0.088-0.166c-0.055-0.068-0.123-0.102-0.204-0.102-0.074 0-0.13 0.031-0.166 0.095s-0.059 0.134-0.068 0.213c-0.008 0.079-0.013 0.171-0.013 0.274 0 0.097 0.005 0.181 0.016 0.252s0.034 0.133 0.072 0.184c0.037 0.051 0.093 0.076 0.166 0.076 0.034 0 0.072-0.009 0.117-0.027s0.086-0.057 0.124-0.116c0.038-0.059 0.057-0.143 0.057-0.255 0.001-0.030 0.002-0.056 0.002-0.081s0.001-0.056 0.001-0.094zM12.033 11.412h0.149v0.066h-0.518v-0.066h0.169v-0.611h-0.005c-0.063 0.13-0.17 0.195-0.323 0.195-0.084 0-0.16-0.027-0.23-0.082s-0.125-0.128-0.165-0.22-0.061-0.191-0.061-0.293c0-0.145 0.025-0.264 0.075-0.36s0.111-0.165 0.184-0.209 0.139-0.066 0.202-0.066c0.072 0 0.139 0.021 0.198 0.064s0.102 0.101 0.127 0.178l-0.003-0.214 0.35 0.004v0.066h-0.149v1.547z"></path>
<path d="M14.168 9.828c-0.082 0-0.142 0.027-0.18 0.081s-0.063 0.118-0.072 0.193c-0.009 0.075-0.014 0.168-0.014 0.28 0 0.114 0.005 0.209 0.014 0.284s0.034 0.139 0.072 0.194 0.098 0.082 0.18 0.082c0.082 0 0.142-0.027 0.18-0.082s0.063-0.118 0.072-0.194c0.009-0.075 0.014-0.169 0.014-0.284 0-0.113-0.005-0.206-0.014-0.28s-0.034-0.139-0.072-0.193c-0.039-0.054-0.098-0.081-0.18-0.081zM14.168 9.77c0.091 0 0.175 0.027 0.252 0.080s0.138 0.127 0.184 0.222c0.046 0.094 0.069 0.197 0.069 0.311 0 0.088-0.013 0.17-0.039 0.245s-0.063 0.139-0.11 0.197c-0.047 0.056-0.101 0.1-0.162 0.13s-0.126 0.045-0.193 0.045c-0.066 0-0.13-0.015-0.192-0.046s-0.116-0.074-0.164-0.13c-0.047-0.056-0.084-0.121-0.11-0.197s-0.040-0.157-0.040-0.243c0-0.114 0.023-0.217 0.069-0.311s0.107-0.168 0.184-0.222c0.078-0.053 0.162-0.080 0.252-0.080z"></path>
<path d="M14.803 9.866v-0.066h0.168v-0.288l0.216-0.117v0.405h0.251v0.066h-0.251v0.897c0 0.040 0.007 0.073 0.020 0.097s0.043 0.036 0.088 0.036c0.034 0 0.061-0.009 0.082-0.027s0.047-0.046 0.077-0.084l0.046 0.036c-0.017 0.033-0.042 0.063-0.075 0.091s-0.071 0.049-0.112 0.064-0.081 0.022-0.121 0.022c-0.093 0-0.153-0.021-0.183-0.065s-0.043-0.107-0.043-0.192v-0.876h-0.162z"></path>
<path d="M8.073 9.032c0.079 0.031 0.123 0.047 0.133 0.047 0.020 0 0.038-0.008 0.056-0.023s0.030-0.039 0.037-0.072h0.067l-0.004 0.659h-0.047c-0.027-0.131-0.072-0.232-0.108-0.317-0.066-0.152-0.19-0.248-0.333-0.248-0.261 0-0.476 0.297-0.476 0.913 0 0.452 0.173 0.95 0.512 0.95 0.274 0 0.421-0.278 0.467-0.563l0.065 0.002c-0.078 0.434-0.241 0.626-0.587 0.63-0.223 0.003-0.415-0.101-0.546-0.303-0.121-0.187-0.181-0.419-0.181-0.698 0-0.286 0.064-0.525 0.192-0.72 0.135-0.204 0.309-0.306 0.526-0.306 0.075 0 0.152 0.015 0.231 0.047z"></path>
</symbol>
<symbol id="icon-logo" viewBox="0 0 24 16">
<title>logo</title>
<path d="M0.754 2.635h4.951v-1.939h-4.951v1.939zM1.057 0.999h4.345v1.334h-4.345v-1.334z"></path>
<path d="M0.754 7.543h4.951v-1.939h-4.951v1.939zM1.057 5.907h4.345v1.333h-4.345v-1.333z"></path>
<path d="M9.272 0.5l-3.019 7.043h6.037l-3.019-7.043zM9.272 1.269l2.559 5.972h-5.119l2.559-5.972z"></path>
<path d="M14.85 0.696c-1.621 0-2.94 1.326-2.94 2.956s1.319 2.956 2.94 2.956c1.621 0 2.94-1.326 2.94-2.956s-1.319-2.956-2.94-2.956zM14.85 6.305c-1.454 0-2.637-1.19-2.637-2.653s1.183-2.654 2.637-2.654c1.454 0 2.638 1.19 2.638 2.654s-1.183 2.653-2.638 2.653z"></path>
<path d="M17.311 0.696l6.057 7.107v-7.107h-6.057zM17.967 0.999h5.098v5.982l-5.098-5.982z"></path>
<path d="M4.042 14.534h-2.042v-0.728h1.997v-0.966h-1.997v-0.67h2.042v-0.967h-3.15v4.297h3.15v-0.966zM9.178 11.203h-1.398l-1.617 4.297h1.256l0.213-0.619h1.695l0.212 0.619h1.256l-1.617-4.297zM7.934 13.915l0.548-1.617 0.541 1.617h-1.089zM15.833 13.921c0.236-0.082 0.438-0.231 0.606-0.448s0.251-0.497 0.251-0.841c0-0.413-0.133-0.754-0.399-1.025s-0.631-0.406-1.095-0.406h-2.152v4.297h1.108v-1.443h0.567l0.721 1.443h1.269l-0.876-1.579zM14.152 13.091v-0.921h0.876c0.155 0 0.282 0.041 0.383 0.122s0.151 0.193 0.151 0.335c0 0.146-0.050 0.26-0.151 0.342s-0.229 0.123-0.383 0.123h-0.876zM23.23 11.203h-1.115v2.365l-1.74-2.365h-1.14v4.297h1.108v-2.487l1.817 2.487h1.070v-4.297z"></path>
</symbol>
<symbol id="icon-left-long" viewBox="0 0 16 16">
<title>left-long</title>
<path d="M16 7.5h-14.085l2.795-2.795-0.71-0.705-4 4 4 4 0.705-0.705-2.79-2.795h14.085v-1z"></path>
</symbol>
<symbol id="icon-right-long" viewBox="0 0 16 16">
<title>right-long</title>
<path d="M0 8.5h14.085l-2.795 2.795 0.71 0.705 4-4-4-4-0.705 0.705 2.79 2.795h-14.085v1z"></path>
</symbol>
<symbol id="icon-cross2" viewBox="0 0 16 16">
<title>cross2</title>
<path d="M13.957 3.457l-1.414-1.414-4.543 4.543-4.543-4.543-1.414 1.414 4.543 4.543-4.543 4.543 1.414 1.414 4.543-4.543 4.543 4.543 1.414-1.414-4.543-4.543z"></path>
</symbol>
<symbol id="icon-play4" viewBox="0 0 16 16">
<title>play4</title>
<path d="M3 2l10 6-10 6z"></path>
</symbol>
<symbol id="icon-arrow-up8" viewBox="0 0 16 16">
<title>arrow-up8</title>
<path d="M13.707 6.293l-5-5c-0.39-0.391-1.024-0.391-1.414 0l-5 5c-0.391 0.391-0.391 1.024 0 1.414s1.024 0.391 1.414 0l3.293-3.293v9.586c0 0.552 0.448 1 1 1s1-0.448 1-1v-9.586l3.293 3.293c0.195 0.195 0.451 0.293 0.707 0.293s0.512-0.098 0.707-0.293c0.391-0.391 0.391-1.024 0-1.414z"></path>
</symbol>
<symbol id="icon-arrow-right8" viewBox="0 0 16 16">
<title>arrow-right8</title>
<path d="M9.707 13.707l5-5c0.391-0.39 0.391-1.024 0-1.414l-5-5c-0.391-0.391-1.024-0.391-1.414 0s-0.391 1.024 0 1.414l3.293 3.293h-9.586c-0.552 0-1 0.448-1 1s0.448 1 1 1h9.586l-3.293 3.293c-0.195 0.195-0.293 0.451-0.293 0.707s0.098 0.512 0.293 0.707c0.391 0.391 1.024 0.391 1.414 0z"></path>
</symbol>
<symbol id="icon-arrow-left8" viewBox="0 0 16 16">
<title>arrow-left8</title>
<path d="M6.293 13.707l-5-5c-0.391-0.39-0.391-1.024 0-1.414l5-5c0.391-0.391 1.024-0.391 1.414 0s0.391 1.024 0 1.414l-3.293 3.293h9.586c0.552 0 1 0.448 1 1s-0.448 1-1 1h-9.586l3.293 3.293c0.195 0.195 0.293 0.451 0.293 0.707s-0.098 0.512-0.293 0.707c-0.391 0.391-1.024 0.391-1.414 0z"></path>
</symbol>
<symbol id="icon-google-plus" viewBox="0 0 16 16">
<title>google-plus</title>
<path d="M5.091 7.147v1.747h2.888c-0.116 0.75-0.872 2.197-2.888 2.197-1.737 0-3.156-1.441-3.156-3.216s1.419-3.216 3.156-3.216c0.991 0 1.65 0.422 2.028 0.784l1.381-1.331c-0.888-0.828-2.037-1.331-3.409-1.331-2.816 0.003-5.091 2.278-5.091 5.094s2.275 5.091 5.091 5.091c2.937 0 4.888-2.066 4.888-4.975 0-0.334-0.037-0.591-0.081-0.844h-4.806z"></path>
<path d="M16 7h-1.5v-1.5h-1.5v1.5h-1.5v1.5h1.5v1.5h1.5v-1.5h1.5z"></path>
</symbol>
<symbol id="icon-facebook" viewBox="0 0 16 16">
<title>facebook</title>
<path d="M9.5 3h2.5v-3h-2.5c-1.93 0-3.5 1.57-3.5 3.5v1.5h-2v3h2v8h3v-8h2.5l0.5-3h-3v-1.5c0-0.271 0.229-0.5 0.5-0.5z"></path>
</symbol>
<symbol id="icon-instagram" viewBox="0 0 16 16">
<title>instagram</title>
<path d="M14.5 0h-13c-0.825 0-1.5 0.675-1.5 1.5v13c0 0.825 0.675 1.5 1.5 1.5h13c0.825 0 1.5-0.675 1.5-1.5v-13c0-0.825-0.675-1.5-1.5-1.5zM11 2.5c0-0.275 0.225-0.5 0.5-0.5h2c0.275 0 0.5 0.225 0.5 0.5v2c0 0.275-0.225 0.5-0.5 0.5h-2c-0.275 0-0.5-0.225-0.5-0.5v-2zM8 5c1.656 0 3 1.344 3 3s-1.344 3-3 3c-1.656 0-3-1.344-3-3s1.344-3 3-3zM14 13.5v0c0 0.275-0.225 0.5-0.5 0.5h-11c-0.275 0-0.5-0.225-0.5-0.5v0-6.5h1.1c-0.066 0.322-0.1 0.656-0.1 1 0 2.762 2.237 5 5 5s5-2.238 5-5c0-0.344-0.034-0.678-0.1-1h1.1v6.5z"></path>
</symbol>
<symbol id="icon-twitter" viewBox="0 0 16 16">
<title>twitter</title>
<path d="M16 3.538c-0.588 0.263-1.222 0.438-1.884 0.516 0.678-0.406 1.197-1.050 1.444-1.816-0.634 0.375-1.338 0.65-2.084 0.797-0.6-0.638-1.453-1.034-2.397-1.034-1.813 0-3.281 1.469-3.281 3.281 0 0.256 0.028 0.506 0.084 0.747-2.728-0.138-5.147-1.444-6.766-3.431-0.281 0.484-0.444 1.050-0.444 1.65 0 1.138 0.578 2.144 1.459 2.731-0.538-0.016-1.044-0.166-1.488-0.409 0 0.013 0 0.028 0 0.041 0 1.591 1.131 2.919 2.634 3.219-0.275 0.075-0.566 0.116-0.866 0.116-0.212 0-0.416-0.022-0.619-0.059 0.419 1.303 1.631 2.253 3.066 2.281-1.125 0.881-2.538 1.406-4.078 1.406-0.266 0-0.525-0.016-0.784-0.047 1.456 0.934 3.181 1.475 5.034 1.475 6.037 0 9.341-5.003 9.341-9.341 0-0.144-0.003-0.284-0.009-0.425 0.641-0.459 1.197-1.038 1.637-1.697z"></path>
</symbol>
<symbol id="icon-linkedin2" viewBox="0 0 16 16">
<title>linkedin2</title>
<path d="M6 6h2.767v1.418h0.040c0.385-0.691 1.327-1.418 2.732-1.418 2.921 0 3.461 1.818 3.461 4.183v4.817h-2.885v-4.27c0-1.018-0.021-2.329-1.5-2.329-1.502 0-1.732 1.109-1.732 2.255v4.344h-2.883v-9z"></path>
<path d="M1 6h3v9h-3v-9z"></path>
<path d="M4 3.5c0 0.828-0.672 1.5-1.5 1.5s-1.5-0.672-1.5-1.5c0-0.828 0.672-1.5 1.5-1.5s1.5 0.672 1.5 1.5z"></path>
</symbol>
</defs>
</svg>
