<?xml version="1.0" encoding="utf-8"?>
<!-- Generator: Adobe Illustrator 19.0.0, SVG Export Plug-In . SVG Version: 6.00 Build 0)  -->
<svg version="1.1" id="Layer_1" xmlns="http://www.w3.org/2000/svg" xmlns:xlink="http://www.w3.org/1999/xlink" x="0px" y="0px"
	 viewBox="-478 921 213.6 100" style="enable-background:new -478 921 213.6 100;" xml:space="preserve">
<style type="text/css">
	.st0{fill:#1D1D1B;}
</style>
<g>
	<path class="st0" d="M-454.3,947.2h32.8v10.1h-32.8V947.2z M-456.6,959.6h37.4v-14.6h-37.4V959.6z"/>
	<path class="st0" d="M-454.3,984.3h32.8v10.1h-32.8V984.3z M-456.6,996.6h37.4V982h-37.4V996.6z"/>
	<path class="st0" d="M-392.3,949.2l19.3,45.1h-38.6L-392.3,949.2z M-392.3,943.4l-22.8,53.2h45.6L-392.3,943.4z"/>
	<g>
		<path class="st0" d="M-350.1,944.9c-12.2,0-22.2,10-22.2,22.3c0,12.3,10,22.3,22.2,22.3c12.2,0,22.2-10,22.2-22.3
			C-328,954.9-337.9,944.9-350.1,944.9 M-350.1,987.3c-11,0-19.9-9-19.9-20c0-11,8.9-20,19.9-20c11,0,19.9,9,19.9,20
			C-330.2,978.3-339.2,987.3-350.1,987.3"/>
	</g>
	<path class="st0" d="M-326.6,947.2h38.5v45.2L-326.6,947.2z M-331.6,944.9l45.7,53.7v-53.7H-331.6z"/>
</g>
</svg>
