<?xml version="1.0" standalone="no"?>
<!DOCTYPE svg PUBLIC "-//W3C//DTD SVG 1.1//EN" "http://www.w3.org/Graphics/SVG/1.1/DTD/svg11.dtd" >
<svg>
<metadata>
Created by FontForge 20090622 at Sun Sep 11 14:53:17 2016
 By deploy user
Copyright (c) 2010, Barry Schwartz (chemoelectric@chemoelectric.org)

</metadata>
<defs>
<font id="SortsMillGoudy-Regular" horiz-adv-x="337" >
  <font-face 
    font-family="Sorts Mill Goudy"
    font-weight="400"
    font-stretch="normal"
    units-per-em="1000"
    panose-1="2 0 5 3 0 0 0 0 0 0"
    ascent="800"
    descent="-200"
    x-height="423"
    cap-height="710"
    bbox="-367 -438 1106 960"
    underline-thickness="49"
    underline-position="-99"
    unicode-range="U+0020-U+FEFF"
  />
<missing-glyph horiz-adv-x="396" 
d="M23 -64v774h334v-774h-334zM178 205l-5 46q0 35 22 79t48 78t48 76t22 75q0 54 -40 84t-87 30t-79 -22t-32 -39q0 -9 9 -9q1 0 19 12.5t40.5 12.5t54.5 -20.5t32 -55t-46 -138.5t-46 -133.5t8.5 -57.5t23.5 -28q8 0 8 10zM133 100q-36 -31 -36 -40t15 -21t21 -19
t18.5 -18t18.5 -11t12 5.5t13.5 15.5t11 13.5t13.5 10.5q21 13 21 26q0 8 -24 27l-10 8l-7 10q-20 25 -27 25t-13.5 -5t-14.5 -14.5t-12 -12.5z" />
    <glyph glyph-name="f_f" unicode="ff" horiz-adv-x="607" 
d="M109 77l-1 138v147q0 8 -3.5 10.5t-14.5 2.5h-41q-20 0 -20 19q0 15 3 19q6 8 30 8l30 -1q12 0 14.5 3t2.5 15q0 57 27 118t74 102q67 58 146 58q51 0 92 -28q13 -10 14.5 -10t19 17.5t47.5 35t63 17.5q55 0 55 -26q0 -14 -4.5 -30t-9.5 -22t-13 -6t-22.5 12t-45.5 12
t-53.5 -19.5t-34.5 -56.5q-22 -66 -22 -184q0 -11 9 -11h41q46 0 56 10t17.5 10t7.5 -14.5t-13 -36.5q-6 -9 -25 -9l-78 -1q-11 0 -13 -10q-4 -15 -4 -98l-1 -172q0 -26 8.5 -41.5t18 -20t18 -6t13 -2.5t6.5 -1.5t5.5 -1t5.5 -1.5l4 -2q3 -4 3 -9q0 -12 -12 -12l-93 6
q-12 0 -28 -2.5t-44.5 -2.5t-28.5 11q0 13 27 19q9 3 17.5 15t8.5 26t1 47q2 64 2 241q0 11 -5 14.5t-21 3.5l-152 -1q-14 0 -14 -10v-117l-1 -71v-56q0 -40 3 -53.5t10.5 -22.5t25.5 -14q48 -13 48 -22.5t-14 -9.5l-100 5q-9 0 -31.5 -2.5t-52.5 -2.5q-13 0 -13 11
q0 9 8 11q2 1 7.5 3t6.5 2q33 11 33 50zM189 419l165 -2q12 0 15.5 4.5t3.5 34.5t9.5 69.5t19.5 61.5t10 27q0 14 -35.5 37.5t-60.5 23.5q-48 0 -93 -59t-45 -183q0 -9 2 -11.5t9 -2.5z" />
    <glyph glyph-name="f_i" unicode="fi" horiz-adv-x="543" 
d="M94 375l-43 2q-15 0 -18.5 2.5t-3.5 10.5q0 27 22 27l41 -2q20 0 20 23q0 74 23.5 133t61.5 93q78 71 166 71q35 0 49 -12t14 -23.5t-8.5 -40.5t-17.5 -29q-3 0 -11 9.5t-15 14.5q-43 28 -79 28t-59 -25q-26 -29 -42 -94t-16 -130q0 -19 11 -19h131q27 0 64.5 13.5
t44 13.5t11.5 -5.5t5 -14t-1 -19.5t-2 -30q-4 -43 -4 -250q0 -47 8 -70q10 -28 50 -32q19 -2 23.5 -6t4.5 -10q0 -11 -13.5 -11t-39.5 3.5t-52.5 3.5t-53.5 -3t-41 -3t-14 8q0 11 17 17t23 9.5t11.5 25t6 51t0.5 101.5v124q0 20 -10.5 34t-27.5 14l-133 3q-16 0 -16 -13
l-3 -60q-3 -93 -3 -140l1 -70q0 -40 13 -55.5t43.5 -20t30.5 -18.5q0 -9 -20 -9l-91 4l-84 -3q-16 0 -16 12q0 11 28 16q10 2 18.5 14.5t8.5 36.5l1 137v147q0 11 -2 13.5t-12 2.5z" />
    <glyph glyph-name="f_l" unicode="fl" horiz-adv-x="542" 
d="M89 380l-38 -2q-23 0 -23 12q0 18 8.5 24t32.5 6l29 -1q8 0 11 3t3 11q0 73 24 133.5t60 95.5q76 72 140 72l46 -2q19 0 32.5 9t24 9t10.5 -24q0 -4 -1 -22q-5 -54 -5 -124v-56l-3 -133v-298q0 -32 13 -49t28 -19t28 -5.5t13 -12t-4.5 -11t-18.5 -2.5l-96 5
q-26 0 -45.5 -2.5t-27 -2.5t-12.5 3.5t-5 9t9 10.5t20 9t20 20t9 43l2 525q0 71 -73 71q-72 0 -100 -109q-18 -66 -18 -112.5t5 -46.5q68 0 81 1.5t30 10.5t23.5 9t6.5 -9.5t-13.5 -29t-28.5 -19.5h-90q-16 0 -16 -14l-2 -209v-28q0 -40 10 -78q4 -16 31 -25l23.5 -4.5
t18.5 -17.5q0 -7 -11 -7l-76 6l-98 -8q-20 0 -20 16q0 9 17.5 13t21.5 9q14 16 14 55l-1 128v143q0 21 -19 21z" />
    <glyph glyph-name="f_f_i" unicode="ffi" horiz-adv-x="804" 
d="M151 4l-69 -8q-24 0 -24 12t25 18q9 3 17 16t8 35v285q0 11 -4 14t-15 3h-41q-20 0 -20 15t5.5 19.5t28.5 4.5h29q12 0 15.5 4.5t3.5 15.5q0 114 75.5 196t169.5 82q30 0 56.5 -11t41 -22.5t15.5 -11.5t20 16.5t52.5 33.5t69.5 17q77 0 77 -34q0 -16 -7.5 -42.5
t-18.5 -26.5q-6 0 -8.5 3t-6.5 9t-10 11q-37 28 -74 28q-120 0 -120 -258q0 -11 8 -11h41l127 3q27 0 47.5 13t28.5 13q12 0 12 -19q0 -3 -2 -29.5t-2 -76.5v-223q0 -35 13 -53t28 -19.5t28 -4.5t13 -12q0 -12 -21 -12l-76 3q-29 0 -56 -3t-42 -3t-15 8q0 11 18 17
q29 10 34.5 34t5.5 153v99l1 25q0 20 -10.5 35t-27.5 15l-60 -1l-79 -1q-7 0 -9.5 -1.5t-4.5 -13.5q-3 -18 -3 -95l2 -153q0 -45 9.5 -63.5t26.5 -23.5q7 -2 21 -4q27 -6 27 -13t-2 -9.5t-10 -2.5l-94 4q-13 0 -33.5 -3t-44.5 -3t-24 12q0 9 14 11.5t15.5 3.5t7 3.5t7.5 7
l5 11.5q6 11 6 44v269q0 15 -4.5 18t-13.5 3l-161 -2q-15 0 -15 -12v-244q0 -36 4.5 -50.5t13 -25.5t38.5 -19.5t30 -16.5q0 -4 -4 -8t-10 -4zM178 431q0 -10 13 -12t89 -2h84q11 0 11 21q0 52 10.5 91.5t21 59.5t10.5 24q0 14 -35 38t-57 24q-65 0 -106 -71t-41 -173z" />
    <glyph glyph-name="f_f_l" unicode="ffl" horiz-adv-x="808" 
d="M147 0l-68 -6q-24 0 -24 17q0 11 15 14q26 0 32 14q6 15 6 38v285q0 15 -19 15h-42q-19 0 -19 16.5t5.5 21t28.5 4.5h29q12 0 14.5 3.5t2.5 15.5q0 103 72.5 190.5t174.5 87.5q38 0 76 -20t40 -20t4 1.5t5.5 5t6.5 5.5q63 49 116 49l43 -1q13 0 25.5 9t24 9t11.5 -29
l-2 -145v-56l-2 -112l3 -229q0 -111 8 -128t27.5 -23t33.5 -8.5t14 -13.5q0 -8 -4.5 -10.5t-19.5 -2.5l-100 3l-74 -3q-16 0 -16 8.5t9 13t19.5 8t19.5 19.5t9 43l-3 550q0 48 -68 48q-82 0 -105 -107q-13 -64 -13 -112.5t5 -48.5l62 1q32 0 49.5 10.5t25.5 10.5q4 0 4 -11
t-11 -30.5t-22 -19.5l-98 1q-14 0 -16.5 -32.5t-2.5 -219.5q0 -95 46 -101q11 -2 15 -2.5t11.5 -3t10.5 -7t3 -11.5t-11 -7l-96 4l-84 -6q-19 0 -19 16q0 14 27 15q11 1 19.5 13.5t8.5 38.5v125l-1 168q0 8 -3 10t-12 2l-98 -2l-64 -1q-14 0 -14 -14v-117l1 -71v-56
q0 -56 15 -79q5 -8 37.5 -16.5t32.5 -16.5q0 -11 -14 -11l-68 1h-35zM179 433q0 -8 2.5 -11t9.5 -3h164q13 0 15.5 5t2.5 34t11 69.5t22 63t11 26.5q0 14 -38 36t-68 22t-61 -31q-71 -69 -71 -211z" />
    <glyph glyph-name="f_j" unicode="fj" horiz-adv-x="522" 
d="M94 375l-43 1q-14 0 -18 3t-4 11q0 26 22 26l41 -1q20 0 20 23q0 74 23.5 133t61.5 93q78 71 166 71q35 0 49 -12t14 -23.5t-8.5 -40.5t-17.5 -29q-3 0 -11 9.5t-15 14.5q-43 28 -79 28t-59 -25t-40 -85t-17 -137q0 -14 4.5 -17.5t25.5 -3.5h60q73 0 115.5 13t48.5 13
q11 0 11 -30l-6 -127v-248q0 -55 -10 -104t-41.5 -90t-75.5 -41t-44 27l-2 36q0 29 22 29q11 0 30.5 -21.5t27.5 -21.5t13 13q10 28 10 148v311q0 17 -2 27.5t-14.5 20t-35.5 9.5l-109 3q-26 0 -26 -13q-6 -165 -6 -180l1 -90q0 -36 13.5 -54t30 -19t30 -5t13.5 -16
q0 -9 -20 -9l-91 4l-75 -2q-17 0 -20.5 3t-3.5 9.5t13.5 9.5t27 14.5t13.5 41.5l1 137v147q0 11 -2 13.5t-12 2.5z" />
    <glyph glyph-name="f_f_j" unicode="ffj" horiz-adv-x="787" 
d="M151 3l-70 -7q-23 0 -23 12t25 18q9 3 17 16t8 35v285q0 11 -4 14t-15 3h-41q-20 0 -20 15t5.5 19.5t28.5 4.5h29q12 0 15.5 4.5t3.5 15.5q0 114 75.5 196t169.5 82q30 0 56.5 -11t41 -22.5t15.5 -11.5t20 16.5t52.5 33.5t69.5 17q77 0 77 -34q0 -18 -7.5 -42.5
t-16.5 -24.5q-5 0 -17 13q-33 36 -84 36q-120 0 -120 -258q0 -11 8 -11h41l127 3q27 0 47.5 13t28.5 13q12 0 12 -19l-4 -68v-324q0 -55 -10 -104t-41.5 -90t-75.5 -41t-44 27l-2 36q0 29 22 29q11 0 30.5 -21.5t26.5 -21.5q15 0 19 37.5t4 163.5l1 156v118q0 39 -16 47
t-81 8l-79 -1q-7 0 -9.5 -1.5t-4.5 -13.5q-3 -18 -3 -95l2 -153q0 -45 9.5 -63.5t26.5 -23.5q7 -2 21 -4q27 -6 27 -13t-2 -9.5t-10 -2.5l-102 3q-8 0 -27 -2.5t-43 -2.5t-24 12q0 9 15 12t18.5 5t10.5 8t8 23q3 51 3 114v188q0 15 -4.5 18t-13.5 3l-161 -2q-15 0 -15 -12
v-244q0 -36 4.5 -50.5t13 -25.5t38.5 -19.5t30 -16.5q0 -4 -4 -8t-10 -4zM220 417l144 1q11 0 11 20q0 52 10.5 91.5t21 59.5t10.5 24q0 14 -35 38t-57 24q-65 0 -106 -71t-41 -173q0 -9 8 -11.5t34 -2.5z" />
    <glyph glyph-name="f_b" unicode="fb" horiz-adv-x="836" 
d="M92 380l-41 -1q-23 0 -23 11q0 18 7.5 23.5t31.5 5.5l37 -1q8 0 8 15q0 73 24 133.5t60 95.5q76 72 140 72l46 -2q19 0 32.5 9t24 9t10.5 -24q0 -5 -0.5 -11.5t-1.5 -23t-1 -45.5q-2 -89 -2 -254q0 -17 5.5 -17t14.5 10.5t21.5 23t44 23t74.5 10.5q96 0 144.5 -63
t48.5 -144q0 -47 -24.5 -108.5t-66.5 -93.5q-58 -44 -139 -44q-41 0 -76 14.5t-52.5 29t-18.5 14.5q-4 0 -19.5 -32t-29.5 -32q-12 0 -12 13l4 82q0 33 4.5 118t4.5 146l1 272q0 71 -73 71q-72 0 -100 -109q-18 -66 -18 -112.5t5 -46.5l62 1q30 0 48.5 10t24.5 10t6 -9.5
t-13.5 -29t-28.5 -19.5h-90q-16 0 -16 -14l-2 -209v-28q0 -40 10 -78q4 -16 31 -25l23.5 -4.5t18.5 -17.5q0 -7 -11 -7l-76 6l-98 -8q-20 0 -20 16q0 9 17.5 13t21.5 9q14 16 14 55l-1 128v143q0 14 -3 17.5t-13 3.5zM444 132q0 -27 39.5 -67t107.5 -40t104.5 46.5
t36.5 119.5t-47.5 135t-128.5 62q-47 0 -79.5 -27t-32.5 -48v-181z" />
    <glyph glyph-name="f_f_b" unicode="ffb" horiz-adv-x="1095" 
d="M147 0l-68 -6q-24 0 -24 17q0 11 15 14q26 0 32 14q6 15 6 38v285q0 15 -19 15h-29q-20 0 -26 2.5t-6 16.5t5.5 18.5t28.5 4.5h29q12 0 14.5 3.5t2.5 15.5q0 103 72.5 190.5t174.5 87.5q38 0 76 -20t40 -20t4 1.5t5.5 5t6.5 5.5q63 49 116 49l43 -1q13 0 25.5 9t24 9
t11.5 -29v-2q-4 -34 -4 -312q0 -36 7 -36q4 0 12 10.5t19.5 23t44.5 23t82 10.5q89 0 138.5 -62t49.5 -145q0 -47 -24.5 -108.5t-66.5 -93.5q-58 -44 -139 -44q-41 0 -76 14.5t-52.5 29t-18.5 14.5q-4 0 -19.5 -32t-29.5 -32q-12 0 -12 13l4 82q0 33 4.5 118t4.5 146v165
l-2 132q0 48 -68 48q-82 0 -105 -107q-13 -64 -13 -112.5t5 -48.5l62 1q32 0 49.5 10.5t25.5 10.5q4 0 4 -11t-11 -30.5t-22 -19.5l-98 1q-14 0 -16.5 -32.5t-2.5 -219.5q0 -95 46 -101q11 -2 15 -2.5t11.5 -3t10.5 -7t3 -11.5t-11 -7l-96 4l-84 -6q-19 0 -19 16q0 14 27 15
q11 1 19.5 13.5t8.5 38.5v125l-1 167q0 8 -3 9.5t-12 1.5h-98l-64 -1q-14 0 -14 -14v-117l1 -71v-56q0 -56 15 -79q5 -8 37.5 -16.5t32.5 -16.5q0 -11 -14 -11l-68 1h-35zM179 433q0 -8 2.5 -11t9.5 -3h166q9 0 12.5 2.5t3.5 33t11 71.5t22 64t11 27q0 14 -38 36t-68 22
t-61 -31q-71 -69 -71 -211zM703 132q0 -27 39.5 -67t107.5 -40t104.5 46.5t36.5 119.5t-48 135t-129 62q-47 0 -79 -27t-32 -48v-181z" />
    <glyph glyph-name="f_h" unicode="fh" horiz-adv-x="864" 
d="M92 380l-41 -1q-23 0 -23 11q0 18 7.5 23.5t31.5 5.5l37 -1q8 0 8 15q0 73 24 133.5t60 95.5q76 72 140 72l46 -2q19 0 32.5 9t24 9t10.5 -24l-12 -346q0 -20 9 -20q2 0 20.5 18.5t50.5 37t69 18.5q81 0 126 -48t45 -149v-145q0 -18 8 -37t26 -21q53 -5 53 -21t-31 -16
l-84 5l-77 -3q-23 0 -23 10q0 18 27 18q10 0 18.5 11t8.5 34l1 26l1 140q0 61 -37 105.5t-85.5 44.5t-98.5 -39q-18 -14 -22.5 -45t-4.5 -140v-23q0 -46 7 -73q10 -39 54 -42q14 -1 21.5 -3.5t7.5 -10.5q0 -12 -11 -12l-52 2q-51 3 -54 3l-72 -5q-24 0 -25 3t-1 7
q0 10 12 13q28 8 36.5 25.5t8.5 51.5l4 341l1 49l-1 124q0 71 -73 71q-72 0 -100 -109q-18 -66 -18 -112.5t5 -46.5l62 1q30 0 48.5 10t24.5 10t6 -9.5t-13.5 -29t-28.5 -19.5h-90q-16 0 -16 -14l-2 -209v-28q0 -40 10 -78q4 -16 31 -25l23.5 -4.5t18.5 -17.5q0 -7 -11 -7
l-76 6l-98 -7q-20 0 -20 13q0 10 17.5 14.5t21.5 9.5q14 16 14 55l-1 128v143q0 14 -3 17.5t-13 3.5z" />
    <glyph glyph-name="f_f_h" unicode="ffh" horiz-adv-x="1126" 
d="M147 0l-64 -4q-20 0 -24 3.5t-4 9.5q0 11 15 14q26 0 32 15q6 17 6 39v285q0 15 -19 15h-42q-19 0 -19 16.5t5.5 21t28.5 4.5h29q12 0 14.5 3.5t2.5 15.5q0 103 72.5 190.5t174.5 87.5q38 0 76 -20t40 -20t4 1.5t5.5 5t6.5 5.5q63 49 116 49l43 -1q13 0 25.5 9t24 9
t11.5 -29v-26q0 -47 -2.5 -181.5t-5.5 -135.5q0 -22 9 -22q2 0 20.5 18.5t51 37t69.5 18.5q81 0 126 -48t45 -149v-145q0 -27 10 -42t23 -16q53 -5 53 -21t-31 -16l-83 5l-77 -3q-23 0 -23 10q0 18 26 18q10 0 18.5 11t8.5 34l1 26l1 140q0 61 -37 105.5t-87 44.5
q-36 0 -76 -24.5t-44 -56.5t-4 -143v-23q0 -46 7 -73q10 -39 54 -42q14 -1 21.5 -3.5t7.5 -10.5q0 -12 -11 -12l-26 1q-25 1 -51.5 2.5t-28.5 1.5l-71 -5q-25 0 -26 3t-1 7q0 10 12 13q28 8 36.5 25.5t8.5 51.5q2 292 2 377t-4 162q-2 48 -68 48q-82 0 -105 -107
q-13 -64 -13 -112.5t5 -48.5l62 1q30 0 50 11t23 11q6 0 6 -11t-10.5 -31t-22.5 -20l-98 1q-14 0 -16.5 -32.5t-2.5 -219.5q0 -95 46 -101q11 -2 15 -2.5t11.5 -3t10.5 -7t3 -11.5t-11 -7l-96 4l-84 -6q-19 0 -19 16q0 14 27 15q11 1 19.5 13.5t8.5 38.5v125l-1 168
q0 8 -3 10t-12 2l-98 -2l-64 -1q-14 0 -14 -14v-117l1 -71v-56q0 -56 15 -79q4 -7 37 -13.5t33 -19.5q0 -11 -14 -11l-68 1h-35zM179 433q0 -8 2.5 -11t9.5 -3h164q13 0 15.5 5t2.5 34t11 69.5t22 63t11 26.5q0 14 -38 36t-68 22t-61 -31q-71 -69 -71 -211z" />
    <glyph glyph-name="f_k" unicode="fk" horiz-adv-x="830" 
d="M89 380l-38 -1q-23 0 -23 11q0 20 7 24.5t31 4.5h32q8 0 11 3t3 12q0 73 24 133t60 95q74 72 140 72l46 -2q19 0 32.5 9t24 9t10.5 -24l-8 -442v-21q0 -42 5 -42t10 3t11.5 10t10.5 10q140 112 140 126t-22.5 23t-22.5 17q0 10 12 10l169 4q22 0 22 -8t-6.5 -11.5
t-17.5 -4.5q-31 -5 -57 -22.5t-78.5 -57.5t-65 -50.5t-12.5 -19.5t10 -22q88 -108 157 -168q27 -24 54.5 -31t39.5 -7t12 -9q0 -12 -8.5 -15t-32.5 -3l-104 2q-18 0 -75 65q-47 53 -110 132q-4 6 -13.5 6t-19 -15t-9.5 -31l1 -17q0 -72 8 -82q1 -1 9.5 -12.5t37.5 -17.5
t29 -15q0 -13 -31 -13l-87 3l-70 -4q-24 0 -24 12q0 8 23.5 16t27.5 24q6 27 6 69l1 44l1 423l1 36q0 65 -71 65q-74 0 -102 -109q-18 -66 -18 -112.5t5 -46.5q68 0 81 1.5t30 10.5t23.5 9t6.5 -9.5t-13.5 -29t-28.5 -19.5h-90q-16 0 -16 -14l-2 -209v-28q0 -80 24 -93
q9 -6 22.5 -9t14.5 -3l6 -1q16 -3 16 -19q0 -7 -11 -7l-76 4l-98 -6q-20 0 -20 16q0 9 17.5 13t21.5 9q14 16 14 55l-1 128v143q0 21 -19 21z" />
    <glyph glyph-name="f_f_k" unicode="ffk" horiz-adv-x="1090" 
d="M147 0l-68 -6q-24 0 -24 17q0 11 15 14q26 0 32 14q6 15 6 38v285q0 15 -19 15h-42q-19 0 -19 16.5t5.5 21t28.5 4.5h29q12 0 14.5 3.5t2.5 15.5q0 103 72.5 190.5t174.5 87.5q38 0 76 -20t40 -20t4 1.5t5.5 5t6.5 5.5q63 49 116 49l43 -1q13 0 25.5 9t24 9t11.5 -29
l-2 -237l-3 -205v-21q0 -42 4 -42q9 0 18.5 10t13.5 13q140 112 140 126t-22.5 23t-22.5 17q0 10 12 10l161 4q30 0 30 -8t-6 -11t-16 -4q-33 -5 -74 -33q-3 -2 -6.5 -5t-13 -10l-22.5 -17l-48 -36.5t-43 -33.5t-8 -15t11 -23q91 -111 156 -168q27 -24 54.5 -31t39.5 -7
t12 -9q0 -12 -8.5 -14.5t-32.5 -2.5l-104 1q-25 0 -157 163q-26 32 -29 36t-11.5 4t-18.5 -14t-10 -32l1 -17q2 -32 2 -47t0.5 -21.5t2.5 -9.5q14 -24 35.5 -29.5l34.5 -9t13 -10.5q0 -16 -26 -16l-97 6l-70 -4q-24 0 -24 12q0 9 13 13q4 2 7.5 2t16 8.5t16.5 25.5
q6 22 6 556q0 44 -14.5 59.5t-52.5 15.5t-62 -19q-33 -25 -46.5 -88.5t-13.5 -112t5 -48.5l62 1q32 0 49.5 10.5t25.5 10.5q4 0 4 -11t-11 -30.5t-22 -19.5l-98 1q-14 0 -16.5 -32.5t-2.5 -219.5q0 -95 46 -101q11 -2 15 -2.5t11.5 -3t10.5 -7t3 -11.5t-11 -7l-96 4l-84 -6
q-19 0 -19 16q0 14 27 15q11 1 19.5 13.5t8.5 38.5v125l-1 168q0 8 -3 10t-12 2l-98 -2l-64 -1q-14 0 -14 -14v-117l1 -71v-56q0 -56 15 -79q5 -8 37.5 -16.5t32.5 -16.5q0 -11 -14 -11l-68 1h-35zM179 433q0 -8 2.5 -11t9.5 -3h164q13 0 15.5 5t2.5 34t11 69.5t22 63
t11 26.5q0 14 -38 36t-68 22t-61 -31q-71 -69 -71 -211z" />
    <glyph glyph-name=".notdef" horiz-adv-x="396" 
d="M23 -64v774h334v-774h-334zM178 205l-5 46q0 35 22 79t48 78t48 76t22 75q0 54 -40 84t-87 30t-79 -22t-32 -39q0 -9 9 -9q1 0 19 12.5t40.5 12.5t54.5 -20.5t32 -55t-46 -138.5t-46 -133.5t8.5 -57.5t23.5 -28q8 0 8 10zM133 100q-36 -31 -36 -40t15 -21t21 -19
t18.5 -18t18.5 -11t12 5.5t13.5 15.5t11 13.5t13.5 10.5q21 13 21 26q0 8 -24 27l-10 8l-7 10q-20 25 -27 25t-13.5 -5t-14.5 -14.5t-12 -12.5z" />
    <glyph glyph-name=".null" horiz-adv-x="0" 
 />
    <glyph glyph-name="nonmarkingreturn" horiz-adv-x="333" 
 />
    <glyph glyph-name="space" unicode=" " horiz-adv-x="213" 
 />
    <glyph glyph-name="exclam" unicode="!" horiz-adv-x="276" 
d="M74 47.5q-6 7.5 -6 15t16.5 21.5t25.5 25q18 24 32 24q6 0 14 -8.5l14 -15t17.5 -15.5l16.5 -13q14 -10 14 -18.5t-6.5 -15.5t-17.5 -14.5t-14.5 -11t-10.5 -13.5t-13.5 -15.5t-12.5 -5.5t-20 11.5t-19.5 19t-14.5 15t-15 15zM98 651q0 38 49 38q24 0 35 -7t11 -25
q0 -5 -2 -17.5t-4.5 -34t-10.5 -149t-23 -246.5q-2 -11 -14 -11t-12 9q-15 176 -17 215q-2 67 -7 138.5t-5 89.5z" />
    <glyph glyph-name="quotedbl" unicode="&#x22;" horiz-adv-x="459" 
d="M262 628q-11 9 -11 18t27 36q2 2 10 12q15 19 26 19t25.5 -10t30.5 -37.5t16 -67t-14 -75.5t-34 -55q-40 -41 -61 -41q-5 0 -9 4.5t-4 9t9 12l19 16t19 27.5t9 45.5t-11 45t-23.5 25.5t-23.5 16zM67 628q-11 9 -11 18t27 36q2 2 11 12q14 19 29 19q9 0 23 -12.5t23 -24.5
q21 -28 21 -72.5t-14 -80.5t-33 -55q-39 -41 -61 -41q-5 0 -9 4.5t-4 9t8.5 12t19.5 16t19.5 27.5t8.5 45.5t-11 45t-23.5 25.5t-23.5 16z" />
    <glyph glyph-name="numbersign" unicode="#" horiz-adv-x="533" 
d="M128 -53l23 167q0 7 -8 7h-70q-14 0 -14 18v3q0 12 2 16.5t12 4.5h82q3 0 3 2l19 135q0 5 -7 5h-95q-9 0 -12.5 3.5t-3.5 21t16 17.5h102q9 0 9 7q14 100 19.5 143.5t8.5 48t21.5 4.5t18.5 -12l-26 -186q0 -5 6 -5h98q8 0 9 7q26 188 29 192t20.5 4t17.5 -10l-25 -188
q0 -5 5 -5h69q18 0 18 -21t-15 -21h-81q-3 0 -5 -6q-18 -129 -18 -132.5t7 -3.5h95q11 0 14 -5.5t3 -14.5q0 -22 -17 -22h-98q-9 0 -11 -10l-13 -94.5t-12 -71t-22 -11.5t-18 13l23 168q0 6 -7 6h-66q-35 0 -37.5 -2.5t-3.5 -5.5q-22 -166 -25.5 -172.5t-21.5 -6.5t-18 13z
M219 298q-18 -129 -18 -132t8 -3h95q9 0 10 7q4 34 9 65.5t7 42.5q2 17 2 22t-6 5h-98q-7 0 -9 -7z" />
    <glyph glyph-name="dollar" unicode="$" horiz-adv-x="533" 
d="M249 -129l3 98q0 19 -6 19q-47 0 -98 22.5t-73 49.5q-11 13 -11 27.5t2 28.5q5 50 21 50q10 0 15.5 -6.5t16 -29l15.5 -32.5q16 -29 49 -50t61 -21q10 0 10 15l3 282q0 14 -47.5 29t-85 52t-37.5 108t49 121t116 59q7 1 10 5t3 18l-1 27q0 23 22 23q15 0 18.5 -4t3.5 -15
v-21l-1 -23q0 -9 5 -9q84 -10 126 -58q19 -20 19 -32t-10.5 -36.5t-19.5 -24.5t-13 11q-17 37 -46 67.5t-56 30.5q-9 0 -9 -19q0 -84 -2.5 -130t-2.5 -64t2 -23t11 -7q90 -25 133.5 -73t43.5 -128q0 -50 -16.5 -90t-44.5 -64q-54 -46 -121 -63q-12 -3 -13 -7t-1 -10v-82
q0 -27 -4.5 -34.5t-17.5 -7.5q-21 0 -21 21zM262 445l1 196q0 12 -11 12q-27 0 -66.5 -30.5t-39.5 -83.5q0 -84 105 -111h2q9 0 9 17zM297 306l-4 -266q0 -13 6 -13t17 2t31.5 12t37.5 25.5t30 46.5t13 67t-12.5 61t-30 39t-36.5 24q-33 16 -45 16q-7 0 -7 -14z" />
    <glyph glyph-name="percent" unicode="%" horiz-adv-x="771" 
d="M361 494q-1 0 0 -7.5t1 -38.5q0 -74 -52.5 -151t-140.5 -77q-35 0 -72.5 32.5t-37.5 91.5q0 81 57.5 157t141.5 76q32 0 56.5 -17.5l46.5 -34.5t44 -17t45 8.5t41.5 18.5t42.5 29q29 23 66 56l19 18q8 8 17.5 8t9.5 -8.5t-8 -21.5l-435 -663q-26 -40 -31.5 -42t-13.5 -2
t-18.5 8t-10.5 18t18 36l22 32l165 237l106 150q96 130 96 134t-2.5 4t-21.5 -11q-55 -33 -102 -33q-18 0 -33 5t-16 5zM162.5 491.5q-31.5 -56.5 -31.5 -119.5t16 -94t44 -31q48 0 77 66t29 143q0 40 -13 66t-34 26q-56 0 -87.5 -56.5zM386 64q0 85 55 157t143 72
q54 0 81 -34t27 -89q0 -87 -55 -167.5t-130 -80.5q-59 0 -90 40.5t-31 101.5zM488.5 203.5q-31.5 -58.5 -31.5 -122t16 -95.5t44 -32q45 0 77 68t32 143q0 40 -14.5 68.5t-35.5 28.5q-56 0 -87.5 -58.5z" />
    <glyph glyph-name="ampersand" unicode="&#x26;" horiz-adv-x="947" 
d="M893 25l36 3q13 0 13 -9q0 -16 -28.5 -27t-68 -11t-75.5 10.5t-61 25t-44 29.5t-30.5 25.5t-14.5 10.5t-14.5 -10.5t-30.5 -26t-46 -31.5q-64 -36 -171 -36q-71 0 -128 20.5t-90.5 47.5t-57 78t-23.5 118q0 34 11.5 70.5t32 62t51 41.5t49 20t18.5 6.5t-12 17t-24 44
t-12 67.5q0 66 58 99.5t130 33.5q35 0 66 -11.5t35 -11.5l22 3q16 0 16 -23l4 -68q0 -29 -1.5 -35t-8.5 -6t-22 18l-32 39.5t-45.5 39.5t-67 18t-61.5 -24.5t-23 -51t27.5 -66t56 -69.5l92 -93.5t133.5 -123.5t77.5 -60t13.5 9q14 19 14 65.5t-10.5 69t-18.5 28t-21.5 12
t-24 7.5t-15.5 3.5t-5 10t4.5 9.5t20.5 2l149 -2q19 0 19 -13q0 -11 -19 -16q-7 -2 -13.5 -12t-7.5 -25t-3 -30q-6 -63 -16.5 -89t-18 -41t-7.5 -18q0 -9 59.5 -46.5t120.5 -67.5q20 -10 43 -10zM192 128q32 -36 90 -59.5t115.5 -23.5t99 14.5t62.5 29t21 20.5q0 4 -26 23.5
t-86 70.5t-98 89l-81 81t-33.5 34t-7.5 7l-6 4q-3 3 -8 3q-33 0 -71 -42t-38 -109t67 -142z" />
    <glyph glyph-name="quotesingle" unicode="'" horiz-adv-x="264" 
d="M67 628q-11 9 -11 18t27 36q2 2 11 12q14 19 29 19q9 0 23 -12.5t23 -24.5q21 -28 21 -72.5t-14 -80.5t-33 -55q-39 -41 -61 -41q-5 0 -9 4.5t-4 9t8.5 12t19.5 16t19.5 27.5t8.5 45.5t-11 45t-23.5 25.5t-23.5 16z" />
    <glyph glyph-name="parenleft" unicode="(" horiz-adv-x="326" 
d="M92.5 120.5q-19.5 78.5 -19.5 162.5t21 167t51 139t62.5 99t56 63.5t31.5 20.5q21 0 21 -21q0 -6 -20.5 -26t-49.5 -55t-58 -84t-49.5 -130.5t-20.5 -174.5t20 -171.5t48.5 -129t57.5 -88t49 -59.5t20 -29.5t-7 -12.5t-15.5 -5t-33 24t-56 70t-60.5 104t-48.5 136.5z" />
    <glyph glyph-name="parenright" unicode=")" horiz-adv-x="326" 
d="M10 -192q0 6 20.5 26t49.5 54.5t58 83.5t49.5 130.5t20.5 174.5t-20 171.5t-48.5 129t-57.5 88t-49 59.5t-20 29.5t7 12.5t15.5 5t33 -24t56 -70t60.5 -104t48.5 -136.5t19.5 -162.5t-21 -167t-51 -139t-62.5 -99t-56 -63.5t-31.5 -20.5q-21 0 -21 22z" />
    <glyph glyph-name="asterisk" unicode="*" horiz-adv-x="431" 
d="M184 306l3 72q0 23 -4.5 23t-45 -26.5t-50 -26.5t-19 13t-9.5 22q0 13 54 37t54 27.5t-54 28.5t-54 37q0 9 9.5 22t20.5 13t50 -26.5t43.5 -26.5t4.5 19l-3 79q0 13 5 17t25 4t26.5 -6t6.5 -30l-4 -65q0 -18 5 -18t45.5 27t49.5 27t19.5 -12.5t10.5 -23.5t-54.5 -36
t-54.5 -29.5t54.5 -28.5t54.5 -35t-10 -23.5t-21.5 -12.5t-50.5 26.5t-43 26.5t-4 -19l3 -58q0 -29 -5.5 -35.5t-31.5 -6.5t-26 24z" />
    <glyph glyph-name="plus" unicode="+" horiz-adv-x="527" 
d="M32 198q-1 3 -1 12.5t1 13.5q1 8 17 8h170q22 0 22 19v176q0 13 9 15h12h13q11 -2 11 -20v-163q0 -27 17 -27h177q14 0 16 -8v-15.5t-3 -16t-18 -4.5h-172q-12 0 -14.5 -3.5t-2.5 -14.5v-175q0 -11 -5 -14t-18 -3t-17.5 2.5t-4.5 15.5v174q0 12 -4.5 15t-19.5 3h-169
q-15 0 -16 10z" />
    <glyph glyph-name="comma" unicode="," horiz-adv-x="250" 
d="M56 44.5q-2 2.5 -2 8.5t3 11t6.5 8.5l10.5 10l10.5 10t8.5 10.5t9 11q11 11 20.5 11t24.5 -12t32 -43t17 -70q0 -63 -44.5 -114.5t-71.5 -51.5q-15 0 -15 13q0 10 31 35q12 9 21.5 27.5t9.5 40.5t-9 37.5t-16.5 22t-25.5 19.5t-20 15.5z" />
    <glyph glyph-name="hyphen" unicode="-" horiz-adv-x="340" 
d="M44 145v11q0 29 9.5 37t55 21.5t86.5 28t55.5 20t23.5 5.5q22 0 22 -34v-6q0 -23 -10 -31q-9 -6 -23 -10q-59 -16 -103 -32t-56 -21q-30 -10 -45 -10t-15 21z" />
    <glyph glyph-name="period" unicode="." horiz-adv-x="252" 
d="M54 55q0 12 31 39q4 4 11.5 14t15 15.5t15.5 5.5t41 -39q3 -3 12 -10q18 -17 18 -23.5t-5 -12t-15 -13.5l-15 -12q-4 -4 -11 -14q-16 -21 -26 -21t-24 17.5t-17 19.5q-31 22 -31 34z" />
    <glyph glyph-name="slash" unicode="/" horiz-adv-x="416" 
d="M20 -170q0 2 19 57q305 823 308 832t8.5 12.5t23 3.5t17.5 -12q0 -8 -14 -44l-304 -831q-8 -22 -13.5 -26.5t-25 -4.5t-19.5 13z" />
    <glyph glyph-name="zero" unicode="0" horiz-adv-x="529" 
d="M98.5 52q-59.5 67 -59.5 164t67 154t159 57t158.5 -56.5t66.5 -164.5q0 -90 -58 -155.5t-166 -65.5t-167.5 67zM143 332.5q-48 -43.5 -48 -125t53 -125t122 -43.5t118 48t49 124.5t-53.5 120.5t-123 44t-117.5 -43.5z" />
    <glyph glyph-name="one" unicode="1" horiz-adv-x="340" 
d="M164 1l-116 -5q-28 0 -28 16t45 19q17 1 32.5 9.5t18.5 25.5q9 54 9 103v80l1 51q0 62 -13.5 76t-66.5 17q-18 0 -18 15q0 11 21 11q2 0 29 -3t77 -3t78.5 2.5t38 2.5t15.5 -5t6 -10.5t-3.5 -9t-7.5 -4.5t-11.5 -1.5t-11.5 -1.5t-16 -2.5t-15.5 -2.5t-11 -6.5t-9.5 -14.5
q-7 -34 -7 -69l-3 -165v-23q0 -26 4 -42q6 -18 35.5 -25.5t56.5 -11.5t27 -14t-6 -12t-22 -2z" />
    <glyph glyph-name="two" unicode="2" horiz-adv-x="468" 
d="M193 -1l-137 -1q-27 0 -27 10q0 6 5.5 10t22.5 11t32 16q112 67 164 133t52 114t-33.5 74t-66.5 26q-59 0 -59 -46q0 -11 8 -32t8 -27q0 -10 -19 -10t-41.5 11.5t-22.5 24t8 29.5t25 36.5t53 32.5t89.5 13t91 -28t37.5 -75.5t-39.5 -98.5t-95 -96.5t-55.5 -53.5t73 -8
t115 13q16 5 33.5 27.5t21.5 22.5q12 0 12 -11q0 -3 -25 -50.5t-28 -51.5q-15 -17 -21 -18z" />
    <glyph glyph-name="three" unicode="3" horiz-adv-x="404" 
d="M39 -136q0 32 18 32q4 0 15 -13t34 -25.5t56 -12.5q59 0 99 48.5t40 99.5t-41 83t-107 32q-22 0 -33.5 -2.5t-12.5 -2.5q-13 0 -13 11q0 8 6.5 11.5t13.5 6.5q17 8 52 33q84 59 84 131q0 31 -27.5 55.5t-62 24.5t-55 -16t-26.5 -16q-11 0 -11 10q0 17 40 43.5t87.5 26.5
t87 -21.5t39.5 -71.5q0 -29 -17.5 -58.5t-38 -48.5l-38 -34t-17.5 -19q0 -1 11 -3q38 -5 64 -18q72 -36 72 -113.5t-71 -159t-159 -81.5t-88 36v20z" />
    <glyph glyph-name="four" unicode="4" horiz-adv-x="504" 
d="M141 -2l-103 1q-20 0 -24 4t-4 12.5t8.5 19.5t91.5 101l147.5 163l71 80.5l11 13t10.5 11.5q15 13 21 13q11 0 11 -24l-13 -312q0 -14 21 -14t36 3.5t19 7.5q10 12 17 12q13 0 13 -13q0 -11 -7.5 -28l-9 -20.5t-3.5 -9t-3.5 -9t-3.5 -7.5q-6 -8 -13 -8l-55 1
q-9 0 -11.5 -4t-2.5 -15l3 -106l1 -26q0 -19 -16 -24q-26 -7 -44.5 -7t-18.5 14q0 4 1.5 9.5t2.5 14.5q4 38 4 132q0 16 -9 16zM178 64l79 -1q27 0 36 1.5t9 8.5q3 142 3 182.5t-5 40.5t-33 -29.5t-42.5 -47.5t-48.5 -55q-73 -80 -73 -88q0 -12 38 -12h37z" />
    <glyph glyph-name="five" unicode="5" horiz-adv-x="342" 
d="M125 413l74 -2h27.5t20.5 0.5t12.5 1t8 1t5.5 2t3 2t3 3.5t4.5 5.5t7 8.5t7.5 9q6 8 11 8q13 0 13 -11q0 -5 -6 -17.5t-13 -29t-10 -24.5l-5.5 -14.5t-5.5 -7.5q-5 -4 -15 -4q-159 -1 -162 -10q-15 -35 -15 -45t24 -17q88 -24 127 -66q13 -14 28 -47.5t15 -74.5
q0 -85 -46 -162q-75 -127 -214 -127q-27 0 -57 17q-6 4 -10 27.5t-4 33.5q0 28 12 28q8 0 21 -15q42 -48 97 -48t95.5 64t40.5 141q0 47 -12.5 75.5t-43 50t-54 29.5t-37.5 10q-33 3 -33 21q0 10 4 19q24 50 51 141q7 24 31 24z" />
    <glyph glyph-name="six" unicode="6" horiz-adv-x="497" 
d="M44 255q0 114 64.5 217t155.5 166q37 26 80.5 41t62.5 15t19 -13t-10 -14q-44 -6 -75 -22t-74 -52.5t-75.5 -91.5t-43.5 -87t-11 -37.5t2 -5.5t16.5 13.5t43 27t65.5 13.5q87 0 138 -59t51 -156t-53.5 -163.5t-139.5 -66.5t-157 73q-59 62 -59 202zM129 318.5
q-4 -20.5 -4 -73t14.5 -103.5t37.5 -78q44 -52 90.5 -52t83.5 41t37 116q0 58 -37 130q-18 35 -52 59t-72.5 24t-81.5 -31q-7 -6 -9.5 -9t-6.5 -23.5z" />
    <glyph glyph-name="seven" unicode="7" horiz-adv-x="501" 
d="M97 -188l-52 2q-22 0 -22 11q0 15 186.5 257t186.5 253t-61 11h-78q-126 0 -159 -23q-18 -12 -22 -30q-2 -9 -12.5 -9t-10.5 11t8.5 49.5t8.5 53.5q1 14 44 14l195 -4q113 0 130.5 5.5t23 8t8.5 2.5q11 0 11 -10t-33 -60l-267 -394q-53 -78 -69 -130q-4 -14 -7.5 -16
t-8.5 -2z" />
    <glyph glyph-name="eight" unicode="8" horiz-adv-x="500" 
d="M64 75.5q-25 46.5 -25 95t13.5 79.5t33 48t39 28t33 16.5t13.5 7.5t-17.5 14t-38.5 28t-38.5 48t-17.5 70q0 77 51.5 127t134 50t129.5 -45.5t47 -117.5q0 -66 -33 -102q-21 -24 -41 -36.5t-20 -14.5q0 -4 21 -17t46 -30.5t46 -54t21 -81.5q0 -82 -52 -146t-153 -64
q-79 0 -123 25.5t-69 72zM83 180q0 -75 47.5 -123t120.5 -48t110 44.5t37 103t-69 117t-102 58.5q-25 0 -52.5 -12.5t-46 -28t-32 -44.5t-13.5 -67zM157.5 623q-40.5 -33 -40.5 -87t67 -99t96 -45t66.5 37.5t37.5 97.5q0 40 -36.5 84.5t-93 44.5t-97 -33z" />
    <glyph glyph-name="nine" unicode="9" horiz-adv-x="486" 
d="M87.5 47q-48.5 58 -48.5 143.5t56 158.5t150 73t148 -71t54 -171t-45 -191t-134 -152q-60 -42 -154 -42q-19 0 -19 17q0 14 26 14q60 0 131 60q38 32 64 76t26 63q0 2 -1.5 2t-13 -9.5t-37.5 -19t-63 -9.5q-91 0 -139.5 58zM142.5 347.5q-33.5 -38.5 -33.5 -110.5
t45 -137.5t109 -65.5q36 0 69 22q42 27 42 118t-47.5 151.5t-106.5 60.5q-44 0 -77.5 -38.5z" />
    <glyph glyph-name="colon" unicode=":" horiz-adv-x="260" 
d="M89 21q-30 21 -30 31.5t35 41.5q3 3 12 13q16 20 30 20q4 0 9.5 -6t9 -9.5t8.5 -10.5t8.5 -10.5t12.5 -10.5q18 -17 18 -23.5t-5 -12t-15 -13.5l-15 -12q-4 -4 -11 -14q-15 -21 -24 -21t-16 7t-14.5 16.5t-12.5 13.5zM96 373q4 4 10.5 13t13 14.5t14.5 5.5t36 -37
q2 -3 10 -9q16 -15 16 -22t-3 -11.5t-7 -7.5l-10 -9q-12 -10 -19.5 -20.5t-13.5 -16t-13 -5.5t-13.5 6.5t-12 16t-9 13t-10 9t-9.5 9.5q-10 9 -10 17t30 34z" />
    <glyph glyph-name="semicolon" unicode=";" horiz-adv-x="262" 
d="M90 379q4 4 10 13q14 21 28 21q8 0 37 -38q3 -3 11 -9q17 -16 17 -23t-3 -11.5t-6 -7.5l-11 -9l-10.5 -9t-10.5 -12.5t-13.5 -15t-13.5 -5.5t-13.5 6.5t-12.5 16.5t-9.5 13.5t-10 9t-10.5 9.5q-10 8 -10 16t31 35zM79 33q-17 18 -17.5 22.5t3.5 10t14.5 15t13.5 12.5
t10 13q13 19 31 19q7 0 22 -14.5t24 -28.5q24 -35 24 -90t-46 -107.5t-73 -52.5q-3 0 -7.5 4.5t-4.5 11t15 18.5q46 39 46 86q0 26 -13 42.5t-42 38.5z" />
    <glyph glyph-name="less" unicode="&#x3c;" horiz-adv-x="527" 
d="M43 196q-2 4 -2 12.5t1 11.5q1 5 14 11l374.5 136.5t37.5 13.5q19 0 19 -25q0 -12 -16 -16l-305 -111q-42 -15 -42 -21q0 -3 42 -18l310 -112q11 -4 11 -12.5t-6 -16.5t-18 -8q-3 0 -408 147q-10 4 -12 8z" />
    <glyph glyph-name="equal" unicode="=" horiz-adv-x="527" 
d="M32 100q-1 3 -1 12.5t1 13.5q1 9 17 9h431q14 0 16 -9v-15t-3 -16.5t-18 -4.5h-427q-15 0 -16 10zM32 296q-1 3 -1 12.5t1 13.5q1 8 17 8h431q14 0 16 -8v-15.5t-3 -16t-18 -4.5h-427q-15 0 -16 10z" />
    <glyph glyph-name="greater" unicode="&#x3e;" horiz-adv-x="527" 
d="M46.5 49q-5.5 8 -5.5 17t10 12l311 112q42 15 42 18q0 6 -42 21l-306 111q-15 4 -15 16q0 25 18 25q3 0 102.5 -37l309.5 -113q16 -6 16 -18.5t-2.5 -16.5t-12.5 -8q-405 -147 -408 -147q-12 0 -17.5 8z" />
    <glyph glyph-name="question" unicode="?" horiz-adv-x="350" 
d="M173 251l5 -46q0 -10 -8 -10q-15 0 -23.5 28t-8.5 57.5t46 133.5t46 138.5t-32 55t-54.5 20.5t-40.5 -12.5t-19 -12.5q-9 0 -9 9q0 17 32 39t79 22t87 -30t40 -84q0 -33 -22 -75t-48 -76t-48 -78t-22 -79zM112 39q-15 12 -15 21t36 40q4 3 12 12q16 20 24 20q11 0 31 -25
l7 -10l10 -8q24 -19 24 -27t-5.5 -14t-15.5 -12.5t-13.5 -10t-11 -13.5t-13.5 -15.5t-12 -5.5t-18.5 11t-18.5 18t-21 19z" />
    <glyph glyph-name="at" unicode="@" horiz-adv-x="821" 
d="M44 286q0 96 32.5 172t80 119.5t107.5 72.5q100 47 199 47q139 0 226.5 -88.5t87.5 -216.5q0 -109 -68.5 -186t-159.5 -77q-32 0 -51 12.5t-23 27.5t-6 27.5t-4 12.5t-15.5 -15.5t-31.5 -33.5t-47.5 -33.5t-68.5 -15.5t-62 26.5t-23 77t31.5 115.5t86.5 111.5t113 46.5
q19 0 44.5 -4.5t27.5 -4.5q7 0 19 20t23 20q8 0 8 -11.5t-12 -59.5q-37 -150 -37 -202v-13q0 -59 41 -59q76 0 125 57.5t49 173t-78 185t-194 69.5q-151 0 -255.5 -100.5t-104.5 -261.5q0 -142 88.5 -233t230.5 -91q63 0 114 16.5t77 32.5t27 16q11 0 11 -12q0 -14 -44 -40
q-89 -50 -203 -50q-160 0 -260.5 93t-100.5 257zM284 227q0 -30 17.5 -45t45 -15t54.5 17t38 33.5t37 115.5t26 104t-22 12t-40 7q-49 0 -102.5 -64.5t-53.5 -164.5z" />
    <glyph glyph-name="A" unicode="A" horiz-adv-x="812" 
d="M135 0l-86 -4q-29 0 -29 12q0 14 15 19q32 12 56 53.5t120.5 251l171.5 369.5q7 15 12.5 19t16 4t13.5 -4t11 -27l12.5 -35l14.5 -39t32 -81l100.5 -236.5t90.5 -207t33 -42t36.5 -19t26 -5t10.5 -15.5q0 -15 -27 -15l-90 6l-93 -4q-31 0 -39.5 2.5t-8.5 10.5t8 12.5
t17 6t17 9t8 25t-25 85.5t-42 100q-9 17 -41 17l-121 -2h-53q-45 0 -56.5 -5t-19 -21l-21.5 -44.5t-19 -39.5t-12 -28q-13 -30 -13 -50t11.5 -32t25.5 -14q37 -3 37 -19q0 -7 -3 -10.5t-14 -3.5zM319 459.5q-48 -110.5 -48 -122.5t9 -15t42 -3h31l95 1q39 0 39 14.5t-49 125
t-62 110.5q-9 0 -57 -110.5z" />
    <glyph glyph-name="B" unicode="B" horiz-adv-x="630" 
d="M54 28l23 1q21 0 35 35q9 23 11 73t2 297v170q0 16 -10 36q-20 42 -78 42q-17 0 -17 12q0 15 9 15l40 -1l146 1l110 3q91 0 152 -43.5t61 -123.5q0 -86 -90 -141q-10 -7 -10 -8q0 -3 17 -7.5t41 -15t47.5 -28.5t40.5 -53.5t17 -81t-25 -94.5t-64 -76t-77 -37.5t-85 -10.5
t-113 5.5t-73 5.5l-86 -4h-14q-21 0 -21 14.5t11 14.5zM202 136l-1 -44q0 -60 98 -60h23q54 0 93.5 6.5t70 47.5t30.5 94t-18 88.5t-41 53.5t-55 28q-44 14 -82 14l-78 1l-15 1q-9 0 -13 -2.5t-8 -19.5q-4 -21 -4 -140v-68zM207 545q0 -126 7 -140q4 -7 57 -7h64
q63 0 94.5 33t31.5 87t-52.5 106.5t-149.5 52.5q-31 0 -41.5 -18.5t-10.5 -84.5v-29z" />
    <glyph glyph-name="C" unicode="C" horiz-adv-x="807" 
d="M86 520q42 87 129.5 140.5t207.5 53.5q61 0 123 -18t99 -36l37 -19q3 0 10 5t11.5 5t9.5 -4t5.5 -22.5t4 -51t6.5 -53.5t3 -25q0 -18 -12 -18q-9 0 -17 14q-97 182 -280 182q-125 0 -205 -80t-80 -209q0 -144 74 -246q38 -52 104 -82t154 -30q144 0 242 150q4 7 15 7
q9 0 9 -12.5t-3.5 -31t-8.5 -41t-6 -27.5q-2 -11 -16 -18q-54 -26 -84 -39q-80 -34 -170.5 -34t-160.5 21t-114.5 55t-74.5 80q-54 81 -54 189t42 195z" />
    <glyph glyph-name="D" unicode="D" horiz-adv-x="792" 
d="M114 369l-1 254q0 17 -16.5 34.5t-33.5 18.5t-23.5 2t-13 6.5t-6.5 15t8.5 11t42.5 1.5h87l195 4q145 0 265 -82q58 -39 94 -102.5t36 -137.5t-9.5 -125.5t-31.5 -89t-44 -61t-56 -51.5t-91 -49t-117 -21l-240 5q-35 0 -65 -2.5t-35 -2.5q-24 0 -24 13q0 8 3.5 11.5
t15 6.5t16.5 5q16 7 29.5 26.5t13.5 38.5zM198 354l-1 -213q0 -47 10 -67q5 -9 19 -13l32 -9l41.5 -11.5t61.5 -6.5h20q68 0 116 19.5t92 61.5q74 71 74 230q0 80 -31.5 145t-82.5 104q-105 79 -229 79h-40q-48 0 -64 -17q-8 -8 -9.5 -14t-4 -23.5t-2.5 -30.5v-42z" />
    <glyph glyph-name="E" unicode="E" horiz-adv-x="604" 
d="M116 355l3 173q0 27 -2 91q-1 29 -25 45t-56 17q-16 0 -16 18q0 14 28 14l27 -2l244 -5l200 4q19 0 19 -23q0 -6 -6 -39.5t-6 -52.5q0 -32 -15.5 -32t-15.5 24t-17 46t-42 23q-90 7 -138 7h-26q-52 0 -60 -7q-15 -13 -15 -221q0 -50 19 -51h98q60 0 80 4q52 10 59 52
q3 17 13 17t12 -3t2 -13l-8 -105l3 -61q0 -25 -7 -25q-15 0 -22 24q-14 42 -25 49q-21 14 -73 14h-72l-32 1h-7q-41 0 -41 -19l-2 -144v-40q0 -72 24.5 -79.5t42.5 -7.5q150 0 217 24q59 22 72 46q12 25 22 25q12 0 12 -17q0 -43 -43 -87t-75 -44q-72 0 -162.5 5t-112.5 5
l-136 -9q-21 0 -21 10v12q0 6 10 8q11 1 34 12t30.5 46t7.5 147v124z" />
    <glyph glyph-name="F" unicode="F" horiz-adv-x="554" 
d="M20 697q0 7 8 12t18 5h27q24 0 77.5 -3t139.5 -3l227 5q17 0 17 -24q0 -13 -6 -47t-8 -54.5t-15.5 -20.5t-13.5 20q0 66 -46 69q-151 12 -188 12t-47.5 -11t-11.5 -45v-8q-3 -54 -3 -167q0 -49 18 -50l25 -1l43 1h31q60 0 79.5 3.5t32 12t17.5 16.5t7 19t5 16t12 5t11 -3
t2 -11.5t-4.5 -36.5t-4.5 -48l7 -82q0 -16 -3.5 -20.5t-10.5 -4.5q-17 0 -21 25q0 22 -5 31q-10 14 -20.5 18.5t-46.5 8.5t-47 4h-87q-41 0 -41 -19l-2 -144l-1 -40q0 -20 4 -40t23.5 -42t51 -22t31.5 -18q0 -9 -9.5 -14t-21.5 -5l-97 8l-121 -6q-20 0 -20 11q0 13 4.5 16
t38.5 15q26 9 32 54q7 51 7 263l3 174v58q0 66 -47 88q-14 6 -32 6t-18 14z" />
    <glyph glyph-name="G" unicode="G" horiz-adv-x="818" 
d="M678 365l80 1h15q16 0 16 -9q0 -7 -25.5 -18t-28.5 -28q-7 -43 -7 -92.5t1 -72.5t1.5 -32.5t1.5 -16.5t1 -11t-7.5 -6.5t-24.5 -7t-31 -13l-21 -12.5t-18.5 -10l-23.5 -12t-27 -12.5t-31 -11.5t-33 -9q-38 -9 -72 -9q-109 0 -189.5 29.5t-124.5 79.5q-86 99 -86 237
q0 109 43.5 196t133.5 140.5t214 53.5q119 0 206 -45q20 -11 30.5 -18.5t13 -7.5t13 7.5t14.5 7.5q15 0 15.5 -24.5t4 -56.5t6.5 -53t3 -25q0 -17 -12 -17t-17 12q-35 76 -117 128.5t-169 52.5q-125 0 -206.5 -78.5t-81.5 -217.5q0 -92 34 -173t103.5 -134t153 -53t146 35
t69.5 80q3 24 3 126q0 39 -14.5 53.5t-45.5 18t-34.5 10t-3.5 12.5q0 11 18 11z" />
    <glyph glyph-name="H" unicode="H" horiz-adv-x="791" 
d="M121 402l1 108q0 76 -6 119q-3 25 -26.5 39t-41 14t-23 6.5t-5.5 10.5q0 11 28 11l113 -4l88 2q22 0 22 -14q0 -17 -35 -17q-20 0 -29 -41t-9 -84v-37l-2 -92q0 -25 6 -32t28 -7l164 1l189 -2q11 0 11 139v54q0 75 -30 92q-12 7 -24.5 9t-21 5.5t-8.5 13.5t39 10l97 -2
l78 2q23 0 23 -13t-14 -13q-28 0 -42.5 -17t-14.5 -45l-5 -393v-37l4 -92q0 -65 84 -74q12 0 12 -11q0 -7 -10 -9t-39 -2l-77 5l-94 -5h-17q-14 0 -16.5 4t-2.5 9.5t10 10.5t22 8t23 12q21 15 21 94l3 177q0 15 -12 21t-39 6t-81 -2l-54 -1l-184 3q-15 0 -20 -6t-5 -31
l-4 -123v-43q0 -43 8 -64t39 -41q8 -5 29 -5q33 0 33 -11q0 -18 -32 -18l-83 4l-108 -5q-47 0 -47 15q0 14 31 18q12 1 25 12.5t17 31t9 105.5t5 164v57z" />
    <glyph glyph-name="I" unicode="I" horiz-adv-x="328" 
d="M119 402l1 108v46q0 44 -3.5 70.5t-27 39.5t-46.5 14t-23 15.5t28 14.5l113 -4l88 2q27 0 27 -14q0 -8 -46 -27q-32 -13 -32 -115l-3 -370q0 -84 23.5 -118t49.5 -34l20 -1q7 0 14 -3.5t7 -11.5q0 -14 -25 -14l-95 4l-110 -5q-45 0 -45 15q0 14 31 18q12 1 25 12.5
t16.5 26t8 121t4.5 153.5v57z" />
    <glyph glyph-name="J" unicode="J" horiz-adv-x="290" 
d="M203 146l-1 -77q0 -114 -61.5 -187.5t-145.5 -73.5q-40 0 -40 38q0 15 11.5 35t18.5 20t22.5 -17t36.5 -17q55 0 69 78q13 68 13 100v118l-1 26q0 20 -0.5 35t-0.5 32q-2 51 -2 194.5t-3.5 173t-27 41.5t-47.5 13t-24 18t29 17q10 0 45.5 -3t67.5 -3l81 1q28 0 28 -13
q0 -9 -46 -28q-21 -8 -21 -68v-46z" />
    <glyph glyph-name="K" unicode="K" horiz-adv-x="724" 
d="M119 402l-2 108v46q0 51 -3 74t-25.5 36t-45.5 14t-23 14.5t28 13.5l113 -2l86 2q17 0 17 -13q0 -6 -14.5 -12t-20.5 -9q-31 -18 -31 -122l-3 -156q0 -21 8 -21t81 59.5t145 129t72 91.5q0 12 -10 16.5t-15 6t-14 3t-11 2.5q-11 2 -11 13.5t16 11.5l25 -1l60 -2l124 3
q20 0 20 -13q0 -7 -6 -10.5t-23 -8.5t-25.5 -8.5t-52.5 -31.5q-9 -6 -98.5 -81.5l-188.5 -158.5l-11 -14q0 -5 29 -34l136 -135t148 -140.5t74 -39.5t37 -13q1 -2 1 -8.5t-8.5 -8.5t-49.5 -2h-97q-16 0 -24 9.5t-16 17.5q-37 43 -57 63q-212 215 -223 224t-19 9
q-14 0 -14 -27v-3l1 -23v-51q0 -131 17 -160.5t65 -29.5l8 -1q7 0 14 -3.5t7 -11.5q0 -14 -25 -14l-95 4l-110 -5q-36 0 -36 11v4q0 7 9 10q37 9 48.5 20.5t15 62t3.5 161.5v134z" />
    <glyph glyph-name="L" unicode="L" horiz-adv-x="603" 
d="M115 355l3 173q0 27 -2 91q-1 29 -25 45t-45 16.5t-23.5 4t-2.5 10.5q0 18 27 18l27 -2l87 -4l105 4q17 0 17 -10q0 -14 -12 -18.5t-26.5 -6t-28 -22t-15.5 -60.5t-5 -219t-3 -200v-40q0 -72 24.5 -79.5t42.5 -7.5q150 0 216 24q60 22 72 46q13 25 23 25q12 0 12 -17
q0 -43 -43 -87t-75 -44q-72 0 -162.5 5t-112.5 5l-125 -8q-29 0 -29 12q0 7 5.5 11.5t15.5 4.5t26 12t24 49.5t8 144.5v124z" />
    <glyph glyph-name="M" unicode="M" horiz-adv-x="919" 
d="M63 -2q-21 0 -21 16q0 13 30 14q11 1 25 16.5t20 41.5t13 178t7 238.5t-19.5 124.5t-84.5 53q-13 3 -13 15q0 15 18 15l53 -4l75 2q19 0 24 -14l43 -93.5l49.5 -107.5l47.5 -102l47 -100.5l37.5 -77.5t30 -57.5t13.5 -18.5t6.5 3.5t7 9.5t6 12t7 15.5t6.5 14.5l129 266
q53 108 71 151l23 50q3 8 4.5 12.5t2.5 7t2 4.5t3.5 9t5.5 10q8 8 29 8l86 -2q17 0 17 -13q0 -10 -6.5 -14.5t-29 -7.5t-32.5 -25t-10 -120.5t6 -208t6 -137.5q0 -100 16 -127.5t67 -27.5q7 0 12.5 -5t5.5 -9q0 -16 -11 -16h-11l-102 4l-104 -5q-18 0 -18 14q0 15 27 18
q10 1 21.5 12.5t16 33t4.5 59.5t-1.5 83t-3.5 87.5t-4 80t-3 61.5l-2 24q0 43 -9 43q-3 0 -5.5 -3t-4.5 -5t-4 -6.5t-4 -7.5t-5 -8.5t-5 -9.5l-5 -11q-4 -7 -6 -12l-139 -281l-46.5 -96t-26.5 -53.5t-11.5 -6.5t-13.5 8.5t-18 37.5t-21 48q-183 372 -187 377.5t-7 5.5
q-8 0 -8 -40l-9 -264v-45q0 -82 33 -101q17 -10 33 -11q25 -3 25 -13.5t-3 -14t-12 -3.5l-104 4z" />
    <glyph glyph-name="N" unicode="N" horiz-adv-x="798" 
d="M144 -2l-85 -2q-22 0 -22 16q0 9 13 11.5t32 15.5t27 42.5t17 192.5t9 237t-24 116.5t-78 48.5q-13 1 -13 15q0 6 7 11.5t18 5.5l38 -1l49 2q9 0 21 -5.5t14 -10t11 -15l24 -27.5t27 -33q136 -177 364 -427q6 -7 14.5 -16t12 -13.5t7.5 -8.5q7 -7 11 -7q10 0 10 62v117
l-2 205v7q0 92 -32 117q-12 9 -20 11.5t-23 5.5q-41 8 -41 22.5t19 14.5l95 -1l90 2q17 0 23.5 -3.5t6.5 -10.5t-6 -11q-8 -5 -29 -12q-33 -18 -33 -113v-38l-11 -495v-20q0 -23 -14 -23q-9 0 -16 7l-396.5 457.5t-71.5 72.5q-10 0 -10 -81.5t-4 -191t-4 -119.5
q0 -45 15.5 -68.5t33.5 -26.5t33.5 -6.5t15.5 -14t-3.5 -13.5t-12.5 -3z" />
    <glyph glyph-name="O" unicode="O" horiz-adv-x="853" 
d="M44 339q0 168 101 275.5t286 107.5q86 0 155 -25t109 -61.5t67 -83.5q47 -82 47 -160q0 -136 -53 -230q-101 -178 -339 -178q-119 0 -205.5 52t-127 131t-40.5 172zM132 390q0 -89 47 -182q25 -50 60.5 -89.5t90 -65t119.5 -25.5q74 0 146 43q80 47 113 131q19 45 19 98
q0 181 -95 281.5t-235 100.5q-110 0 -187.5 -74t-77.5 -218z" />
    <glyph glyph-name="P" unicode="P" horiz-adv-x="564" 
d="M114 431l-1 170q0 27 -17 53.5t-56 26.5q-20 0 -20 13q0 16 23 16l37 1l60 -3l165 3q94 0 162 -47.5t68 -136.5q0 -49 -18 -87.5t-43.5 -60.5t-57.5 -37q-51 -23 -91 -23t-73 7.5t-33 15.5q0 15 13 15q5 0 20.5 -4t34.5 -4t45 6.5t54 21t46 44t18 68.5q0 67 -54 124.5
t-149 57.5q-31 0 -42 -18.5t-11 -83.5l-2 -413q0 -116 68 -124q17 -2 28 -2q28 2 28 -20q0 -17 -23 -17l-143 5l-93 -4q-31 0 -31 11q0 17 11 21q5 2 7 3t9.5 2.5t10 2.5t6.5 1.5t5.5 1t5 3t5.5 7l5.5 12t9 23t9.5 146.5t4 203z" />
    <glyph glyph-name="Q" unicode="Q" horiz-adv-x="839" 
d="M174 78q-129 93 -129 262.5t94.5 275.5t292.5 106q83 0 149.5 -27t105 -66.5t64.5 -90.5q44 -85 44 -163.5t-24 -150t-74.5 -129t-118.5 -76.5t-68 -22q0 -11 19 -19l67 -30t67.5 -29l36.5 -14t38.5 -13.5t34.5 -9.5q34 -9 63 -9t46 8.5t26.5 16.5t16.5 8t10.5 -4.5
t3.5 -7.5q0 -35 -54 -61.5t-118.5 -26.5t-179 51t-215 102t-130.5 51q-46 0 -68 -32t-22 -74v-18q0 -26 -18 -26q-10 0 -17 13t-7 29q0 44 20 83t43 55.5t23 18.5q0 4 -22 19zM212 608q-76 -74 -76 -214t74 -242q39 -55 111.5 -89.5t134.5 -34.5t136 38q42 22 83.5 86.5
t41.5 147.5q0 161 -93 271.5t-226 110.5q-110 0 -186 -74z" />
    <glyph glyph-name="R" unicode="R" horiz-adv-x="718" 
d="M118 428l-1 169q0 37 -15 56.5t-33.5 22t-33.5 6.5t-15 14q0 16 29 16h166l100 3q90 0 154 -45.5t64 -122.5q0 -51 -19.5 -89.5t-43 -55.5t-43 -29.5t-19.5 -16.5q0 -12 84 -129.5t115 -150.5q38 -47 92 -47q14 0 14 -12q0 -15 -12 -20t-60.5 -5t-87.5 23
q-54 31 -179 240q-48 78 -74 78h-82q-12 0 -14.5 -10t-2.5 -59v-81l1 -53v-9q0 -41 19 -63.5t42.5 -26t42.5 -8t19 -14.5q0 -16 -18 -16l-143 7l-110 -4q-21 0 -21 16q0 17 42 22q16 2 29 22t13 57zM201 536q0 -103 1 -127.5t7 -28.5q15 -9 43 -9h39q85 0 121.5 39
t36.5 100.5t-48.5 112.5t-146.5 51q-37 0 -45 -19.5t-8 -90.5v-28z" />
    <glyph glyph-name="S" unicode="S" horiz-adv-x="596" 
d="M455 689l23 8q13 0 15 -8q21 -121 21 -142.5t-14 -21.5q-9 0 -17.5 21.5t-20 39.5t-16.5 23t-26 24q-54 48 -123.5 48t-111.5 -30t-42 -78t24.5 -77t65.5 -45t86 -30q121 -38 179 -99q40 -43 40 -107q0 -105 -67 -166.5t-166 -61.5q-69 0 -111 7.5t-86 30.5q-13 8 -31 78
t-18 87.5t13.5 17.5t16.5 -10q37 -89 87 -126q54 -41 130.5 -41t122 39.5t45.5 103.5q0 47 -31 78.5t-71 45.5q-149 50 -202 81q-91 54 -91 145t64.5 144.5t167.5 53.5q38 0 90.5 -16.5t53.5 -16.5z" />
    <glyph glyph-name="T" unicode="T" horiz-adv-x="703" 
d="M145.5 714q68.5 -4 269.5 -4t243 6q11 0 15 -6t4 -11l6 -81q0 -25 -3 -31.5t-13 -6.5q-8 0 -13.5 20.5t-11.5 31.5q-15 26 -87 26h-130q-24 0 -29.5 -9.5t-5.5 -54.5v-49l-3 -366l-1 -65q0 -43 13.5 -56t29.5 -19.5t27 -7.5q28 -2 28 -18q0 -11 -5 -14t-19 -3l-111 8
l-102 -7q-37 0 -37 16q0 10 6 13.5t23.5 6t22.5 3.5q34 8 38 40q10 88 10 378l-1 179q0 19 -11 23.5t-73 4.5t-97.5 -4t-41.5 -7.5t-14.5 -14.5t-14 -25.5t-7.5 -23.5q-3 -23 -19 -23q-11 0 -11 17q0 40 5 72.5t5.5 37.5t1 6.5t1 5t1.5 5t2.5 4t3.5 3.5t5 2q6 2 19 2
t81.5 -4z" />
    <glyph glyph-name="U" unicode="U" horiz-adv-x="815" 
d="M114 431l2 144q0 55 -13 75.5t-61 27.5q-22 3 -22 19q0 8 6 10.5t17 2.5l113 -4l94 2q21 0 21 -14q0 -9 -7 -11t-17.5 -3t-20.5 -7q-25 -14 -25 -93v-28l-1 -216q0 -99 6 -129t14 -55.5t19.5 -40.5t29 -33t40.5 -28q54 -22 123 -22q108 0 150 24q18 10 41.5 31.5
t36.5 52.5q31 74 31 188l-1 212q0 35 -1.5 55t-10 44t-21.5 33t-29 11.5l-26 4t-10 8.5q0 16 20 16l77 -2l85 3q21 0 21 -13q0 -8 -21.5 -20.5t-26.5 -22.5q-11 -21 -11 -66l1 -67q0 -192 -16 -294t-49 -148q-67 -97 -237 -97t-240 64q-55 51 -68 122.5t-13 246.5v17z" />
    <glyph glyph-name="V" unicode="V" horiz-adv-x="807" 
d="M679 709l89 2q19 0 19 -14q0 -11 -22 -21q-9 -4 -21 -17t-21 -34l-223 -508l-41 -95.5t-20 -46.5t-8 -5q-18 0 -44.5 67t-84 192l-88.5 195t-44.5 103t-25.5 59q-18 43 -33 59.5t-33.5 24.5t-29.5 8q-28 -2 -28 18q0 14 28 14l110 -4l65 2q23 0 28 -2t5 -8.5t-10 -11.5
q-31 -16 -31 -32.5t3.5 -30t15.5 -41.5l24.5 -56l41 -90.5l55.5 -123.5q84 -193 100 -193q5 0 57.5 121t103.5 253t51 152t-11.5 28.5t-24.5 10.5q-36 4 -36 16q0 7 3.5 8.5t17.5 1.5z" />
    <glyph glyph-name="W" unicode="W" horiz-adv-x="1110" 
d="M982 709l89 2q20 0 20 -14q0 -7 -5.5 -11t-16.5 -10t-17.5 -12.5t-10 -11.5t-7.5 -12.5t-6 -12.5q-7 -13 -136 -304.5t-143 -320.5t-22 -29q-10 0 -46 89l-26.5 61l-28 66l-23.5 55q-24 57 -31 57q-10 0 -67.5 -138t-60 -148t-4 -14t-2.5 -7l-2 -6t-2 -5t-1.5 -4
t-1.5 -3.5t-2 -2.5t-2 -1q-3 -2 -5 -2q-9 0 -22 28.5t-47 112t-80.5 185.5t-111.5 262q-19 48 -41 75.5t-39 34.5t-31 8t-22 4t-8 16t27 13l110 -3l86 3q9 0 11.5 -2.5t2.5 -9t-21.5 -17.5t-21.5 -30q0 -20 30 -85l131.5 -298l41.5 -97q20 -44 26 -44q4 0 32 62t41 94t18 43
q11 21 11 33.5t-60 147.5q-66 146 -85 161q-16 12 -26 12l-11 1q-28 3 -34 5.5t-6 10.5q0 14 29 14l110 -4l66 4q30 0 30 -7t-11 -13q-32 -17 -32 -37.5t31 -90.5q2 -4 14 -33q26 -68 33.5 -68t39.5 87.5t32 104.5t-15 24.5t-30 11t-15 11.5q0 11 22 11l64 -2h17q14 0 53 3
h9q13 0 13 -10t-19 -16t-30.5 -17.5t-28 -52l-46 -109.5t-34.5 -83t-5 -23.5t61 -145.5t72.5 -136t116 252.5t104.5 273t-11.5 29t-25.5 10.5q-37 3 -37 16q0 7 3 8.5t16 1.5z" />
    <glyph glyph-name="X" unicode="X" horiz-adv-x="751" 
d="M134 3l-80 -4q-19 0 -24 5t-5 13t6 10.5t15 2.5q25 2 42.5 15.5t29 24.5t24 26.5l22.5 27.5t25 32.5l22.5 31l24 34l27 38l31.5 42t29.5 39.5t8.5 15t-4 9.5t-15 22l-25 34.5l-92 129q-80 118 -136 130q-22 0 -31 7t-9 14t7 9.5t35 2.5l89 -4l105 2q22 0 22 -9t-7 -13
t-15 -4q-23 -2 -23 -21.5t54 -97.5q81 -123 89 -131t11 -8q8 0 20 17.5l32 46l35.5 51l31.5 47.5q36 52 36 66.5t-8.5 22t-17.5 8.5q-27 3 -27 17q0 10 15 10l81 -4q56 0 73.5 2t20.5 2q16 0 16 -10t-9 -13.5t-29 -10.5t-38 -19.5t-52 -58.5q-155 -208 -155 -210
q0 -7 41.5 -66l84.5 -121q92 -134 130 -165q3 -3 20 -6q43 -8 43 -21q0 -5 -1 -7q-4 -7 -31 -7l-107 7q-50 0 -74 -3t-28 -3q-13 0 -13 12.5t25.5 18.5t25.5 25t-58 104q-70 100 -89 130t-26 30q-2 0 -22.5 -33t-62 -88.5t-62.5 -89.5t-21 -54q0 -27 54 -27q12 0 12 -17
q0 -11 -31 -11z" />
    <glyph glyph-name="Y" unicode="Y" horiz-adv-x="712" 
d="M326 89l2 203q0 42 -26 82l-63 95l-69 102.5t-55 70t-38.5 29t-35 4.5t-21.5 12t11.5 15t50.5 3l58 -2l85 1q50 0 50 -11.5t-21 -19t-21 -17t6.5 -25.5t13 -26l19.5 -29t31 -48t54.5 -78t42 -49t14.5 11.5t25 38.5t23 37.5l18.5 27.5l16 24l13.5 21.5t13 22t9 18.5
q10 18 10 30q0 36 -46 42q-22 3 -25 8.5t-3 10.5q0 12 28 12l41 -1l106 -1q49 0 49 -15q0 -4 -6 -7t-17 -8t-20 -12q-41 -32 -120.5 -152t-93 -137t-17.5 -41t-4 -82l1 -116v-24q0 -33 11.5 -52t21.5 -22.5t20 -3.5l20 -1q7 0 11 -4.5t4 -12t-5 -10.5t-19 -3l-100 1l-110 -4
q-28 0 -28 10t5.5 13.5t18.5 4.5t19 3q42 13 42 61z" />
    <glyph glyph-name="Z" unicode="Z" horiz-adv-x="563" 
d="M287 -1l-247 -1q-20 0 -20 16q0 6 28.5 48.5t52 84.5t102 170.5l134.5 223t56 105.5t-39 11t-187 -4q-32 -1 -55.5 -16t-33 -32.5l-17.5 -32t-13 -14.5q-13 0 -13 18t4 38t4 25.5t3 33t9 31.5t16.5 4t38.5 -1q55 -2 182 -2l180 1q43 0 43 -14t-183.5 -316t-183.5 -310.5
t8 -13t28 -6.5q32 -2 106.5 -2t119.5 5.5t69 19t32.5 22.5l13.5 14t10 5q8 0 8 -14.5t-31 -64.5q-2 -3 -5 -8.5t-5 -7.5q-7 -10 -10 -11q-9 -4 -22 -4z" />
    <glyph glyph-name="bracketleft" unicode="[" horiz-adv-x="287" 
d="M139 -159l90 1q14 0 19 -4.5t5 -19t-10.5 -18.5t-41.5 -4h-90q-22 0 -27.5 10t-5.5 51v61l6 652v82l-1 86q0 16 10 20.5t39 4.5h43l59 1h7q7 0 11.5 -6.5t4.5 -14.5q0 -20 -12 -20l-92 -1h-16q-8 0 -8 -8l2 -155l-5 -544q0 -97 0.5 -135.5t12.5 -38.5z" />
    <glyph glyph-name="backslash" unicode="\" horiz-adv-x="416" 
d="M20 723q0 12 17.5 12t23 -3.5t9.5 -14.5l307 -830l8 -21q11 -29 11 -33q0 -16 -33 -16q-8 0 -12.5 5.5t-12.5 25.5l-304 831q-14 36 -14 44z" />
    <glyph glyph-name="bracketright" unicode="]" horiz-adv-x="287" 
d="M203 -10l1 -142v-26q0 -16 -10 -21t-39 -5h-109q-7 0 -12 6t-5 14q0 21 13 21h108q7 0 7 9l-1 79v76l4 544q0 96 -0.5 134.5t-12.5 38.5h-90q-14 0 -19 4t-5 17q0 23 17 23q100 2 123.5 2t29 -10t5.5 -51v-61z" />
    <glyph glyph-name="asciicircum" unicode="^" horiz-adv-x="333" 
d="M29 331q0 5 13.5 27l45.5 76t45 70.5t29.5 16.5t29 -16.5t44 -70l44.5 -74.5t13 -31q0 -8 -18 -8h-15q-11 0 -15 6l-6 9q-6 9 -9 18q-11 18 -20.5 37.5t-15 29t-8.5 15.5t-6.5 12t-6 9t-4.5 6t-3.5 4t-3.5 1t-4.5 -2t-5.5 -6.5l-6.5 -10t-9 -16l-11 -20.5l-14.5 -27
l-13.5 -25.5l-7.5 -14t-4 -7.5t-4 -6.5t-6 -6.5q-7 -4 -13 -4h-14q-20 0 -20 9z" />
    <glyph glyph-name="underscore" unicode="_" horiz-adv-x="213" 
d="M3 -57q-3 5 -3 16t1 15q3 9 18 9h178q14 0 15 -9q1 -3 1 -14.5t-3 -16.5t-18 -5h-174q-12 0 -15 5z" />
    <glyph glyph-name="grave" unicode="`" horiz-adv-x="439" 
d="M109 636q0 13 21 19.5t32.5 6.5t22.5 -26.5t24.5 -54.5t22 -42l14.5 -24l9 -15q3 -5 3 -9q0 -11 -11 -11t-40 31q-98 103 -98 125z" />
    <glyph glyph-name="a" unicode="a" horiz-adv-x="461" 
d="M166 -15q-118 0 -118 100q0 72 60 99q50 21 153 38q3 1 8 1.5t10.5 1.5t8.5 2q7 3 7 14l2 52q0 57 -33 82.5t-64 25.5q-72 0 -72 -60l4 -36q0 -20 -18 -20q-14 0 -31 5q-31 10 -31 34q0 39 52.5 74.5t105.5 35.5t83 -10t44.5 -22.5t22.5 -33.5q10 -25 10 -78.5t-2.5 -95
t-2.5 -75.5t8 -55.5t19 -27.5t22 -7q27 -2 27 -16q0 -21 -63 -21q-26 0 -44.5 14t-26.5 27.5t-9 13.5t-8 -6.5t-19.5 -15.5t-28.5 -18q-37 -22 -76 -22zM288 208l-10 -2l-29 -5t-28 -6t-30.5 -9t-24 -12.5t-22.5 -17.5q-18 -28 -18 -59t20 -51.5t51.5 -20.5t50 8t27.5 18
t14 27q6 19 6 49v72q0 9 -7 9z" />
    <glyph glyph-name="b" unicode="b" horiz-adv-x="547" 
d="M70 -4l4 82q0 33 4.5 118t4.5 146v247q0 91 -45 91h-10q-16 0 -16 10t10 17t32 14.5t26 9t20 9.5q34 16 40 16t11 -5t5 -13v-20l-1 -122v-185q0 -36 7 -36q4 0 12 10.5t19.5 23t44.5 23t82 10.5q89 0 138.5 -62t49.5 -145q0 -47 -24.5 -108.5t-66.5 -93.5
q-58 -44 -139 -44q-41 0 -76 14.5t-52.5 29t-18.5 14.5q-4 0 -19.5 -32t-29.5 -32q-12 0 -12 13zM155 132q0 -27 39.5 -67t107.5 -40t104.5 46.5t36.5 119.5t-47.5 135t-128.5 62q-47 0 -79.5 -27t-32.5 -48v-181z" />
    <glyph glyph-name="c" unicode="c" horiz-adv-x="452" 
d="M95.5 36q-56.5 57 -56.5 154.5t64.5 168t167.5 70.5q35 0 75.5 -10t41.5 -23q2 -24 2 -57.5t-11 -33.5q-10 0 -18 13q-17 29 -64.5 50.5t-83.5 21.5q-20 0 -39 -15t-31 -33q-29 -42 -29 -119t49.5 -134.5t121.5 -57.5q35 0 65 13t46.5 26t20.5 13q11 0 11 -10t-21 -30.5
t-41 -32.5q-49 -31 -120 -31q-94 0 -150.5 57z" />
    <glyph glyph-name="d" unicode="d" horiz-adv-x="565" 
d="M394 -3l-3 37q0 17 -9 17q-3 0 -14.5 -10l-26.5 -22.5t-43.5 -22.5t-61.5 -10q-93 0 -145 61.5t-52 153t64.5 164.5t178.5 73q26 0 68.5 -14.5t46.5 -14.5t4 36l2 129q0 54 -5.5 76t-17 29t-30.5 7h-11q-15 0 -18 1t-3 7v1q0 7 10 10.5t40.5 13t48 17.5l26.5 12
q19 10 27 10q12 0 12 -20q0 -3 -6.5 -85t-6.5 -132l-2 -365q0 -68 6.5 -91t28.5 -30q3 -1 17 -3.5t20 -6t6 -11.5q0 -12 -77 -18q-16 -1 -37 -5.5t-26 -4.5q-11 0 -11 11zM148 361.5q-37 -47.5 -37 -121.5t46.5 -138t119.5 -64q45 0 82 23t37 56l1 171q0 61 -28 77
q-74 44 -119 44q-65 0 -102 -47.5z" />
    <glyph glyph-name="e" unicode="e" horiz-adv-x="466" 
d="M100.5 35q-61.5 54 -61.5 156.5t56.5 171.5t146.5 69q42 0 76.5 -15t53.5 -36.5t32 -45.5q22 -41 22 -62q0 -18 -41 -18h-257q-8 0 -9.5 -1.5t-1.5 -9.5q0 -94 50.5 -148t118.5 -54q42 0 85.5 22.5t45.5 22.5q10 0 10 -9q0 -12 -22 -32.5t-42 -33.5q-48 -31 -113 -31
q-88 0 -149.5 54zM136 279l176 6q14 0 17.5 2.5t3.5 9.5q0 30 -28 70t-78 40t-77 -39.5t-27 -74.5q0 -14 13 -14z" />
    <glyph glyph-name="f" unicode="f" horiz-adv-x="345" 
d="M91 375l-40 -3q-22 0 -22 13q0 18 8.5 24t33.5 6h21q12 0 15 5.5t3 17.5q0 73 24 134.5t60 97.5q74 77 136 77q23 0 37.5 -7.5t14.5 -20.5q0 -4 -3.5 -17.5l-4.5 -17.5t-2 -6.5t-2 -5.5t-2 -4.5t-2.5 -3.5t-3.5 -3q-3 -2 -8 -2t-10 7q-15 19 -53.5 19t-60 -21t-32.5 -56
q-21 -68 -21 -150v-25q0 -19 12 -19q88 0 107 14q7 4 11 4t4 -10.5t-14 -35.5q-6 -9 -25 -9l-78 -1q-16 0 -16 -10v-58l5 -198q0 -53 14 -70q16 -21 49 -21q17 0 17 -15q0 -10 -11 -10l-100 5l-74 -5q-15 0 -15 14q0 5 12.5 10t24.5 18.5t12 30.5t-1 49q-3 98 -3 243
q0 11 -3.5 13.5t-13.5 2.5z" />
    <glyph glyph-name="g" unicode="g" horiz-adv-x="488" 
d="M70.5 -164q-31.5 26 -31.5 60t18 52.5t36 27.5t18 11.5t-5 6.5t-12 9q-16 13 -16 43.5t13 52.5t26 33t13 14.5t-10.5 12.5l-23.5 20.5t-23.5 38t-10.5 56t7.5 53t25 49t54 41.5t81 16t72.5 -10t41.5 -20t19.5 -10t49 18q14 6 21 27t15 21q13 0 13 -8q0 -24 -7 -51.5
t-17 -43t-39 -27.5q11 -30 11 -50q0 -64 -48 -108t-117 -44q-26 0 -49.5 4.5t-28 4.5t-12.5 -2t-20 -14t-12 -33q0 -34 31 -43t103 -9h46q145 0 145 -88q0 -31 -7 -47q-19 -49 -78 -78t-137 -29q-45 0 -84 8.5t-70.5 34.5zM97 -91q0 -44 37 -66.5t95 -22.5t107.5 25.5
t49.5 65.5q0 36 -35 45q-27 6 -76 6h-9q-32 0 -78 7l-45 7q-10 0 -28 -20t-18 -47zM164 379.5q-26 -31.5 -26 -90.5t28.5 -99t72.5 -40t68 34.5t24 87.5t-28 96t-70.5 43t-68.5 -31.5z" />
    <glyph glyph-name="h" unicode="h" horiz-adv-x="587" 
d="M132 5l-71 -5q-25 0 -26 3t-1 7q0 10 12 13q29 8 37.5 25.5t8.5 51.5l4 341v49q0 136 -6 166t-36 30h-13l-4 1q-17 0 -17 9t10.5 14.5t30 10.5t55.5 21t45 16q13 0 13 -23q0 -5 -3.5 -24t-4 -73.5t-2 -117t-2.5 -84.5q-2 -42 -2 -59t8 -17q2 0 20.5 18.5t51 37t69.5 18.5
q81 0 126 -48t45 -149v-145q0 -27 10 -42t23 -16q54 -5 54 -21t-31 -16l-84 5l-77 -3q-23 0 -23 10q0 18 27 18q10 0 18.5 11t8.5 34l1 26l1 140q0 61 -37 105.5t-85.5 44.5t-98.5 -39q-18 -14 -23 -45.5t-5 -139.5v-23q0 -45 7 -73q11 -39 55 -42q14 -1 21.5 -3.5
t7.5 -10.5q0 -12 -11 -12l-26 1q-26 1 -52.5 2.5t-28.5 1.5z" />
    <glyph glyph-name="i" unicode="i" horiz-adv-x="284" 
d="M159 -4l-71 -2q-40 0 -40 13.5t15 18.5q1 0 4 1q23 8 30 24t7 155v88q0 29 -7 46t-13 21t-20.5 6.5t-21 5t-6.5 8t2.5 8.5t10 6.5t15.5 6.5q28 8 46 16l27.5 12t12.5 6q7 3 17 3q15 0 15 -19l-6 -48v-274q0 -30 9.5 -47t20 -21t24.5 -5t18 -1q14 -2 14 -14q0 -17 -17 -17
l-15 1zM107.5 554q-14.5 21 -14.5 34.5t17.5 35t33 21.5t30.5 -20.5t15 -36.5t-19 -35.5t-28 -19.5q-20 0 -34.5 21z" />
    <glyph glyph-name="j" unicode="j" horiz-adv-x="281" 
d="M116 591q0 14 15.5 32.5t32 18.5t32 -17.5t15.5 -33.5t-17.5 -34.5t-26.5 -18.5q-20 0 -35.5 19.5t-15.5 33.5zM25 -173l-2 36q0 29 22 29q11 0 31 -21.5t27 -21.5q13 0 18 33.5t5 127.5v304q0 43 -26 54q-13 5 -31 5t-18 10q0 6 9 9q54 16 88.5 32t37.5 16q12 0 12 -23
v-11l-2 -47v-324q0 -55 -10 -104t-41.5 -90t-75.5 -41t-44 27z" />
    <glyph glyph-name="k" unicode="k" horiz-adv-x="545" 
d="M40 679l-20 -1q-20 0 -20 11t49 26q7 2 16.5 5t11.5 3.5t7.5 2.5t6 2.5t5 2.5t6.5 3.5t8 5t19.5 12t26.5 8.5t13 -19q0 -2 -1 -11.5t-2.5 -28t-2.5 -45.5q-3 -79 -3 -168l-3 -205v-21q0 -42 4 -42q9 0 18.5 10t13.5 13q140 112 140 126t-22.5 23t-22.5 17q0 10 12 10
l18 -1l147 5q26 0 26 -8t-6 -11t-16 -4q-33 -5 -74 -33q-3 -2 -6.5 -5t-13 -10l-22.5 -17l-48 -36.5t-43 -33.5t-8 -15t11 -23q91 -111 156 -168q27 -24 54.5 -31t39.5 -7t12 -9q0 -12 -8.5 -14.5t-32.5 -2.5l-104 1q-25 0 -157 163q-26 32 -28.5 36t-11 4t-19 -14
t-10.5 -32l1 -17q0 -72 8 -82q1 -1 9.5 -12.5t42 -17.5t33.5 -15q0 -16 -31 -16l-97 6l-73 -4q-24 0 -24 12q0 10 25 17q23 9 29 26t6 66l1 44l1 444q0 75 -47 75z" />
    <glyph glyph-name="l" unicode="l" horiz-adv-x="279" 
d="M91 192l4 425q0 23 -7.5 41.5t-16.5 22.5t-40 4q-11 0 -11 7t1.5 10t6.5 5.5t12 4.5q29 6 60 21q49 23 64 23q12 0 12 -19q0 -4 -2 -23q-6 -59 -6 -129v-56l-2 -133v-298q0 -21 3.5 -34.5t23 -26t54.5 -12.5q5 0 9 -5t4 -10q0 -14 -31 -14l-101 7q-26 0 -49.5 -4t-31 -4
t-12 3.5t-4.5 9t4.5 9t14.5 5.5q30 8 36 24.5t6 45.5l-1 26v74z" />
    <glyph glyph-name="m" unicode="m" horiz-adv-x="827" 
d="M99 208l-1 122q0 24 -10.5 34t-23.5 10q-33 -2 -33 14q0 9 12 13.5t36 9.5t35 9.5t18 8.5t10 5q9 4 21 4t12 -29l-5 -42q0 -12 6 -12q1 0 6.5 7.5t15 18t23.5 21.5q34 25 80.5 25t73.5 -12.5t37.5 -27t17.5 -27t8.5 -12.5t19 20.5t50 41t68.5 20.5q73 0 112.5 -43
t46 -104.5t6.5 -129.5v-32q0 -45 5 -65t23 -26q1 0 9 -1.5t14 -2.5q15 -3 15 -15q0 -15 -33 -15l-66 4l-72 -4q-24 0 -24 10.5t21 18.5t25 17q4 11 4 46v16l-1 106l-3 66q0 11 -3 20.5t-3.5 14.5t-5.5 12t-6 9q-4 8 -16 20q-26 31 -75 31q-23 0 -48 -12t-40 -24.5t-15 -16.5
t2 -15q4 -33 4 -113v-85q0 -46 13 -67.5t56 -27.5q10 -1 14 -6.5t4 -9.5q0 -11 -19 -11l-73 5l-91 -5q-22 0 -22 13q0 7 4 10.5t14.5 7.5t14 6t8.5 17t5 30v19l1 40v61l-1 53l-1 10q0 53 -27 85t-72 32t-78 -22t-33 -51v-202q0 -36 13 -55t29 -21.5t29 -5.5t13 -10
q0 -9 -3 -12t-18 -3l-84 3l-79 -3q-24 0 -24 15q0 11 18 14q7 1 15 8.5t14.5 28.5t6.5 145z" />
    <glyph glyph-name="n" unicode="n" horiz-adv-x="591" 
d="M248 0l-73 4q-26 0 -69 -2l-43 -2q-15 0 -15 9t5 11t12.5 3t14.5 6q19 12 21 72.5t2 79.5v144q0 32 -11.5 43t-31.5 11h-10q-19 0 -19 11q0 10 21.5 13t34 6.5t33 12t33 14.5t16.5 6h2q9 0 9 -12l-2 -43q0 -26 4 -26t8 5q15 21 40 36q45 28 86 28t73 -12.5t50 -31
t30 -42.5q20 -40 20 -82v-10l1 -53v-102q0 -38 10.5 -52.5t50.5 -20.5q20 -3 20 -15q0 -10 -20 -10l-82 5l-77 -4q-20 0 -20 13q0 9 12 12l13 3q22 7 22 67v135q0 77 -38 116.5t-86 39.5t-80 -23t-39 -43t-7 -153v-38q0 -50 10.5 -74t46.5 -27q10 0 25.5 -3.5t15.5 -11.5
q0 -13 -19 -13z" />
    <glyph glyph-name="o" unicode="o" horiz-adv-x="547" 
d="M99.5 47.5q-60.5 65.5 -60.5 156.5t62.5 159t165 68t172 -59t69.5 -164t-71.5 -165.5t-174 -60.5t-163 65.5zM158.5 363q-40.5 -41 -40.5 -135t55 -155t118.5 -61t102.5 43.5t39 127.5t-48 152.5t-134 68.5q-52 0 -92.5 -41z" />
    <glyph glyph-name="p" unicode="p" horiz-adv-x="555" 
d="M100 -62l3 276v22q0 83 -7.5 110.5t-39.5 27.5q-17 0 -21 2.5t-4 8t8.5 8.5t34.5 11t60 24.5t37 16.5q13 0 13 -13l-4 -59q0 -8 2 -8t9.5 7l19.5 17.5t29 20.5q39 24 93 24q89 0 136 -58.5t47 -147t-58.5 -163t-156.5 -74.5q-46 0 -74.5 9.5t-39.5 19t-14.5 9.5t-3.5 -8
v-123q0 -19 17 -47q11 -18 33.5 -21t38 -4t15.5 -13.5t-34 -12.5q-6 0 -32 2t-72 2l-63 -3q-22 0 -28 2t-6 9.5t9.5 11.5t21.5 7t21.5 24.5t9.5 62.5v20zM169 192l1 -50q0 -35 15 -60t39 -38q44 -23 93 -23q65 0 99.5 47.5t34.5 121.5t-42.5 134t-114.5 60q-51 0 -91 -32
q-21 -16 -27.5 -43.5t-6.5 -116.5z" />
    <glyph glyph-name="q" unicode="q" horiz-adv-x="559" 
d="M399 -81l2 92q0 46 -5.5 46t-17.5 -12.5l-27.5 -28t-47 -28t-70.5 -12.5q-73 0 -121 40q-73 61 -73 160q0 65 23 116t60 80q75 60 165 60q54 0 107 -31l14 -9l10 -8l3 -3q4 0 20 32t29 32q9 0 9 -12.5t-3 -30.5q-6 -49 -6 -170l3 -312q0 -63 26 -80q11 -8 21.5 -11t18 -6
t7.5 -10q0 -12 -18 -12l-36 1h-34q-70 0 -82.5 -2.5t-15.5 -2.5q-24 0 -24 15q0 11 22.5 14.5t29 8t9 19.5t2.5 65zM126 309q-17 -39 -17 -97.5t29 -103.5q52 -79 132 -79q87 0 112 41q17 30 17 69v163q0 40 -44.5 70.5t-90.5 30.5t-95 -36q-26 -19 -43 -58z" />
    <glyph glyph-name="r" unicode="r" horiz-adv-x="375" 
d="M52 363l-11 1q-19 0 -19 16q0 11 13.5 16.5t50 17t57.5 21t25 9.5q13 0 13 -20l-1 -27q0 -36 2.5 -39.5t5 -3.5t15.5 20t37 40.5t47.5 20.5t48.5 -16.5t25 -33t-8 -30.5q-14 -24 -26 -24q-8 0 -28.5 12t-47.5 12t-50.5 -22t-23.5 -40v-104l1 -87l1 -18q0 -21 14 -36
t26.5 -17t21.5 -3t14 -1.5t11 -2.5q11 -2 11 -14.5t-12 -12.5l-85 5l-104 -5q-18 0 -20 4t-2 8q0 13 13 17q26 6 31.5 25.5t5.5 83.5l-1 161l-1 30q0 11 -3 18q-8 19 -47 19z" />
    <glyph glyph-name="s" unicode="s" horiz-adv-x="393" 
d="M328 401l4 -60q0 -17 -4 -23t-11.5 -6t-16 14.5l-19 31.5t-34 31.5t-53.5 14.5t-49 -14.5t-19 -31.5t3 -27.5t10.5 -18.5l13 -13.5t18.5 -11.5t19.5 -8.5l21.5 -8.5q91 -32 117 -62.5t26 -87.5t-53 -105q-36 -31 -99 -31q-43 0 -96 21q-15 6 -17.5 6.5t-8 2.5t-8 2.5
t-6.5 2.5t-5.5 3.5t-3.5 4.5q-3 5 -3 16v87q0 11 4.5 18.5t12.5 7.5t11.5 -4.5t6.5 -18.5t6 -20q37 -92 104 -92q31 0 59 16.5t28 52t-23 57.5t-56 34.5l-66 26t-56 40t-23 66.5q0 56 45 90t99 34t82 -8.5t33.5 -15.5t5.5 -13z" />
    <glyph glyph-name="t" unicode="t" horiz-adv-x="342" 
d="M63 371l-19 -1q-17 0 -17 14q0 10 9 17q38 25 76 75q16 23 25.5 33.5t19.5 10.5t10 -23l-4 -57q0 -14 5.5 -17t35.5 -3h35q45 0 55 5q18 9 22 9q10 0 10 -11q0 -8 -13 -31.5t-19 -23.5q-45 0 -63 2t-24 2.5t-10.5 1t-6.5 0.5l-2 1q-19 0 -24.5 -6t-5.5 -27l-4 -186
q0 -65 16.5 -90.5t69.5 -25.5q21 0 46.5 9.5t27.5 9.5q10 0 10 -13t-34.5 -34.5t-74.5 -21.5q-135 0 -135 117v15l4 233q0 10 -4 13t-17 3z" />
    <glyph glyph-name="u" unicode="u" horiz-adv-x="576" 
d="M94 156l1 180q0 20 -10.5 32t-19.5 12h-18q-18 0 -18 14t19.5 18t47.5 4l57 5q17 0 20 -7t3 -35t-2.5 -76.5t-2.5 -107.5q0 -88 34 -124.5t77 -36.5q64 0 93 27t29 95l-2 138q0 50 -8 67.5t-34 20t-26 13.5q0 23 88 23l36 5q15 0 19.5 -5t4.5 -14.5t-0.5 -24t-1 -38.5
t-1.5 -54q-2 -60 -2 -134t6 -96t22 -22l26 1q24 0 24 -12t-7 -15t-27 -3t-60.5 -5.5t-43.5 -5.5q-7 0 -11.5 25.5t-6 25.5t-19.5 -16t-51.5 -32t-73.5 -16q-161 0 -161 174z" />
    <glyph glyph-name="v" unicode="v" horiz-adv-x="523" 
d="M430 424l46 1q17 0 22.5 -3t5.5 -10t-5 -10q-24 -14 -34 -28q-25 -34 -72 -134l-86 -177t-54 -77q-10 0 -16 10.5t-39.5 88.5l-68.5 156t-56 111.5t-31.5 40.5t-16 11.5t-5.5 11.5q0 11 19 11l71 -4l58 -1l39 3q18 0 18 -11q0 -17 -24 -17q-42 0 -42 -28q0 -16 16 -50.5
l29 -62l21.5 -46l22.5 -51.5q27 -64 34 -64q10 0 61 121t51 142.5t-9.5 30t-21.5 7.5q-31 -4 -31 16q0 13 31 13z" />
    <glyph glyph-name="w" unicode="w" horiz-adv-x="748" 
d="M410 422l31 1q22 0 22 -14q0 -7 -3 -8q-6 -2 -12 -2q-30 -2 -30 -28q0 -37 59 -167q8 -16 19 -44q22 -57 28 -57q10 0 52.5 109.5t42.5 135.5t-8.5 35.5t-18.5 10.5q-28 4 -28 20q0 8 21 8h115q19 0 24 -2t5 -11t-16.5 -15.5t-26.5 -20.5t-18 -30.5t-18 -40.5
q-30 -75 -75 -170l-49.5 -104t-11.5 -21q-10 -20 -19 -20q-17 0 -64 129.5t-55 129.5q-3 0 -64 -128t-80 -128q-8 0 -15 14t-38.5 96l-51.5 131.5t-28.5 74t-12.5 34.5q-14 28 -47 56q-4 4 -9 6.5l-7 3.5q-3 3 -3 10q0 11 19 11l71 -4l49 1q30 0 38.5 -1.5t8.5 -9.5t-11 -11
q-33 -7 -33 -39.5t56 -158.5q7 -14 19 -43.5t19 -43t11 -13.5t25.5 40.5l29 55.5l11.5 22.5l9 17t7 14l4.5 10.5l3.5 8.5t2 7t1 7.5v7q0 7 -9.5 30t-20 38.5t-22.5 25.5t-18 12q-16 6 -16 15t15 9z" />
    <glyph glyph-name="x" unicode="x" horiz-adv-x="548" 
d="M126 2l-53 -4q-44 0 -44 16q0 5 3 7t16 6.5t28.5 14.5t34 25t37.5 34l31 31.5t30.5 33.5t22.5 26t4 9.5t-11.5 19l-34.5 42l-42.5 53t-42.5 46t-36.5 23t-25.5 11t-12 17.5q0 12 14 12l78 -5l81 4q16 0 21 -3t5 -9.5t-16.5 -12.5t-16.5 -17q0 -9 19.5 -35t36.5 -51
q30 -43 36 -43q3 0 10 8q70 89 73 96t3 16q0 15 -23 24t-23 15q0 12 26 12l63 -1l69 2q7 0 13 -4t6 -9.5t-5.5 -9t-14.5 -6.5q-28 -7 -65 -44q-115 -115 -115 -126q0 -3 22 -27.5t46 -54l33.5 -41t13.5 -16l13.5 -15t16.5 -16t17 -12.5q17 -14 30.5 -18t15.5 -5q5 -3 5 -10
t-6 -9.5t-28 -2.5l-59 2l-59 -2h-11q-34 0 -34 10q0 5 17.5 11t17.5 18.5t-14 32.5t-38 49t-33 42t-11 13t-12 -10l-29 -35l-26 -30q-22 -26 -22 -43.5t7.5 -24.5t16.5 -8q23 -1 23 -16q0 -4 -1 -6q-4 -3 -40 -3z" />
    <glyph glyph-name="y" unicode="y" horiz-adv-x="498" 
d="M204 -190l-43 -1q-19 0 -19 13q0 3 22.5 31t45.5 69t23 72.5t-57 155.5t-99 203q-11 20 -22.5 31t-18.5 12q-16 2 -16 15t20 13l107 -2l57 2q7 0 12.5 -3.5t5.5 -7.5q0 -18 -24 -18h-15q-16 0 -16 -25q0 -30 53 -144q8 -17 24 -54q30 -68 36 -68t46.5 115t40.5 137
t-9.5 31t-21.5 9q-31 -2 -31 17q0 12 19 12l72 -1l62 1q21 0 21 -13q0 -10 -17.5 -14.5t-23.5 -12.5q-16 -23 -54 -126l-89 -237l-22 -59.5l-18 -49.5l-14 -38l-11 -29.5t-8 -19.5q-8 -16 -15 -16h-3z" />
    <glyph glyph-name="z" unicode="z" horiz-adv-x="378" 
d="M180 2l-73 -1h-17q-17 0 -24 -1h-7q-19 0 -19 15t7.5 25l14 19.5l12.5 17.5q183 264 183 279q0 5 -23 5l-122 -7q-29 -2 -50 -43q-7 -14 -12 -14q-8 0 -8 14.5t2.5 33.5t6.5 39.5t4 23.5q2 18 20 18l107 -3l147 3q12 0 12 -10q0 -11 -13.5 -27t-35.5 -50t-74.5 -108.5
l-76 -110t-23.5 -47.5q0 -9 49 -9l49 1q53 0 72 15q15 11 20.5 26.5t7.5 19.5q7 14 17 14q16 0 16 -14q0 -6 -13.5 -37t-17 -44t-6.5 -21q-6 -22 -18 -22h-114z" />
    <glyph glyph-name="braceleft" unicode="{" horiz-adv-x="273" 
d="M74 -174l3 376q0 22 -17.5 36.5t-17.5 29.5t18.5 25.5t18.5 27.5l-4 413q0 18 18 18l62 -8q20 0 40 3t32.5 3t12.5 -10q0 -24 -36.5 -39.5t-63.5 -15.5q-7 0 -7 -9l-3 -421l3 -360q0 -5 30.5 -12t43.5 -14q34 -19 34 -41q0 -9 -8 -9q-1 0 -11 3q-26 6 -59 6t-52 -7
t-25 -7q-12 0 -12 12z" />
    <glyph glyph-name="bar" unicode="|" horiz-adv-x="209" 
d="M127 -137l1 -26v-8q0 -38 -17 -38q-22 0 -27.5 10t-5.5 51v61l6 657v82l-1 86q0 13 5.5 18.5t19 5.5t18 -5.5t4.5 -19.5l-1 -23l2 -155l-5 -549q0 -97 1 -147z" />
    <glyph glyph-name="braceright" unicode="}" horiz-adv-x="273" 
d="M196 202l3 -376q0 -12 -12 -12q-7 0 -26 7t-43 7t-40.5 -2t-26.5 -4.5t-11 -2.5q-8 0 -8 9q0 22 34 41q13 7 32 11q42 10 42 15l3 360l-3 421q0 9 -7 9q-27 0 -63.5 15.5t-36.5 39.5q0 10 12.5 10t32.5 -3t40 -3l62 8q18 0 18 -18l-4 -413q0 -17 18.5 -27.5t18.5 -25.5
t-17.5 -29.5t-17.5 -36.5z" />
    <glyph glyph-name="asciitilde" unicode="~" horiz-adv-x="380" 
d="M29 172q0 4 14 25.5t40 44.5t50 23t59.5 -22.5t57.5 -22.5t39.5 12t27.5 24.5t14 12.5q20 0 20 -15q0 -5 -15 -25.5t-44 -42.5t-57.5 -22t-61 23t-52.5 23t-36 -13.5t-24.5 -27t-11.5 -13.5q-20 0 -20 16z" />
    <glyph glyph-name="uni00A0" unicode="&#xa0;" horiz-adv-x="213" 
 />
    <glyph glyph-name="exclamdown" unicode="&#xa1;" horiz-adv-x="276" 
d="M62.5 604.5q-3.5 4.5 -3.5 11.5t6.5 13.5t17.5 14t14.5 11t10.5 13.5t13.5 15.5t12.5 5.5t19.5 -11t19 -18.5t14.5 -15.5q21 -19 21 -31q0 -7 -7.5 -13t-12.5 -10.5l-9 -8t-12 -13.5q-18 -24 -32 -24q-6 0 -20.5 15t-25.5 24t-17 13t-9.5 8.5zM83 20q0 5 2 17.5t4.5 34
t11 149t23.5 246.5q2 11 13.5 11t11.5 -10q15 -176 17 -215q2 -65 7.5 -144t5.5 -90.5t-13.5 -21.5t-36.5 -10q-46 0 -46 33z" />
    <glyph glyph-name="cent" unicode="&#xa2;" horiz-adv-x="452" 
d="M270 356l-2 -311q0 -7 3 -10.5t26 -3.5t53 13t46.5 26t20.5 13q11 0 11 -10q0 -7 -14.5 -25t-51 -39.5t-82.5 -27.5q-11 -2 -12 -4.5t-1 -9.5v-58q0 -11 -19 -11t-19 9v64q0 7 -2.5 8.5t-7 1.5t-10.5 1q-13 1 -40 9q-61 21 -95.5 72.5t-34.5 127.5t41 139q46 68 130 92
q9 2 12 2t6 2.5t3 5.5v49q0 10 20 10t20 -9v-46q0 -6 2.5 -6.5l5 -1t8 -0.5h11.5q81 -7 90 -34q2 -11 2 -50t-11 -39q-9 0 -17 13q-15 25 -67 51q-14 7 -19.5 7t-5.5 -20zM122.5 294q-8.5 -31 -8.5 -67.5t10.5 -67.5t25 -51t30.5 -35q30 -28 44 -28q5 0 5 15q0 127 1 316
q0 10 -2.5 12t-12 2t-20.5 -3.5t-25.5 -15t-26.5 -29t-20.5 -48.5z" />
    <glyph glyph-name="sterling" unicode="&#xa3;" horiz-adv-x="557" 
d="M115 333l-80 -1q-14 0 -14 21.5t13 21.5h58q17 0 17 1.5t-7 23.5q-24 67 -24 122q0 98 60 147.5t134 49.5t124.5 -30t50.5 -74q0 -16 -14.5 -33t-24.5 -17t-15.5 9.5t-12.5 29t-18 36.5t-39.5 30t-68.5 13t-73.5 -28.5t-33.5 -89t48 -169.5q5 -13 8.5 -16.5t10.5 -3.5
h155q15 0 18 -3.5t3 -15.5t-1 -15q-2 -9 -22 -9h-122q-22 0 -22 -2.5t7 -22.5q20 -61 20 -90.5t-2 -45t-5.5 -28t-7.5 -24t-8.5 -21l-7.5 -15.5l-6 -12l-3 -5q62 -17 124 -17t97.5 16t50.5 34.5t26.5 34.5t15.5 16q13 0 13 -13.5t-4.5 -30.5t-16.5 -39t-28.5 -41
t-44.5 -31.5t-62 -12.5q-82 0 -199 44q-1 0 -32 -19t-64.5 -19t-49.5 16t-16 38t16.5 39.5t42.5 17.5t44.5 -5t30.5 -10.5t14 -5.5q5 4 12.5 26.5t7.5 43.5q0 48 -48 162q-1 2 -3 6.5t-3 5.5q-3 7 -4 7.5t-3.5 1.5t-4.5 1h-7zM58 44q0 -10 9.5 -18.5t23 -8.5t27.5 7
q20 10 28 23q-3 4 -23 10t-37 6q-28 0 -28 -19z" />
    <glyph glyph-name="currency" unicode="&#xa4;" horiz-adv-x="527" 
d="M27 26q-7 8 -7 19t18 29l68 69q-39 51 -39 118t38 118l-67 69q-18 18 -18 30t8 19.5t19.5 7.5t29.5 -18l69 -69q52 39 117 39t118 -39l69 69q17 17 29.5 17t20 -8t7.5 -19t-18 -29l-69 -70q41 -56 41 -117.5t-41 -116.5l69 -70q18 -18 18 -30t-8.5 -19.5t-19.5 -7.5
t-29 18l-69 69q-52 -39 -118 -39t-117 38l-69 -68q-17 -17 -30 -17t-20 8zM124 260q0 -59 41 -99.5t98 -40.5t98.5 41.5t41.5 99.5t-41.5 100.5t-99 42.5t-98 -42.5t-40.5 -101.5z" />
    <glyph glyph-name="yen" unicode="&#xa5;" horiz-adv-x="712" 
d="M301 360l-15 1h-100q-16 0 -20 5t-4 15.5t1 14.5q3 9 25 9q91 0 91 2t-14 24l-98 146q-30 44 -54 67t-37 27t-34.5 4t-21.5 12t11.5 15t50.5 3l58 -2l85 1q50 0 50 -11.5t-21 -19t-21 -17t6.5 -25.5t13 -26l19.5 -29l30 -46t52.5 -75.5t40.5 -48.5h8q7 0 14 10.5
l12.5 19.5l15.5 25.5t17 27l18.5 27.5l16 24l13.5 21.5t13 22t9 18.5q10 18 10 34t-11.5 26t-25.5 10q-37 2 -37 21q0 12 28 12l41 -1l106 -1q49 0 49 -15q0 -4 -6 -7t-17 -8t-20 -12q-46 -37 -135 -176l-31 -47q-5 -7 -11 -14q-9 -12 -9 -15.5t112 -3.5q14 0 14 -21.5
t-14 -21.5l-137 -1q-8 0 -12 -5q-12 -15 -12 -102q0 -8 1.5 -10.5t7.5 -2.5l14 1h125q16 0 19.5 -4.5t3.5 -15.5t-1 -15q-2 -10 -24 -10l-129 -1q-11 0 -14 -2t-3 -7v-11l1 -43v-24q0 -33 11.5 -52.5t21.5 -23.5t20 -4l20 -4q15 0 15 -11q0 -14 -18 -14l-97 1l-119 -5
q-25 0 -25 12q0 9 4.5 12t17.5 4q60 5 60 65l1 37q1 36 1 51.5t-3 17.5t-14 2h-63l-75 1q-14 0 -14 21.5t13 21.5h135q14 0 18 3t4 14l-1 34q0 26 -7 46.5t-20 21.5z" />
    <glyph glyph-name="brokenbar" unicode="&#xa6;" horiz-adv-x="208" 
d="M127 -8l1 -132v-31q0 -38 -17 -38q-22 0 -27.5 10t-5.5 51l1 66l1 258q0 25 26 25q13 0 17 -5.5t4 -19.5v-184zM83 414v324q0 13 5.5 18.5t19 5.5t18 -5.5t4.5 -19.5v-346q0 -38 -16 -38q-22 0 -26.5 9.5t-4.5 51.5z" />
    <glyph glyph-name="section" unicode="&#xa7;" horiz-adv-x="542" 
d="M394 693l23 7q17 0 18 -10q20 -131 20 -135q0 -29 -12 -29t-19 15t-12.5 35.5t-25.5 45.5q-47 61 -137 61q-57 0 -86.5 -32t-29.5 -69.5t47 -64.5q23 -13 67.5 -28.5t81.5 -30t74 -36.5q80 -46 80 -135q0 -58 -19 -89q-26 -44 -47 -58q-10 -6 -10 -9t9.5 -8t24.5 -19.5
t26.5 -43t11.5 -51.5q0 -88 -62 -139t-157 -51q-45 0 -78 7t-78 31q-15 8 -29.5 75t-14.5 87.5t14 20.5t19 -12q19 -52 30.5 -68.5l21.5 -30t23 -25t28 -20.5q31 -20 83 -20t98 29.5t46 83.5q0 28 -27 50t-67.5 36t-87.5 33t-87.5 39.5t-67.5 56.5t-27 75.5t10.5 66t25.5 42
t29.5 26t25 16t10.5 8t-14 11.5l-30 20t-30 36.5t-14 58.5q0 73 55 120.5t137 47.5q48 0 86.5 -13.5t43.5 -13.5zM154 376q-35 -28 -35 -72.5t58 -78.5q28 -18 106 -45t81 -27q15 0 39 32.5t24 67.5q0 70 -112 114q-97 37 -111.5 37t-49.5 -28z" />
    <glyph glyph-name="dieresis" unicode="&#xa8;" horiz-adv-x="439" 
d="M103 591q0 14 15.5 32.5t32 18.5t32 -17.5t15.5 -33.5t-17.5 -34.5t-25.5 -18.5q-20 0 -36 19.5t-16 33.5zM263 591q0 14 15.5 32.5t32 18.5t32 -17.5t15.5 -33.5t-17.5 -34.5t-26.5 -18.5q-20 0 -35.5 19.5t-15.5 33.5z" />
    <glyph glyph-name="copyright" unicode="&#xa9;" horiz-adv-x="796" 
d="M149 82.5q-105 103.5 -105 251t103.5 253t252 105.5t252.5 -105.5t104 -251t-103 -251t-251 -105.5t-253 103.5zM177 556.5q-91 -92.5 -91 -222.5t93 -221.5t221 -91.5t221 91t93 221t-91 223t-223 93t-223 -92.5zM164 322q0 102 62.5 169.5t174.5 67.5q38 0 76.5 -11
t61 -22t24 -11t4.5 3t7.5 3t7.5 -2t4.5 -9t1.5 -14q3 -36 6 -54t3 -20q0 -15 -13 -15q-8 0 -14 11q-59 107 -169 107q-75 0 -123 -46t-48 -121q0 -70 40 -136q20 -34 62 -55t99 -21q80 0 136 79q6 9 10.5 20t7.5 14.5t12 3.5q7 0 7 -8q0 -25 -12 -83q-2 -10 -13 -14
q-82 -41 -124 -46q-19 -3 -40 -3q-63 0 -110.5 17t-73.5 40.5t-42 55.5q-25 49 -25 100z" />
    <glyph glyph-name="ordfeminine" unicode="&#xaa;" horiz-adv-x="302" 
d="M267 413l13 1q8 0 8 -10q0 -14 -17 -14h-24q-17 0 -29.5 10t-18.5 20l-6 10q-1 0 -5 -4.5t-11.5 -11t-17.5 -12.5q-24 -16 -52 -16q-78 0 -78 60q0 29 22.5 47t44 23.5t51 10.5t32.5 6q11 2 11 9l1 29q0 34 -19.5 49.5t-38.5 15.5q-43 0 -43 -35l3 -21q0 -12 -14 -12
q-29 0 -37.5 8.5t-8.5 15.5q0 25 34.5 46.5t73.5 21.5t62 -8t31 -22q12 -22 12 -46l-4 -114q0 -35 6 -46t19 -11zM186 521l-25 -4t-29.5 -7t-23.5 -10q-20 -14 -20 -40q0 -43 46 -43q26 0 39.5 12t15 22t1.5 25v40q0 5 -4 5z" />
    <glyph glyph-name="guillemotleft" unicode="&#xab;" horiz-adv-x="360" 
d="M158 208q-6 4 -6 9t6 10q144 121 147 122q5 0 10.5 -6.5t5.5 -11.5t-47.5 -57t-47.5 -57.5t46.5 -58t46.5 -57t-5 -11t-9.5 -6.5t-51.5 41.5zM20 216q0 5 6 11l91.5 78.5t55 43.5t10 -6.5t5.5 -12t-46.5 -57t-46.5 -57t46.5 -57t46.5 -57t-6 -12t-10.5 -6.5t-55 44.5
l-91.5 79.5q-5 3 -5 8z" />
    <glyph glyph-name="logicalnot" unicode="&#xac;" horiz-adv-x="527" 
d="M34 193.5q-3 5.5 -3 22t19 16.5h427q13 0 16.5 -3t3.5 -16v-158q0 -15 -16 -15h-17q-12 2 -12 20v111q0 17 -26 17h-376q-13 0 -16 5.5z" />
    <glyph glyph-name="uni00AD" unicode="&#xad;" horiz-adv-x="340" 
d="M44 145v11q0 29 9.5 37t55 21.5t86.5 28t55.5 20t23.5 5.5q22 0 22 -34v-6q0 -23 -10 -31q-9 -6 -23 -10q-59 -16 -103 -32t-56 -21q-30 -10 -45 -10t-15 21z" />
    <glyph glyph-name="registered" unicode="&#xae;" horiz-adv-x="478" 
d="M90 398.5q-61 61.5 -61 148.5t61 148.5t148 61.5t149 -61.5t62 -148.5t-62 -148.5t-149 -61.5t-148 61.5zM112 673q-53 -53 -53 -126t53 -125.5t126 -52.5t126.5 52.5t53.5 125.5t-53.5 126t-126.5 53t-126 -53zM163 529l1 96q0 26 -30 26q-11 0 -11 7q0 9 12 9h23l76 2
q37 0 62 -15.5t25 -48.5q0 -19 -11.5 -30.5t-22.5 -15.5t-11 -5t4 -5q15 -17 23.5 -33t31.5 -47q12 -15 21 -15h2q3 1 6 1t3 -4.5t-6 -10.5t-19.5 -6t-27.5 8t-42 55.5t-36 49.5h-25q-7 0 -8.5 -3t-1.5 -27t4 -42.5t22 -22t18 -9t-7 -5.5l-51 2q-11 0 -28 -1l-17 -1
q-7 0 -7 7q0 4 12.5 7t14 16.5t1.5 36.5v24zM215 562l14 -1q30 0 41.5 9t11.5 29t-15.5 36.5t-48.5 16.5q-11 0 -14 -4t-3 -19v-33q0 -20 2.5 -27t11.5 -7z" />
    <glyph glyph-name="macron" unicode="&#xaf;" horiz-adv-x="439" 
d="M311 563l-188 1q-10 0 -10 22t16 22l181 -2q9 0 12 -5t3 -19q0 -19 -14 -19z" />
    <glyph glyph-name="degree" unicode="&#xb0;" horiz-adv-x="259" 
d="M59.5 679.5q29.5 33.5 75 33.5t70.5 -35.5t25 -77t-37.5 -69t-65 -27.5t-49.5 12t-32 31q-16 33 -16 66t29.5 66.5zM91 651.5q-19 -17.5 -19 -43.5t16.5 -43t42.5 -17q24 0 40.5 18.5t16.5 41.5q0 61 -57 61q-21 0 -40 -17.5z" />
    <glyph glyph-name="plusminus" unicode="&#xb1;" horiz-adv-x="527" 
d="M31 90q0 11 1 16q1 11 17 11h429q11 0 14.5 -4t3.5 -16.5t-3.5 -18t-17.5 -5.5h-427q-9 0 -13 3t-4 14zM31 324q0 22 18 22h181q11 0 11 10v139q0 15 17 15t22 -3t5 -14v-136q0 -11 12 -11h183q16 0 16 -15q0 -20 -5.5 -25t-15.5 -5h-178q-12 0 -12 -17v-132
q0 -14 -16.5 -14t-22 2.5t-5.5 11.5v132q0 10 -2.5 13.5t-13.5 3.5h-177q-12 0 -14.5 5t-2.5 18z" />
    <glyph glyph-name="uni00B2" unicode="&#xb2;" 
d="M132 398l-70 -1q-20 0 -20 7v2q0 6 17.5 25.5t51 68t62.5 109.5t29 114q0 25 -16.5 40.5t-44 15.5t-46.5 -9t-29 -18t-14.5 -9t-4.5 6t4 14t14 19.5t23 21.5q32 26 74.5 26t72.5 -21.5t30 -64t-38 -111.5t-76 -120t-38 -54.5t26 -3.5h61l40 2q2 0 7.5 2.5l11 5t19.5 16
t18 13.5q7 0 7 -6l-43 -79q-9 -13 -21 -13z" />
    <glyph glyph-name="uni00B3" unicode="&#xb3;" 
d="M147 614l-19 -2q-8 0 -8 9q0 4 9 9q10 5 42.5 30t32.5 64q0 23 -15 39t-37.5 16t-49 -17t-30 -17t-3.5 5q0 18 36.5 46t70 28t60 -18t26.5 -53q0 -20 -9.5 -37.5t-18.5 -26t-25 -21t-16 -15.5q0 -1 7 -3q29 -5 50 -18q47 -30 47 -80q0 -72 -47.5 -120.5t-111.5 -48.5
q-35 0 -66.5 15t-31.5 31q0 10 13 10q3 0 11 -7q23 -20 69 -20t73.5 39t27.5 77t-20 62t-67 24z" />
    <glyph glyph-name="acute" unicode="&#xb4;" horiz-adv-x="439" 
d="M181 491q0 5 7 15q32 48 68 137q8 19 20 19t32.5 -6.5t20.5 -19.5q0 -23 -97 -125q-29 -31 -40 -31t-11 11z" />
    <glyph glyph-name="uni00B5" unicode="&#xb5;" horiz-adv-x="536" 
d="M40 -199q-30 0 -30 49t9.5 96t28.5 114q33 111 55.5 224t26.5 125t12.5 12t27 -6t18.5 -17.5t-25 -154.5t-25 -163q0 -36 20 -36q34 0 82 56q77 91 147 254q14 33 17 44.5t4 14t2 4.5t2.5 3t3.5 1h5q13 0 28 -6.5t15 -14.5q0 -3 -31 -150t-31 -166q0 -34 25 -34
q22 0 41 36t27 36q11 0 11 -17q0 -36 -42 -81t-95 -45q-40 0 -40 72q0 26 9.5 86t9.5 63.5t-2.5 3.5t-11.5 -18q-36 -65 -79 -112q-84 -92 -143 -92q-15 0 -24.5 10.5t-13 21.5t-5 11t-6.5 -19q-13 -51 -13 -80.5t13 -60t13 -36t-8.5 -17t-27.5 -11.5z" />
    <glyph glyph-name="paragraph" unicode="&#xb6;" horiz-adv-x="505" 
d="M304 86l-3 221q0 14 -30 14t-57 3t-61 14t-56 29.5t-37.5 54t-15.5 83.5q0 92 63 151t136 59l134 1l60 2h12q3 0 6 -4t3 -8.5t-7.5 -8t-19.5 -8.5t-22.5 -16.5t-10.5 -61.5l-3 -517q0 -119 -52.5 -199t-138.5 -80q-40 0 -67 15q-8 4 -8 23t10.5 44t19.5 25t21 -38
q4 -15 18.5 -27t38.5 -12q66 0 66 210zM302 404l-2 113q0 102 1.5 117t1.5 18q0 41 -28 41q-30 0 -37 -21q-8 -26 -9.5 -49.5t-1.5 -119.5q0 -153 48 -153q9 0 18 5.5t9 13.5v35zM371 120l-2 558q0 8 -7 13t-20.5 5t-13.5 -13q-2 -128 -2 -177l1 -150q0 -99 1 -214l2 -116
q0 -40 -1.5 -56.5t-1.5 -17.5q0 -11 7 -11q4 0 12.5 21t16.5 65t8 93z" />
    <glyph glyph-name="periodcentered" unicode="&#xb7;" horiz-adv-x="252" 
d="M91.5 296.5q-14.5 21.5 -14.5 35t17 34.5t32.5 21t31 -20.5t15.5 -36.5t-19 -35.5t-28 -19.5q-20 0 -34.5 21.5z" />
    <glyph glyph-name="cedilla" unicode="&#xb8;" horiz-adv-x="439" 
d="M170 -79q0 3 11 11t17 13q11 11 19 11t19 -5.5t23.5 -20.5t12.5 -35q0 -43 -32 -69.5t-46 -26.5t-14 7q0 3 11 9q31 16 31 46q0 28 -39 46q-13 6 -13 14z" />
    <glyph glyph-name="uni00B9" unicode="&#xb9;" 
d="M148 673l1 45v8q0 36 -21 36q-8 0 -19 -6t-15.5 -6t-5.5 1q-6 4 -6 12.5t7.5 13t30.5 12t36.5 14t23.5 13.5q20 15 25 15q10 0 10 -14l-6 -30q-4 -100 -4 -200l-2 -119q0 -34 17 -40q19 -6 43 -6q12 -2 12 -13.5t-35 -11.5l-62 1l-74 -2q-19 0 -19 12q0 14 20 14t27.5 4
t11.5 34t4 108v105z" />
    <glyph glyph-name="ordmasculine" unicode="&#xba;" horiz-adv-x="363" 
d="M68.5 424q-39.5 40 -39.5 95.5t41 97t107.5 41.5t111.5 -36.5t45 -100.5t-46.5 -100.5t-113 -36.5t-106 40zM112.5 614q-24.5 -24 -24.5 -79.5t33 -91.5t71 -36t61.5 25t23.5 75t-28.5 90.5t-80.5 40.5q-31 0 -55.5 -24z" />
    <glyph glyph-name="guillemotright" unicode="&#xbb;" horiz-adv-x="360" 
d="M44.5 90.5q-5.5 6.5 -5.5 12t47.5 58t47.5 56.5t-46.5 57t-46.5 57.5t5 11t9.5 6.5t51.5 -41.5l95 -82.5q6 -4 6 -9t-7 -10l-95 -81.5t-51.5 -40.5t-10 6.5zM177 90.5q-6 6.5 -6 12t47 56.5t47 57t-46.5 59.5t-46.5 57t5.5 10t10 6.5t37.5 -29l43 -38l50 -43t22 -22
t-7 -11l-98 -84t-48 -38t-10 6.5z" />
    <glyph glyph-name="onequarter" unicode="&#xbc;" horiz-adv-x="913" 
d="M685 135l-72 -1q-18 0 -18 10.5t24.5 43l92.5 117t77 96.5t15 19q14 18 24 18t10 -12l-7 -223q0 -9 1 -11.5t16.5 -2.5t27.5 8.5t15 8.5q7 0 7 -9q0 -3 -7 -31q-5 -31 -15 -31l-35 1q-12 0 -12 -11l2 -80v-53q0 -22 -3 -24.5t-22 -6.5t-27 -4t-12 5t-4 8t1.5 7.5t3.5 15
t4 26.5q4 48 4 113q0 4 -5 4h-8l-31 -1h-47zM660 192q0 -6 18 -6h81q17 0 17 7v6l1 26q2 52 2 87t-3.5 35t-59.5 -73t-56 -82zM196 -72q0 10 103.5 165.5l162.5 243.5l119.5 178.5l66 99t9.5 15.5q15 20 21 20t12.5 -4.5t6.5 -10.5t-8 -19l-435 -663q-26 -40 -31.5 -42
t-9.5 -2q-17 0 -17 19zM148 496l1 45v8q0 36 -21 36q-8 0 -19 -6t-15.5 -6t-5.5 1q-6 4 -6 12.5t7.5 13t30.5 12t36.5 14t23.5 13.5q20 15 25 15q10 0 10 -14l-6 -30q-4 -100 -4 -200l-2 -119q0 -34 17 -40q19 -6 43 -6q12 -2 12 -13.5t-35 -11.5l-62 1l-74 -2q-19 0 -19 12
q0 14 20 14t27.5 4t11.5 34t4 108v105z" />
    <glyph glyph-name="onehalf" unicode="&#xbd;" horiz-adv-x="913" 
d="M708 12l-70 -1q-20 0 -20 7v2q0 6 17.5 25.5t51 68t62.5 109.5t29 114q0 25 -16.5 40.5t-44 15.5t-46.5 -9t-29 -18t-14.5 -9t-4.5 6t4 14t14 19.5t23 21.5q32 26 74.5 26t72.5 -21.5t30 -64t-38 -111.5t-76 -120t-38 -54.5t26 -3.5h61l40 2q2 0 7.5 2.5l11 5t19.5 16
t18 13.5q7 0 7 -6l-43 -79q-9 -13 -21 -13zM196 -72q0 10 103.5 165.5l162.5 243.5l119.5 178.5l66 99t9.5 15.5q15 20 21 20t12.5 -4.5t6.5 -10.5t-8 -19l-435 -663q-26 -40 -31.5 -42t-9.5 -2q-17 0 -17 19zM148 496l1 45v8q0 36 -21 36q-8 0 -19 -6t-15.5 -6t-5.5 1
q-6 4 -6 12.5t7.5 13t30.5 12t36.5 14t23.5 13.5q20 15 25 15q10 0 10 -14l-6 -30q-4 -100 -4 -200l-2 -119q0 -34 17 -40q19 -6 43 -6q12 -2 12 -13.5t-35 -11.5l-62 1l-74 -2q-19 0 -19 12q0 14 20 14t27.5 4t11.5 34t4 108v105z" />
    <glyph glyph-name="threequarters" unicode="&#xbe;" horiz-adv-x="913" 
d="M685 135l-72 -1q-18 0 -18 10.5t24.5 43l92.5 117t77 96.5t15 19q14 18 24 18t10 -12l-7 -223q0 -9 1 -11.5t16.5 -2.5t27.5 8.5t15 8.5q7 0 7 -9q0 -3 -7 -31q-5 -31 -15 -31l-35 1q-12 0 -12 -11l2 -80v-53q0 -22 -3 -24.5t-22 -6.5t-27 -4t-12 5t-4 8t1.5 7.5t3.5 15
t4 26.5q4 48 4 113q0 4 -5 4h-8l-31 -1h-47zM660 192q0 -6 18 -6h81q17 0 17 7v6l1 26q2 52 2 87t-3.5 35t-59.5 -73t-56 -82zM196 -72q0 10 103.5 165.5l162.5 243.5l119.5 178.5l66 99t9.5 15.5q15 20 21 20t12.5 -4.5t6.5 -10.5t-8 -19l-435 -663q-26 -40 -31.5 -42
t-9.5 -2q-17 0 -17 19zM147 437l-19 -2q-8 0 -8 9q0 4 9 9q10 5 42.5 30t32.5 64q0 23 -15 39t-37.5 16t-49 -17t-30 -17t-3.5 5q0 18 36.5 46t70 28t60 -18t26.5 -53q0 -20 -9.5 -37.5t-18.5 -26t-25 -21t-16 -15.5q0 -1 7 -3q29 -5 50 -18q47 -30 47 -80
q0 -72 -47.5 -120.5t-111.5 -48.5q-35 0 -66.5 15t-31.5 31q0 10 13 10q3 0 11 -7q23 -20 69 -20t73.5 39t27.5 77t-20 62t-67 24z" />
    <glyph glyph-name="questiondown" unicode="&#xbf;" horiz-adv-x="350" 
d="M177 413l-6 46q0 10 8 10q15 0 23.5 -28t8.5 -57.5t-45.5 -133.5t-45.5 -138.5t32 -55t54.5 -20.5t40.5 13t19 13q8 0 8 -13.5t-31.5 -35.5t-78.5 -22t-87.5 30t-40.5 84q0 33 22 75t48.5 76t48.5 78t22 79zM133 575q-25 20 -25 28t6 14t15.5 11.5t13.5 9.5t11 14
t13 15.5t12 5.5t19.5 -11t18.5 -18t20 -19t15 -21.5t-35 -39.5q-3 -3 -12 -13q-17 -19 -24.5 -19t-15 7.5t-14.5 17t-8 10.5z" />
    <glyph glyph-name="Agrave" unicode="&#xc0;" horiz-adv-x="812" 
d="M295 900q0 13 21 19.5t32.5 6.5t22.5 -26.5t24.5 -54.5t22 -42l14.5 -24l9 -15q3 -5 3 -9q0 -11 -11 -11t-40 31q-98 103 -98 125zM135 0l-86 -4q-29 0 -29 12q0 14 15 19q32 12 56 53.5t120.5 251l171.5 369.5q7 15 12.5 19t16 4t13.5 -4t11 -27l12.5 -35l14.5 -39
t32 -81l100.5 -236.5t90.5 -207t33 -42t36.5 -19t26 -5t10.5 -15.5q0 -15 -27 -15l-90 6l-93 -4q-31 0 -39.5 2.5t-8.5 10.5t8 12.5t17 6t17 9t8 25t-25 85.5t-42 100q-9 17 -41 17l-121 -2h-53q-45 0 -56.5 -5t-19 -21l-21.5 -44.5t-19 -39.5t-12 -28q-13 -30 -13 -50
t11.5 -32t25.5 -14q37 -3 37 -19q0 -7 -3 -10.5t-14 -3.5zM319 459.5q-48 -110.5 -48 -122.5t9 -15t42 -3h31l95 1q39 0 39 14.5t-49 125t-62 110.5q-9 0 -57 -110.5z" />
    <glyph glyph-name="Aacute" unicode="&#xc1;" horiz-adv-x="812" 
d="M367 755q0 5 7 15q32 48 68 137q8 19 20 19t32.5 -6.5t20.5 -19.5q0 -23 -97 -125q-29 -31 -40 -31t-11 11zM135 0l-86 -4q-29 0 -29 12q0 14 15 19q32 12 56 53.5t120.5 251l171.5 369.5q7 15 12.5 19t16 4t13.5 -4t11 -27l12.5 -35l14.5 -39t32 -81l100.5 -236.5
t90.5 -207t33 -42t36.5 -19t26 -5t10.5 -15.5q0 -15 -27 -15l-90 6l-93 -4q-31 0 -39.5 2.5t-8.5 10.5t8 12.5t17 6t17 9t8 25t-25 85.5t-42 100q-9 17 -41 17l-121 -2h-53q-45 0 -56.5 -5t-19 -21l-21.5 -44.5t-19 -39.5t-12 -28q-13 -30 -13 -50t11.5 -32t25.5 -14
q37 -3 37 -19q0 -7 -3 -10.5t-14 -3.5zM319 459.5q-48 -110.5 -48 -122.5t9 -15t42 -3h31l95 1q39 0 39 14.5t-49 125t-62 110.5q-9 0 -57 -110.5z" />
    <glyph glyph-name="Acircumflex" unicode="&#xc2;" horiz-adv-x="812" 
d="M293 763q0 1 4 9q62 91 71 111t12 23q5 6 11 6h25q11 0 17 -11q25 -44 55.5 -88.5t30.5 -48.5q0 -8 -9 -8t-55.5 42.5t-51 42.5t-49 -42t-53 -42t-8.5 6zM135 0l-86 -4q-29 0 -29 12q0 14 15 19q32 12 56 53.5t120.5 251l171.5 369.5q7 15 12.5 19t16 4t13.5 -4t11 -27
l12.5 -35l14.5 -39t32 -81l100.5 -236.5t90.5 -207t33 -42t36.5 -19t26 -5t10.5 -15.5q0 -15 -27 -15l-90 6l-93 -4q-31 0 -39.5 2.5t-8.5 10.5t8 12.5t17 6t17 9t8 25t-25 85.5t-42 100q-9 17 -41 17l-121 -2h-53q-45 0 -56.5 -5t-19 -21l-21.5 -44.5t-19 -39.5t-12 -28
q-13 -30 -13 -50t11.5 -32t25.5 -14q37 -3 37 -19q0 -7 -3 -10.5t-14 -3.5zM319 459.5q-48 -110.5 -48 -122.5t9 -15t42 -3h31l95 1q39 0 39 14.5t-49 125t-62 110.5q-9 0 -57 -110.5z" />
    <glyph glyph-name="Atilde" unicode="&#xc3;" horiz-adv-x="812" 
d="M258 794q0 17 33.5 61.5t60.5 44.5t65 -24t60 -24t42.5 28t22.5 28q10 0 10 -15t-33 -57t-61 -42t-67.5 24t-57.5 24t-31.5 -14t-22 -28t-11.5 -14q-10 0 -10 8zM135 0l-86 -4q-29 0 -29 12q0 14 15 19q32 12 56 53.5t120.5 251l171.5 369.5q7 15 12.5 19t16 4t13.5 -4
t11 -27l12.5 -35l14.5 -39t32 -81l100.5 -236.5t90.5 -207t33 -42t36.5 -19t26 -5t10.5 -15.5q0 -15 -27 -15l-90 6l-93 -4q-31 0 -39.5 2.5t-8.5 10.5t8 12.5t17 6t17 9t8 25t-25 85.5t-42 100q-9 17 -41 17l-121 -2h-53q-45 0 -56.5 -5t-19 -21l-21.5 -44.5t-19 -39.5
t-12 -28q-13 -30 -13 -50t11.5 -32t25.5 -14q37 -3 37 -19q0 -7 -3 -10.5t-14 -3.5zM319 459.5q-48 -110.5 -48 -122.5t9 -15t42 -3h31l95 1q39 0 39 14.5t-49 125t-62 110.5q-9 0 -57 -110.5z" />
    <glyph glyph-name="Adieresis" unicode="&#xc4;" horiz-adv-x="812" 
d="M289 855q0 14 15.5 32.5t32 18.5t32 -17.5t15.5 -33.5t-17.5 -34.5t-25.5 -18.5q-20 0 -36 19.5t-16 33.5zM449 855q0 14 15.5 32.5t32 18.5t32 -17.5t15.5 -33.5t-17.5 -34.5t-26.5 -18.5q-20 0 -35.5 19.5t-15.5 33.5zM135 0l-86 -4q-29 0 -29 12q0 14 15 19
q32 12 56 53.5t120.5 251l171.5 369.5q7 15 12.5 19t16 4t13.5 -4t11 -27l12.5 -35l14.5 -39t32 -81l100.5 -236.5t90.5 -207t33 -42t36.5 -19t26 -5t10.5 -15.5q0 -15 -27 -15l-90 6l-93 -4q-31 0 -39.5 2.5t-8.5 10.5t8 12.5t17 6t17 9t8 25t-25 85.5t-42 100
q-9 17 -41 17l-121 -2h-53q-45 0 -56.5 -5t-19 -21l-21.5 -44.5t-19 -39.5t-12 -28q-13 -30 -13 -50t11.5 -32t25.5 -14q37 -3 37 -19q0 -7 -3 -10.5t-14 -3.5zM319 459.5q-48 -110.5 -48 -122.5t9 -15t42 -3h31l95 1q39 0 39 14.5t-49 125t-62 110.5q-9 0 -57 -110.5z" />
    <glyph glyph-name="Aring" unicode="&#xc5;" horiz-adv-x="812" 
d="M333.5 823q-4.5 16 -4.5 37t23 46.5t57.5 25.5t53 -27t18.5 -58.5t-28.5 -52t-53 -20.5t-43 16.5t-23 32.5zM379.5 881.5q-12.5 -11.5 -12.5 -28.5t11 -28.5t22 -11.5t18.5 2.5t16 12t8.5 24.5q0 41 -37 41q-14 0 -26.5 -11.5zM135 0l-86 -4q-29 0 -29 12q0 14 15 19
q32 12 56 53.5t120.5 251l171.5 369.5q7 15 12.5 19t16 4t13.5 -4t11 -27l12.5 -35l14.5 -39t32 -81l100.5 -236.5t90.5 -207t33 -42t36.5 -19t26 -5t10.5 -15.5q0 -15 -27 -15l-90 6l-93 -4q-31 0 -39.5 2.5t-8.5 10.5t8 12.5t17 6t17 9t8 25t-25 85.5t-42 100
q-9 17 -41 17l-121 -2h-53q-45 0 -56.5 -5t-19 -21l-21.5 -44.5t-19 -39.5t-12 -28q-13 -30 -13 -50t11.5 -32t25.5 -14q37 -3 37 -19q0 -7 -3 -10.5t-14 -3.5zM319 459.5q-48 -110.5 -48 -122.5t9 -15t42 -3h31l95 1q39 0 39 14.5t-49 125t-62 110.5q-9 0 -57 -110.5z" />
    <glyph glyph-name="AE" unicode="&#xc6;" horiz-adv-x="993" 
d="M135 0l-86 -4q-29 0 -29 12q0 14 16 19q31 12 55 49t122.5 228.5l175.5 337.5q5 10 5 19q0 14 -52 19q-23 1 -23 19q0 15 30 15q7 0 134 -3.5t225 -3.5l200 3q18 0 18 -23q0 -6 -5.5 -39.5t-5.5 -52.5q0 -32 -15.5 -32t-15.5 24t-17.5 46t-42.5 23q-90 7 -137 7h-26
q-52 0 -61 -8t-11.5 -57.5t-2.5 -162.5q0 -50 18 -51h99q59 0 79 4t33.5 13t19 19.5t6.5 17.5q2 19 15 19q9 0 11 -3t2 -11.5t-4.5 -47.5t-4.5 -59l4 -61q0 -25 -7 -25q-14 0 -24 32.5t-23 40.5q-21 14 -74 14h-72l-32 1h-6q-41 0 -41 -19l-2 -144v-40q0 -72 24 -79.5
t42 -7.5q89 0 151 10t89 24t40.5 27.5t19 23.5t12.5 10q12 0 12 -17q0 -43 -43.5 -87t-75.5 -44q-72 0 -162 5t-112 5l-137 -9q-20 0 -20 10v12q0 6 9 8q12 1 35 12t30.5 45.5t7.5 146.5v28q0 5 -6 5l-84 2h-31l-76 1q-39 0 -50.5 -5.5t-18.5 -19.5l-18.5 -35.5l-16.5 -30.5
l-12 -25q-26 -52 -26 -76.5t17.5 -34t35 -12t17.5 -13.5q0 -15 -17 -15zM290 335q0 -16 50 -16h91q52 0 62.5 4t10.5 25v254q0 50 -14 62q-7 5 -19.5 5t-25.5 -21q-32 -55 -93.5 -179t-61.5 -134z" />
    <glyph glyph-name="Ccedilla" unicode="&#xc7;" horiz-adv-x="807" 
d="M398 -79q0 3 11 11t17 13q11 11 19 11t19 -5.5t23.5 -20.5t12.5 -35q0 -43 -32 -69.5t-46 -26.5t-14 7q0 3 11 9q31 16 31 46q0 28 -39 46q-13 6 -13 14zM86 520q42 87 129.5 140.5t207.5 53.5q61 0 123 -18t99 -36l37 -19q3 0 10 5t11.5 5t9.5 -4t5.5 -22.5t4 -51
t6.5 -53.5t3 -25q0 -18 -12 -18q-9 0 -17 14q-97 182 -280 182q-125 0 -205 -80t-80 -209q0 -144 74 -246q38 -52 104 -82t154 -30q144 0 242 150q4 7 15 7q9 0 9 -12.5t-3.5 -31t-8.5 -41t-6 -27.5q-2 -11 -16 -18q-54 -26 -84 -39q-80 -34 -170.5 -34t-160.5 21t-114.5 55
t-74.5 80q-54 81 -54 189t42 195z" />
    <glyph glyph-name="Egrave" unicode="&#xc8;" horiz-adv-x="604" 
d="M198 900q0 13 21 19.5t32.5 6.5t22.5 -26.5t24.5 -54.5t22 -42l14.5 -24l9 -15q3 -5 3 -9q0 -11 -11 -11t-40 31q-98 103 -98 125zM116 355l3 173q0 27 -2 91q-1 29 -25 45t-56 17q-16 0 -16 18q0 14 28 14l27 -2l244 -5l200 4q19 0 19 -23q0 -6 -6 -39.5t-6 -52.5
q0 -32 -15.5 -32t-15.5 24t-17 46t-42 23q-90 7 -138 7h-26q-52 0 -60 -7q-15 -13 -15 -221q0 -50 19 -51h98q60 0 80 4q52 10 59 52q3 17 13 17t12 -3t2 -13l-8 -105l3 -61q0 -25 -7 -25q-15 0 -22 24q-14 42 -25 49q-21 14 -73 14h-72l-32 1h-7q-41 0 -41 -19l-2 -144v-40
q0 -72 24.5 -79.5t42.5 -7.5q150 0 217 24q59 22 72 46q12 25 22 25q12 0 12 -17q0 -43 -43 -87t-75 -44q-72 0 -162.5 5t-112.5 5l-136 -9q-21 0 -21 10v12q0 6 10 8q11 1 34 12t30.5 46t7.5 147v124z" />
    <glyph glyph-name="Eacute" unicode="&#xc9;" horiz-adv-x="604" 
d="M270 755q0 5 7 15q32 48 68 137q8 19 20 19t32.5 -6.5t20.5 -19.5q0 -23 -97 -125q-29 -31 -40 -31t-11 11zM116 355l3 173q0 27 -2 91q-1 29 -25 45t-56 17q-16 0 -16 18q0 14 28 14l27 -2l244 -5l200 4q19 0 19 -23q0 -6 -6 -39.5t-6 -52.5q0 -32 -15.5 -32t-15.5 24
t-17 46t-42 23q-90 7 -138 7h-26q-52 0 -60 -7q-15 -13 -15 -221q0 -50 19 -51h98q60 0 80 4q52 10 59 52q3 17 13 17t12 -3t2 -13l-8 -105l3 -61q0 -25 -7 -25q-15 0 -22 24q-14 42 -25 49q-21 14 -73 14h-72l-32 1h-7q-41 0 -41 -19l-2 -144v-40q0 -72 24.5 -79.5
t42.5 -7.5q150 0 217 24q59 22 72 46q12 25 22 25q12 0 12 -17q0 -43 -43 -87t-75 -44q-72 0 -162.5 5t-112.5 5l-136 -9q-21 0 -21 10v12q0 6 10 8q11 1 34 12t30.5 46t7.5 147v124z" />
    <glyph glyph-name="Ecircumflex" unicode="&#xca;" horiz-adv-x="604" 
d="M196 763q0 1 4 9q62 91 71 111t12 23q5 6 11 6h25q11 0 17 -11q25 -44 55.5 -88.5t30.5 -48.5q0 -8 -9 -8t-55.5 42.5t-51 42.5t-49 -42t-53 -42t-8.5 6zM116 355l3 173q0 27 -2 91q-1 29 -25 45t-56 17q-16 0 -16 18q0 14 28 14l27 -2l244 -5l200 4q19 0 19 -23
q0 -6 -6 -39.5t-6 -52.5q0 -32 -15.5 -32t-15.5 24t-17 46t-42 23q-90 7 -138 7h-26q-52 0 -60 -7q-15 -13 -15 -221q0 -50 19 -51h98q60 0 80 4q52 10 59 52q3 17 13 17t12 -3t2 -13l-8 -105l3 -61q0 -25 -7 -25q-15 0 -22 24q-14 42 -25 49q-21 14 -73 14h-72l-32 1h-7
q-41 0 -41 -19l-2 -144v-40q0 -72 24.5 -79.5t42.5 -7.5q150 0 217 24q59 22 72 46q12 25 22 25q12 0 12 -17q0 -43 -43 -87t-75 -44q-72 0 -162.5 5t-112.5 5l-136 -9q-21 0 -21 10v12q0 6 10 8q11 1 34 12t30.5 46t7.5 147v124z" />
    <glyph glyph-name="Edieresis" unicode="&#xcb;" horiz-adv-x="604" 
d="M192 855q0 14 15.5 32.5t32 18.5t32 -17.5t15.5 -33.5t-17.5 -34.5t-25.5 -18.5q-20 0 -36 19.5t-16 33.5zM352 855q0 14 15.5 32.5t32 18.5t32 -17.5t15.5 -33.5t-17.5 -34.5t-26.5 -18.5q-20 0 -35.5 19.5t-15.5 33.5zM116 355l3 173q0 27 -2 91q-1 29 -25 45t-56 17
q-16 0 -16 18q0 14 28 14l27 -2l244 -5l200 4q19 0 19 -23q0 -6 -6 -39.5t-6 -52.5q0 -32 -15.5 -32t-15.5 24t-17 46t-42 23q-90 7 -138 7h-26q-52 0 -60 -7q-15 -13 -15 -221q0 -50 19 -51h98q60 0 80 4q52 10 59 52q3 17 13 17t12 -3t2 -13l-8 -105l3 -61q0 -25 -7 -25
q-15 0 -22 24q-14 42 -25 49q-21 14 -73 14h-72l-32 1h-7q-41 0 -41 -19l-2 -144v-40q0 -72 24.5 -79.5t42.5 -7.5q150 0 217 24q59 22 72 46q12 25 22 25q12 0 12 -17q0 -43 -43 -87t-75 -44q-72 0 -162.5 5t-112.5 5l-136 -9q-21 0 -21 10v12q0 6 10 8q11 1 34 12t30.5 46
t7.5 147v124z" />
    <glyph glyph-name="Igrave" unicode="&#xcc;" horiz-adv-x="328" 
d="M39 900q0 13 21 19.5t32.5 6.5t22.5 -26.5t24.5 -54.5t22 -42l14.5 -24l9 -15q3 -5 3 -9q0 -11 -11 -11t-40 31q-98 103 -98 125zM119 402l1 108v46q0 44 -3.5 70.5t-27 39.5t-46.5 14t-23 15.5t28 14.5l113 -4l88 2q27 0 27 -14q0 -8 -46 -27q-32 -13 -32 -115l-3 -370
q0 -84 23.5 -118t49.5 -34l20 -1q7 0 14 -3.5t7 -11.5q0 -14 -25 -14l-95 4l-110 -5q-45 0 -45 15q0 14 31 18q12 1 25 12.5t16.5 26t8 121t4.5 153.5v57z" />
    <glyph glyph-name="Iacute" unicode="&#xcd;" horiz-adv-x="328" 
d="M111 755q0 5 7 15q32 48 68 137q8 19 20 19t32.5 -6.5t20.5 -19.5q0 -23 -97 -125q-29 -31 -40 -31t-11 11zM119 402l1 108v46q0 44 -3.5 70.5t-27 39.5t-46.5 14t-23 15.5t28 14.5l113 -4l88 2q27 0 27 -14q0 -8 -46 -27q-32 -13 -32 -115l-3 -370q0 -84 23.5 -118
t49.5 -34l20 -1q7 0 14 -3.5t7 -11.5q0 -14 -25 -14l-95 4l-110 -5q-45 0 -45 15q0 14 31 18q12 1 25 12.5t16.5 26t8 121t4.5 153.5v57z" />
    <glyph glyph-name="Icircumflex" unicode="&#xce;" horiz-adv-x="328" 
d="M37 763q0 1 4 9q62 91 71 111t12 23q5 6 11 6h25q11 0 17 -11q25 -44 55.5 -88.5t30.5 -48.5q0 -8 -9 -8t-55.5 42.5t-51 42.5t-49 -42t-53 -42t-8.5 6zM119 402l1 108v46q0 44 -3.5 70.5t-27 39.5t-46.5 14t-23 15.5t28 14.5l113 -4l88 2q27 0 27 -14q0 -8 -46 -27
q-32 -13 -32 -115l-3 -370q0 -84 23.5 -118t49.5 -34l20 -1q7 0 14 -3.5t7 -11.5q0 -14 -25 -14l-95 4l-110 -5q-45 0 -45 15q0 14 31 18q12 1 25 12.5t16.5 26t8 121t4.5 153.5v57z" />
    <glyph glyph-name="Idieresis" unicode="&#xcf;" horiz-adv-x="328" 
d="M33 855q0 14 15.5 32.5t32 18.5t32 -17.5t15.5 -33.5t-17.5 -34.5t-25.5 -18.5q-20 0 -36 19.5t-16 33.5zM193 855q0 14 15.5 32.5t32 18.5t32 -17.5t15.5 -33.5t-17.5 -34.5t-26.5 -18.5q-20 0 -35.5 19.5t-15.5 33.5zM119 402l1 108v46q0 44 -3.5 70.5t-27 39.5
t-46.5 14t-23 15.5t28 14.5l113 -4l88 2q27 0 27 -14q0 -8 -46 -27q-32 -13 -32 -115l-3 -370q0 -84 23.5 -118t49.5 -34l20 -1q7 0 14 -3.5t7 -11.5q0 -14 -25 -14l-95 4l-110 -5q-45 0 -45 15q0 14 31 18q12 1 25 12.5t16.5 26t8 121t4.5 153.5v57z" />
    <glyph glyph-name="Eth" unicode="&#xd0;" horiz-adv-x="792" 
d="M114 401l-1 222q0 17 -16.5 34.5t-33.5 18.5t-23.5 2t-13 6.5t-6.5 15t8.5 11t42.5 1.5h87l195 4q145 0 265 -82q58 -39 94 -102.5t36 -137.5t-9.5 -125.5t-31.5 -89t-44 -61t-56 -51.5t-91 -49t-117 -21l-240 5q-35 0 -65 -2.5t-35 -2.5q-24 0 -24 13q0 8 3.5 11.5
t15 6.5t16.5 5q16 7 29.5 26.5t13.5 38.5l1 226q0 9 -2.5 12.5t-11.5 3.5h-65q-12 0 -12 21.5t12 21.5l65 1q10 0 12 3t2 14zM198 322l-1 -181q0 -40 4 -51t6 -15.5t12 -9.5t16 -7q38 -9 63 -16.5t63 -7.5h20q68 0 116 19.5t92 61.5q74 71 74 230q0 80 -31.5 145t-82.5 104
q-105 79 -229 79h-40q-48 0 -64 -17q-8 -8 -9.5 -14t-4 -23.5t-2.5 -30.5v-42l-1 -140q0 -14 3 -18t18 -4h151q14 0 17.5 -5t3.5 -15.5t-1 -13.5q-3 -10 -22 -10l-150 -1h-10q-8 0 -9.5 -2t-1.5 -10v-5z" />
    <glyph glyph-name="Ntilde" unicode="&#xd1;" horiz-adv-x="798" 
d="M250 794q0 17 33.5 61.5t60.5 44.5t65 -24t60 -24t42.5 28t22.5 28q10 0 10 -15t-33 -57t-61 -42t-67.5 24t-57.5 24t-31.5 -14t-22 -28t-11.5 -14q-10 0 -10 8zM144 -2l-85 -2q-22 0 -22 16q0 9 13 11.5t32 15.5t27 42.5t17 192.5t9 237t-24 116.5t-78 48.5
q-13 1 -13 15q0 6 7 11.5t18 5.5l38 -1l49 2q9 0 21 -5.5t14 -10t11 -15l24 -27.5t27 -33q136 -177 364 -427q6 -7 14.5 -16t12 -13.5t7.5 -8.5q7 -7 11 -7q10 0 10 62v117l-2 205v7q0 92 -32 117q-12 9 -20 11.5t-23 5.5q-41 8 -41 22.5t19 14.5l95 -1l90 2q17 0 23.5 -3.5
t6.5 -10.5t-6 -11q-8 -5 -29 -12q-33 -18 -33 -113v-38l-11 -495v-20q0 -23 -14 -23q-9 0 -16 7l-396.5 457.5t-71.5 72.5q-10 0 -10 -81.5t-4 -191t-4 -119.5q0 -45 15.5 -68.5t33.5 -26.5t33.5 -6.5t15.5 -14t-3.5 -13.5t-12.5 -3z" />
    <glyph glyph-name="Ograve" unicode="&#xd2;" horiz-adv-x="853" 
d="M308 900q0 13 21 19.5t32.5 6.5t22.5 -26.5t24.5 -54.5t22 -42l14.5 -24l9 -15q3 -5 3 -9q0 -11 -11 -11t-40 31q-98 103 -98 125zM44 339q0 168 101 275.5t286 107.5q86 0 155 -25t109 -61.5t67 -83.5q47 -82 47 -160q0 -136 -53 -230q-101 -178 -339 -178
q-119 0 -205.5 52t-127 131t-40.5 172zM132 390q0 -89 47 -182q25 -50 60.5 -89.5t90 -65t119.5 -25.5q74 0 146 43q80 47 113 131q19 45 19 98q0 181 -95 281.5t-235 100.5q-110 0 -187.5 -74t-77.5 -218z" />
    <glyph glyph-name="Oacute" unicode="&#xd3;" horiz-adv-x="853" 
d="M380 755q0 5 7 15q32 48 68 137q8 19 20 19t32.5 -6.5t20.5 -19.5q0 -23 -97 -125q-29 -31 -40 -31t-11 11zM44 339q0 168 101 275.5t286 107.5q86 0 155 -25t109 -61.5t67 -83.5q47 -82 47 -160q0 -136 -53 -230q-101 -178 -339 -178q-119 0 -205.5 52t-127 131
t-40.5 172zM132 390q0 -89 47 -182q25 -50 60.5 -89.5t90 -65t119.5 -25.5q74 0 146 43q80 47 113 131q19 45 19 98q0 181 -95 281.5t-235 100.5q-110 0 -187.5 -74t-77.5 -218z" />
    <glyph glyph-name="Ocircumflex" unicode="&#xd4;" horiz-adv-x="853" 
d="M306 763q0 1 4 9q62 91 71 111t12 23q5 6 11 6h25q11 0 17 -11q25 -44 55.5 -88.5t30.5 -48.5q0 -8 -9 -8t-55.5 42.5t-51 42.5t-49 -42t-53 -42t-8.5 6zM44 339q0 168 101 275.5t286 107.5q86 0 155 -25t109 -61.5t67 -83.5q47 -82 47 -160q0 -136 -53 -230
q-101 -178 -339 -178q-119 0 -205.5 52t-127 131t-40.5 172zM132 390q0 -89 47 -182q25 -50 60.5 -89.5t90 -65t119.5 -25.5q74 0 146 43q80 47 113 131q19 45 19 98q0 181 -95 281.5t-235 100.5q-110 0 -187.5 -74t-77.5 -218z" />
    <glyph glyph-name="Otilde" unicode="&#xd5;" horiz-adv-x="853" 
d="M271 794q0 17 33.5 61.5t60.5 44.5t65 -24t60 -24t42.5 28t22.5 28q10 0 10 -15t-33 -57t-61 -42t-67.5 24t-57.5 24t-31.5 -14t-22 -28t-11.5 -14q-10 0 -10 8zM44 339q0 168 101 275.5t286 107.5q86 0 155 -25t109 -61.5t67 -83.5q47 -82 47 -160q0 -136 -53 -230
q-101 -178 -339 -178q-119 0 -205.5 52t-127 131t-40.5 172zM132 390q0 -89 47 -182q25 -50 60.5 -89.5t90 -65t119.5 -25.5q74 0 146 43q80 47 113 131q19 45 19 98q0 181 -95 281.5t-235 100.5q-110 0 -187.5 -74t-77.5 -218z" />
    <glyph glyph-name="Odieresis" unicode="&#xd6;" horiz-adv-x="853" 
d="M302 855q0 14 15.5 32.5t32 18.5t32 -17.5t15.5 -33.5t-17.5 -34.5t-25.5 -18.5q-20 0 -36 19.5t-16 33.5zM462 855q0 14 15.5 32.5t32 18.5t32 -17.5t15.5 -33.5t-17.5 -34.5t-26.5 -18.5q-20 0 -35.5 19.5t-15.5 33.5zM44 339q0 168 101 275.5t286 107.5q86 0 155 -25
t109 -61.5t67 -83.5q47 -82 47 -160q0 -136 -53 -230q-101 -178 -339 -178q-119 0 -205.5 52t-127 131t-40.5 172zM132 390q0 -89 47 -182q25 -50 60.5 -89.5t90 -65t119.5 -25.5q74 0 146 43q80 47 113 131q19 45 19 98q0 181 -95 281.5t-235 100.5q-110 0 -187.5 -74
t-77.5 -218z" />
    <glyph glyph-name="multiply" unicode="&#xd7;" horiz-adv-x="527" 
d="M95 347q-7 7 -7 11.5t10.5 15t17 10.5t14.5 -8l116 -115q12 -12 18.5 -12t11.5 5l125 125q6 6 11.5 6t15.5 -10t10 -16t-9 -15l-121 -121q-8 -8 -8 -12.5t8 -12.5l124 -124q6 -6 6 -12t-10.5 -16.5t-16 -10.5t-12.5 7l-123 124q-7 7 -12.5 7t-16.5 -11l-120 -120
q-7 -7 -12 -7t-15.5 10t-10.5 15.5t8 13.5l120 121q9 9 9 15t-7 13z" />
    <glyph glyph-name="Oslash" unicode="&#xd8;" horiz-adv-x="853" 
d="M621 808l12 -4q13 -4 13 -14q0 -5 -1 -9l-31 -66q-7 -16 -7 -18q0 -7 11 -13q69 -32 114 -90q77 -96 77 -202q0 -136 -53 -230q-101 -178 -339 -178q-57 0 -89 8t-36 8q-11 0 -18 -15l-44 -93q-7 -12 -15 -12q-28 0 -28 17q0 7 3 12l46 98q2 6 2 9t-3.5 6t-18.5 11
q-91 50 -136 145q-36 76 -36 161q0 168 101 275.5t286 107.5q57 0 87 -7t34 -7q10 0 19 17l29 62q10 21 21 21zM132 390q0 -122 82 -238q20 -29 35.5 -43.5t21.5 -14.5t10 10l241 515q10 20 10 25q0 15 -47.5 26.5t-87.5 11.5q-110 0 -187.5 -74t-77.5 -218zM314 68
q0 -12 45 -26t84.5 -14t77 10.5t74.5 32.5t66 53.5t47.5 77t18.5 105.5t-15 118.5t-36 93.5t-43.5 60.5t-37 36t-17.5 10.5t-13.5 -21t-83 -177l-120 -255.5t-47.5 -104.5z" />
    <glyph glyph-name="Ugrave" unicode="&#xd9;" horiz-adv-x="815" 
d="M326 900q0 13 21 19.5t32.5 6.5t22.5 -26.5t24.5 -54.5t22 -42l14.5 -24l9 -15q3 -5 3 -9q0 -11 -11 -11t-40 31q-98 103 -98 125zM114 431l2 144q0 55 -13 75.5t-61 27.5q-22 3 -22 19q0 8 6 10.5t17 2.5l113 -4l94 2q21 0 21 -14q0 -9 -7 -11t-17.5 -3t-20.5 -7
q-25 -14 -25 -93v-28l-1 -216q0 -99 6 -129t14 -55.5t19.5 -40.5t29 -33t40.5 -28q54 -22 123 -22q108 0 150 24q18 10 41.5 31.5t36.5 52.5q31 74 31 188l-1 212q0 35 -1.5 55t-10 44t-21.5 33t-29 11.5l-26 4t-10 8.5q0 16 20 16l77 -2l85 3q21 0 21 -13q0 -8 -21.5 -20.5
t-26.5 -22.5q-11 -21 -11 -66l1 -67q0 -192 -16 -294t-49 -148q-67 -97 -237 -97t-240 64q-55 51 -68 122.5t-13 246.5v17z" />
    <glyph glyph-name="Uacute" unicode="&#xda;" horiz-adv-x="815" 
d="M398 755q0 5 7 15q32 48 68 137q8 19 20 19t32.5 -6.5t20.5 -19.5q0 -23 -97 -125q-29 -31 -40 -31t-11 11zM114 431l2 144q0 55 -13 75.5t-61 27.5q-22 3 -22 19q0 8 6 10.5t17 2.5l113 -4l94 2q21 0 21 -14q0 -9 -7 -11t-17.5 -3t-20.5 -7q-25 -14 -25 -93v-28l-1 -216
q0 -99 6 -129t14 -55.5t19.5 -40.5t29 -33t40.5 -28q54 -22 123 -22q108 0 150 24q18 10 41.5 31.5t36.5 52.5q31 74 31 188l-1 212q0 35 -1.5 55t-10 44t-21.5 33t-29 11.5l-26 4t-10 8.5q0 16 20 16l77 -2l85 3q21 0 21 -13q0 -8 -21.5 -20.5t-26.5 -22.5q-11 -21 -11 -66
l1 -67q0 -192 -16 -294t-49 -148q-67 -97 -237 -97t-240 64q-55 51 -68 122.5t-13 246.5v17z" />
    <glyph glyph-name="Ucircumflex" unicode="&#xdb;" horiz-adv-x="815" 
d="M324 763q0 1 4 9q62 91 71 111t12 23q5 6 11 6h25q11 0 17 -11q25 -44 55.5 -88.5t30.5 -48.5q0 -8 -9 -8t-55.5 42.5t-51 42.5t-49 -42t-53 -42t-8.5 6zM114 431l2 144q0 55 -13 75.5t-61 27.5q-22 3 -22 19q0 8 6 10.5t17 2.5l113 -4l94 2q21 0 21 -14q0 -9 -7 -11
t-17.5 -3t-20.5 -7q-25 -14 -25 -93v-28l-1 -216q0 -99 6 -129t14 -55.5t19.5 -40.5t29 -33t40.5 -28q54 -22 123 -22q108 0 150 24q18 10 41.5 31.5t36.5 52.5q31 74 31 188l-1 212q0 35 -1.5 55t-10 44t-21.5 33t-29 11.5l-26 4t-10 8.5q0 16 20 16l77 -2l85 3
q21 0 21 -13q0 -8 -21.5 -20.5t-26.5 -22.5q-11 -21 -11 -66l1 -67q0 -192 -16 -294t-49 -148q-67 -97 -237 -97t-240 64q-55 51 -68 122.5t-13 246.5v17z" />
    <glyph glyph-name="Udieresis" unicode="&#xdc;" horiz-adv-x="815" 
d="M320 855q0 14 15.5 32.5t32 18.5t32 -17.5t15.5 -33.5t-17.5 -34.5t-25.5 -18.5q-20 0 -36 19.5t-16 33.5zM480 855q0 14 15.5 32.5t32 18.5t32 -17.5t15.5 -33.5t-17.5 -34.5t-26.5 -18.5q-20 0 -35.5 19.5t-15.5 33.5zM114 431l2 144q0 55 -13 75.5t-61 27.5
q-22 3 -22 19q0 8 6 10.5t17 2.5l113 -4l94 2q21 0 21 -14q0 -9 -7 -11t-17.5 -3t-20.5 -7q-25 -14 -25 -93v-28l-1 -216q0 -99 6 -129t14 -55.5t19.5 -40.5t29 -33t40.5 -28q54 -22 123 -22q108 0 150 24q18 10 41.5 31.5t36.5 52.5q31 74 31 188l-1 212q0 35 -1.5 55
t-10 44t-21.5 33t-29 11.5l-26 4t-10 8.5q0 16 20 16l77 -2l85 3q21 0 21 -13q0 -8 -21.5 -20.5t-26.5 -22.5q-11 -21 -11 -66l1 -67q0 -192 -16 -294t-49 -148q-67 -97 -237 -97t-240 64q-55 51 -68 122.5t-13 246.5v17z" />
    <glyph glyph-name="Yacute" unicode="&#xdd;" horiz-adv-x="712" 
d="M336 755q0 5 7 15q32 48 68 137q8 19 20 19t32.5 -6.5t20.5 -19.5q0 -23 -97 -125q-29 -31 -40 -31t-11 11zM326 89l2 203q0 42 -26 82l-63 95l-69 102.5t-55 70t-38.5 29t-35 4.5t-21.5 12t11.5 15t50.5 3l58 -2l85 1q50 0 50 -11.5t-21 -19t-21 -17t6.5 -25.5t13 -26
l19.5 -29t31 -48t54.5 -78t42 -49t14.5 11.5t25 38.5t23 37.5l18.5 27.5l16 24l13.5 21.5t13 22t9 18.5q10 18 10 30q0 36 -46 42q-22 3 -25 8.5t-3 10.5q0 12 28 12l41 -1l106 -1q49 0 49 -15q0 -4 -6 -7t-17 -8t-20 -12q-41 -32 -120.5 -152t-93 -137t-17.5 -41t-4 -82
l1 -116v-24q0 -33 11.5 -52t21.5 -22.5t20 -3.5l20 -1q7 0 11 -4.5t4 -12t-5 -10.5t-19 -3l-100 1l-110 -4q-28 0 -28 10t5.5 13.5t18.5 4.5t19 3q42 13 42 61z" />
    <glyph glyph-name="Thorn" unicode="&#xde;" horiz-adv-x="568" 
d="M154 0l-94 -4q-31 0 -31 12q0 13 6 16.5t9.5 4.5t11.5 3l12 2q15 3 20 10q29 38 29 240q0 153 1.5 183t1.5 43v46q0 44 -3.5 70.5t-27 39.5t-46.5 14t-23 15.5t28 14.5l113 -4l88 2q27 0 27 -14q0 -8 -46 -27q-16 -7 -24 -36.5t-8 -47.5t1.5 -20t9.5 -2l100 4
q94 0 162 -48t68 -137q0 -49 -18 -87.5t-43.5 -60.5t-57.5 -36q-52 -24 -92 -24t-73 8t-33 16q0 15 13 15q5 0 21 -4t34.5 -4t45 6.5t54.5 21t46 44t18 68.5q0 67 -54.5 124.5t-149.5 57.5q-32 0 -42.5 -20t-10.5 -87v-171q-2 0 -2 -70v-21q0 -88 32 -109q29 -19 52 -16
q40 4 40 -19q0 -16 -22 -16z" />
    <glyph glyph-name="germandbls" unicode="&#xdf;" horiz-adv-x="527" 
d="M120 -1l-84 -3q-16 0 -16 12q0 11 28 16q10 2 18.5 14.5t8.5 36.5v292q0 1 -16.5 13.5t-16.5 18.5q0 11 16.5 14t16.5 10q0 127 55.5 213t144.5 86q45 0 85 -22q47 -27 47 -100q0 -41 -19 -78t-42 -59q-60 -59 -60 -92.5t32 -62t70 -50t70 -58.5t32 -81q0 -57 -35 -97
q-31 -36 -91 -36q-52 0 -102 25q-4 1 -9.5 3t-8 2.5t-6.5 2.5t-5.5 3.5t-3.5 4.5q-3 5 -3 16v87q0 11 4.5 18.5t12.5 7.5t11.5 -4.5t6.5 -18.5t4.5 -17.5l5.5 -13.5t7 -16l7 -16q6 -13 18 -27.5t19 -19.5q18 -12 43 -12t48 19.5t23 51.5t-21 55.5t-51 42.5l-60 39.5t-51 50
t-21 59t11.5 53.5t28 46l33.5 45q40 54 40 113t-22.5 85.5t-55.5 26.5q-35 0 -57.5 -22.5t-35.5 -50.5q-28 -64 -28 -192l2 -62l-2 -71q-3 -71 -3 -132v-70q0 -40 8.5 -56t30 -21t21.5 -17q0 -9 -19 -9z" />
    <glyph glyph-name="agrave" unicode="&#xe0;" horiz-adv-x="461" 
d="M112 636q0 13 21 19.5t32.5 6.5t22.5 -26.5t24.5 -54.5t22 -42l14.5 -24l9 -15q3 -5 3 -9q0 -11 -11 -11t-40 31q-98 103 -98 125zM166 -15q-118 0 -118 100q0 72 60 99q50 21 153 38q3 1 8 1.5t10.5 1.5t8.5 2q7 3 7 14l2 52q0 57 -33 82.5t-64 25.5q-72 0 -72 -60
l4 -36q0 -20 -18 -20q-14 0 -31 5q-31 10 -31 34q0 39 52.5 74.5t105.5 35.5t83 -10t44.5 -22.5t22.5 -33.5q10 -25 10 -78.5t-2.5 -95t-2.5 -75.5t8 -55.5t19 -27.5t22 -7q27 -2 27 -16q0 -21 -63 -21q-26 0 -44.5 14t-26.5 27.5t-9 13.5t-8 -6.5t-19.5 -15.5t-28.5 -18
q-37 -22 -76 -22zM288 208l-10 -2l-29 -5t-28 -6t-30.5 -9t-24 -12.5t-22.5 -17.5q-18 -28 -18 -59t20 -51.5t51.5 -20.5t50 8t27.5 18t14 27q6 19 6 49v72q0 9 -7 9z" />
    <glyph glyph-name="aacute" unicode="&#xe1;" horiz-adv-x="461" 
d="M184 491q0 5 7 15q32 48 68 137q8 19 20 19t32.5 -6.5t20.5 -19.5q0 -23 -97 -125q-29 -31 -40 -31t-11 11zM166 -15q-118 0 -118 100q0 72 60 99q50 21 153 38q3 1 8 1.5t10.5 1.5t8.5 2q7 3 7 14l2 52q0 57 -33 82.5t-64 25.5q-72 0 -72 -60l4 -36q0 -20 -18 -20
q-14 0 -31 5q-31 10 -31 34q0 39 52.5 74.5t105.5 35.5t83 -10t44.5 -22.5t22.5 -33.5q10 -25 10 -78.5t-2.5 -95t-2.5 -75.5t8 -55.5t19 -27.5t22 -7q27 -2 27 -16q0 -21 -63 -21q-26 0 -44.5 14t-26.5 27.5t-9 13.5t-8 -6.5t-19.5 -15.5t-28.5 -18q-37 -22 -76 -22z
M288 208l-10 -2l-29 -5t-28 -6t-30.5 -9t-24 -12.5t-22.5 -17.5q-18 -28 -18 -59t20 -51.5t51.5 -20.5t50 8t27.5 18t14 27q6 19 6 49v72q0 9 -7 9z" />
    <glyph glyph-name="acircumflex" unicode="&#xe2;" horiz-adv-x="461" 
d="M110 499q0 1 4 9q62 91 71 111t12 23q5 6 11 6h25q11 0 17 -11q25 -44 55.5 -88.5t30.5 -48.5q0 -8 -9 -8t-55.5 42.5t-51 42.5t-49 -42t-53 -42t-8.5 6zM166 -15q-118 0 -118 100q0 72 60 99q50 21 153 38q3 1 8 1.5t10.5 1.5t8.5 2q7 3 7 14l2 52q0 57 -33 82.5
t-64 25.5q-72 0 -72 -60l4 -36q0 -20 -18 -20q-14 0 -31 5q-31 10 -31 34q0 39 52.5 74.5t105.5 35.5t83 -10t44.5 -22.5t22.5 -33.5q10 -25 10 -78.5t-2.5 -95t-2.5 -75.5t8 -55.5t19 -27.5t22 -7q27 -2 27 -16q0 -21 -63 -21q-26 0 -44.5 14t-26.5 27.5t-9 13.5t-8 -6.5
t-19.5 -15.5t-28.5 -18q-37 -22 -76 -22zM288 208l-10 -2l-29 -5t-28 -6t-30.5 -9t-24 -12.5t-22.5 -17.5q-18 -28 -18 -59t20 -51.5t51.5 -20.5t50 8t27.5 18t14 27q6 19 6 49v72q0 9 -7 9z" />
    <glyph glyph-name="atilde" unicode="&#xe3;" horiz-adv-x="461" 
d="M75 530q0 17 33.5 61.5t60.5 44.5t65 -24t60 -24t42.5 28t22.5 28q10 0 10 -15t-33 -57t-61 -42t-67.5 24t-57.5 24t-31.5 -14t-22 -28t-11.5 -14q-10 0 -10 8zM166 -15q-118 0 -118 100q0 72 60 99q50 21 153 38q3 1 8 1.5t10.5 1.5t8.5 2q7 3 7 14l2 52q0 57 -33 82.5
t-64 25.5q-72 0 -72 -60l4 -36q0 -20 -18 -20q-14 0 -31 5q-31 10 -31 34q0 39 52.5 74.5t105.5 35.5t83 -10t44.5 -22.5t22.5 -33.5q10 -25 10 -78.5t-2.5 -95t-2.5 -75.5t8 -55.5t19 -27.5t22 -7q27 -2 27 -16q0 -21 -63 -21q-26 0 -44.5 14t-26.5 27.5t-9 13.5t-8 -6.5
t-19.5 -15.5t-28.5 -18q-37 -22 -76 -22zM288 208l-10 -2l-29 -5t-28 -6t-30.5 -9t-24 -12.5t-22.5 -17.5q-18 -28 -18 -59t20 -51.5t51.5 -20.5t50 8t27.5 18t14 27q6 19 6 49v72q0 9 -7 9z" />
    <glyph glyph-name="adieresis" unicode="&#xe4;" horiz-adv-x="461" 
d="M106 591q0 14 15.5 32.5t32 18.5t32 -17.5t15.5 -33.5t-17.5 -34.5t-25.5 -18.5q-20 0 -36 19.5t-16 33.5zM266 591q0 14 15.5 32.5t32 18.5t32 -17.5t15.5 -33.5t-17.5 -34.5t-26.5 -18.5q-20 0 -35.5 19.5t-15.5 33.5zM166 -15q-118 0 -118 100q0 72 60 99
q50 21 153 38q3 1 8 1.5t10.5 1.5t8.5 2q7 3 7 14l2 52q0 57 -33 82.5t-64 25.5q-72 0 -72 -60l4 -36q0 -20 -18 -20q-14 0 -31 5q-31 10 -31 34q0 39 52.5 74.5t105.5 35.5t83 -10t44.5 -22.5t22.5 -33.5q10 -25 10 -78.5t-2.5 -95t-2.5 -75.5t8 -55.5t19 -27.5t22 -7
q27 -2 27 -16q0 -21 -63 -21q-26 0 -44.5 14t-26.5 27.5t-9 13.5t-8 -6.5t-19.5 -15.5t-28.5 -18q-37 -22 -76 -22zM288 208l-10 -2l-29 -5t-28 -6t-30.5 -9t-24 -12.5t-22.5 -17.5q-18 -28 -18 -59t20 -51.5t51.5 -20.5t50 8t27.5 18t14 27q6 19 6 49v72q0 9 -7 9z" />
    <glyph glyph-name="aring" unicode="&#xe5;" horiz-adv-x="461" 
d="M150.5 559q-4.5 16 -4.5 37t23 46.5t57.5 25.5t53 -27t18.5 -58.5t-28.5 -52t-53 -20.5t-43 16.5t-23 32.5zM196.5 617.5q-12.5 -11.5 -12.5 -28.5t11 -28.5t22 -11.5t18.5 2.5t16 12t8.5 24.5q0 41 -37 41q-14 0 -26.5 -11.5zM166 -15q-118 0 -118 100q0 72 60 99
q50 21 153 38q3 1 8 1.5t10.5 1.5t8.5 2q7 3 7 14l2 52q0 57 -33 82.5t-64 25.5q-72 0 -72 -60l4 -36q0 -20 -18 -20q-14 0 -31 5q-31 10 -31 34q0 39 52.5 74.5t105.5 35.5t83 -10t44.5 -22.5t22.5 -33.5q10 -25 10 -78.5t-2.5 -95t-2.5 -75.5t8 -55.5t19 -27.5t22 -7
q27 -2 27 -16q0 -21 -63 -21q-26 0 -44.5 14t-26.5 27.5t-9 13.5t-8 -6.5t-19.5 -15.5t-28.5 -18q-37 -22 -76 -22zM288 208l-10 -2l-29 -5t-28 -6t-30.5 -9t-24 -12.5t-22.5 -17.5q-18 -28 -18 -59t20 -51.5t51.5 -20.5t50 8t27.5 18t14 27q6 19 6 49v72q0 9 -7 9z" />
    <glyph glyph-name="ae" unicode="&#xe6;" horiz-adv-x="723" 
d="M166 -15q-118 0 -118 100q0 71 60 99q46 20 104.5 30t69 12t13 10.5t2.5 52t-19 69.5q-30 43 -78 43q-72 0 -72 -60l4 -36q0 -20 -18 -20q-14 0 -31 5q-31 10 -31 34q0 39 52.5 74.5t115.5 35.5q88 0 122 -38q8 -9 12 -15t5.5 -6t8 6t18 14.5t26.5 16.5q39 20 84 20
t79.5 -15t53.5 -36.5t32 -45.5q22 -41 22 -62q0 -18 -41 -18h-257q-8 0 -9.5 -1.5t-1.5 -9.5q0 -94 50.5 -148t117.5 -54q42 0 86 22.5t46 22.5q10 0 10 -9q0 -12 -22 -32.5t-42 -33.5q-48 -31 -113 -31q-74 0 -119 31q-33 23 -46.5 40t-14.5 17t-7.5 -8.5t-18.5 -21
t-29 -25.5q-40 -29 -106 -29zM126 100q0 -34 20 -54.5t51.5 -20.5t50 8t27.5 18t14 27q6 19 6 49v72q0 9 -4 9q-64 -8 -101 -23q-64 -27 -64 -85zM393 279l176 6q14 0 17.5 2.5t3.5 9.5q0 30 -28 70t-78 40t-77 -39.5t-27 -74.5q0 -14 13 -14z" />
    <glyph glyph-name="ccedilla" unicode="&#xe7;" horiz-adv-x="452" 
d="M203 -79q0 3 11 11t17 13q11 11 19 11t19 -5.5t23.5 -20.5t12.5 -35q0 -43 -32 -69.5t-46 -26.5t-14 7q0 3 11 9q31 16 31 46q0 28 -39 46q-13 6 -13 14zM95.5 36q-56.5 57 -56.5 154.5t64.5 168t167.5 70.5q35 0 75.5 -10t41.5 -23q2 -24 2 -57.5t-11 -33.5
q-10 0 -18 13q-17 29 -64.5 50.5t-83.5 21.5q-20 0 -39 -15t-31 -33q-29 -42 -29 -119t49.5 -134.5t121.5 -57.5q35 0 65 13t46.5 26t20.5 13q11 0 11 -10t-21 -30.5t-41 -32.5q-49 -31 -120 -31q-94 0 -150.5 57z" />
    <glyph glyph-name="egrave" unicode="&#xe8;" horiz-adv-x="466" 
d="M122 636q0 13 21 19.5t32.5 6.5t22.5 -26.5t24.5 -54.5t22 -42l14.5 -24l9 -15q3 -5 3 -9q0 -11 -11 -11t-40 31q-98 103 -98 125zM100.5 35q-61.5 54 -61.5 156.5t56.5 171.5t146.5 69q42 0 76.5 -15t53.5 -36.5t32 -45.5q22 -41 22 -62q0 -18 -41 -18h-257
q-8 0 -9.5 -1.5t-1.5 -9.5q0 -94 50.5 -148t118.5 -54q42 0 85.5 22.5t45.5 22.5q10 0 10 -9q0 -12 -22 -32.5t-42 -33.5q-48 -31 -113 -31q-88 0 -149.5 54zM136 279l176 6q14 0 17.5 2.5t3.5 9.5q0 30 -28 70t-78 40t-77 -39.5t-27 -74.5q0 -14 13 -14z" />
    <glyph glyph-name="eacute" unicode="&#xe9;" horiz-adv-x="466" 
d="M194 491q0 5 7 15q32 48 68 137q8 19 20 19t32.5 -6.5t20.5 -19.5q0 -23 -97 -125q-29 -31 -40 -31t-11 11zM100.5 35q-61.5 54 -61.5 156.5t56.5 171.5t146.5 69q42 0 76.5 -15t53.5 -36.5t32 -45.5q22 -41 22 -62q0 -18 -41 -18h-257q-8 0 -9.5 -1.5t-1.5 -9.5
q0 -94 50.5 -148t118.5 -54q42 0 85.5 22.5t45.5 22.5q10 0 10 -9q0 -12 -22 -32.5t-42 -33.5q-48 -31 -113 -31q-88 0 -149.5 54zM136 279l176 6q14 0 17.5 2.5t3.5 9.5q0 30 -28 70t-78 40t-77 -39.5t-27 -74.5q0 -14 13 -14z" />
    <glyph glyph-name="ecircumflex" unicode="&#xea;" horiz-adv-x="466" 
d="M120 499q0 1 4 9q62 91 71 111t12 23q5 6 11 6h25q11 0 17 -11q25 -44 55.5 -88.5t30.5 -48.5q0 -8 -9 -8t-55.5 42.5t-51 42.5t-49 -42t-53 -42t-8.5 6zM100.5 35q-61.5 54 -61.5 156.5t56.5 171.5t146.5 69q42 0 76.5 -15t53.5 -36.5t32 -45.5q22 -41 22 -62
q0 -18 -41 -18h-257q-8 0 -9.5 -1.5t-1.5 -9.5q0 -94 50.5 -148t118.5 -54q42 0 85.5 22.5t45.5 22.5q10 0 10 -9q0 -12 -22 -32.5t-42 -33.5q-48 -31 -113 -31q-88 0 -149.5 54zM136 279l176 6q14 0 17.5 2.5t3.5 9.5q0 30 -28 70t-78 40t-77 -39.5t-27 -74.5q0 -14 13 -14
z" />
    <glyph glyph-name="edieresis" unicode="&#xeb;" horiz-adv-x="466" 
d="M116 591q0 14 15.5 32.5t32 18.5t32 -17.5t15.5 -33.5t-17.5 -34.5t-25.5 -18.5q-20 0 -36 19.5t-16 33.5zM276 591q0 14 15.5 32.5t32 18.5t32 -17.5t15.5 -33.5t-17.5 -34.5t-26.5 -18.5q-20 0 -35.5 19.5t-15.5 33.5zM100.5 35q-61.5 54 -61.5 156.5t56.5 171.5
t146.5 69q42 0 76.5 -15t53.5 -36.5t32 -45.5q22 -41 22 -62q0 -18 -41 -18h-257q-8 0 -9.5 -1.5t-1.5 -9.5q0 -94 50.5 -148t118.5 -54q42 0 85.5 22.5t45.5 22.5q10 0 10 -9q0 -12 -22 -32.5t-42 -33.5q-48 -31 -113 -31q-88 0 -149.5 54zM136 279l176 6q14 0 17.5 2.5
t3.5 9.5q0 30 -28 70t-78 40t-77 -39.5t-27 -74.5q0 -14 13 -14z" />
    <glyph glyph-name="igrave" unicode="&#xec;" horiz-adv-x="284" 
d="M14 636q0 13 21 19.5t32.5 6.5t22.5 -26.5t24.5 -54.5t22 -42l14.5 -24l9 -15q3 -5 3 -9q0 -11 -11 -11t-40 31q-98 103 -98 125zM159 -4l-71 -2q-40 0 -40 13.5t15 18.5q1 0 4 1q23 8 30 24t7 155v88q0 29 -7 46t-13 21t-20.5 6.5t-21 5t-6.5 8t2.5 8.5t10 6.5t15.5 6.5
q28 8 46 16l27.5 12t12.5 6q7 3 17 3q15 0 15 -19l-6 -48v-274q0 -30 9 -47t21.5 -21t25.5 -4q30 -2 30 -16q0 -17 -17 -17l-15 1z" />
    <glyph glyph-name="iacute" unicode="&#xed;" horiz-adv-x="284" 
d="M86 491q0 5 7 15q32 48 68 137q8 19 20 19t32.5 -6.5t20.5 -19.5q0 -23 -97 -125q-29 -31 -40 -31t-11 11zM159 -4l-71 -2q-40 0 -40 13.5t15 18.5q1 0 4 1q23 8 30 24t7 155v88q0 29 -7 46t-13 21t-20.5 6.5t-21 5t-6.5 8t2.5 8.5t10 6.5t15.5 6.5q28 8 46 16l27.5 12
t12.5 6q7 3 17 3q15 0 15 -19l-6 -48v-274q0 -30 9 -47t21.5 -21t25.5 -4q30 -2 30 -16q0 -17 -17 -17l-15 1z" />
    <glyph glyph-name="icircumflex" unicode="&#xee;" horiz-adv-x="284" 
d="M12 499q0 1 4 9q62 91 71 111t12 23q5 6 11 6h25q11 0 17 -11q25 -44 55.5 -88.5t30.5 -48.5q0 -8 -9 -8t-55.5 42.5t-51 42.5t-49 -42t-53 -42t-8.5 6zM159 -4l-71 -2q-40 0 -40 13.5t15 18.5q1 0 4 1q23 8 30 24t7 155v88q0 29 -7 46t-13 21t-20.5 6.5t-21 5t-6.5 8
t2.5 8.5t10 6.5t15.5 6.5q28 8 46 16l27.5 12t12.5 6q7 3 17 3q15 0 15 -19l-6 -48v-274q0 -30 9 -47t21.5 -21t25.5 -4q30 -2 30 -16q0 -17 -17 -17l-15 1z" />
    <glyph glyph-name="idieresis" unicode="&#xef;" horiz-adv-x="284" 
d="M8 591q0 14 15.5 32.5t32 18.5t32 -17.5t15.5 -33.5t-17.5 -34.5t-25.5 -18.5q-20 0 -36 19.5t-16 33.5zM168 591q0 14 15.5 32.5t32 18.5t32 -17.5t15.5 -33.5t-17.5 -34.5t-26.5 -18.5q-20 0 -35.5 19.5t-15.5 33.5zM159 -4l-71 -2q-40 0 -40 13.5t15 18.5q1 0 4 1
q23 8 30 24t7 155v88q0 29 -7 46t-13 21t-20.5 6.5t-21 5t-6.5 8t2.5 8.5t10 6.5t15.5 6.5q28 8 46 16l27.5 12t12.5 6q7 3 17 3q15 0 15 -19l-6 -48v-274q0 -30 9 -47t21.5 -21t25.5 -4q30 -2 30 -16q0 -17 -17 -17l-15 1z" />
    <glyph glyph-name="eth" unicode="&#xf0;" horiz-adv-x="547" 
d="M99.5 47.5q-60.5 65.5 -60.5 156.5t62.5 159t173.5 68q37 0 81 -24q13 -7 31.5 -24t22 -17t3.5 8t-15 42t-36 69.5t-42 64t-27 28.5q-1 0 -13 -4l-142 -57l-2 -1h-3q-9 0 -15 10t-6 18t9 12l133 54q9 3 9 6t-9 12q-40 45 -80 70.5t-58 32.5t-18 12q0 12 24 12h24
q29 0 74.5 -25.5t77 -56t35 -30.5t15.5 4l122 49q12 5 17 5q9 0 13.5 -11.5t4.5 -17.5q0 -10 -20 -18l-105 -42q-14 -5 -14 -7t14.5 -19.5t35.5 -50t42 -75t35.5 -104.5t14.5 -127q0 -111 -68.5 -179t-174 -68t-166 65.5zM158.5 363q-40.5 -41 -40.5 -135t55 -155t118.5 -61
t103.5 43.5t40 124.5t-23 128q-7 15 -30 36.5t-39 31.5q-41 28 -92.5 28t-92 -41z" />
    <glyph glyph-name="ntilde" unicode="&#xf1;" horiz-adv-x="591" 
d="M156 530q0 17 33.5 61.5t60.5 44.5t65 -24t60 -24t42.5 28t22.5 28q10 0 10 -15t-33 -57t-61 -42t-67.5 24t-57.5 24t-31.5 -14t-22 -28t-11.5 -14q-10 0 -10 8zM248 0l-73 4q-26 0 -69 -2l-43 -2q-15 0 -15 9t5 11t12.5 3t14.5 6q19 12 21 72.5t2 79.5v144
q0 32 -11.5 43t-31.5 11h-10q-19 0 -19 11q0 10 21.5 13t34 6.5t33 12t33 14.5t16.5 6h2q9 0 9 -12l-2 -43q0 -26 4 -26t8 5q15 21 40 36q45 28 86 28t73 -12.5t50 -31t30 -42.5q20 -40 20 -82v-10l1 -53v-102q0 -38 10.5 -52.5t50.5 -20.5q20 -3 20 -15q0 -10 -20 -10
l-82 5l-77 -4q-20 0 -20 13q0 9 12 12l13 3q22 7 22 67v135q0 77 -38 116.5t-86 39.5t-80 -23t-39 -43t-7 -153v-38q0 -50 10.5 -74t46.5 -27q10 0 25.5 -3.5t15.5 -11.5q0 -13 -19 -13z" />
    <glyph glyph-name="ograve" unicode="&#xf2;" horiz-adv-x="547" 
d="M156 636q0 13 21 19.5t32.5 6.5t22.5 -26.5t24.5 -54.5t22 -42l14.5 -24l9 -15q3 -5 3 -9q0 -11 -11 -11t-40 31q-98 103 -98 125zM99.5 47.5q-60.5 65.5 -60.5 156.5t62.5 159t165 68t172 -59t69.5 -164t-71.5 -165.5t-174 -60.5t-163 65.5zM158.5 363
q-40.5 -41 -40.5 -135t55 -155t118.5 -61t102.5 43.5t39 127.5t-48 152.5t-134 68.5q-52 0 -92.5 -41z" />
    <glyph glyph-name="oacute" unicode="&#xf3;" horiz-adv-x="547" 
d="M228 491q0 5 7 15q32 48 68 137q8 19 20 19t32.5 -6.5t20.5 -19.5q0 -23 -97 -125q-29 -31 -40 -31t-11 11zM99.5 47.5q-60.5 65.5 -60.5 156.5t62.5 159t165 68t172 -59t69.5 -164t-71.5 -165.5t-174 -60.5t-163 65.5zM158.5 363q-40.5 -41 -40.5 -135t55 -155
t118.5 -61t102.5 43.5t39 127.5t-48 152.5t-134 68.5q-52 0 -92.5 -41z" />
    <glyph glyph-name="ocircumflex" unicode="&#xf4;" horiz-adv-x="547" 
d="M154 499q0 1 4 9q62 91 71 111t12 23q5 6 11 6h25q11 0 17 -11q25 -44 55.5 -88.5t30.5 -48.5q0 -8 -9 -8t-55.5 42.5t-51 42.5t-49 -42t-53 -42t-8.5 6zM99.5 47.5q-60.5 65.5 -60.5 156.5t62.5 159t165 68t172 -59t69.5 -164t-71.5 -165.5t-174 -60.5t-163 65.5z
M158.5 363q-40.5 -41 -40.5 -135t55 -155t118.5 -61t102.5 43.5t39 127.5t-48 152.5t-134 68.5q-52 0 -92.5 -41z" />
    <glyph glyph-name="otilde" unicode="&#xf5;" horiz-adv-x="547" 
d="M119 530q0 17 33.5 61.5t60.5 44.5t65 -24t60 -24t42.5 28t22.5 28q10 0 10 -15t-33 -57t-61 -42t-67.5 24t-57.5 24t-31.5 -14t-22 -28t-11.5 -14q-10 0 -10 8zM99.5 47.5q-60.5 65.5 -60.5 156.5t62.5 159t165 68t172 -59t69.5 -164t-71.5 -165.5t-174 -60.5t-163 65.5
zM158.5 363q-40.5 -41 -40.5 -135t55 -155t118.5 -61t102.5 43.5t39 127.5t-48 152.5t-134 68.5q-52 0 -92.5 -41z" />
    <glyph glyph-name="odieresis" unicode="&#xf6;" horiz-adv-x="547" 
d="M150 591q0 14 15.5 32.5t32 18.5t32 -17.5t15.5 -33.5t-17.5 -34.5t-25.5 -18.5q-20 0 -36 19.5t-16 33.5zM310 591q0 14 15.5 32.5t32 18.5t32 -17.5t15.5 -33.5t-17.5 -34.5t-26.5 -18.5q-20 0 -35.5 19.5t-15.5 33.5zM99.5 47.5q-60.5 65.5 -60.5 156.5t62.5 159
t165 68t172 -59t69.5 -164t-71.5 -165.5t-174 -60.5t-163 65.5zM158.5 363q-40.5 -41 -40.5 -135t55 -155t118.5 -61t102.5 43.5t39 127.5t-48 152.5t-134 68.5q-52 0 -92.5 -41z" />
    <glyph glyph-name="divide" unicode="&#xf7;" horiz-adv-x="527" 
d="M212 320q0 16 12.5 28.5t29 12.5t28.5 -11.5t12 -28.5t-12 -29t-29 -12t-29 12t-12 28zM229.5 72q-12.5 12 -12.5 28.5t12 28.5t28.5 12t29 -12.5t12.5 -28.5t-11.5 -28t-28.5 -12t-29.5 12zM32 198q-1 3 -1 12.5t1 13.5q1 8 17 8h431q14 0 16 -8v-15.5t-3 -16t-18 -4.5
h-427q-15 0 -16 10z" />
    <glyph glyph-name="oslash" unicode="&#xf8;" horiz-adv-x="547" 
d="M115 -86l39 88q0 6 -9 10q-52 29 -79 80.5t-27 110.5q0 92 62.5 160t173.5 68q25 0 47 -4.5t23 -4.5q6 0 12 13q23 49 27.5 57t11 8t18 -5t11.5 -13l-32 -73q0 -7 10 -12q105 -60 105 -188q0 -106 -71.5 -166.5t-168.5 -60.5q-27 0 -45.5 3.5t-22 3.5t-6.5 -7
q-44 -86 -47 -87q-8 0 -20 5.5t-12 13.5zM118 237q0 -52 16.5 -95t30.5 -60t17 -17t6 8l137 293q1 3 3.5 7t2.5 6q0 8 -26 16.5t-54 8.5q-52 0 -92.5 -41t-40.5 -126zM221 37q0 -7 26 -16t51 -9q57 0 96 43.5t39 123.5q0 49 -15.5 92.5t-30 62.5t-17 19t-5.5 -6
q-103 -227 -141 -303z" />
    <glyph glyph-name="ugrave" unicode="&#xf9;" horiz-adv-x="576" 
d="M170 636q0 13 21 19.5t32.5 6.5t22.5 -26.5t24.5 -54.5t22 -42l14.5 -24l9 -15q3 -5 3 -9q0 -11 -11 -11t-40 31q-98 103 -98 125zM94 156l1 180q0 20 -10.5 32t-19.5 12h-18q-18 0 -18 14t19.5 18t47.5 4l57 5q17 0 20 -7t3 -35t-2.5 -76.5t-2.5 -107.5q0 -88 34 -124.5
t77 -36.5q64 0 93 27t29 95l-2 138q0 50 -8 67.5t-34 20t-26 13.5q0 23 88 23l36 5q15 0 19.5 -5t4.5 -14.5t-0.5 -24t-1 -38.5t-1.5 -54q-2 -60 -2 -134t6 -96t22 -22l26 1q24 0 24 -12t-7 -15t-27 -3t-60.5 -5.5t-43.5 -5.5q-7 0 -11.5 25.5t-6 25.5t-19.5 -16t-51.5 -32
t-73.5 -16q-161 0 -161 174z" />
    <glyph glyph-name="uacute" unicode="&#xfa;" horiz-adv-x="576" 
d="M242 491q0 5 7 15q32 48 68 137q8 19 20 19t32.5 -6.5t20.5 -19.5q0 -23 -97 -125q-29 -31 -40 -31t-11 11zM94 156l1 180q0 20 -10.5 32t-19.5 12h-18q-18 0 -18 14t19.5 18t47.5 4l57 5q17 0 20 -7t3 -35t-2.5 -76.5t-2.5 -107.5q0 -88 34 -124.5t77 -36.5q64 0 93 27
t29 95l-2 138q0 50 -8 67.5t-34 20t-26 13.5q0 23 88 23l36 5q15 0 19.5 -5t4.5 -14.5t-0.5 -24t-1 -38.5t-1.5 -54q-2 -60 -2 -134t6 -96t22 -22l26 1q24 0 24 -12t-7 -15t-27 -3t-60.5 -5.5t-43.5 -5.5q-7 0 -11.5 25.5t-6 25.5t-19.5 -16t-51.5 -32t-73.5 -16
q-161 0 -161 174z" />
    <glyph glyph-name="ucircumflex" unicode="&#xfb;" horiz-adv-x="576" 
d="M168 499q0 1 4 9q62 91 71 111t12 23q5 6 11 6h25q11 0 17 -11q25 -44 55.5 -88.5t30.5 -48.5q0 -8 -9 -8t-55.5 42.5t-51 42.5t-49 -42t-53 -42t-8.5 6zM94 156l1 180q0 20 -10.5 32t-19.5 12h-18q-18 0 -18 14t19.5 18t47.5 4l57 5q17 0 20 -7t3 -35t-2.5 -76.5
t-2.5 -107.5q0 -88 34 -124.5t77 -36.5q64 0 93 27t29 95l-2 138q0 50 -8 67.5t-34 20t-26 13.5q0 23 88 23l36 5q15 0 19.5 -5t4.5 -14.5t-0.5 -24t-1 -38.5t-1.5 -54q-2 -60 -2 -134t6 -96t22 -22l26 1q24 0 24 -12t-7 -15t-27 -3t-60.5 -5.5t-43.5 -5.5q-7 0 -11.5 25.5
t-6 25.5t-19.5 -16t-51.5 -32t-73.5 -16q-161 0 -161 174z" />
    <glyph glyph-name="udieresis" unicode="&#xfc;" horiz-adv-x="576" 
d="M164 591q0 14 15.5 32.5t32 18.5t32 -17.5t15.5 -33.5t-17.5 -34.5t-25.5 -18.5q-20 0 -36 19.5t-16 33.5zM324 591q0 14 15.5 32.5t32 18.5t32 -17.5t15.5 -33.5t-17.5 -34.5t-26.5 -18.5q-20 0 -35.5 19.5t-15.5 33.5zM94 156l1 180q0 20 -10.5 32t-19.5 12h-18
q-18 0 -18 14t19.5 18t47.5 4l57 5q17 0 20 -7t3 -35t-2.5 -76.5t-2.5 -107.5q0 -88 34 -124.5t77 -36.5q64 0 93 27t29 95l-2 138q0 50 -8 67.5t-34 20t-26 13.5q0 23 88 23l36 5q15 0 19.5 -5t4.5 -14.5t-0.5 -24t-1 -38.5t-1.5 -54q-2 -60 -2 -134t6 -96t22 -22l26 1
q24 0 24 -12t-7 -15t-27 -3t-60.5 -5.5t-43.5 -5.5q-7 0 -11.5 25.5t-6 25.5t-19.5 -16t-51.5 -32t-73.5 -16q-161 0 -161 174z" />
    <glyph glyph-name="yacute" unicode="&#xfd;" horiz-adv-x="498" 
d="M221 491q0 5 7 15q32 48 68 137q8 19 20 19t32.5 -6.5t20.5 -19.5q0 -23 -97 -125q-29 -31 -40 -31t-11 11zM204 -190l-43 -1q-19 0 -19 13q0 3 22.5 31t45.5 69t23 72.5t-57 155.5t-99 203q-11 20 -22.5 31t-18.5 12q-16 2 -16 15t20 13l107 -2l57 2q7 0 12.5 -3.5
t5.5 -7.5q0 -18 -24 -18h-15q-16 0 -16 -25q0 -30 53 -144q8 -17 24 -54q30 -68 36 -68t46.5 115t40.5 137t-9.5 31t-21.5 9q-31 -2 -31 17q0 12 19 12l72 -1l62 1q21 0 21 -13q0 -10 -17.5 -14.5t-23.5 -12.5q-16 -23 -54 -126l-89 -237l-22 -59.5l-18 -49.5l-14 -38
l-11 -29.5t-8 -19.5q-8 -16 -15 -16h-3z" />
    <glyph glyph-name="thorn" unicode="&#xfe;" horiz-adv-x="544" 
d="M92 236l3 381q0 23 -7.5 41.5t-16.5 22.5t-40 4q-11 0 -11 7t1.5 10t6.5 5.5t12 4.5q29 6 60 21q49 23 64 23q12 0 12 -19q0 -4 -2 -23q-6 -59 -6 -129v-56l-1 -137q0 -28 1.5 -28t19.5 17.5t53.5 35t79.5 17.5q89 0 136.5 -58.5t47.5 -147t-58.5 -163t-156.5 -74.5
q-46 0 -74.5 9.5t-39.5 19t-14.5 9.5t-3.5 -8v-123q0 -20 16 -47q11 -18 33.5 -21t38.5 -4t16 -13.5t-34 -12.5q-6 0 -32 2t-72 2l-63 -3q-35 0 -35 9.5t10 13.5t21.5 7t21.5 24.5t10 62.5v20l3 276v22zM158 192l1 -50q0 -35 15 -60t38 -38q45 -23 94 -23q65 0 99 47.5
t34 121.5t-42 134t-114 60q-52 0 -92 -32q-20 -16 -26.5 -43t-6.5 -117z" />
    <glyph glyph-name="ydieresis" unicode="&#xff;" horiz-adv-x="498" 
d="M143 591q0 14 15.5 32.5t32 18.5t32 -17.5t15.5 -33.5t-17.5 -34.5t-25.5 -18.5q-20 0 -36 19.5t-16 33.5zM303 591q0 14 15.5 32.5t32 18.5t32 -17.5t15.5 -33.5t-17.5 -34.5t-26.5 -18.5q-20 0 -35.5 19.5t-15.5 33.5zM204 -190l-43 -1q-19 0 -19 13q0 3 22.5 31
t45.5 69t23 72.5t-57 155.5t-99 203q-11 20 -22.5 31t-18.5 12q-16 2 -16 15t20 13l107 -2l57 2q7 0 12.5 -3.5t5.5 -7.5q0 -18 -24 -18h-15q-16 0 -16 -25q0 -30 53 -144q8 -17 24 -54q30 -68 36 -68t46.5 115t40.5 137t-9.5 31t-21.5 9q-31 -2 -31 17q0 12 19 12l72 -1
l62 1q21 0 21 -13q0 -10 -17.5 -14.5t-23.5 -12.5q-16 -23 -54 -126l-89 -237l-22 -59.5l-18 -49.5l-14 -38l-11 -29.5t-8 -19.5q-8 -16 -15 -16h-3z" />
    <glyph glyph-name="Amacron" unicode="&#x100;" horiz-adv-x="812" 
d="M497 827l-188 1q-10 0 -10 22t16 22l181 -2q9 0 12 -5t3 -19q0 -19 -14 -19zM135 0l-86 -4q-29 0 -29 12q0 14 15 19q32 12 56 53.5t120.5 251l171.5 369.5q7 15 12.5 19t16 4t13.5 -4t11 -27l12.5 -35l14.5 -39t32 -81l100.5 -236.5t90.5 -207t33 -42t36.5 -19t26 -5
t10.5 -15.5q0 -15 -27 -15l-90 6l-93 -4q-31 0 -39.5 2.5t-8.5 10.5t8 12.5t17 6t17 9t8 25t-25 85.5t-42 100q-9 17 -41 17l-121 -2h-53q-45 0 -56.5 -5t-19 -21l-21.5 -44.5t-19 -39.5t-12 -28q-13 -30 -13 -50t11.5 -32t25.5 -14q37 -3 37 -19q0 -7 -3 -10.5t-14 -3.5z
M319 459.5q-48 -110.5 -48 -122.5t9 -15t42 -3h31l95 1q39 0 39 14.5t-49 125t-62 110.5q-9 0 -57 -110.5z" />
    <glyph glyph-name="amacron" unicode="&#x101;" horiz-adv-x="461" 
d="M314 563l-188 1q-10 0 -10 22t16 22l181 -2q9 0 12 -5t3 -19q0 -19 -14 -19zM166 -15q-118 0 -118 100q0 72 60 99q50 21 153 38q3 1 8 1.5t10.5 1.5t8.5 2q7 3 7 14l2 52q0 57 -33 82.5t-64 25.5q-72 0 -72 -60l4 -36q0 -20 -18 -20q-14 0 -31 5q-31 10 -31 34
q0 39 52.5 74.5t105.5 35.5t83 -10t44.5 -22.5t22.5 -33.5q10 -25 10 -78.5t-2.5 -95t-2.5 -75.5t8 -55.5t19 -27.5t22 -7q27 -2 27 -16q0 -21 -63 -21q-26 0 -44.5 14t-26.5 27.5t-9 13.5t-8 -6.5t-19.5 -15.5t-28.5 -18q-37 -22 -76 -22zM288 208l-10 -2l-29 -5t-28 -6
t-30.5 -9t-24 -12.5t-22.5 -17.5q-18 -28 -18 -59t20 -51.5t51.5 -20.5t50 8t27.5 18t14 27q6 19 6 49v72q0 9 -7 9z" />
    <glyph glyph-name="Abreve" unicode="&#x102;" horiz-adv-x="812" 
d="M292 891q0 3 11 3h5q4 0 11 -11l16 -24t30.5 -24t54 -11t53.5 17.5t29 35t12 17.5h4q11 0 11 -3q0 -40 -31.5 -83t-87.5 -43t-87 41.5t-31 84.5zM135 0l-86 -4q-29 0 -29 12q0 14 15 19q32 12 56 53.5t120.5 251l171.5 369.5q7 15 12.5 19t16 4t13.5 -4t11 -27l12.5 -35
l14.5 -39t32 -81l100.5 -236.5t90.5 -207t33 -42t36.5 -19t26 -5t10.5 -15.5q0 -15 -27 -15l-90 6l-93 -4q-31 0 -39.5 2.5t-8.5 10.5t8 12.5t17 6t17 9t8 25t-25 85.5t-42 100q-9 17 -41 17l-121 -2h-53q-45 0 -56.5 -5t-19 -21l-21.5 -44.5t-19 -39.5t-12 -28
q-13 -30 -13 -50t11.5 -32t25.5 -14q37 -3 37 -19q0 -7 -3 -10.5t-14 -3.5zM319 459.5q-48 -110.5 -48 -122.5t9 -15t42 -3h31l95 1q39 0 39 14.5t-49 125t-62 110.5q-9 0 -57 -110.5z" />
    <glyph glyph-name="abreve" unicode="&#x103;" horiz-adv-x="461" 
d="M109 627q0 3 11 3h5q4 0 11 -11l16 -24t30.5 -24t54 -11t53.5 17.5t29 35t12 17.5h4q11 0 11 -3q0 -40 -31.5 -83t-87.5 -43t-87 41.5t-31 84.5zM166 -15q-118 0 -118 100q0 72 60 99q50 21 153 38q3 1 8 1.5t10.5 1.5t8.5 2q7 3 7 14l2 52q0 57 -33 82.5t-64 25.5
q-72 0 -72 -60l4 -36q0 -20 -18 -20q-14 0 -31 5q-31 10 -31 34q0 39 52.5 74.5t105.5 35.5t83 -10t44.5 -22.5t22.5 -33.5q10 -25 10 -78.5t-2.5 -95t-2.5 -75.5t8 -55.5t19 -27.5t22 -7q27 -2 27 -16q0 -21 -63 -21q-26 0 -44.5 14t-26.5 27.5t-9 13.5t-8 -6.5
t-19.5 -15.5t-28.5 -18q-37 -22 -76 -22zM288 208l-10 -2l-29 -5t-28 -6t-30.5 -9t-24 -12.5t-22.5 -17.5q-18 -28 -18 -59t20 -51.5t51.5 -20.5t50 8t27.5 18t14 27q6 19 6 49v72q0 9 -7 9z" />
    <glyph glyph-name="Aogonek" unicode="&#x104;" horiz-adv-x="812" 
d="M135 0l-86 -4q-29 0 -29 12q0 14 15 19q30 11 51.5 47.5t115 239.5l181.5 387q7 15 12.5 19t16 4t13.5 -4t11 -27l12.5 -35l14.5 -39t32 -81l100.5 -236.5t90.5 -207t33 -42t36.5 -19t26 -5t10.5 -15.5q0 -15 -27 -15l-90 6q-104 0 -127 -50q-10 -23 -10 -49t15 -47.5
t36 -21.5t36 12.5t19 12.5q8 0 8 -10.5t-29.5 -32.5t-67.5 -22t-59 29.5t-21 59t17 56.5t38 41q54 39 54 79q0 22 -26 91q-34 92 -45.5 103.5t-27.5 12.5l-94 -2q-21 0 -80 -0.5t-71 -7.5q-7 -5 -14 -19.5l-21 -43t-19 -39.5t-12 -28q-13 -30 -13 -50t11.5 -32t25.5 -14
q37 -3 37 -19q0 -7 -3 -10.5t-14 -3.5zM319 459.5q-48 -110.5 -48 -122.5t9 -15t42 -3h31l95 1q39 0 39 14.5t-49 125t-62 110.5q-9 0 -57 -110.5z" />
    <glyph glyph-name="aogonek" unicode="&#x105;" horiz-adv-x="461" 
d="M166 -15q-118 0 -118 100q0 72 60 99q50 21 153 38q3 1 8 1.5t10.5 1.5t8.5 2q7 3 7 14l2 52q0 57 -33 82.5t-64 25.5q-72 0 -72 -60l4 -36q0 -20 -18 -20q-14 0 -31 5q-31 10 -31 34q0 39 52.5 74.5t105.5 35.5t83 -10t44.5 -22.5t22.5 -33.5q10 -25 10 -78.5t-2.5 -95
t-2.5 -75.5t8 -55.5t19 -27.5t22 -7t19 -4t8 -12t-7.5 -13t-26.5 -8.5t-30 -8.5q-77 -30 -77 -85q0 -28 15 -46t32.5 -18t33.5 13t20 13t4 -10t-28.5 -32t-62.5 -22t-54 25t-20 60.5t29 61.5t59 38l29 12q0 2 -11.5 6.5t-23.5 17t-17.5 21.5t-6.5 9t-8 -6.5t-19.5 -15.5
t-28.5 -18q-37 -22 -76 -22zM288 208l-10 -2l-29 -5t-28 -6t-30.5 -9t-24 -12.5t-22.5 -17.5q-18 -28 -18 -59t20 -51.5t51.5 -20.5t50 8t27.5 18t14 27q6 19 6 49v72q0 9 -7 9z" />
    <glyph glyph-name="Cacute" unicode="&#x106;" horiz-adv-x="807" 
d="M381 755q0 5 7 15q32 48 68 137q8 19 20 19t32.5 -6.5t20.5 -19.5q0 -23 -97 -125q-29 -31 -40 -31t-11 11zM86 520q42 87 129.5 140.5t207.5 53.5q61 0 123 -18t99 -36l37 -19q3 0 10 5t11.5 5t9.5 -4t5.5 -22.5t4 -51t6.5 -53.5t3 -25q0 -18 -12 -18q-9 0 -17 14
q-97 182 -280 182q-125 0 -205 -80t-80 -209q0 -144 74 -246q38 -52 104 -82t154 -30q144 0 242 150q4 7 15 7q9 0 9 -12.5t-3.5 -31t-8.5 -41t-6 -27.5q-2 -11 -16 -18q-54 -26 -84 -39q-80 -34 -170.5 -34t-160.5 21t-114.5 55t-74.5 80q-54 81 -54 189t42 195z" />
    <glyph glyph-name="cacute" unicode="&#x107;" horiz-adv-x="452" 
d="M213 491q0 5 7 15q32 48 68 137q8 19 20 19t32.5 -6.5t20.5 -19.5q0 -23 -97 -125q-29 -31 -40 -31t-11 11zM95.5 36q-56.5 57 -56.5 154.5t64.5 168t167.5 70.5q35 0 75.5 -10t41.5 -23q2 -24 2 -57.5t-11 -33.5q-10 0 -18 13q-17 29 -64.5 50.5t-83.5 21.5
q-20 0 -39 -15t-31 -33q-29 -42 -29 -119t49.5 -134.5t121.5 -57.5q35 0 65 13t46.5 26t20.5 13q11 0 11 -10t-21 -30.5t-41 -32.5q-49 -31 -120 -31q-94 0 -150.5 57z" />
    <glyph glyph-name="Ccircumflex" unicode="&#x108;" horiz-adv-x="807" 
d="M307 763q0 1 4 9q62 91 71 111t12 23q5 6 11 6h25q11 0 17 -11q25 -44 55.5 -88.5t30.5 -48.5q0 -8 -9 -8t-55.5 42.5t-51 42.5t-49 -42t-53 -42t-8.5 6zM86 520q42 87 129.5 140.5t207.5 53.5q61 0 123 -18t99 -36l37 -19q3 0 10 5t11.5 5t9.5 -4t5.5 -22.5t4 -51
t6.5 -53.5t3 -25q0 -18 -12 -18q-9 0 -17 14q-97 182 -280 182q-125 0 -205 -80t-80 -209q0 -144 74 -246q38 -52 104 -82t154 -30q144 0 242 150q4 7 15 7q9 0 9 -12.5t-3.5 -31t-8.5 -41t-6 -27.5q-2 -11 -16 -18q-54 -26 -84 -39q-80 -34 -170.5 -34t-160.5 21t-114.5 55
t-74.5 80q-54 81 -54 189t42 195z" />
    <glyph glyph-name="ccircumflex" unicode="&#x109;" horiz-adv-x="452" 
d="M139 499q0 1 4 9q62 91 71 111t12 23q5 6 11 6h25q11 0 17 -11q25 -44 55.5 -88.5t30.5 -48.5q0 -8 -9 -8t-55.5 42.5t-51 42.5t-49 -42t-53 -42t-8.5 6zM95.5 36q-56.5 57 -56.5 154.5t64.5 168t167.5 70.5q35 0 75.5 -10t41.5 -23q2 -24 2 -57.5t-11 -33.5
q-10 0 -18 13q-17 29 -64.5 50.5t-83.5 21.5q-20 0 -39 -15t-31 -33q-29 -42 -29 -119t49.5 -134.5t121.5 -57.5q35 0 65 13t46.5 26t20.5 13q11 0 11 -10t-21 -30.5t-41 -32.5q-49 -31 -120 -31q-94 0 -150.5 57z" />
    <glyph glyph-name="Cdotaccent" unicode="&#x10a;" horiz-adv-x="807" 
d="M387.5 818q-14.5 21 -14.5 34.5t17.5 35t33 21.5t31 -20.5t15.5 -36.5t-19.5 -35.5t-28.5 -19.5q-20 0 -34.5 21zM86 520q42 87 129.5 140.5t207.5 53.5q61 0 123 -18t99 -36l37 -19q3 0 10 5t11.5 5t9.5 -4t5.5 -22.5t4 -51t6.5 -53.5t3 -25q0 -18 -12 -18q-9 0 -17 14
q-97 182 -280 182q-125 0 -205 -80t-80 -209q0 -144 74 -246q38 -52 104 -82t154 -30q144 0 242 150q4 7 15 7q9 0 9 -12.5t-3.5 -31t-8.5 -41t-6 -27.5q-2 -11 -16 -18q-54 -26 -84 -39q-80 -34 -170.5 -34t-160.5 21t-114.5 55t-74.5 80q-54 81 -54 189t42 195z" />
    <glyph glyph-name="cdotaccent" unicode="&#x10b;" horiz-adv-x="452" 
d="M219.5 554q-14.5 21 -14.5 34.5t17.5 35t33 21.5t31 -20.5t15.5 -36.5t-19.5 -35.5t-28.5 -19.5q-20 0 -34.5 21zM95.5 36q-56.5 57 -56.5 154.5t64.5 168t167.5 70.5q35 0 75.5 -10t41.5 -23q2 -24 2 -57.5t-11 -33.5q-10 0 -18 13q-17 29 -64.5 50.5t-83.5 21.5
q-20 0 -39 -15t-31 -33q-29 -42 -29 -119t49.5 -134.5t121.5 -57.5q35 0 65 13t46.5 26t20.5 13q11 0 11 -10t-21 -30.5t-41 -32.5q-49 -31 -120 -31q-94 0 -150.5 57z" />
    <glyph glyph-name="Ccaron" unicode="&#x10c;" horiz-adv-x="807" 
d="M316 912q9 0 55 -42.5t50.5 -42.5t49.5 42t53.5 42t8.5 -6q0 -1 -4 -9q-62 -91 -71 -111t-12 -23q-5 -6 -11 -6h-25q-12 0 -18 11q-17 29 -51 81t-34 58t9 6zM86 520q42 87 129.5 140.5t207.5 53.5q61 0 123 -18t99 -36l37 -19q3 0 10 5t11.5 5t9.5 -4t5.5 -22.5t4 -51
t6.5 -53.5t3 -25q0 -18 -12 -18q-9 0 -17 14q-97 182 -280 182q-125 0 -205 -80t-80 -209q0 -144 74 -246q38 -52 104 -82t154 -30q144 0 242 150q4 7 15 7q9 0 9 -12.5t-3.5 -31t-8.5 -41t-6 -27.5q-2 -11 -16 -18q-54 -26 -84 -39q-80 -34 -170.5 -34t-160.5 21t-114.5 55
t-74.5 80q-54 81 -54 189t42 195z" />
    <glyph glyph-name="ccaron" unicode="&#x10d;" horiz-adv-x="452" 
d="M148 648q9 0 55 -42.5t50.5 -42.5t49.5 42t53.5 42t8.5 -6q0 -1 -4 -9q-62 -91 -71 -111t-12 -23q-5 -6 -11 -6h-25q-12 0 -18 11q-17 29 -51 81t-34 58t9 6zM95.5 36q-56.5 57 -56.5 154.5t64.5 168t167.5 70.5q35 0 75.5 -10t41.5 -23q2 -24 2 -57.5t-11 -33.5
q-10 0 -18 13q-17 29 -64.5 50.5t-83.5 21.5q-20 0 -39 -15t-31 -33q-29 -42 -29 -119t49.5 -134.5t121.5 -57.5q35 0 65 13t46.5 26t20.5 13q11 0 11 -10t-21 -30.5t-41 -32.5q-49 -31 -120 -31q-94 0 -150.5 57z" />
    <glyph glyph-name="Dcaron" unicode="&#x10e;" horiz-adv-x="792" 
d="M271 912q9 0 55 -42.5t50.5 -42.5t49.5 42t53.5 42t8.5 -6q0 -1 -4 -9q-62 -91 -71 -111t-12 -23q-5 -6 -11 -6h-25q-12 0 -18 11q-17 29 -51 81t-34 58t9 6zM114 369l-1 254q0 17 -16.5 34.5t-33.5 18.5t-23.5 2t-13 6.5t-6.5 15t8.5 11t42.5 1.5h87l195 4
q145 0 265 -82q58 -39 94 -102.5t36 -137.5t-9.5 -125.5t-31.5 -89t-44 -61t-56 -51.5t-91 -49t-117 -21l-240 5q-35 0 -65 -2.5t-35 -2.5q-24 0 -24 13q0 8 3.5 11.5t15 6.5t16.5 5q16 7 29.5 26.5t13.5 38.5zM198 354l-1 -213q0 -47 10 -67q5 -9 19 -13l32 -9l41.5 -11.5
t61.5 -6.5h20q68 0 116 19.5t92 61.5q74 71 74 230q0 80 -31.5 145t-82.5 104q-105 79 -229 79h-40q-48 0 -64 -17q-8 -8 -9.5 -14t-4 -23.5t-2.5 -30.5v-42z" />
    <glyph glyph-name="dcaron" unicode="&#x10f;" horiz-adv-x="565" 
d="M528 718q0 3 11 11t17 13q11 11 19 11t19 -5.5t23.5 -20.5t12.5 -35q0 -43 -32 -69.5t-46 -26.5t-14 7q0 3 11 9q31 16 31 46q0 28 -39 46q-13 6 -13 14zM394 -3l-3 37q0 17 -9 17q-3 0 -14.5 -10l-26.5 -22.5t-43.5 -22.5t-61.5 -10q-93 0 -145 61.5t-52 153t64.5 164.5
t178.5 73q26 0 68.5 -14.5t46.5 -14.5t4 36l2 129q0 54 -5.5 76t-17 29t-30.5 7h-11q-15 0 -18 1t-3 7v1q0 7 10 10.5t40.5 13t48 17.5l26.5 12q19 10 27 10q12 0 12 -20q0 -3 -6.5 -85t-6.5 -132l-2 -365q0 -68 6.5 -91t28.5 -30q3 -1 17 -3.5t20 -6t6 -11.5q0 -12 -77 -18
q-16 -1 -37 -5.5t-26 -4.5q-11 0 -11 11zM148 361.5q-37 -47.5 -37 -121.5t46.5 -138t119.5 -64q45 0 82 23t37 56l1 171q0 61 -28 77q-74 44 -119 44q-65 0 -102 -47.5z" />
    <glyph glyph-name="Dcroat" unicode="&#x110;" horiz-adv-x="792" 
d="M114 401l-1 222q0 17 -16.5 34.5t-33.5 18.5t-23.5 2t-13 6.5t-6.5 15t8.5 11t42.5 1.5h87l195 4q145 0 265 -82q58 -39 94 -102.5t36 -137.5t-9.5 -125.5t-31.5 -89t-44 -61t-56 -51.5t-91 -49t-117 -21l-240 5q-35 0 -65 -2.5t-35 -2.5q-24 0 -24 13q0 8 3.5 11.5
t15 6.5t16.5 5q16 7 29.5 26.5t13.5 38.5l1 226q0 9 -2.5 12.5t-11.5 3.5h-65q-12 0 -12 21.5t12 21.5l65 1q10 0 12 3t2 14zM198 322l-1 -181q0 -40 4 -51t6 -15.5t12 -9.5t16 -7q38 -9 63 -16.5t63 -7.5h20q68 0 116 19.5t92 61.5q74 71 74 230q0 80 -31.5 145t-82.5 104
q-105 79 -229 79h-40q-48 0 -64 -17q-8 -8 -9.5 -14t-4 -23.5t-2.5 -30.5v-42l-1 -140q0 -14 3 -18t18 -4h151q14 0 17.5 -5t3.5 -15.5t-1 -13.5q-3 -10 -22 -10l-150 -1h-10q-8 0 -9.5 -2t-1.5 -10v-5z" />
    <glyph glyph-name="dcroat" unicode="&#x111;" horiz-adv-x="565" 
d="M394 -3l-3 37q0 17 -9 17q-3 0 -14.5 -10l-26.5 -22.5t-43.5 -22.5t-61.5 -10q-93 0 -145 61.5t-52 153t64.5 164.5t178.5 73q26 0 68.5 -14.5t46.5 -14.5t4 36v72q0 12 -3 15t-9 3h-139q-14 0 -17.5 4.5t-3.5 15t1 14.5q2 10 21 10l130 1h8q9 0 11.5 1t2.5 30t-10 52
t-43 23h-11q-15 0 -18 1t-3 7v1q0 7 10 10.5t40.5 13t48 17.5l26.5 12q19 10 27 10q12 0 12 -20l-11 -153q0 -5 4.5 -6t24.5 -1h32q12 0 12 -21.5t-12 -21.5h-45q-12 0 -15 -2t-3 -12l-2 -365q0 -68 6.5 -91t28.5 -30q3 -1 17 -3.5t20 -6t6 -11.5q0 -12 -77 -18
q-16 -1 -37 -5.5t-26 -4.5q-11 0 -11 11zM148 361.5q-37 -47.5 -37 -121.5t46.5 -138t119.5 -64q45 0 82 23t37 56l1 171q0 61 -28 77q-74 44 -119 44q-65 0 -102 -47.5z" />
    <glyph glyph-name="Emacron" unicode="&#x112;" horiz-adv-x="604" 
d="M400 827l-188 1q-10 0 -10 22t16 22l181 -2q9 0 12 -5t3 -19q0 -19 -14 -19zM116 355l3 173q0 27 -2 91q-1 29 -25 45t-56 17q-16 0 -16 18q0 14 28 14l27 -2l244 -5l200 4q19 0 19 -23q0 -6 -6 -39.5t-6 -52.5q0 -32 -15.5 -32t-15.5 24t-17 46t-42 23q-90 7 -138 7h-26
q-52 0 -60 -7q-15 -13 -15 -221q0 -50 19 -51h98q60 0 80 4q52 10 59 52q3 17 13 17t12 -3t2 -13l-8 -105l3 -61q0 -25 -7 -25q-15 0 -22 24q-14 42 -25 49q-21 14 -73 14h-72l-32 1h-7q-41 0 -41 -19l-2 -144v-40q0 -72 24.5 -79.5t42.5 -7.5q150 0 217 24q59 22 72 46
q12 25 22 25q12 0 12 -17q0 -43 -43 -87t-75 -44q-72 0 -162.5 5t-112.5 5l-136 -9q-21 0 -21 10v12q0 6 10 8q11 1 34 12t30.5 46t7.5 147v124z" />
    <glyph glyph-name="emacron" unicode="&#x113;" horiz-adv-x="466" 
d="M324 563l-188 1q-10 0 -10 22t16 22l181 -2q9 0 12 -5t3 -19q0 -19 -14 -19zM100.5 35q-61.5 54 -61.5 156.5t56.5 171.5t146.5 69q42 0 76.5 -15t53.5 -36.5t32 -45.5q22 -41 22 -62q0 -18 -41 -18h-257q-8 0 -9.5 -1.5t-1.5 -9.5q0 -94 50.5 -148t118.5 -54
q42 0 85.5 22.5t45.5 22.5q10 0 10 -9q0 -12 -22 -32.5t-42 -33.5q-48 -31 -113 -31q-88 0 -149.5 54zM136 279l176 6q14 0 17.5 2.5t3.5 9.5q0 30 -28 70t-78 40t-77 -39.5t-27 -74.5q0 -14 13 -14z" />
    <glyph glyph-name="Ebreve" unicode="&#x114;" horiz-adv-x="604" 
d="M195 891q0 3 11 3h5q4 0 11 -11l16 -24t30.5 -24t54 -11t53.5 17.5t29 35t12 17.5h4q11 0 11 -3q0 -40 -31.5 -83t-87.5 -43t-87 41.5t-31 84.5zM116 355l3 173q0 27 -2 91q-1 29 -25 45t-56 17q-16 0 -16 18q0 14 28 14l27 -2l244 -5l200 4q19 0 19 -23q0 -6 -6 -39.5
t-6 -52.5q0 -32 -15.5 -32t-15.5 24t-17 46t-42 23q-90 7 -138 7h-26q-52 0 -60 -7q-15 -13 -15 -221q0 -50 19 -51h98q60 0 80 4q52 10 59 52q3 17 13 17t12 -3t2 -13l-8 -105l3 -61q0 -25 -7 -25q-15 0 -22 24q-14 42 -25 49q-21 14 -73 14h-72l-32 1h-7q-41 0 -41 -19
l-2 -144v-40q0 -72 24.5 -79.5t42.5 -7.5q150 0 217 24q59 22 72 46q12 25 22 25q12 0 12 -17q0 -43 -43 -87t-75 -44q-72 0 -162.5 5t-112.5 5l-136 -9q-21 0 -21 10v12q0 6 10 8q11 1 34 12t30.5 46t7.5 147v124z" />
    <glyph glyph-name="ebreve" unicode="&#x115;" horiz-adv-x="466" 
d="M119 627q0 3 11 3h5q4 0 11 -11l16 -24t30.5 -24t54 -11t53.5 17.5t29 35t12 17.5h4q11 0 11 -3q0 -40 -31.5 -83t-87.5 -43t-87 41.5t-31 84.5zM100.5 35q-61.5 54 -61.5 156.5t56.5 171.5t146.5 69q42 0 76.5 -15t53.5 -36.5t32 -45.5q22 -41 22 -62q0 -18 -41 -18
h-257q-8 0 -9.5 -1.5t-1.5 -9.5q0 -94 50.5 -148t118.5 -54q42 0 85.5 22.5t45.5 22.5q10 0 10 -9q0 -12 -22 -32.5t-42 -33.5q-48 -31 -113 -31q-88 0 -149.5 54zM136 279l176 6q14 0 17.5 2.5t3.5 9.5q0 30 -28 70t-78 40t-77 -39.5t-27 -74.5q0 -14 13 -14z" />
    <glyph glyph-name="Edotaccent" unicode="&#x116;" horiz-adv-x="604" 
d="M276.5 818q-14.5 21 -14.5 34.5t17.5 35t33 21.5t31 -20.5t15.5 -36.5t-19.5 -35.5t-28.5 -19.5q-20 0 -34.5 21zM116 355l3 173q0 27 -2 91q-1 29 -25 45t-56 17q-16 0 -16 18q0 14 28 14l27 -2l244 -5l200 4q19 0 19 -23q0 -6 -6 -39.5t-6 -52.5q0 -32 -15.5 -32
t-15.5 24t-17 46t-42 23q-90 7 -138 7h-26q-52 0 -60 -7q-15 -13 -15 -221q0 -50 19 -51h98q60 0 80 4q52 10 59 52q3 17 13 17t12 -3t2 -13l-8 -105l3 -61q0 -25 -7 -25q-15 0 -22 24q-14 42 -25 49q-21 14 -73 14h-72l-32 1h-7q-41 0 -41 -19l-2 -144v-40
q0 -72 24.5 -79.5t42.5 -7.5q150 0 217 24q59 22 72 46q12 25 22 25q12 0 12 -17q0 -43 -43 -87t-75 -44q-72 0 -162.5 5t-112.5 5l-136 -9q-21 0 -21 10v12q0 6 10 8q11 1 34 12t30.5 46t7.5 147v124z" />
    <glyph glyph-name="edotaccent" unicode="&#x117;" horiz-adv-x="466" 
d="M200.5 554q-14.5 21 -14.5 34.5t17.5 35t33 21.5t31 -20.5t15.5 -36.5t-19.5 -35.5t-28.5 -19.5q-20 0 -34.5 21zM100.5 35q-61.5 54 -61.5 156.5t56.5 171.5t146.5 69q42 0 76.5 -15t53.5 -36.5t32 -45.5q22 -41 22 -62q0 -18 -41 -18h-257q-8 0 -9.5 -1.5t-1.5 -9.5
q0 -94 50.5 -148t118.5 -54q42 0 85.5 22.5t45.5 22.5q10 0 10 -9q0 -12 -22 -32.5t-42 -33.5q-48 -31 -113 -31q-88 0 -149.5 54zM136 279l176 6q14 0 17.5 2.5t3.5 9.5q0 30 -28 70t-78 40t-77 -39.5t-27 -74.5q0 -14 13 -14z" />
    <glyph glyph-name="Eogonek" unicode="&#x118;" horiz-adv-x="604" 
d="M116 355l3 173q0 27 -2 91q-1 29 -25 45t-56 17q-16 1 -16 18q0 14 28 14l27 -2l244 -5l200 4q19 0 19 -23q0 -6 -6 -39.5t-6 -52.5q0 -32 -15.5 -32t-15.5 24t-17 45.5t-42 23.5q-90 7 -138 7h-26q-52 0 -60 -7q-15 -13 -15 -221q0 -50 19 -51h98q60 0 80 4t33.5 13
t19 19.5t5.5 17.5q2 19 15 19q9 0 11 -3t2 -13l-8 -105l3 -61q0 -25 -7 -25q-14 0 -24 32.5t-23 40.5q-21 14 -73 14h-72l-32 1h-7q-41 0 -41 -19l-2 -144v-40q0 -72 24.5 -79.5t42.5 -7.5q150 0 217 24q59 22 72 46q12 25 22 25q12 0 12 -16t-7.5 -35.5t-24.5 -40
t-28 -28.5q-24 -18 -30.5 -21.5t-9.5 -5.5t-7.5 -5.5t-9 -7.5t-9 -9.5t-8.5 -12t-7 -13.5q-7 -18 -7 -45t17.5 -46.5t38 -19.5t36.5 10t17 10q7 0 7 -6q0 -17 -25 -36t-65.5 -19t-64.5 27.5t-24 62.5q0 53 65 107q0 2 -12 2l-235 10l-136 -9q-21 0 -21 10v12q0 6 10 8
q11 1 34 12t30.5 46t7.5 147v124z" />
    <glyph glyph-name="eogonek" unicode="&#x119;" horiz-adv-x="466" 
d="M294 -14q-15 -5 -44 -5q-88 0 -149.5 54t-61.5 156.5t56.5 171.5t146.5 69q42 0 76.5 -15t53.5 -36.5t32 -45.5q22 -41 22 -62q0 -18 -41 -18h-257q-8 0 -9.5 -1.5t-1.5 -9.5q0 -94 50.5 -148t118.5 -54q42 0 85.5 22.5t45.5 22.5q10 0 10 -10.5t-45.5 -48.5t-55.5 -54
q-19 -32 -19 -59q0 -46 27 -67q15 -11 31.5 -11t31.5 10t16 10q7 0 7 -6q0 -17 -23.5 -36t-53.5 -19t-50 11q-45 26 -45 81q0 43 38 84l13 12q0 2 -3 2h-2zM136 279l176 6q14 0 17.5 2.5t3.5 9.5q0 30 -28 70t-78 40t-77 -39.5t-27 -74.5q0 -14 13 -14z" />
    <glyph glyph-name="Ecaron" unicode="&#x11a;" horiz-adv-x="604" 
d="M205 912q9 0 55 -42.5t50.5 -42.5t49.5 42t53.5 42t8.5 -6q0 -1 -4 -9q-62 -91 -71 -111t-12 -23q-5 -6 -11 -6h-25q-12 0 -18 11q-17 29 -51 81t-34 58t9 6zM116 355l3 173q0 27 -2 91q-1 29 -25 45t-56 17q-16 0 -16 18q0 14 28 14l27 -2l244 -5l200 4q19 0 19 -23
q0 -6 -6 -39.5t-6 -52.5q0 -32 -15.5 -32t-15.5 24t-17 46t-42 23q-90 7 -138 7h-26q-52 0 -60 -7q-15 -13 -15 -221q0 -50 19 -51h98q60 0 80 4q52 10 59 52q3 17 13 17t12 -3t2 -13l-8 -105l3 -61q0 -25 -7 -25q-15 0 -22 24q-14 42 -25 49q-21 14 -73 14h-72l-32 1h-7
q-41 0 -41 -19l-2 -144v-40q0 -72 24.5 -79.5t42.5 -7.5q150 0 217 24q59 22 72 46q12 25 22 25q12 0 12 -17q0 -43 -43 -87t-75 -44q-72 0 -162.5 5t-112.5 5l-136 -9q-21 0 -21 10v12q0 6 10 8q11 1 34 12t30.5 46t7.5 147v124z" />
    <glyph glyph-name="ecaron" unicode="&#x11b;" horiz-adv-x="466" 
d="M129 648q9 0 55 -42.5t50.5 -42.5t49.5 42t53.5 42t8.5 -6q0 -1 -4 -9q-62 -91 -71 -111t-12 -23q-5 -6 -11 -6h-25q-12 0 -18 11q-17 29 -51 81t-34 58t9 6zM100.5 35q-61.5 54 -61.5 156.5t56.5 171.5t146.5 69q42 0 76.5 -15t53.5 -36.5t32 -45.5q22 -41 22 -62
q0 -18 -41 -18h-257q-8 0 -9.5 -1.5t-1.5 -9.5q0 -94 50.5 -148t118.5 -54q42 0 85.5 22.5t45.5 22.5q10 0 10 -9q0 -12 -22 -32.5t-42 -33.5q-48 -31 -113 -31q-88 0 -149.5 54zM136 279l176 6q14 0 17.5 2.5t3.5 9.5q0 30 -28 70t-78 40t-77 -39.5t-27 -74.5q0 -14 13 -14
z" />
    <glyph glyph-name="Gcircumflex" unicode="&#x11c;" horiz-adv-x="818" 
d="M309 763q0 1 4 9q62 91 71 111t12 23q5 6 11 6h25q11 0 17 -11q25 -44 55.5 -88.5t30.5 -48.5q0 -8 -9 -8t-55.5 42.5t-51 42.5t-49 -42t-53 -42t-8.5 6zM678 365l80 1h15q16 0 16 -9q0 -7 -25.5 -18t-28.5 -28q-7 -43 -7 -92.5t1 -72.5t1.5 -32.5t1.5 -16.5t1 -11
t-7.5 -6.5t-24.5 -7t-31 -13l-21 -12.5t-18.5 -10l-23.5 -12t-27 -12.5t-31 -11.5t-33 -9q-38 -9 -72 -9q-109 0 -189.5 29.5t-124.5 79.5q-86 99 -86 237q0 109 43.5 196t133.5 140.5t214 53.5q119 0 206 -45q20 -11 30.5 -18.5t13 -7.5t13 7.5t14.5 7.5q15 0 15.5 -24.5
t4 -56.5t6.5 -53t3 -25q0 -17 -12 -17t-17 12q-35 76 -117 128.5t-169 52.5q-125 0 -206.5 -78.5t-81.5 -217.5q0 -92 34 -173t103.5 -134t153 -53t146 35t69.5 80q3 24 3 126q0 39 -14.5 53.5t-45.5 18t-34.5 10t-3.5 12.5q0 11 18 11z" />
    <glyph glyph-name="gcircumflex" unicode="&#x11d;" horiz-adv-x="488" 
d="M124 499q0 1 4 9q62 91 71 111t12 23q5 6 11 6h25q11 0 17 -11q25 -44 55.5 -88.5t30.5 -48.5q0 -8 -9 -8t-55.5 42.5t-51 42.5t-49 -42t-53 -42t-8.5 6zM70.5 -164q-31.5 26 -31.5 60t18 52.5t36 27.5t18 11.5t-5 6.5t-12 9q-16 13 -16 43.5t13 52.5t26 33t13 14.5
t-10.5 12.5l-23.5 20.5t-23.5 38t-10.5 56t7.5 53t25 49t54 41.5t81 16t72.5 -10t41.5 -20t19.5 -10t49 18q14 6 21 27t15 21q13 0 13 -8q0 -24 -7 -51.5t-17 -43t-39 -27.5q11 -30 11 -50q0 -64 -48 -108t-117 -44q-26 0 -49.5 4.5t-28 4.5t-12.5 -2t-20 -14t-12 -33
q0 -34 31 -43t103 -9h46q145 0 145 -88q0 -31 -7 -47q-19 -49 -78 -78t-137 -29q-45 0 -84 8.5t-70.5 34.5zM97 -91q0 -44 37 -66.5t95 -22.5t107.5 25.5t49.5 65.5q0 36 -35 45q-27 6 -76 6h-9q-32 0 -78 7l-45 7q-10 0 -28 -20t-18 -47zM164 379.5q-26 -31.5 -26 -90.5
t28.5 -99t72.5 -40t68 34.5t24 87.5t-28 96t-70.5 43t-68.5 -31.5z" />
    <glyph glyph-name="Gbreve" unicode="&#x11e;" horiz-adv-x="818" 
d="M308 891q0 3 11 3h5q4 0 11 -11l16 -24t30.5 -24t54 -11t53.5 17.5t29 35t12 17.5h4q11 0 11 -3q0 -40 -31.5 -83t-87.5 -43t-87 41.5t-31 84.5zM678 365l80 1h15q16 0 16 -9q0 -7 -25.5 -18t-28.5 -28q-7 -43 -7 -92.5t1 -72.5t1.5 -32.5t1.5 -16.5t1 -11t-7.5 -6.5
t-24.5 -7t-31 -13l-21 -12.5t-18.5 -10l-23.5 -12t-27 -12.5t-31 -11.5t-33 -9q-38 -9 -72 -9q-109 0 -189.5 29.5t-124.5 79.5q-86 99 -86 237q0 109 43.5 196t133.5 140.5t214 53.5q119 0 206 -45q20 -11 30.5 -18.5t13 -7.5t13 7.5t14.5 7.5q15 0 15.5 -24.5t4 -56.5
t6.5 -53t3 -25q0 -17 -12 -17t-17 12q-35 76 -117 128.5t-169 52.5q-125 0 -206.5 -78.5t-81.5 -217.5q0 -92 34 -173t103.5 -134t153 -53t146 35t69.5 80q3 24 3 126q0 39 -14.5 53.5t-45.5 18t-34.5 10t-3.5 12.5q0 11 18 11z" />
    <glyph glyph-name="gbreve" unicode="&#x11f;" horiz-adv-x="488" 
d="M123 627q0 3 11 3h5q4 0 11 -11l16 -24t30.5 -24t54 -11t53.5 17.5t29 35t12 17.5h4q11 0 11 -3q0 -40 -31.5 -83t-87.5 -43t-87 41.5t-31 84.5zM70.5 -164q-31.5 26 -31.5 60t18 52.5t36 27.5t18 11.5t-5 6.5t-12 9q-16 13 -16 43.5t13 52.5t26 33t13 14.5t-10.5 12.5
l-23.5 20.5t-23.5 38t-10.5 56t7.5 53t25 49t54 41.5t81 16t72.5 -10t41.5 -20t19.5 -10t49 18q14 6 21 27t15 21q13 0 13 -8q0 -24 -7 -51.5t-17 -43t-39 -27.5q11 -30 11 -50q0 -64 -48 -108t-117 -44q-26 0 -49.5 4.5t-28 4.5t-12.5 -2t-20 -14t-12 -33q0 -34 31 -43
t103 -9h46q145 0 145 -88q0 -31 -7 -47q-19 -49 -78 -78t-137 -29q-45 0 -84 8.5t-70.5 34.5zM97 -91q0 -44 37 -66.5t95 -22.5t107.5 25.5t49.5 65.5q0 36 -35 45q-27 6 -76 6h-9q-32 0 -78 7l-45 7q-10 0 -28 -20t-18 -47zM164 379.5q-26 -31.5 -26 -90.5t28.5 -99
t72.5 -40t68 34.5t24 87.5t-28 96t-70.5 43t-68.5 -31.5z" />
    <glyph glyph-name="Gdotaccent" unicode="&#x120;" horiz-adv-x="818" 
d="M389.5 818q-14.5 21 -14.5 34.5t17.5 35t33 21.5t31 -20.5t15.5 -36.5t-19.5 -35.5t-28.5 -19.5q-20 0 -34.5 21zM678 365l80 1h15q16 0 16 -9q0 -7 -25.5 -18t-28.5 -28q-7 -43 -7 -92.5t1 -72.5t1.5 -32.5t1.5 -16.5t1 -11t-7.5 -6.5t-24.5 -7t-31 -13l-21 -12.5
t-18.5 -10l-23.5 -12t-27 -12.5t-31 -11.5t-33 -9q-38 -9 -72 -9q-109 0 -189.5 29.5t-124.5 79.5q-86 99 -86 237q0 109 43.5 196t133.5 140.5t214 53.5q119 0 206 -45q20 -11 30.5 -18.5t13 -7.5t13 7.5t14.5 7.5q15 0 15.5 -24.5t4 -56.5t6.5 -53t3 -25q0 -17 -12 -17
t-17 12q-35 76 -117 128.5t-169 52.5q-125 0 -206.5 -78.5t-81.5 -217.5q0 -92 34 -173t103.5 -134t153 -53t146 35t69.5 80q3 24 3 126q0 39 -14.5 53.5t-45.5 18t-34.5 10t-3.5 12.5q0 11 18 11z" />
    <glyph glyph-name="gdotaccent" unicode="&#x121;" horiz-adv-x="488" 
d="M204.5 554q-14.5 21 -14.5 34.5t17.5 35t33 21.5t31 -20.5t15.5 -36.5t-19.5 -35.5t-28.5 -19.5q-20 0 -34.5 21zM70.5 -164q-31.5 26 -31.5 60t18 52.5t36 27.5t18 11.5t-5 6.5t-12 9q-16 13 -16 43.5t13 52.5t26 33t13 14.5t-10.5 12.5l-23.5 20.5t-23.5 38t-10.5 56
t7.5 53t25 49t54 41.5t81 16t72.5 -10t41.5 -20t19.5 -10t49 18q14 6 21 27t15 21q13 0 13 -8q0 -24 -7 -51.5t-17 -43t-39 -27.5q11 -30 11 -50q0 -64 -48 -108t-117 -44q-26 0 -49.5 4.5t-28 4.5t-12.5 -2t-20 -14t-12 -33q0 -34 31 -43t103 -9h46q145 0 145 -88
q0 -31 -7 -47q-19 -49 -78 -78t-137 -29q-45 0 -84 8.5t-70.5 34.5zM97 -91q0 -44 37 -66.5t95 -22.5t107.5 25.5t49.5 65.5q0 36 -35 45q-27 6 -76 6h-9q-32 0 -78 7l-45 7q-10 0 -28 -20t-18 -47zM164 379.5q-26 -31.5 -26 -90.5t28.5 -99t72.5 -40t68 34.5t24 87.5
t-28 96t-70.5 43t-68.5 -31.5z" />
    <glyph glyph-name="Gcommaaccent" unicode="&#x122;" horiz-adv-x="818" 
d="M390 -79q0 3 11 11t17 13q11 11 19 11t19 -5.5t23.5 -20.5t12.5 -35q0 -43 -32 -69.5t-46 -26.5t-14 7q0 3 11 9q31 16 31 46q0 28 -39 46q-13 6 -13 14zM678 365l80 1h15q16 0 16 -9q0 -7 -25.5 -18t-28.5 -28q-7 -43 -7 -92.5t1 -72.5t1.5 -32.5t1.5 -16.5t1 -11
t-7.5 -6.5t-24.5 -7t-31 -13l-21 -12.5t-18.5 -10l-23.5 -12t-27 -12.5t-31 -11.5t-33 -9q-38 -9 -72 -9q-109 0 -189.5 29.5t-124.5 79.5q-86 99 -86 237q0 109 43.5 196t133.5 140.5t214 53.5q119 0 206 -45q20 -11 30.5 -18.5t13 -7.5t13 7.5t14.5 7.5q15 0 15.5 -24.5
t4 -56.5t6.5 -53t3 -25q0 -17 -12 -17t-17 12q-35 76 -117 128.5t-169 52.5q-125 0 -206.5 -78.5t-81.5 -217.5q0 -92 34 -173t103.5 -134t153 -53t146 35t69.5 80q3 24 3 126q0 39 -14.5 53.5t-45.5 18t-34.5 10t-3.5 12.5q0 11 18 11z" />
    <glyph glyph-name="gcommaaccent" unicode="&#x123;" horiz-adv-x="488" 
d="M185 561q0 43 31.5 69t46 26t14.5 -7q0 -3 -11 -9q-31 -16 -31 -46q0 -28 39 -46q13 -6 13 -14q0 -3 -11 -11t-17 -13q-11 -11 -19 -11t-19.5 5.5t-23.5 21t-12 35.5zM70.5 -164q-31.5 26 -31.5 60t18 52.5t36 27.5t18 11.5t-5 6.5t-12 9q-16 13 -16 43.5t13 52.5t26 33
t13 14.5t-10.5 12.5l-23.5 20.5t-23.5 38t-10.5 56t7.5 53t25 49t54 41.5t81 16t72.5 -10t41.5 -20t19.5 -10t49 18q14 6 21 27t15 21q13 0 13 -8q0 -24 -7 -51.5t-17 -43t-39 -27.5q11 -30 11 -50q0 -64 -48 -108t-117 -44q-26 0 -49.5 4.5t-28 4.5t-12.5 -2t-20 -14
t-12 -33q0 -34 31 -43t103 -9h46q145 0 145 -88q0 -31 -7 -47q-19 -49 -78 -78t-137 -29q-45 0 -84 8.5t-70.5 34.5zM97 -91q0 -44 37 -66.5t95 -22.5t107.5 25.5t49.5 65.5q0 36 -35 45q-27 6 -76 6h-9q-32 0 -78 7l-45 7q-10 0 -28 -20t-18 -47zM164 379.5
q-26 -31.5 -26 -90.5t28.5 -99t72.5 -40t68 34.5t24 87.5t-28 96t-70.5 43t-68.5 -31.5z" />
    <glyph glyph-name="Hcircumflex" unicode="&#x124;" horiz-adv-x="791" 
d="M279 763q0 1 4 9q62 91 71 111t12 23q5 6 11 6h25q11 0 17 -11q25 -44 55.5 -88.5t30.5 -48.5q0 -8 -9 -8t-55.5 42.5t-51 42.5t-49 -42t-53 -42t-8.5 6zM121 402l1 108q0 76 -6 119q-3 25 -26.5 39t-41 14t-23 6.5t-5.5 10.5q0 11 28 11l113 -4l88 2q22 0 22 -14
q0 -17 -35 -17q-20 0 -29 -41t-9 -84v-37l-2 -92q0 -25 6 -32t28 -7l164 1l189 -2q11 0 11 139v54q0 75 -30 92q-12 7 -24.5 9t-21 5.5t-8.5 13.5t39 10l97 -2l78 2q23 0 23 -13t-14 -13q-28 0 -42.5 -17t-14.5 -45l-5 -393v-37l4 -92q0 -65 84 -74q12 0 12 -11q0 -7 -10 -9
t-39 -2l-77 5l-94 -5h-17q-14 0 -16.5 4t-2.5 9.5t10 10.5t22 8t23 12q21 15 21 94l3 177q0 15 -12 21t-39 6t-81 -2l-54 -1l-184 3q-15 0 -20 -6t-5 -31l-4 -123v-43q0 -43 8 -64t39 -41q8 -5 29 -5q33 0 33 -11q0 -18 -32 -18l-83 4l-108 -5q-47 0 -47 15q0 14 31 18
q12 1 25 12.5t17 31t9 105.5t5 164v57z" />
    <glyph glyph-name="hcircumflex" unicode="&#x125;" horiz-adv-x="587" 
d="M194 763q0 1 4 9q62 91 71 111t12 23q5 6 11 6h25q11 0 17 -11q25 -44 55.5 -88.5t30.5 -48.5q0 -8 -9 -8t-55.5 42.5t-51 42.5t-49 -42t-53 -42t-8.5 6zM132 5l-71 -5q-25 0 -26 3t-1 7q0 10 12 13q29 8 37.5 25.5t8.5 51.5l4 341v49q0 136 -6 166t-36 30h-13l-4 1
q-17 0 -17 9t10.5 14.5t30 10.5t55.5 21t45 16q13 0 13 -23q0 -5 -3.5 -24t-4 -73.5t-2 -117t-2.5 -84.5q-2 -42 -2 -59t8 -17q2 0 20.5 18.5t51 37t69.5 18.5q81 0 126 -48t45 -149v-145q0 -27 10 -42t23 -16q54 -5 54 -21t-31 -16l-84 5l-77 -3q-23 0 -23 10q0 18 27 18
q10 0 18.5 11t8.5 34l1 26l1 140q0 61 -37 105.5t-85.5 44.5t-98.5 -39q-18 -14 -23 -45.5t-5 -139.5v-23q0 -45 7 -73q11 -39 55 -42q14 -1 21.5 -3.5t7.5 -10.5q0 -12 -11 -12l-26 1q-26 1 -52.5 2.5t-28.5 1.5z" />
    <glyph glyph-name="Hbar" unicode="&#x126;" horiz-adv-x="791" 
d="M121 402l1 94q0 8 -11 8h-59q-12 0 -12 21.5t11 21.5h60q11 0 11 13q-2 38 -5.5 66t-27 42t-41 14t-23 6.5t-5.5 10.5q0 11 28 11l113 -4l88 2q22 0 22 -14q0 -17 -35 -17q-21 0 -29.5 -39.5t-8.5 -64.5t1 -25.5t7 -0.5l190 1h181q12 0 14.5 4t2.5 33.5t-8.5 52.5t-21 30
t-25 9t-21 5.5t-8.5 13.5t39 10l97 -2l78 2q23 0 23 -13t-17 -13t-29.5 -8t-17.5 -24q-8 -26 -8 -67v-20q0 -8 3 -10.5t14 -2.5h43q14 0 17.5 -5t3.5 -15.5t-1 -14.5q-3 -10 -22 -10h-41q-12 0 -15 -3t-3 -15l-1 -110l-2 -150v-37l4 -92q0 -65 84 -74q12 0 12 -11
q0 -7 -10 -9t-39 -2l-77 5l-94 -5h-17q-14 0 -16.5 4t-2.5 9.5t10 10.5t22 8t23 12q21 15 21 94l3 177q0 15 -6.5 21t-24 6t-86.5 -1l-69 -1l-184 2q-15 0 -20 -6t-5 -31l-4 -123v-43q0 -43 8 -64t39 -41q8 -5 29 -5q33 0 33 -11q0 -18 -32 -18l-83 4l-108 -5q-47 0 -47 15
q0 14 31 18q12 1 25 12.5t17 31t9 105.5t5 164v57zM198 496l-2 -73q0 -25 6 -32t28 -7h164q54 0 184 -1q13 0 14.5 14.5t1.5 25.5v62q0 12 -3 15t-14 3l-163 -1l-182 1h-20q-12 0 -13 -2t-1 -5z" />
    <glyph glyph-name="hbar" unicode="&#x127;" horiz-adv-x="587" 
d="M132 5l-71 -5q-25 0 -26 3t-1 7q0 10 12 13q29 8 37.5 25.5t8.5 51.5l4 341v80q0 9 -2.5 11.5t-11.5 2.5h-41q-14 0 -17.5 4.5t-3.5 15t1 14.5q3 10 21 10h43q11 0 11 12q0 61 -10 78t-32 17h-13l-4 1q-17 0 -17 9t10.5 14.5t30 10.5t55.5 21t45 16q13 0 13 -23
q0 -11 -3 -22q-5 -19 -5 -74t2.5 -58t10.5 -3h144q12 0 12 -21.5t-12 -21.5h-143q-9 0 -12 -2.5t-3 -11.5l-5 -141q0 -20 8 -20q2 0 20.5 18.5t51 37t69.5 18.5q81 0 126 -48t45 -149v-145q0 -27 10 -42t23 -16q54 -5 54 -21t-31 -16l-84 5l-77 -3q-23 0 -23 10q0 18 27 18
q10 0 18.5 11t8.5 34l1 26l1 140q0 61 -37 105.5t-85.5 44.5t-98.5 -39q-18 -14 -23 -45.5t-5 -139.5v-23q0 -45 7 -73q11 -39 55 -42q14 -1 21.5 -3.5t7.5 -10.5q0 -12 -11 -12l-26 1q-26 1 -52.5 2.5t-28.5 1.5z" />
    <glyph glyph-name="Itilde" unicode="&#x128;" horiz-adv-x="328" 
d="M2 794q0 17 33.5 61.5t60.5 44.5t65 -24t60 -24t42.5 28t22.5 28q10 0 10 -15t-33 -57t-61 -42t-67.5 24t-57.5 24t-31.5 -14t-22 -28t-11.5 -14q-10 0 -10 8zM119 402l1 108v46q0 44 -3.5 70.5t-27 39.5t-46.5 14t-23 15.5t28 14.5l113 -4l88 2q27 0 27 -14
q0 -8 -46 -27q-32 -13 -32 -115l-3 -370q0 -84 23.5 -118t49.5 -34l20 -1q7 0 14 -3.5t7 -11.5q0 -14 -25 -14l-95 4l-110 -5q-45 0 -45 15q0 14 31 18q12 1 25 12.5t16.5 26t8 121t4.5 153.5v57z" />
    <glyph glyph-name="itilde" unicode="&#x129;" horiz-adv-x="284" 
d="M-23 530q0 17 33.5 61.5t60.5 44.5t65 -24t60 -24t42.5 28t22.5 28q10 0 10 -15t-33 -57t-61 -42t-67.5 24t-57.5 24t-31.5 -14t-22 -28t-11.5 -14q-10 0 -10 8zM159 -4l-71 -2q-40 0 -40 13.5t15 18.5q1 0 4 1q23 8 30 24t7 155v88q0 29 -7 46t-13 21t-20.5 6.5t-21 5
t-6.5 8t2.5 8.5t10 6.5t15.5 6.5q28 8 46 16l27.5 12t12.5 6q7 3 17 3q15 0 15 -19l-6 -48v-274q0 -30 9 -47t21.5 -21t25.5 -4q30 -2 30 -16q0 -17 -17 -17l-15 1z" />
    <glyph glyph-name="Imacron" unicode="&#x12a;" horiz-adv-x="328" 
d="M241 827l-188 1q-10 0 -10 22t16 22l181 -2q9 0 12 -5t3 -19q0 -19 -14 -19zM119 402l1 108v46q0 44 -3.5 70.5t-27 39.5t-46.5 14t-23 15.5t28 14.5l113 -4l88 2q27 0 27 -14q0 -8 -46 -27q-32 -13 -32 -115l-3 -370q0 -84 23.5 -118t49.5 -34l20 -1q7 0 14 -3.5
t7 -11.5q0 -14 -25 -14l-95 4l-110 -5q-45 0 -45 15q0 14 31 18q12 1 25 12.5t16.5 26t8 121t4.5 153.5v57z" />
    <glyph glyph-name="imacron" unicode="&#x12b;" horiz-adv-x="284" 
d="M216 563l-188 1q-10 0 -10 22t16 22l181 -2q9 0 12 -5t3 -19q0 -19 -14 -19zM159 -4l-71 -2q-40 0 -40 13.5t15 18.5q1 0 4 1q23 8 30 24t7 155v88q0 29 -7 46t-13 21t-20.5 6.5t-21 5t-6.5 8t2.5 8.5t10 6.5t15.5 6.5q28 8 46 16l27.5 12t12.5 6q7 3 17 3q15 0 15 -19
l-6 -48v-274q0 -30 9 -47t21.5 -21t25.5 -4q30 -2 30 -16q0 -17 -17 -17l-15 1z" />
    <glyph glyph-name="Ibreve" unicode="&#x12c;" horiz-adv-x="328" 
d="M36 891q0 3 11 3h5q4 0 11 -11l16 -24t30.5 -24t54 -11t53.5 17.5t29 35t12 17.5h4q11 0 11 -3q0 -40 -31.5 -83t-87.5 -43t-87 41.5t-31 84.5zM119 402l1 108v46q0 44 -3.5 70.5t-27 39.5t-46.5 14t-23 15.5t28 14.5l113 -4l88 2q27 0 27 -14q0 -8 -46 -27
q-32 -13 -32 -115l-3 -370q0 -84 23.5 -118t49.5 -34l20 -1q7 0 14 -3.5t7 -11.5q0 -14 -25 -14l-95 4l-110 -5q-45 0 -45 15q0 14 31 18q12 1 25 12.5t16.5 26t8 121t4.5 153.5v57z" />
    <glyph glyph-name="ibreve" unicode="&#x12d;" horiz-adv-x="284" 
d="M11 627q0 3 11 3h5q4 0 11 -11l16 -24t30.5 -24t54 -11t53.5 17.5t29 35t12 17.5h4q11 0 11 -3q0 -40 -31.5 -83t-87.5 -43t-87 41.5t-31 84.5zM159 -4l-71 -2q-40 0 -40 13.5t15 18.5q1 0 4 1q23 8 30 24t7 155v88q0 29 -7 46t-13 21t-20.5 6.5t-21 5t-6.5 8t2.5 8.5
t10 6.5t15.5 6.5q28 8 46 16l27.5 12t12.5 6q7 3 17 3q15 0 15 -19l-6 -48v-274q0 -30 9 -47t21.5 -21t25.5 -4q30 -2 30 -16q0 -17 -17 -17l-15 1z" />
    <glyph glyph-name="Iogonek" unicode="&#x12e;" horiz-adv-x="328" 
d="M119 402l1 108v46q0 44 -3.5 70.5t-27 39.5t-46.5 14t-23 15.5t28 14.5l113 -4l88 2q27 0 27 -14q0 -8 -46 -27q-32 -13 -32 -115l-3 -370q0 -84 23.5 -118t49.5 -34l20 -1q7 0 14 -3.5t7 -11.5q0 -14 -21.5 -14t-36.5 0.5t-22.5 1.5t-9.5 1q-29 0 -44.5 -33t-15.5 -62.5
t15 -51.5t32.5 -22t29 5.5t13.5 5.5q6 0 6 -9.5t-23 -24.5t-57.5 -15t-57.5 27t-23 58t9 53t19 32l20 20q9 9 9 12.5t-9 3.5l-23 -2q-23 -1 -40 -1q-45 0 -45 15q0 14 31 18q12 1 25 12.5t16.5 26t8 121t4.5 153.5v57z" />
    <glyph glyph-name="iogonek" unicode="&#x12f;" horiz-adv-x="284" 
d="M124 -5l-36 -1q-40 0 -40 13.5t15 18.5q1 0 4 1q23 8 30 24t7 155v88q0 29 -7 46t-13 21t-20.5 6.5t-21 5t-6.5 8t2.5 8.5t10 6.5t15.5 6.5q28 8 46 16l27.5 12t12.5 6q7 3 17 3q15 0 15 -19l-6 -48v-274q0 -30 9 -47t21.5 -21t25.5 -4q30 -2 30 -16q0 -17 -17 -17l-56 2
q-14 0 -29 -11q-29 -23 -29 -78q0 -28 16.5 -50t34 -22t28.5 5.5t13 5.5q7 0 7 -9.5t-23 -24.5t-57 -15t-56.5 29t-22.5 59t10 51t21.5 31t21.5 17.5t10 10t-8 2.5h-1zM107.5 554q-14.5 21 -14.5 34.5t17.5 35t33 21.5t30.5 -20.5t15 -36.5t-19 -35.5t-28 -19.5
q-20 0 -34.5 21z" />
    <glyph glyph-name="Idotaccent" unicode="&#x130;" horiz-adv-x="328" 
d="M117.5 818q-14.5 21 -14.5 34.5t17.5 35t33 21.5t31 -20.5t15.5 -36.5t-19.5 -35.5t-28.5 -19.5q-20 0 -34.5 21zM119 402l1 108v46q0 44 -3.5 70.5t-27 39.5t-46.5 14t-23 15.5t28 14.5l113 -4l88 2q27 0 27 -14q0 -8 -46 -27q-32 -13 -32 -115l-3 -370q0 -84 23.5 -118
t49.5 -34l20 -1q7 0 14 -3.5t7 -11.5q0 -14 -25 -14l-95 4l-110 -5q-45 0 -45 15q0 14 31 18q12 1 25 12.5t16.5 26t8 121t4.5 153.5v57z" />
    <glyph glyph-name="dotlessi" unicode="&#x131;" horiz-adv-x="284" 
d="M159 -4l-71 -2q-40 0 -40 13.5t15 18.5q1 0 4 1q23 8 30 24t7 155v88q0 29 -7 46t-13 21t-20.5 6.5t-21 5t-6.5 8t2.5 8.5t10 6.5t15.5 6.5q28 8 46 16l27.5 12t12.5 6q7 3 17 3q15 0 15 -19l-6 -48v-274q0 -30 9 -47t21.5 -21t25.5 -4q30 -2 30 -16q0 -17 -17 -17l-15 1
z" />
    <glyph glyph-name="IJ" unicode="&#x132;" horiz-adv-x="618" 
d="M531 146l-1 -77q0 -114 -61.5 -187.5t-145.5 -73.5q-40 0 -40 38q0 15 11.5 35t18.5 20t22.5 -17t36.5 -17q55 0 69 78q13 68 13 100v118l-1 26q0 20 -0.5 35t-0.5 32q-2 51 -2 194.5t-3.5 173t-27 41.5t-47.5 13t-24 18t29 17q10 0 45.5 -3t67.5 -3l81 1q28 0 28 -13
q0 -9 -46 -28q-21 -8 -21 -68v-46zM119 402l1 108v46q0 44 -3.5 70.5t-27 39.5t-46.5 14t-23 15.5t28 14.5l113 -4l88 2q27 0 27 -14q0 -8 -46 -27q-32 -13 -32 -115l-3 -370q0 -84 23.5 -118t49.5 -34l20 -1q7 0 14 -3.5t7 -11.5q0 -14 -25 -14l-95 4l-110 -5q-45 0 -45 15
q0 14 31 18q12 1 25 12.5t16.5 26t8 121t4.5 153.5v57z" />
    <glyph glyph-name="ij" unicode="&#x133;" horiz-adv-x="560" 
d="M395 591q0 14 15.5 32.5t32 18.5t32 -17.5t15.5 -33.5t-17.5 -34.5t-26.5 -18.5q-20 0 -35.5 19.5t-15.5 33.5zM304 -173l-2 36q0 29 22 29q11 0 31 -21.5t27 -21.5q13 0 18 33.5t5 127.5v304q0 43 -26 54q-13 5 -31 5t-18 10q0 6 9 9q54 16 88.5 32t37.5 16q12 0 12 -23
v-11l-2 -47v-324q0 -55 -10 -104t-41.5 -90t-75.5 -41t-44 27zM159 -4l-71 -2q-40 0 -40 13.5t15 18.5q1 0 4 1q23 8 30 24t7 155v88q0 29 -7 46t-13 21t-20.5 6.5t-21 5t-6.5 8t2.5 8.5t10 6.5t15.5 6.5q28 8 46 16l27.5 12t12.5 6q7 3 17 3q15 0 15 -19l-6 -48v-274
q0 -30 9.5 -47t20 -21t24.5 -5t18 -1q14 -2 14 -14q0 -17 -17 -17l-15 1zM107.5 554q-14.5 21 -14.5 34.5t17.5 35t33 21.5t30.5 -20.5t15 -36.5t-19 -35.5t-28 -19.5q-20 0 -34.5 21z" />
    <glyph glyph-name="Jcircumflex" unicode="&#x134;" horiz-adv-x="290" 
d="M34 763q0 1 4 9q62 91 71 111t12 23q5 6 11 6h25q11 0 17 -11q25 -44 55.5 -88.5t30.5 -48.5q0 -8 -9 -8t-55.5 42.5t-51 42.5t-49 -42t-53 -42t-8.5 6zM203 146l-1 -77q0 -114 -61.5 -187.5t-145.5 -73.5q-40 0 -40 38q0 15 11.5 35t18.5 20t22.5 -17t36.5 -17
q55 0 69 78q13 68 13 100v118l-1 26q0 20 -0.5 35t-0.5 32q-2 51 -2 194.5t-3.5 173t-27 41.5t-47.5 13t-24 18t29 17q10 0 45.5 -3t67.5 -3l81 1q28 0 28 -13q0 -9 -46 -28q-21 -8 -21 -68v-46z" />
    <glyph glyph-name="jcircumflex" unicode="&#x135;" horiz-adv-x="281" 
d="M27 499q0 1 4 9q62 91 71 111t12 23q5 6 11 6h25q11 0 17 -11q25 -44 55.5 -88.5t30.5 -48.5q0 -8 -9 -8t-55.5 42.5t-51 42.5t-49 -42t-53 -42t-8.5 6zM25 -173l-2 36q0 29 22 29q11 0 31 -21.5t27 -21.5q13 0 18 33.5t5 127.5v304q0 43 -26 54q-13 5 -31 5t-18 10
q0 6 9 9q54 16 88.5 32t37.5 16q12 0 12 -23v-11l-2 -47v-324q0 -55 -10 -104t-41.5 -90t-75.5 -41t-44 27z" />
    <glyph glyph-name="Kcommaaccent" unicode="&#x136;" horiz-adv-x="724" 
d="M319 -79q0 3 11 11t17 13q11 11 19 11t19 -5.5t23.5 -20.5t12.5 -35q0 -43 -32 -69.5t-46 -26.5t-14 7q0 3 11 9q31 16 31 46q0 28 -39 46q-13 6 -13 14zM119 402l-2 108v46q0 51 -3 74t-25.5 36t-45.5 14t-23 14.5t28 13.5l113 -2l86 2q17 0 17 -13q0 -6 -14.5 -12
t-20.5 -9q-31 -18 -31 -122l-3 -156q0 -21 8 -21t81 59.5t145 129t72 91.5q0 12 -10 16.5t-15 6t-14 3t-11 2.5q-11 2 -11 13.5t16 11.5l25 -1l60 -2l124 3q20 0 20 -13q0 -7 -6 -10.5t-23 -8.5t-25.5 -8.5t-52.5 -31.5q-9 -6 -98.5 -81.5l-188.5 -158.5l-11 -14
q0 -5 29 -34l136 -135t148 -140.5t74 -39.5t37 -13q1 -2 1 -8.5t-8.5 -8.5t-49.5 -2h-97q-16 0 -24 9.5t-16 17.5q-37 43 -57 63q-212 215 -223 224t-19 9q-14 0 -14 -27v-3l1 -23v-51q0 -131 17 -160.5t65 -29.5l8 -1q7 0 14 -3.5t7 -11.5q0 -14 -25 -14l-95 4l-110 -5
q-36 0 -36 11v4q0 7 9 10q37 9 48.5 20.5t15 62t3.5 161.5v134z" />
    <glyph glyph-name="kcommaaccent" unicode="&#x137;" horiz-adv-x="545" 
d="M215 -79q0 3 11 11t17 13q11 11 19 11t19 -5.5t23.5 -20.5t12.5 -35q0 -43 -32 -69.5t-46 -26.5t-14 7q0 3 11 9q31 16 31 46q0 28 -39 46q-13 6 -13 14zM40 679l-20 -1q-20 0 -20 11t49 26q7 2 16.5 5t11.5 3.5t7.5 2.5t6 2.5t5 2.5t6.5 3.5t8 5t19.5 12t26.5 8.5
t13 -19q0 -2 -1 -11.5t-2.5 -28t-2.5 -45.5q-3 -79 -3 -168l-3 -205v-21q0 -42 4 -42q9 0 18.5 10t13.5 13q140 112 140 126t-22.5 23t-22.5 17q0 10 12 10l18 -1l147 5q26 0 26 -8t-6 -11t-16 -4q-33 -5 -74 -33q-3 -2 -6.5 -5t-13 -10l-22.5 -17l-48 -36.5t-43 -33.5
t-8 -15t11 -23q91 -111 156 -168q27 -24 54.5 -31t39.5 -7t12 -9q0 -12 -8.5 -14.5t-32.5 -2.5l-104 1q-25 0 -157 163q-26 32 -28.5 36t-11 4t-19 -14t-10.5 -32l1 -17q0 -72 8 -82q1 -1 9.5 -12.5t42 -17.5t33.5 -15q0 -16 -31 -16l-97 6l-73 -4q-24 0 -24 12q0 10 25 17
q23 9 29 26t6 66l1 44l1 444q0 75 -47 75z" />
    <glyph glyph-name="Lacute" unicode="&#x139;" horiz-adv-x="603" 
d="M123 755q0 5 7 15q32 48 68 137q8 19 20 19t32.5 -6.5t20.5 -19.5q0 -23 -97 -125q-29 -31 -40 -31t-11 11zM115 355l3 173q0 27 -2 91q-1 29 -25 45t-45 16.5t-23.5 4t-2.5 10.5q0 18 27 18l27 -2l87 -4l105 4q17 0 17 -10q0 -14 -12 -18.5t-26.5 -6t-28 -22
t-15.5 -60.5t-5 -219t-3 -200v-40q0 -72 24.5 -79.5t42.5 -7.5q150 0 216 24q60 22 72 46q13 25 23 25q12 0 12 -17q0 -43 -43 -87t-75 -44q-72 0 -162.5 5t-112.5 5l-125 -8q-29 0 -29 12q0 7 5.5 11.5t15.5 4.5t26 12t24 49.5t8 144.5v124z" />
    <glyph glyph-name="lacute" unicode="&#x13a;" horiz-adv-x="279" 
d="M91 789q0 5 7 15q32 48 68 137q8 19 20 19t32.5 -6.5t20.5 -19.5q0 -23 -97 -125q-29 -31 -40 -31t-11 11zM91 192l4 425q0 23 -7.5 41.5t-16.5 22.5t-40 4q-11 0 -11 7t1.5 10t6.5 5.5t12 4.5q29 6 60 21q49 23 64 23q12 0 12 -19q0 -4 -2 -23q-6 -59 -6 -129v-56
l-2 -133v-298q0 -21 3.5 -34.5t23 -26t54.5 -12.5q5 0 9 -5t4 -10q0 -14 -31 -14l-101 7q-26 0 -49.5 -4t-31 -4t-12 3.5t-4.5 9t4.5 9t14.5 5.5q30 8 36 24.5t6 45.5l-1 26v74z" />
    <glyph glyph-name="Lcommaaccent" unicode="&#x13b;" horiz-adv-x="603" 
d="M252 -79q0 3 11 11t17 13q11 11 19 11t19 -5.5t23.5 -20.5t12.5 -35q0 -43 -32 -69.5t-46 -26.5t-14 7q0 3 11 9q31 16 31 46q0 28 -39 46q-13 6 -13 14zM115 355l3 173q0 27 -2 91q-1 29 -25 45t-45 16.5t-23.5 4t-2.5 10.5q0 18 27 18l27 -2l87 -4l105 4q17 0 17 -10
q0 -14 -12 -18.5t-26.5 -6t-28 -22t-15.5 -60.5t-5 -219t-3 -200v-40q0 -72 24.5 -79.5t42.5 -7.5q150 0 216 24q60 22 72 46q13 25 23 25q12 0 12 -17q0 -43 -43 -87t-75 -44q-72 0 -162.5 5t-112.5 5l-125 -8q-29 0 -29 12q0 7 5.5 11.5t15.5 4.5t26 12t24 49.5t8 144.5
v124z" />
    <glyph glyph-name="lcommaaccent" unicode="&#x13c;" horiz-adv-x="279" 
d="M84 -79q0 3 11 11t17 13q11 11 19 11t19 -5.5t23.5 -20.5t12.5 -35q0 -43 -32 -69.5t-46 -26.5t-14 7q0 3 11 9q31 16 31 46q0 28 -39 46q-13 6 -13 14zM91 192l4 425q0 23 -7.5 41.5t-16.5 22.5t-40 4q-11 0 -11 7t1.5 10t6.5 5.5t12 4.5q29 6 60 21q49 23 64 23
q12 0 12 -19q0 -4 -2 -23q-6 -59 -6 -129v-56l-2 -133v-298q0 -21 3.5 -34.5t23 -26t54.5 -12.5q5 0 9 -5t4 -10q0 -14 -31 -14l-101 7q-26 0 -49.5 -4t-31 -4t-12 3.5t-4.5 9t4.5 9t14.5 5.5q30 8 36 24.5t6 45.5l-1 26v74z" />
    <glyph glyph-name="Lcaron" unicode="&#x13d;" horiz-adv-x="603" 
d="M355 718q0 3 11 11t17 13q11 11 19 11t19 -5.5t23.5 -20.5t12.5 -35q0 -43 -32 -69.5t-46 -26.5t-14 7q0 3 11 9q31 16 31 46q0 28 -39 46q-13 6 -13 14zM115 355l3 173q0 27 -2 91q-1 29 -25 45t-45 16.5t-23.5 4t-2.5 10.5q0 18 27 18l27 -2l87 -4l105 4q17 0 17 -10
q0 -14 -12 -18.5t-26.5 -6t-28 -22t-15.5 -60.5t-5 -219t-3 -200v-40q0 -72 24.5 -79.5t42.5 -7.5q150 0 216 24q60 22 72 46q13 25 23 25q12 0 12 -17q0 -43 -43 -87t-75 -44q-72 0 -162.5 5t-112.5 5l-125 -8q-29 0 -29 12q0 7 5.5 11.5t15.5 4.5t26 12t24 49.5t8 144.5
v124z" />
    <glyph glyph-name="lcaron" unicode="&#x13e;" horiz-adv-x="279" 
d="M221 718q0 3 11 11t17 13q11 11 19 11t19 -5.5t23.5 -20.5t12.5 -35q0 -43 -32 -69.5t-46 -26.5t-14 7q0 3 11 9q31 16 31 46q0 28 -39 46q-13 6 -13 14zM91 192l4 425q0 23 -7.5 41.5t-16.5 22.5t-40 4q-11 0 -11 7t1.5 10t6.5 5.5t12 4.5q29 6 60 21q49 23 64 23
q12 0 12 -19q0 -4 -2 -23q-6 -59 -6 -129v-56l-2 -133v-298q0 -21 3.5 -34.5t23 -26t54.5 -12.5q5 0 9 -5t4 -10q0 -14 -31 -14l-101 7q-26 0 -49.5 -4t-31 -4t-12 3.5t-4.5 9t4.5 9t14.5 5.5q30 8 36 24.5t6 45.5l-1 26v74z" />
    <glyph glyph-name="Ldot" unicode="&#x13f;" horiz-adv-x="603" 
d="M405.5 296.5q-14.5 21.5 -14.5 35t17 34.5t32.5 21t31 -20.5t15.5 -36.5t-19 -35.5t-28 -19.5q-20 0 -34.5 21.5zM115 355l3 173q0 27 -2 91q-1 29 -25 45t-45 16.5t-23.5 4t-2.5 10.5q0 18 27 18l27 -2l87 -4l105 4q17 0 17 -10q0 -14 -12 -18.5t-26.5 -6t-28 -22
t-15.5 -60.5t-5 -219t-3 -200v-40q0 -72 24.5 -79.5t42.5 -7.5q150 0 216 24q60 22 72 46q13 25 23 25q12 0 12 -17q0 -43 -43 -87t-75 -44q-72 0 -162.5 5t-112.5 5l-125 -8q-29 0 -29 12q0 7 5.5 11.5t15.5 4.5t26 12t24 49.5t8 144.5v124z" />
    <glyph glyph-name="ldot" unicode="&#x140;" horiz-adv-x="507" 
d="M346.5 296.5q-14.5 21.5 -14.5 35t17 34.5t32.5 21t31 -20.5t15.5 -36.5t-19 -35.5t-28 -19.5q-20 0 -34.5 21.5zM91 192l4 425q0 23 -7.5 41.5t-16.5 22.5t-40 4q-11 0 -11 7t1.5 10t6.5 5.5t12 4.5q29 6 60 21q49 23 64 23q12 0 12 -19q0 -4 -2 -23q-6 -59 -6 -129v-56
l-2 -133v-298q0 -21 3.5 -34.5t23 -26t54.5 -12.5q5 0 9 -5t4 -10q0 -14 -31 -14l-101 7q-26 0 -49.5 -4t-31 -4t-12 3.5t-4.5 9t4.5 9t14.5 5.5q30 8 36 24.5t6 45.5l-1 26v74z" />
    <glyph glyph-name="Lslash" unicode="&#x141;" horiz-adv-x="603" 
d="M115 355l3 173q0 27 -2 91q-1 29 -25 45t-45 16.5t-23.5 4t-2.5 10.5q0 18 27 18l27 -2l87 -4l105 4q17 0 17 -10q0 -14 -12 -18.5t-26.5 -6t-28 -22t-16.5 -82t-3 -183.5q0 -8 2.5 -8t5 1l6 2.5t7.5 2.5l218 87q15 6 21.5 6t10.5 -6q8 -11 8 -20q0 -12 -26 -22l-240 -96
q-15 -5 -15 -24q-2 -132 -2 -137v-40q0 -72 24.5 -79.5t42.5 -7.5q150 0 216 24q60 22 72 46q13 25 23 25q12 0 12 -17q0 -43 -43 -87t-75 -44q-72 0 -162.5 5t-112.5 5l-125 -8q-29 0 -29 12q0 7 5.5 11.5t15.5 4.5t26 12t24 49.5t8 144.5v54q0 11 -3 11h-2q-2 -1 -3 -1
l-46 -18q-4 -2 -10.5 -2t-12 10.5t-5.5 18.5t11 12l60 25q11 3 11 14z" />
    <glyph glyph-name="lslash" unicode="&#x142;" horiz-adv-x="279" 
d="M90 329l-48 -25q-8 0 -15 9t-7 23q0 5 14 12l18 10q38 22 40 28q3 10 3 231q0 23 -7.5 41.5t-16.5 22.5t-40 4q-11 0 -11 7t1.5 10t6.5 5.5t12 4.5q29 6 60 21q49 23 64 23q12 0 12 -19q0 -4 -2 -23q-6 -59 -6 -129v-56l-1 -89q0 -10 3 -10t26 13.5t30.5 13.5t13 -10
t5.5 -17t-7 -12t-36 -22.5t-32.5 -22.5t-3.5 -19v-256q0 -21 3.5 -34.5t23 -26t54.5 -12.5q5 0 9 -5t4 -10q0 -14 -31 -14l-101 7q-26 0 -49.5 -4t-31 -4t-12 3.5t-4.5 9t4.5 9t14.5 5.5q30 8 36 24.5t6 45.5l-1 26v74l2 117q0 20 -3 20z" />
    <glyph glyph-name="Nacute" unicode="&#x143;" horiz-adv-x="798" 
d="M359 755q0 5 7 15q32 48 68 137q8 19 20 19t32.5 -6.5t20.5 -19.5q0 -23 -97 -125q-29 -31 -40 -31t-11 11zM144 -2l-85 -2q-22 0 -22 16q0 9 13 11.5t32 15.5t27 42.5t17 192.5t9 237t-24 116.5t-78 48.5q-13 1 -13 15q0 6 7 11.5t18 5.5l38 -1l49 2q9 0 21 -5.5t14 -10
t11 -15l24 -27.5t27 -33q136 -177 364 -427q6 -7 14.5 -16t12 -13.5t7.5 -8.5q7 -7 11 -7q10 0 10 62v117l-2 205v7q0 92 -32 117q-12 9 -20 11.5t-23 5.5q-41 8 -41 22.5t19 14.5l95 -1l90 2q17 0 23.5 -3.5t6.5 -10.5t-6 -11q-8 -5 -29 -12q-33 -18 -33 -113v-38l-11 -495
v-20q0 -23 -14 -23q-9 0 -16 7l-396.5 457.5t-71.5 72.5q-10 0 -10 -81.5t-4 -191t-4 -119.5q0 -45 15.5 -68.5t33.5 -26.5t33.5 -6.5t15.5 -14t-3.5 -13.5t-12.5 -3z" />
    <glyph glyph-name="nacute" unicode="&#x144;" horiz-adv-x="591" 
d="M265 491q0 5 7 15q32 48 68 137q8 19 20 19t32.5 -6.5t20.5 -19.5q0 -23 -97 -125q-29 -31 -40 -31t-11 11zM248 0l-73 4q-26 0 -69 -2l-43 -2q-15 0 -15 9t5 11t12.5 3t14.5 6q19 12 21 72.5t2 79.5v144q0 32 -11.5 43t-31.5 11h-10q-19 0 -19 11q0 10 21.5 13t34 6.5
t33 12t33 14.5t16.5 6h2q9 0 9 -12l-2 -43q0 -26 4 -26t8 5q15 21 40 36q45 28 86 28t73 -12.5t50 -31t30 -42.5q20 -40 20 -82v-10l1 -53v-102q0 -38 10.5 -52.5t50.5 -20.5q20 -3 20 -15q0 -10 -20 -10l-82 5l-77 -4q-20 0 -20 13q0 9 12 12l13 3q22 7 22 67v135
q0 77 -38 116.5t-86 39.5t-80 -23t-39 -43t-7 -153v-38q0 -50 10.5 -74t46.5 -27q10 0 25.5 -3.5t15.5 -11.5q0 -13 -19 -13z" />
    <glyph glyph-name="Ncommaaccent" unicode="&#x145;" horiz-adv-x="798" 
d="M362 -79q0 3 11 11t17 13q11 11 19 11t19 -5.5t23.5 -20.5t12.5 -35q0 -43 -32 -69.5t-46 -26.5t-14 7q0 3 11 9q31 16 31 46q0 28 -39 46q-13 6 -13 14zM144 -2l-85 -2q-22 0 -22 16q0 9 13 11.5t32 15.5t27 42.5t17 192.5t9 237t-24 116.5t-78 48.5q-13 1 -13 15
q0 6 7 11.5t18 5.5l38 -1l49 2q9 0 21 -5.5t14 -10t11 -15l24 -27.5t27 -33q136 -177 364 -427q6 -7 14.5 -16t12 -13.5t7.5 -8.5q7 -7 11 -7q10 0 10 62v117l-2 205v7q0 92 -32 117q-12 9 -20 11.5t-23 5.5q-41 8 -41 22.5t19 14.5l95 -1l90 2q17 0 23.5 -3.5t6.5 -10.5
t-6 -11q-8 -5 -29 -12q-33 -18 -33 -113v-38l-11 -495v-20q0 -23 -14 -23q-9 0 -16 7l-396.5 457.5t-71.5 72.5q-10 0 -10 -81.5t-4 -191t-4 -119.5q0 -45 15.5 -68.5t33.5 -26.5t33.5 -6.5t15.5 -14t-3.5 -13.5t-12.5 -3z" />
    <glyph glyph-name="ncommaaccent" unicode="&#x146;" horiz-adv-x="591" 
d="M266 -79q0 3 11 11t17 13q11 11 19 11t19 -5.5t23.5 -20.5t12.5 -35q0 -43 -32 -69.5t-46 -26.5t-14 7q0 3 11 9q31 16 31 46q0 28 -39 46q-13 6 -13 14zM248 0l-73 4q-26 0 -69 -2l-43 -2q-15 0 -15 9t5 11t12.5 3t14.5 6q19 12 21 72.5t2 79.5v144q0 32 -11.5 43
t-31.5 11h-10q-19 0 -19 11q0 10 21.5 13t34 6.5t33 12t33 14.5t16.5 6h2q9 0 9 -12l-2 -43q0 -26 4 -26t8 5q15 21 40 36q45 28 86 28t73 -12.5t50 -31t30 -42.5q20 -40 20 -82v-10l1 -53v-102q0 -38 10.5 -52.5t50.5 -20.5q20 -3 20 -15q0 -10 -20 -10l-82 5l-77 -4
q-20 0 -20 13q0 9 12 12l13 3q22 7 22 67v135q0 77 -38 116.5t-86 39.5t-80 -23t-39 -43t-7 -153v-38q0 -50 10.5 -74t46.5 -27q10 0 25.5 -3.5t15.5 -11.5q0 -13 -19 -13z" />
    <glyph glyph-name="Ncaron" unicode="&#x147;" horiz-adv-x="798" 
d="M294 912q9 0 55 -42.5t50.5 -42.5t49.5 42t53.5 42t8.5 -6q0 -1 -4 -9q-62 -91 -71 -111t-12 -23q-5 -6 -11 -6h-25q-12 0 -18 11q-17 29 -51 81t-34 58t9 6zM144 -2l-85 -2q-22 0 -22 16q0 9 13 11.5t32 15.5t27 42.5t17 192.5t9 237t-24 116.5t-78 48.5q-13 1 -13 15
q0 6 7 11.5t18 5.5l38 -1l49 2q9 0 21 -5.5t14 -10t11 -15l24 -27.5t27 -33q136 -177 364 -427q6 -7 14.5 -16t12 -13.5t7.5 -8.5q7 -7 11 -7q10 0 10 62v117l-2 205v7q0 92 -32 117q-12 9 -20 11.5t-23 5.5q-41 8 -41 22.5t19 14.5l95 -1l90 2q17 0 23.5 -3.5t6.5 -10.5
t-6 -11q-8 -5 -29 -12q-33 -18 -33 -113v-38l-11 -495v-20q0 -23 -14 -23q-9 0 -16 7l-396.5 457.5t-71.5 72.5q-10 0 -10 -81.5t-4 -191t-4 -119.5q0 -45 15.5 -68.5t33.5 -26.5t33.5 -6.5t15.5 -14t-3.5 -13.5t-12.5 -3z" />
    <glyph glyph-name="ncaron" unicode="&#x148;" horiz-adv-x="591" 
d="M200 648q9 0 55 -42.5t50.5 -42.5t49.5 42t53.5 42t8.5 -6q0 -1 -4 -9q-62 -91 -71 -111t-12 -23q-5 -6 -11 -6h-25q-12 0 -18 11q-17 29 -51 81t-34 58t9 6zM248 0l-73 4q-26 0 -69 -2l-43 -2q-15 0 -15 9t5 11t12.5 3t14.5 6q19 12 21 72.5t2 79.5v144q0 32 -11.5 43
t-31.5 11h-10q-19 0 -19 11q0 10 21.5 13t34 6.5t33 12t33 14.5t16.5 6h2q9 0 9 -12l-2 -43q0 -26 4 -26t8 5q15 21 40 36q45 28 86 28t73 -12.5t50 -31t30 -42.5q20 -40 20 -82v-10l1 -53v-102q0 -38 10.5 -52.5t50.5 -20.5q20 -3 20 -15q0 -10 -20 -10l-82 5l-77 -4
q-20 0 -20 13q0 9 12 12l13 3q22 7 22 67v135q0 77 -38 116.5t-86 39.5t-80 -23t-39 -43t-7 -153v-38q0 -50 10.5 -74t46.5 -27q10 0 25.5 -3.5t15.5 -11.5q0 -13 -19 -13z" />
    <glyph glyph-name="napostrophe" unicode="&#x149;" horiz-adv-x="825" 
d="M482 0l-73 4q-26 0 -69 -2l-43 -2q-15 0 -15 9t5 11t12.5 3t14.5 6q19 12 21 72.5t2 79.5v144q0 32 -11.5 43t-31.5 11h-10q-19 0 -19 11q0 10 21.5 13t34 6.5t33 12t33 14.5t16.5 6h2q9 0 9 -12l-2 -43q0 -26 4 -26t8 5q15 21 40 36q45 28 86 28t73 -12.5t50 -31
t30 -42.5q20 -40 20 -82v-10l1 -53v-102q0 -38 10.5 -52.5t50.5 -20.5q20 -3 20 -15q0 -10 -20 -10l-82 5l-77 -4q-20 0 -20 13q0 9 12 12l13 3q22 7 22 67v135q0 77 -38 116.5t-86 39.5t-80 -23t-39 -43t-7 -153v-38q0 -50 10.5 -74t46.5 -27q10 0 25.5 -3.5t15.5 -11.5
q0 -13 -19 -13zM67 628q-11 9 -11 18t27 36q2 2 11 12q14 19 29 19q9 0 23 -12.5t23 -24.5q21 -28 21 -72.5t-14 -80.5t-33 -55q-39 -41 -61 -41q-5 0 -9 4.5t-4 9t8.5 12t19.5 16t19.5 27.5t8.5 45.5t-11 45t-23.5 25.5t-23.5 16z" />
    <glyph glyph-name="Omacron" unicode="&#x14c;" horiz-adv-x="853" 
d="M510 827l-188 1q-10 0 -10 22t16 22l181 -2q9 0 12 -5t3 -19q0 -19 -14 -19zM44 339q0 168 101 275.5t286 107.5q86 0 155 -25t109 -61.5t67 -83.5q47 -82 47 -160q0 -136 -53 -230q-101 -178 -339 -178q-119 0 -205.5 52t-127 131t-40.5 172zM132 390q0 -89 47 -182
q25 -50 60.5 -89.5t90 -65t119.5 -25.5q74 0 146 43q80 47 113 131q19 45 19 98q0 181 -95 281.5t-235 100.5q-110 0 -187.5 -74t-77.5 -218z" />
    <glyph glyph-name="omacron" unicode="&#x14d;" horiz-adv-x="547" 
d="M358 563l-188 1q-10 0 -10 22t16 22l181 -2q9 0 12 -5t3 -19q0 -19 -14 -19zM99.5 47.5q-60.5 65.5 -60.5 156.5t62.5 159t165 68t172 -59t69.5 -164t-71.5 -165.5t-174 -60.5t-163 65.5zM158.5 363q-40.5 -41 -40.5 -135t55 -155t118.5 -61t102.5 43.5t39 127.5
t-48 152.5t-134 68.5q-52 0 -92.5 -41z" />
    <glyph glyph-name="Obreve" unicode="&#x14e;" horiz-adv-x="853" 
d="M305 891q0 3 11 3h5q4 0 11 -11l16 -24t30.5 -24t54 -11t53.5 17.5t29 35t12 17.5h4q11 0 11 -3q0 -40 -31.5 -83t-87.5 -43t-87 41.5t-31 84.5zM44 339q0 168 101 275.5t286 107.5q86 0 155 -25t109 -61.5t67 -83.5q47 -82 47 -160q0 -136 -53 -230q-101 -178 -339 -178
q-119 0 -205.5 52t-127 131t-40.5 172zM132 390q0 -89 47 -182q25 -50 60.5 -89.5t90 -65t119.5 -25.5q74 0 146 43q80 47 113 131q19 45 19 98q0 181 -95 281.5t-235 100.5q-110 0 -187.5 -74t-77.5 -218z" />
    <glyph glyph-name="obreve" unicode="&#x14f;" horiz-adv-x="547" 
d="M153 627q0 3 11 3h5q4 0 11 -11l16 -24t30.5 -24t54 -11t53.5 17.5t29 35t12 17.5h4q11 0 11 -3q0 -40 -31.5 -83t-87.5 -43t-87 41.5t-31 84.5zM99.5 47.5q-60.5 65.5 -60.5 156.5t62.5 159t165 68t172 -59t69.5 -164t-71.5 -165.5t-174 -60.5t-163 65.5zM158.5 363
q-40.5 -41 -40.5 -135t55 -155t118.5 -61t102.5 43.5t39 127.5t-48 152.5t-134 68.5q-52 0 -92.5 -41z" />
    <glyph glyph-name="Ohungarumlaut" unicode="&#x150;" horiz-adv-x="853" 
d="M311 755q0 5 7 15q30 42 69 137q8 19 20 19t32.5 -6.5t20.5 -19.5q0 -23 -97 -125q-29 -31 -40.5 -31t-11.5 11zM470 755q0 5 8 15q30 42 68 137q8 19 19.5 19t32 -6.5t20.5 -19.5q0 -23 -97 -125q-29 -31 -40 -31t-11 11zM44 339q0 168 101 275.5t286 107.5
q86 0 155 -25t109 -61.5t67 -83.5q47 -82 47 -160q0 -136 -53 -230q-101 -178 -339 -178q-119 0 -205.5 52t-127 131t-40.5 172zM132 390q0 -89 47 -182q25 -50 60.5 -89.5t90 -65t119.5 -25.5q74 0 146 43q80 47 113 131q19 45 19 98q0 181 -95 281.5t-235 100.5
q-110 0 -187.5 -74t-77.5 -218z" />
    <glyph glyph-name="ohungarumlaut" unicode="&#x151;" horiz-adv-x="547" 
d="M159 491q0 5 7 15q30 42 69 137q8 19 20 19t32.5 -6.5t20.5 -19.5q0 -23 -97 -125q-29 -31 -40.5 -31t-11.5 11zM318 491q0 5 8 15q30 42 68 137q8 19 19.5 19t32 -6.5t20.5 -19.5q0 -23 -97 -125q-29 -31 -40 -31t-11 11zM99.5 47.5q-60.5 65.5 -60.5 156.5t62.5 159
t165 68t172 -59t69.5 -164t-71.5 -165.5t-174 -60.5t-163 65.5zM158.5 363q-40.5 -41 -40.5 -135t55 -155t118.5 -61t102.5 43.5t39 127.5t-48 152.5t-134 68.5q-52 0 -92.5 -41z" />
    <glyph glyph-name="OE" unicode="&#x152;" horiz-adv-x="1042" 
d="M633 175l-1 -40q0 -72 24.5 -79.5t42.5 -7.5q89 0 151 10t89 24t40.5 27.5t19 23.5t12.5 10q12 0 12 -17q0 -43 -43.5 -87t-75.5 -44q-72 0 -162 5t-124.5 5t-95 -10.5t-105.5 -10.5q-119 0 -205.5 52t-127 131t-40.5 172q0 168 101 275.5t286 107.5q23 0 99.5 -8
t226.5 -8l201 4q18 0 18 -23q0 -6 -6 -39.5t-6 -52.5q0 -32 -15 -32t-15 24t-17.5 46t-42.5 23q-90 7 -138 7h-25q-52 0 -61 -8t-11.5 -57.5t-2.5 -162.5q0 -50 18 -51h98q60 0 80 4t33.5 13t19 19.5t6.5 17.5q2 19 15 19q9 0 11 -3t2 -11.5t-4.5 -47.5t-4.5 -59l4 -61
q0 -25 -7 -25q-14 0 -24 32.5t-23 40.5q-21 14 -74 14h-72l-32 1h-6q-41 0 -41 -19zM555 355l3 173v71q0 21 -6.5 35t-9.5 16q-65 32 -145 32q-110 0 -187.5 -74t-77.5 -218q0 -89 47 -182q25 -50 60.5 -89.5t90 -65t105.5 -25.5t73 8t26 14q21 28 21 181v124z" />
    <glyph glyph-name="oe" unicode="&#x153;" horiz-adv-x="859" 
d="M99.5 47.5q-60.5 65.5 -60.5 156.5t62.5 159t175 68t179.5 -76q10 -12 11.5 -17t2.5 -5l5 9q16 32 58.5 61t93 29t85 -15t53.5 -36.5t32 -45.5q22 -41 22 -62q0 -18 -41 -18h-257q-8 0 -9.5 -1.5t-1.5 -9.5q0 -94 50.5 -148t118.5 -54q42 0 86 22.5t46 22.5q9 0 9 -9
q0 -12 -22 -32.5t-42 -33.5q-48 -31 -113 -31q-104 0 -164 70q-6 6 -10.5 15t-5.5 9l-9 -13q-18 -25 -67.5 -52.5t-118.5 -27.5q-108 0 -168.5 65.5zM158.5 363q-40.5 -41 -40.5 -135t55 -155t118.5 -61t102.5 43.5t39 129t-49 152.5t-133 67q-52 0 -92.5 -41zM529 279
l176 6q14 0 17.5 2.5t3.5 9.5q0 30 -28 70t-78 40t-77 -39.5t-27 -74.5q0 -14 13 -14z" />
    <glyph glyph-name="Racute" unicode="&#x154;" horiz-adv-x="718" 
d="M259 755q0 5 7 15q32 48 68 137q8 19 20 19t32.5 -6.5t20.5 -19.5q0 -23 -97 -125q-29 -31 -40 -31t-11 11zM118 428l-1 169q0 37 -15 56.5t-33.5 22t-33.5 6.5t-15 14q0 16 29 16h166l100 3q90 0 154 -45.5t64 -122.5q0 -51 -19.5 -89.5t-43 -55.5t-43 -29.5
t-19.5 -16.5q0 -12 84 -129.5t115 -150.5q38 -47 92 -47q14 0 14 -12q0 -15 -12 -20t-60.5 -5t-87.5 23q-54 31 -179 240q-48 78 -74 78h-82q-12 0 -14.5 -10t-2.5 -59v-81l1 -53v-9q0 -41 19 -63.5t42.5 -26t42.5 -8t19 -14.5q0 -16 -18 -16l-143 7l-110 -4q-21 0 -21 16
q0 17 42 22q16 2 29 22t13 57zM201 536q0 -103 1 -127.5t7 -28.5q15 -9 43 -9h39q85 0 121.5 39t36.5 100.5t-48.5 112.5t-146.5 51q-37 0 -45 -19.5t-8 -90.5v-28z" />
    <glyph glyph-name="racute" unicode="&#x155;" horiz-adv-x="375" 
d="M179 491q0 5 7 15q32 48 68 137q8 19 20 19t32.5 -6.5t20.5 -19.5q0 -23 -97 -125q-29 -31 -40 -31t-11 11zM52 363l-11 1q-19 0 -19 16q0 11 13.5 16.5t50 17t57.5 21t25 9.5q13 0 13 -20l-1 -27q0 -36 2.5 -39.5t5 -3.5t15.5 20t37 40.5t47.5 20.5t48.5 -16.5t25 -33
t-8 -30.5q-14 -24 -26 -24q-8 0 -28.5 12t-47.5 12t-50.5 -22t-23.5 -40v-104l1 -87l1 -18q0 -21 14 -36t26.5 -17t21.5 -3t14 -1.5t11 -2.5q11 -2 11 -14.5t-12 -12.5l-85 5l-104 -5q-18 0 -20 4t-2 8q0 13 13 17q26 6 31.5 25.5t5.5 83.5l-1 161l-1 30q0 11 -3 18
q-8 19 -47 19z" />
    <glyph glyph-name="Rcommaaccent" unicode="&#x156;" horiz-adv-x="718" 
d="M305 -79q0 3 11 11t17 13q11 11 19 11t19 -5.5t23.5 -20.5t12.5 -35q0 -43 -32 -69.5t-46 -26.5t-14 7q0 3 11 9q31 16 31 46q0 28 -39 46q-13 6 -13 14zM118 428l-1 169q0 37 -15 56.5t-33.5 22t-33.5 6.5t-15 14q0 16 29 16h166l100 3q90 0 154 -45.5t64 -122.5
q0 -51 -19.5 -89.5t-43 -55.5t-43 -29.5t-19.5 -16.5q0 -12 84 -129.5t115 -150.5q38 -47 92 -47q14 0 14 -12q0 -15 -12 -20t-60.5 -5t-87.5 23q-54 31 -179 240q-48 78 -74 78h-82q-12 0 -14.5 -10t-2.5 -59v-81l1 -53v-9q0 -41 19 -63.5t42.5 -26t42.5 -8t19 -14.5
q0 -16 -18 -16l-143 7l-110 -4q-21 0 -21 16q0 17 42 22q16 2 29 22t13 57zM201 536q0 -103 1 -127.5t7 -28.5q15 -9 43 -9h39q85 0 121.5 39t36.5 100.5t-48.5 112.5t-146.5 51q-37 0 -45 -19.5t-8 -90.5v-28z" />
    <glyph glyph-name="rcommaaccent" unicode="&#x157;" horiz-adv-x="375" 
d="M115 -79q0 3 11 11t17 13q11 11 19 11t19 -5.5t23.5 -20.5t12.5 -35q0 -43 -32 -69.5t-46 -26.5t-14 7q0 3 11 9q31 16 31 46q0 28 -39 46q-13 6 -13 14zM52 363l-11 1q-19 0 -19 16q0 11 13.5 16.5t50 17t57.5 21t25 9.5q13 0 13 -20l-1 -27q0 -36 2.5 -39.5t5 -3.5
t15.5 20t37 40.5t47.5 20.5t48.5 -16.5t25 -33t-8 -30.5q-14 -24 -26 -24q-8 0 -28.5 12t-47.5 12t-50.5 -22t-23.5 -40v-104l1 -87l1 -18q0 -21 14 -36t26.5 -17t21.5 -3t14 -1.5t11 -2.5q11 -2 11 -14.5t-12 -12.5l-85 5l-104 -5q-18 0 -20 4t-2 8q0 13 13 17
q26 6 31.5 25.5t5.5 83.5l-1 161l-1 30q0 11 -3 18q-8 19 -47 19z" />
    <glyph glyph-name="Rcaron" unicode="&#x158;" horiz-adv-x="718" 
d="M194 912q9 0 55 -42.5t50.5 -42.5t49.5 42t53.5 42t8.5 -6q0 -1 -4 -9q-62 -91 -71 -111t-12 -23q-5 -6 -11 -6h-25q-12 0 -18 11q-17 29 -51 81t-34 58t9 6zM118 428l-1 169q0 37 -15 56.5t-33.5 22t-33.5 6.5t-15 14q0 16 29 16h166l100 3q90 0 154 -45.5t64 -122.5
q0 -51 -19.5 -89.5t-43 -55.5t-43 -29.5t-19.5 -16.5q0 -12 84 -129.5t115 -150.5q38 -47 92 -47q14 0 14 -12q0 -15 -12 -20t-60.5 -5t-87.5 23q-54 31 -179 240q-48 78 -74 78h-82q-12 0 -14.5 -10t-2.5 -59v-81l1 -53v-9q0 -41 19 -63.5t42.5 -26t42.5 -8t19 -14.5
q0 -16 -18 -16l-143 7l-110 -4q-21 0 -21 16q0 17 42 22q16 2 29 22t13 57zM201 536q0 -103 1 -127.5t7 -28.5q15 -9 43 -9h39q85 0 121.5 39t36.5 100.5t-48.5 112.5t-146.5 51q-37 0 -45 -19.5t-8 -90.5v-28z" />
    <glyph glyph-name="rcaron" unicode="&#x159;" horiz-adv-x="375" 
d="M114 648q9 0 55 -42.5t50.5 -42.5t49.5 42t53.5 42t8.5 -6q0 -1 -4 -9q-62 -91 -71 -111t-12 -23q-5 -6 -11 -6h-25q-12 0 -18 11q-17 29 -51 81t-34 58t9 6zM52 363l-11 1q-19 0 -19 16q0 11 13.5 16.5t50 17t57.5 21t25 9.5q13 0 13 -20l-1 -27q0 -36 2.5 -39.5t5 -3.5
t15.5 20t37 40.5t47.5 20.5t48.5 -16.5t25 -33t-8 -30.5q-14 -24 -26 -24q-8 0 -28.5 12t-47.5 12t-50.5 -22t-23.5 -40v-104l1 -87l1 -18q0 -21 14 -36t26.5 -17t21.5 -3t14 -1.5t11 -2.5q11 -2 11 -14.5t-12 -12.5l-85 5l-104 -5q-18 0 -20 4t-2 8q0 13 13 17
q26 6 31.5 25.5t5.5 83.5l-1 161l-1 30q0 11 -3 18q-8 19 -47 19z" />
    <glyph glyph-name="Sacute" unicode="&#x15a;" horiz-adv-x="596" 
d="M267 755q0 5 7 15q32 48 68 137q8 19 20 19t32.5 -6.5t20.5 -19.5q0 -23 -97 -125q-29 -31 -40 -31t-11 11zM455 689l23 8q13 0 15 -8q21 -121 21 -142.5t-14 -21.5q-9 0 -17.5 21.5t-20 39.5t-16.5 23t-26 24q-54 48 -123.5 48t-111.5 -30t-42 -78t24.5 -77t65.5 -45
t86 -30q121 -38 179 -99q40 -43 40 -107q0 -105 -67 -166.5t-166 -61.5q-69 0 -111 7.5t-86 30.5q-13 8 -31 78t-18 87.5t13.5 17.5t16.5 -10q37 -89 87 -126q54 -41 130.5 -41t122 39.5t45.5 103.5q0 47 -31 78.5t-71 45.5q-149 50 -202 81q-91 54 -91 145t64.5 144.5
t167.5 53.5q38 0 90.5 -16.5t53.5 -16.5z" />
    <glyph glyph-name="sacute" unicode="&#x15b;" horiz-adv-x="393" 
d="M169 491q0 5 7 15q32 48 68 137q8 19 20 19t32.5 -6.5t20.5 -19.5q0 -23 -97 -125q-29 -31 -40 -31t-11 11zM328 401l4 -60q0 -17 -4 -23t-11.5 -6t-16 14.5l-19 31.5t-34 31.5t-53.5 14.5t-49 -14.5t-19 -31.5t3 -27.5t10.5 -18.5l13 -13.5t18.5 -11.5t19.5 -8.5
l21.5 -8.5q91 -32 117 -62.5t26 -87.5t-53 -105q-36 -31 -99 -31q-43 0 -96 21q-15 6 -17.5 6.5t-8 2.5t-8 2.5t-6.5 2.5t-5.5 3.5t-3.5 4.5q-3 5 -3 16v87q0 11 4.5 18.5t12.5 7.5t11.5 -4.5t6.5 -18.5t6 -20q37 -92 104 -92q31 0 59 16.5t28 52t-23 57.5t-56 34.5l-66 26
t-56 40t-23 66.5q0 56 45 90t99 34t82 -8.5t33.5 -15.5t5.5 -13z" />
    <glyph glyph-name="Scircumflex" unicode="&#x15c;" horiz-adv-x="596" 
d="M193 763q0 1 4 9q62 91 71 111t12 23q5 6 11 6h25q11 0 17 -11q25 -44 55.5 -88.5t30.5 -48.5q0 -8 -9 -8t-55.5 42.5t-51 42.5t-49 -42t-53 -42t-8.5 6zM455 689l23 8q13 0 15 -8q21 -121 21 -142.5t-14 -21.5q-9 0 -17.5 21.5t-20 39.5t-16.5 23t-26 24
q-54 48 -123.5 48t-111.5 -30t-42 -78t24.5 -77t65.5 -45t86 -30q121 -38 179 -99q40 -43 40 -107q0 -105 -67 -166.5t-166 -61.5q-69 0 -111 7.5t-86 30.5q-13 8 -31 78t-18 87.5t13.5 17.5t16.5 -10q37 -89 87 -126q54 -41 130.5 -41t122 39.5t45.5 103.5q0 47 -31 78.5
t-71 45.5q-149 50 -202 81q-91 54 -91 145t64.5 144.5t167.5 53.5q38 0 90.5 -16.5t53.5 -16.5z" />
    <glyph glyph-name="scircumflex" unicode="&#x15d;" horiz-adv-x="393" 
d="M95 499q0 1 4 9q62 91 71 111t12 23q5 6 11 6h25q11 0 17 -11q25 -44 55.5 -88.5t30.5 -48.5q0 -8 -9 -8t-55.5 42.5t-51 42.5t-49 -42t-53 -42t-8.5 6zM328 401l4 -60q0 -17 -4 -23t-11.5 -6t-16 14.5l-19 31.5t-34 31.5t-53.5 14.5t-49 -14.5t-19 -31.5t3 -27.5
t10.5 -18.5l13 -13.5t18.5 -11.5t19.5 -8.5l21.5 -8.5q91 -32 117 -62.5t26 -87.5t-53 -105q-36 -31 -99 -31q-43 0 -96 21q-15 6 -17.5 6.5t-8 2.5t-8 2.5t-6.5 2.5t-5.5 3.5t-3.5 4.5q-3 5 -3 16v87q0 11 4.5 18.5t12.5 7.5t11.5 -4.5t6.5 -18.5t6 -20q37 -92 104 -92
q31 0 59 16.5t28 52t-23 57.5t-56 34.5l-66 26t-56 40t-23 66.5q0 56 45 90t99 34t82 -8.5t33.5 -15.5t5.5 -13z" />
    <glyph glyph-name="Scedilla" unicode="&#x15e;" horiz-adv-x="596" 
d="M257 -79q0 3 11 11t17 13q11 11 19 11t19 -5.5t23.5 -20.5t12.5 -35q0 -43 -32 -69.5t-46 -26.5t-14 7q0 3 11 9q31 16 31 46q0 28 -39 46q-13 6 -13 14zM455 689l23 8q13 0 15 -8q21 -121 21 -142.5t-14 -21.5q-9 0 -17.5 21.5t-20 39.5t-16.5 23t-26 24
q-54 48 -123.5 48t-111.5 -30t-42 -78t24.5 -77t65.5 -45t86 -30q121 -38 179 -99q40 -43 40 -107q0 -105 -67 -166.5t-166 -61.5q-69 0 -111 7.5t-86 30.5q-13 8 -31 78t-18 87.5t13.5 17.5t16.5 -10q37 -89 87 -126q54 -41 130.5 -41t122 39.5t45.5 103.5q0 47 -31 78.5
t-71 45.5q-149 50 -202 81q-91 54 -91 145t64.5 144.5t167.5 53.5q38 0 90.5 -16.5t53.5 -16.5z" />
    <glyph glyph-name="scedilla" unicode="&#x15f;" horiz-adv-x="393" 
d="M154 -79q0 3 11 11t17 13q11 11 19 11t19 -5.5t23.5 -20.5t12.5 -35q0 -43 -32 -69.5t-46 -26.5t-14 7q0 3 11 9q31 16 31 46q0 28 -39 46q-13 6 -13 14zM328 401l4 -60q0 -17 -4 -23t-11.5 -6t-16 14.5l-19 31.5t-34 31.5t-53.5 14.5t-49 -14.5t-19 -31.5t3 -27.5
t10.5 -18.5l13 -13.5t18.5 -11.5t19.5 -8.5l21.5 -8.5q91 -32 117 -62.5t26 -87.5t-53 -105q-36 -31 -99 -31q-43 0 -96 21q-15 6 -17.5 6.5t-8 2.5t-8 2.5t-6.5 2.5t-5.5 3.5t-3.5 4.5q-3 5 -3 16v87q0 11 4.5 18.5t12.5 7.5t11.5 -4.5t6.5 -18.5t6 -20q37 -92 104 -92
q31 0 59 16.5t28 52t-23 57.5t-56 34.5l-66 26t-56 40t-23 66.5q0 56 45 90t99 34t82 -8.5t33.5 -15.5t5.5 -13z" />
    <glyph glyph-name="Scaron" unicode="&#x160;" horiz-adv-x="596" 
d="M202 912q9 0 55 -42.5t50.5 -42.5t49.5 42t53.5 42t8.5 -6q0 -1 -4 -9q-62 -91 -71 -111t-12 -23q-5 -6 -11 -6h-25q-12 0 -18 11q-17 29 -51 81t-34 58t9 6zM455 689l23 8q13 0 15 -8q21 -121 21 -142.5t-14 -21.5q-9 0 -17.5 21.5t-20 39.5t-16.5 23t-26 24
q-54 48 -123.5 48t-111.5 -30t-42 -78t24.5 -77t65.5 -45t86 -30q121 -38 179 -99q40 -43 40 -107q0 -105 -67 -166.5t-166 -61.5q-69 0 -111 7.5t-86 30.5q-13 8 -31 78t-18 87.5t13.5 17.5t16.5 -10q37 -89 87 -126q54 -41 130.5 -41t122 39.5t45.5 103.5q0 47 -31 78.5
t-71 45.5q-149 50 -202 81q-91 54 -91 145t64.5 144.5t167.5 53.5q38 0 90.5 -16.5t53.5 -16.5z" />
    <glyph glyph-name="scaron" unicode="&#x161;" horiz-adv-x="393" 
d="M104 648q9 0 55 -42.5t50.5 -42.5t49.5 42t53.5 42t8.5 -6q0 -1 -4 -9q-62 -91 -71 -111t-12 -23q-5 -6 -11 -6h-25q-12 0 -18 11q-17 29 -51 81t-34 58t9 6zM328 401l4 -60q0 -17 -4 -23t-11.5 -6t-16 14.5l-19 31.5t-34 31.5t-53.5 14.5t-49 -14.5t-19 -31.5t3 -27.5
t10.5 -18.5l13 -13.5t18.5 -11.5t19.5 -8.5l21.5 -8.5q91 -32 117 -62.5t26 -87.5t-53 -105q-36 -31 -99 -31q-43 0 -96 21q-15 6 -17.5 6.5t-8 2.5t-8 2.5t-6.5 2.5t-5.5 3.5t-3.5 4.5q-3 5 -3 16v87q0 11 4.5 18.5t12.5 7.5t11.5 -4.5t6.5 -18.5t6 -20q37 -92 104 -92
q31 0 59 16.5t28 52t-23 57.5t-56 34.5l-66 26t-56 40t-23 66.5q0 56 45 90t99 34t82 -8.5t33.5 -15.5t5.5 -13z" />
    <glyph glyph-name="uni0162" unicode="&#x162;" horiz-adv-x="703" 
d="M300 -79q0 3 11 11t17 13q11 11 19 11t19 -5.5t23.5 -20.5t12.5 -35q0 -43 -32 -69.5t-46 -26.5t-14 7q0 3 11 9q31 16 31 46q0 28 -39 46q-13 6 -13 14zM145.5 714q68.5 -4 269.5 -4t243 6q11 0 15 -6t4 -11l6 -81q0 -25 -3 -31.5t-13 -6.5q-8 0 -13.5 20.5t-11.5 31.5
q-15 26 -87 26h-130q-24 0 -29.5 -9.5t-5.5 -54.5v-49l-3 -366l-1 -65q0 -43 13.5 -56t29.5 -19.5t27 -7.5q28 -2 28 -18q0 -11 -5 -14t-19 -3l-111 8l-102 -7q-37 0 -37 16q0 10 6 13.5t23.5 6t22.5 3.5q34 8 38 40q10 88 10 378l-1 179q0 19 -11 23.5t-73 4.5t-97.5 -4
t-41.5 -7.5t-14.5 -14.5t-14 -25.5t-7.5 -23.5q-3 -23 -19 -23q-11 0 -11 17q0 40 5 72.5t5.5 37.5t1 6.5t1 5t1.5 5t2.5 4t3.5 3.5t5 2q6 2 19 2t81.5 -4z" />
    <glyph glyph-name="uni0163" unicode="&#x163;" horiz-adv-x="342" 
d="M139 -79q0 3 11 11t17 13q11 11 19 11t19 -5.5t23.5 -20.5t12.5 -35q0 -43 -32 -69.5t-46 -26.5t-14 7q0 3 11 9q31 16 31 46q0 28 -39 46q-13 6 -13 14zM63 371l-19 -1q-17 0 -17 14q0 10 9 17q38 25 76 75q16 23 25.5 33.5t19.5 10.5t10 -23l-4 -57q0 -14 5.5 -17
t35.5 -3h35q45 0 55 5q18 9 22 9q10 0 10 -11q0 -8 -13 -31.5t-19 -23.5q-45 0 -63 2t-24 2.5t-10.5 1t-6.5 0.5l-2 1q-19 0 -24.5 -6t-5.5 -27l-4 -186q0 -65 16.5 -90.5t69.5 -25.5q21 0 46.5 9.5t27.5 9.5q10 0 10 -13t-34.5 -34.5t-74.5 -21.5q-135 0 -135 117v15l4 233
q0 10 -4 13t-17 3z" />
    <glyph glyph-name="Tcaron" unicode="&#x164;" horiz-adv-x="703" 
d="M248 912q9 0 55 -42.5t50.5 -42.5t49.5 42t53.5 42t8.5 -6q0 -1 -4 -9q-62 -91 -71 -111t-12 -23q-5 -6 -11 -6h-25q-12 0 -18 11q-17 29 -51 81t-34 58t9 6zM145.5 714q68.5 -4 269.5 -4t243 6q11 0 15 -6t4 -11l6 -81q0 -25 -3 -31.5t-13 -6.5q-8 0 -13.5 20.5
t-11.5 31.5q-15 26 -87 26h-130q-24 0 -29.5 -9.5t-5.5 -54.5v-49l-3 -366l-1 -65q0 -43 13.5 -56t29.5 -19.5t27 -7.5q28 -2 28 -18q0 -11 -5 -14t-19 -3l-111 8l-102 -7q-37 0 -37 16q0 10 6 13.5t23.5 6t22.5 3.5q34 8 38 40q10 88 10 378l-1 179q0 19 -11 23.5t-73 4.5
t-97.5 -4t-41.5 -7.5t-14.5 -14.5t-14 -25.5t-7.5 -23.5q-3 -23 -19 -23q-11 0 -11 17q0 40 5 72.5t5.5 37.5t1 6.5t1 5t1.5 5t2.5 4t3.5 3.5t5 2q6 2 19 2t81.5 -4z" />
    <glyph glyph-name="tcaron" unicode="&#x165;" horiz-adv-x="342" 
d="M218 635q0 3 11 11t17 13q11 11 19 11t19 -5.5t23.5 -20.5t12.5 -35q0 -43 -32 -69.5t-46 -26.5t-14 7q0 3 11 9q31 16 31 46q0 28 -39 46q-13 6 -13 14zM63 371l-19 -1q-17 0 -17 14q0 10 9 17q38 25 76 75q16 23 25.5 33.5t19.5 10.5t10 -23l-4 -57q0 -14 5.5 -17
t35.5 -3h35q45 0 55 5q18 9 22 9q10 0 10 -11q0 -8 -13 -31.5t-19 -23.5q-45 0 -63 2t-24 2.5t-10.5 1t-6.5 0.5l-2 1q-19 0 -24.5 -6t-5.5 -27l-4 -186q0 -65 16.5 -90.5t69.5 -25.5q21 0 46.5 9.5t27.5 9.5q10 0 10 -13t-34.5 -34.5t-74.5 -21.5q-135 0 -135 117v15l4 233
q0 10 -4 13t-17 3z" />
    <glyph glyph-name="Tbar" unicode="&#x166;" horiz-adv-x="703" 
d="M145.5 714q68.5 -4 269.5 -4t243 6q11 0 15 -6t4 -11l6 -81q0 -25 -3 -31.5t-13 -6.5q-8 0 -13.5 20.5t-11.5 31.5q-15 26 -87 26h-130q-24 0 -29.5 -9.5t-5.5 -54.5v-49l-1 -117v-14q0 -11 5.5 -14t14.5 -3h136q17 0 20.5 -4.5t3.5 -17t-4.5 -17.5t-22.5 -5l-135 -1
q-12 0 -15 -3t-3 -15l-3 -220q0 -43 13.5 -56t29.5 -19.5t27 -7.5q28 -2 28 -18q0 -11 -5 -14t-19 -3l-111 8l-102 -7q-37 0 -37 16q0 10 6 13.5t23.5 6t22.5 3.5q34 8 38 40q7 61 9 258q0 12 -3.5 15.5t-12.5 3.5h-9l-68 1h-74q-15 0 -15 21t14 21l146 1q15 0 19 3.5
t4 17.5v36l-1 179q0 19 -11 23.5t-73 4.5t-97.5 -4t-41.5 -7.5t-14.5 -14.5t-14 -25.5t-7.5 -23.5q-3 -23 -19 -23q-11 0 -11 17q0 40 5 72.5t5.5 37.5t1 6.5t1 5t1.5 5t2.5 4t3.5 3.5t5 2q6 2 19 2t81.5 -4z" />
    <glyph glyph-name="tbar" unicode="&#x167;" horiz-adv-x="342" 
d="M80 122l1 67q0 9 -3 12t-11 3h-27q-13 0 -13 21.5t12 21.5h31q12 0 12 17v3l1 27q1 34 1 52.5t-4 21.5t-17 3l-19 -1q-17 0 -17 14q0 10 9 17q38 25 76 75q16 23 25.5 33.5t19.5 10.5t10 -23l-4 -57q0 -14 5.5 -17t35.5 -3h35q45 0 55 5q18 9 22 9q10 0 10 -11
q0 -8 -13 -31.5t-19 -23.5q-45 0 -63 2t-24 2.5t-10.5 1t-6.5 0.5l-2 1q-19 0 -24.5 -6t-5.5 -21.5t-1 -54.5t1.5 -42t13.5 -3h118q14 0 17.5 -5t3.5 -15.5t-1 -14.5q-2 -10 -22 -10l-121 -1q-13 0 -13 -13v-33q0 -65 16.5 -90.5t69.5 -25.5q21 0 46.5 9.5t27.5 9.5
q10 0 10 -13t-34.5 -34.5t-74.5 -21.5q-135 0 -135 117v15z" />
    <glyph glyph-name="Utilde" unicode="&#x168;" horiz-adv-x="815" 
d="M289 794q0 17 33.5 61.5t60.5 44.5t65 -24t60 -24t42.5 28t22.5 28q10 0 10 -15t-33 -57t-61 -42t-67.5 24t-57.5 24t-31.5 -14t-22 -28t-11.5 -14q-10 0 -10 8zM114 431l2 144q0 55 -13 75.5t-61 27.5q-22 3 -22 19q0 8 6 10.5t17 2.5l113 -4l94 2q21 0 21 -14
q0 -9 -7 -11t-17.5 -3t-20.5 -7q-25 -14 -25 -93v-28l-1 -216q0 -99 6 -129t14 -55.5t19.5 -40.5t29 -33t40.5 -28q54 -22 123 -22q108 0 150 24q18 10 41.5 31.5t36.5 52.5q31 74 31 188l-1 212q0 35 -1.5 55t-10 44t-21.5 33t-29 11.5l-26 4t-10 8.5q0 16 20 16l77 -2
l85 3q21 0 21 -13q0 -8 -21.5 -20.5t-26.5 -22.5q-11 -21 -11 -66l1 -67q0 -192 -16 -294t-49 -148q-67 -97 -237 -97t-240 64q-55 51 -68 122.5t-13 246.5v17z" />
    <glyph glyph-name="utilde" unicode="&#x169;" horiz-adv-x="576" 
d="M133 530q0 17 33.5 61.5t60.5 44.5t65 -24t60 -24t42.5 28t22.5 28q10 0 10 -15t-33 -57t-61 -42t-67.5 24t-57.5 24t-31.5 -14t-22 -28t-11.5 -14q-10 0 -10 8zM94 156l1 180q0 20 -10.5 32t-19.5 12h-18q-18 0 -18 14t19.5 18t47.5 4l57 5q17 0 20 -7t3 -35t-2.5 -76.5
t-2.5 -107.5q0 -88 34 -124.5t77 -36.5q64 0 93 27t29 95l-2 138q0 50 -8 67.5t-34 20t-26 13.5q0 23 88 23l36 5q15 0 19.5 -5t4.5 -14.5t-0.5 -24t-1 -38.5t-1.5 -54q-2 -60 -2 -134t6 -96t22 -22l26 1q24 0 24 -12t-7 -15t-27 -3t-60.5 -5.5t-43.5 -5.5q-7 0 -11.5 25.5
t-6 25.5t-19.5 -16t-51.5 -32t-73.5 -16q-161 0 -161 174z" />
    <glyph glyph-name="Umacron" unicode="&#x16a;" horiz-adv-x="815" 
d="M528 827l-188 1q-10 0 -10 22t16 22l181 -2q9 0 12 -5t3 -19q0 -19 -14 -19zM114 431l2 144q0 55 -13 75.5t-61 27.5q-22 3 -22 19q0 8 6 10.5t17 2.5l113 -4l94 2q21 0 21 -14q0 -9 -7 -11t-17.5 -3t-20.5 -7q-25 -14 -25 -93v-28l-1 -216q0 -99 6 -129t14 -55.5
t19.5 -40.5t29 -33t40.5 -28q54 -22 123 -22q108 0 150 24q18 10 41.5 31.5t36.5 52.5q31 74 31 188l-1 212q0 35 -1.5 55t-10 44t-21.5 33t-29 11.5l-26 4t-10 8.5q0 16 20 16l77 -2l85 3q21 0 21 -13q0 -8 -21.5 -20.5t-26.5 -22.5q-11 -21 -11 -66l1 -67q0 -192 -16 -294
t-49 -148q-67 -97 -237 -97t-240 64q-55 51 -68 122.5t-13 246.5v17z" />
    <glyph glyph-name="umacron" unicode="&#x16b;" horiz-adv-x="576" 
d="M372 563l-188 1q-10 0 -10 22t16 22l181 -2q9 0 12 -5t3 -19q0 -19 -14 -19zM94 156l1 180q0 20 -10.5 32t-19.5 12h-18q-18 0 -18 14t19.5 18t47.5 4l57 5q17 0 20 -7t3 -35t-2.5 -76.5t-2.5 -107.5q0 -88 34 -124.5t77 -36.5q64 0 93 27t29 95l-2 138q0 50 -8 67.5
t-34 20t-26 13.5q0 23 88 23l36 5q15 0 19.5 -5t4.5 -14.5t-0.5 -24t-1 -38.5t-1.5 -54q-2 -60 -2 -134t6 -96t22 -22l26 1q24 0 24 -12t-7 -15t-27 -3t-60.5 -5.5t-43.5 -5.5q-7 0 -11.5 25.5t-6 25.5t-19.5 -16t-51.5 -32t-73.5 -16q-161 0 -161 174z" />
    <glyph glyph-name="Ubreve" unicode="&#x16c;" horiz-adv-x="815" 
d="M323 891q0 3 11 3h5q4 0 11 -11l16 -24t30.5 -24t54 -11t53.5 17.5t29 35t12 17.5h4q11 0 11 -3q0 -40 -31.5 -83t-87.5 -43t-87 41.5t-31 84.5zM114 431l2 144q0 55 -13 75.5t-61 27.5q-22 3 -22 19q0 8 6 10.5t17 2.5l113 -4l94 2q21 0 21 -14q0 -9 -7 -11t-17.5 -3
t-20.5 -7q-25 -14 -25 -93v-28l-1 -216q0 -99 6 -129t14 -55.5t19.5 -40.5t29 -33t40.5 -28q54 -22 123 -22q108 0 150 24q18 10 41.5 31.5t36.5 52.5q31 74 31 188l-1 212q0 35 -1.5 55t-10 44t-21.5 33t-29 11.5l-26 4t-10 8.5q0 16 20 16l77 -2l85 3q21 0 21 -13
q0 -8 -21.5 -20.5t-26.5 -22.5q-11 -21 -11 -66l1 -67q0 -192 -16 -294t-49 -148q-67 -97 -237 -97t-240 64q-55 51 -68 122.5t-13 246.5v17z" />
    <glyph glyph-name="ubreve" unicode="&#x16d;" horiz-adv-x="576" 
d="M167 627q0 3 11 3h5q4 0 11 -11l16 -24t30.5 -24t54 -11t53.5 17.5t29 35t12 17.5h4q11 0 11 -3q0 -40 -31.5 -83t-87.5 -43t-87 41.5t-31 84.5zM94 156l1 180q0 20 -10.5 32t-19.5 12h-18q-18 0 -18 14t19.5 18t47.5 4l57 5q17 0 20 -7t3 -35t-2.5 -76.5t-2.5 -107.5
q0 -88 34 -124.5t77 -36.5q64 0 93 27t29 95l-2 138q0 50 -8 67.5t-34 20t-26 13.5q0 23 88 23l36 5q15 0 19.5 -5t4.5 -14.5t-0.5 -24t-1 -38.5t-1.5 -54q-2 -60 -2 -134t6 -96t22 -22l26 1q24 0 24 -12t-7 -15t-27 -3t-60.5 -5.5t-43.5 -5.5q-7 0 -11.5 25.5t-6 25.5
t-19.5 -16t-51.5 -32t-73.5 -16q-161 0 -161 174z" />
    <glyph glyph-name="Uring" unicode="&#x16e;" horiz-adv-x="815" 
d="M364.5 823q-4.5 16 -4.5 37t23 46.5t57.5 25.5t53 -27t18.5 -58.5t-28.5 -52t-53 -20.5t-43 16.5t-23 32.5zM410.5 881.5q-12.5 -11.5 -12.5 -28.5t11 -28.5t22 -11.5t18.5 2.5t16 12t8.5 24.5q0 41 -37 41q-14 0 -26.5 -11.5zM114 431l2 144q0 55 -13 75.5t-61 27.5
q-22 3 -22 19q0 8 6 10.5t17 2.5l113 -4l94 2q21 0 21 -14q0 -9 -7 -11t-17.5 -3t-20.5 -7q-25 -14 -25 -93v-28l-1 -216q0 -99 6 -129t14 -55.5t19.5 -40.5t29 -33t40.5 -28q54 -22 123 -22q108 0 150 24q18 10 41.5 31.5t36.5 52.5q31 74 31 188l-1 212q0 35 -1.5 55
t-10 44t-21.5 33t-29 11.5l-26 4t-10 8.5q0 16 20 16l77 -2l85 3q21 0 21 -13q0 -8 -21.5 -20.5t-26.5 -22.5q-11 -21 -11 -66l1 -67q0 -192 -16 -294t-49 -148q-67 -97 -237 -97t-240 64q-55 51 -68 122.5t-13 246.5v17z" />
    <glyph glyph-name="uring" unicode="&#x16f;" horiz-adv-x="576" 
d="M208.5 559q-4.5 16 -4.5 37t23 46.5t57.5 25.5t53 -27t18.5 -58.5t-28.5 -52t-53 -20.5t-43 16.5t-23 32.5zM254.5 617.5q-12.5 -11.5 -12.5 -28.5t11 -28.5t22 -11.5t18.5 2.5t16 12t8.5 24.5q0 41 -37 41q-14 0 -26.5 -11.5zM94 156l1 180q0 20 -10.5 32t-19.5 12h-18
q-18 0 -18 14t19.5 18t47.5 4l57 5q17 0 20 -7t3 -35t-2.5 -76.5t-2.5 -107.5q0 -88 34 -124.5t77 -36.5q64 0 93 27t29 95l-2 138q0 50 -8 67.5t-34 20t-26 13.5q0 23 88 23l36 5q15 0 19.5 -5t4.5 -14.5t-0.5 -24t-1 -38.5t-1.5 -54q-2 -60 -2 -134t6 -96t22 -22l26 1
q24 0 24 -12t-7 -15t-27 -3t-60.5 -5.5t-43.5 -5.5q-7 0 -11.5 25.5t-6 25.5t-19.5 -16t-51.5 -32t-73.5 -16q-161 0 -161 174z" />
    <glyph glyph-name="Uhungarumlaut" unicode="&#x170;" horiz-adv-x="815" 
d="M329 755q0 5 7 15q30 42 69 137q8 19 20 19t32.5 -6.5t20.5 -19.5q0 -23 -97 -125q-29 -31 -40.5 -31t-11.5 11zM488 755q0 5 8 15q30 42 68 137q8 19 19.5 19t32 -6.5t20.5 -19.5q0 -23 -97 -125q-29 -31 -40 -31t-11 11zM114 431l2 144q0 55 -13 75.5t-61 27.5
q-22 3 -22 19q0 8 6 10.5t17 2.5l113 -4l94 2q21 0 21 -14q0 -9 -7 -11t-17.5 -3t-20.5 -7q-25 -14 -25 -93v-28l-1 -216q0 -99 6 -129t14 -55.5t19.5 -40.5t29 -33t40.5 -28q54 -22 123 -22q108 0 150 24q18 10 41.5 31.5t36.5 52.5q31 74 31 188l-1 212q0 35 -1.5 55
t-10 44t-21.5 33t-29 11.5l-26 4t-10 8.5q0 16 20 16l77 -2l85 3q21 0 21 -13q0 -8 -21.5 -20.5t-26.5 -22.5q-11 -21 -11 -66l1 -67q0 -192 -16 -294t-49 -148q-67 -97 -237 -97t-240 64q-55 51 -68 122.5t-13 246.5v17z" />
    <glyph glyph-name="uhungarumlaut" unicode="&#x171;" horiz-adv-x="576" 
d="M173 491q0 5 7 15q30 42 69 137q8 19 20 19t32.5 -6.5t20.5 -19.5q0 -23 -97 -125q-29 -31 -40.5 -31t-11.5 11zM332 491q0 5 8 15q30 42 68 137q8 19 19.5 19t32 -6.5t20.5 -19.5q0 -23 -97 -125q-29 -31 -40 -31t-11 11zM94 156l1 180q0 20 -10.5 32t-19.5 12h-18
q-18 0 -18 14t19.5 18t47.5 4l57 5q17 0 20 -7t3 -35t-2.5 -76.5t-2.5 -107.5q0 -88 34 -124.5t77 -36.5q64 0 93 27t29 95l-2 138q0 50 -8 67.5t-34 20t-26 13.5q0 23 88 23l36 5q15 0 19.5 -5t4.5 -14.5t-0.5 -24t-1 -38.5t-1.5 -54q-2 -60 -2 -134t6 -96t22 -22l26 1
q24 0 24 -12t-7 -15t-27 -3t-60.5 -5.5t-43.5 -5.5q-7 0 -11.5 25.5t-6 25.5t-19.5 -16t-51.5 -32t-73.5 -16q-161 0 -161 174z" />
    <glyph glyph-name="Uogonek" unicode="&#x172;" horiz-adv-x="815" 
d="M114 431l2 144q0 55 -13 75.5t-61 27.5q-22 3 -22 19q0 8 6 10.5t17 2.5l113 -4l94 2q21 0 21 -14q0 -9 -7 -11t-17.5 -3t-20.5 -7q-25 -14 -25 -93v-28l-1 -216q0 -99 6 -129t14 -55.5t19.5 -40.5t29 -33t40.5 -28q54 -22 123 -22q108 0 150 24q18 10 41.5 31.5
t36.5 52.5q31 74 31 188l-1 212q0 35 -1.5 55t-10 44t-21.5 33t-29 11.5l-26 4t-10 8.5q0 16 20 16l77 -2l85 3q21 0 21 -13q0 -8 -21.5 -20.5t-26.5 -22.5q-11 -21 -11 -66l1 -67q0 -192 -16 -294t-48.5 -148.5t-97.5 -74.5q-17 -7 -37.5 -10.5l-31.5 -5.5t-22 -9
q-20 -13 -20 -72q0 -28 15 -50t32.5 -22t29 5.5t13.5 5.5q7 0 7 -9.5t-23.5 -24.5t-58 -15t-57.5 27t-23 58q0 53 28 87l9 11q0 2 -16 2t-43.5 1.5t-58.5 5.5q-73 11 -125.5 59.5t-65.5 120t-13 246.5v17z" />
    <glyph glyph-name="uogonek" unicode="&#x173;" horiz-adv-x="576" 
d="M94 156l1 180q0 20 -10.5 32t-19.5 12h-18q-18 0 -18 14t19.5 18t47.5 4l57 5q17 0 20 -7t3 -35t-2.5 -76.5t-2.5 -107.5q0 -88 34 -124.5t77 -36.5q64 0 93 27t29 95l-2 138q0 50 -8 67.5t-34 20t-26 13.5q0 23 88 23l36 5q15 0 19.5 -5t4.5 -14.5t-0.5 -24t-1 -38.5
t-1.5 -54q-2 -60 -2 -134t6 -96t22 -22l26 1q24 0 24 -12t-7 -15t-24.5 -3t-28 -0.5t-18.5 -2t-14.5 -3t-10.5 -3.5t-7.5 -4t-5.5 -3.5t-3 -3t-2 -2.5v-1q-24 -28 -24 -66.5t16 -60.5t33.5 -22t29 5.5t13.5 5.5q7 0 7 -9.5t-23 -24.5t-57 -15t-56.5 29t-22.5 62.5t14 58.5
t28.5 40t14.5 24t-2 17.5t-3.5 13.5t-2.5 5t-19 -16t-51.5 -32t-73.5 -16q-161 0 -161 174z" />
    <glyph glyph-name="Wcircumflex" unicode="&#x174;" horiz-adv-x="1110" 
d="M465 763q0 1 4 9q62 91 71 111t12 23q5 6 11 6h25q11 0 17 -11q25 -44 55.5 -88.5t30.5 -48.5q0 -8 -9 -8t-55.5 42.5t-51 42.5t-49 -42t-53 -42t-8.5 6zM982 709l89 2q20 0 20 -14q0 -7 -5.5 -11t-16.5 -10t-17.5 -12.5t-10 -11.5t-7.5 -12.5t-6 -12.5
q-7 -13 -136 -304.5t-143 -320.5t-22 -29q-10 0 -46 89l-26.5 61l-28 66l-23.5 55q-24 57 -31 57q-10 0 -67.5 -138t-60 -148t-4 -14t-2.5 -7l-2 -6t-2 -5t-1.5 -4t-1.5 -3.5t-2 -2.5t-2 -1q-3 -2 -5 -2q-9 0 -22 28.5t-47 112t-80.5 185.5t-111.5 262q-19 48 -41 75.5
t-39 34.5t-31 8t-22 4t-8 16t27 13l110 -3l86 3q9 0 11.5 -2.5t2.5 -9t-21.5 -17.5t-21.5 -30q0 -20 30 -85l131.5 -298l41.5 -97q20 -44 26 -44q4 0 32 62t41 94t18 43q11 21 11 33.5t-60 147.5q-66 146 -85 161q-16 12 -26 12l-11 1q-28 3 -34 5.5t-6 10.5q0 14 29 14
l110 -4l66 4q30 0 30 -7t-11 -13q-32 -17 -32 -37.5t31 -90.5q2 -4 14 -33q26 -68 33.5 -68t39.5 87.5t32 104.5t-15 24.5t-30 11t-15 11.5q0 11 22 11l64 -2h17q14 0 53 3h9q13 0 13 -10t-19 -16t-30.5 -17.5t-28 -52l-46 -109.5t-34.5 -83t-5 -23.5t61 -145.5t72.5 -136
t116 252.5t104.5 273t-11.5 29t-25.5 10.5q-37 3 -37 16q0 7 3 8.5t16 1.5z" />
    <glyph glyph-name="wcircumflex" unicode="&#x175;" horiz-adv-x="748" 
d="M265 499q0 1 4 9q62 91 71 111t12 23q5 6 11 6h25q11 0 17 -11q25 -44 55.5 -88.5t30.5 -48.5q0 -8 -9 -8t-55.5 42.5t-51 42.5t-49 -42t-53 -42t-8.5 6zM410 422l31 1q22 0 22 -14q0 -7 -3 -8q-6 -2 -12 -2q-30 -2 -30 -28q0 -37 59 -167q8 -16 19 -44q22 -57 28 -57
q10 0 52.5 109.5t42.5 135.5t-8.5 35.5t-18.5 10.5q-28 4 -28 20q0 8 21 8h115q19 0 24 -2t5 -11t-16.5 -15.5t-26.5 -20.5t-18 -30.5t-18 -40.5q-30 -75 -75 -170l-49.5 -104t-11.5 -21q-10 -20 -19 -20q-17 0 -64 129.5t-55 129.5q-3 0 -64 -128t-80 -128q-8 0 -15 14
t-38.5 96l-51.5 131.5t-28.5 74t-12.5 34.5q-14 28 -47 56q-4 4 -9 6.5l-7 3.5q-3 3 -3 10q0 11 19 11l71 -4l49 1q30 0 38.5 -1.5t8.5 -9.5t-11 -11q-33 -7 -33 -39.5t56 -158.5q7 -14 19 -43.5t19 -43t11 -13.5t25.5 40.5l29 55.5l11.5 22.5l9 17t7 14l4.5 10.5l3.5 8.5
t2 7t1 7.5v7q0 7 -9.5 30t-20 38.5t-22.5 25.5t-18 12q-16 6 -16 15t15 9z" />
    <glyph glyph-name="Ycircumflex" unicode="&#x176;" horiz-adv-x="712" 
d="M262 763q0 1 4 9q62 91 71 111t12 23q5 6 11 6h25q11 0 17 -11q25 -44 55.5 -88.5t30.5 -48.5q0 -8 -9 -8t-55.5 42.5t-51 42.5t-49 -42t-53 -42t-8.5 6zM326 89l2 203q0 42 -26 82l-63 95l-69 102.5t-55 70t-38.5 29t-35 4.5t-21.5 12t11.5 15t50.5 3l58 -2l85 1
q50 0 50 -11.5t-21 -19t-21 -17t6.5 -25.5t13 -26l19.5 -29t31 -48t54.5 -78t42 -49t14.5 11.5t25 38.5t23 37.5l18.5 27.5l16 24l13.5 21.5t13 22t9 18.5q10 18 10 30q0 36 -46 42q-22 3 -25 8.5t-3 10.5q0 12 28 12l41 -1l106 -1q49 0 49 -15q0 -4 -6 -7t-17 -8t-20 -12
q-41 -32 -120.5 -152t-93 -137t-17.5 -41t-4 -82l1 -116v-24q0 -33 11.5 -52t21.5 -22.5t20 -3.5l20 -1q7 0 11 -4.5t4 -12t-5 -10.5t-19 -3l-100 1l-110 -4q-28 0 -28 10t5.5 13.5t18.5 4.5t19 3q42 13 42 61z" />
    <glyph glyph-name="ycircumflex" unicode="&#x177;" horiz-adv-x="498" 
d="M147 499q0 1 4 9q62 91 71 111t12 23q5 6 11 6h25q11 0 17 -11q25 -44 55.5 -88.5t30.5 -48.5q0 -8 -9 -8t-55.5 42.5t-51 42.5t-49 -42t-53 -42t-8.5 6zM204 -190l-43 -1q-19 0 -19 13q0 3 22.5 31t45.5 69t23 72.5t-57 155.5t-99 203q-11 20 -22.5 31t-18.5 12
q-16 2 -16 15t20 13l107 -2l57 2q7 0 12.5 -3.5t5.5 -7.5q0 -18 -24 -18h-15q-16 0 -16 -25q0 -30 53 -144q8 -17 24 -54q30 -68 36 -68t46.5 115t40.5 137t-9.5 31t-21.5 9q-31 -2 -31 17q0 12 19 12l72 -1l62 1q21 0 21 -13q0 -10 -17.5 -14.5t-23.5 -12.5
q-16 -23 -54 -126l-89 -237l-22 -59.5l-18 -49.5l-14 -38l-11 -29.5t-8 -19.5q-8 -16 -15 -16h-3z" />
    <glyph glyph-name="Ydieresis" unicode="&#x178;" horiz-adv-x="712" 
d="M258 855q0 14 15.5 32.5t32 18.5t32 -17.5t15.5 -33.5t-17.5 -34.5t-25.5 -18.5q-20 0 -36 19.5t-16 33.5zM418 855q0 14 15.5 32.5t32 18.5t32 -17.5t15.5 -33.5t-17.5 -34.5t-26.5 -18.5q-20 0 -35.5 19.5t-15.5 33.5zM326 89l2 203q0 42 -26 82l-63 95l-69 102.5
t-55 70t-38.5 29t-35 4.5t-21.5 12t11.5 15t50.5 3l58 -2l85 1q50 0 50 -11.5t-21 -19t-21 -17t6.5 -25.5t13 -26l19.5 -29t31 -48t54.5 -78t42 -49t14.5 11.5t25 38.5t23 37.5l18.5 27.5l16 24l13.5 21.5t13 22t9 18.5q10 18 10 30q0 36 -46 42q-22 3 -25 8.5t-3 10.5
q0 12 28 12l41 -1l106 -1q49 0 49 -15q0 -4 -6 -7t-17 -8t-20 -12q-41 -32 -120.5 -152t-93 -137t-17.5 -41t-4 -82l1 -116v-24q0 -33 11.5 -52t21.5 -22.5t20 -3.5l20 -1q7 0 11 -4.5t4 -12t-5 -10.5t-19 -3l-100 1l-110 -4q-28 0 -28 10t5.5 13.5t18.5 4.5t19 3
q42 13 42 61z" />
    <glyph glyph-name="Zacute" unicode="&#x179;" horiz-adv-x="563" 
d="M236 755q0 5 7 15q32 48 68 137q8 19 20 19t32.5 -6.5t20.5 -19.5q0 -23 -97 -125q-29 -31 -40 -31t-11 11zM287 -1l-247 -1q-20 0 -20 16q0 6 28.5 48.5t52 84.5t102 170.5l134.5 223t56 105.5t-39 11t-187 -4q-32 -1 -55.5 -16t-33 -32.5l-17.5 -32t-13 -14.5
q-13 0 -13 18t4 38t4 25.5t3 33t9 31.5t16.5 4t38.5 -1q55 -2 182 -2l180 1q43 0 43 -14t-183.5 -316t-183.5 -310.5t8 -13t28 -6.5q32 -2 106.5 -2t119.5 5.5t69 19t32.5 22.5l13.5 14t10 5q8 0 8 -14.5t-31 -64.5q-2 -3 -5 -8.5t-5 -7.5q-7 -10 -10 -11q-9 -4 -22 -4z" />
    <glyph glyph-name="zacute" unicode="&#x17a;" horiz-adv-x="378" 
d="M159 491q0 5 7 15q32 48 68 137q8 19 20 19t32.5 -6.5t20.5 -19.5q0 -23 -97 -125q-29 -31 -40 -31t-11 11zM180 2l-73 -1h-17q-17 0 -24 -1h-7q-19 0 -19 15t7.5 25l14 19.5l12.5 17.5q183 264 183 279q0 5 -23 5l-122 -7q-29 -2 -50 -43q-7 -14 -12 -14q-8 0 -8 14.5
t2.5 33.5t6.5 39.5t4 23.5q2 18 20 18l107 -3l147 3q12 0 12 -10q0 -11 -13.5 -27t-35.5 -50t-74.5 -108.5l-76 -110t-23.5 -47.5q0 -9 49 -9l49 1q53 0 72 15q15 11 20.5 26.5t7.5 19.5q7 14 17 14q16 0 16 -14q0 -6 -13.5 -37t-17 -44t-6.5 -21q-6 -22 -18 -22h-114z" />
    <glyph glyph-name="Zdotaccent" unicode="&#x17b;" horiz-adv-x="563" 
d="M242.5 818q-14.5 21 -14.5 34.5t17.5 35t33 21.5t31 -20.5t15.5 -36.5t-19.5 -35.5t-28.5 -19.5q-20 0 -34.5 21zM287 -1l-247 -1q-20 0 -20 16q0 6 28.5 48.5t52 84.5t102 170.5l134.5 223t56 105.5t-39 11t-187 -4q-32 -1 -55.5 -16t-33 -32.5l-17.5 -32t-13 -14.5
q-13 0 -13 18t4 38t4 25.5t3 33t9 31.5t16.5 4t38.5 -1q55 -2 182 -2l180 1q43 0 43 -14t-183.5 -316t-183.5 -310.5t8 -13t28 -6.5q32 -2 106.5 -2t119.5 5.5t69 19t32.5 22.5l13.5 14t10 5q8 0 8 -14.5t-31 -64.5q-2 -3 -5 -8.5t-5 -7.5q-7 -10 -10 -11q-9 -4 -22 -4z" />
    <glyph glyph-name="zdotaccent" unicode="&#x17c;" horiz-adv-x="378" 
d="M165.5 554q-14.5 21 -14.5 34.5t17.5 35t33 21.5t31 -20.5t15.5 -36.5t-19.5 -35.5t-28.5 -19.5q-20 0 -34.5 21zM180 2l-73 -1h-17q-17 0 -24 -1h-7q-19 0 -19 15t7.5 25l14 19.5l12.5 17.5q183 264 183 279q0 5 -23 5l-122 -7q-29 -2 -50 -43q-7 -14 -12 -14
q-8 0 -8 14.5t2.5 33.5t6.5 39.5t4 23.5q2 18 20 18l107 -3l147 3q12 0 12 -10q0 -11 -13.5 -27t-35.5 -50t-74.5 -108.5l-76 -110t-23.5 -47.5q0 -9 49 -9l49 1q53 0 72 15q15 11 20.5 26.5t7.5 19.5q7 14 17 14q16 0 16 -14q0 -6 -13.5 -37t-17 -44t-6.5 -21
q-6 -22 -18 -22h-114z" />
    <glyph glyph-name="Zcaron" unicode="&#x17d;" horiz-adv-x="563" 
d="M171 912q9 0 55 -42.5t50.5 -42.5t49.5 42t53.5 42t8.5 -6q0 -1 -4 -9q-62 -91 -71 -111t-12 -23q-5 -6 -11 -6h-25q-12 0 -18 11q-17 29 -51 81t-34 58t9 6zM287 -1l-247 -1q-20 0 -20 16q0 6 28.5 48.5t52 84.5t102 170.5l134.5 223t56 105.5t-39 11t-187 -4
q-32 -1 -55.5 -16t-33 -32.5l-17.5 -32t-13 -14.5q-13 0 -13 18t4 38t4 25.5t3 33t9 31.5t16.5 4t38.5 -1q55 -2 182 -2l180 1q43 0 43 -14t-183.5 -316t-183.5 -310.5t8 -13t28 -6.5q32 -2 106.5 -2t119.5 5.5t69 19t32.5 22.5l13.5 14t10 5q8 0 8 -14.5t-31 -64.5
q-2 -3 -5 -8.5t-5 -7.5q-7 -10 -10 -11q-9 -4 -22 -4z" />
    <glyph glyph-name="zcaron" unicode="&#x17e;" horiz-adv-x="378" 
d="M94 648q9 0 55 -42.5t50.5 -42.5t49.5 42t53.5 42t8.5 -6q0 -1 -4 -9q-62 -91 -71 -111t-12 -23q-5 -6 -11 -6h-25q-12 0 -18 11q-17 29 -51 81t-34 58t9 6zM180 2l-73 -1h-17q-17 0 -24 -1h-7q-19 0 -19 15t7.5 25l14 19.5l12.5 17.5q183 264 183 279q0 5 -23 5l-122 -7
q-29 -2 -50 -43q-7 -14 -12 -14q-8 0 -8 14.5t2.5 33.5t6.5 39.5t4 23.5q2 18 20 18l107 -3l147 3q12 0 12 -10q0 -11 -13.5 -27t-35.5 -50t-74.5 -108.5l-76 -110t-23.5 -47.5q0 -9 49 -9l49 1q53 0 72 15q15 11 20.5 26.5t7.5 19.5q7 14 17 14q16 0 16 -14q0 -6 -13.5 -37
t-17 -44t-6.5 -21q-6 -22 -18 -22h-114z" />
    <glyph glyph-name="longs" unicode="&#x17f;" horiz-adv-x="239" 
d="M109 -1l-74 -5q-9 0 -12 3t-3 11q0 5 12 10t24.5 18.5t12.5 33.5t-1 45q-4 58 -4 250q0 4 -16 16t-16 20.5t15.5 11.5t17 6.5t1.5 18.5q0 73 24 134.5t60 97.5q74 77 136 77q23 0 38 -7.5t15 -20.5q0 -4 -3.5 -17.5l-4.5 -17.5t-2 -6.5t-2 -5.5t-2 -4.5t-2.5 -3.5
t-2.5 -3q-4 -2 -9 -2t-10 7q-15 19 -62 19q-75 0 -97 -129q-7 -42 -7 -98v-150q0 -26 2.5 -122t3.5 -107t7 -27q10 -33 55 -33q14 0 15 -7q1 -3 1 -8q0 -10 -11 -10z" />
    <glyph glyph-name="florin" unicode="&#x192;" horiz-adv-x="317" 
d="M277 373l-84 3q-12 0 -14.5 -5.5t-2.5 -6.5v-4q-2 -13 -12 -116q-24 -266 -43.5 -312.5t-47.5 -72.5t-46.5 -32t-33.5 -6q-36 0 -36 23q0 13 8 40.5t20.5 27.5t14.5 -15t12.5 -25t18 -10t14 12t11 36t7.5 47.5t6.5 59t6.5 56.5l40 288q0 14 -10 14q-35 0 -48 -1h-13
q-15 0 -20 4t-5 16.5t4.5 17.5t21.5 5q50 -2 72 -2q6 0 7 8q23 156 86 247q57 80 126 80q47 0 47 -36q0 -14 -4 -35.5t-12 -21.5t-33 20.5t-51 20.5q-33 0 -66 -120.5t-33 -152.5q0 -9 12 -9l81 1q19 0 19 -16q0 -28 -20 -28z" />
    <glyph glyph-name="uni0218" unicode="&#x218;" horiz-adv-x="596" 
d="M257 -79q0 3 11 11t17 13q11 11 19 11t19 -5.5t23.5 -20.5t12.5 -35q0 -43 -32 -69.5t-46 -26.5t-14 7q0 3 11 9q31 16 31 46q0 28 -39 46q-13 6 -13 14zM455 689l23 8q13 0 15 -8q21 -121 21 -142.5t-14 -21.5q-9 0 -17.5 21.5t-20 39.5t-16.5 23t-26 24
q-54 48 -123.5 48t-111.5 -30t-42 -78t24.5 -77t65.5 -45t86 -30q121 -38 179 -99q40 -43 40 -107q0 -105 -67 -166.5t-166 -61.5q-69 0 -111 7.5t-86 30.5q-13 8 -31 78t-18 87.5t13.5 17.5t16.5 -10q37 -89 87 -126q54 -41 130.5 -41t122 39.5t45.5 103.5q0 47 -31 78.5
t-71 45.5q-149 50 -202 81q-91 54 -91 145t64.5 144.5t167.5 53.5q38 0 90.5 -16.5t53.5 -16.5z" />
    <glyph glyph-name="uni0219" unicode="&#x219;" horiz-adv-x="393" 
d="M154 -79q0 3 11 11t17 13q11 11 19 11t19 -5.5t23.5 -20.5t12.5 -35q0 -43 -32 -69.5t-46 -26.5t-14 7q0 3 11 9q31 16 31 46q0 28 -39 46q-13 6 -13 14zM328 401l4 -60q0 -17 -4 -23t-11.5 -6t-16 14.5l-19 31.5t-34 31.5t-53.5 14.5t-49 -14.5t-19 -31.5t3 -27.5
t10.5 -18.5l13 -13.5t18.5 -11.5t19.5 -8.5l21.5 -8.5q91 -32 117 -62.5t26 -87.5t-53 -105q-36 -31 -99 -31q-43 0 -96 21q-15 6 -17.5 6.5t-8 2.5t-8 2.5t-6.5 2.5t-5.5 3.5t-3.5 4.5q-3 5 -3 16v87q0 11 4.5 18.5t12.5 7.5t11.5 -4.5t6.5 -18.5t6 -20q37 -92 104 -92
q31 0 59 16.5t28 52t-23 57.5t-56 34.5l-66 26t-56 40t-23 66.5q0 56 45 90t99 34t82 -8.5t33.5 -15.5t5.5 -13z" />
    </font>
</defs>
</svg>
