<?xml version="1.0" encoding="utf-8"?>
<!-- Generator: Adobe Illustrator 21.0.0, SVG Export Plug-In . SVG Version: 6.00 Build 0)  -->
<svg version="1.1" id="Layer_1" xmlns="http://www.w3.org/2000/svg" xmlns:xlink="http://www.w3.org/1999/xlink" x="0px" y="0px"
	 viewBox="0 0 32 32" style="enable-background:new 0 0 32 32;" xml:space="preserve">
<path d="M28.196,24.082c-0.058,0-0.108,0.007-0.165,0.007c-1.168,0.014-1.756,0.014-2.151,0.014c0-0.413,0.021-0.862,0.021-1.275
	v-0.57c0.122,0,1.534-0.007,1.792-0.007c0.201,0,0.258-0.064,0.258-0.178c0-0.142-0.086-0.179-0.28-0.179
	c-0.359,0.014-1.212,0.021-1.348,0.021h-0.415v-0.883c0-0.327,0-0.684,0.007-1.054h0.438c0.538,0,1.255,0.007,1.792,0.007
	c0.129-0.007,0.165-0.086,0.165-0.178c0-0.128-0.05-0.193-0.301-0.193c-0.48,0-1.19,0.014-1.677,0.014h-0.373
	c-0.266,0-0.43,0-0.43,0.22c0,0.634-0.007,1.268-0.007,1.895c0,1.396-0.021,2.002-0.021,2.009c-0.007,0.107-0.014,0.214-0.014,0.313
	c0,0.392,0.1,0.406,0.731,0.406h1.835c0.265,0,0.322-0.072,0.322-0.22C28.375,24.161,28.332,24.083,28.196,24.082L28.196,24.082z"/>
<path d="M21.373,24.488c0.162,0,0.192-0.115,0.192-0.287l-0.015-4.228c0.25-0.014,0.795-0.014,1.045-0.014
	c0.81,0,1.362,0.351,1.362,1.069c0,0.869-0.596,1.148-1.369,1.148h-0.408c-0.101,0-0.184,0.081-0.184,0.179
	c0,0.099,0.082,0.179,0.184,0.179h0.658c0.5,0.682,0.912,1.278,1.339,1.881c0.067,0.072,0.103,0.086,0.184,0.086
	c0.11,0,0.206-0.1,0.206-0.201c0-0.058-0.037-0.093-0.088-0.165c-0.478-0.638-0.839-1.134-1.244-1.701
	c0.662-0.137,1.119-0.653,1.119-1.399c0-0.819-0.552-1.335-1.442-1.414c-0.155-0.015-0.331-0.021-0.508-0.021
	c-0.28,0-0.559,0.007-0.81,0.014c-0.287,0.007-0.427,0.072-0.427,0.309c0,0.258,0.007,0.553,0.007,0.804
	c0,1.644,0.022,2.605-0.015,3.474C21.153,24.388,21.176,24.488,21.373,24.488L21.373,24.488z"/>
<path d="M7.78,22.529c0,1.26,0.643,1.973,1.719,1.973c1.185,0,1.884-0.762,1.877-2.179l-0.007-2.457
	c0-0.179-0.072-0.235-0.193-0.235c-0.107,0-0.193,0.057-0.193,0.193c0,0.72,0.014,2.144,0.014,2.721c0,0.947-0.628,1.581-1.42,1.581
	c-0.87,0-1.42-0.47-1.42-1.581c0-0.67-0.014-1.404,0.007-2.685c0-0.136-0.05-0.206-0.2-0.206c-0.136,0-0.179,0.078-0.179,0.263
	C7.786,20.356,7.779,21.517,7.78,22.529L7.78,22.529z"/>
<path d="M12.07,19.794c0,0.115,0.058,0.187,0.198,0.187c0.771-0.007,1.219-0.007,1.543-0.007c0,0.503,0.007,1.019,0.007,1.522
	l-0.007,2.756c0,0.201,0.058,0.251,0.191,0.251c0.176,0,0.22-0.093,0.22-0.287c-0.015-2.247-0.037-2.972-0.03-3.74v-0.503h1.439
	c0.206,0,0.301-0.029,0.301-0.201c0-0.129-0.073-0.172-0.257-0.172c-0.155,0-1.219,0.014-1.667,0.014
	c-1.255,0-1.506-0.007-1.733-0.007C12.143,19.606,12.07,19.693,12.07,19.794L12.07,19.794z"/>
<path d="M16.673,19.915c0,0.442-0.007,1.603-0.007,2.614c0,1.26,0.672,1.973,1.801,1.973c1.241,0,1.973-0.762,1.965-2.179
	l-0.007-2.457c0-0.178-0.075-0.235-0.202-0.235c-0.112,0-0.202,0.057-0.202,0.193c0,0.72,0.015,2.144,0.015,2.721
	c0,0.948-0.657,1.581-1.487,1.581c-0.912,0-1.487-0.47-1.487-1.581c0-0.67-0.015-1.404,0.007-2.685c0-0.136-0.053-0.206-0.209-0.206
	C16.717,19.651,16.673,19.73,16.673,19.915L16.673,19.915z"/>
<path d="M5.35,22.265c-0.045,0-0.092,0.001-0.138,0.002v-0.001c-0.103,0-0.186-0.094-0.186-0.211s0.083-0.21,0.186-0.21h0.13
	l1.311-0.017c0.137,0,0.189,0.103,0.189,0.231c0,0.12-0.076,0.206-0.212,0.214c-0.364,0-0.925-0.008-1.282-0.008L5.35,22.265z
	 M7.298,19.787c0,0.108-0.059,0.187-0.193,0.194H6.636c-0.23,0-0.878-0.007-1.875-0.007c0,0.388-0.007,0.812-0.007,1.2v1.819
	l0.007,1.229c0,0.165-0.03,0.281-0.201,0.281c-0.186,0-0.216-0.094-0.216-0.288c0-0.137,0.007-0.396,0.007-0.539
	c0-0.316,0.007-0.633,0.007-0.949l0.007-1.898l-0.015-0.92c0-0.173,0.134-0.295,0.29-0.295c0.119,0,0.327,0.007,0.462,0.007
	c0.484,0,0.982-0.007,1.741-0.015c0.082,0,0.171-0.007,0.261-0.007C7.24,19.6,7.299,19.694,7.298,19.787L7.298,19.787z"/>
<path d="M15.223,16.029c-0.153,0-0.713,0.003-1.166,0.006l0,0c-0.094,0-0.169-0.094-0.169-0.211c0-0.117,0.076-0.21,0.169-0.211
	c0.305-0.003,0.871-0.012,1.145-0.025c0.192,0,0.276,0.044,0.276,0.22C15.478,15.949,15.421,16.028,15.223,16.029L15.223,16.029z
	 M15.867,13.331c0,0.094-0.037,0.173-0.169,0.179c-0.55,0-1.283-0.007-1.832-0.007h-0.447c-0.007,0.374-0.007,0.733-0.007,1.064
	l-0.007,1.812c0,0.417-0.022,0.87-0.022,1.287c0.403,0,1.004,0,2.199-0.014c0.058,0,0.11-0.007,0.169-0.007
	c0.139,0,0.183,0.079,0.183,0.173c0,0.151-0.058,0.223-0.33,0.223h-1.877c-0.645,0-0.748-0.014-0.748-0.41
	c0-0.1,0.007-0.208,0.015-0.316c0-0.007,0.022-0.618,0.022-2.027c0-0.633,0.007-1.273,0.007-1.912c0-0.223,0.169-0.223,0.439-0.223
	h0.381c0.499,0,1.224-0.015,1.715-0.015C15.816,13.137,15.867,13.202,15.867,13.331z"/>
<path d="M11.877,18.04c0.122,0,0.193-0.064,0.193-0.186l-0.021-2.208c-0.007-0.865,0-1.444,0-2.251c0-0.171-0.05-0.258-0.193-0.258
	c-0.165,0-0.201,0.093-0.201,0.322c0,0.457,0.014,1.515,0.014,2.037l-0.515,0.007c-0.472,0-0.944,0.007-1.41,0.007
	c-0.68,0.007-0.844,0-0.902,0c-0.007-1.301-0.007-1.636-0.007-2.158c0-0.128-0.079-0.186-0.186-0.186
	c-0.122,0-0.207,0.064-0.215,0.207l0.029,1.779c0.014,0.893-0.014,1.815-0.014,2.702c0,0.122,0.1,0.186,0.201,0.186
	c0.093,0,0.207-0.05,0.207-0.193L8.843,15.89c1.031,0,1.882-0.021,2.819-0.021l0.007,1.25v0.729c0,0.122,0.079,0.193,0.207,0.193
	L11.877,18.04z"/>
<path d="M3.663,13.331c0,0.115,0.058,0.187,0.198,0.187c0.771-0.007,1.219-0.007,1.542-0.007c0,0.503,0.007,1.019,0.007,1.522
	l-0.007,2.756c0,0.201,0.058,0.251,0.191,0.251c0.176,0,0.22-0.093,0.22-0.287c-0.015-2.247-0.037-2.972-0.03-3.739v-0.503h1.44
	c0.206,0,0.301-0.029,0.301-0.201c0-0.129-0.073-0.172-0.257-0.172c-0.155,0-1.219,0.015-1.667,0.015
	c-1.255,0-1.506-0.007-1.733-0.007C3.736,13.146,3.663,13.232,3.663,13.331L3.663,13.331z"/>
<path d="M17.064,6.905c-0.122,0-0.201,0.078-0.201,0.242c0,1.368-0.014,2.758-0.014,4.126c0,0.1-0.007,0.235-0.007,0.335
	c0,0.121,0.086,0.185,0.193,0.185c0.115,0,0.201-0.064,0.201-0.185v-1.411c0.208-0.221,0.517-0.506,0.768-0.784
	c0.452,0.556,1.018,1.254,1.672,2.081c0.043,0.057,0.1,0.135,0.158,0.199c0.058,0.072,0.122,0.107,0.193,0.107
	c0.137,0,0.222-0.1,0.222-0.214c0-0.057-0.029-0.121-0.072-0.164c-0.359-0.406-0.559-0.648-0.754-0.884
	c-0.653-0.784-0.94-1.125-1.176-1.382c0.115-0.114,0.222-0.242,0.337-0.364c0.43-0.463,0.976-1.041,1.442-1.589
	c0.029-0.035,0.043-0.072,0.043-0.107c0-0.107-0.1-0.199-0.208-0.199s-0.137,0.035-0.216,0.128
	c-0.675,0.791-1.751,1.981-2.404,2.665c0-0.777,0.014-1.738,0.014-2.58c0-0.15-0.058-0.206-0.193-0.206L17.064,6.905z"/>
<path d="M14.634,7.266c0.458,0,0.767,0.12,1,0.226c0.09,0.043,0.158,0.078,0.255,0.085c0.128,0.007,0.196-0.092,0.196-0.212
	s-0.151-0.191-0.293-0.255c-0.3-0.128-0.707-0.212-1.097-0.212c-1.187,0-2.397,0.963-2.397,2.547c0,1.457,1.12,2.355,2.322,2.355
	c0.691,0,1.54-0.318,1.54-0.608c0-0.092-0.082-0.191-0.158-0.191c-0.12,0-0.128,0.043-0.225,0.092
	c-0.285,0.191-0.722,0.326-1.112,0.326c-1.195,0-1.954-0.962-1.954-2.016C12.71,8.158,13.664,7.266,14.634,7.266L14.634,7.266z"/>
<path d="M8.799,9.987C9.15,9.134,9.601,7.995,9.816,7.414c0.186,0.466,0.795,2.136,0.96,2.566C10.088,9.994,9.415,9.994,8.799,9.987
	z M11.119,9.837c-0.021-0.058-0.05-0.122-0.072-0.179c-0.315-0.782-0.759-2.035-0.989-2.587c-0.05-0.122-0.108-0.172-0.236-0.172
	S9.622,6.962,9.579,7.07C8.848,8.948,8.748,9.206,8.648,9.443c-0.029,0.05-0.365,0.853-0.795,1.871
	c-0.064,0.137-0.1,0.222-0.1,0.301c0,0.137,0.1,0.179,0.215,0.179c0.151,0,0.172-0.129,0.244-0.301
	c0.1-0.23,0.379-0.982,0.458-1.161h0.767c0.731,0,1.289,0.007,1.482,0.007c0.021,0.072,0.244,0.624,0.473,1.232
	c0.064,0.151,0.086,0.23,0.244,0.23c0.108,0,0.207-0.093,0.207-0.165c0-0.05-0.021-0.1-0.043-0.158
	C11.635,11.077,11.377,10.469,11.119,9.837L11.119,9.837z"/>
<path d="M5.712,9.208c-0.169,0.002-0.36,0.006-0.544,0.008c-0.097,0-0.176,0.076-0.176,0.169c0,0.093,0.079,0.169,0.177,0.169l0,0
	l0.626-0.007c0.718,0,1.33,0.202,1.33,0.935c0,0.684-0.605,0.964-1.36,0.964c-0.423,0-1.051,0-1.217-0.007
	c0,0-0.023-4.044-0.03-4.144C4.76,7.281,5.327,7.273,5.584,7.273c0.627,0,1.209,0.238,1.217,0.856S6.407,9.194,5.712,9.208
	L5.712,9.208z M7.209,8.158C7.201,7.28,6.438,6.899,5.607,6.899c-0.249,0-0.786-0.007-1.126,0.021
	C4.231,6.942,4.118,7.035,4.118,7.179c0,0.165,0.007,0.288,0.007,0.461L4.14,9.619l-0.007,1.813c0,0.202,0.053,0.367,0.302,0.367
	h0.529c0.438,0,0.861,0.014,1.269-0.029c0.786-0.079,1.292-0.547,1.292-1.331c0-0.626-0.401-0.986-1.02-1.137
	C6.906,9.108,7.215,8.719,7.209,8.158L7.209,8.158z"/>
</svg>
