<?xml version="1.0" encoding="utf-8"?>
<!-- Generator: Adobe Illustrator 21.0.0, SVG Export Plug-In . SVG Version: 6.00 Build 0)  -->
<svg version="1.1" id="Layer_1" xmlns="http://www.w3.org/2000/svg" xmlns:xlink="http://www.w3.org/1999/xlink" x="0px" y="0px"
	 viewBox="0 0 1440 341.662" style="enable-background:new 0 0 1440 341.662;" xml:space="preserve">
<style type="text/css">
	.st0{fill:#FFFFFF;}
	.st1{fill-rule:evenodd;clip-rule:evenodd;fill:#FFFFFF;}
</style>
<g>
	<g>
		<rect x="204.089" y="27.28" class="st0" width="11.587" height="54.992"/>
		<rect x="221.948" y="27.28" class="st0" width="11.591" height="54.992"/>
	</g>
	<g>
		<path class="st0" d="M101.007,52.159c-2.701-2.795-6.359-4.453-10.366-4.453c-8.626,0-15.684,7.854-15.684,17.631
			c0,9.686,7.057,17.633,15.684,17.633c4.007,0,7.665-1.658,10.366-4.449v3.577h11.934V27.194h-11.934V52.159z M94.126,72.933
			c-3.748,0-6.797-3.405-6.797-7.507c0-4.189,3.048-7.59,6.797-7.59c3.747,0,6.795,3.401,6.795,7.59
			C100.92,69.528,97.874,72.933,94.126,72.933"/>
		<path class="st0" d="M155.729,53.38c10.277-10.912,2.614-23.484-11.064-23.484h-7.495H124.8v52.199h19.867
			C166.708,82.273,170.453,59.316,155.729,53.38 M144.576,71.62h-7.408V40.459h7.495c4.179,0,4.009,9.343-0.349,9.256h-5.139v10.209
			h5.139C153.9,59.924,154.336,71.62,144.576,71.62"/>
		<path class="st0" d="M54.917,47.356c-9.932,0-17.949,8.117-17.949,17.981c0,9.953,8.016,18.071,17.949,18.071
			c7.756,0,13.941-3.056,16.292-9.167l-9.062-4.801c-2.874,6.023-12.984,4.631-12.287-0.782l22.398-0.266
			C72.259,68.391,74.782,47.356,54.917,47.356 M49.604,61.235C50.04,58.351,51.692,56,55.264,56
			c3.486,0.083,4.704,2.179,5.226,5.235H49.604z"/>
		<path class="st0" d="M22.766,30.159H1.155v51.85h12.459V40.283h6.274c6.272,0,6.013,11.788,0.26,11.788h-5.139v13.352
			l11.589,16.933l14.205-0.17L25.816,60.538C43.763,54.602,38.188,30.159,22.766,30.159"/>
		<path class="st0" d="M188.141,69.263c0,5.152-9.845,5.063-9.845,0V49.101h-11.589V70.75c0,9.256,9.671,13.089,16.815,13.089
			c6.883,0,16.207-3.662,16.207-13.089V49.101h-11.589V69.263z"/>
		<path class="st0" d="M645.858,20.337c-2.041,0-3.693,1.674-3.693,3.754c0,2.075,1.65,3.747,3.693,3.747
			c2.055,0,3.706-1.672,3.706-3.747C649.564,22.011,647.913,20.337,645.858,20.337 M645.858,21.078c1.649,0,2.986,1.347,2.986,3.013
			c0,1.664-1.339,3.017-2.986,3.017c-1.64,0-2.961-1.355-2.961-3.017C642.895,22.424,644.219,21.078,645.858,21.078 M647.745,26.047
			l-0.444-0.782c-0.388-0.683-0.496-0.791-0.822-0.903v-0.025c0.648-0.079,1.034-0.504,1.034-1.085c0-0.62-0.386-1.091-1.21-1.091
			h-1.912v3.886h0.793v-1.592h0.145c0.34,0,0.475,0.039,0.627,0.195c0.154,0.153,0.388,0.488,0.523,0.766l0.309,0.631H647.745z
			 M645.183,23.833v-1.062h0.716c0.523,0,0.789,0.185,0.789,0.531c0,0.272-0.174,0.533-0.702,0.533h-0.802V23.833z"/>
		<path class="st0" d="M626.738,41.805c-0.156,3.998-5.94,19.996-7.996,23.526c-0.891,1.529-1.893,2.793-3.702,2.793
			c-1.578-0.006-2.284-1.135-2.327-2.432c-0.112-3.61,6.42-21.706,8.658-24.648c0.994-1.554,2.097-1.805,3.366-1.789
			C626.594,39.28,626.785,40.637,626.738,41.805 M637.276,48.335c-1.314,6.627-4.269,14.469-7.476,20.314
			c-5.232,9.538-11.591,10.871-17.137,10.804c-5.548-0.068-11.807-2.145-11.851-10.821c-0.033-6.225,2.62-15.022,4.867-20.782
			c3.922-10.447,7.933-18.967,20.604-18.815C641.063,29.215,638.426,42.534,637.276,48.335 M590.348,39.038
			c-2.138,0-3.534,1.374-4.574,2.853c-2.29,3.26-7.256,16.328-8.026,21.695c-0.531,3.683,1.036,4.434,2.747,4.434
			c2.745,0,5.824-2.95,6.876-7.81c0,0-5.228-0.131-3.785-4.83c1.403-4.561,4.055-5.552,8.459-5.729
			c8.674-0.363,7.819,6.14,7.125,9.599c-2.255,11.24-10.152,20.274-21.318,20.274c-7.647,0-12.397-4.285-12.397-12.19
			c0-5.631,2.759-14.473,4.944-19.648c4.649-11.007,9.527-18.716,21.952-18.716c7.455,0,13.335,2.716,12.476,9.794
			c-0.633,5.196-3.199,8.244-7.86,8.611c-1.304,0.106-6.638-0.031-4.865-5.146C592.717,40.442,592.971,39.038,590.348,39.038
			 M551.476,58.519c-0.513,1.399-1.482,4.337-2.261,7.455c2.537-0.641,4.437-1.093,7.7-1.012c3.714,0.091,6.087,1.654,6.087,4.772
			c0,7.542-8.226,9.758-13.937,9.758c-6.27,0-11.78-3.619-11.78-10.564c0-8.148,4.356-20.494,8.446-28.721
			c5.022-10.103,10.152-11.449,18.985-11.449c3.885,0,8.357,1.683,8.357,5.397c0,5.154-4.304,7.115-8.574,7.364
			c-1.823,0.102-4.624,0.208-6.308,0.089c0,0-1.42,2.195-2.931,6.102c7.902-1.127,11.257,0.689,9.924,5.326
			C563.383,59.295,558.028,59.704,551.476,58.519 M526.302,65.756c7.726-1.363,9.675,1.473,9.43,4.096
			c-0.725,7.85-7.838,9.607-14.008,9.458c-4.478-0.104-8.502-2.181-8.614-7.455c-0.199-9.213,9.075-30.53,13.441-37.6
			c2.018-3.353,4.474-5.007,8.388-5.007c3.714,0,4.634,1.93,4.578,4.241C539.372,39.662,529.533,58.424,526.302,65.756
			 M625.714,24.36c-7.983,0-13.495,3.206-17.234,7.688c-0.633-1.34-1.109-1.928-1.782-2.704c-3.056-3.5-7.973-5.14-14.569-5.14
			c-6.442,0-11.815,2.04-15.542,5.256c-1.937-3.193-6.552-5.306-12.119-5.306c-7.275,0-15.2,1.044-19.902,8.723
			c-0.112-2.768-0.361-4.227-1.889-5.874c-1.866-2-4.881-2.519-7.819-2.519c-5.356,0-9.382,2.369-12.278,7.192
			c-4.207,6.808-14.404,29.207-14.174,40.059c0.15,7.003,4.788,12.059,13.09,12.257c6.486,0.151,11.573-1.604,14.814-4.915
			c2.905,3.195,7.335,5.073,12.636,5.073c5.903,0,11.847-1.801,15.355-5.721c2.955,3.679,7.607,5.816,13.588,5.791
			c7.817-0.037,14.687-3.795,19.172-9.557c2.464,6.789,8.706,9.489,15.524,9.489c14.94,0,21.505-10.412,26.972-26.879
			c1.231-3.71,2.875-9.902,3.148-15.105C643.154,33.514,639.543,24.36,625.714,24.36"/>
		<path class="st1" d="M1406.63,226.902c5.998-7.939,14.34-7.978,14.34-7.978s1.241,7.464-4.721,14.653
			c-6.362,7.681-13.597,6.424-13.597,6.424S1401.296,233.961,1406.63,226.902"/>
		<path class="st1" d="M1403.416,245.229c3.089,0,8.817-4.258,16.273-4.258c12.833,0,17.882,9.169,17.882,9.169
			s-9.876,5.071-9.876,17.369c0,13.879,12.305,18.66,12.305,18.66s-8.599,24.3-20.218,24.3c-5.333,0-9.482-3.606-15.104-3.606
			c-5.728,0-11.411,3.739-15.113,3.739c-10.609,0-24.007-23.052-24.007-41.582c0-18.232,11.344-27.794,21.983-27.794
			C1394.455,241.225,1399.822,245.229,1403.416,245.229"/>
		<path class="st1" d="M999.352,20.583c1.381,0.069,2.616,0.583,3.637,1.457c1.379,1.316,1.744,3.507,1.09,5.258
			c-2.544,5.256-8.595,8.769-12.729,9.931c-2.471,0.583-5.599,0.583-7.852-0.291c-1.09,0.656-2.012,2.782-3.345,1.899
			c-1.931-1.515-0.258-3.882-1.374-5.563c-0.231-0.347-0.808-0.371-1.1-0.936c-1.528-3.359,0.365-6.573,2.473-9.13
			C983.666,19.274,993.75,14.884,999.352,20.583 M987.64,23.208c-1.962,0.367-4.181,1.224-5.38,2.631
			c-1.2,1.405-1.964,2.774-1.233,4.235c2.543-1.899,3.779-4.527,6.613-6.134C987.64,23.648,988.076,23.43,987.64,23.208
			 M999.497,23.939c-5.02-0.436-8.801,3.359-12.362,7.011c-0.22,0.585-1.528,1.241-0.509,1.899c4.798,0.436,9.382-0.95,12.872-4.164
			c1.019-0.95,1.744-2.191,1.237-3.503C1000.516,24.671,1000.006,24.161,999.497,23.939"/>
		<path class="st1" d="M1042.987,45.7c2.329,5.694,4.293,14.678,0,20.154c-1.163,1.311-3.198,2.525-4.506,1.533
			c-4.802-3.87-6.837-9.422-9.82-14.385c-0.436-0.222-0.436,0.363-0.654,0.583c-1.09,5.038,0.947,11.611-2.471,15.554
			c-1.312,0.218-2.535-0.457-2.982-1.753c-1.675-5.185,0.069-10.588,0.505-15.772c1.018-2.629,1.458-5.696,3.712-7.667
			c3.637,1.461,5.381,5.55,7.491,8.542c1.528,2.266,2.761,4.822,4.508,6.866c1.526-0.658,0.777-2.66,0.727-3.87
			c-0.581-4.749-1.892-9.13-3.127-13.655c-0.073-1.17-0.729-3.141,0.509-3.868C1040.151,39.421,1041.532,42.853,1042.987,45.7"/>
		<path class="st1" d="M1021.023,43.947c0,1.095-0.872,2.463-1.599,2.629c-6.982,1.095-14.762,0.436-21.308,2.629
			c-0.22,0.803,0.729,0.95,1.235,1.168c5.601,0.876,11.492,1.096,16.948,2.484c2.884,0.735,3.928,4.16,4.142,7.009
			c0.137,2.245-0.725,4.965-2.907,6.499c-5.382,3.43-13.599,3.285-19.055,0.147c-2.087-1.177-4.073-3.067-4.217-5.405
			c0.01-1.855,0.801-3.318,2.107-4.015c5.24-2.119,11.71-0.952,16.219,1.751c0.291,1.459-1.285,1.382-2.037,1.897
			c-5.016,2.922-8.797-3.285-13.451-1.021c-0.656,0.438-1.129,1.662-0.367,2.044c5.745,2.556,12.144,0.73,17.82-0.874
			c0.654-0.218,1.453-0.876,1.526-1.535c-0.22-2.338-2.836-2.849-4.508-3.505c-4.947-1.239-10.4-1.239-15.708-1.753
			c-1.019-0.218-2.317-0.932-2.62-1.753c-0.581-1.753-0.581-4.162,0.727-5.621c6.762-5.99,17.018-5.476,25.601-3.87
			C1020.151,43.071,1020.805,43.293,1021.023,43.947"/>
		<path class="st1" d="M989.242,46.723c0.656,7.009,1.017,13.51,0.872,20.884c-0.145,0.95-1.235,1.168-1.962,1.533
			c-1.167,0.218-2.666-0.031-3.127-0.658c-1.674-2.701-1.092-6.351-1.237-9.636c0.218-5.187,0.145-10.81,1.599-15.628
			c0.278-0.701,1.092-1.316,1.744-0.876C988.88,43.218,989.169,44.97,989.242,46.723"/>
		<path class="st1" d="M1070.043,45.7c0.351,0.591,0.712,1.502,0,1.899c-3.272,1.459-7.711,0.801-11.492,1.239
			c-1.017,0.876-1.815,2.34-1.453,3.65c0.363,0.222,0.687,0.554,1.09,0.513c2.328,0.145,5.817-1.094,7.346,1.095
			c0.374,0.651-0.05,3.087-1.09,3.141c-2.838,0.363-7.505-0.359-8.876,0.363c-1.744,1.17-1.598,3.434-2.254,5.26
			c1.237,0.803,2.533-0.021,4.001-0.222c2.689-0.436,5.672-1.239,8.363-0.654c0.509,0.948,1.237,1.971,0.725,3.137
			c-4.582,3.652-10.495,7.397-16.798,4.749c-2.363-1.066-3.417-4.673-2.62-7.739c0.509-2.193,2.765-4.31,1.381-6.646
			c-0.216-1.023,0.365-1.899,1.239-2.119c2.398,0,1.889-2.992,3.127-4.38c-1.383-1.533-4.873-1.459-4.51-4.528
			c1.675-0.874,3.71-0.583,5.601-0.874c4.29-0.876,9.09-1.388,13.452-0.876C1068.152,42.882,1069.314,44.606,1070.043,45.7"/>
		<path class="st1" d="M966.188,29.05c6.71,5.509,15.418,14.898,14.326,25.706c-1.31,8.542-10.325,14.968-17.963,17.012
			c-7.42,2.189-16.728,1.975-24.291,0.218c-0.511,1.39-1.019,3.067-2.618,3.654c-1.021,0.363-2.329,0.147-3.127-0.511
			c-2.257-2.118-0.438-6.208-3.71-7.52c-6.399-2.702-13.308-8.034-16.581-14.605c-0.436-1.316,0.071-2.629,0.872-3.652
			c5.018-4.017,11.344-5.621,17.674-6.864c0.365,0.145,0.218-0.365,0.507-0.51c0.365-4.382,0.509-8.837,1.893-12.78
			c0.314-0.552,1.09-0.73,1.597-0.365c4.001,3.065,2.113,8.835,3.858,12.997c7.634,0.367,15.272,0.732,21.304,5.04
			c2.037,1.679,2.535,4.886,1.892,6.717c-0.64,1.832-2.763,3.141-4.725,3.285c-1.312,0-3.783,0.129-3.638-0.874
			c0.147-1.006,4.449-2.648,3.129-4.017c-1.9-1.969-11.409-3.141-17.297-3.87c-0.729-0.147-1.395,0.071-1.395,0.874
			c-0.147,5.55-0.583,11.684,0.365,17.016c0.073,0.365,0.507,0.803,0.872,0.876c10.4,1.679,21.381,0.732,29.528-5.258
			c3.779-3.067,5.018-7.376,4.364-12.12c-3.276-13.219-17.02-21.175-28.292-26.289c-10.983-4.818-23.127-7.3-36.148-6.644
			c-2.072,0.151-5.355,0.871-5.38,1.608c-0.025,0.735,3.719,0.504,3.27,1.896c-0.445,1.396-4.252,0.568-5.381,0.22
			c-1.129-0.346-1.019-1.971-0.725-2.994c2.836-5.038,10.752-5.445,14.326-5.623C934.478,11.162,953.606,18.725,966.188,29.05
			 M930.55,48.621c-5.018,0.071-10.327,0.585-14.982,2.336c-0.945,0.367-2.107,1.388-1.379,2.629
			c1.889,2.556,4.592,4.654,7.126,6.134c2.533,1.479,5.892,3.359,8.944,3.797c0.729-4.747,0.729-9.42,0.656-14.311
			C930.623,49.059,930.915,48.766,930.55,48.621"/>
		<path class="st1" d="M1080.881,41.975c-0.22,6.353-6.108,10.298-6.108,16.651c0.214,0.218,0.361,0.51,0.65,0.365
			c4.728-5.185,9.384-12.56,16.292-14.751c1.819-0.145,3.469,1.442,4.148,2.629c2.398,4.818,1.817,11.609-1.53,15.991
			c-3.457,4.303-9.453,8.617-16.29,7.887c-2.836,7.011-4.8,14.385-5.892,22.052c-0.583,1.533-1.962,0.145-2.836-0.147
			c-5.89-4.671-1.053-17.043-0.652-18.62c0.397-1.575,1.974-5.287,3.127-8.399c-2.767-4.963-1.021-10.953,1.233-15.55
			c1.75-3.067,4.148-6.134,6.984-8.472C1080.371,41.61,1080.661,41.684,1080.881,41.975 M1092.587,49.862
			c-0.872-0.145-1.239,1.021-1.964,1.243c-3.345,3.795-6.689,7.592-8.361,12.12c2.251,0.291,4.146-1.17,6.11-1.975
			c3.343-2.116,5.456-5.621,5.234-9.636C1093.461,50.957,1092.88,50.447,1092.587,49.862"/>
		<path class="st1" d="M62.115,278.588v-3.758v-4.218c0-1.305-1.063-2.374-2.363-2.374H40.566c-1.808,0-3.272,1.477-3.272,3.299
			c0,1.818,1.464,3.293,3.272,3.293H53.09v3.33c0,2.612-3.33,4.747-7.401,4.747H16.283c-4.071,0-7.401-2.135-7.401-4.747V259.31
			c0-2.612,3.332-4.747,7.401-4.747h14.139c1.655,0,2.996-1.351,2.996-3.019c0-1.662-1.341-3.011-2.996-3.011H15.374
			C6.918,248.534,0,252.981,0,258.419v20.17c0,5.436,6.918,9.887,15.374,9.887h31.367C55.195,288.475,62.115,284.024,62.115,278.588
			"/>
		<path class="st1" d="M71.257,267.333v11.074c0,5.654,7.927,10.283,17.617,10.283h18.974c9.69,0,17.618-4.629,17.618-10.283
			v-11.074c0-5.656-7.927-10.283-17.618-10.283H88.874C79.184,257.05,71.257,261.677,71.257,267.333 M79.78,278.34v-10.941
			c0-2.61,3.882-4.745,8.626-4.745h19.911c4.744,0,8.626,2.135,8.626,4.745v10.941c0,2.612-3.882,4.749-8.626,4.749H88.406
			C83.662,283.088,79.78,280.951,79.78,278.34"/>
		<path class="st1" d="M134.411,254.727v31.342c0,1.523,1.238,2.768,2.755,2.768h3.677c1.515,0,2.757-1.245,2.757-2.768v-11.568
			h8.043h11.967h15.766c9.964,0,18.117-4.627,18.117-10.283v-5.472c0-5.654-8.153-10.281-18.117-10.281h-27.732h-14.477
			c-1.516,0-2.755,1.243-2.755,2.768V254.727z M143.6,268.239v-14.17h20.01h17.185c4.273,0,7.771,1.984,7.771,4.409v5.351
			c0,2.426-3.498,4.411-7.771,4.411H163.61H143.6z"/>
		<path class="st1" d="M205.18,267.333v7.665v3.409v7.497c0,1.523,1.242,2.768,2.759,2.768h3.006c1.516,0,2.759-1.245,2.759-2.768
			v-7.563v-3.343v-7.602c0-2.606,3.882-4.745,8.626-4.745h6.316c1.545,0,2.797-1.251,2.797-2.799s-1.252-2.801-2.797-2.801h-5.845
			C213.107,257.052,205.18,261.677,205.18,267.333"/>
		<path class="st1" d="M237.478,267.333v11.074c0,5.654,7.929,10.283,17.62,10.283h18.972c9.69,0,17.617-4.629,17.617-10.283
			v-11.074c0-5.656-7.927-10.283-17.617-10.283h-18.972C245.407,257.05,237.478,261.677,237.478,267.333 M246.001,278.34v-10.941
			c0-2.61,3.882-4.745,8.626-4.745h19.911c4.744,0,8.626,2.135,8.626,4.745v10.941c0,2.612-3.882,4.749-8.626,4.749h-19.911
			C249.883,283.088,246.001,280.951,246.001,278.34"/>
		<rect x="123.899" y="299.43" class="st1" width="35.779" height="26.364"/>
		<rect x="168.014" y="299.43" class="st1" width="35.775" height="26.364"/>
		<rect x="211.343" y="299.43" class="st1" width="35.777" height="26.364"/>
		<rect x="255.458" y="299.43" class="st1" width="35.779" height="26.364"/>
		<path class="st0" d="M482.898,245.564c2.06,1.191,4.246,2.729,5.909,4.355l-0.652,0.662c-3.286-0.351-6.743,0.085-9.856,0.135
			c-0.347-0.355-1.046-0.884-0.396-1.326L482.898,245.564z M540.971,286.527c0.042,1.486,0.183,2.764-0.397,4.289
			c-5.998,1.714-9.941-4.666-15.762-3.702l0.658,3.307c5.386,0.176,8.751,5.362,14.313,5.14c-0.787,1.585,0.357,5.762-3.146,4.092
			c-3.637-0.878-6.264-4.092-10.248-4.092c-0.482,0.884-0.175,2.112-0.26,3.16c4.202,0.664,7.225,4.227,11.427,4.886
			c-0.396,1.452-0.787,3.075-1.972,3.961c-3.417-0.838-6.089-3.917-9.727-3.83l-0.648,3.034c3.459,0.089,5.693,3.162,8.801,4.083
			c0.085,1.28-1.053,2.424-1.711,3.569c-2.759-0.832-4.864-3.212-8.016-3.036c-0.042-1.195,0.662-2.548,0.397-3.82
			c-3.54,1.054-5.915-2.249-8.541-4.229c-0.075-6.484-6.874-10.736-7.233-16.811c-0.07-1.212,0.114-2.504,0.664-3.893
			c2.234-5.187,1.532-11.921-0.916-16.759c-0.745-1.272-2.064-2.276-3.295-3.025c1.8,3.828,3.991,8.347,2.899,13.053
			c-0.127,3.633-2.263,7.123-2.288,10.624c-0.006,1.249,0.258,2.496,0.972,3.76c2.849,5.148,7.973,10.024,6.048,16.485
			c-0.53,1.982-2.107,3.517-2.502,5.538c3.334,2.77,6.484,5.893,10.906,6.067c1.574-1.011,0.698-5.49,3.939-3.422l4.734,2.376
			c-0.347,1.272-1.406,2.413-2.367,3.287c-1.796-0.876-3.546-1.928-5.786-1.843c-0.662,0.705-1.229,1.492-1.179,2.504
			c1.576,0.257,3.021,0.925,4.337,1.851c-0.61,1.32-1.802,2.148-2.896,3.16l-3.673-1.316c-0.612,0.88-1.885,1.805-1.437,2.77
			c0.83,0.361,1.746,0.84,2.358,1.457c-1.621,1.758-3.675,2.89-5.651,4.083c-1.703-5.584-7.31-9.505-6.827-15.96l-0.264-0.266
			c-1.318,1.488-0.876,3.87-0.791,5.802c1.578,4.044,5.342,7.171,5.911,11.609c-0.658,1.139-2.143,1.369-3.284,1.851
			c0.131-7.999-11.953-14.066-4.204-22.156c2.587-3.965,6.916-7.748,5.382-13.201c-1.576-5.268-7.15-8.53-7.099-14.435l0.008-0.461
			c1.271-6.158,5.126-12.711,1.97-19.26c-0.876-2.633-2.84-5.627-5.512-6.731c3.982,4.581,5.562,12.047,3.281,18.205
			c-1.148,2.451-2.728,5.368-2.886,8.248h-0.012c-0.085,1.506,0.224,3.002,1.188,4.42c3.023,4.924,8.276,10.333,5.255,16.755
			c-3.417,5.142-9.37,10.375-6.046,17.147c2.412,4.046,6.135,8.082,5.132,13.053l-3.943,1.316
			c2.628-9.271-10.248-14.722-4.858-24.001c3.328-4.967,9.28-9.626,5.911-16.222c-2.014-4.086-6.177-6.503-6.046-11.609l0.143-0.859
			c1.358-7.239,6.839-14.093,3.006-21.834c-1.007-2.284-3.021-4.613-5.253-5.934l-0.137,0.137c4.47,4.353,5.83,11.514,3.42,17.27
			c-1.125,3.376-3.592,6.742-4.094,10.364c-0.239,1.704-0.037,3.474,0.945,5.335c2.846,4.528,7.837,9.325,4.723,15.176
			c-3.282,4.832-8.755,9.536-6.569,15.819c2.41,5.497,7.441,10.732,4.723,17.552l-4.067,0.923
			c3.241-6.642-1.619-13.234-4.462-18.998c-3.461-8.267,7.437-12.225,7.613-19.782c-0.042-4.88-5.209-7.648-6.299-12.134
			c-2.236-1.892-4.553,0.755-7.223,0.261c-1.975,0.4-5.004-2.724-6.183,0.66c-1.404,4.969-7.792,8.619-4.983,14.508
			c2.67,5.237,9.1,9.063,6.955,15.836c-1.925,6.329-8.278,12.352-4.337,19.648c-1.619-0.525-4.642,0.481-4.597-2.118
			c-2.496-8.835,8.143-13.983,4.856-22.816c-1.528-5.409-8.496-8.397-6.965-14.906c1.136-5.355,7.121-9.099,6.282-14.966
			c-0.068-0.494-0.189-0.996-0.361-1.523c-2.232-6.328-6.791-12.661-4.074-20.05c0.747-2.114,2.236-3.915,3.544-5.801
			c-4.335,2.33-6.521,7.258-6.432,12.267c-0.189,5.451,3.82,10.119,4.391,15.107c0.224,2.011-0.104,4.071-1.503,6.258
			c-2.844,3.876-6.565,7.961-4.86,13.06c1.622,5.148,8.016,8.267,7.622,14.248c-0.044,7.078-8.232,11.481-5.911,19.396l-4.076-1.328
			c-1.619-7.032,5.826-10.63,5.909-17.135c1.053-7.484-8.452-10.261-7.881-17.554c-0.041-5.542,4.819-9.053,6.965-13.713
			c0.368-1.135,0.492-2.204,0.442-3.231c-0.264-5.154-4.887-9.186-4.121-14.981c0.257-4.266,1.704-8.003,4.464-11.211
			c-3.81,1.536-5.382,5.938-6.432,9.632c-1.829,5.926,2.529,11.25,2.967,16.56c0.193,2.341-0.376,4.671-2.572,7.053
			c-3.156,3.731-6.357,8.441-4.078,13.458c2.411,5.538,9.989,9.845,6.702,16.747c-1.792,4.355-6.087,7.652-5.909,12.792
			c-1.136-0.481-2.319-0.965-3.283-1.841c0-6.549,9.28-10.64,4.858-17.543c-0.392,1.359-0.477,3.21-0.783,4.75
			c-1.534,4.001-4.817,7.208-6.044,11.344c-2.057-0.795-4.204-2.469-5.915-4.225l2.369-1.454c-0.262-0.884-0.963-1.631-1.576-2.378
			c-1.536-0.216-2.545,0.795-3.814,1.195c-1.094-0.969-2.151-1.849-3.021-3.036c0.785-2.249,6.924-0.39,3.816-4.085
			c-2.101-1.318-4.209,0.566-6.048,1.446l-2.495-3.162c2.149-1.318,4.289-3.168,6.957-2.639c0.66,1.187,0.704,2.94,1.97,3.561
			c4.512-0.091,7.709-3.515,11.168-6.198c-2.411-3.602-4.374-8.572-2.232-12.927c1.715-4.364,6.185-8.04,6.388-12.863
			c0.046-1.1-0.125-2.253-0.602-3.496c-2.365-6.111-3.198-14.375,1.312-19.786c-2.452,0.664-3.897,3.733-4.733,6.061
			c-2.712,5.968,0.72,11.501,0.837,17.22c0.017,1.029-0.068,2.058-0.316,3.096c-2.319,4.706-6.085,8.833-6.694,14.248
			c-2.672,1.71-4.864,4.702-8.674,3.695c-0.131,1.008,0.174,2.548,0.523,3.695c-3.019-0.129-5.078,2.104-7.622,3.162
			c-1.352-0.436-1.705-2.197-2.23-3.424c2.977-1.01,5.124-4.003,8.541-3.959c0.394-1.104-0.222-2.116-0.396-3.171
			c-4.25-1.892-10.989,9.366-11.556-0.394c4.248-0.264,6.962-4.223,11.168-4.619l0.125-3.16c-4.773-0.481-7.844,4.444-12.615,3.957
			l-1.051-4.218c5.517,0.347,8.807-4.621,14.064-4.886c0.696-0.925,0.781-2.287,0.918-3.561c-5.739-0.753-9.675,5.635-15.764,3.695
			c0,0-0.212-2.656-0.324-4.154h0.008c-0.041-0.589-0.081-0.994-0.081-0.994c5.429,2.116,10.202-1.803,14.845-3.824
			c1.181-0.353,3.025,0.263,3.554-1.054c-0.046-1.013,1.792-2.195,0.261-2.899c-6.791-0.928-11.299,7.298-18.264,3.556l-0.523-1.054
			c1.449-19.872,12.609-39.085,31.132-48.539c7.501-4.303,16.819-6.497,26.218-6.575c11.344-0.095,22.803,2.893,31.33,8.951
			c8.278,5.1,16.198,13.504,20.498,22.034c4.111,7.476,6,15.859,6.567,24.787c-7.185,5.451-12.004-5.133-19.319-2.762
			c0.396,1.145,0.612,2.33,1.449,3.297c6.482-0.048,10.948,6.77,17.735,4.083L540.971,286.527z M458.453,262.057
			c-4.551-2.994-10.329-0.18-14.573,1.453c-0.393-4.003-2.012-7.654-5.388-10.288c-0.33-0.164-0.781-0.512-1.188-0.537
			c-0.243-0.012-0.479,0.083-0.658,0.398c1.532,9.453-4.588,16.047-8.925,23.218c1.443,1.183,3.762,1.006,5.514,0.66
			c4.597-1.847,8.977-5.059,14.452-3.957c1.619-2.772,4.337-5.453,6.569-7.652c1.364-1.183,3.233-1.936,4.202-3.295H458.453z
			 M472.384,267.988c-0.087,0.571,0.044,1.585,0.917,1.193c1.36-1.89,3.768-0.396,5.255-0.263v-0.533
			c-0.816-1.288-2.495-1.934-4.2-1.869c-0.396,0.014-0.795,0.07-1.181,0.162C472.604,266.805,472.206,267.33,472.384,267.988
			 M493.796,262.325c-1.223-2.728-4.024-3.83-6.567-4.49c-1.248-0.152-2.541-0.257-3.824-0.27c-0.243-0.002-0.482-0.004-0.721,0
			c-3.59,0.071-7.019,0.996-9.114,3.965c-0.301,0.836-1.622,2.013-0.397,2.762c2.761-0.176,5.909-0.521,7.748,1.853
			c0,2.114,1.358,4.924-0.916,5.938c-1.887-1.755-4.119,0.747-6.173-0.662c-0.965-0.571-1.574,0.097-1.97,0.932
			c-0.571,5.449,2.271,11.464,7.35,14.5c2.058,0.743,4.827,1.45,6.974,0.394c5.168-2.417,7.308-7.953,8.271-13.053
			c-0.129-0.973-0.083-2.861-1.441-2.909c-1.53,0.973-3.766,0.398-5.388,0c-0.961,0.311-1.003,1.724-2.097,1.988l-0.666-0.533
			c-0.571-2.415-0.922-5.847,1.314-7.517c2.498-1.011,5.433-1.453,8.016-0.66C494.674,263.728,493.933,263.074,493.796,262.325
			 M491.159,266.66c-0.174,0.006-0.341,0.012-0.511,0.019c-0.918,0.614-3.592,0.172-2.626,2.239
			c1.665-1.322,3.986-0.396,5.649,0.263c0.615-0.307,0.482-0.923,0.523-1.455C493.657,266.73,492.382,266.635,491.159,266.66
			 M510.227,248.072c-3.243-0.172-5.957,1.674-8.934,2.509c-0.26-2.546,1.665-5.231,2.105-7.787
			c-4.817,0.311-8.629,3.22-12.613,5.546c-0.922-2.235-1.846-4.486-2.763-6.729l5.257-5.013l0.133-0.66l-7.099-0.398
			c-1.223-2.152-1.704-4.741-3.15-6.721c-1.181,2.243-1.975,4.619-3.156,6.854l-7.09,0.4v0.525l5.38,4.878
			c-0.658,2.507-1.269,5.233-2.89,7.125c-3.15-1.894-6.26-3.957-9.716-5.274c-0.834-0.27-2.016-0.706-2.761-0.135
			c1.094,2.419,2.624,5.023,2.365,7.659c-1.445-0.266-2.583-1.197-3.941-1.587c-1.623-0.448-3.552-1.316-5.128-0.788
			c2.629,3.693,4.773,7.555,5.513,11.997c8.72-4.227,18.887-6.549,29.442-4.745c4.948,0.793,9.495,2.814,13.919,4.48
			C505.273,255.552,508.207,251.811,510.227,248.072 M525.2,273.399c4.462,1.187,8.94,6.069,13.665,2.901
			c-4.115-6.858-10.24-13.192-8.537-22.158c0.177-0.616-0.216-1.232-0.783-1.318c-2.67,1.093-4.74,3.735-5.795,6.333
			c-0.434,1.535-0.693,3.168-1.304,4.613c-3.199-1.674-6.613-3.293-10.51-2.901c-1.403,0.176-3.421,0.27-3.677,1.718
			c4.422,2.374,8.06,6.335,10.769,10.549C520.913,272.832,523.228,273.096,525.2,273.399 M478.43,279.597l0.125,0.793
			c1.711,1.147,2.24,3.087,4.607,2.911c2.101,0.124,3.677-1.851,4.723-3.434c-2.842-0.396-6.301,0.216-9.455-0.268V279.597z
			 M480.795,276.038c0.087,0.353-0.216,0.882,0.262,1.06c1.401-0.307,3.94,0.747,4.721-0.925c-0.544-0.614-1.437-0.894-2.373-0.894
			C482.468,275.279,481.497,275.551,480.795,276.038"/>
		<polygon class="st0" points="522.411,341.662 522.411,333.818 519.621,333.818 519.621,332.221 527.093,332.221 527.093,333.818 
			524.309,333.818 524.309,341.662 		"/>
		<polygon class="st0" points="528.299,341.662 528.299,332.221 531.141,332.221 532.846,338.659 534.534,332.221 537.382,332.221 
			537.382,341.662 535.619,341.662 535.619,334.231 533.753,341.662 531.922,341.662 530.063,334.231 530.063,341.662 		"/>
		<path class="st0" d="M1420.892,41.028c-2.46,0-4.385,0.463-5.77,1.315c-1.383-0.89-3.307-1.315-5.766-1.315
			c-5.925,0-8.691,2.548-8.691,7.49v12.9h5.805V49.292c0-1.853,1.194-2.589,2.845-2.702c1.653,0.114,2.848,0.849,2.848,2.702v12.126
			h5.807V49.292c0-1.853,1.194-2.589,2.848-2.702c1.651,0.114,2.846,0.849,2.846,2.702v12.126h5.805v-12.9
			C1429.585,43.576,1426.815,41.028,1420.892,41.028"/>
		<path class="st0" d="M1181.208,39.947l1.231-5.714c0,0-4.153-1.855-8.153-1.855c-7.809,0-10.539,4.749-10.807,8.377
			c-0.347,4.637,2.612,7.069,5.805,8.111c5.386,1.776,7.923,2.278,7.653,4.131c-0.191,1.392-1.074,2.743-4.346,2.743
			c-4.304,0-7.995-2.009-7.995-2.009l-1.235,5.756c0,0,4.885,2.046,9.349,2.046c6.881,0,10.727-4.173,10.727-9.152
			c0-4.403-3.421-6.565-6.423-7.453c-5.575-1.701-7.308-2.009-7.188-4.133c0.075-1.699,1.883-2.432,4.729-2.357
			C1177.823,38.48,1181.208,39.947,1181.208,39.947"/>
		<path class="st0" d="M1328.318,45.816l1.038-5.059c0,0-3.5-0.849-6.575-0.849c-6.04,0-8.271,3.245-8.464,6.063
			c-0.268,3.592,2.116,5.598,4.578,6.41c4.194,1.351,5.689,1.853,5.5,2.859c-0.118,0.618-0.731,1.197-3.27,1.197
			c-3.347,0-5.845-1.085-5.845-1.085l-0.922,4.907c0,0,3.768,1.197,7.231,1.197c5.539,0,8.65-2.857,8.65-6.719
			c0-3.397-1.962-5.096-5.112-6.024c-3.77-1.081-5.193-1.544-4.964-2.548c0.27-1.081,1.269-1.467,3.577-1.351
			C1326.32,45.006,1328.318,45.816,1328.318,45.816"/>
		<path class="st0" d="M1205.939,50.644c0,5.947-4.117,10.736-10.578,10.736s-10.576-4.828-10.576-10.736
			s4.115-10.736,10.576-10.736S1205.939,44.696,1205.939,50.644 M1195.361,45.43c-2.884,0-4.694,2.316-4.694,5.214
			c0,2.895,1.81,5.212,4.694,5.212c2.884,0,4.692-2.316,4.692-5.212C1200.055,47.746,1198.206,45.43,1195.361,45.43"/>
		<path class="st0" d="M1398.738,50.644c0,5.947-4.113,10.736-10.574,10.736c-6.465,0-10.578-4.828-10.578-10.736
			s4.113-10.736,10.578-10.736C1394.625,39.907,1398.738,44.696,1398.738,50.644 M1388.124,45.43c-2.884,0-4.692,2.316-4.692,5.214
			c0,2.895,1.807,5.212,4.692,5.212c2.886,0,4.692-2.316,4.692-5.212C1392.816,47.746,1391.01,45.43,1388.124,45.43"/>
		<path class="st0" d="M1213.323,53.153V41.029h-5.809v12.898c0,4.94,3.425,7.49,9.347,7.49c4.846,0,9.114-1.465,9.114-1.465V41.029
			h-5.807v14.52c-0.423,0.191-2.423,0.463-3.961,0.344C1214.513,55.739,1213.323,55.008,1213.323,53.153"/>
		<path class="st0" d="M1254.13,39.947c-1.696,0-3.735,0.579-4.887,0.927V31.22h-5.807v30.196h5.807V46.28
			c0.615-0.232,2.427-0.851,3.847-0.772c2.039,0.075,2.846,0.734,2.846,2.625v13.282h5.809V47.477
			C1261.783,42.495,1259.476,39.947,1254.13,39.947"/>
		<path class="st0" d="M1241.436,55.779c-3.999,0.886-4.806,0-4.806-2.085v-7.955h4.806v-4.75h-4.806v-5.868h-5.807v5.868h-2.964
			v4.75h2.964v7.955c0,5.909,2.267,9.383,11.228,6.835L1241.436,55.779z"/>
		<path class="st0" d="M1344.24,55.779c-3.999,0.886-4.806,0-4.806-2.085v-7.955h4.806v-4.75h-4.806v-5.868h-5.807v5.868h-2.961
			v4.75h2.961v7.955c0,5.909,2.269,9.383,11.228,6.835L1344.24,55.779z"/>
		<polygon class="st0" points="1288.167,41.028 1284.509,52.342 1280.818,41.028 1275.667,41.028 1271.973,52.342 1268.319,41.028 
			1262.051,41.028 1269.204,61.418 1274.548,61.418 1278.243,50.336 1281.935,61.418 1287.242,61.418 1294.435,41.028 		"/>
		<path class="st0" d="M1312.09,59.487c0,0-3.58,1.894-7.887,1.894c-7.692,0-10.578-4.828-10.578-10.736
			c0-6.102,3.964-10.736,10.578-10.736c6.191,0,9.229,4.866,8.959,10.736c-0.037,0.695-0.075,1.349-0.189,2.008h-13.155
			c0.193,1.235,1.117,3.59,4.887,3.59c3.883,0,6.42-1.506,6.42-1.506L1312.09,59.487z M1307.165,48.752
			c-0.23-2.357-1.385-4.094-3.498-4.094c-1.925,0-3.307,1.737-3.733,4.094H1307.165z"/>
		<path class="st0" d="M1356.124,52.342c-1.156-2.241-4.229-1.814-5.267-0.965c-1.001-0.811-4.117-1.276-5.27,0.965
			c-1.308,2.587,0.536,6.063,5.27,9.192C1355.547,58.405,1357.392,54.929,1356.124,52.342"/>
		<path class="st0" d="M1356.164,54.735c0.152-0.809,0.041-1.583-0.309-2.276c-0.654-1.315-1.958-1.508-2.691-1.508
			c-0.768,0-1.54,0.272-2.001,0.542C1353.436,52.728,1355.703,54.39,1356.164,54.735"/>
		<path class="st0" d="M1345.51,53.422c-0.422,2.357,1.539,5.216,5.346,7.762c0.806-0.54,1.501-1.081,2.155-1.621
			C1352.281,58.945,1348.28,55.588,1345.51,53.422"/>
		<path class="st0" d="M1353.509,59.023c1.233-1.197,2.078-2.396,2.46-3.554c-0.496-0.425-2.728-2.353-5.153-3.783
			c-0.498-0.309-1.19-0.735-2.306-0.735c-0.731,0-2.037,0.195-2.693,1.509c-0.116,0.193-0.191,0.423-0.229,0.656
			C1348.51,55.083,1352.778,58.444,1353.509,59.023"/>
		<path class="st0" d="M1368.854,55.857c-2.884,0-4.692-2.316-4.692-5.214c0-2.895,1.808-5.212,4.692-5.212
			c3.191,0,4.655,1.658,4.655,1.658l2.655-4.596c-1.54-1.465-4.119-2.587-7.35-2.587c-6.459,0-10.574,4.828-10.574,10.736
			c0,5.947,4.115,10.736,10.574,10.736c3.195,0,5.772-1.121,7.35-2.59l-2.655-4.594
			C1373.548,54.195,1372.045,55.857,1368.854,55.857"/>
		<path class="st0" d="M764.164,269.476c0-6.127-12.544-10.285-16.576-1.177c-3.135-7.086-13.047-6.853-15.748,0.054l0.002-3.615
			c0-0.548-0.498-1.052-1.046-1.052h-5.628c-0.546,0-1.046,0.504-1.046,1.052v30.566c0,0.548,0.5,1.052,1.046,1.052h6.05
			c0.546,0,1.028-0.504,1.028-1.052v-19.382c0-2.189,0.922-4.658,3.228-5.171c2.539-0.566,4.609,0.844,4.609,3.789l-0.002,20.764
			c0,0.548,0.498,1.052,1.046,1.052h6.15c0.548,0,1.046-0.504,1.046-1.052l0.002-20.594c0-4.671,7.74-5.878,7.74,0v20.594
			c0,0.548,0.498,1.052,1.044,1.052h6.012c0.546,0,1.044-0.504,1.044-1.052V269.476z"/>
		<path class="st0" d="M824.314,264.788c0-0.548-0.497-1.046-1.045-1.046h-19.896c-0.276,0-0.548,0.114-0.743,0.307
			c-0.195,0.201-0.282,0.471-0.282,0.749v4.245c0,0.542,0.531,1.031,1.073,1.031h10.46l-11.917,17.519
			c-0.681,1-0.563,1.621-0.563,1.83l0.01,4.87c0,1.046,0.386,1.511,1.58,1.008c7.287-3.092,15.05-3.278,20.901,0.237
			c0.478,0.29,1.059-0.021,1.059-0.844l0.002-5.47c0-0.353-0.193-0.701-0.492-0.884c-3.38-2.143-7.68-2.712-11.849-2.65
			l11.141-15.547c0.533-0.745,0.561-1.542,0.561-1.759V264.788z"/>
		<path class="st0" d="M846.03,280.061c0,5.924-0.21,10.721-4.651,10.721c-4.231,0-4.655-4.797-4.655-10.721
			s0.355-10.796,4.655-10.729C845.538,269.402,846.03,274.137,846.03,280.061 M854.987,279.955
			c-0.004-9.746-5.703-17.153-13.609-17.062c-7.95,0.095-13.618,7.582-13.607,17.129c0.012,9.79,5.792,17.278,13.749,17.064
			C849.44,296.87,854.991,289.421,854.987,279.955"/>
		<path class="st0" d="M883.924,271.742c0-4.845-2.921-8.85-9.76-8.636c-3.171,0.097-5.645,2.521-7.02,5.947v-4.407
			c0-0.552-0.498-1.048-1.044-1.048h-5.838c-0.546,0-1.046,0.496-1.046,1.048v30.686c0,0.548,0.5,1.044,1.046,1.044h6.104
			c0.55,0,1.044-0.496,1.044-1.044v-19.274c0-2.87,2.45-5.291,4.711-5.382c1.862-0.068,3.726,1.731,3.726,3.756v20.899
			c0,0.548,0.496,1.044,1.043,1.044h5.99c0.548,0,1.046-0.496,1.044-1.044V271.742z"/>
		<path class="st0" d="M787.02,280.515v3.971c0,3.085-2.035,5.708-3.72,6.216c-3.32,1.004-5.471-1.585-5.392-4.343
			c0.104-3.486,3.158-5.615,5.735-5.714L787.02,280.515z M795.237,271.093c0-5.156-4.441-8.439-13.049-8.134
			c-5.257,0.185-10.256,2.145-11.546,8.52c-0.056,0.288,0.01,0.593,0.179,0.83c0.17,0.234,0.442,0.392,0.727,0.423l5.361,0.618
			c0.513,0.056,1.04-0.328,1.142-0.834c0.388-2.009,1.904-3.496,4.136-3.496c3.322,0,4.759,1.718,4.759,3.992v2.982l-6.621,0.506
			c-5.602,0.429-10.813,4.096-10.923,11.12c-0.102,6.468,4.177,9.547,10.016,9.25c3.478-0.183,6.511-1.677,8.809-4.251l3.305,3.698
			c0.187,0.205,0.459,0.334,0.739,0.344c0.278,0.012,0.559-0.097,0.76-0.29l4.304-4.129c0.359-0.349,0.419-0.967,0.123-1.372
			l-1.58-2.089c-0.322-0.427-0.642-2.312-0.642-3.388V271.093z"/>
		<path class="st0" d="M708.728,280.51v3.969c0,3.081-2.037,5.706-3.719,6.214c-3.318,1.006-5.473-1.585-5.39-4.343
			c0.1-3.486,3.158-5.611,5.736-5.712L708.728,280.51z M716.945,271.082c0-5.156-4.443-8.437-13.049-8.132
			c-5.255,0.183-10.256,2.143-11.545,8.524c-0.06,0.282,0.01,0.591,0.178,0.826c0.172,0.234,0.44,0.398,0.727,0.429l5.361,0.612
			c0.515,0.06,1.038-0.322,1.142-0.834c0.386-2.009,1.906-3.49,4.136-3.49c3.322,0,4.761,1.712,4.761,3.988v2.982l-6.623,0.506
			c-5.6,0.427-10.813,4.096-10.925,11.118c-0.098,6.47,4.181,9.553,10.017,9.248c3.478-0.18,6.511-1.672,8.811-4.247l3.307,3.695
			c0.187,0.208,0.457,0.336,0.737,0.349c0.28,0.01,0.559-0.095,0.762-0.288l4.3-4.135c0.361-0.344,0.419-0.965,0.125-1.372
			l-1.58-2.085c-0.32-0.43-0.642-2.318-0.642-3.392V271.082z"/>
		<path class="st0" d="M893.511,294.084c0-1.631-1.318-2.951-2.938-2.951c-1.626,0-2.94,1.32-2.94,2.951s1.314,2.948,2.94,2.948
			C892.193,297.031,893.511,295.715,893.511,294.084"/>
		<path class="st0" d="M916.841,274.715c0.179,0,0.359-0.073,0.48-0.208c0.121-0.129,0.187-0.315,0.172-0.49
			c-0.436-6.156-4.325-11.259-11.461-11.124c-8.6,0.164-11.799,9.482-11.913,16.709c-0.125,7.822,2.606,16.988,11.913,17.485
			c6.681,0.355,11.162-5.434,11.471-11.561c0.01-0.174-0.058-0.357-0.175-0.483c-0.122-0.131-0.295-0.218-0.473-0.218h-3.052
			c-0.313,0-0.606,0.235-0.65,0.548c-0.575,3.917-3.527,7.424-6.554,7.468c-5.5,0.068-7.462-7.652-7.545-12.958
			c-0.071-4.461,1.974-12.599,7.333-12.674c3.966-0.05,6.264,3.09,6.769,6.938c0.039,0.311,0.334,0.569,0.646,0.569H916.841z"/>
		<path class="st0" d="M953.608,294.084c0-1.631-1.318-2.951-2.938-2.951c-1.626,0-2.94,1.32-2.94,2.951s1.314,2.948,2.94,2.948
			C952.291,297.031,953.608,295.715,953.608,294.084"/>
		<path class="st0" d="M941.023,279.999c0,7.167-2.265,12.983-7.617,12.983c-5.284-0.342-7.619-5.816-7.619-12.983
			c0-7.173,2.473-13.06,7.619-12.995C938.485,267.076,941.023,272.826,941.023,279.999 M946.444,279.961
			c0-9.474-4.53-17.085-13.003-17.155c-8.408,0.07-12.868,7.474-12.868,16.952c-0.069,10.537,3.843,16.879,12.764,17.292
			C941.093,297.119,946.444,290.435,946.444,279.961"/>
		<path class="st0" d="M979.04,264.288c0-0.338-0.313-0.652-0.652-0.652h-3.432c-0.34,0-0.652,0.315-0.652,0.652v19.324
			c0,1.791-1.715,8.337-7.067,9.097c-4.499,0.635-5.992-4.552-5.992-7.791v-20.631c0-0.338-0.309-0.652-0.654-0.652h-3.615
			c-0.34,0-0.65,0.315-0.65,0.652v21.393c0,5.992,3.218,11.52,9.332,11.574c4.026,0.033,7.155-2.257,8.953-5.582v4.059
			c0,0.346,0.311,0.658,0.65,0.658h3.127c0.34,0,0.652-0.313,0.652-0.658V264.288z"/>
		<path class="st0" d="M1006.486,265.225c0.508-0.664,1.03-1.455-0.137-1.455l-3.668-0.006c-0.195,0-0.386,0.104-0.503,0.253
			l-12.366,15.965v-27.264c0-0.346-0.309-0.658-0.652-0.658h-3.567c-0.345,0-0.652,0.313-0.652,0.658v43.028
			c0,0.344,0.307,0.656,0.652,0.656h3.615c0.343,0,0.656-0.313,0.656-0.656v-9.165c0-0.147,0.046-0.288,0.133-0.405l5.647-7.372
			l7.788,17.216c0.102,0.226,0.345,0.382,0.594,0.382h3.889c0.22,0,0.438-0.118,0.556-0.307c0.116-0.189,0.129-0.44,0.031-0.637
			l-9.7-20.189L1006.486,265.225z"/>
		<path class="st0" d="M1014.035,265.746c0,0.089-0.019,0.166-0.048,0.235c-0.039,0.07-0.087,0.137-0.16,0.193
			c-0.071,0.052-0.162,0.095-0.27,0.125c-0.104,0.029-0.23,0.039-0.376,0.039h-0.54v-1.187h0.465c0.112,0,0.199,0.004,0.27,0.008
			c0.066,0.006,0.125,0.021,0.178,0.031c0.174,0.039,0.299,0.108,0.372,0.205C1013.997,265.485,1014.035,265.607,1014.035,265.746
			 M1014.872,268.224c0-0.015-0.01-0.035-0.015-0.06c-0.01-0.029-0.027-0.077-0.054-0.141l-0.376-0.778
			c-0.05-0.089-0.09-0.166-0.131-0.239c-0.046-0.068-0.093-0.131-0.135-0.189c-0.05-0.05-0.106-0.096-0.16-0.137
			c-0.056-0.041-0.12-0.071-0.187-0.096c0.122-0.037,0.232-0.083,0.334-0.135c0.1-0.048,0.185-0.114,0.255-0.187
			c0.072-0.069,0.124-0.152,0.162-0.243c0.039-0.097,0.06-0.205,0.06-0.324c0-0.12-0.025-0.23-0.064-0.33
			c-0.043-0.1-0.104-0.191-0.189-0.268c-0.087-0.075-0.187-0.143-0.311-0.193c-0.125-0.052-0.272-0.089-0.432-0.114
			c-0.052-0.006-0.114-0.006-0.187-0.015c-0.071-0.006-0.162-0.01-0.264-0.01h-0.887c-0.052,0-0.1,0.019-0.143,0.042
			c-0.044,0.031-0.062,0.081-0.062,0.152v3.266c0,0.014,0.004,0.029,0.013,0.039c0.004,0.01,0.017,0.017,0.043,0.023
			c0.019,0.006,0.046,0.012,0.087,0.015c0.033,0.004,0.077,0.004,0.133,0.004c0.058,0,0.098,0,0.135-0.004
			c0.035-0.004,0.062-0.01,0.085-0.015c0.017-0.006,0.031-0.013,0.042-0.023c0.01-0.01,0.017-0.025,0.017-0.039v-1.504h0.37
			c0.129,0,0.234,0.015,0.324,0.052c0.093,0.031,0.17,0.073,0.236,0.133c0.068,0.06,0.129,0.125,0.174,0.203
			c0.048,0.079,0.095,0.166,0.143,0.257l0.384,0.834c0.004,0.025,0.017,0.039,0.029,0.054c0.013,0.015,0.029,0.027,0.052,0.033
			c0.019,0.012,0.046,0.012,0.083,0.019h0.139h0.158c0.035-0.008,0.062-0.008,0.091-0.019c0.017-0.006,0.031-0.013,0.037-0.023
			C1014.868,268.253,1014.872,268.238,1014.872,268.224"/>
		<path class="st0" d="M1012.486,268.869c-1.236-0.498-1.842-1.909-1.346-3.152c0.498-1.243,1.902-1.845,3.139-1.349
			c1.24,0.5,1.84,1.907,1.343,3.15C1015.129,268.761,1013.723,269.367,1012.486,268.869 M1016.223,266.62
			c0-0.432-0.1-0.861-0.284-1.249c-0.253-0.521-0.666-0.963-1.171-1.243c-0.974-0.548-2.282-0.45-3.148,0.255
			c-0.829,0.67-1.26,1.832-1.005,2.878c0.133,0.54,0.413,1.06,0.826,1.442c0.789,0.718,1.993,0.971,2.979,0.569
			c0.805-0.33,1.451-1.025,1.69-1.865C1016.183,267.149,1016.223,266.883,1016.223,266.62"/>
		<path class="st0" d="M812.796,314.857c-1.223,2.938,1.759,1.023,2.128,0.685c4.022-3.656,6.982-14.634,5.161-16.309
			c-2.296-2.11-12.963-2.092-17.689,1.371c-1.972,1.452-0.868,1.733,1.216,1.602c3.644-0.226,6.918-0.467,9.717-0.226
			c2.657,0.226,2.805,1.527,2.126,4.341C814.661,309.591,814.163,311.581,812.796,314.857"/>
		<path class="st0" d="M808.427,306.018c-27.512,11.281-59.254,9.713-85.368-4.11c-0.359-0.189-1.638-0.925-3.096-1.658
			c-1.14-0.571-1.356-0.382-1.539-0.18c-0.257,0.276-0.16,0.778,0.247,1.147c15.331,13.869,33.769,20.54,53.896,19.664
			c15.362-0.672,29.677-6.328,37.876-12.348c1.21-0.89,1.642-2.044,1.14-2.589C811.066,305.387,809.704,305.495,808.427,306.018"/>
		<path class="st0" d="M1141.603,299.92h-29.38c-1.266,0-2.357-0.438-3.278-1.315c-0.862-0.878-1.32-1.878-1.32-3.005
			c0-1.259,0.515-2.88,1.609-4.947l21.042-40.65h-11.037c-2.818,0-4.775,0.498-5.809,1.44c-1.034,0.94-1.609,2.814-1.667,5.762
			h-3.505v-12.715h26.332c3.968,0,5.979,1.629,5.979,4.826c0,0.938-0.286,2.062-0.922,3.256l-21.731,41.901h23.687V299.92z"/>
		<path class="st0" d="M1169.317,295.409h-4.026c-1.721,0-3.16,0.438-4.252,1.378c-2.184,1.693-3.276,2.631-3.391,2.693
			c-1.381,0.878-2.992,1.315-4.775,1.315c-2.874,0-5.288-0.938-7.24-2.818c-1.958-1.876-2.934-4.133-2.934-6.764
			c0-7.704,6.094-11.9,18.169-12.524v-3.507c0-3.382-0.229-5.824-0.806-7.329c-0.519-1.506-1.493-2.253-2.817-2.253
			c-1.322,0-2.244,0.625-2.643,2.002c-0.06,0.064-0.287,1.504-0.691,4.198c-0.403,2.691-2.012,4.133-4.946,4.133l-4.657-4.822
			c0.118-2.946,1.326-5.324,3.623-7.08c2.359-1.814,5.464-2.689,9.372-2.689c4.37,0,7.474,1.125,9.312,3.254
			c1.785,2.193,2.703,5.885,2.703,11.022V295.409z M1160.867,290.587v-7.642c-6.04,0.374-9.087,2.633-9.087,6.889
			c0,3.382,1.154,5.137,3.451,5.137C1157.703,294.97,1159.541,293.469,1160.867,290.587"/>
		<path class="st0" d="M1174.203,268.288h1.094c0.517,0.068,0.865,0.068,1.038,0.068c2.354,0,3.907-0.315,4.773-0.942
			c1.432-1.315,2.927-2.627,4.478-4.007c1.671-1.315,3.571-1.944,5.697-1.944c3.85,0,6.897,1.691,9.141,5.2
			c2.242,3.507,3.393,8.329,3.393,14.527c0,6.395-1.208,11.339-3.565,14.848c-2.36,3.444-5.691,5.198-9.947,5.198
			c-3.22,0-5.807-1.316-7.819-3.886v14.908c0,1.316-0.405,2.382-1.154,3.258c-0.802,0.874-1.779,1.316-2.929,1.316
			c-1.208,0-2.186-0.442-2.992-1.378c-0.803-0.878-1.208-1.944-1.208-3.197V268.288z M1182.486,284.01
			c0,7.644,2.072,11.398,6.152,11.398c3.967,0,5.923-4.824,5.923-14.406c0-9.204-1.898-13.84-5.753-13.84
			c-2.585,0-4.713,2.569-6.322,7.768V284.01z"/>
		<path class="st0" d="M1207.264,268.288h1.094c0.461,0.068,0.805,0.068,1.038,0.068c2.354,0,3.907-0.315,4.771-0.942
			c1.433-1.315,2.932-2.627,4.426-4.007c1.725-1.315,3.623-1.944,5.751-1.944c3.793,0,6.843,1.691,9.084,5.2
			c2.246,3.507,3.332,8.329,3.332,14.527c0,6.395-1.15,11.339-3.503,14.848c-2.415,3.444-5.635,5.198-9.891,5.198
			c-3.22,0-5.807-1.316-7.819-3.886v14.908c0,1.316-0.403,2.382-1.21,3.258c-0.749,0.874-1.723,1.316-2.929,1.316
			c-1.152,0-2.128-0.442-2.936-1.378c-0.803-0.878-1.208-1.944-1.208-3.197V268.288z M1215.546,284.01
			c0,7.644,2.012,11.398,6.152,11.398c3.967,0,5.923-4.824,5.923-14.406c0-9.204-1.956-13.84-5.809-13.84
			c-2.587,0-4.653,2.569-6.266,7.768V284.01z"/>
		<path class="st0" d="M1267.812,281.377c0,12.904-4.775,19.415-14.203,19.415c-9.486,0-14.261-6.511-14.261-19.415
			c0-13.338,4.775-20.036,14.261-20.036c4.368,0,7.819,1.753,10.406,5.32C1266.546,270.17,1267.812,275.119,1267.812,281.377
			 M1259.53,284.577c0-5.829-0.172-9.711-0.457-11.462c-0.748-4.949-2.587-7.455-5.406-7.455c-2.186,0-3.739,1.251-4.657,3.82
			c-0.92,2.506-1.379,6.451-1.379,11.896c0,5.262,0.459,9.022,1.266,11.34c0.92,2.507,2.469,3.758,4.713,3.758
			C1257.519,296.476,1259.53,292.528,1259.53,284.577"/>
		<path class="st0" d="M1287.876,271.108c0-3.318-1.785-4.947-5.346-4.947c-3.048,0-4.543,1.253-4.543,3.882
			c0,1.629,1.609,3.444,4.831,5.575c1.611,1.002,3.505,2.318,5.691,3.818c2.932,2.824,4.427,6.206,4.427,10.024
			c0,3.32-1.092,6.075-3.276,8.144c-2.188,2.065-5.004,3.065-8.51,3.065c-3.108,0-5.635-0.562-7.588-1.751
			c-1.958-1.191-2.996-2.693-2.996-4.384c0-1.065,0.749-1.565,2.245-1.565c0.399,0,0.805,0,1.092,0.06
			c2.3,1.695,4.426,2.569,6.38,2.569c3.28,0,4.95-1.316,4.95-3.944c0-1.446-0.635-2.695-1.9-3.888
			c-0.517-0.556-2.184-1.749-5.005-3.695c-2.814-1.942-4.829-3.695-5.977-5.26c-1.379-1.816-2.072-3.947-2.072-6.387
			c0-3.509,1.092-6.198,3.336-8.146c2.184-1.938,5.29-2.94,9.374-2.94c1.837,0,4.482,0.498,7.875,1.504v8.266H1287.876z"/>
		<rect x="742.91" y="43.263" class="st0" width="14.38" height="35.461"/>
		<path class="st0" d="M768.611,79.1l-0.253-37.49c-0.037-5.233-3.525-8.626-8.606-8.7c-6.55-0.093-23.147,0.102-27.588,0.162V79.2
			h-14.058V20.683l14.058,0.16h35.009c8.896,0,14.924,7.982,14.924,16.346c0.012,13.346,0.158,41.851,0.158,41.851L768.611,79.1z"/>
		<rect x="792.998" y="20.682" class="st0" width="14.068" height="58.517"/>
		<polygon class="st0" points="363.531,0 363.061,0.081 362.638,0.247 361.558,1.098 359.957,1.751 356.525,2.359 355.726,2.602 
			354.973,2.971 354.316,3.417 353.704,3.944 353.091,4.108 352.527,4.108 351.962,3.901 351.445,3.621 351.163,3.621 
			350.883,3.664 350.602,3.741 350.365,3.901 350.224,4.353 349.988,4.76 349.707,5.127 349.329,5.407 348.719,5.615 348.154,5.94 
			347.687,6.347 347.261,6.831 347.544,7.482 347.544,7.727 347.59,8.013 347.731,8.256 347.916,8.416 348.154,8.582 348.437,8.623 
			348.719,8.623 348.951,8.54 349.849,8.825 350.033,9.07 350.224,9.273 350.457,9.435 350.743,9.557 351.024,9.599 351.306,9.599 
			351.588,9.557 351.867,9.48 352.716,9.07 354.597,10.453 355.255,11.02 355.82,11.709 356.007,12.037 356.056,12.404 
			356.056,13.095 356.193,13.788 356.478,15.049 356.619,16.346 356.569,16.919 356.428,17.488 356.146,18.015 355.77,18.459 
			355.539,18.83 355.348,19.193 355.348,19.44 355.396,19.683 355.489,19.926 355.585,20.129 356.007,20.699 356.525,21.229 
			357.042,21.718 357.512,22.283 357.746,22.731 357.842,22.976 357.842,23.22 357.794,24.482 357.603,25.744 357.464,26.555 
			357.371,27.327 357.323,28.144 357.371,28.952 357.512,29.769 357.842,30.501 357.985,30.906 358.027,31.315 358.027,31.722 
			357.935,32.166 357.464,33.915 357.371,34.444 357.323,34.975 357.371,35.218 357.464,35.461 357.559,35.664 357.701,35.871 
			358.359,36.761 358.595,37.293 358.784,37.778 358.923,38.309 359.017,38.878 359.063,39.407 359.063,39.976 358.876,41.93 
			358.737,42.905 358.502,43.881 358.404,44.692 358.359,45.507 358.359,46.321 358.454,47.134 358.595,47.949 358.784,48.719 
			359.017,49.493 359.345,50.263 359.675,51.078 360.003,51.933 360.24,52.786 360.429,53.682 360.476,54.332 360.383,54.94 
			360.24,55.591 359.957,56.162 359.629,56.977 359.345,57.828 359.158,58.681 359.063,59.577 359.017,60.555 358.828,61.528 
			358.595,62.462 358.311,63.401 357.794,64.823 357.181,66.248 356.569,67.589 355.629,69.377 355.539,69.863 355.585,70.352 
			355.726,70.801 356.193,71.736 356.808,72.631 357.088,73.079 357.323,73.523 357.512,74.013 357.603,74.54 357.653,75.276 
			357.559,76.82 357.418,77.592 357.323,78.364 357.277,79.136 357.277,79.951 357.371,80.725 357.512,81.254 357.985,82.308 
			358.168,82.796 358.359,83.327 358.454,83.893 358.502,84.423 358.546,84.995 358.546,85.522 358.454,86.093 358.216,87.923 
			358.078,89.751 358.124,90.973 358.311,92.191 358.595,93.372 358.967,94.552 359.017,94.793 358.967,95.077 358.784,95.608 
			358.454,96.055 358.027,96.663 357.701,97.318 357.653,97.602 357.653,97.843 357.701,98.128 357.842,98.374 358.404,99.107 
			358.967,99.879 359.438,100.69 359.816,101.507 360.194,102.398 360.429,103.294 360.615,104.228 360.757,105.124 
			360.898,106.139 360.898,107.116 360.615,108.417 360.429,109.718 360.24,110.857 360.053,111.424 359.816,111.996 
			359.629,112.403 359.532,112.889 359.484,113.339 359.532,113.828 359.675,114.194 359.862,114.519 360.333,114.152 
			360.711,113.743 362.121,111.224 362.447,110.695 362.731,110.123 362.968,109.558 363.155,108.946 363.25,108.336 
			363.296,107.687 363.296,107.075 363.2,106.467 363.2,105.203 363.531,104.186 363.859,103.983 364,103.865 364.095,103.661 
			364.095,103.334 364.048,103.008 363.813,101.952 363.813,101.626 363.908,101.342 364.141,100.812 364.282,100.244 
			364.376,99.265 364.421,98.536 364.517,97.843 364.658,97.113 364.845,96.42 365.036,95.891 365.129,95.36 365.221,94.793 
			365.177,94.185 365.036,93.656 364.753,93.125 364.33,92.519 364,91.824 363.721,91.133 363.531,90.402 363.391,89.672 
			363.296,88.936 363.296,88.166 363.391,87.435 363.622,85.968 363.765,84.466 363.721,83.001 363.483,81.54 364,80.522 
			364.614,79.586 364.658,78.449 364.614,77.266 364.471,76.086 364.191,74.95 364.048,74.098 363.956,73.239 363.956,72.346 
			364,71.494 364.095,70.763 364.095,69.987 364,69.255 363.859,68.524 363.721,67.832 363.672,67.141 363.813,66.082 
			364.048,65.068 364.421,64.049 364.893,63.113 365.598,61.692 366.259,60.227 366.398,59.333 366.539,58.399 366.587,57.988 
			366.728,57.585 366.869,57.22 367.102,56.892 368.136,55.674 369.076,54.371 369.267,54.046 369.551,53.315 369.645,52.948 
			369.691,52.583 369.691,52.176 369.645,51.809 369.551,51.402 368.75,48.923 367.905,46.483 367.575,45.586 367.293,44.692 
			367.197,43.715 367.243,42.743 367.338,41.768 367.529,40.787 367.762,39.853 367.953,38.878 367.997,37.903 367.997,36.927 
			368.042,36.643 368.136,36.357 368.609,35.909 369.41,35.218 369.551,35.016 369.691,34.77 369.736,34.525 369.736,34.284 
			369.5,32.939 369.219,31.558 368.845,30.215 368.468,28.914 368.323,28.385 368.277,27.818 368.323,27.248 368.422,26.679 
			368.704,25.785 368.893,24.851 368.937,24.279 368.796,23.748 368.517,23.262 368.092,22.857 367.619,22.486 367.432,22.368 
			367.338,22.164 367.293,21.963 367.293,21.756 367.384,21.473 367.529,21.189 368.042,20.295 368.136,19.969 368.136,19.645 
			367.997,19.235 367.81,18.871 367.575,18.342 367.384,17.774 367.338,17.407 367.432,17.081 367.718,16.512 367.953,15.983 
			368.136,15.537 368.374,15.128 368.609,14.761 368.893,14.396 369.784,13.423 370.068,13.053 370.299,12.647 370.396,12.201 
			370.44,11.752 370.49,11.427 370.583,11.061 370.721,10.779 370.961,10.493 371.808,9.682 372.697,8.986 373.546,8.908 
			374.298,8.665 374.393,8.256 374.439,7.85 374.157,7.565 373.828,7.32 372.655,7.239 372.23,7.2 371.808,7.036 371.572,6.831 
			371.43,6.55 371.335,5.735 371.335,5.248 371.244,4.76 371.055,4.432 370.721,4.231 368.845,3.336 367.012,2.318 365.268,1.22 		
			"/>
		<polygon class="st0" points="335.553,3.7 335.036,4.03 334.566,4.434 334.143,4.839 333.672,5.206 333.294,5.287 332.92,5.328 
			332.262,5.816 331.509,6.183 330.707,6.426 329.908,6.548 326.526,6.671 325.726,6.793 324.927,6.997 324.173,7.241 323.42,7.603 
			322.809,7.93 322.151,8.215 320.833,8.623 320.272,8.665 319.707,8.623 319.379,8.623 319.095,8.704 318.813,8.827 318.532,9.028 
			318.107,9.476 317.828,9.966 317.874,10.252 318.013,10.454 318.576,10.495 319.188,10.412 319.847,10.292 320.552,10.252 
			320.883,10.292 321.165,10.371 322.529,10.817 323.937,11.182 325.352,11.508 326.762,11.711 328.409,12.12 328.969,12.406 
			329.439,12.769 329.864,13.257 330.146,13.788 330.524,14.68 330.568,15.17 330.473,15.616 330.146,16.552 330.099,16.795 
			330.099,17 330.146,17.243 330.238,17.446 330.524,17.774 330.848,18.017 331.98,18.707 332.355,19.114 332.497,19.399 
			332.59,19.685 332.823,20.498 333.105,21.351 333.294,22.247 333.246,22.733 333.201,23.181 333.012,23.588 332.92,23.955 
			332.92,24.768 333.201,26.109 333.155,26.8 332.966,27.451 332.544,28.468 332.167,29.524 330.848,35.504 330.757,36.722 
			330.848,37.17 330.993,37.618 331.18,38.063 331.413,38.471 332.167,39.571 332.873,40.71 333.246,41.602 333.483,42.58 
			334.471,45.752 335.364,48.962 335.505,50.022 335.459,51.035 335.459,52.135 335.505,52.662 335.644,53.197 335.694,53.517 
			335.694,53.844 335.644,54.168 335.553,54.452 335.129,55.714 335.036,56.119 334.99,56.527 335.129,56.895 335.318,57.179 
			335.742,57.668 336.024,58.235 336.211,58.845 336.304,59.457 336.493,62.057 336.774,63.682 336.869,64.414 336.825,65.147 
			336.728,65.922 336.589,66.613 336.304,67.346 336.024,67.995 335.644,68.647 335.225,69.253 334.708,70.031 334.284,70.882 
			334.048,71.819 333.908,72.71 334.048,73.118 334.332,73.486 335.318,74.299 335.644,74.623 335.881,74.99 335.978,75.476 
			335.931,75.969 335.599,77.146 335.505,77.43 335.505,77.714 335.553,77.999 335.644,78.283 335.978,78.893 336.354,79.505 
			336.589,79.951 336.728,80.399 336.728,80.806 336.589,81.171 336.304,81.738 336.163,82.35 336.163,82.999 336.304,83.609 
			336.825,85.074 337.48,86.458 337.951,88.002 338.328,89.587 338.609,91.214 338.75,92.801 338.891,94.507 339.172,96.177 
			339.551,97.843 340.021,99.513 340.536,100.649 341.007,101.18 341.385,102.115 341.619,102.927 341.524,103.782 341.478,104.636 
			341.898,105.977 342.796,106.67 342.653,105.977 342.51,105.043 342.842,104.311 343.359,103.334 343.218,102.682 
			342.701,102.196 342.51,101.748 342.228,101.341 341.898,99.96 341.898,99.472 341.854,98.941 341.758,98.455 341.619,97.966 
			341.432,96.99 341.432,96.015 341.619,94.756 341.713,93.492 341.758,92.231 341.713,90.971 341.619,89.099 341.619,87.23 
			341.808,85.317 342.089,83.491 342.371,82.109 342.417,81.414 342.417,80.682 342.371,79.99 342.278,79.304 342.136,78.611 
			341.898,77.957 341.713,77.308 341.524,76.617 341.385,75.924 341.337,75.235 341.337,73.849 341.432,73.16 341.572,72.506 
			342.228,70.554 343.5,65.678 343.97,64.213 344.345,62.708 344.395,62.304 344.395,61.854 344.345,61.447 344.204,61.044 
			344.017,60.675 343.781,60.351 343.453,60.023 343.124,59.777 342.888,59.538 342.747,59.291 342.701,58.886 342.796,58.521 
			343.17,57.706 343.453,57.218 343.594,56.65 343.64,56.284 343.5,55.876 343.264,55.471 343.124,54.984 342.934,54.006 
			342.934,53.517 342.983,53.031 343.124,52.541 343.264,52.095 343.689,51.118 344.111,50.184 344.628,49.248 345.147,48.352 
			345.24,48.111 345.334,47.825 345.334,47.541 345.286,47.298 345.099,46.725 344.815,46.24 343.689,44.654 343.405,44.246 
			343.218,43.843 343.077,43.391 342.983,42.943 342.888,42.376 342.701,41.766 342.228,40.627 341.667,39.488 341.432,38.959 
			341.291,38.351 341.241,37.78 341.291,37.17 341.337,36.639 341.337,36.112 341.148,34.691 340.864,33.307 340.724,32.576 
			340.679,31.885 340.772,31.192 340.913,30.503 341.385,29.524 341.947,28.59 342.371,27.818 342.747,27.043 342.983,26.229 
			343.124,25.376 342.653,25.053 341.713,24.768 341.478,23.996 341.385,22.774 341.385,21.515 341.432,20.293 341.524,19.035 
			341.808,18.22 342.089,17.894 342.417,17.61 343.264,17 344.156,16.51 344.628,16.228 345.051,15.859 345.24,15.576 
			345.286,15.249 345.286,14.722 345.24,14.234 345.147,13.585 345.147,12.933 345.24,12.526 345.381,12.199 345.616,11.879 
			345.944,11.632 345.851,11.306 345.757,11.02 345.099,10.086 345.051,9.841 345.194,9.597 345.286,9.476 345.334,9.354 
			345.334,9.192 345.24,9.07 344.956,8.134 344.534,6.833 344.252,6.262 344.017,6.019 343.735,5.816 338.937,5.737 338.14,5.451 
			337.341,5.003 336.635,4.474 336.068,3.826 335.835,3.7 		"/>
		<polygon class="st0" points="386.101,3.865 385.443,4.354 384.783,4.514 383.985,4.84 383.188,5.328 382.999,5.817 382.763,6.265 
			382.482,6.71 382.152,7.116 381.351,7.809 380.882,8.093 380.412,8.336 379.096,8.867 377.778,9.355 376.416,9.72 375.006,10.004 
			374.582,10.087 374.111,10.247 373.688,10.451 373.312,10.695 372.982,10.98 372.654,11.305 372.369,11.671 372.184,12.079 
			372.041,12.648 372.276,12.81 372.511,12.934 374.485,12.934 375.193,13.096 375.429,13.179 375.664,13.339 376.227,13.744 
			376.839,14.03 377.543,14.235 378.249,14.273 381.025,14.316 381.824,14.356 382.623,14.6 383.327,14.924 383.985,15.412 
			384.455,15.982 384.783,16.673 384.972,17.406 385.065,18.138 385.065,19.074 385.019,20.049 384.926,20.985 384.737,21.919 
			384.737,22.327 384.783,22.734 385.115,23.911 385.115,24.319 384.972,24.766 384.783,25.174 384.644,25.622 384.55,26.069 
			384.55,26.801 384.737,27.289 385.115,27.695 385.208,27.897 385.256,28.141 385.256,28.386 385.065,28.791 384.833,29.2 
			383.28,30.907 382.763,31.559 382.671,31.802 382.717,32.088 382.902,32.372 383.138,32.615 383.749,33.306 383.89,33.549 
			383.985,33.794 384.033,34.526 384.033,35.26 383.938,36.032 383.749,36.723 383.562,37.454 383.469,38.145 383.373,38.879 
			383.327,39.568 383.469,40.504 383.703,41.398 384.033,42.253 384.501,43.066 385.349,44.571 386.149,46.077 386.29,46.523 
			386.383,47.011 386.383,47.459 386.29,47.947 385.584,50.185 385.443,50.673 385.397,51.157 385.349,51.688 385.397,52.177 
			385.443,52.704 385.538,53.196 385.678,53.68 385.865,54.128 386.336,55.225 386.714,56.325 386.994,57.421 387.183,58.603 
			387.324,60.149 387.278,61.732 387.135,63.32 386.853,64.864 386.761,65.758 386.761,67.507 386.853,68.401 386.946,69.256 
			386.946,70.15 386.901,71.045 386.761,71.939 386.383,72.954 385.914,73.972 385.63,74.541 385.443,75.153 385.349,75.803 
			385.349,76.454 385.491,77.186 386.055,78.653 386.149,79.463 386.101,79.871 386.055,80.235 385.96,80.641 385.819,81.009 
			385.115,82.432 384.363,83.814 384.174,84.262 384.127,84.789 384.174,85.277 384.268,85.766 384.691,86.783 385.161,87.758 
			385.349,88.287 385.491,88.816 385.584,89.387 385.63,89.916 385.584,90.321 385.491,90.688 385.115,92.804 385.115,93.535 
			385.019,94.265 385.019,94.633 384.972,95 385.019,95.361 385.115,95.687 385.349,96.909 385.538,98.129 385.678,99.349 
			385.725,100.569 386.149,100.121 386.572,99.755 386.853,99.147 387.278,98.618 386.946,98.048 386.761,97.479 386.714,96.828 
			386.761,96.216 387.324,94.751 387.982,93.288 388.781,91.906 389.627,90.564 390.052,89.14 390.476,88.572 390.804,88.001 
			391.084,87.352 391.273,86.702 390.476,84.057 390.38,83.326 390.38,81.861 390.43,81.129 390.569,80.398 390.756,79.666 
			390.945,78.973 391.227,78.282 391.321,77.755 391.321,77.226 391.227,76.699 391.084,76.209 390.241,74.055 390.145,73.728 
			390.098,73.404 390.098,73.08 390.191,72.754 390.523,71.981 390.991,71.248 391.555,70.354 392.025,69.418 392.122,68.889 
			392.168,68.32 392.076,67.752 391.933,67.181 390.851,64.498 390.661,63.847 390.615,63.197 390.661,62.506 390.804,61.855 
			391.227,61.369 391.979,60.226 392.307,59.618 392.637,58.965 392.872,58.357 393.154,57.421 393.295,56.487 393.436,55.713 
			393.579,54.9 393.579,54.045 393.532,53.234 393.389,52.46 393.2,51.646 392.919,50.876 392.543,50.142 391.038,47.824 
			390.71,47.214 390.476,46.565 390.43,45.87 390.43,45.179 390.615,44.245 390.897,43.309 391.181,42.294 391.462,41.236 
			391.744,39.122 391.649,38.879 391.462,38.676 390.804,38.145 390.476,37.862 390.241,37.535 390.287,36.599 390.43,35.462 
			390.523,34.323 390.476,33.186 390.38,32.005 390.333,31.6 390.333,31.19 390.476,30.621 390.661,30.094 390.897,29.565 
			391.697,28.183 392.076,27.247 392.637,24.931 393.295,22.653 393.486,22.205 393.717,21.84 394.705,20.742 394.942,20.456 
			395.083,20.132 395.131,19.763 395.131,18.912 395.224,18.422 395.363,17.976 395.598,17.57 396.727,15.576 396.445,15.21 
			396.115,14.845 395.836,14.6 395.598,14.273 395.649,13.787 395.741,13.299 395.93,12.486 395.977,11.671 395.977,11.428 
			395.93,11.183 395.787,10.94 395.649,10.735 395.363,10.492 395.035,10.289 394.564,10.044 394.142,9.72 394.049,9.436 
			394.049,9.11 394.285,8.621 394.423,8.216 394.518,7.809 394.188,7.687 393.953,7.566 393.671,7.361 393.436,7.116 393.108,6.67 
			392.45,5.693 392.261,5.45 392.076,5.288 391.836,5.164 391.555,5.085 390.333,4.879 389.157,4.597 388.547,4.394 387.982,4.068 
			387.511,3.663 387.135,3.172 		"/>
	</g>
</g>
</svg>
