<?xml version="1.0" encoding="utf-8"?>
<!-- Generator: Adobe Illustrator 19.0.0, SVG Export Plug-In . SVG Version: 6.00 Build 0)  -->
<svg version="1.1" id="Layer_1" xmlns="http://www.w3.org/2000/svg" xmlns:xlink="http://www.w3.org/1999/xlink" x="0px" y="0px"
	 viewBox="-291 894 588 154" style="enable-background:new -291 894 588 154;" xml:space="preserve">
<style type="text/css">
	.st0{fill:#636363;}
</style>
<g>
	<title>Logos</title>
	<desc>Created with Sketch.</desc>
	<g>
		<g>
			<path class="st0" d="M-230.2,974.8c-11.5,0-20.3,9.2-20.3,19.9c0,9.5,6.3,14.6,6.3,14.6c0.6,0.6,0.5,0.8,0,1.3
				c0,0-6.4,5.7-6.4,14.4c0,12,9.7,20.1,20.3,20.1c11.9,0,20.3-9.5,20.3-19.9c0-9-6.1-14.3-6.1-14.3c-0.9-0.8-0.9-1,0-1.6
				c0,0,6.1-5,6.1-14.4C-209.9,984-218.6,974.9-230.2,974.8 M-227.4,986c0.3-0.6,0.9-1,1.5-1c0.9,0,1.6,0.8,1.6,1.6
				s-0.8,1.6-1.6,1.6c-0.7,0-1.3-0.4-1.5-1c-0.3,0.6-0.9,1-1.5,1s-1.3-0.4-1.5-1c-0.3,0.6-0.9,1-1.5,1s-1.1-0.3-1.4-0.8
				c-0.1,0.2-0.3,0.3-0.5,0.5c0.4,0.3,0.7,0.8,0.7,1.4c0,0.6-0.3,1.1-0.7,1.3c0.4,0.3,0.7,0.8,0.7,1.4c0,0.6-0.3,1.1-0.7,1.3
				c0.1,0.1,0.3,0.2,0.4,0.3c0.3-0.4,0.8-0.6,1.3-0.6c0.6,0,1.2,0.3,1.4,0.8c0.3-0.5,0.9-0.8,1.4-0.8c0.6,0,1.2,0.3,1.4,0.8
				c0.3-0.5,0.8-0.8,1.4-0.8c0.9,0,1.6,0.8,1.6,1.6s-0.8,1.6-1.6,1.6c-0.6,0-1.2-0.3-1.4-0.8c-0.3,0.5-0.8,0.8-1.4,0.8
				s-1.2-0.3-1.4-0.8c-0.3,0.5-0.8,0.8-1.4,0.8c-0.5,0-1-0.2-1.3-0.6c-0.1,0.1-0.2,0.2-0.4,0.3c0.4,0.3,0.7,0.8,0.7,1.4
				c0,0.6-0.3,1.1-0.7,1.3c0.4,0.3,0.7,0.8,0.7,1.4c0,0.6-0.3,1.1-0.7,1.3c0.2,0.1,0.3,0.3,0.5,0.5c0.3-0.5,0.8-0.8,1.4-0.8
				c0.7,0,1.3,0.4,1.5,1c0.3-0.6,0.9-1,1.5-1s1.3,0.4,1.5,1c0.3-0.6,0.9-1,1.5-1c0.9,0,1.6,0.8,1.6,1.6s-0.8,1.6-1.6,1.6
				c-0.7,0-1.3-0.4-1.5-1c-0.3,0.6-0.9,1-1.5,1s-1.3-0.4-1.5-1c-0.3,0.6-0.9,1-1.5,1s-1.1-0.3-1.4-0.8c-0.3,0.5-0.8,0.8-1.4,0.8
				c-0.9,0-1.6-0.8-1.6-1.6c0-0.6,0.3-1.1,0.7-1.4c-0.4-0.3-0.7-0.8-0.7-1.3c0-0.6,0.3-1.1,0.7-1.4c-0.4-0.3-0.7-0.8-0.7-1.3
				c0-0.6,0.3-1.1,0.7-1.4c-0.4-0.3-0.7-0.8-0.7-1.3c0-0.6,0.3-1.1,0.7-1.4c-0.4-0.3-0.7-0.8-0.7-1.3c0-0.6,0.3-1.1,0.7-1.4
				c-0.4-0.3-0.7-0.8-0.7-1.3c0-0.6,0.3-1.1,0.7-1.4c-0.4-0.3-0.7-0.8-0.7-1.3c0-0.9,0.7-1.6,1.6-1.6c0.6,0,1.1,0.3,1.4,0.8
				c0.3-0.5,0.8-0.8,1.4-0.8c0.7,0,1.3,0.4,1.5,1c0.3-0.6,0.9-1,1.5-1S-227.7,985.5-227.4,986 M-227.4,1016.4c0.3-0.6,0.9-1,1.5-1
				c0.9,0,1.6,0.8,1.6,1.6s-0.8,1.6-1.6,1.6c-0.7,0-1.3-0.4-1.5-1c-0.3,0.6-0.9,1-1.5,1s-1.3-0.4-1.5-1c-0.3,0.6-0.9,1-1.5,1
				s-1.1-0.3-1.4-0.8c-0.1,0.2-0.3,0.3-0.5,0.5c0.4,0.3,0.7,0.8,0.7,1.3c0,0.6-0.3,1.1-0.7,1.4c0.4,0.3,0.7,0.8,0.7,1.3
				c0,0.6-0.3,1.1-0.7,1.4c0.1,0.1,0.3,0.2,0.4,0.3c0.3-0.4,0.8-0.6,1.3-0.6c0.6,0,1.2,0.3,1.4,0.8c0.3-0.5,0.9-0.8,1.4-0.8
				c0.6,0,1.2,0.3,1.4,0.8c0.3-0.5,0.8-0.8,1.4-0.8c0.9,0,1.6,0.8,1.6,1.6c0,0.9-0.8,1.6-1.6,1.6c-0.6,0-1.2-0.3-1.4-0.8
				c-0.3,0.5-0.8,0.8-1.4,0.8s-1.2-0.3-1.4-0.8c-0.3,0.5-0.8,0.8-1.4,0.8c-0.5,0-1-0.2-1.3-0.6c-0.1,0.1-0.2,0.2-0.4,0.3
				c0.4,0.3,0.7,0.8,0.7,1.3c0,0.6-0.3,1.1-0.7,1.3c0.4,0.3,0.7,0.8,0.7,1.4c0,0.6-0.3,1.1-0.7,1.3c0.2,0.1,0.3,0.3,0.5,0.5
				c0.3-0.5,0.8-0.8,1.4-0.8c0.7,0,1.3,0.4,1.5,1c0.3-0.6,0.9-1,1.5-1s1.3,0.4,1.5,1c0.3-0.6,0.9-1,1.5-1c0.9,0,1.6,0.8,1.6,1.6
				c0,0.9-0.8,1.6-1.6,1.6c-0.7,0-1.3-0.4-1.5-1c-0.3,0.6-0.9,1-1.5,1s-1.3-0.4-1.5-1c-0.3,0.6-0.9,1-1.5,1s-1.1-0.3-1.4-0.8
				c-0.3,0.5-0.8,0.8-1.4,0.8c-0.9,0-1.6-0.8-1.6-1.6c0-0.6,0.3-1.1,0.7-1.3c-0.4-0.3-0.7-0.8-0.7-1.3c0-0.6,0.3-1.1,0.7-1.4
				c-0.4-0.3-0.7-0.8-0.7-1.3c0-0.6,0.3-1.1,0.7-1.3c-0.4-0.3-0.7-0.8-0.7-1.3c0-0.6,0.3-1.1,0.7-1.4c-0.4-0.3-0.7-0.8-0.7-1.4
				c0-0.6,0.3-1.1,0.7-1.3c-0.4-0.3-0.7-0.8-0.7-1.4c0-0.6,0.3-1.1,0.7-1.3c-0.4-0.3-0.7-0.8-0.7-1.4c0-0.9,0.7-1.6,1.6-1.6
				c0.6,0,1.1,0.3,1.4,0.8c0.3-0.5,0.8-0.8,1.4-0.8c0.7,0,1.3,0.4,1.5,1c0.3-0.6,0.9-1,1.5-1S-227.7,1015.8-227.4,1016.4"/>
			<path class="st0" d="M-120.7,1007h-1.7c-3,0-3.9,1.6-3.9,3.3v1.1h-1.6v2.2h1.6v8.6h3.4v-8.6h2.1v-2.3h-2v-0.9c0-0.7,0.5-1,0.9-1
				h1.3v-2.4L-120.7,1007L-120.7,1007z"/>
		</g>
		<rect x="-119.4" y="1011" class="st0" width="3.2" height="11.1"/>
		<rect x="-119.3" y="1007" class="st0" width="3.2" height="2.6"/>
		<g>
			<path class="st0" d="M-106.9,1011c-2.7,0-3.4,0.6-4,1.9v-1.6h-3.2v11h3.3v-5c0.1-1.3,0.3-3.3,2.8-3.3c0.3,0,0.6,0,1,0.1
				L-106.9,1011L-106.9,1011z"/>
			<path class="st0" d="M-101.5,1011c-2.4,0-4.8,0.9-4.8,3.7c0,1.9,1.7,2.5,3.5,3c2.2,0.6,3.3,0.5,3.4,1.4c0.2,1.3-1.4,1.4-1.9,1.4
				c-1.2,0-2.3-0.4-2.3-1.6h-2.9c0.1,2.9,2.6,3.8,5.2,3.8c2.5,0,5.1-1.2,5.1-4c0.1-4.1-6.8-2.5-6.8-4.6c0-0.6,0.8-1,1.7-1
				c1,0,2.1,0.5,2,1.4h2.9C-96.7,1011.7-99.1,1011-101.5,1011"/>
			<path class="st0" d="M-90.9,1007.8h-3.2v3.5h-1.5v2.3h1.5v5.7c0,1.8-0.1,3,3.9,3c0.4,0,0.9,0,1.4,0v-2.4c-2.1,0-2.1-0.1-2-1.3
				v-4.9h2v-2.3h-2v-3.6H-90.9z"/>
			<path class="st0" d="M-72.1,1007h-3.2v5.3c-0.7-1.1-1.9-1.4-3.2-1.4c-3.3,0-4.9,2.7-4.9,5.7s1.6,5.9,5,5.9c1.3,0,2.4-0.3,3.1-1.4
				l0.1,1.2h3.1V1007z M-77.8,1020.2c-1.6,0-2.5-1.4-2.5-3.5c0-2.8,1.4-3.4,2.5-3.4c1.7,0,2.5,1.4,2.5,3.4S-76,1020.2-77.8,1020.2"
				/>
		</g>
		<rect x="-70.1" y="1011" class="st0" width="3.2" height="11.1"/>
		<rect x="-70" y="1007" class="st0" width="3.1" height="2.6"/>
		<g>
			<path class="st0" d="M-57.6,1011c-2.7,0-3.4,0.6-4,1.9v-1.6h-3.2v10.9h3.3v-4.9c0.1-1.4,0.3-3.3,2.7-3.3c0.3,0,0.7,0,1.1,0.1
				v-3.1L-57.6,1011L-57.6,1011z"/>
			<path class="st0" d="M-51.6,1011c-3.4,0-5.7,2.5-5.7,5.8c0,3.4,2.1,5.8,5.7,5.8c2.5-0.1,4.3-0.9,5.2-3.5h-3.1
				c-0.3,0.5-0.9,1.2-2.2,1.2c-1,0-2.5-0.8-2.6-2.7h8.1C-46,1014-47.8,1011-51.6,1011 M-54.2,1015.5c0-0.9,0.7-2.2,2.5-2.2
				c1.4,0,2.2,0.8,2.2,2.2H-54.2z"/>
			<path class="st0" d="M-39.3,1011c-3.6,0-5.7,2.5-5.7,5.9c0,3.6,2.2,5.7,5.6,5.7c2.9,0,4.9-1.4,5.3-4.3l-3-0.1
				c-0.2,1.3-1.1,2-2.4,2c-1.6,0-2.3-1.6-2.3-3.4c0-1.6,0.7-3.6,2.5-3.6c1.1,0,2,0.8,2.2,2h3C-34.3,1012.2-36.7,1011-39.3,1011"/>
			<path class="st0" d="M-28.7,1007.9H-32v3.5h-1.4v2.3h1.5v5.7c0,1.8-0.2,2.9,4.2,2.9c0.3,0,0.7,0,1.1,0v-2.4c-2.1,0-2.1,0-2.1-1.3
				v-4.9h2v-2.3h-2V1007.9z"/>
			<path class="st0" d="M31.1,1023h-1.5c-0.2,0-0.3,0.1-0.3,0.3v6.6c0,0.2,0.1,0.3,0.3,0.3h4.3c0.2,0,0.3-0.1,0.3-0.3v-0.8
				c0-0.2-0.1-0.3-0.3-0.3h-2.4h-0.1v-5.5C31.4,1023,31.3,1023,31.1,1023"/>
			<path class="st0" d="M40.7,1023h-1.2c-0.2,0-0.3,0.1-0.3,0.3h0.1v4.5c0,0.8-0.4,1.2-1.2,1.2s-1.2-0.4-1.2-1.2v-4.5
				c0-0.2-0.1-0.3-0.3-0.3h-1.5c-0.2,0-0.3,0.1-0.3,0.3v4.4c0,1.8,1.5,2.5,3.1,2.5c1.9,0,3-1.2,3-2.6v-4.3
				C41,1023,40.9,1023,40.7,1023"/>
			<path class="st0" d="M45.8,1022.8c-2.1,0-4.1,1.3-4.1,3.8s1.9,3.8,4.1,3.8c1.2,0,1.7-0.3,2-0.4c0.2,0,0.3-0.2,0.3-0.4v-1.2
				c0-0.1,0-0.2-0.1-0.2s-0.1,0-0.2,0.1c-0.3,0.4-1,0.7-1.7,0.7c-1.1,0-1.9-0.6-1.9-2.4s0.9-2.4,1.9-2.4c0.7,0,1.4,0.3,1.7,0.7
				c0.1,0.1,0.2,0.1,0.2,0.1s0.1-0.1,0.1-0.2v-1.2c0-0.2-0.2-0.3-0.3-0.4C47.5,1023,46.8,1022.8,45.8,1022.8"/>
			<path class="st0" d="M52.4,1022.8c-2.2,0-3.8,1.4-3.8,3.8c0,2.5,1.5,3.8,3.8,3.8c2.2,0,3.8-1.3,3.8-3.8S54.7,1022.8,52.4,1022.8
				 M52.4,1029.1c-0.2,0-0.3-0.1-0.5-0.1c-0.7-0.2-1-0.8-1-2.4c0-1.6,0.3-2.2,1-2.4c0.1-0.1,0.3-0.1,0.5-0.1s0.3,0.1,0.5,0.1
				c0.7,0.2,1,0.8,1,2.4c0,1.6-0.3,2.2-1,2.4C52.8,1029.1,52.6,1029.1,52.4,1029.1"/>
			<path class="st0" d="M62,1022.9h-5.1c-0.2,0-0.3,0.1-0.3,0.3v0.8c0,0.2,0.1,0.3,0.3,0.3h2.8l-2.7,4.3c-0.1,0.2-0.4,0.8-0.4,1v0.3
				c0,0.2,0.1,0.3,0.3,0.3h5.2c0.2,0,0.3-0.1,0.3-0.3v-0.8c0-0.2-0.1-0.3-0.3-0.3h-2.8l2.7-4.4c0.1-0.1,0.3-0.5,0.3-0.9v-0.3
				C62.3,1023,62.2,1022.9,62,1022.9"/>
			<path class="st0" d="M67,1023h-1.3c-0.7,0-1.1,0.3-1.3,0.9l-1.9,5.9c-0.1,0.2-0.1,0.2-0.1,0.3s0,0.2,0.2,0.2h1.3
				c0.3,0,0.4-0.2,0.5-0.4l0.4-1.3h2l0.4,1.3c0.1,0.2,0.2,0.4,0.5,0.4h1.6c0.1,0,0.2-0.1,0.2-0.2c0-0.1-0.1-0.2-0.1-0.3l-2-6.5
				C67.3,1023,67.2,1023,67,1023 M65.1,1027.2l0.7-2.5l0.7,2.5H65.1z"/>
			<path class="st0" d="M73.1,1023h-2.6c-0.2,0-0.3,0.1-0.3,0.3v6.6c0,0.2,0.1,0.3,0.3,0.3h2.6c2.7,0,4.1-1.7,4.1-3.6
				C77.2,1024.7,75.8,1023,73.1,1023 M72.7,1028.9c-0.1-0.1-0.3-0.1-0.3-0.3v-4.2c0-0.2,0.2-0.3,0.3-0.3h0.4c1.3,0,1.8,0.8,1.8,2.4
				c0,1.6-0.6,2.4-1.8,2.4H72.7"/>
			<path class="st0" d="M82.5,1023h-4.1c-0.2,0-0.3,0.1-0.3,0.3v6.6c0,0.2,0.1,0.3,0.3,0.3h4.1c0.2,0,0.3-0.1,0.3-0.3v-0.8
				c0-0.2-0.1-0.3-0.3-0.3h-2.2v-1.7h1.9c0.2,0,0.3-0.1,0.3-0.3v-0.8c0-0.2-0.1-0.3-0.3-0.3h-1.9v-1.3h2.2c0.2,0,0.3-0.1,0.3-0.3
				v-0.8C82.8,1023,82.7,1023,82.5,1023"/>
			<path class="st0" d="M89.4,1022.8c-1.2,0-2,0.2-2.4,0.4c-0.3,0.2-0.5,0.3-0.5,0.7v6c0,0.2,0.1,0.3,0.3,0.3h1.6
				c0.2,0,0.3-0.1,0.3-0.3v-5.4c0-0.1,0.1-0.2,0.2-0.3s0.3-0.1,0.5-0.1c0.6,0,1,0.2,1,1s-0.3,1.1-0.7,1.3c-0.2,0.1-0.4,0.2-0.4,0.6
				c0,0.3,0.1,0.5,0.2,0.7l1,2.2c0.1,0.3,0.3,0.4,0.8,0.4l1.3-0.2c0.2,0,0.4,0,0.4-0.3c0-0.2-0.1-0.3-0.2-0.5l-1-1.8
				c-0.1-0.3-0.5-0.6-0.8-0.7c0.7-0.2,1.4-0.7,1.4-1.7C92.4,1023.5,91.4,1022.8,89.4,1022.8"/>
			<path class="st0" d="M95.5,1023H94c-0.2,0-0.3,0.1-0.3,0.3v6.6c0,0.2,0.1,0.3,0.3,0.3h1.5c0.2,0,0.3-0.1,0.3-0.3v-6.6
				C95.8,1023,95.7,1023,95.5,1023"/>
			<path class="st0" d="M100,1022.8c-1.2,0-1.9,0.2-2.3,0.4c-0.3,0.1-0.5,0.3-0.5,0.7v5.9c0,0.2,0.1,0.3,0.3,0.3h3
				c1.8,0,2.8-0.9,2.8-2.2c0-0.8-0.6-1.3-1.4-1.5c0.6-0.2,1.2-0.6,1.2-1.5C103,1023.5,102.1,1022.8,100,1022.8 M100.1,1029.1
				c-0.2,0-0.4-0.1-0.5-0.1c-0.1-0.1-0.2-0.1-0.2-0.3l0.1-4.2c0-0.1,0.1-0.2,0.2-0.3c0.1-0.1,0.3-0.1,0.5-0.1c0.6,0,0.9,0.3,0.9,0.9
				c0,0.5-0.2,0.7-0.5,1c-0.2,0.2-0.4,0.4-0.4,0.6c0,0.3,0.1,0.5,0.3,0.6c0.3,0.3,0.7,0.6,0.7,1.2
				C101.1,1028.6,100.8,1029.1,100.1,1029.1"/>
			<path class="st0" d="M108.9,1023h-4.1c-0.2,0-0.3,0.1-0.3,0.3h-0.1v6.6c0,0.2,0.1,0.3,0.3,0.3h4.1c0.2,0,0.3-0.1,0.3-0.3v-0.8
				c0-0.2-0.1-0.3-0.3-0.3h-2.2v-1.7h1.9c0.2,0,0.3-0.1,0.3-0.3v-0.8c0-0.2-0.1-0.3-0.3-0.3h-1.9v-1.3h2.3c0.2,0,0.3-0.1,0.3-0.3
				v-0.8C109.1,1023,109,1023,108.9,1023"/>
			<path class="st0" d="M112,1022.9h-1.4c-0.2,0-0.3,0.1-0.3,0.3v6.6c0,0.2,0.1,0.3,0.3,0.3h1.2c0.2,0,0.3-0.1,0.3-0.3v-5l1.7,4.4
				c0.2,0.7,0.7,1,1.4,1h1.3c0.2,0,0.3-0.1,0.3-0.3v-6.6c0-0.2-0.1-0.3-0.3-0.3h-1.2c-0.2,0-0.3,0.1-0.3,0.3v4.8l-1.6-4.4
				C113.2,1023.2,112.7,1022.9,112,1022.9"/>
			<path class="st0" d="M121.9,1023h-1.4c-0.7,0-1.1,0.3-1.3,0.9l-1.8,5.9c-0.1,0.2-0.1,0.2-0.1,0.3s0,0.2,0.2,0.2h1.3
				c0.3,0,0.4-0.2,0.5-0.4l0.4-1.3h2l0.4,1.3c0.1,0.2,0.2,0.4,0.5,0.4h1.6c0.1,0,0.2-0.1,0.2-0.2c0-0.1-0.1-0.2-0.1-0.3l-2-6.5
				C122.2,1023,122.1,1023,121.9,1023 M119.9,1027.2l0.7-2.5l0.7,2.5H119.9z"/>
			<path class="st0" d="M55.4,1033.8c-0.9,0-1.5,0.2-2,0.7c-0.4,0.3-0.6,0.8-0.6,1.3s0.1,0.9,0.3,1.2c0.3,0.4,0.8,0.8,1.6,1.1
				c0.6,0.2,0.9,0.4,1.1,0.6c0.1,0.2,0.2,0.4,0.2,0.6c0,0.6-0.4,0.9-1.3,0.9c-0.5,0-1-0.1-1.5-0.4l-0.5,1c0.7,0.3,1.4,0.5,2.2,0.5
				s1.4-0.2,1.9-0.6c0.5-0.3,0.7-0.9,0.7-1.4s-0.1-0.9-0.3-1.2c-0.3-0.4-0.8-0.8-1.6-1.1c-0.6-0.2-0.9-0.4-1.1-0.6
				c-0.2-0.2-0.3-0.4-0.3-0.6c0-0.5,0.5-0.8,1.3-0.8c0.5,0,1.1,0.1,1.5,0.4l0.6-1C57,1033.9,56.2,1033.8,55.4,1033.8"/>
			<path class="st0" d="M65,1033.9l-1.4,0.1v4.4c0,0.5-0.1,0.9-0.4,1.2c-0.3,0.3-0.7,0.5-1.2,0.5c-1.1,0-1.5-0.5-1.5-1.5v-4.5h-1.4
				v4.4c0,0.8,0.3,1.3,0.7,1.8c0.6,0.5,1.3,0.8,2.2,0.8s1.5-0.2,2.1-0.7s0.9-1.2,0.9-1.9V1033.9L65,1033.9z"/>
			<path class="st0" d="M68.5,1033.8l-1.6,0.4v6.8h1.3v-4.1c0-0.3,0-0.8-0.1-1.4c0.2,0.4,0.4,0.9,0.7,1.3l2.5,4.4l1.6-0.4l0.1-6.8
				h-1.4v4.1c0,0.4,0,0.9,0.1,1.4c-0.2-0.5-0.4-0.9-0.7-1.3L68.5,1033.8z"/>
		</g>
		<polygon class="st0" points="79.3,1033.9 74.2,1033.9 74.2,1034.9 76.1,1034.9 76.1,1040.8 77.5,1040.8 77.5,1034.9 79.3,1034.9 
					"/>
		<g>
			<path class="st0" d="M83.9,1033.8c-1.1,0-1.9,0.3-2.6,1.2c-0.7,0.7-1.1,1.5-1.1,2.6c0,1.1,0.3,1.9,0.9,2.5
				c0.7,0.7,1.5,1.1,2.7,1.1c1.1,0,1.9-0.4,2.6-1.1c0.7-0.8,1.1-1.6,1.1-2.7c0-1.1-0.3-1.8-0.9-2.5
				C85.9,1034.1,85,1033.8,83.9,1033.8 M83.8,1039.9c-1.4,0-2-0.9-2-2.5c0-0.9,0.2-1.5,0.7-2c0.4-0.4,0.9-0.6,1.4-0.6
				c0.7,0,1.3,0.4,1.7,0.9c0.3,0.4,0.4,1,0.4,1.6c0,0.5-0.1,1-0.3,1.3C85.3,1039.4,84.6,1039.9,83.8,1039.9"/>
			<path class="st0" d="M91.5,1033.8c-0.4,0-1.2,0-2.2,0.1h-0.1l-0.1,7h1.4v-6h0.8c0.9,0,1.3,0.3,1.3,1.1c0,0.7-0.5,1.1-1.4,1.2
				l-0.4,0.6l2.2,3.3l1.4-0.6l-1.4-2.2c-0.1-0.2-0.2-0.4-0.4-0.5c1.1-0.3,1.6-1,1.6-2C94.2,1034.4,93.3,1033.8,91.5,1033.8"/>
			<path class="st0" d="M99.6,1033.6l-1.4,2.2c-0.2,0.3-0.3,0.5-0.4,0.8c-0.1-0.3-0.3-0.6-0.4-0.8l-1.4-2.2l-1.3,0.6l2.3,3.5v3.1
				h1.4v-3.2l2.4-3.4L99.6,1033.6z"/>
			<path class="st0" d="M76.5,983.5c-2.7,5.2-6,9.6-8.8,14.9c-4.7,9-2.4,20.3,8.8,20.3c4.5,0,7.5-1.7,9.3-4.4c-1.4,1-3.3,1.7-6,1.7
				c-4.6,0-7-2.2-8.2-4.1c-2.1-3.5-2-8.7,0.4-13.2c1.1-2,2.2-4,3.4-5.8c1.1-1.7,2.2-3.6,3.3-5.5C77.8,986,77.1,984.8,76.5,983.5"/>
			<path class="st0" d="M82.7,994.4c-0.3,0.5-0.6,1-0.9,1.4c-0.6,1-1.2,1.8-1.6,2.8c-1,1.8-1.1,4-0.3,5.2c0.6,0.9,1.5,1.4,2.8,1.4
				s2.3-0.5,2.9-1.4c0.6-1,0.7-2.5,0.2-4c-0.1-0.5-0.4-1-0.7-1.5l0.1,0.1c0,0,0,0-0.1-0.1C84.4,997,83.6,995.5,82.7,994.4"/>
			<path class="st0" d="M79.7,989.4c-0.9,1.5-1.8,3.1-2.7,4.5c-1.2,1.8-2.3,3.7-3.3,5.6c-2.1,4.1-2.3,8.5-0.5,11.4
				c1.3,2.1,3.6,3.2,6.6,3.2s5.3-1.1,6.7-3.2c0.8-1.3,1.2-2.8,1.2-4.5c0-0.4-0.1-0.9-0.1-1.3c-1.1,1.4-2.7,2.2-4.7,2.2
				s-3.7-0.9-4.6-2.3c-1.2-1.9-1.1-4.7,0.2-7.2c0.6-1.1,1.2-2,1.7-3c0.5-0.8,1-1.5,1.4-2.3C81,991.5,80.3,990.4,79.7,989.4"/>
			<path class="st0" d="M-236.9,924.5h-2.1v9.8c0,0.4,0.5,0.9,0.9,0.9h6.2l-1.4-2.2h-3.6L-236.9,924.5L-236.9,924.5z"/>
			<path class="st0" d="M-271,921.9c-5.2,0-9.4,4.1-9.4,9.3c0,5.1,4.1,9.3,9.4,9.3c0.6,0,1.1-0.1,1.5-0.1v3.6h2.7v-4.5
				c3-1.4,5.1-4.5,5.1-8.2C-261.6,926-265.8,921.9-271,921.9 M-270.9,937c-3.4,0-6.1-2.7-6.1-6s2.7-6,6.1-6s6.1,2.7,6.1,6
				c-0.1,1.7-0.8,3.3-1.9,4.3v-3l-2.6,0.8v3.7C-269.8,937-270.4,937-270.9,937"/>
			<path class="st0" d="M-252.1,924.5h-2.1v8.5h-3.7v-8.5h-2.1v9.8c0,0.4,0.5,0.9,0.9,0.9h6.1c0.4,0,0.9-0.5,1-0.9L-252.1,924.5
				L-252.1,924.5z"/>
			<path class="st0" d="M-227.6,924.2c-3.2,0-5.7,2.5-5.7,5.7s2.6,5.7,5.7,5.7c1,0,1.9-0.3,2.7-0.7l-1.1-1.8
				c-0.5,0.3-1.1,0.4-1.7,0.4c-2,0-3.6-1.6-3.6-3.6c0-1.9,1.6-3.6,3.6-3.6c0.7,0,1.3,0.2,1.8,0.5l1.2-1.8
				C-225.6,924.5-226.5,924.2-227.6,924.2"/>
			<path class="st0" d="M-219.8,924.2c-3.2,0-5.7,2.6-5.7,5.7c0,3.1,2.5,5.7,5.7,5.7s5.7-2.5,5.7-5.7S-216.6,924.2-219.8,924.2
				 M-219.8,933.5c-2,0-3.6-1.5-3.6-3.6s1.6-3.6,3.6-3.6s3.6,1.6,3.6,3.6C-216.1,931.9-217.8,933.5-219.8,933.5"/>
		</g>
		<path class="st0" d="M-244.6,924.5h-2.1l-4.7,10.6h2.2l1.1-2.3h4.9l0.1,0.2l1,2.1h2.2L-244.6,924.5z M-247.3,931l1.7-3.9l1.7,3.9
			H-247.3z"/>
		<g>
			<path class="st0" d="M-185.1,924.5c-0.5,0-1,0.2-1.2,0.6l-2.8,6.6l-2.8-6.6c-0.2-0.4-0.7-0.6-1.2-0.6c-0.6,0-1,0.2-1.2,0.6
				l-2.8,6.6l-2.8-6.6c-0.2-0.4-0.7-0.6-1.2-0.6s-1,0.2-1.2,0.6l-2.8,6.6l-2.8-6.6c-0.2-0.4-0.7-0.6-1.2-0.6s-1,0.2-1.2,0.6
				l-3.9,8.9c-0.4,0.9,0.3,1.5,1,1.5c0.4,0,0.7-0.2,1-0.6l3.1-7l3.1,7c0.2,0.3,0.6,0.5,1,0.5s0.8-0.2,1-0.5l3.1-7l3.1,7
				c0.2,0.4,0.5,0.5,0.9,0.5h0.1h0.1c0.4,0,0.7-0.2,0.9-0.5l3.1-7l3.1,7c0.2,0.3,0.6,0.5,1,0.5s0.8-0.2,1-0.5l3.1-7l3.1,7
				c-0.1,0.4,0.1,0.6,0.3,0.6c0.4,0,1.2-0.6,0.8-1.5l-3.9-8.9C-184.1,924.8-184.6,924.5-185.1,924.5"/>
			<path class="st0" d="M-180.1,924.7c-0.7,0-1.3,0.5-1.3,1.3c0,0.7,0.6,1.3,1.3,1.3s1.3-0.5,1.3-1.3
				C-178.9,925.2-179.5,924.7-180.1,924.7 M-180.1,927c-0.6,0-1.1-0.5-1.1-1.1s0.5-1.1,1.1-1.1s1,0.5,1,1.1
				C-179.2,926.5-179.6,927-180.1,927 M-180.1,925.2h-0.6v1.4h0.2v-0.6h0.3l0.4,0.6h0.3l-0.4-0.7c0.1,0,0.3-0.1,0.3-0.4
				S-179.8,925.2-180.1,925.2 M-180.4,925.8v-0.5h0.3c0.2,0,0.3,0,0.3,0.2s-0.2,0.2-0.4,0.2L-180.4,925.8z"/>
		</g>
		<polygon class="st0" points="-49.1,923.5 -49.2,923.5 -49.2,923.7 -49.1,923.7 -49,923.7 -48.9,923.5 -49,923.5 -49,923.5 		"/>
		<g>
			<path class="st0" d="M-40.7,897l-56.6,14.5c-8.1,2.1-14.8,10.3-14.8,18.4v23.8l56.5-14.8c8.1-2.1,14.8-10.3,14.8-18.4L-40.7,897z
				 M-53.2,926c-1.5,0-2.6-1.1-2.6-2.7v-10.9l2.3-0.6v2.8l2.5-0.7c-0.1,0.5-0.2,1-0.2,1.1c-0.2,0.9-0.9,1.6-1.7,1.8l-0.6,0.2v5.8
				c0,0.6,0.4,0.9,0.9,0.9h0.3c0.2-0.1,0.1,0,1.5-0.4v2.3c-1.2,0.3-1.4,0.4-1.5,0.4s-0.2,0-0.3,0C-52.8,926-53,926-53.2,926
				 M-75.8,932.2v-13.5c0-1.9,1.5-4,3.6-4.4c0.1,0,2.8-0.8,2.8-0.8c-0.1,0.4-0.2,0.7-0.2,0.9v0.2c-0.2,0.8-0.9,1.5-1.7,1.7l-0.8,0.2
				c-0.7,0.2-1.2,0.9-1.2,1.4v1.7l2.6-0.7c0,0.2-0.3,1.2-0.3,1.2c-0.2,0.8-0.9,1.4-1.6,1.6l-0.7,0.2v7.7c0,1-0.8,1.9-1.7,2.2
				C-75.3,932-75.8,932.2-75.8,932.2 M-60.7,925.9L-60.7,925.9h0.4h0.2c0.7-0.2,1.2-1,1.2-1.6c0-2.2-4.6-0.8-4.6-3.9
				c0-1.8,1.3-3.5,3.2-4c0.3-0.1,0.6-0.1,0.9-0.1c1.4,0,2.3,1.1,2.3,2.6v0.3l-0.8,0.2c-0.3,0.1-0.6,0.1-0.7,0.1
				c-0.4,0-0.6-0.2-0.8-0.6c0,0,0-0.1-0.1-0.1c-0.1-0.1-0.2-0.2-0.4-0.3h-0.2l0,0h-0.2c-0.5,0.1-0.9,0.5-0.9,1.1
				c0,1.5,4.6,0.2,4.6,4c0,2-1.4,4-3.4,4.4l-0.4,0.1c-0.3,0.1-0.7,0.1-1,0.1c-1.4,0-2.5-1.1-2.5-2.6V925l1.1-0.3
				c0.2-0.1,0.4-0.1,0.5-0.1c0.5,0,0.6,0.3,0.8,0.7l0.1,0.1C-61.1,925.7-60.9,925.9-60.7,925.9 M-69.9,921.2v-2.3
				c1.1-0.3,1.6-0.5,1.8-0.5c0.3-0.1,0.6-0.1,0.9-0.1c1.5,0,2.6,1.1,2.6,2.7v6.6c0,1-0.8,1.9-1.7,2.2l-0.6,0.2v-0.6
				c-0.2,0.4-1.1,1-1.6,1.1l-0.2,0.1c-0.4,0.1-0.7,0.1-1,0.1c-1.4,0-2.4-1-2.4-2.5v-0.4c0-2,1.7-3.4,4.1-5c0.7-0.5,1.2-0.9,1.3-1.4
				v-0.1c0-0.5-0.3-0.8-0.8-0.8h-0.3C-67.8,920.5-68.8,920.9-69.9,921.2 M-94.3,937c-0.5,0-1.2-0.5-1.2-1.7v-13.7
				c0-0.2,0.1-0.3,0.3-0.4l1.1-0.3h0.1c0.1,0,0.2,0.1,0.2,0.2v15.5c0,0.2-0.1,0.3-0.3,0.4H-94.3 M-101,937.2c0.2,0,0.4,0,0.6-0.1
				c1.3-0.4,2.3-1.6,2.3-2.9c0-1.5-1.3-2.6-2.7-3.7l-0.2-0.2c-1.4-1.1-3-2.1-3-4.2c0-1.9,1.6-4,3.6-4.5c0.3-0.1,0.7-0.1,1-0.1
				c1.5,0,2.6,1.1,2.6,2.6c0,0.2-0.1,0.4-0.3,0.4l-1,0.3h-0.1c-0.1,0-0.3-0.1-0.3-0.3c0-0.9-0.6-1.3-1.3-1.3c-0.2,0-0.4,0-0.6,0.1
				c-1.1,0.3-1.9,1.3-1.9,2.4c0,1.4,1.2,2.2,2.4,3.2l0.3,0.2c1.7,1.3,3.2,2.5,3.2,4.7c0,2.1-1.7,4.4-4,5c-0.4,0.1-0.7,0.1-1.1,0.1
				c-1.7,0-3-1.2-3-3c0-0.3,0-0.6,0.1-1c0-0.2,0.2-0.3,0.4-0.4h1c0.2,0,0.3,0.1,0.2,0.3c0,0.2-0.1,0.4-0.1,0.6
				C-102.8,936.5-102,937.2-101,937.2 M-82.8,923.4c0.5-0.9,1.4-1.4,2.2-1.7c0.3-0.1,0.5-0.1,0.7-0.1c1.2,0,2,0.9,2,2.1v8.7
				c0,0.2-0.1,0.3-0.3,0.4h-0.2c-0.5,0-1.1-0.5-1.2-1.7v-6.7c0-0.7-0.5-1.1-1.1-1.1c-0.1,0-0.2,0-0.4,0.1c-0.7,0.2-1.4,0.9-1.4,1.6
				v8.6c0,0.2-0.1,0.3-0.3,0.4H-83c-0.6,0-1.2-0.6-1.2-2v-0.1v-6.3c0-0.7-0.5-1.1-1.1-1.1c-0.1,0-0.2,0-0.4,0.1
				c-0.7,0.2-1.4,0.9-1.4,1.6v8.6c0,0.2-0.1,0.3-0.3,0.4h-0.2c-0.6,0-1.2-0.6-1.2-1.9V924c0-0.2,0.1-0.3,0.3-0.4l1.1-0.3h0.1
				c0.1,0,0.2,0.1,0.2,0.2v0.3c0.5-0.5,1.1-0.9,1.7-1.1c0.3-0.1,0.5-0.1,0.7-0.1c0.1,0,0.2,0,0.3,0C-83.5,922.8-83,923-82.8,923.4
				 M-91.3,923.5c-0.4,0-0.7-0.3-0.7-0.7c0-0.5,0.4-1.1,1-1.2h0.2c0.4,0,0.7,0.3,0.7,0.7c0,0.5-0.4,1.1-1,1.2H-91.3 M-49.1,924.7
				c-0.1,0-0.2,0-0.3-0.1c-0.1,0-0.2-0.1-0.3-0.2s-0.1-0.2-0.2-0.3c-0.1-0.1-0.1-0.2-0.1-0.3s0-0.2,0.1-0.3c0-0.1,0.1-0.2,0.2-0.3
				s0.2-0.1,0.3-0.2c0.1,0,0.2-0.1,0.3-0.1s0.2,0,0.3,0.1c0.1,0,0.2,0.1,0.3,0.2c0.1,0.1,0.1,0.2,0.2,0.3c0,0.1,0.1,0.2,0.1,0.3
				s0,0.2-0.1,0.3s-0.1,0.2-0.2,0.3c-0.1,0.1-0.2,0.1-0.3,0.2C-48.9,924.7-49,924.7-49.1,924.7 M-90.6,936.2c0,0-0.1,0-0.2,0
				c-0.5,0-1.1-0.5-1.2-1.7V925c0-0.2,0.1-0.3,0.3-0.4l1.1-0.3h0.1c0.1,0,0.2,0.1,0.2,0.2v11.2C-90.3,936-90.4,936-90.6,936.2"/>
			<path class="st0" d="M-66.8,923.9c-0.2,0.3-0.9,0.8-1.4,1.1c-1,0.7-1.6,1.4-1.6,2.2c0,0.7,0.4,1,0.9,1c0.1,0,0.3,0,0.4-0.1h0.1
				c0.9-0.2,1.6-1.3,1.6-2.2C-66.8,925.9-66.8,923.9-66.8,923.9z"/>
			<path class="st0" d="M-49.1,923c-0.1,0-0.2,0-0.3,0.1c-0.1,0-0.1,0.1-0.2,0.1c-0.1,0.1-0.1,0.1-0.1,0.2s-0.1,0.2-0.1,0.3
				s0,0.2,0.1,0.3c0,0.1,0.1,0.2,0.1,0.2s0.1,0.1,0.2,0.1c0.1,0,0.2,0.1,0.3,0.1s0.2,0,0.3-0.1c0.1,0,0.1-0.1,0.2-0.1
				c0.1,0,0.1-0.1,0.1-0.2c0-0.1,0.1-0.2,0.1-0.3s0-0.2-0.1-0.3c0-0.1-0.1-0.2-0.1-0.2c-0.1-0.1-0.1-0.1-0.2-0.1
				C-48.9,923.2-49,923-49.1,923 M-49.4,924.2v-0.9h0.3h0.1h0.1l0.1,0.1v0.2v0.1v0.1h-0.1H-49l0.2,0.4h-0.3l-0.2-0.4L-49.4,924.2
				L-49.4,924.2z"/>
			<path class="st0" d="M77.7,918.2c-0.1,0-0.2,0-0.3,0.1h0.1h0.1h0.3l0.2,0.1l0.2,0.1l0.2,0.2l0.2,0.1h0.2l0,0H79h0.1h0.1l0.3,0.3
				v0.1v0.1c0.1-0.1,0.3-0.1,0.4-0.1s0.3,0,0.4,0.1h0.1h0.1h0.1l0.1-0.1c-0.7-0.1-0.7,0.1-1.2-0.4c-0.1-0.1-0.3-0.1-0.3-0.1
				c-0.1,0-0.1,0-0.1,0H79c-0.1,0-0.2,0-0.3-0.1c-0.4-0.5-0.2-0.3-0.7-0.4C77.9,918.4,77.8,918.2,77.7,918.2"/>
			<path class="st0" d="M92.4,932.4H79.9l1.4,1.2h0.1l0.1,0.1l0.1,0.1l0.1,0.1c0.3,0.3,0.5,0.7,0.6,1.1v0.1l-0.1,0.1l-0.1,0.1
				l-0.1,0.2v0.3v0.5c0,0.4,0.1,1.1-0.4,1.3c0,1-0.4,2-1.1,2.8c-0.4,0.3-0.4,0.7-0.2,1.1c-0.2,0.1-0.6,1.4-0.5,1.5v0.2l0.1,0.2
				l0.1,0.1l0.2,0.1l0.2,0.1h0.2h0.2h0.1l-0.1-0.1l-0.1-0.1v-0.1l0.1-0.1l0.2-0.1l0.4-0.2l0.2-0.2v-0.2l-0.1-0.2h-0.1h0.1h0.1h0.2
				l0.2-0.1l0.2-0.2l0.2-0.2l0.2-0.3l0.2-0.4h0.3h0.2l0.1-0.1l0.2-0.1l0.2-0.1l0.3-0.1l0.4-0.1l0.8-0.2h0.1l0.1-0.1h0.1v-0.1v-0.1
				c-0.1-0.6,0.1-0.4,0.8-0.8c1.3-0.8,1.9-1.3,2.6-2.5l0.1-0.2l0.2-0.2l0.2-0.2l0.3-0.2l0.4-0.2l0.3-0.1h0.4l0,0H91l0.1-0.1l0.1-0.1
				l0.3-0.3l0.2-0.3c0.3-0.5,0.2-0.8,0.7-1.3l0.1-0.1l0.1-0.1l0.1-0.1v-0.1l0.1-0.1l-0.2-0.4l-0.1-0.2L92.4,932.4L92.4,932.4z"/>
		</g>
		<polygon class="st0" points="83.3,920 83.3,920.4 83.5,920.4 83.6,920.2 83.6,920.2 83.5,920.2 83.4,920.2 83.4,920 		"/>
		<g>
			<path class="st0" d="M81.3,919.5c-0.1,0-0.3,0-0.4,0.1v0.3v0.1l-0.1,0.1c0.3,0,0.4,0,0.5,0.2c0.4-0.2,0.9-0.2,1.3-0.3
				C82.3,919.9,81.8,919.5,81.3,919.5"/>
			<path class="st0" d="M98.3,933.4c-3.7,9.1-12.6,13.7-21.4,13.7s-17.6-4.5-21.3-13.5c3.5,10.1,12.3,15,21.1,15
				C85.7,948.5,94.7,943.5,98.3,933.4"/>
			<path class="st0" d="M76.8,905.2c-10.7,0-18.1,5.7-21.4,15.1c2.7-6.6,8-10.7,14.2-12.5c-0.1,0.2-0.2,0.4-0.2,0.4
				c-0.1,0.2-0.2,0.5-0.4,0.6c-0.5,0.2-0.8,1.1-1.1,1.4l-0.1,0.2v0.1v0.2c-0.2,0.7-1,1.2-1.4,1.8l-0.2,0.4l-0.1,0.4l-0.1,0.4
				l-0.1,0.3v0.2c0.5,0.8,0.6,1.7,0.4,2.6h0.1l0.1,0.1l0.1,0.2l0.1,0.2l0.1,0.2l0.1,0.2L67,918l0.1,0.2l0.1,0.1
				c0.5-0.8-0.5-2-0.3-2.9l0.1-0.1h0.1c0.1,1.3,0.9,2.5,1.5,3.6l-0.1,0.1l-0.2,0.2v0.2l0.3,0.1l-0.2,0.4h0.2h0.1h0.2H69h0.2l0.1,0.1
				l0.1,0.1l0.2,0.2l0.3,0.2l0,0H70h4.4c0.1-0.6,0.3-1.2,0.7-1.6H75h-0.5h-0.1l-0.1-0.1l-0.1-0.1h-0.1c-0.2,0.1-0.4,0.8-0.6,0.9
				c-0.2,0.5-1.1,0.5-1.5,0.5c-0.1,0-0.2,0-0.2,0c-0.1,0-0.1-0.1-0.4-0.3c-0.1-0.2-0.3-0.5-0.4-0.7c-0.7-1.3,0.4-3.2,1.9-3.2
				c0.3,0,0.5,0.1,0.8,0.2c0.3-0.3,0.6-0.4,0.8-0.4c0.2,0,0.3,0,0.4,0.1c0.1,0,0.3,0.1,0.5,0.1c0.1,0,0.3,0,0.4-0.1l0.4-0.1l0.2,0.1
				l0.2,0.2l0.1,0.3l0.1,0.4l0.2,0.4l0.2,0.3l0.4,0.2l0.1-0.4l-0.1-0.4l-0.1-0.4l-0.3-0.7l-0.1-0.3l0.1-0.3l0.3-0.2
				c0.5-0.2,1.3-0.7,1.5-1.2l0.1-0.3l0.1-0.3l0.2-0.4l0.1-0.2l0.1-0.1l0.1-0.1h0.2l0.2-0.1l0.2-0.1l0.1-0.1l0.1-0.2v-0.1v-0.1v-0.1
				h0.1h0.1h0.2h0.2l0.2-0.1l0.3-0.1l0.2-0.2l-0.2-0.1l-0.2-0.1l-0.2-0.1l-0.2-0.1l-0.2-0.1l-0.1-0.1v-0.3l0.2-0.1h0.2h0.3l0.4,0.1
				l0.4,0.1h0.4l0.3-0.1V910c-1-0.4-1.5-1-2.4-1.4l-0.2,0.1l-0.1,0.1h-0.3h-0.2l-0.1-0.1l-0.2-0.1l-0.2-0.1
				c-0.3-0.2-0.5-0.3-0.7-0.3h-0.1h-0.1c-0.2,0-0.3,0-0.5-0.2l-0.1,0.3v0.4l0.1,0.1l0.1,0.1h0.2h0.1l0.1,0.1l0.1,0.1h-0.2H78
				l-0.2,0.1l-0.1,0.2v0.4v0.1v0.1l-0.1,0.1h-0.1h-0.2c-0.7-0.4-0.2-0.5-0.9-0.8c-0.5-0.3-1.4-0.1-1.8-0.5l0.1-0.1l0.1-0.1l0.2-0.1
				l0.2-0.2l0.2-0.1l0.3-0.2l0.3-0.2l0.4-0.1c0.8-0.4,1.8-0.6,2.7-0.6c0.4,0,0.8,0,1.1,0.1c0,0-0.1,0-0.2-0.1
				c8.1,0.9,15.2,5.4,18.3,13.4C95.3,911.5,87.1,905.2,76.8,905.2 M80.2,907.2L80.2,907.2L80.2,907.2"/>
			<path class="st0" d="M32.4,922.4h-3.5l0.6,0.6c0.3,4.3-1.4,7.3,4.1,7.4c5.7-0.1,3.9-3,4.1-7.4l0.5-0.5h-3.6l0.6,0.6v4.7l-0.1,0.3
				l-0.2,0.2c-0.3,0.4-1,0.5-1.4,0.5h-0.4l-0.3-0.1l-0.3-0.1l-0.2-0.2l-0.2-0.2l-0.2-0.2l-0.1-0.3V923L32.4,922.4z"/>
		</g>
		<polygon class="st0" points="50.5,922.5 47.6,922.5 48,923 48,927 43.8,922.5 41.1,922.5 41.7,923 41.7,929.8 41.1,930.4 
			44.1,930.4 43.5,929.8 43.5,925.8 48,930.4 50,930.4 50,923 		"/>
		<polygon class="st0" points="57.3,922.5 53.7,922.5 54.3,923 54.3,929.8 53.7,930.4 57.3,930.4 56.8,929.8 56.8,923 		"/>
		<polygon class="st0" points="69,922.5 66,922.5 66.6,923 64.4,927.4 62.4,923 63,922.5 59.4,922.5 63.3,930.4 65,930.4 		"/>
		<polygon class="st0" points="79,922.5 71.1,922.5 71.6,923 71.6,929.8 71.1,930.4 79,930.4 79,928.2 78.3,928.8 74.1,928.8 
			74.1,927.2 76.8,927.2 77.4,927.7 77.4,925.2 76.8,925.7 74.1,925.7 74.1,924 78.3,924 79,924.5 		"/>
		<g>
			<path class="st0" d="M87.2,922.5H82l0.6,0.6v6.7l-0.6,0.6h3.5l-0.6-0.6v-2.2h1l1.6,2.2l-0.6,0.6h4l-2.3-3.1
				c1.2-0.4,1.9-1.2,1.9-2.4v-0.5l-0.2-0.4l-0.2-0.4l-0.3-0.4l-0.5-0.3l-0.6-0.2l-0.7-0.1L87.2,922.5z M86.1,926c-0.4,0-0.8,0-1-0.1
				V924h2.1l0.2,0.1h0.2c0.4,0.2,0.5,0.5,0.5,0.8C88,926,87,926,86.1,926"/>
			<path class="st0" d="M101.1,922.2l-0.7,0.6c-0.9-0.3-1.9-0.6-2.9-0.6s-2,0.2-2.8,0.7c-0.5,0.4-0.9,1-0.9,1.5
				c-0.1,1.5,1.3,2.2,2.6,2.6l0.4,0.1l0.4,0.1l0.4,0.1l0.4,0.1l0.3,0.1l0.2,0.2l0.2,0.2v0.3c0,0.5-0.7,0.6-1.1,0.6
				c-1.4-0.1-2.7-0.5-3.9-1.2v2.9l0.7-0.7c0.9,0.3,2.2,0.5,3.5,0.5c1.8,0,3.5-0.6,3.6-2.5c0-1.7-1.9-2.2-3.4-2.6
				c-0.5,0-2.4-0.7-1.4-1.3c0.2-0.1,0.5-0.2,0.8-0.2c1.1,0,2.8,0.5,3.5,0.9v-2.4L101.1,922.2L101.1,922.2z"/>
		</g>
		<path class="st0" d="M109.9,922.5h-2.8l0.3,0.6l-3.7,7.2h3.1l-0.6-0.6l0.5-0.9h4l0.4,0.9l-0.6,0.6l3.6,0.1L109.9,922.5z
			 M107.2,927.5l1.4-2.8l1.4,2.8H107.2z"/>
		<polygon class="st0" points="119.7,922.5 116.2,922.5 116.8,923 116.8,929.8 116.2,930.4 123.8,930.4 123.8,928.2 123.3,928.8 
			119.2,928.8 119.2,923 		"/>
		<g>
			<path class="st0" d="M122.9,923L122.9,923h-0.2h-0.2l-0.2,0.1l-0.1,0.2v0.1c0.1-0.1,0.2-0.2,0.4-0.2c0.1,0,0.3,0.1,0.4,0.2
				l0.1-0.2L122.9,923z M122.2,923.4c0,0.1-0.1,0.1-0.1,0.2l0.2,0.3l-0.1-0.2V923.4L122.2,923.4z M123.1,923.9L123.1,923.9l-0.2,0.2
				h-0.1h-0.1h-0.2l-0.2-0.1l0.2,0.1h0.2h0.1h0.1h0.1L123.1,923.9L123.1,923.9z"/>
			<path class="st0" d="M122.7,922.5c-0.6,0-1.2,0.4-1.2,1c0,0.7,0.6,1.1,1.1,1.1c0.6,0,1.1-0.4,1.2-1.1
				C123.8,922.9,123.2,922.5,122.7,922.5 M122.6,924.5c-0.5,0-1-0.3-1-1c0-0.6,0.6-0.9,1.1-0.9s1,0.3,1.1,0.9
				C123.7,924.2,123.2,924.5,122.6,924.5"/>
			<path class="st0" d="M234,923.5l-0.3-0.4c-1.2-1.4-2.7-2.7-4.5-3.8c-1.7-1-3.6-1.6-5.4-1.9l-0.5-0.1l0.2-0.5c0.7-1.7,1-3.7,1-5.6
				s-0.4-3.9-1.1-5.7l-0.2-0.5l0.5-0.1c1.9-0.3,3.8-1,5.5-1.9c1.7-1,3.3-2.2,4.5-3.7l0.3-0.4l0.3,0.4c1.3,1.4,2.7,2.7,4.4,3.7
				s3.6,1.6,5.6,1.9l0.5,0.1l-0.2,0.5c-0.7,1.8-1.1,3.7-1.1,5.6c0,1.9,0.3,3.9,1.1,5.7l0.2,0.5l-0.5,0.1c-1.9,0.3-3.9,1-5.5,1.9
				c-1.6,1-3.1,2.1-4.4,3.7L234,923.5z M224.4,916.7c1.8,0.4,3.6,1.1,5.2,1.9c1.7,1,3.3,2.2,4.4,3.6c1.3-1.4,2.7-2.6,4.3-3.5
				c1.6-1,3.5-1.5,5.3-1.9c-0.6-1.7-1-3.7-1-5.5s0.3-3.7,1-5.5c-1.8-0.4-3.7-1.1-5.3-1.9c-1.6-1-3.2-2.1-4.3-3.6
				c-1.3,1.4-2.7,2.6-4.4,3.6c-1.6,1-3.5,1.5-5.3,1.9c0.7,1.7,1,3.6,1,5.5S224.9,915,224.4,916.7"/>
			<path class="st0" d="M233.6,909.7h0.8v-1.9l4.7,0.1V907l-4.7,0.1v-1.9c0.7-0.2,1.2-0.8,1.2-1.4c0-0.9-0.7-1.5-1.5-1.5
				c-0.9,0-1.5,0.7-1.5,1.5c0,0.7,0.5,1.3,1.2,1.4v1.9l-4.5-0.2v0.8l4.5-0.1v2L233.6,909.7L233.6,909.7z M233.3,903.9
				c0-0.4,0.3-0.8,0.8-0.8c0.4,0,0.8,0.3,0.8,0.8c0,0.4-0.3,0.8-0.8,0.8S233.3,904.2,233.3,903.9"/>
			<path class="st0" d="M240.3,913.4c-0.1,1.8-2.4,3.9-4.9,3.9c-0.7,0-0.9-0.5-0.9-1V914c0.5,0,1-0.1,1.3-0.4V913
				c-0.9,0.8-1.6,1-2.2,0.4c-0.5-0.5-0.5-1.3-0.5-1.6c0-0.8,0.3-1.8,1.3-1.8c0.5,0,0.8,0.2,1.1,0.4c0.3,0.3,0.5,0.5,0.5,0.5v-0.1
				v-1.2h-0.2l-0.1,0.1c0,0.2-0.7-0.1-1.3-0.1c-0.7,0-1.3,0.3-1.5,0.6c-0.4,0.4-0.6,1-0.6,1.5s0.2,1.3,0.6,1.6
				c0.3,0.2,0.5,0.5,1,0.6v2.2c0,0.4-0.2,1.1-0.9,1.1c-2.6,0-4.8-2-4.9-3.9l-1.3-0.8c1.2,5.1,7.3,5.7,7.5,6.8
				c0.2-1.1,6.4-1.6,7.5-6.8L240.3,913.4z"/>
			<path class="st0" d="M227.6,910h0.4c0.2,0,0.2,0,0.3,0.2s1.4,3.1,1.5,3.6c0,0.1,0.1,0.1,0.1,0.1c0.1,0,0.1,0,0.1-0.1
				c0.1-0.1,1.3-3.3,1.5-3.6c0.1-0.2,0.4-0.3,0.5-0.3h0.1h0.1v-0.1h-0.1h-1.3v0.1v0.1h0.2c0.3,0,0.3,0.1,0.3,0.2
				c-0.1,0.2-1,2.4-1,2.4l-1.1-2.6h0.6v-0.1v-0.1h-0.1h-2.1V910z"/>
			<path class="st0" d="M236.3,909.9L236.3,909.9v0.2h0.6v3.8h-0.5v0.1v0.2h0.1h1.8c0.1,0,0.1,0,0.1-0.1V914h-0.1h-0.6v-1.6h0.6
				c1.1,0,1.6-0.5,1.6-1.2c0-0.4-0.2-0.7-0.5-0.9c-0.4-0.2-0.8-0.3-1.4-0.3L236.3,909.9L236.3,909.9z M239,911c0,0.2,0,0.5-0.2,0.6
				c-0.2,0.2-0.5,0.4-0.8,0.4c-0.2,0-0.3,0-0.5-0.1v-2c0.1-0.1,0.3,0,0.4,0C238.4,910,239,910.2,239,911"/>
		</g>
		<polygon class="st0" points="193,928.5 193,929 194.9,929 191.7,938.5 188.3,929 189.8,929 189.8,928.5 184.8,928.5 184.8,929 
			186.3,929 190.7,941.5 191.2,941.5 195.4,929 196.9,929 196.9,928.5 		"/>
		<g>
			<path class="st0" d="M200.7,938.9h0.4c-0.1,0.6-0.3,1.1-0.6,1.4c-0.3,0.4-0.6,0.7-1,0.9s-0.9,0.3-1.4,0.3c-0.9,0-1.6-0.4-2.3-1.1
				c-0.7-0.7-1-1.6-1-2.6c0-0.8,0.1-1.4,0.4-2.1s0.7-1.3,1.2-1.6c0.5-0.4,1.1-0.6,1.6-0.6s1.1,0.1,1.5,0.4c0.5,0.3,0.8,0.7,1.1,1.2
				s0.4,1.2,0.4,1.8h-4.6v0.8c0,1.2,0.1,1.9,0.4,2.6c0.3,0.7,0.8,0.9,1.6,0.9c0.3,0,0.6-0.1,1-0.3c0.3-0.2,0.6-0.5,0.9-0.8
				C200.6,939.7,200.6,939.2,200.7,938.9 M196.5,936.4h3.1v-0.7c0-0.5-0.1-0.8-0.2-1.1c-0.1-0.3-0.3-0.5-0.5-0.6s-0.5-0.2-0.8-0.2
				c-0.4,0-0.8,0.2-1,0.5c-0.3,0.3-0.4,0.6-0.5,0.8C196.6,935.5,196.5,935.8,196.5,936.4"/>
			<path class="st0" d="M209.9,940.9v0.5h-2.3V940c-0.2,0.5-0.6,1-1,1.3c-0.5,0.3-1,0.5-1.5,0.5c-1.4,0-2-0.6-2-1.8v-5.6h-1v-0.5
				h2.3v5.9c0,1,0.4,1.4,1.1,1.4c0.6,0,1.2-0.3,1.5-0.8c0.4-0.5,0.6-1.1,0.6-1.7v-4.3h-1.4v-0.5h2.7v7.1h1L209.9,940.9L209.9,940.9z
				"/>
			<path class="st0" d="M269.9,940.9v0.5h-2.1V940c-0.2,0.5-0.5,1-1,1.3c-0.4,0.3-0.9,0.5-1.4,0.5c-1.3,0-1.9-0.6-1.9-1.8v-5.6h-0.9
				v-0.5h2.1v5.9c0,1,0.3,1.4,1,1.4c0.6,0,1.1-0.3,1.4-0.8c0.4-0.5,0.6-1.1,0.6-1.7v-4.3h-1v-0.5h2.2v7.1h1L269.9,940.9L269.9,940.9
				z"/>
		</g>
		<polygon class="st0" points="210.9,934 210.1,934 210.1,933.5 213.9,933.5 213.9,934 212.5,934 214.3,939.2 215.9,934 214.9,934 
			214.9,933.5 217.1,933.5 217.1,934 216.4,934 214.1,941.5 213.6,941.5 		"/>
		<g>
			<path class="st0" d="M223.1,938.9h0.4c-0.1,0.6-0.3,1.1-0.6,1.4c-0.3,0.4-0.6,0.7-1,0.9s-0.9,0.3-1.3,0.3c-0.9,0-1.6-0.4-2.3-1.1
				c-0.7-0.7-1-1.6-1-2.6c0-0.8,0.1-1.4,0.4-2.1s0.7-1.3,1.2-1.6c0.5-0.4,1.1-0.6,1.6-0.6c0.6,0,1.1,0.1,1.5,0.4
				c0.5,0.3,0.8,0.7,1.1,1.2s0.4,1.2,0.4,1.8h-4.6v0.8c0,1.2,0.1,1.9,0.4,2.6c0.3,0.7,0.8,0.9,1.6,0.9c0.3,0,0.6-0.1,1-0.3
				c0.3-0.2,0.6-0.5,0.9-0.8C222.9,939.7,223,939.2,223.1,938.9 M218.9,936.4h3.1v-0.7c0-0.5-0.1-0.8-0.2-1.1
				c-0.1-0.3-0.3-0.5-0.5-0.6s-0.5-0.2-0.8-0.2c-0.4,0-0.8,0.2-1,0.5c-0.3,0.3-0.4,0.6-0.5,0.8C219,935.5,218.9,935.8,218.9,936.4"
				/>
		</g>
		<polygon class="st0" points="241.8,941.2 237.5,941.2 237.5,940.9 238.9,940.9 238.9,929 237.5,929 237.5,928.5 240.4,928.5 
			240.4,940.9 241.8,940.9 		"/>
		<g>
			<path class="st0" d="M246.3,941.2h-3.9v-0.5h1.3V934h-1.3v-0.5h2.7v7.1h1.2V941.2z M243.6,930.5c0-0.3,0.1-0.5,0.3-0.7
				s0.4-0.3,0.7-0.3c0.2,0,0.3,0,0.5,0.1s0.3,0.2,0.4,0.3s0.1,0.3,0.1,0.5c0,0.3-0.1,0.6-0.3,0.8s-0.4,0.3-0.7,0.3s-0.5-0.1-0.7-0.3
				C243.7,931,243.6,930.8,243.6,930.5"/>
			<path class="st0" d="M252.8,938.9h0.4c-0.2,0.8-0.6,1.4-1,1.8c-0.4,0.5-1.1,0.7-1.8,0.8c-0.8,0-1.4-0.2-1.9-0.7
				c-0.5-0.4-0.9-1-1.1-1.5c-0.2-0.6-0.3-1.2-0.3-1.6c0-1.1,0.2-1.8,0.6-2.5s0.9-1.1,1.4-1.4c0.5-0.3,1-0.4,1.4-0.4
				c0.3,0,0.6,0,0.9,0.1s0.6,0.2,0.9,0.4s0.5,0.4,0.7,0.7s0.3,0.6,0.3,1c0,0.3-0.1,0.5-0.2,0.7s-0.3,0.3-0.6,0.3
				c-0.2,0-0.4-0.1-0.6-0.3s-0.2-0.4-0.2-0.7c0-0.2,0-0.4,0.1-0.5c0.2-0.3,0.4-1.3-1-1.3c-0.5,0-1,0.2-1.3,0.5s-0.5,0.7-0.6,1.3
				s-0.2,1.3-0.2,2.1c0,0.4,0,0.7,0.1,1c0,0.3,0.1,0.6,0.1,0.8c0.1,0.2,0.1,0.4,0.2,0.6c0.3,0.7,0.8,1.1,1.6,1.1
				c0.5,0,1-0.2,1.4-0.6C252.3,940,252.8,939.5,252.8,938.9"/>
			<path class="st0" d="M260.2,944.2h1v0.5h-3.4v-0.5h1.1v-4c-0.4,0.9-1.2,1.3-2.1,1.3c-0.6,0-1.1-0.2-1.5-0.6
				c-0.5-0.4-0.8-0.9-1.1-1.4c-0.3-0.6-0.4-1.3-0.4-1.9c0-1,0.2-1.7,0.5-2.3s0.8-1.1,1.2-1.4c0.5-0.3,0.9-0.4,1.3-0.4
				s0.9,0.1,1.3,0.4c0.4,0.3,0.7,0.7,0.9,1.2v-1.4h2.3v0.5h-1L260.2,944.2L260.2,944.2z M259,937.4c0-0.8,0-1.3-0.1-1.6
				c-0.1-0.4-0.3-0.8-0.6-1.1c-0.4-0.5-0.8-0.7-1.4-0.7c-0.5,0-0.9,0.2-1.1,0.6c-0.2,0.4-0.4,0.9-0.5,1.3c-0.1,0.5-0.1,1.2-0.1,1.8
				s0,1.2,0.1,1.6c0.1,0.5,0.2,0.9,0.5,1.2s0.6,0.5,1.1,0.5c0.2,0,0.5-0.1,0.8-0.2c0.3-0.1,0.6-0.4,0.8-0.8c0.2-0.4,0.4-1,0.4-1.6
				V938C259,937.9,259,937.5,259,937.4"/>
			<path class="st0" d="M274.2,933.5c0.6,0,1.2,0.2,1.6,0.5c0.5,0.3,0.9,0.9,1.2,1.4c0.3,0.6,0.5,1.3,0.5,2c0,0.6-0.1,1.2-0.3,1.6
				c-0.2,0.5-0.4,0.9-0.7,1.3c-0.3,0.4-0.7,0.7-1.1,0.9s-0.9,0.3-1.3,0.3c-0.5,0-0.9-0.1-1.3-0.3s-0.8-0.5-1.1-0.9
				c-0.3-0.4-0.6-0.8-0.7-1.3c-0.2-0.5-0.3-1.1-0.3-1.6c0-0.8,0.2-1.4,0.5-2s0.7-1.1,1.3-1.4C273.1,933.7,273.6,933.5,274.2,933.5
				 M274.2,933.9c-0.6,0-1,0.2-1.2,0.5s-0.4,0.8-0.5,1.3s-0.1,1.1-0.1,1.8s0,1.4,0.1,1.8c0.1,0.5,0.2,0.9,0.5,1.3
				c0.3,0.4,0.7,0.6,1.2,0.6s1-0.2,1.2-0.6c0.2-0.4,0.4-0.8,0.5-1.3s0.1-1.1,0.1-1.8s0-1.4-0.1-1.8c-0.1-0.5-0.2-0.9-0.5-1.3
				C275.2,934,274.8,933.9,274.2,933.9"/>
			<path class="st0" d="M278.4,934v-0.5h1.1v-1.9l1.4-0.8v2.6h1.6v0.5h-1.6v5.9c0,0.3,0,0.5,0.1,0.7s0.3,0.2,0.6,0.2
				c0.2,0,0.4-0.1,0.6-0.2c0.1-0.1,0.3-0.3,0.5-0.6l0.3,0.2c-0.1,0.2-0.3,0.4-0.5,0.6c-0.2,0.2-0.5,0.3-0.8,0.4
				c-0.3,0.1-0.5,0.1-0.8,0.1c-0.6,0-1-0.1-1.2-0.4c-0.2-0.3-0.3-0.7-0.3-1.3v-5.7L278.4,934z"/>
			<path class="st0" d="M234.3,928.7c0.5,0.2,0.8,0.3,0.9,0.3c0.1,0,0.3-0.1,0.4-0.2c0.1-0.1,0.2-0.3,0.2-0.5h0.5v4.3h-0.4
				c-0.2-0.9-0.5-1.5-0.7-2.1c-0.4-1-1.3-1.6-2.2-1.6c-1.7,0-3.1,1.9-3.1,6c0,3,1.2,6.2,3.4,6.2c1.8,0,2.8-1.8,3.1-3.7h0.4
				c-0.5,2.8-1.5,4.1-3.9,4.1c-1.4,0-2.7-0.7-3.6-2c-0.8-1.3-1.2-2.7-1.2-4.5s0.4-3.5,1.3-4.7c0.9-1.3,2-2,3.5-2
				C233.3,928.4,233.8,928.5,234.3,928.7"/>
		</g>
	</g>
</g>
</svg>
