<?xml version="1.0" encoding="utf-8"?>
<!-- Generator: Adobe Illustrator 19.0.0, SVG Export Plug-In . SVG Version: 6.00 Build 0)  -->
<svg version="1.1" id="Layer_1" xmlns="http://www.w3.org/2000/svg" xmlns:xlink="http://www.w3.org/1999/xlink" x="0px" y="0px"
	 viewBox="-429.17 79.9 555.1 309.485" style="enable-background:new -429.17 79.9 555.1 309.485;" xml:space="preserve">
<style type="text/css">
	.st0{fill:#D6D6D6;}
</style>
<g>
	<g>
		<title>Logos</title>
		<desc>Created with Sketch.</desc>
		<g>
			<g>
				<path class="st0" d="M-347.807,195.482c-15.202,0-26.748,12.123-26.748,26.267c0,12.508,8.275,19.243,8.275,19.243
					c0.77,0.77,0.674,1.058,0,1.732c0,0-8.467,7.505-8.467,18.955c0,15.876,12.797,26.556,26.748,26.556
					c15.683,0,26.748-12.508,26.748-26.267c0-11.835-8.082-18.859-8.082-18.859c-1.155-1.058-1.155-1.347,0-2.117
					c0,0,8.082-6.639,8.082-18.955C-320.963,207.606-332.412,195.579-347.807,195.482 M-344.055,210.3
					c0.385-0.77,1.155-1.347,2.021-1.347c1.155,0,2.117,1.058,2.117,2.117c0,1.058-1.058,2.117-2.117,2.117
					c-0.962,0-1.732-0.481-2.021-1.347c-0.385,0.77-1.155,1.347-2.021,1.347c-0.77,0-1.732-0.481-2.021-1.347
					c-0.385,0.77-1.155,1.347-2.021,1.347c-0.77,0-1.443-0.385-1.828-1.058c-0.096,0.289-0.385,0.385-0.674,0.674
					c0.481,0.385,0.962,1.058,0.962,1.828c0,0.77-0.385,1.443-0.962,1.732c0.481,0.385,0.962,1.058,0.962,1.828
					c0,0.77-0.385,1.443-0.962,1.732c0.096,0.096,0.385,0.289,0.481,0.385c0.385-0.481,1.058-0.77,1.732-0.77
					c0.77,0,1.539,0.385,1.828,1.058c0.385-0.674,1.155-1.058,1.828-1.058c0.77,0,1.539,0.385,1.828,1.058
					c0.385-0.674,1.058-1.058,1.828-1.058c1.155,0,2.117,1.058,2.117,2.117s-1.058,2.117-2.117,2.117
					c-0.77,0-1.539-0.385-1.828-1.058c-0.385,0.674-1.058,1.058-1.828,1.058c-0.77,0-1.539-0.385-1.828-1.058
					c-0.385,0.674-1.058,1.058-1.828,1.058c-0.674,0-1.347-0.289-1.732-0.77c-0.096,0.096-0.289,0.289-0.481,0.385
					c0.481,0.385,0.962,1.058,0.962,1.828c0,0.77-0.385,1.443-0.962,1.732c0.481,0.385,0.962,1.058,0.962,1.828
					c0,0.77-0.385,1.443-0.962,1.732c0.289,0.096,0.385,0.385,0.674,0.674c0.385-0.674,1.058-1.058,1.828-1.058
					c0.962,0,1.732,0.481,2.021,1.347c0.385-0.77,1.155-1.347,2.021-1.347c0.77,0,1.732,0.481,2.021,1.347
					c0.385-0.77,1.155-1.347,2.021-1.347c1.155,0,2.117,1.058,2.117,2.117s-1.058,2.117-2.117,2.117
					c-0.962,0-1.732-0.481-2.021-1.347c-0.385,0.77-1.155,1.347-2.021,1.347c-0.77,0-1.732-0.481-2.021-1.347
					c-0.385,0.77-1.155,1.347-2.021,1.347c-0.77,0-1.443-0.385-1.828-1.058c-0.385,0.674-1.058,1.058-1.828,1.058
					c-1.155,0-2.117-1.058-2.117-2.117c0-0.77,0.385-1.443,0.962-1.828c-0.481-0.385-0.962-1.058-0.962-1.732
					c0-0.77,0.385-1.443,0.962-1.828c-0.481-0.385-0.962-1.058-0.962-1.732c0-0.77,0.385-1.443,0.962-1.828
					c-0.481-0.385-0.962-1.058-0.962-1.732c0-0.77,0.385-1.443,0.962-1.828c-0.481-0.385-0.962-1.058-0.962-1.732
					c0-0.77,0.385-1.443,0.962-1.828c-0.481-0.385-0.962-1.058-0.962-1.732c0-0.77,0.385-1.443,0.962-1.828
					c-0.481-0.385-0.962-1.058-0.962-1.732c0-1.155,0.962-2.117,2.117-2.117c0.77,0,1.443,0.385,1.828,1.058
					c0.385-0.674,1.058-1.058,1.828-1.058c0.962,0,1.732,0.481,2.021,1.347c0.385-0.77,1.155-1.347,2.021-1.347
					C-345.306,208.664-344.44,209.626-344.055,210.3 M-344.055,250.326c0.385-0.77,1.155-1.347,2.021-1.347
					c1.155,0,2.117,1.058,2.117,2.117c0,1.058-1.058,2.117-2.117,2.117c-0.962,0-1.732-0.481-2.021-1.347
					c-0.385,0.77-1.155,1.347-2.021,1.347c-0.77,0-1.732-0.481-2.021-1.347c-0.385,0.77-1.155,1.347-2.021,1.347
					c-0.77,0-1.443-0.385-1.828-1.058c-0.096,0.289-0.385,0.385-0.674,0.674c0.481,0.385,0.962,1.058,0.962,1.732
					c0,0.77-0.385,1.443-0.962,1.828c0.481,0.385,0.962,1.058,0.962,1.732c0,0.77-0.385,1.443-0.962,1.828
					c0.096,0.096,0.385,0.289,0.481,0.385c0.385-0.481,1.058-0.77,1.732-0.77c0.77,0,1.539,0.385,1.828,1.058
					c0.385-0.674,1.155-1.058,1.828-1.058c0.77,0,1.539,0.385,1.828,1.058c0.385-0.674,1.058-1.058,1.828-1.058
					c1.155,0,2.117,1.058,2.117,2.117c0,1.155-1.058,2.117-2.117,2.117c-0.77,0-1.539-0.385-1.828-1.058
					c-0.385,0.674-1.058,1.058-1.828,1.058c-0.77,0-1.539-0.385-1.828-1.058c-0.385,0.674-1.058,1.058-1.828,1.058
					c-0.674,0-1.347-0.289-1.732-0.77c-0.096,0.096-0.289,0.289-0.481,0.385c0.481,0.385,0.962,1.058,0.962,1.732
					c0,0.77-0.385,1.443-0.962,1.732c0.481,0.385,0.962,1.058,0.962,1.828c0,0.77-0.385,1.443-0.962,1.732
					c0.289,0.096,0.385,0.385,0.674,0.674c0.385-0.674,1.058-1.058,1.828-1.058c0.962,0,1.732,0.481,2.021,1.347
					c0.385-0.77,1.155-1.347,2.021-1.347c0.77,0,1.732,0.481,2.021,1.347c0.385-0.77,1.155-1.347,2.021-1.347
					c1.155,0,2.117,1.058,2.117,2.117c0,1.155-1.058,2.117-2.117,2.117c-0.962,0-1.732-0.481-2.021-1.347
					c-0.385,0.77-1.155,1.347-2.021,1.347c-0.77,0-1.732-0.481-2.021-1.347c-0.385,0.77-1.155,1.347-2.021,1.347
					c-0.77,0-1.443-0.385-1.828-1.058c-0.385,0.674-1.058,1.058-1.828,1.058c-1.155,0-2.117-1.058-2.117-2.117
					c0-0.77,0.385-1.443,0.962-1.732c-0.481-0.385-0.962-1.058-0.962-1.732c0-0.77,0.385-1.443,0.962-1.828
					c-0.481-0.385-0.962-1.058-0.962-1.732c0-0.77,0.385-1.443,0.962-1.732c-0.481-0.385-0.962-1.058-0.962-1.732
					c0-0.77,0.385-1.443,0.962-1.828c-0.481-0.385-0.962-1.058-0.962-1.828c0-0.77,0.385-1.443,0.962-1.732
					c-0.481-0.385-0.962-1.058-0.962-1.828s0.385-1.443,0.962-1.732c-0.481-0.385-0.962-1.058-0.962-1.828
					c0-1.155,0.962-2.117,2.117-2.117c0.77,0,1.443,0.385,1.828,1.058c0.385-0.674,1.058-1.058,1.828-1.058
					c0.962,0,1.732,0.481,2.021,1.347c0.385-0.77,1.155-1.347,2.021-1.347C-345.306,248.787-344.44,249.556-344.055,250.326"/>
				<path class="st0" d="M-203.289,238.01h-2.213c-3.945,0-5.099,2.117-5.099,4.33v1.443h-2.117v2.887h2.117v11.354h4.522V246.67
					h2.79v-3.079h-2.598v-1.155c0-0.962,0.674-1.347,1.155-1.347h1.732v-3.175L-203.289,238.01L-203.289,238.01z"/>
			</g>
			<rect x="-201.557" y="243.206" class="st0" width="4.234" height="14.625"/>
			<rect x="-201.461" y="238.01" class="st0" width="4.234" height="3.464"/>
			<g>
				<path class="st0" d="M-185.104,243.206c-3.56,0-4.522,0.77-5.292,2.502v-2.117h-4.234v14.529h4.33v-6.543
					c0.096-1.732,0.385-4.33,3.656-4.33c0.385,0,0.77,0,1.347,0.096L-185.104,243.206L-185.104,243.206z"/>
				<path class="st0" d="M-177.984,243.206c-3.175,0-6.35,1.155-6.35,4.907c0,2.502,2.213,3.271,4.618,3.945
					c2.887,0.77,4.33,0.674,4.522,1.828c0.289,1.732-1.828,1.828-2.502,1.828c-1.539,0-3.079-0.481-3.079-2.117h-3.849
					c0.096,3.849,3.464,5.003,6.831,5.003c3.271,0,6.735-1.539,6.735-5.292c0.096-5.388-8.948-3.271-8.948-6.062
					c0-0.77,1.058-1.347,2.213-1.347c1.347,0,2.79,0.674,2.598,1.828h3.849C-171.634,244.168-174.809,243.206-177.984,243.206"/>
				<path class="st0" d="M-163.937,238.972h-4.234v4.618h-2.021v3.079h2.021v7.505c0,2.405-0.096,3.945,5.099,3.945
					c0.481,0,1.155,0,1.828,0v-3.175c-2.79,0-2.79-0.096-2.598-1.732v-6.447h2.598v-3.079h-2.598v-4.715H-163.937z"/>
				<path class="st0" d="M-139.113,238.01h-4.234v7.024c-0.962-1.443-2.502-1.828-4.234-1.828c-4.33,0-6.447,3.56-6.447,7.505
					c0,3.945,2.117,7.794,6.639,7.794c1.732,0,3.175-0.385,4.137-1.828l0.096,1.539h4.137V238.01H-139.113z M-146.714,255.426
					c-2.117,0-3.271-1.828-3.271-4.618c0-3.656,1.828-4.522,3.271-4.522c2.213,0,3.271,1.828,3.271,4.522
					C-143.442,253.501-144.308,255.426-146.714,255.426"/>
			</g>
			<rect x="-136.515" y="243.206" class="st0" width="4.234" height="14.625"/>
			<rect x="-136.419" y="238.01" class="st0" width="4.137" height="3.464"/>
			<g>
				<path class="st0" d="M-120.062,243.206c-3.56,0-4.522,0.77-5.292,2.502v-2.117h-4.137v14.336h4.33v-6.35
					c0.096-1.828,0.385-4.33,3.56-4.33c0.385,0,0.962,0,1.443,0.096v-4.137L-120.062,243.206L-120.062,243.206z"/>
				<path class="st0" d="M-112.076,243.206c-4.522,0-7.505,3.271-7.505,7.697c0,4.522,2.79,7.697,7.505,7.697
					c3.271-0.096,5.677-1.155,6.831-4.618h-4.137c-0.385,0.674-1.155,1.539-2.887,1.539c-1.347,0-3.271-1.058-3.464-3.56h10.68
					C-104.763,247.247-107.072,243.206-112.076,243.206 M-115.54,249.171c0-1.155,0.962-2.887,3.271-2.887
					c1.828,0,2.887,1.058,2.887,2.887H-115.54z"/>
				<path class="st0" d="M-95.911,243.206c-4.715,0-7.505,3.271-7.505,7.794c0,4.715,2.887,7.505,7.409,7.505
					c3.849,0,6.447-1.828,7.024-5.677l-3.945-0.096c-0.289,1.732-1.443,2.598-3.175,2.598c-2.117,0-3.079-2.117-3.079-4.522
					c0-2.117,0.962-4.715,3.271-4.715c1.443,0,2.598,1.058,2.887,2.598h3.945C-89.272,244.842-92.448,243.206-95.911,243.206"/>
				<path class="st0" d="M-81.864,239.165h-4.33v4.618h-1.924v3.079h2.021v7.505c0,2.405-0.289,3.849,5.581,3.849
					c0.385,0,0.962,0,1.443,0v-3.175c-2.79,0-2.79,0-2.79-1.732v-6.543h2.598v-3.079h-2.598V239.165z"/>
				<path class="st0" d="M-2.966,259.082h-2.021c-0.289,0-0.385,0.096-0.385,0.385v8.756c0,0.289,0.096,0.385,0.385,0.385h5.677
					c0.289,0,0.385-0.096,0.385-0.385v-1.058c0-0.289-0.096-0.385-0.385-0.385h-3.175h-0.096v-7.216
					C-2.581,259.082-2.677,259.082-2.966,259.082"/>
				<path class="st0" d="M9.639,259.082H8.099c-0.289,0-0.385,0.096-0.385,0.385H7.81v5.965c0,1.058-0.481,1.539-1.539,1.539
					s-1.539-0.481-1.539-1.539v-5.965c0-0.289-0.096-0.385-0.385-0.385H2.326c-0.289,0-0.385,0.096-0.385,0.385v5.773
					c0,2.405,2.021,3.271,4.137,3.271c2.502,0,3.945-1.539,3.945-3.464v-5.677C10.12,259.082,9.927,259.082,9.639,259.082"/>
				<path class="st0" d="M16.374,258.793c-2.79,0-5.388,1.732-5.388,5.003c0,3.271,2.502,5.003,5.388,5.003
					c1.539,0,2.213-0.385,2.598-0.481c0.289,0,0.385-0.289,0.385-0.481v-1.539c0-0.096,0-0.289-0.096-0.289s-0.096,0-0.289,0.096
					c-0.385,0.481-1.347,0.962-2.213,0.962c-1.443,0-2.502-0.77-2.502-3.175c0-2.405,1.155-3.175,2.502-3.175
					c0.962,0,1.828,0.385,2.213,0.962c0.096,0.096,0.289,0.096,0.289,0.096s0.096-0.096,0.096-0.289v-1.539
					c0-0.289-0.289-0.385-0.385-0.481C18.683,259.082,17.721,258.793,16.374,258.793"/>
				<path class="st0" d="M25.13,258.793c-2.887,0-5.003,1.828-5.003,5.003c0,3.271,2.021,5.003,5.003,5.003
					c2.887,0,5.003-1.732,5.003-5.003C30.133,260.525,28.112,258.793,25.13,258.793 M25.13,267.164
					c-0.289,0-0.385-0.096-0.674-0.096c-0.962-0.289-1.347-1.058-1.347-3.175c0-2.117,0.385-2.887,1.347-3.175
					c0.096-0.096,0.385-0.096,0.674-0.096s0.385,0.096,0.674,0.096c0.962,0.289,1.347,1.058,1.347,3.175
					c0,2.117-0.385,2.887-1.347,3.175C25.611,267.164,25.418,267.164,25.13,267.164"/>
				<path class="st0" d="M37.83,258.986h-6.735c-0.289,0-0.385,0.096-0.385,0.385v1.058c0,0.289,0.096,0.385,0.385,0.385h3.656
					l-3.56,5.677c-0.096,0.289-0.481,1.058-0.481,1.347v0.385c0,0.289,0.096,0.385,0.385,0.385h6.831
					c0.289,0,0.385-0.096,0.385-0.385v-1.058c0-0.289-0.096-0.385-0.385-0.385H34.27l3.56-5.773
					c0.096-0.096,0.385-0.674,0.385-1.155v-0.385C38.215,259.082,38.023,258.986,37.83,258.986"/>
				<path class="st0" d="M44.373,259.082h-1.732c-0.962,0-1.443,0.385-1.732,1.155l-2.502,7.794
					c-0.096,0.289-0.096,0.289-0.096,0.385s0,0.289,0.289,0.289h1.732c0.385,0,0.481-0.289,0.674-0.481l0.481-1.732h2.598
					l0.481,1.732c0.096,0.289,0.289,0.481,0.674,0.481h2.117c0.096,0,0.289-0.096,0.289-0.289c0-0.096-0.096-0.289-0.096-0.385
					l-2.598-8.563C44.758,259.082,44.662,259.082,44.373,259.082 M41.871,264.662l0.962-3.271l0.962,3.271H41.871z"/>
				<path class="st0" d="M52.455,259.082h-3.464c-0.289,0-0.385,0.096-0.385,0.385v8.756c0,0.289,0.096,0.385,0.385,0.385h3.464
					c3.56,0,5.388-2.213,5.388-4.715C57.843,261.295,56.015,259.082,52.455,259.082 M51.878,266.875
					c-0.096-0.096-0.385-0.096-0.385-0.385v-5.581c0-0.289,0.289-0.385,0.385-0.385h0.481c1.732,0,2.405,1.058,2.405,3.175
					s-0.77,3.175-2.405,3.175H51.878"/>
				<path class="st0" d="M64.867,259.082h-5.388c-0.289,0-0.385,0.096-0.385,0.385v8.756c0,0.289,0.096,0.385,0.385,0.385h5.388
					c0.289,0,0.385-0.096,0.385-0.385v-1.058c0-0.289-0.096-0.385-0.385-0.385h-2.887v-2.213h2.502c0.289,0,0.385-0.096,0.385-0.385
					v-1.058c0-0.289-0.096-0.385-0.385-0.385h-2.502v-1.732h2.887c0.289,0,0.385-0.096,0.385-0.385v-1.058
					C65.252,259.082,65.06,259.082,64.867,259.082"/>
				<path class="st0" d="M73.912,258.793c-1.539,0-2.598,0.289-3.175,0.481c-0.385,0.289-0.674,0.385-0.674,0.962v7.89
					c0,0.289,0.096,0.385,0.385,0.385h2.117c0.289,0,0.385-0.096,0.385-0.385v-7.12c0-0.096,0.096-0.289,0.289-0.385
					c0.096-0.096,0.385-0.096,0.674-0.096c0.77,0,1.347,0.289,1.347,1.347c0,1.058-0.385,1.443-0.962,1.732
					c-0.289,0.096-0.481,0.289-0.481,0.77c0,0.385,0.096,0.674,0.289,0.962l1.347,2.887c0.096,0.385,0.385,0.481,1.058,0.481
					l1.732-0.289c0.289,0,0.481,0,0.481-0.385c0-0.289-0.096-0.385-0.289-0.674l-1.347-2.405c-0.096-0.385-0.674-0.77-1.058-0.962
					c0.962-0.289,1.828-0.962,1.828-2.213C77.856,259.755,76.606,258.793,73.912,258.793"/>
				<path class="st0" d="M81.994,259.082h-2.021c-0.289,0-0.385,0.096-0.385,0.385v8.756c0,0.289,0.096,0.385,0.385,0.385h2.021
					c0.289,0,0.385-0.096,0.385-0.385v-8.756C82.379,259.082,82.282,259.082,81.994,259.082"/>
				<path class="st0" d="M87.959,258.793c-1.539,0-2.502,0.289-3.079,0.481c-0.385,0.096-0.674,0.385-0.674,0.962v7.794
					c0,0.289,0.096,0.385,0.385,0.385h3.945c2.405,0,3.656-1.155,3.656-2.887c0-1.058-0.77-1.732-1.828-2.021
					c0.77-0.289,1.539-0.77,1.539-2.021C91.904,259.755,90.653,258.793,87.959,258.793 M88.055,267.164
					c-0.289,0-0.481-0.096-0.674-0.096c-0.096-0.096-0.289-0.096-0.289-0.385l0.096-5.581c0-0.096,0.096-0.289,0.289-0.385
					c0.096-0.096,0.385-0.096,0.674-0.096c0.77,0,1.155,0.385,1.155,1.155c0,0.674-0.289,0.962-0.674,1.347
					c-0.289,0.289-0.481,0.481-0.481,0.77c0,0.385,0.096,0.674,0.385,0.77c0.385,0.385,0.962,0.77,0.962,1.539
					C89.402,266.491,89.018,267.164,88.055,267.164"/>
				<path class="st0" d="M99.698,259.082H94.31c-0.289,0-0.385,0.096-0.385,0.385h-0.192v8.756c0,0.289,0.096,0.385,0.385,0.385
					h5.388c0.289,0,0.385-0.096,0.385-0.385v-1.058c0-0.289-0.096-0.385-0.385-0.385h-2.887v-2.213h2.502
					c0.289,0,0.385-0.096,0.385-0.385v-1.058c0-0.289-0.096-0.385-0.385-0.385h-2.502v-1.732h3.079c0.289,0,0.385-0.096,0.385-0.385
					v-1.058C99.89,259.082,99.794,259.082,99.698,259.082"/>
				<path class="st0" d="M103.739,258.986h-1.828c-0.289,0-0.385,0.096-0.385,0.385v8.756c0,0.289,0.096,0.385,0.385,0.385h1.539
					c0.289,0,0.385-0.096,0.385-0.385v-6.639l2.213,5.773c0.289,0.962,0.962,1.347,1.828,1.347h1.732
					c0.289,0,0.385-0.096,0.385-0.385v-8.756c0-0.289-0.096-0.385-0.385-0.385h-1.539c-0.289,0-0.385,0.096-0.385,0.385v6.35
					l-2.117-5.773C105.374,259.37,104.701,258.986,103.739,258.986"/>
				<path class="st0" d="M116.824,259.082h-1.828c-0.962,0-1.443,0.385-1.732,1.155l-2.405,7.794
					c-0.096,0.289-0.096,0.289-0.096,0.385s0,0.289,0.289,0.289h1.732c0.385,0,0.481-0.289,0.674-0.481l0.481-1.732h2.598
					l0.481,1.732c0.096,0.289,0.289,0.481,0.674,0.481h2.117c0.096,0,0.289-0.096,0.289-0.289c0-0.096-0.096-0.289-0.096-0.385
					l-2.598-8.563C117.209,259.082,117.113,259.082,116.824,259.082 M114.226,264.662l0.962-3.271l0.962,3.271H114.226z"/>
				<path class="st0" d="M29.074,273.322c-1.155,0-2.021,0.289-2.598,0.962c-0.481,0.385-0.77,1.058-0.77,1.732
					c0,0.674,0.096,1.155,0.385,1.539c0.385,0.481,1.058,1.058,2.117,1.443c0.77,0.289,1.155,0.481,1.443,0.77
					c0.096,0.289,0.289,0.481,0.289,0.77c0,0.77-0.481,1.155-1.732,1.155c-0.674,0-1.347-0.096-2.021-0.481l-0.674,1.347
					c0.962,0.385,1.828,0.674,2.887,0.674c1.058,0,1.828-0.289,2.502-0.77c0.674-0.385,0.962-1.155,0.962-1.828
					c0-0.674-0.096-1.155-0.385-1.539c-0.385-0.481-1.058-1.058-2.117-1.443c-0.77-0.289-1.155-0.481-1.443-0.77
					s-0.385-0.481-0.385-0.77c0-0.674,0.674-1.058,1.732-1.058c0.674,0,1.443,0.096,2.021,0.481l0.77-1.347
					C31.191,273.418,30.133,273.322,29.074,273.322"/>
				<path class="st0" d="M41.775,273.418l-1.828,0.096v5.773c0,0.674-0.096,1.155-0.481,1.539s-0.962,0.674-1.539,0.674
					c-1.443,0-2.021-0.674-2.021-2.021v-5.773h-1.828v5.773c0,1.058,0.385,1.732,0.962,2.405c0.77,0.674,1.732,1.058,2.887,1.058
					s2.021-0.289,2.79-0.962c0.77-0.674,1.155-1.539,1.155-2.502v-6.062H41.775z"/>
				<path class="st0" d="M46.393,273.322l-2.117,0.481v8.948h1.732v-5.388c0-0.385,0-1.058-0.096-1.828
					c0.289,0.481,0.481,1.155,0.962,1.732l3.271,5.773l2.117-0.481l0.096-8.948h-1.924v5.388c0,0.481,0,1.155,0.096,1.828
					c-0.289-0.674-0.481-1.155-0.962-1.732L46.393,273.322z"/>
			</g>
			<polygon class="st0" points="60.634,273.418 53.898,273.418 53.898,274.765 56.4,274.765 56.4,282.559 58.228,282.559 
				58.228,274.765 60.634,274.765 			"/>
			<g>
				<path class="st0" d="M66.695,273.322c-1.443,0-2.502,0.385-3.464,1.539c-0.962,0.962-1.443,2.021-1.443,3.464
					c0,1.443,0.385,2.502,1.155,3.271c0.962,0.962,2.021,1.443,3.56,1.443c1.443,0,2.502-0.481,3.464-1.443
					c0.962-1.058,1.443-2.117,1.443-3.56c0-1.443-0.385-2.405-1.155-3.271C69.293,273.707,68.139,273.322,66.695,273.322
					 M66.599,281.404c-1.828,0-2.598-1.155-2.598-3.271c0-1.155,0.289-2.021,0.962-2.598c0.481-0.481,1.155-0.77,1.828-0.77
					c0.962,0,1.732,0.481,2.213,1.155c0.385,0.481,0.481,1.347,0.481,2.117c0,0.674-0.096,1.347-0.385,1.732
					C68.523,280.731,67.561,281.404,66.599,281.404"/>
				<path class="st0" d="M76.702,273.322c-0.481,0-1.539,0-2.887,0.096h-0.096l-0.096,9.237h1.828v-7.89h1.058
					c1.155,0,1.732,0.385,1.732,1.443c0,0.962-0.674,1.443-1.828,1.539l-0.481,0.77l2.887,4.33l1.828-0.77l-1.828-2.887
					c-0.096-0.289-0.289-0.481-0.481-0.674c1.443-0.385,2.117-1.347,2.117-2.598C80.262,274.092,79.107,273.322,76.702,273.322"/>
				<path class="st0" d="M87.382,273.033l-1.828,2.887c-0.289,0.385-0.385,0.674-0.481,1.058c-0.096-0.385-0.385-0.77-0.481-1.058
					l-1.828-2.887l-1.732,0.77l3.079,4.618v4.137h1.828v-4.234l3.175-4.522L87.382,273.033z"/>
				<path class="st0" d="M56.881,206.932c-3.56,6.831-7.89,12.701-11.642,19.628c-6.158,11.835-3.175,26.748,11.642,26.748
					c5.965,0,9.91-2.213,12.316-5.773c-1.828,1.347-4.33,2.213-7.89,2.213c-6.062,0-9.237-2.887-10.776-5.388
					c-2.79-4.618-2.598-11.45,0.481-17.415c1.443-2.598,2.887-5.292,4.522-7.697c1.443-2.213,2.887-4.715,4.33-7.216
					C58.613,210.3,57.747,208.664,56.881,206.932"/>
				<path class="st0" d="M65.06,221.365c-0.385,0.674-0.77,1.347-1.155,1.828c-0.77,1.347-1.539,2.405-2.117,3.656
					c-1.347,2.405-1.443,5.292-0.385,6.831c0.77,1.155,2.021,1.828,3.656,1.828c1.636,0,3.079-0.674,3.849-1.828
					c0.77-1.347,0.962-3.271,0.289-5.292c-0.096-0.674-0.481-1.347-0.962-2.021l0.096,0.096c0,0,0,0-0.096-0.096
					C67.369,224.732,66.31,222.808,65.06,221.365"/>
				<path class="st0" d="M61.115,214.726c-1.155,2.021-2.405,4.137-3.56,5.965c-1.539,2.405-3.079,4.907-4.33,7.409
					c-2.79,5.388-3.079,11.257-0.674,15.01c1.732,2.79,4.715,4.234,8.756,4.234c4.041,0,7.024-1.443,8.852-4.234
					c1.058-1.732,1.539-3.656,1.539-5.965c0-0.481-0.096-1.155-0.096-1.732c-1.443,1.828-3.56,2.887-6.158,2.887
					c-2.598,0-4.907-1.155-6.062-3.079c-1.539-2.502-1.443-6.158,0.289-9.525c0.77-1.443,1.539-2.598,2.213-3.945
					c0.674-1.058,1.347-2.021,1.828-3.079C62.847,217.516,61.981,216.073,61.115,214.726"/>
				<path class="st0" d="M-356.563,129.093h-2.79v12.893c0,0.481,0.674,1.155,1.155,1.155h8.178l-1.828-2.887h-4.715V129.093
					L-356.563,129.093z"/>
				<path class="st0" d="M-401.592,125.629c-6.831,0-12.412,5.388-12.412,12.316c0,6.735,5.388,12.316,12.412,12.316
					c0.77,0,1.443-0.096,2.021-0.096v4.715h3.56v-5.965c3.945-1.828,6.735-5.965,6.735-10.776
					C-389.18,131.113-394.761,125.629-401.592,125.629 M-401.496,145.642c-4.522,0-8.082-3.56-8.082-7.89
					c0-4.33,3.56-7.89,8.082-7.89c4.522,0,8.082,3.56,8.082,7.89c-0.096,2.213-1.058,4.33-2.502,5.677v-3.945l-3.464,1.058v4.907
					C-400.053,145.642-400.823,145.642-401.496,145.642"/>
				<path class="st0" d="M-376.672,129.093h-2.79v11.257h-4.907v-11.257h-2.79v12.893c0,0.481,0.674,1.155,1.155,1.155h8.082
					c0.481,0,1.155-0.674,1.347-1.155L-376.672,129.093L-376.672,129.093z"/>
				<path class="st0" d="M-344.343,128.708c-4.234,0-7.505,3.271-7.505,7.505c0,4.234,3.464,7.505,7.505,7.505
					c1.347,0,2.502-0.385,3.56-0.962l-1.443-2.405c-0.674,0.385-1.443,0.481-2.213,0.481c-2.598,0-4.715-2.117-4.715-4.715
					c0-2.502,2.117-4.715,4.715-4.715c0.962,0,1.732,0.289,2.405,0.674l1.539-2.405C-341.649,129.093-342.9,128.708-344.343,128.708
					"/>
				<path class="st0" d="M-334.048,128.708c-4.234,0-7.505,3.464-7.505,7.505c0,4.137,3.271,7.505,7.505,7.505
					c4.234,0,7.505-3.271,7.505-7.505C-326.543,131.979-329.815,128.708-334.048,128.708 M-334.048,141.024
					c-2.598,0-4.715-2.021-4.715-4.715c0-2.79,2.117-4.715,4.715-4.715c2.598,0,4.715,2.117,4.715,4.715
					C-329.141,138.907-331.45,141.024-334.048,141.024"/>
			</g>
			<path class="st0" d="M-366.762,129.093h-2.79l-6.158,13.951h2.887l1.443-3.079h6.447l0.096,0.289l1.347,2.79h2.887
				L-366.762,129.093z M-370.322,137.656l2.213-5.099l2.213,5.099H-370.322z"/>
			<g>
				<path class="st0" d="M-288.249,129.093c-0.673,0-1.347,0.289-1.539,0.77l-3.656,8.756l-3.656-8.756
					c-0.289-0.481-0.962-0.77-1.539-0.77c-0.77,0-1.347,0.289-1.539,0.77l-3.656,8.756l-3.656-8.756
					c-0.289-0.481-0.962-0.77-1.539-0.77s-1.347,0.289-1.539,0.77l-3.656,8.756l-3.656-8.756c-0.289-0.481-0.962-0.77-1.539-0.77
					c-0.674,0-1.347,0.289-1.539,0.77l-5.1,11.738c-0.481,1.155,0.385,2.021,1.347,2.021c0.481,0,0.962-0.289,1.347-0.77
					l4.137-9.237l4.137,9.237c0.289,0.385,0.77,0.674,1.347,0.674c0.481,0,1.058-0.289,1.347-0.674l4.137-9.237l4.137,9.237
					c0.289,0.481,0.674,0.674,1.155,0.674h0.096h0.096c0.481,0,0.962-0.289,1.155-0.674l4.137-9.237l4.137,9.237
					c0.289,0.385,0.77,0.674,1.347,0.674c0.577,0,1.058-0.289,1.347-0.674l4.137-9.237l4.137,9.237
					c-0.096,0.481,0.096,0.77,0.385,0.77c0.481,0,1.539-0.77,1.058-2.021l-5.1-11.738
					C-286.902,129.478-287.575,129.093-288.249,129.093"/>
				<path class="st0" d="M-281.706,129.381c-0.962,0-1.732,0.674-1.732,1.732c0,0.962,0.77,1.732,1.732,1.732
					c0.962,0,1.732-0.674,1.732-1.732C-280.07,130.055-280.84,129.381-281.706,129.381 M-281.706,132.364
					c-0.77,0-1.443-0.674-1.443-1.443c0-0.77,0.674-1.443,1.443-1.443c0.77,0,1.347,0.674,1.347,1.443
					C-280.455,131.787-281.033,132.364-281.706,132.364 M-281.706,130.055h-0.77v1.828h0.289v-0.77h0.385l0.481,0.77h0.385
					l-0.481-0.962c0.096,0,0.385-0.096,0.385-0.481C-281.033,130.055-281.225,130.055-281.706,130.055 M-282.091,130.825v-0.674
					h0.385c0.289,0,0.385,0,0.385,0.289s-0.289,0.289-0.481,0.289L-282.091,130.825z"/>
			</g>
			<polygon class="st0" points="-108.804,127.746 -108.901,127.746 -108.901,128.034 -108.804,128.034 -108.708,128.034 
				-108.516,127.746 -108.708,127.746 -108.708,127.746 			"/>
			<g>
				<path class="st0" d="M-97.739,92.819l-74.664,19.147c-10.68,2.79-19.532,13.567-19.532,24.247v31.367l74.568-19.532
					c10.68-2.79,19.532-13.567,19.532-24.247L-97.739,92.819z M-114.193,131.113c-2.021,0-3.464-1.443-3.464-3.56v-14.336
					l3.079-0.77v3.656l3.271-0.962c-0.096,0.674-0.289,1.347-0.289,1.443c-0.289,1.155-1.155,2.117-2.213,2.405l-0.77,0.289v7.697
					c0,0.77,0.481,1.155,1.155,1.155h0.385c0.289-0.096,0.096,0,2.021-0.481v3.079c-1.539,0.385-1.828,0.481-2.021,0.481
					c-0.096,0-0.289,0-0.385,0C-113.711,131.113-114,131.113-114.193,131.113 M-144.02,139.292v-17.8
					c0-2.502,2.021-5.292,4.715-5.773c0.096,0,3.656-1.058,3.656-1.058c-0.096,0.481-0.289,0.962-0.289,1.155v0.289
					c-0.289,1.058-1.155,2.021-2.213,2.213l-1.058,0.289c-0.962,0.289-1.539,1.155-1.539,1.828v2.213l3.464-0.962
					c0,0.289-0.385,1.539-0.385,1.539c-0.289,1.058-1.155,1.828-2.117,2.117l-0.962,0.289v10.199c0,1.347-1.058,2.502-2.213,2.887
					C-143.346,139.003-144.02,139.292-144.02,139.292 M-124.103,130.921L-124.103,130.921h0.481h0.289
					c0.962-0.289,1.539-1.347,1.539-2.117c0-2.887-6.062-1.058-6.062-5.1c0-2.405,1.732-4.618,4.234-5.292
					c0.385-0.096,0.77-0.096,1.155-0.096c1.828,0,3.079,1.443,3.079,3.464v0.385l-1.058,0.289c-0.385,0.096-0.77,0.096-0.962,0.096
					c-0.481,0-0.77-0.289-1.058-0.77c0,0,0-0.096-0.096-0.096c-0.096-0.096-0.289-0.289-0.481-0.385h-0.289l0,0h-0.289
					c-0.674,0.096-1.155,0.674-1.155,1.443c0,2.021,6.062,0.289,6.062,5.292c0,2.598-1.828,5.292-4.522,5.773l-0.481,0.096
					C-124.103,134-124.68,134-125.065,134c-1.828,0-3.271-1.443-3.271-3.464v-0.77l1.443-0.385c0.289-0.096,0.481-0.096,0.674-0.096
					c0.674,0,0.77,0.385,1.058,0.962l0.096,0.096C-124.68,130.728-124.392,130.921-124.103,130.921 M-136.226,124.763v-3.079
					c1.443-0.385,2.117-0.674,2.405-0.674c0.385-0.096,0.77-0.096,1.155-0.096c2.021,0,3.464,1.443,3.464,3.56v8.756
					c0,1.347-1.058,2.502-2.213,2.887l-0.77,0.289v-0.77c-0.289,0.481-1.443,1.347-2.117,1.443l-0.289,0.096
					c-0.481,0.096-0.962,0.096-1.347,0.096c-1.828,0-3.175-1.347-3.175-3.271v-0.481c0-2.598,2.213-4.522,5.388-6.639
					c0.962-0.674,1.539-1.155,1.732-1.828v-0.096c0-0.674-0.385-1.058-1.058-1.058h-0.385
					C-133.436,123.801-134.783,124.378-136.226,124.763 M-168.459,145.642c-0.674,0-1.539-0.674-1.539-2.213V125.34
					c0-0.289,0.096-0.385,0.385-0.481l1.443-0.385h0.096c0.096,0,0.289,0.096,0.289,0.289v20.494c0,0.289-0.096,0.385-0.385,0.481
					h-0.289 M-177.311,145.835c0.289,0,0.481,0,0.77-0.096c1.732-0.481,3.079-2.117,3.079-3.849c0-2.021-1.732-3.464-3.56-4.907
					l-0.289-0.289c-1.828-1.443-3.945-2.79-3.945-5.581c0-2.502,2.117-5.292,4.715-5.965c0.385-0.096,0.962-0.096,1.347-0.096
					c2.021,0,3.464,1.443,3.464,3.464c0,0.289-0.096,0.481-0.385,0.481l-1.347,0.385h-0.096c-0.096,0-0.385-0.096-0.385-0.385
					c0-1.155-0.77-1.732-1.732-1.732c-0.289,0-0.481,0-0.77,0.096c-1.443,0.385-2.502,1.732-2.502,3.175
					c0,1.828,1.539,2.887,3.175,4.234l0.385,0.289c2.213,1.732,4.234,3.271,4.234,6.158c0,2.79-2.213,5.773-5.292,6.639
					c-0.481,0.096-0.962,0.096-1.443,0.096c-2.213,0-3.945-1.539-3.945-3.945c0-0.385,0-0.77,0.096-1.347
					c0-0.289,0.289-0.385,0.481-0.481h1.347c0.289,0,0.385,0.096,0.289,0.385c0,0.289-0.096,0.481-0.096,0.77
					C-179.62,144.969-178.562,145.835-177.311,145.835 M-153.257,127.65c0.674-1.155,1.828-1.828,2.887-2.213
					c0.385-0.096,0.674-0.096,0.962-0.096c1.539,0,2.598,1.155,2.598,2.79v11.45c0,0.289-0.096,0.385-0.385,0.481h-0.289
					c-0.674,0-1.443-0.674-1.539-2.213v-8.852c0-0.962-0.674-1.443-1.443-1.443c-0.096,0-0.289,0-0.481,0.096
					c-0.962,0.289-1.828,1.155-1.828,2.117v11.354c0,0.289-0.096,0.385-0.385,0.481h-0.385c-0.77,0-1.539-0.77-1.539-2.598v-0.096
					v-8.275c0-0.962-0.674-1.443-1.443-1.443c-0.096,0-0.289,0-0.481,0.096c-0.962,0.289-1.828,1.155-1.828,2.117v11.354
					c0,0.289-0.096,0.385-0.385,0.481h-0.289c-0.77,0-1.539-0.77-1.539-2.502v-12.316c0-0.289,0.096-0.385,0.385-0.481l1.443-0.385
					h0.096c0.096,0,0.289,0.096,0.289,0.289v0.385c0.674-0.674,1.443-1.155,2.213-1.443c0.385-0.096,0.674-0.096,0.962-0.096
					c0.096,0,0.289,0,0.385,0C-154.219,126.88-153.545,127.168-153.257,127.65 M-164.514,127.746c-0.481,0-0.962-0.385-0.962-0.962
					c0-0.674,0.481-1.443,1.347-1.539h0.289c0.481,0,0.962,0.385,0.962,0.962c0,0.674-0.481,1.443-1.347,1.539H-164.514
					 M-108.804,129.381c-0.096,0-0.289,0-0.385-0.096c-0.096,0-0.289-0.096-0.385-0.289c-0.096-0.096-0.096-0.289-0.289-0.385
					c-0.096-0.096-0.096-0.289-0.096-0.385c0-0.096,0-0.289,0.096-0.385c0-0.096,0.096-0.289,0.289-0.385s0.289-0.096,0.385-0.289
					c0.096,0,0.289-0.096,0.385-0.096s0.289,0,0.385,0.096c0.096,0,0.289,0.096,0.385,0.289c0.096,0.096,0.096,0.289,0.289,0.385
					c0,0.096,0.096,0.289,0.096,0.385c0,0.096,0,0.289-0.096,0.385c-0.096,0.096-0.096,0.289-0.289,0.385
					c-0.192,0.096-0.289,0.096-0.385,0.289C-108.516,129.381-108.708,129.381-108.804,129.381 M-163.552,144.584
					c0,0-0.096,0-0.289,0c-0.674,0-1.443-0.674-1.539-2.213v-12.508c0-0.289,0.096-0.385,0.385-0.481l1.443-0.385h0.096
					c0.096,0,0.289,0.096,0.289,0.289v14.817C-163.167,144.295-163.263,144.295-163.552,144.584"/>
				<path class="st0" d="M-132.185,128.323c-0.289,0.385-1.155,1.058-1.828,1.443c-1.347,0.962-2.117,1.828-2.117,2.887
					c0,0.962,0.481,1.347,1.155,1.347c0.096,0,0.385,0,0.481-0.096h0.096c1.155-0.289,2.117-1.732,2.117-2.887v-2.694H-132.185z"/>
				<path class="st0" d="M-108.804,127.168c-0.096,0-0.289,0-0.385,0.096c-0.096,0-0.096,0.096-0.289,0.096
					c-0.096,0.096-0.096,0.096-0.096,0.289c0,0.192-0.096,0.289-0.096,0.385c0,0.096,0,0.289,0.096,0.385
					c0,0.096,0.096,0.289,0.096,0.289s0.096,0.096,0.289,0.096c0.096,0,0.289,0.096,0.385,0.096s0.289,0,0.385-0.096
					c0.096,0,0.096-0.096,0.289-0.096c0.192,0,0.096-0.096,0.096-0.289c0-0.096,0.096-0.289,0.096-0.385
					c0-0.096,0-0.289-0.096-0.385c0-0.096-0.096-0.289-0.096-0.289c-0.096-0.096-0.096-0.096-0.289-0.096
					C-108.516,127.361-108.708,127.168-108.804,127.168 M-109.189,128.708v-1.155h0.385h0.096h0.096l0.096,0.096v0.289v0.096v0.096
					h-0.096h-0.096l0.289,0.481h-0.385l-0.289-0.481L-109.189,128.708L-109.189,128.708z"/>
				<path class="st0" d="M58.517,120.818c-0.096,0-0.289,0-0.385,0.096h0.096h0.096h0.385l0.289,0.096l0.289,0.096l0.289,0.289
					l0.289,0.096h0.289l0,0h0.096h0.096h0.096l0.385,0.385v0.096v0.096c0.096-0.096,0.385-0.096,0.481-0.096
					c0.096,0,0.385,0,0.481,0.096h0.096h0.096h0.096l0.096-0.096c-0.962-0.096-0.962,0.096-1.539-0.481
					c-0.096-0.096-0.385-0.096-0.385-0.096c-0.096,0-0.096,0-0.096,0h-0.096c-0.096,0-0.289,0-0.385-0.096
					c-0.481-0.674-0.289-0.385-0.962-0.481C58.805,121.107,58.613,120.818,58.517,120.818"/>
				<path class="st0" d="M77.856,139.484H61.403l1.828,1.539h0.096l0.096,0.096l0.096,0.096l0.096,0.096
					c0.385,0.385,0.674,0.962,0.77,1.443v0.096l-0.096,0.096l-0.096,0.096l-0.096,0.289v0.385v0.674
					c0,0.481,0.096,1.443-0.481,1.732c0,1.347-0.481,2.598-1.443,3.656c-0.481,0.385-0.481,0.962-0.289,1.443
					c-0.289,0.096-0.77,1.828-0.674,2.021v0.289l0.096,0.289l0.096,0.096l0.289,0.096l0.289,0.096h0.289h0.289h0.096l-0.096-0.096
					l-0.096-0.096v-0.096l0.096-0.096l0.289-0.096l0.481-0.289l0.289-0.289v-0.289l-0.096-0.289h-0.096h0.096h0.096h0.289
					l0.289-0.096l0.289-0.289l0.289-0.289l0.289-0.385l0.289-0.481h0.385h0.289l0.096-0.096l0.289-0.096l0.289-0.096l0.385-0.096
					l0.481-0.096l1.058-0.289h0.096l0.096-0.096h0.096v-0.096v-0.096c-0.096-0.77,0.096-0.481,1.058-1.058
					c1.732-1.058,2.502-1.732,3.464-3.271l0.096-0.289l0.289-0.289l0.289-0.289l0.385-0.289l0.481-0.289l0.385-0.096h0.481l0,0
					h0.096l0.096-0.096l0.096-0.096l0.385-0.385l0.289-0.385c0.385-0.674,0.289-1.058,0.962-1.732l0.096-0.096l0.096-0.096
					l0.096-0.096v-0.096l0.096-0.096l-0.289-0.481l-0.096-0.289L77.856,139.484L77.856,139.484z"/>
			</g>
			<polygon class="st0" points="65.925,123.127 65.925,123.705 66.118,123.705 66.31,123.416 66.31,123.416 66.118,123.416 
				66.022,123.416 66.022,123.127 			"/>
			<g>
				<path class="st0" d="M63.231,122.55c-0.096,0-0.385,0-0.481,0.096v0.385v0.096l-0.096,0.096c0.385,0,0.481,0,0.674,0.289
					c0.481-0.289,1.155-0.289,1.732-0.385C64.578,123.031,63.905,122.55,63.231,122.55"/>
				<path class="st0" d="M85.65,140.831c-4.907,12.027-16.646,18.089-28.192,18.089s-23.188-5.965-28.095-17.8
					c4.618,13.374,16.261,19.821,27.807,19.821C69.101,160.748,80.935,154.205,85.65,140.831"/>
				<path class="st0" d="M57.362,103.595c-14.144,0-23.862,7.505-28.192,19.917c3.56-8.756,10.584-14.144,18.762-16.453
					c-0.096,0.289-0.289,0.481-0.289,0.481c-0.096,0.289-0.289,0.674-0.481,0.77c-0.674,0.289-1.058,1.443-1.443,1.828l-0.096,0.289
					v0.096v0.289c-0.289,0.962-1.347,1.539-1.828,2.405l-0.289,0.481l-0.096,0.481l-0.096,0.481l-0.096,0.385v0.289
					c0.674,1.058,0.77,2.213,0.481,3.464h0.096l0.096,0.096l0.096,0.289l0.096,0.289l0.096,0.289l0.096,0.289l0.096,0.385
					l0.096,0.289l0.096,0.096c0.674-1.058-0.674-2.598-0.385-3.849l0.096-0.096h0.096c0.096,1.732,1.155,3.271,2.021,4.715
					l-0.096,0.096l-0.289,0.289v0.289l0.385,0.096l-0.289,0.481h0.289h0.096h0.289h0.096h0.289l0.096,0.096l0.096,0.096l0.289,0.289
					l0.385,0.289l0,0h0.096h5.773c0.096-0.77,0.385-1.539,0.962-2.117h-0.096h-0.481h-0.096l-0.096-0.096l-0.096-0.096h-0.096
					c-0.289,0.096-0.481,1.058-0.77,1.155c-0.289,0.674-1.443,0.674-2.021,0.674c-0.096,0-0.289,0-0.289,0
					c-0.096,0-0.096-0.096-0.481-0.385c-0.096-0.289-0.385-0.674-0.481-0.962c-0.962-1.732,0.481-4.234,2.502-4.234
					c0.385,0,0.674,0.096,1.058,0.289c0.385-0.385,0.77-0.481,1.058-0.481s0.385,0,0.481,0.096c0.096,0,0.385,0.096,0.674,0.096
					c0.096,0,0.385,0,0.481-0.096l0.481-0.096l0.289,0.096l0.289,0.289l0.096,0.385l0.096,0.481l0.289,0.481l0.289,0.385
					l0.481,0.289l0.096-0.481l-0.096-0.481l-0.096-0.481l-0.385-0.962l-0.096-0.385l0.096-0.385l0.385-0.289
					c0.674-0.289,1.732-0.962,2.021-1.539l0.096-0.385l0.096-0.385l0.289-0.481l0.096-0.289l0.096-0.096l0.096-0.096h0.289
					l0.289-0.096l0.289-0.096l0.096-0.096l0.096-0.289v-0.096v-0.289v-0.096h0.096h0.096h0.289h0.289l0.289-0.096l0.385-0.096
					l0.289-0.289l-0.289-0.096l-0.289-0.096l-0.289-0.096L62.75,111.1l-0.289-0.096l-0.096-0.096v-0.385l0.289-0.096h0.289h0.385
					l0.481,0.096l0.481,0.096h0.481l0.385-0.096v-0.289c-1.347-0.481-2.021-1.347-3.175-1.828l0-0.192l-0.096,0.096H61.5h-0.289
					l-0.192-0.096l-0.289-0.096l-0.289-0.096c-0.385-0.289-0.674-0.385-0.962-0.385h-0.096h-0.096c-0.289,0-0.385,0-0.674-0.289
					l-0.096,0.385v0.481l0.096,0.096l0.096,0.096h0.289h0.096l0.096,0.096l0.096,0.096h-0.289h-0.289l-0.289,0.096l-0.096,0.289
					v0.481v0.096v0.096l-0.096,0.096h-0.096h-0.289c-0.962-0.481-0.289-0.674-1.155-1.058c-0.674-0.385-1.828-0.096-2.405-0.674
					l0.096-0.096l0.096-0.096l0.289-0.096l0.289-0.289l0.289-0.096l0.385-0.289l0.385-0.289l0.481-0.096
					c1.058-0.481,2.405-0.77,3.56-0.77c0.481,0,1.058,0,1.443,0.096c0,0-0.096,0-0.289-0.096c10.68,1.155,20.013,7.12,24.15,17.704
					C81.705,111.966,70.929,103.595,57.362,103.595 M61.788,106.289L61.788,106.289L61.788,106.289"/>
				<path class="st0" d="M-1.234,126.302h-4.618l0.77,0.77c0.385,5.677-1.828,9.622,5.388,9.718
					c7.505-0.096,5.099-3.945,5.388-9.718l0.674-0.674H1.653l0.77,0.77v6.158l-0.096,0.385L2.037,134
					c-0.385,0.481-1.347,0.674-1.828,0.674h-0.481l-0.385-0.096l-0.385-0.096l-0.289-0.289l-0.289-0.289l-0.289-0.289l-0.096-0.385
					v-6.158L-1.234,126.302z"/>
			</g>
			<polygon class="st0" points="22.628,126.495 18.779,126.495 19.357,127.168 19.357,132.364 13.776,126.495 10.216,126.495 
				10.986,127.168 10.986,136.117 10.216,136.886 14.161,136.886 13.391,136.117 13.391,130.825 19.357,136.886 21.954,136.886 
				21.954,127.168 			"/>
			<polygon class="st0" points="31.576,126.495 26.861,126.495 27.631,127.168 27.631,136.117 26.861,136.886 31.576,136.886 
				30.903,136.117 30.903,127.168 			"/>
			<polygon class="st0" points="47.067,126.495 43.026,126.495 43.892,127.168 40.909,132.941 38.311,127.168 39.081,126.495 
				34.366,126.495 39.466,136.886 41.775,136.886 			"/>
			<polygon class="st0" points="60.249,126.495 49.761,126.495 50.435,127.168 50.435,136.117 49.761,136.886 60.249,136.886 
				60.249,134 59.287,134.77 53.706,134.77 53.706,132.653 57.362,132.653 58.132,133.326 58.132,130.055 57.362,130.728 
				53.706,130.728 53.706,128.419 59.287,128.419 60.249,129.093 			"/>
			<g>
				<path class="st0" d="M71.025,126.495h-6.831l0.77,0.77v8.852l-0.77,0.77h4.618l-0.77-0.77v-2.887h1.347l2.117,2.887l-0.77,0.77
					h5.292l-3.079-4.137c1.539-0.481,2.502-1.539,2.502-3.175V128.9l-0.289-0.481l-0.289-0.481l-0.385-0.481l-0.674-0.385
					l-0.77-0.289l-0.962-0.096L71.025,126.495z M69.582,131.113c-0.481,0-1.058,0-1.347-0.096v-2.598h2.79l0.289,0.096h0.289
					c0.481,0.289,0.674,0.674,0.674,1.058C72.083,131.113,70.736,131.113,69.582,131.113"/>
				<path class="st0" d="M89.402,126.11l-0.962,0.77c-1.155-0.385-2.502-0.77-3.849-0.77s-2.598,0.289-3.656,0.962
					c-0.674,0.481-1.155,1.347-1.155,2.021c-0.096,2.021,1.732,2.887,3.464,3.464l0.481,0.096l0.481,0.096l0.481,0.096l0.481,0.096
					l0.385,0.096l0.289,0.289l0.289,0.289V134c0,0.674-0.962,0.77-1.443,0.77c-1.828-0.096-3.56-0.674-5.099-1.539v3.849
					l0.962-0.962c1.155,0.385,2.887,0.674,4.618,0.674c2.405,0,4.618-0.77,4.715-3.271c0-2.213-2.502-2.887-4.522-3.464
					c-0.674,0-3.175-0.962-1.828-1.732c0.289-0.096,0.674-0.289,1.058-0.289c1.443,0,3.656,0.674,4.618,1.155v-3.175L89.402,126.11
					L89.402,126.11z"/>
			</g>
			<path class="st0" d="M100.948,126.495h-3.656l0.385,0.77l-4.907,9.525h4.137l-0.77-0.77l0.674-1.155h5.292l0.481,1.155
				l-0.77,0.77l4.715,0.096L100.948,126.495z M97.388,133.038l1.828-3.656l1.828,3.656H97.388z"/>
			<polygon class="st0" points="113.938,126.495 109.319,126.495 110.089,127.168 110.089,136.117 109.319,136.886 119.326,136.886 
				119.326,134 118.652,134.77 113.264,134.77 113.264,127.168 			"/>
			<g>
				<path class="st0" d="M118.171,127.168L118.171,127.168h-0.289h-0.289l-0.289,0.096l-0.096,0.289v0.096
					c0.096-0.096,0.289-0.289,0.481-0.289c0.096,0,0.385,0.096,0.481,0.289l0.096-0.289L118.171,127.168z M117.209,127.65
					c0,0.096-0.096,0.096-0.096,0.289l0.289,0.385l-0.096-0.289v-0.385H117.209z M118.364,128.323L118.364,128.323l-0.289,0.289
					h-0.096h-0.096h-0.289l-0.289-0.096l0.289,0.096h0.289h0.096h0.096h0.096L118.364,128.323L118.364,128.323z"/>
				<path class="st0" d="M117.883,126.495c-0.77,0-1.539,0.481-1.539,1.347c0,0.962,0.77,1.443,1.443,1.443
					c0.77,0,1.443-0.481,1.539-1.443C119.326,126.976,118.556,126.495,117.883,126.495 M117.786,129.093
					c-0.674,0-1.347-0.385-1.347-1.347c0-0.77,0.77-1.155,1.443-1.155s1.347,0.385,1.443,1.155
					C119.23,128.708,118.556,129.093,117.786,129.093"/>
			</g>
		</g>
	</g>
	<path class="st0" d="M-286.624,338.836h-106.531c-5.759,0.058-11.439,1.63-14.557,6.973c-2.728,4.312-2.565,11.135,0.249,15.33
		c2.807,4.603,7.563,6.461,12.486,6.611h100.477L-286.624,338.836h0.004H-286.624z M-293.908,368.466h-101.658
		c-5.484-0.245-10.877-3.143-13.335-8.482c-2.399-4.861-1.867-11.854,1.68-16.083c3.464-4.204,8.22-5.651,13.434-5.78h108.161
		l-8.274,30.341l-0.004,0.004H-293.908z M-384.473,349.056h-16.906l1.863-6.973c4.087-1.538,8.57-0.64,11.651,2.071
		c2.462,2.17,3.31,4.653,3.389,4.902H-384.473z"/>
	<path class="st0" d="M-366.523,344.22c0.882,1.929,0.029,4.287-0.482,6.108l-4.495,0.765c0.225-1.717,1.189-3.389,0.882-5.276
		c-0.104-0.229-0.328-0.441-0.574-0.503c-1.231-0.146-2.029,1.127-2.565,2.008c-1.518,3.285-2.665,6.906-3.197,10.619
		c-0.021,1.027-0.324,2.466,0.778,2.902c0.553,0.083,0.965-0.104,1.335-0.457c0.985-1.256,2.008-4.42,2.008-4.42
		c1.559-0.229,3.052-0.541,4.595-0.857c-0.902,3.414-2.195,8.162-6.395,8.856c-2.133,0.249-4.428,0.187-5.867-1.468
		c-1.825-2.304-1.148-5.95-0.595-8.649c1.252-4.582,3.692-11.014,9.351-11.601c2.004-0.17,4.183,0.021,5.227,1.967h-0.004V344.22z
		 M-334.552,342.457l-1.131,4.565h3.019l-0.657,2.607h-3.031c0,0-1.177,4.141-1.721,6.137c-0.42,1.53-0.919,3.372-0.94,4.561
		c0.678,0.736,1.846,0.274,2.748,0.399c-0.062,0.861-0.412,1.713-0.636,2.574c-2.195-0.187-5.206,0.84-6.437-1.464
		c-0.37-0.736-0.141-1.701,0-2.466c0.798-3.185,2.603-9.742,2.603-9.742h-1.48l0.632-2.607h1.538
		c0.391-1.281,1.131-3.875,1.131-3.875l4.366-0.69H-334.552z M-308.124,358.832c0.021,0.482-0.266,1.048,0.058,1.472
		c0.653,0.665,1.721,0.374,2.649,0.432c0,0.042-0.541,2.62-0.541,2.62s-1.559-0.037-2.37-0.004
		c-1.721,0.058-3.401-0.004-4.125-1.796c-0.474-2.827,0.902-5.36,1.48-7.996c0.844-3.368,2.748-10.199,2.748-10.199l4.486-0.898
		l-4.391,16.374L-308.124,358.832z M-402.402,343.717c-0.965,3.222-1.825,6.491-2.748,9.734c-0.175,0.877-0.262,1.929,0.391,2.574
		c0.491,0.507,1.064,0.798,1.763,0.819h18.748c-0.911,3.597-3.933,6.516-7.227,7.759c-3.709,1.401-8.121,0.661-11.073-1.746
		c-3.651-2.994-5.368-7.418-4.345-12.145c0.553-2.657,2.108-5.272,4.486-6.994l0.004-0.004L-402.402,343.717z M-342.677,347.027
		c0.029,0.021-0.732,2.549-0.74,2.549c-1.617-0.129-3.975-0.565-4.96,1.173c-0.653,2.636,3.077,3.534,3.484,5.859
		c0.491,2.033,0,4.17-1.659,5.489c-2.337,2.129-6.216,1.692-9.06,0.96c0.021,0.008,0.703-2.678,0.694-2.678
		c1.701,0.337,4.632,1.089,5.846-0.836c0.823-2.349-2.091-3.227-3.094-4.985c-1.106-1.464-0.886-3.726,0-5.235
		c2.108-3.015,6.249-3.372,9.493-2.299L-342.677,347.027z"/>
	<path class="st0" d="M-322.827,346.919l-1.642,2.574c-1.01-0.104-2.091-0.058-2.998,0.249l-3.692,13.609h-4.224l4.183-15.621
		c2.116-1.002,4.536-1.447,7.139-1.173l1.235,0.358C-322.827,346.915-322.827,346.919-322.827,346.919z M-317.763,349.43
		c-0.391,0.104-0.74,0.353-1.052,0.715c-1.842,2.973-3.135,7.002-3.239,9.9c0.037,0.462,0.287,0.748,0.74,0.753
		c0.661,0.008,0.944-0.312,1.335-0.711c1.709-2.807,3.019-6.449,3.139-10.008c0.021-0.578-0.491-0.686-0.919-0.649
		C-317.758,349.43-317.763,349.43-317.763,349.43z M-313.089,348.636c1.268,2.657,0.183,5.805-0.599,8.333
		c-0.906,2.553-2.711,5.484-5.455,6.387c-1.921,0.541-4.345,0.628-5.967-0.649c-2.191-2.05-1.376-5.759-0.595-8.145
		c1.106-3.389,3.746-7.597,7.626-8.037c1.967-0.046,3.975,0.208,4.985,2.112l0.004-0.004V348.636z M-359.588,355.534
		c-1.314,0.208-2.931,0.636-3.688,2.046c-0.395,0.857-0.574,2.158,0.141,2.906c0.532,0.528,1.435,0.249,2.112,0.249l1.43-5.202
		C-359.592,355.534-359.588,355.534-359.588,355.534z M-354.814,347.988c1.048,1.322,0.699,3.497,0.287,5.023l-2.703,9.879
		c-1.127,0.503-2.503,0.586-3.796,0.815c-2.503,0.254-5.289,0.15-6.682-2.212c-0.719-1.655-0.432-3.875,0.636-5.276
		c2.137-2.595,5.227-3.01,8.262-3.513c0.249-0.798,0.553-1.759,0.249-2.62c-0.919-1.214-2.744-0.628-4.017-0.503
		c-0.719,0.125-1.347,0.378-2.029,0.565c0.033,0.021,0.636-2.757,0.636-2.765c2.682-1.006,6.848-1.717,9.16,0.603
		C-354.81,347.983-354.814,347.988-354.814,347.988z M-397.887,352.407c0.154,0,0.291-0.133,0.308-0.291l0.004-0.037
		c0.012-0.162-0.1-0.295-0.258-0.295h-0.778c-0.154,0-0.291,0.133-0.308,0.295l-0.004,0.037c-0.012,0.162,0.104,0.291,0.258,0.291
		H-397.887z M-398.382,354.125c0.154,0,0.291-0.129,0.308-0.291l0.004-0.037c0.012-0.158-0.104-0.295-0.258-0.295h-0.778
		c-0.154,0-0.291,0.137-0.308,0.295l-0.004,0.037c-0.012,0.162,0.104,0.291,0.258,0.291h0.782H-398.382z M-399.454,353.206
		c0.104,0,0.191-0.1,0.204-0.229v-0.025c0.008-0.129-0.067-0.229-0.17-0.229h-0.516c-0.104,0-0.191,0.1-0.204,0.229v0.025
		c-0.008,0.129,0.067,0.229,0.17,0.229H-399.454z M-398.964,351.513c0.1,0,0.191-0.104,0.204-0.229l0.004-0.029
		c0.008-0.125-0.067-0.225-0.17-0.225h-0.516c-0.1,0-0.191,0.1-0.204,0.225l-0.004,0.029c-0.008,0.125,0.071,0.229,0.17,0.229
		H-398.964z M-399.941,354.927c0.104,0,0.195-0.1,0.204-0.225l0.004-0.029c0.008-0.125-0.067-0.225-0.17-0.225h-0.516
		c-0.1,0-0.191,0.1-0.204,0.225v0.029c-0.008,0.125,0.067,0.225,0.17,0.225C-400.452,354.927-399.941,354.927-399.941,354.927z
		 M-400.39,352.353c0.1,0,0.191-0.1,0.204-0.225l0.004-0.029c0.008-0.125-0.067-0.225-0.17-0.225h-0.516
		c-0.104,0-0.191,0.1-0.204,0.225v0.029c-0.008,0.125,0.067,0.225,0.17,0.225C-400.901,352.353-400.39,352.353-400.39,352.353z
		 M-400.872,354.075c0.104,0,0.191-0.1,0.204-0.225l0.004-0.025c0.008-0.125-0.067-0.229-0.17-0.229h-0.516
		c-0.104,0-0.191,0.104-0.204,0.229v0.025c-0.008,0.125,0.067,0.225,0.17,0.225C-401.384,354.075-400.872,354.075-400.872,354.075z
		 M-401.774,353.197c0.104,0,0.191-0.1,0.204-0.225v-0.029c0.008-0.125-0.067-0.229-0.17-0.229h-0.516
		c-0.104,0-0.191,0.104-0.204,0.229v0.029c-0.008,0.125,0.067,0.225,0.17,0.225H-401.774z M-401.284,351.509
		c0.104,0,0.191-0.1,0.204-0.229l0.004-0.025c0.008-0.129-0.067-0.229-0.17-0.229h-0.516c-0.1,0-0.191,0.1-0.204,0.229v0.025
		c-0.012,0.129,0.062,0.229,0.17,0.229C-401.795,351.509-401.284,351.509-401.284,351.509z M-402.257,354.923
		c0.104,0,0.191-0.1,0.2-0.229l0.004-0.029c0.008-0.125-0.071-0.225-0.17-0.225h-0.516c-0.104,0-0.195,0.1-0.204,0.225l-0.004,0.029
		c-0.008,0.129,0.067,0.229,0.17,0.229H-402.257z M-396.548,352.511h-0.719c-0.258,0-0.486,0.187-0.516,0.42l-0.004,0.05
		c-0.025,0.233,0.17,0.42,0.432,0.42h0.528l0.279-0.894C-396.548,352.507-396.548,352.511-396.548,352.511z M-397.084,354.229
		h-0.665c-0.258,0-0.486,0.187-0.511,0.42l-0.004,0.05c-0.025,0.237,0.17,0.424,0.432,0.424h0.495L-397.084,354.229h-0.004H-397.084
		z M-395.995,350.84h-0.715c-0.258,0-0.486,0.187-0.516,0.42l-0.004,0.05c-0.025,0.237,0.166,0.424,0.432,0.424h0.495l0.312-0.894
		H-395.995z M-390.407,351.164c-0.1,0-0.187,0.071-0.191,0.17v0.025c-0.008,0.091,0.062,0.162,0.162,0.162h0.482
		c0.1,0,0.183-0.071,0.191-0.162l0.004-0.025c0.008-0.091-0.062-0.17-0.162-0.17H-390.407z M-391.359,354.482
		c-0.1,0-0.183,0.075-0.191,0.17v0.021c-0.008,0.091,0.062,0.171,0.158,0.171h0.487c0.1,0,0.183-0.075,0.191-0.171l0.004-0.021
		c0.008-0.091-0.062-0.17-0.162-0.17H-391.359z M-390.897,352.798c-0.1,0-0.183,0.075-0.187,0.166l-0.004,0.021
		c-0.008,0.091,0.062,0.17,0.162,0.17h0.486c0.096,0,0.179-0.075,0.191-0.17l0.004-0.021c0.008-0.091-0.062-0.166-0.162-0.166
		H-390.897z M-391.966,351.954c-0.1,0-0.183,0.075-0.191,0.166v0.025c-0.008,0.091,0.062,0.171,0.158,0.171h0.482
		c0.1,0,0.183-0.075,0.191-0.171l0.004-0.025c0.008-0.087-0.062-0.166-0.162-0.166H-391.966z M-392.436,353.676
		c-0.1,0-0.183,0.075-0.191,0.17v0.021c-0.008,0.091,0.062,0.17,0.158,0.17h0.486c0.1,0,0.183-0.075,0.195-0.17l0.004-0.021
		c0.008-0.091-0.062-0.17-0.162-0.17h-0.486H-392.436z M-393.051,351.143c-0.1,0-0.179,0.071-0.191,0.162v0.021
		c-0.008,0.096,0.062,0.171,0.162,0.171h0.482c0.1,0,0.183-0.071,0.191-0.171v-0.021c0.008-0.091-0.062-0.162-0.162-0.162H-393.051z
		 M-393.999,354.466c-0.1,0-0.183,0.075-0.191,0.17l-0.004,0.021c-0.008,0.091,0.062,0.166,0.162,0.166h0.482
		c0.1,0,0.183-0.071,0.191-0.166l0.004-0.021c0.008-0.096-0.062-0.17-0.158-0.17H-393.999z M-393.537,352.777
		c-0.1,0-0.183,0.075-0.191,0.171l-0.004,0.021c-0.008,0.091,0.062,0.17,0.162,0.17h0.486c0.096,0,0.183-0.075,0.191-0.17
		l0.004-0.021c0.008-0.091-0.062-0.171-0.162-0.171H-393.537z M-394.752,351.884c-0.146,0-0.274,0.096-0.287,0.216l-0.004,0.029
		c-0.012,0.125,0.1,0.22,0.245,0.22h0.732c0.146,0,0.274-0.096,0.287-0.22l0.004-0.029c0.012-0.121-0.1-0.216-0.245-0.216H-394.752z
		 M-395.267,353.584c-0.146,0-0.274,0.096-0.287,0.22l-0.004,0.025c-0.012,0.125,0.1,0.22,0.245,0.22h0.736
		c0.146,0,0.274-0.096,0.287-0.22l0.004-0.025c0.012-0.125-0.1-0.22-0.245-0.22H-395.267z M-396.822,353.414h0.773
		c0.258,0,0.486-0.187,0.511-0.42l0.004-0.05c0.021-0.237-0.17-0.42-0.432-0.42h-0.586l0.245-0.757h0.807
		c0.258,0,0.491-0.187,0.511-0.42l0.004-0.05c0.025-0.229-0.158-0.428-0.42-0.428l11.468-0.004c0.532,2.445,0.104,4.266,0.104,4.266
		h-12.703c0.258,0,0.491-0.187,0.516-0.424l0.004-0.05c0.025-0.237-0.17-0.42-0.432-0.42h-0.636l0.262-0.815l0.008-0.004
		L-396.822,353.414z"/>
	<g>
		<path class="st0" d="M-180.935,356.871h3.156c1.231,0,1.699,0.424,1.699,1.464c0,1.002-0.468,1.426-1.699,1.426h-3.156V356.871
			 M-185.825,367.39h4.889v-4.278h5.236c3.468,0,4.716-2.042,4.716-4.682c0-3.063-1.283-4.797-4.751-4.797h-10.091V367.39z"/>
		<polyline class="st0" points="-169.37,353.634 -156.21,353.634 -156.21,356.986 -164.48,356.986 -164.48,358.836 
			-156.799,358.836 -156.799,362.188 -164.48,362.188 -164.48,364.038 -156.21,364.038 -156.21,367.39 -169.37,367.39 
			-169.37,353.634 		"/>
		<path class="st0" d="M-149.274,356.871h3.156c1.231,0,1.699,0.424,1.699,1.464c0,1.002-0.468,1.426-1.699,1.426h-3.156V356.871
			 M-154.164,367.39h4.889v-4.278h5.236c3.468,0,4.717-2.042,4.717-4.682c0-3.063-1.283-4.797-4.751-4.797h-10.091V367.39z"/>
		<path class="st0" d="M-134.588,361.552c-2.393-0.404-3.381-1.946-3.381-3.872c0-3.565,3.138-4.528,7.161-4.528
			c5.514,0,7.785,1.599,7.958,4.508h-5.687c0-0.559-0.295-0.906-0.746-1.098c-0.433-0.212-0.988-0.289-1.526-0.289
			c-1.457,0-1.959,0.404-1.959,0.983c0,0.386,0.156,0.636,0.641,0.713l5.844,0.963c2.463,0.405,3.988,1.676,3.988,4.007
			c0,3.352-2.462,4.932-7.958,4.932c-3.762,0-7.872-0.579-7.889-4.624h5.895c0.018,0.462,0.173,0.77,0.52,0.982
			c0.364,0.193,0.902,0.289,1.664,0.289c1.527,0,1.943-0.463,1.943-1.118c0-0.405-0.226-0.809-0.885-0.925L-134.588,361.552"/>
		<rect x="-120.699" y="353.634" class="st0" width="4.889" height="13.757"/>
		<path class="st0" d="M-97.69,362.034c-0.312,1.811-0.867,3.275-2.081,4.277c-1.197,1.002-3.069,1.561-6.052,1.561
			c-2.964,0-8.462-0.231-8.462-7.359c0-7.128,5.497-7.359,8.462-7.359c2.948,0,7.491,0.424,8.132,5.876h-5.514
			c-0.138-0.983-0.728-2.408-2.618-2.408c-1.994,0-3.259,1.098-3.259,3.891c0,2.794,1.231,3.892,3.017,3.892
			c1.543,0,2.462-0.713,2.861-2.37H-97.69"/>
		<path class="st0" d="M-91.293,360.512c0-2.793,1.266-3.891,3.261-3.891c1.993,0,3.259,1.098,3.259,3.891
			c0,2.794-1.266,3.892-3.259,3.892C-90.027,364.404-91.293,363.306-91.293,360.512 M-96.494,360.512
			c0,7.128,5.496,7.359,8.462,7.359c2.965,0,8.461-0.231,8.461-7.359c0-7.128-5.496-7.359-8.461-7.359
			C-90.998,353.153-96.494,353.384-96.494,360.512z"/>
		<path class="st0" d="M-193.213,353.771c0.316-6.6-5.379-14.031-13.142-14.95l0.013-0.09c7.654,0,13.522,7.081,13.522,12.668
			c-0.008,1.162-0.1,1.883-0.264,2.406L-193.213,353.771 M-193.677,354.61c-0.509,0.621-1.15,1.248-1.9,1.842
			c-1.38-7.934-7.215-14.872-11.338-16.897l-0.088,0.062c4.147,3.402,9.095,10.009,11.019,17.146
			c-0.92,0.678-1.984,1.301-3.16,1.809c-3.914-4.462-7.564-13.065-8.74-18.524l-0.12,0.036c0.027,5.299,3.791,14.296,8.383,18.685
			c-1.02,0.402-2.115,0.715-3.265,0.902c-4.401-1.742-7.534-7.323-7.534-13.039c0-3.733,1.139-6.04,1.359-6.514l-0.094-0.037
			c-0.266,0.403-1.934,2.71-1.934,6.739c0,6.463,3.189,11.4,7.423,12.957c-1.449,0.158-2.973,0.11-4.537-0.214l-0.031,0.099
			c0.452,0.167,1.989,0.811,4.332,0.811c5.302,0,8.885-3.292,10.328-5.793L-193.677,354.61z"/>
		<path class="st0" d="M-204.431,336.399c-4.019,0-8.732,2.898-8.732,5.548c0,1.025,0.938,1.892,2.88,1.892
			c4.507,0,8.695-3.096,8.695-5.502C-201.587,337.07-202.805,336.399-204.431,336.399 M-202.827,338.262
			c0,2.028-3.898,4.508-7.156,4.508c-1.439,0-2.218-0.566-2.218-1.501c0-2.058,3.942-4.495,6.999-4.495
			C-203.21,336.774-202.827,337.787-202.827,338.262z"/>
		<g>
			<path class="st0" d="M-214.764,343.173c-0.113,0.195-0.565,1.081-0.565,1.988c0,1.683,1.7,3.245,4.829,3.245
				c6.019,0,12.971-4.427,12.971-8.536c0-1.845-1.747-2.848-2.961-3.056l-0.023,0.072c0.378,0.12,1.759,0.761,1.759,2.406
				c0,3.274-6.138,7.735-12.254,7.735c-2.341,0-3.816-1.155-3.816-2.837c0-0.531,0.111-0.882,0.141-0.983L-214.764,343.173"/>
			<path class="st0" d="M-195.048,340.176c0.165,0.126,1.156,0.951,1.156,2.512c0,5.324-8.346,10.559-15.724,10.559
				c-4.401,0-6.407-2.172-6.317-4.1h0.078c0.172,1,1.601,2.792,5.452,2.792c7.388,0,15.637-5.416,15.637-10.161
				c0-0.814-0.221-1.322-0.347-1.546L-195.048,340.176"/>
		</g>
		<path class="st0" d="M-192.258,345.146c0.035,0.113,0.215,0.623,0.215,1.421c0,5.922-8.447,10.991-15.793,10.991
			c-3.781,0-5.755-1.835-6.172-2.58l0.067-0.051c1.046,0.916,3.106,1.609,5.511,1.609c6.488,0,16.169-4.932,16.082-11.37
			L-192.258,345.146"/>
	</g>
</g>
</svg>
