<?xml version="1.0" encoding="UTF-8"?>
<svg width="588px" height="154px" viewBox="0 0 588 154" version="1.1" xmlns="http://www.w3.org/2000/svg" xmlns:xlink="http://www.w3.org/1999/xlink">
    <!-- Generator: Sketch 40 (33762) - http://www.bohemiancoding.com/sketch -->
    <title>Logos</title>
    <desc>Created with Sketch.</desc>
    <defs></defs>
    <g id="Page-1" stroke="none" stroke-width="1" fill="none" fill-rule="evenodd" opacity="0.500169837">
        <g id="About" transform="translate(-232.000000, -2572.000000)" fill="#444444">
            <g id="Clients" transform="translate(50.000000, 2340.000000)">
                <g id="Logos" transform="translate(182.000000, 232.000000)">
                    <g id="ee" transform="translate(30.000000, 81.000000)">
                        <path d="M17.169398,42.2008437 C17.7703609,42.2008437 18.2990769,42.5046302 18.6077682,42.9635417 C18.9131756,42.5046302 19.4418916,42.2008437 20.0461385,42.2008437 C20.735768,42.2008437 21.330163,42.6015833 21.6027309,43.1768385 C21.8752988,42.6015833 22.4664098,42.2008437 23.1593233,42.2008437 C23.8522369,42.2008437 24.4433479,42.5983516 24.7159158,43.1736068 C24.9917676,42.5983516 25.5861626,42.2008437 26.2725082,42.2008437 C27.2215698,42.2008437 27.9867303,42.9570781 27.9867303,43.8878281 C27.9867303,44.8185781 27.2182859,45.5715807 26.2725082,45.5715807 C25.5828787,45.5715807 24.9884837,45.1708411 24.7159158,44.5955859 C24.4433479,45.1708411 23.8489529,45.5715807 23.1593233,45.5715807 C22.4696938,45.5715807 21.8752988,45.1708411 21.6027309,44.5955859 C21.330163,45.1708411 20.735768,45.5715807 20.0461385,45.5715807 C19.4451756,45.5715807 18.9164596,45.2677943 18.6077682,44.8088828 C18.4862621,44.989862 18.3319164,45.1514505 18.1480152,45.2742578 C18.5946324,45.5780443 18.890188,46.0854323 18.890188,46.6606875 C18.890188,47.2359427 18.5979164,47.7368672 18.1545831,48.0406536 C18.6012003,48.3444401 18.890188,48.8485964 18.890188,49.4206198 C18.890188,49.9926432 18.5979164,50.4967995 18.1545831,50.8005859 C18.292509,50.8943073 18.4107312,51.0074193 18.5158176,51.1334583 C18.8310769,50.7456458 19.3138176,50.4967995 19.8589533,50.4967995 C20.4894718,50.4967995 21.0378915,50.8296719 21.3367309,51.3273646 C21.6355704,50.8296719 22.1872741,50.4967995 22.8145086,50.4967995 C23.4351752,50.4967995 23.9803109,50.8232083 24.2824343,51.307974 C24.5845578,50.8232083 25.1264096,50.4967995 25.7503601,50.4967995 C26.6961378,50.4967995 27.4678661,51.2530339 27.4678661,52.1837839 C27.4678661,53.1145339 26.6994218,53.8675365 25.7503601,53.8675365 C25.1296935,53.8675365 24.5845578,53.5443594 24.2824343,53.056362 C23.9803109,53.5443594 23.4351752,53.8675365 22.8145086,53.8675365 C22.1839901,53.8675365 21.6322865,53.5346641 21.3367309,53.0402031 C21.0378915,53.5346641 20.4894718,53.8675365 19.8589533,53.8675365 C19.3138176,53.8675365 18.8310769,53.6186901 18.5158176,53.2308776 C18.4107312,53.3601484 18.2892251,53.4764922 18.1480152,53.5702135 C18.5946324,53.874 18.890188,54.381388 18.890188,54.9566432 C18.890188,55.5318984 18.5979164,56.0392865 18.1480152,56.3430729 C18.5946324,56.6468594 18.890188,57.1542474 18.890188,57.7295026 C18.890188,58.3047578 18.5946324,58.8121458 18.1480152,59.1159323 C18.3286325,59.2419714 18.4829781,59.3970964 18.6077682,59.5780755 C18.9131756,59.1159323 19.4451756,58.8121458 20.0461385,58.8121458 C20.735768,58.8121458 21.330163,59.2096536 21.6027309,59.7881406 C21.8752988,59.2128854 22.4696938,58.8121458 23.1593233,58.8121458 C23.8489529,58.8121458 24.4433479,59.2096536 24.7159158,59.7849089 C24.9917676,59.2096536 25.5861626,58.8121458 26.2725082,58.8121458 C27.2215698,58.8121458 27.9867303,59.5651484 27.9867303,60.4958984 C27.9867303,61.4266484 27.2182859,62.1828828 26.2725082,62.1828828 C25.5828787,62.1828828 24.9884837,61.785375 24.7159158,61.2101198 C24.4433479,61.785375 23.8489529,62.1828828 23.1593233,62.1828828 C22.4696938,62.1828828 21.8752988,61.7821432 21.6027309,61.206888 C21.330163,61.7821432 20.735768,62.1828828 20.0461385,62.1828828 C19.4484595,62.1828828 18.9197435,61.8823281 18.6143361,61.4266484 C18.3089288,61.8887917 17.7769288,62.1925781 17.172682,62.1925781 C16.2269043,62.1925781 15.4584599,61.4363437 15.4584599,60.5055937 C15.4584599,59.9303385 15.7540154,59.4229505 16.2006327,59.1191641 C15.7507315,58.8153776 15.4584599,58.3079896 15.4584599,57.7327344 C15.4584599,57.1574792 15.7507315,56.6500911 16.2006327,56.3463047 C15.7540154,56.0425182 15.4584599,55.5351302 15.4584599,54.959875 C15.4584599,54.3846198 15.7540154,53.8804635 16.2006327,53.5734453 C15.7507315,53.2696589 15.4584599,52.7622708 15.4584599,52.1870156 C15.4584599,51.6117604 15.7507315,51.1076042 16.1940648,50.8038177 C15.7474475,50.5000312 15.4584599,49.995875 15.4584599,49.4238516 C15.4584599,48.8518281 15.7507315,48.3476719 16.1940648,48.0438854 C15.7474475,47.740099 15.4584599,47.2359427 15.4584599,46.6639193 C15.4584599,46.0918958 15.7507315,45.581276 16.2006327,45.2774896 C15.7540154,44.9737031 15.4584599,44.4663151 15.4584599,43.8910599 C15.4584599,42.9603099 16.2269043,42.2040755 17.172682,42.2040755 L17.169398,42.2008437 Z M17.169398,10.8235807 C17.7703609,10.8235807 18.2990769,11.1273672 18.6077682,11.5862786 C18.9131756,11.1273672 19.4418916,10.8235807 20.0461385,10.8235807 C20.735768,10.8235807 21.330163,11.2243203 21.6027309,11.7995755 C21.8752988,11.2243203 22.4664098,10.8235807 23.1593233,10.8235807 C23.8522369,10.8235807 24.4433479,11.2210885 24.7159158,11.7963437 C24.9917676,11.2210885 25.5861626,10.8235807 26.2725082,10.8235807 C27.2215698,10.8235807 27.9867303,11.5765833 27.9867303,12.5073333 C27.9867303,13.4380833 27.2182859,14.1943177 26.2725082,14.1943177 C25.5828787,14.1943177 24.9884837,13.7968099 24.7159158,13.2183229 C24.4433479,13.7935781 23.8489529,14.1943177 23.1593233,14.1943177 C22.4696938,14.1943177 21.8752988,13.7935781 21.6027309,13.2183229 C21.330163,13.7935781 20.735768,14.1943177 20.0461385,14.1943177 C19.4451756,14.1943177 18.9164596,13.8905312 18.6077682,13.4316198 C18.4862621,13.6158307 18.3286325,13.7741875 18.1480152,13.8969948 C18.5946324,14.2007812 18.890188,14.7081693 18.890188,15.2834245 C18.890188,15.8554479 18.6012003,16.3596042 18.1578671,16.6666224 C18.6012003,16.9704089 18.890188,17.4777969 18.890188,18.0498203 C18.890188,18.6218437 18.6012003,19.126 18.1578671,19.4330182 C18.292509,19.5267396 18.4140152,19.6398516 18.5158176,19.7658906 C18.8310769,19.3780781 19.3138176,19.1324635 19.8589533,19.1324635 C20.4894718,19.1324635 21.0378915,19.4653359 21.3367309,19.9597969 C21.6355704,19.4621042 22.1872741,19.1324635 22.8145086,19.1324635 C23.4351752,19.1324635 23.9803109,19.4556406 24.2824343,19.943638 C24.5845578,19.4588724 25.1264096,19.1324635 25.7503601,19.1324635 C26.6961378,19.1324635 27.4678661,19.8854661 27.4678661,20.8162161 C27.4678661,21.7469661 26.6994218,22.5032005 25.7503601,22.5032005 C25.1296935,22.5032005 24.5845578,22.1800234 24.2824343,21.692026 C23.9803109,22.1800234 23.4351752,22.5032005 22.8145086,22.5032005 C22.1839901,22.5032005 21.6322865,22.1703281 21.3367309,21.6758672 C21.0378915,22.1703281 20.4894718,22.5032005 19.8589533,22.5032005 C19.3138176,22.5032005 18.8310769,22.2543542 18.5158176,21.8665417 C18.4107312,21.9958125 18.2892251,22.1089245 18.1480152,22.2026458 C18.5979164,22.5064323 18.890188,23.0138203 18.890188,23.5890755 C18.890188,24.1643307 18.5979164,24.6717187 18.1480152,24.9755052 C18.5946324,25.2792917 18.890188,25.7866797 18.890188,26.3619349 C18.890188,26.9371901 18.5979164,27.4445781 18.1480152,27.7483646 C18.3286325,27.8711719 18.4829781,28.0262969 18.6077682,28.207276 C18.9131756,27.7451328 19.4451756,27.4413464 20.0461385,27.4413464 C20.735768,27.4413464 21.330163,27.8420859 21.6027309,28.4173411 C21.8752988,27.8420859 22.4696938,27.4413464 23.1593233,27.4413464 C23.8489529,27.4413464 24.4433479,27.8388542 24.7159158,28.4141094 C24.9917676,27.8388542 25.5861626,27.4413464 26.2725082,27.4413464 C27.2215698,27.4413464 27.9867303,28.1975807 27.9867303,29.1283307 C27.9867303,30.0590807 27.2182859,30.8120833 26.2725082,30.8120833 C25.5828787,30.8120833 24.9884837,30.4145755 24.7159158,29.8393203 C24.4433479,30.4145755 23.8489529,30.8120833 23.1593233,30.8120833 C22.4696938,30.8120833 21.8752988,30.4145755 21.6027309,29.8360885 C21.330163,30.4145755 20.735768,30.8120833 20.0461385,30.8120833 C19.4484595,30.8120833 18.9197435,30.5115286 18.6143361,30.055849 C18.3089288,30.5179922 17.7769288,30.8217786 17.172682,30.8217786 C16.2269043,30.8217786 15.4584599,30.068776 15.4584599,29.138026 C15.4584599,28.5627708 15.7540154,28.0553828 16.2006327,27.7515964 C15.7507315,27.4478099 15.4584599,26.9404219 15.4584599,26.3651667 C15.4584599,25.7899115 15.7540154,25.2825234 16.2006327,24.978737 C15.7507315,24.6749505 15.4584599,24.1643307 15.4584599,23.5923073 C15.4584599,23.0202839 15.7540154,22.5096641 16.2006327,22.2058776 C15.7507315,21.9020911 15.4584599,21.3947031 15.4584599,20.8194479 C15.4584599,20.2474245 15.7474475,19.7432682 16.1907808,19.43625 C15.7474475,19.1324635 15.4584599,18.6250755 15.4584599,18.0530521 C15.4584599,17.4810286 15.7474475,16.9768724 16.1907808,16.6698542 C15.7474475,16.3660677 15.4584599,15.8586797 15.4584599,15.2866562 C15.4584599,14.711401 15.7540154,14.204013 16.2006327,13.9002266 C15.7507315,13.5964401 15.4584599,13.0858203 15.4584599,12.5137969 C15.4584599,11.5830469 16.2269043,10.8300443 17.172682,10.8300443 L17.169398,10.8235807 Z M21.8687309,0.149041667 C9.97754689,0.149041667 0.759498434,9.63428906 0.759498434,20.7257266 C0.759498434,30.5535417 7.29455951,35.8439505 7.29455951,35.8439505 C7.94149771,36.4030469 7.7773002,36.6939062 7.31754716,37.1495859 C7.31754716,37.1495859 0.759498434,43.0055547 0.759498434,52.0609766 C0.759498434,64.4742083 10.8740653,72.8541901 21.8687309,72.8541901 C34.1605568,72.8541901 42.9024325,63.0425339 42.9024325,52.2064062 C42.9024325,42.8795156 36.6070998,37.3758099 36.6070998,37.3758099 C35.7171492,36.5355495 35.7204332,36.3965833 36.6070998,35.6306536 C36.6070998,35.6306536 42.9024325,30.4371979 42.9024325,20.7289583 C42.9024325,9.75709635 33.9241124,0.152273437 21.8687309,0.152273437 L21.8687309,0.149041667 Z" id="Shape"></path>
                    </g>
                    <g id="firstdirect" transform="translate(158.000000, 114.000000)">
                        <g id="Group">
                            <path d="M6.2427895,3.06390885 L7.49397456,3.06390885 L7.49397456,0.552822917 C6.96197461,0.530200521 6.2887648,0.543127604 5.7337772,0.543127604 C2.67641948,0.543127604 1.68795045,2.20425781 1.68795045,3.98173177 L1.68795045,5.03205729 L0.00328395029,5.03205729 L0.00328395029,7.33954167 L1.68795045,7.33954167 L1.68795045,16.2883151 L5.20506121,16.2883151 L5.20506121,7.33954167 L7.36590049,7.33954167 L7.36590049,5.03205729 L5.29701181,5.03205729 L5.29701181,4.17886979 C5.29701181,3.40324479 5.75676485,3.06067708 6.2427895,3.06067708 L6.2427895,3.06390885 Z" id="Shape"></path>
                            <polygon id="Shape" points="8.84039417 4.80583333 12.1309124 4.80583333 12.1309124 16.2947786 8.84039417 16.2947786"></polygon>
                            <polygon id="Shape" points="8.91592503 0.514041667 12.1506161 0.514041667 12.1506161 3.18348438 8.91592503 3.18348438"></polygon>
                            <path d="M21.8284176,7.75320833 L21.8284176,4.58607292 C19.0009364,4.58607292 18.2916031,5.20657292 17.7136279,6.63178385 L17.7234797,4.91248177 L14.4723689,4.91248177 L14.4723689,16.2915469 L17.8811093,16.2915469 L17.8811093,11.1336406 C17.8811093,9.61147656 18.2193562,7.236125 21.8317015,7.7564401 L21.8284176,7.75320833 Z" id="Shape"></path>
                            <path d="M25.7133308,7.73058594 C25.7133308,6.37324219 29.6442192,6.37324219 29.5588365,8.21858333 L32.563651,8.21858333 C32.3206387,5.43602865 30.0054538,4.60223177 27.4899479,4.60223177 C25.0204172,4.60223177 22.4819237,5.51035937 22.4819237,8.40279427 C22.4819237,10.3967969 24.3209358,11.0205286 26.1303924,11.4729766 C28.3996021,12.0417682 29.5062933,11.9383516 29.6639229,12.8691016 C29.8905155,14.2232135 28.1730095,14.3686432 27.6442935,14.3686432 C26.3996764,14.3686432 25.2404419,14.0131484 25.2207382,12.6558047 L22.2159237,12.6558047 C22.3472817,15.6581198 24.9514543,16.5921016 27.6245898,16.5921016 C30.25175,16.5921016 32.8789103,15.4318958 32.8789103,12.4522031 C32.8789103,8.18303385 25.7133308,9.87971354 25.7133308,7.73058594 L25.7133308,7.73058594 Z" id="Shape"></path>
                            <path d="M40.5272305,16.3141693 L40.5272305,13.8515599 C38.3598233,13.864487 38.3598233,13.7739974 38.3860949,12.4942161 L38.3860949,7.44295833 L40.4779712,7.44295833 L40.4779712,5.08376562 L38.3860949,5.08376562 L38.3860949,1.50619531 L35.0266138,1.50619531 L35.0266138,5.08376562 L33.3944905,5.08376562 L33.3944905,7.44295833 L35.0266138,7.44295833 L35.0266138,13.3635625 C35.0266138,15.3349427 34.8657002,16.5791745 40.5272305,16.3141693 L40.5272305,16.3141693 Z" id="Shape"></path>
                            <path d="M49.2888099,10.5616172 C49.2888099,7.64009635 50.7600196,7.08746354 51.856859,7.08746354 C53.6597477,7.08746354 54.4643155,8.477125 54.4643155,10.5422266 C54.4643155,12.5750104 53.774686,14.1618099 51.856859,14.1618099 C50.1853283,14.1618099 49.2888099,12.6655 49.2888099,10.5616172 L49.2888099,10.5616172 Z M54.4807353,15.1022552 L54.5496982,16.2915469 L57.7416979,16.2915469 L57.7416979,0.543127604 L54.4019205,0.543127604 L54.3789328,6.05976042 C53.6433279,4.94156771 52.4118466,4.60223177 51.0555751,4.60223177 C47.6698224,4.60223177 45.9588843,7.42679948 45.9588843,10.4743594 C45.9588843,13.6059453 47.6501187,16.5791745 51.1245381,16.5791745 C52.5924639,16.5791745 53.7516983,16.3303281 54.4840192,15.1022552 L54.4807353,15.1022552 Z" id="Shape"></path>
                            <polygon id="Shape" points="59.9353767 4.80583333 63.2226109 4.80583333 63.2226109 16.2947786 59.9353767 16.2947786"></polygon>
                            <polygon id="Shape" points="60.0109076 0.514041667 63.2455986 0.514041667 63.2455986 3.18348438 60.0109076 3.18348438"></polygon>
                            <path d="M72.9234001,7.7790625 L72.9234001,4.61192708 C70.0959189,4.61192708 69.3865856,5.23565885 68.8053264,6.65763802 L68.8151783,4.93510417 L65.5640675,4.93510417 L65.5640675,16.2592292 L68.9728079,16.2592292 L68.9728079,11.1530313 C68.9728079,9.54360938 69.3340424,7.14240365 72.9234001,7.77583073 L72.9234001,7.7790625 Z" id="Shape"></path>
                            <path d="M76.36498,9.25598177 C76.4076713,8.3769401 77.0973009,6.9484974 78.9921402,6.9484974 C80.3648314,6.9484974 81.2974733,7.7790625 81.2974733,9.25598177 L76.36498,9.25598177 Z M84.4829051,13.0242266 L81.317177,13.0242266 C81.0643128,13.4992969 80.4666339,14.1973594 79.0512513,14.1973594 C78.0726341,14.1973594 76.4175232,13.3667943 76.3288565,11.3954141 L84.6832261,11.3954141 C84.9328063,7.76290365 82.9624361,4.55375521 79.0446834,4.55375521 C75.5538443,4.55375521 73.1696964,7.19088021 73.1696964,10.5842396 C73.1696964,14.0874792 75.4192023,16.543625 79.0446834,16.543625 C81.6521399,16.543625 83.5962385,15.7001328 84.4829051,13.0242266 L84.4829051,13.0242266 Z" id="Shape"></path>
                            <path d="M89.2610528,10.6262526 C89.2610528,8.95865885 89.9572502,6.91941146 91.9013488,6.94526562 C92.9916203,6.95819271 94.0326325,7.72089062 94.2395214,9.01359896 L97.3362865,8.97804948 C97.1096939,5.99835677 94.6434473,4.60223177 91.9276204,4.60223177 C88.187201,4.60223177 86.0493494,7.20703906 86.0493494,10.7361328 C86.0493494,14.4041927 88.387522,16.5921016 91.8619414,16.5921016 C94.8897436,16.5921016 96.9487804,15.1410365 97.3527063,12.1419531 L94.3019165,12.0708542 C94.0720399,13.4605156 93.1558178,14.145651 91.8389537,14.145651 C89.9835218,14.145651 89.2643367,12.4166536 89.2643367,10.6294844 L89.2610528,10.6262526 Z" id="Shape"></path>
                            <path d="M102.94199,12.4748255 L102.94199,7.42356771 L105.033866,7.42356771 L105.033866,5.064375 L102.94199,5.064375 L102.94199,1.49003646 L99.5825085,1.49003646 L99.5825085,5.064375 L97.9503852,5.064375 L97.9503852,7.42356771 L99.5825085,7.42356771 L99.5825085,13.3409401 C99.5825085,15.3123203 99.421595,16.5597839 105.086409,16.2947786 L105.086409,13.8321693 C102.915718,13.8450964 102.915718,13.7546068 102.94199,12.4748255 L102.94199,12.4748255 Z" id="Shape"></path>
                        </g>
                    </g>
                    <g id="itv" transform="translate(332.000000, 98.000000)">
                        <g id="Group">
                            <path d="M0.245903625,7.10818932 C0.435516059,7.69148637 0.74067357,8.19564262 1.13174922,8.61479578 C3.87224143,11.5547302 10.8286476,10.511244 10.8819761,6.01487373 C11.7678217,2.80820549 8.75772429,0.0705198038 5.48098442,0.102762355 C5.01287872,0.108624637 4.53884764,0.170178597 4.07074194,0.293286519 C2.04722175,0.560020349 0.808815539,1.92300091 0.29034404,3.55564644 C-0.074067357,4.69879142 -0.100731606,5.96797547 0.245903625,7.10232703 L0.245903625,7.10525818 L0.245903625,7.10818932 Z" id="Shape"></path>
                            <path d="M76.3782586,13.5625618 L76.3782586,13.5625618 C74.4228803,19.2255262 72.5593456,25.1288441 68.873754,30.0590233 C65.9584628,25.958357 64.192697,21.1424924 60.5722846,17.4814973 C60.2404628,10.9421217 49.9984287,13.213756 49.1599862,18.2142825 C49.6666069,20.157629 50.8516846,21.8782088 51.9301054,23.5929262 C51.9449188,25.9642193 51.4886639,28.4703448 49.6843831,30.28179 C49.0503665,30.9031919 48.318581,31.4102793 47.5156909,31.800121 C42.3043116,34.335558 34.3050371,32.0404746 33.8043417,26.2338843 C33.7687894,25.7854197 33.7717521,25.3193683 33.831006,24.8327989 C33.9021107,23.96225 33.9139614,23.08877 33.899148,22.2123588 C33.8843345,21.3359477 33.8517449,20.4653988 33.8428568,19.5919188 C36.9062827,20.4126383 40.1178433,20.0814193 43.2494111,20.1136619 C43.2908888,19.0672445 43.3145904,18.0208272 43.3175531,16.9744099 C43.3175531,15.9279926 43.3027396,14.8845064 43.27015,13.8351579 C40.1178433,13.7618794 36.9566485,13.9641281 33.8102671,13.6944631 C33.7954537,13.3016902 33.792491,12.9089173 33.7954537,12.5132133 C33.8191552,10.927466 33.9732153,9.32120076 33.9406257,7.73252235 C33.9169241,6.53954797 33.7954537,5.36709157 33.434005,4.22394658 C31.146805,2.52388481 26.7531294,2.1223185 24.2555781,3.80186228 C23.9000548,4.0392847 23.5800838,4.32653652 23.3134413,4.64896203 C23.2038216,8.55031068 23.1445677,12.466315 23.1445677,16.3793883 C23.1445677,20.2924615 23.2008589,24.211397 23.316404,28.1068834 C22.6883128,30.8738805 19.7937605,32.632565 16.9436486,32.7996401 C15.0475243,32.9080923 13.1751015,32.3042773 12.0077999,30.8123265 C11.8122621,30.5661106 11.6404258,30.2876523 11.4893284,29.991607 C10.0139067,24.689173 11.4893284,19.0819003 10.6449606,13.691532 C7.13713052,13.8117088 3.60559894,13.5273881 0.118507771,13.8967118 C0.121470466,15.1131354 0.118507771,16.3266277 0.106656994,17.5430512 C0.094806217,18.7594747 0.0799927456,19.970036 0.0770300513,21.1835283 C0.0651792742,23.6134442 0.0799927456,26.040429 0.201463211,28.4674137 C0.22812746,28.8044949 0.305157511,29.1298516 0.370336785,29.4581394 C0.408851811,29.6721126 0.423665282,29.8890171 0.479956474,30.1000592 C0.521434193,30.261272 0.598464245,30.407829 0.651792742,30.5719729 C0.770300513,30.9383656 0.879920201,31.3047582 1.04286839,31.6564951 C1.0902715,31.7532227 1.15545077,31.8470193 1.20581657,31.9437469 C1.40431709,32.3394509 1.61170569,32.7380861 1.86057201,33.1044787 C2.14499066,33.5236319 2.46792434,33.9222671 2.80863418,34.2974531 C2.84122382,34.335558 2.86788806,34.3824562 2.90640309,34.420561 C3.28859065,34.8338519 3.70633055,35.2149003 4.15369738,35.5724995 L4.15666008,35.5754306 C5.50172328,36.6452971 7.10157819,37.4367051 8.84956782,37.8324092 C15.059375,39.5324709 22.7475667,39.1484915 27.7337812,34.9862713 C36.4855801,40.719583 51.2338722,40.5437146 57.22444,31.3663121 C59.0435343,33.3536257 60.1752835,35.8450956 62.2136172,37.6477473 C63.5023892,38.3834637 65.0815053,38.7879611 66.6546959,38.8084791 C69.2737177,38.8407217 71.8690379,37.8030977 73.0748544,35.5021521 C77.1100441,29.0595042 81.4592793,22.3442602 82.9584026,14.9958897 C80.8519269,14.2103439 78.6832347,13.4570407 76.3693705,13.5420438 L76.3812213,13.5537684 L76.3782586,13.5625618 Z" id="Shape"></path>
                        </g>
                    </g>
                    <g id="lucozade" transform="translate(489.000000, 90.000000)">
                        <g id="Group">
                            <path d="M2.2396541,47.0517318 L4.77486372,47.0517318 C4.97518469,47.0517318 5.07041924,47.1874661 5.07041924,47.3749089 L5.07041924,48.1440703 C5.07041924,48.331513 4.97518469,48.4672474 4.77486372,48.4672474 L0.295555526,48.4672474 C0.0952345583,48.4672474 0,48.331513 0,48.1440703 L0,41.3670469 C0,41.1796042 0.0952345583,41.0438698 0.295555526,41.0438698 L1.94409857,41.0438698 C2.14441954,41.0438698 2.2396541,41.1796042 2.2396541,41.3670469 L2.2396541,47.0517318 L2.2396541,47.0517318 Z" id="Shape"></path>
                            <path d="M10.170394,41.3670469 C10.170394,41.1796042 10.2656286,41.0438698 10.4659496,41.0438698 L11.6481717,41.0438698 C11.8484926,41.0438698 11.9437272,41.1796042 11.9437272,41.3670469 L11.9437272,45.8979896 C11.9437272,47.4460078 10.8764434,48.6126771 8.82725837,48.6126771 C7.19185113,48.6126771 5.59585129,47.895224 5.59585129,46.004638 L5.59585129,41.3670469 C5.59585129,41.1796042 5.69108585,41.0438698 5.89140682,41.0438698 L7.53994986,41.0438698 C7.74027083,41.0438698 7.83550539,41.1796042 7.83550539,41.3670469 L7.83550539,46.0434193 C7.83550539,46.8545937 8.25913497,47.2068568 8.99802379,47.2068568 C9.84199901,47.2068568 10.170394,46.851362 10.170394,46.0434193 L10.170394,41.3638151 L10.170394,41.3670469 Z" id="Shape"></path>
                            <path d="M17.0239983,40.8984401 C18.163529,40.8984401 18.7973314,41.1472865 19.1027388,41.2927161 C19.2505166,41.3670469 19.3982943,41.4704635 19.3982943,41.7193099 L19.3982943,42.8827474 C19.3982943,42.9861641 19.3457511,43.0507995 19.2603684,43.0507995 C19.1749857,43.0507995 19.1125907,43.0087865 19.0501956,42.9570781 C18.6594055,42.6015833 17.9599241,42.2913333 17.2013316,42.2913333 C16.0913564,42.2913333 15.2145417,42.8956745 15.2145417,44.7539427 C15.2145417,46.6122109 16.0913564,47.2165521 17.2013316,47.2165521 C17.9599241,47.2165521 18.6594055,46.9030703 19.0501956,46.5508073 C19.1125907,46.499099 19.1749857,46.4570859 19.2603684,46.4570859 C19.3457511,46.4570859 19.3982943,46.5184896 19.3982943,46.6219063 L19.3982943,47.7853438 C19.3982943,48.0341901 19.2505166,48.1408385 19.1027388,48.2119375 C18.7973314,48.3573672 18.163529,48.6062135 17.0239983,48.6062135 C14.7744923,48.6062135 12.8632333,47.274724 12.8632333,44.7507109 C12.8632333,42.2266979 14.7744923,40.8952083 17.0239983,40.8952083 L17.0239983,40.8984401 Z" id="Shape"></path>
                            <path d="M23.3685902,47.2811875 C23.5262199,47.3232005 23.6871334,47.3555182 23.8874544,47.3555182 C24.0877754,47.3555182 24.245405,47.3232005 24.4030346,47.2811875 C25.0893802,47.0937448 25.4177752,46.4603177 25.4177752,44.7539427 C25.4177752,43.0475677 25.0893802,42.4141406 24.4030346,42.2266979 C24.242121,42.1846849 24.0844914,42.155599 23.8874544,42.155599 C23.6904174,42.155599 23.5262199,42.1879167 23.3685902,42.2266979 C22.6822446,42.4141406 22.3538496,43.0475677 22.3538496,44.7539427 C22.3538496,46.4603177 22.6822446,47.0937448 23.3685902,47.2811875 L23.3685902,47.2811875 Z M27.7657997,44.7539427 C27.7657997,47.2714922 26.1271085,48.6094453 23.8776025,48.6094453 C21.6280966,48.6094453 20.0025412,47.2682604 20.0025412,44.7539427 C20.0025412,42.2266979 21.6280966,40.8984401 23.8776025,40.8984401 C26.1271085,40.8984401 27.7657997,42.2266979 27.7657997,44.7539427 L27.7657997,44.7539427 Z" id="Shape"></path>
                            <path d="M31.046466,47.0517318 L33.8969349,47.0517318 C34.0972558,47.0517318 34.1924904,47.1874661 34.1924904,47.3749089 L34.1924904,48.1440703 C34.1924904,48.331513 34.0972558,48.4672474 33.8969349,48.4672474 L28.4488613,48.4672474 C28.2485404,48.4672474 28.1533058,48.331513 28.1533058,48.1440703 L28.1533058,47.8822969 C28.1533058,47.6334505 28.5014045,47.0743542 28.5966391,46.9256927 L31.4077005,42.465849 L28.5572317,42.465849 C28.3569107,42.465849 28.2616762,42.3301146 28.2616762,42.1426719 L28.2616762,41.3735104 C28.2616762,41.1860677 28.3569107,41.0503333 28.5572317,41.0503333 L33.9002188,41.0503333 C34.1005398,41.0503333 34.1957743,41.1860677 34.1957743,41.3735104 L34.1957743,41.6643698 C34.1957743,42.0909635 33.952762,42.4432266 33.8575275,42.5886563 L31.046466,47.0485 L31.046466,47.0517318 Z" id="Shape"></path>
                            <path d="M37.6997493,42.9473828 L36.9937,45.5134089 L38.4419221,45.5134089 L37.722737,42.9473828 L37.7030332,42.9473828 L37.6997493,42.9473828 Z M36.3500457,41.9907786 C36.530663,41.379974 36.9411568,41.0438698 37.6275024,41.0438698 L39.0198973,41.0438698 C39.2103664,41.0438698 39.367996,41.1472865 39.4205392,41.3250339 L41.5649588,47.9857135 C41.5977983,48.1020573 41.6273538,48.1408385 41.6273538,48.247487 C41.6273538,48.3541354 41.5419711,48.4672474 41.3843415,48.4672474 L39.6405639,48.4672474 C39.3548602,48.4672474 39.2169343,48.2895 39.1545393,48.050349 L38.776885,46.6897734 L36.665305,46.6897734 L36.2942186,48.050349 C36.2318235,48.2895 36.1037495,48.4672474 35.8180458,48.4672474 L34.5602928,48.4672474 C34.4026632,48.4672474 34.3271324,48.3541354 34.3271324,48.247487 C34.3271324,48.1408385 34.3468361,48.1020573 34.3796756,47.9857135 L36.3434778,41.9875469 L36.3500457,41.9907786 Z" id="Shape"></path>
                            <path d="M44.5533535,46.9580104 C44.5533535,47.1357578 44.724119,47.2068568 44.8292054,47.2294792 C44.9769831,47.2617969 45.0393782,47.2714922 45.2298473,47.2714922 C46.5598472,47.2714922 47.1509582,46.4603177 47.1509582,44.7668698 C47.1509582,43.0507995 46.5598472,42.239625 45.2298473,42.239625 C45.0393782,42.239625 44.9769831,42.2493203 44.8292054,42.281638 C44.724119,42.3010286 44.5533535,42.3753594 44.5533535,42.5531068 L44.5533535,46.9612422 L44.5533535,46.9580104 Z M42.3169834,41.3670469 C42.3169834,41.1796042 42.412218,41.0438698 42.6125389,41.0438698 L45.2856745,41.0438698 C48.0836001,41.0438698 49.479279,42.8827474 49.479279,44.7539427 C49.479279,46.625138 48.0836001,48.4640156 45.2856745,48.4640156 L42.6125389,48.4640156 C42.412218,48.4640156 42.3169834,48.3282812 42.3169834,48.1408385 L42.3169834,41.3638151 L42.3169834,41.3670469 Z" id="Shape"></path>
                            <path d="M50.5301431,41.3670469 C50.5301431,41.1796042 50.6253776,41.0438698 50.8256986,41.0438698 C52.5037972,41.0438698 52.5366367,41.0438698 55.09155,41.0535651 C55.291871,41.0535651 55.3871055,41.1892995 55.3871055,41.3767422 L55.3871055,42.1459036 C55.3871055,42.3333464 55.291871,42.4690807 55.09155,42.4690807 L52.7665132,42.4690807 L52.7665132,43.8813646 L54.7730068,43.8813646 C54.9733278,43.8813646 55.0685624,44.017099 55.0685624,44.2045417 L55.0685624,44.9737031 C55.0685624,45.1611458 54.9733278,45.2968802 54.7730068,45.2968802 L52.7665132,45.2968802 L52.7665132,47.0549635 L55.09155,47.0549635 C55.291871,47.0549635 55.3871055,47.1906979 55.3871055,47.3781406 L55.3871055,48.1473021 C55.3871055,48.3347448 55.291871,48.4704792 55.09155,48.4704792 L50.8256986,48.4704792 C50.6253776,48.4704792 50.5301431,48.3347448 50.5301431,48.1473021 L50.5301431,41.3702786 L50.5301431,41.3670469 Z" id="Shape"></path>
                            <path d="M64.1125615,48.4640156 C63.6462405,48.4640156 63.4360677,48.402612 63.2882899,48.0568125 L62.3063888,45.7493281 C62.2210061,45.539263 62.1159197,45.3518203 62.1159197,45.0189479 C62.1159197,44.6666849 62.3293765,44.5600365 62.5494011,44.4275339 C62.9401912,44.1883828 63.2554504,43.9686224 63.2554504,43.128362 C63.2554504,42.2977969 62.8646604,42.1103542 62.2636974,42.1103542 C62.096216,42.1103542 61.8729074,42.1200495 61.7349815,42.2040755 C61.5970555,42.2784062 61.5346605,42.3721276 61.5346605,42.5175573 L61.5346605,48.1408385 C61.5346605,48.3379766 61.4492778,48.4640156 61.2489568,48.4640156 L59.5905619,48.4640156 C59.3902409,48.4640156 59.2950064,48.3282812 59.2950064,48.1408385 L59.2950064,41.9455339 C59.2950064,41.5512578 59.4854755,41.3961328 59.7908829,41.2507031 C60.1619693,41.0761875 61.1340185,40.8984401 62.2636974,40.8984401 C64.3752775,40.8984401 65.3473268,41.7193099 65.3473268,43.1315937 C65.3473268,44.1916146 64.5657466,44.6828437 63.8170059,44.9413854 L63.8170059,44.9737031 C64.1651047,45.0674245 64.5132034,45.4099922 64.6609812,45.6911562 L65.6527341,47.6334505 C65.7676724,47.8629062 65.862907,47.9663229 65.862907,48.1440703 C65.862907,48.4252344 65.6527341,48.4672474 65.4524132,48.4672474 L64.1125615,48.4672474 L64.1125615,48.4640156 Z" id="Shape"></path>
                            <path d="M66.7101661,41.3670469 C66.7101661,41.1796042 66.8054007,41.0438698 67.0057217,41.0438698 L68.6542647,41.0438698 C68.8545857,41.0438698 68.9498202,41.1796042 68.9498202,41.3670469 L68.9498202,48.1440703 C68.9498202,48.331513 68.8545857,48.4672474 68.6542647,48.4672474 L67.0057217,48.4672474 C66.8054007,48.4672474 66.7101661,48.331513 66.7101661,48.1440703 L66.7101661,41.3670469 L66.7101661,41.3670469 Z" id="Shape"></path>
                            <path d="M72.5621655,47.0194141 C72.5621655,47.2068568 72.6771038,47.2585651 72.7427828,47.2779557 C72.8478692,47.3102734 73.0481902,47.3393594 73.2288075,47.3393594 C74.0202395,47.3393594 74.3387827,46.9547786 74.3387827,46.3956823 C74.3387827,45.7525599 73.9479926,45.4584688 73.6228815,45.2096224 C73.4324124,45.0641927 73.2747828,44.9510807 73.2747828,44.6182083 C73.2747828,44.3790573 73.4751037,44.172224 73.6754247,43.9944766 C73.9611284,43.7327031 74.184437,43.4838568 74.184437,43.0184818 C74.184437,42.4270677 73.8987333,42.155599 73.2977704,42.155599 C73.127005,42.155599 72.9069803,42.1652943 72.7690544,42.2493203 C72.6311285,42.323651 72.5687335,42.4173724 72.5687335,42.5628021 L72.5687335,47.0226458 L72.5621655,47.0194141 Z M75.1499184,44.5374141 L75.1499184,44.5697318 C76.0168813,44.7474792 76.6178442,45.3388932 76.6178442,46.1823854 C76.6178442,47.584974 75.573548,48.4704792 73.7345358,48.4704792 L70.6213509,48.4704792 C70.42103,48.4704792 70.3257954,48.3347448 70.3257954,48.1473021 L70.3257954,41.9519974 C70.3257954,41.5544896 70.5162645,41.3993646 70.8216719,41.2539349 C71.1927583,41.0761875 72.0465854,40.9016719 73.1762643,40.9016719 C75.373227,40.9016719 76.2598936,41.7419323 76.2598936,42.9473828 C76.2598936,43.8522786 75.6687825,44.3111901 75.1532023,44.5374141 L75.1499184,44.5374141 Z" id="Shape"></path>
                            <path d="M77.7770786,41.3670469 C77.7770786,41.1796042 77.8723132,41.0438698 78.0726341,41.0438698 C79.7540167,41.0438698 79.7835722,41.0438698 82.3384856,41.0535651 C82.5388065,41.0535651 82.6340411,41.1892995 82.6340411,41.3767422 L82.6340411,42.1459036 C82.6340411,42.3333464 82.5388065,42.4690807 82.3384856,42.4690807 L80.0134488,42.4690807 L80.0134488,43.8813646 L82.0199424,43.8813646 C82.2202633,43.8813646 82.3154979,44.017099 82.3154979,44.2045417 L82.3154979,44.9737031 C82.3154979,45.1611458 82.2202633,45.2968802 82.0199424,45.2968802 L80.0134488,45.2968802 L80.0134488,47.0549635 L82.3384856,47.0549635 C82.5388065,47.0549635 82.6340411,47.1906979 82.6340411,47.3781406 L82.6340411,48.1473021 C82.6340411,48.3347448 82.5388065,48.4704792 82.3384856,48.4704792 L78.0726341,48.4704792 C77.8723132,48.4704792 77.7770786,48.3347448 77.7770786,48.1473021 L77.7770786,41.3702786 L77.7770786,41.3670469 Z" id="Shape"></path>
                            <path d="M88.8144355,46.3536693 L88.8144355,41.3638151 C88.8144355,41.1763724 88.9096701,41.040638 89.109991,41.040638 L90.2922132,41.040638 C90.4925341,41.040638 90.5877687,41.1763724 90.5877687,41.3638151 L90.5877687,48.1408385 C90.5877687,48.3282813 90.4925341,48.4640156 90.2922132,48.4640156 L88.9490775,48.4640156 C88.2101887,48.4640156 87.7767072,48.1311432 87.5139912,47.4783255 L85.6979667,42.9247604 L85.678263,42.9247604 L85.678263,48.1440703 C85.678263,48.331513 85.5830284,48.4672474 85.3827075,48.4672474 L84.1972014,48.4672474 C83.9968805,48.4672474 83.9016459,48.331513 83.9016459,48.1440703 L83.9016459,41.3670469 C83.9016459,41.1796042 83.9968805,41.0438698 84.1972014,41.0438698 L85.6224358,41.0438698 C86.3613247,41.0438698 86.7948061,41.3024115 86.9951271,41.8227266 L88.7783121,46.3536693 L88.8111516,46.3536693 L88.8144355,46.3536693 Z" id="Shape"></path>
                            <path d="M94.5909041,42.9473828 L93.8848548,45.5134089 L95.3330768,45.5134089 L94.6138917,42.9473828 L94.594188,42.9473828 L94.5909041,42.9473828 Z M93.2379166,41.9907786 C93.4185338,41.379974 93.8290276,41.0438698 94.5153732,41.0438698 L95.9110521,41.0438698 C96.1015212,41.0438698 96.2591508,41.1472865 96.311694,41.3250339 L98.4561136,47.9857135 C98.4889531,48.1020573 98.5185086,48.1408385 98.5185086,48.247487 C98.5185086,48.3541354 98.4331259,48.4672474 98.2754963,48.4672474 L96.5317187,48.4672474 C96.246015,48.4672474 96.1080891,48.2895 96.0456941,48.050349 L95.6647558,46.6897734 L93.5531758,46.6897734 L93.1820894,48.050349 C93.1196943,48.2895 92.9916203,48.4672474 92.7059166,48.4672474 L91.4481637,48.4672474 C91.290534,48.4672474 91.2150032,48.3541354 91.2150032,48.247487 C91.2150032,48.1408385 91.2347069,48.1020573 91.2675464,47.9857135 L93.2346326,41.9875469 L93.2379166,41.9907786 Z" id="Shape"></path>
                            <path d="M29.2895526,52.788125 L28.7115774,53.7738151 C28.205849,53.5120417 27.6541454,53.3827708 27.0630343,53.3827708 C26.225627,53.3827708 25.8085653,53.6574714 25.8085653,54.2101042 C25.8085653,54.4427917 25.893948,54.6399297 26.0614295,54.8079818 C26.2420467,54.9857292 26.6065652,55.1764036 27.1549849,55.3767734 C28.0055281,55.693487 28.5572317,56.0489818 28.8133798,56.4335625 C29.0432563,56.779362 29.1581946,57.1639427 29.1581946,57.5905365 C29.1581946,58.2336589 28.934886,58.7475104 28.4915527,59.1353229 C28.0055281,59.5522214 27.3290343,59.7622865 26.4587875,59.7622865 C25.6476517,59.7622865 24.8857753,59.5845391 24.1698741,59.2258125 L24.705158,58.2401224 C25.2798493,58.4922005 25.8184172,58.6182396 26.3241455,58.6182396 C27.1943923,58.6182396 27.6311577,58.3176849 27.6311577,57.7198073 C27.6311577,57.4806563 27.549059,57.28675 27.3881454,57.131625 C27.214096,56.9571094 26.8561455,56.7728984 26.3142937,56.5725286 C25.4571826,56.2558151 24.8989111,55.9035521 24.6329111,55.5157396 C24.4030346,55.1699401 24.2880963,54.7853594 24.2880963,54.3619974 C24.2880963,53.8384505 24.4785654,53.3892344 24.8529358,53.0175807 C25.3520962,52.519888 26.0482937,52.2710417 26.9382442,52.2710417 C27.7690836,52.2710417 28.5539477,52.4423255 29.2895526,52.788125 L29.2895526,52.788125 Z" id="Shape"></path>
                            <path d="M36.862342,52.3809219 L36.8426383,57.0508307 C36.8360704,57.8943229 36.5536506,58.5568359 35.9920951,59.0416016 C35.4305397,59.5199036 34.6916508,59.7590547 33.7655769,59.7590547 C32.7738239,59.7590547 32.0217993,59.4778906 31.509503,58.9123307 C31.0628858,58.4340286 30.846145,57.7876745 30.8527129,56.9700365 L30.8822685,52.3776901 L32.3403424,52.3776901 L32.3107869,57.047599 C32.304219,58.1367057 32.8395029,58.6796432 33.9199225,58.6796432 C34.4322188,58.6796432 34.8328607,58.5212865 35.1251323,58.2013411 C35.4009841,57.8975547 35.53891,57.483888 35.53891,56.9668047 L35.5586137,52.3744583 L36.862342,52.3744583 L36.862342,52.3809219 Z" id="Shape"></path>
                            <path d="M45.1707362,52.3809219 L45.0984893,59.4423411 L43.4171067,59.8301536 L40.7735268,55.2571979 C40.4714033,54.733651 40.2480947,54.2585807 40.1068849,53.831987 L40.1068849,53.8707682 C40.1692799,54.5429766 40.1988355,55.0277422 40.1988355,55.3250651 L40.1889836,59.6362474 L38.8721196,59.6362474 L38.9213788,52.6136094 L40.6126132,52.2451875 L43.2332055,56.7858255 C43.4959216,57.244737 43.7257981,57.7198073 43.9228351,58.2110365 C43.86044,57.6551719 43.8308845,57.1542474 43.8308845,56.7179583 L43.8407363,52.3744583 L45.1674523,52.3744583 L45.1707362,52.3809219 Z" id="Shape"></path>
                            <polygon id="Shape" points="46.50402 52.3809219 46.50402 53.5055781 48.4284149 53.5055781 48.3857235 59.6394792 49.8536493 59.6394792 49.8930567 53.5055781 51.8174516 53.5055781 51.8174516 52.3809219"></polygon>
                            <path d="M56.4543894,53.3439896 C55.8764141,53.3439896 55.3903895,53.5378958 54.9963155,53.9224766 C54.497155,54.4137057 54.2475748,55.1246953 54.2475748,56.0522135 C54.2475748,57.8006016 54.9569081,58.6731797 56.3722906,58.6731797 C57.3115004,58.6731797 57.9650065,58.2304271 58.3360929,57.3481536 C58.5134262,56.9441823 58.5988089,56.4885026 58.5988089,55.9843464 C58.5988089,55.2992109 58.4674509,54.733651 58.2047349,54.2812031 C57.8336485,53.6574714 57.2491054,53.3439896 56.4543894,53.3439896 L56.4543894,53.3439896 Z M56.4740931,52.2710417 C57.6760189,52.2710417 58.6119447,52.6394635 59.2884385,53.3763073 C59.8894014,54.0355885 60.1915248,54.888776 60.1915248,55.9358698 C60.1915248,57.0443672 59.8237224,57.9621901 59.0881175,58.6861068 C58.3590806,59.4035599 57.4527103,59.7622865 56.3657227,59.7622865 C55.160513,59.7622865 54.2245871,59.4003281 53.5645131,58.6764115 C52.9701181,58.0300573 52.6745626,57.1671745 52.6745626,56.0748359 C52.6745626,54.9663385 53.042365,54.0517474 53.7779699,53.3278307 C54.4873032,52.6233047 55.3871055,52.2710417 56.480661,52.2710417 L56.4740931,52.2710417 Z" id="Shape"></path>
                            <path d="M67.3833759,59.2225807 L66.0271045,59.8204583 L63.7184874,56.3753906 L64.0830059,55.7290365 C65.0813268,55.6547057 65.5804872,55.2507344 65.5804872,54.5138906 C65.5804872,53.7576563 65.1075984,53.3795391 64.1651047,53.3795391 C63.8399936,53.3795391 63.5641418,53.3892344 63.3342652,53.408625 L63.2948578,59.6459427 L61.8269321,59.6459427 L61.8794753,52.3841536 L61.9517222,52.3841536 C63.0912529,52.3195182 63.8695491,52.2839688 64.2800429,52.2839688 C66.1486106,52.2839688 67.0845365,52.9626406 67.0845365,54.3167526 C67.0845365,55.3929323 66.5098452,56.0974583 65.3637465,56.4303307 C65.5246601,56.5692969 65.6724378,56.7308854 65.8005119,56.9183281 L67.3899438,59.2258125 L67.3833759,59.2225807 Z" id="Shape"></path>
                            <path d="M74.1450296,52.8269062 L71.675499,56.3624635 L71.6557953,59.6394792 L70.1878695,59.6394792 L70.2075732,56.4335625 L67.8496969,52.8689193 L69.1567091,52.2322604 L70.614783,54.5235859 C70.7428571,54.7304193 70.8709312,54.9921927 70.9990052,55.3089062 L71.0088571,55.3282969 C71.1106595,55.0632917 71.2518694,54.7950547 71.4324867,54.5235859 L72.9693754,52.2322604 L74.1417456,52.8269062 L74.1450296,52.8269062 Z" id="Shape"></path>
                            <path d="M52.1918219,33.7982396 C47.361131,33.7982396 44.9047362,31.4713646 43.6929586,29.519375 C41.4697242,25.9321094 41.6404896,20.5447474 44.12644,15.7875807 C45.2265634,13.6836979 46.4580447,11.7187812 47.6501187,9.8185 C48.7896494,8.00224479 49.9620197,6.12458594 51.0063159,4.15320573 C50.2542912,2.88635156 49.5219703,1.59364323 48.8356247,0.245994792 L48.7995013,0.245994792 C46.0311312,5.66567448 42.5665636,10.241862 39.7489343,15.6389193 C34.88212,24.9431875 37.2531321,36.5969531 48.819205,36.5969531 C53.4791304,36.5969531 56.6284388,34.7903932 58.4411793,32.0304609 C57.0126609,33.0420052 55.0028834,33.8014714 52.1983898,33.8014714 L52.1918219,33.7982396 Z" id="Shape"></path>
                            <path d="M57.8369325,15.5387344 C57.0487844,14.1264505 56.2048092,12.7594115 55.3739697,11.4279219 C55.0685624,11.9320781 54.763155,12.4265391 54.4577476,12.9113047 C53.8436489,13.8905312 53.2656737,14.8148177 52.7369577,15.8231302 C51.7419207,17.7234115 51.6302664,19.901625 52.4611058,21.2363464 C53.045649,22.1767917 54.034118,22.651862 55.4035253,22.651862 C56.8024881,22.651862 57.8073769,22.1800234 58.3820682,21.2492734 C59.0158706,20.2248021 59.0815496,18.6897109 58.6119447,17.151388 C58.3919201,16.6375365 58.1489077,16.1301484 57.8861917,15.629224 C57.869772,15.5969062 57.8533522,15.5645885 57.8369325,15.5322708 L57.8369325,15.5387344 Z" id="Shape"></path>
                            <path d="M55.4035253,24.7848307 C53.2886613,24.7848307 51.5875751,23.9187161 50.6155258,22.3513073 C49.3873284,20.3734635 49.4661432,17.4325521 50.8158467,14.853599 C51.3839701,13.7709557 52.0112047,12.7691068 52.6187355,11.7995755 C53.1343156,10.975474 53.6269082,10.1869219 54.0833773,9.35958854 C53.443007,8.32542188 52.8059206,7.27186458 52.1951059,6.18275781 C51.2887356,7.80833854 50.3166863,9.353125 49.3709086,10.862362 C48.2018223,12.7303255 46.9900447,14.6629245 45.9260448,16.6989401 C43.7553536,20.8517656 43.5550327,25.4796615 45.4203164,28.4884401 C46.77002,30.6634219 49.1147605,31.8139323 52.1951059,31.8139323 C55.3378463,31.8139323 57.7055744,30.6698854 59.0454262,28.5110625 C59.8565619,27.2054271 60.2637717,25.5798464 60.2834754,23.8120677 C60.2506359,23.3790104 60.2013767,22.9394896 60.1389816,22.4999688 C59.1570805,23.976888 57.4822658,24.7880625 55.4035253,24.7880625 L55.4035253,24.7848307 Z" id="Shape"></path>
                        </g>
                    </g>
                    <g id="Group-3">
                        <g id="qualcomm" transform="translate(0.000000, 26.036458)">
                            <g id="Group">
                                <path d="M42.7668846,13.2114792 C42.7668846,13.6413047 43.269329,14.1422292 43.6995265,14.1422292 L50.0933777,14.1389974 L48.6615754,11.8476719 L44.9572794,11.8476719 L44.9572794,3.03140104 L42.7668846,3.03140104 L42.7668846,13.2147109 L42.7668846,13.2114792 Z" id="Shape"></path>
                                <path d="M13.9994801,14.3199766 L13.9994801,11.2271719 L11.2836532,11.9995651 L11.2869371,15.8324453 C10.764789,15.9714115 10.2196533,16.0586693 9.65481384,16.0586693 C6.20009814,16.0586693 3.39888855,13.2728828 3.39888855,9.83751042 C3.39888855,6.40213802 6.20009814,3.61635156 9.65481384,3.61635156 C13.1095295,3.61635156 15.9107391,6.40213802 15.9107391,9.83751042 C15.9107391,11.5955937 15.1784182,13.185625 14.002764,14.3199766 L13.9994801,14.3199766 Z M19.3096277,9.83751042 C19.3096277,4.53417448 14.9879491,0.235919271 9.65481384,0.235919271 C4.32167858,0.235919271 0,4.53417448 0,9.83751042 C0,15.1408464 4.32167858,19.4391016 9.65481384,19.4391016 C10.2229372,19.4391016 10.7615051,19.3873932 11.3000729,19.2936719 L11.2836532,23.029599 L13.9994801,23.029599 L13.9994801,18.3790807 C17.1356526,16.7922812 19.3096277,13.5734375 19.3096277,9.83427865 L19.3096277,9.83751042 Z" id="Shape"></path>
                                <path d="M28.2189848,14.1422292 L21.9072324,14.1422292 C21.4770349,14.1422292 20.9680226,13.6445365 20.9680226,13.2147109 L20.9614547,3.03140104 L23.1518495,3.03140104 L23.1518495,11.8476719 L26.954664,11.8476719 L26.954664,3.03140104 L29.1450588,3.03140104 L29.1450588,13.2147109 C29.1450588,13.6445365 28.6458984,14.1422292 28.2124169,14.1422292 L28.2189848,14.1422292 Z" id="Shape"></path>
                                <path d="M57.6497473,3.43860417 C56.7729326,2.92798437 55.7450561,2.63389323 54.6580686,2.63389323 C51.3839701,2.63389323 48.7338223,5.27101823 48.7338223,8.52541146 C48.7338223,11.7798047 51.3872541,14.4169297 54.6580686,14.4169297 C55.6793771,14.4169297 56.6579943,14.1519245 57.4986856,13.6994766 L56.4314017,11.7862682 C55.9026857,12.0706641 55.3050068,12.2354844 54.6613525,12.2354844 C52.6023157,12.2354844 50.930785,10.5743542 50.930785,8.52541146 C50.930785,6.47646875 52.6023157,4.81533854 54.6613525,4.81533854 C55.35755,4.81533854 56.0110561,5.01247656 56.5693277,5.34211719 L57.6563152,3.43860417 L57.6497473,3.43860417 Z" id="Shape"></path>
                                <path d="M62.7267344,12.2678021 C60.6676976,12.2678021 58.9994509,10.6228307 58.9994509,8.57388802 C58.9994509,6.52494531 60.6676976,4.84765625 62.7267344,4.84765625 C64.7857713,4.84765625 66.457302,6.50878646 66.457302,8.55772917 C66.457302,10.6066719 64.7857713,12.2678021 62.7267344,12.2678021 L62.7267344,12.2678021 Z M62.7267344,2.66621094 C59.45592,2.66621094 56.8057721,5.31949479 56.8057721,8.57388802 C56.8057721,11.8282813 59.452636,14.4492474 62.7267344,14.4492474 C66.0008329,14.4492474 68.6542647,11.8121224 68.6542647,8.55772917 C68.6542647,5.30333594 66.0008329,2.66621094 62.7267344,2.66621094 L62.7267344,2.66621094 Z" id="Shape"></path>
                                <path d="M34.1924904,9.84397396 L35.9559717,5.85596875 L37.7260209,9.84397396 L34.1957743,9.84397396 L34.1924904,9.84397396 Z M37.0429592,3.0475599 L34.8722681,3.0475599 L29.9857501,14.0808255 L32.3140708,14.0808255 L33.4634534,11.6505339 L38.5305887,11.6505339 L38.6356751,11.8832214 L39.6110084,14.0775937 L41.9393291,14.0775937 L37.0495271,3.04432812 L37.0429592,3.0475599 Z" id="Shape"></path>
                                <path d="M103.904187,12.7751901 L99.8911998,3.56464323 C99.6514715,3.12189062 99.2376937,2.91505729 98.6564345,2.91505729 C98.0751753,2.91505729 97.6613976,3.11865885 97.4216692,3.56464323 L94.4726819,10.3190443 L91.5236945,3.56464323 C91.2839661,3.12189062 90.8701884,2.91505729 90.2889292,2.91505729 C89.70767,2.91505729 89.2938923,3.11865885 89.0541639,3.56464323 L86.1051765,10.3352031 L83.1561892,3.56464323 C82.9164608,3.12189062 82.5026831,2.91505729 81.9214239,2.91505729 C81.3401647,2.91505729 80.9263869,3.11865885 80.6866586,3.56464323 L77.7376712,10.3190443 L74.7886838,3.56464323 C74.5489555,3.12189062 74.1384617,2.91505729 73.5539185,2.91505729 C72.9693754,2.91505729 72.5588816,3.11865885 72.3191532,3.56464323 L68.302882,12.7751901 C67.7511784,14.2165599 69.7445362,14.9598672 70.3947584,13.7996615 L73.5506346,6.46677344 L76.7065108,13.7996615 C77.1170046,14.5494323 78.3878934,14.5171146 78.7655476,13.7996615 L81.9214239,6.46677344 L85.0773001,13.7996615 C85.284189,14.1680833 85.6257198,14.3264401 85.9803864,14.3490625 C86.0230778,14.355526 86.0624852,14.3587578 86.1084605,14.3587578 C86.1511518,14.355526 86.1905592,14.3522943 86.2365345,14.3490625 C86.5879172,14.3264401 86.932732,14.1680833 87.1396209,13.7996615 L90.2954971,6.46677344 L93.4513733,13.7996615 C93.8290276,14.5171146 95.0999164,14.5494323 95.5104102,13.7996615 L98.6662864,6.46677344 L101.822163,13.7996615 C102.472385,14.9598672 104.462459,14.2165599 103.914039,12.7751901 L103.904187,12.7751901 Z" id="Shape"></path>
                                <path d="M103.503545,4.3208776 L103.503545,3.86196615 L103.812236,3.86196615 C103.969866,3.86196615 104.137348,3.89428385 104.137348,4.08172656 C104.137348,4.30795052 103.966582,4.32410938 103.772829,4.32410938 L103.500261,4.32410938 L103.503545,4.3208776 Z M104.370508,4.09142188 C104.370508,3.8005625 104.196459,3.6680599 103.841792,3.6680599 L103.273669,3.6680599 L103.273669,5.15467448 L103.500261,5.15467448 L103.500261,4.51155208 L103.759693,4.51155208 L104.153767,5.15467448 L104.406631,5.15467448 L103.979718,4.50185677 C104.199743,4.47277083 104.367224,4.35965885 104.367224,4.09142188 L104.370508,4.09142188 Z M103.776113,5.48754688 C103.185002,5.48754688 102.721965,5.03186719 102.721965,4.41136719 C102.721965,3.8005625 103.185002,3.34165104 103.776113,3.34165104 C104.36394,3.34165104 104.823693,3.8005625 104.823693,4.41136719 C104.823693,5.03186719 104.360656,5.48754688 103.776113,5.48754688 L103.776113,5.48754688 Z M103.776113,3.1251224 C103.063496,3.1251224 102.459249,3.67129167 102.459249,4.41136719 C102.459249,5.15790625 103.063496,5.70407552 103.776113,5.70407552 C104.482162,5.70407552 105.086409,5.15790625 105.086409,4.41136719 C105.086409,3.67129167 104.482162,3.1251224 103.776113,3.1251224 L103.776113,3.1251224 Z" id="Shape"></path>
                            </g>
                        </g>
                        <g id="samsung" transform="translate(486.334732, 19.713542)">
                            <path d="M27.3735375,19.0805651 L26.4343277,12.2550651 L26.2208709,12.2550651 L25.2783772,19.0805651 L22.7070441,19.0805651 L24.2964761,10.2772214 L28.3587226,10.2772214 L29.9481545,19.0805651 L27.3702535,19.0805651 L27.3735375,19.0805651 Z M36.7557835,10.2869167 L37.5275118,15.1087187 L37.7179809,15.1087187 L38.5291166,10.2869167 L42.5256841,10.2869167 L42.7851162,19.0870286 L40.3812646,19.0870286 L40.3221535,12.4554349 L40.154672,12.4554349 L38.9034869,19.0870286 L36.387981,19.0870286 L35.1203762,12.4554349 L34.936475,12.4554349 L34.9069194,19.0870286 L32.5162036,19.0870286 L32.7165246,10.2836849 L36.7557835,10.2836849 L36.7557835,10.2869167 Z M49.4383995,12.9725182 L49.4383995,12.2227474 C49.4383995,11.6895052 48.7651897,11.6571875 48.7651897,11.6571875 C48.2463255,11.6571875 48.1281033,11.9932917 48.1281033,11.9932917 C47.8423996,12.510375 48.3317082,12.9498958 48.3317082,12.9498958 C48.5812884,13.2181328 49.8390414,13.7739974 49.8390414,13.7739974 C50.2462512,13.9258906 50.8997573,14.3169349 50.8997573,14.3169349 C52.1279547,15.0279245 52.0163004,16.3755729 52.0163004,16.3755729 L52.0163004,17.2610781 C51.8652387,19.4586823 48.7093625,19.3972786 48.7093625,19.3972786 C45.3991406,19.3972786 45.4713875,17.31925 45.4713875,17.31925 L45.4713875,16.2301432 L48.0460045,16.2301432 L48.0460045,16.9799141 C48.0460045,17.6165729 48.6896588,17.6456589 48.6896588,17.6456589 C49.3924242,17.6747448 49.4515353,17.0186953 49.4515353,17.0186953 C49.5500538,16.3885 48.8210168,15.9877604 48.8210168,15.9877604 C48.1018317,15.6354974 46.8999059,15.0117656 46.8999059,15.0117656 C46.3087948,14.640112 46.0657825,14.300776 46.0657825,14.300776 C45.6421529,13.7869245 45.6684245,12.9919089 45.6684245,12.9919089 L45.6684245,12.3003099 C45.6684245,11.3469375 45.9377085,11.0690052 45.9377085,11.0690052 C46.6240541,9.83770052 49.008202,9.98636198 49.008202,9.98636198 C52.0392881,10.0671562 51.8521029,11.8769479 51.8521029,11.8769479 L51.8586708,12.9822135 L49.4416834,12.9789818 L49.4351155,12.9725182 L49.4383995,12.9725182 Z M57.5070653,16.9023516 C57.5070653,17.6488906 58.2492381,17.6133411 58.2492381,17.6133411 C58.9520034,17.6133411 58.91588,16.8861927 58.91588,16.8861927 L58.91588,10.2449036 L61.4839291,10.2449036 L61.4839291,16.9605234 C61.4839291,19.3811198 58.2886455,19.3455703 58.2886455,19.3455703 C54.6106212,19.3455703 54.8799051,16.8441797 54.8799051,16.8441797 L54.8799051,10.2416719 L57.5070653,10.2416719 L57.5136332,16.895888 L57.5103493,16.895888 L57.5070653,16.9023516 Z M72.5147181,19.0902604 L69.6609653,19.0902604 L67.1159039,13.7061302 L67.0108174,13.7061302 L67.1553113,19.0902604 L64.7580276,19.0902604 L64.7580276,10.2901484 L67.700447,10.2901484 L70.1601258,15.6322656 L70.2652122,15.6322656 L70.0944468,10.2901484 L72.5180021,10.2901484 L72.5180021,19.0934922 L72.5180021,19.0902604 L72.5147181,19.0902604 Z M81.3846679,18.3081719 C89.1939016,14.6465755 93.4991605,10.4775911 92.8620741,7.0260599 C91.5255063,-0.229265625 68.5838296,-1.39916667 44.9065481,2.63085156 C34.0727961,4.47619271 23.708649,7.24582031 16.6941311,9.99282552 C17.0652175,9.97020313 17.3279336,9.98636198 17.3279336,9.98636198 C20.3590197,10.0639245 20.1751184,11.8737161 20.1751184,11.8737161 L20.1816864,12.9789818 L17.761415,12.9789818 L17.761415,12.2292109 C17.761415,11.6992005 17.0882052,11.663651 17.0882052,11.663651 C16.569341,11.663651 16.4478349,12.002987 16.4478349,12.002987 C16.1654151,12.5168385 16.6514398,12.9595911 16.6514398,12.9595911 C16.90102,13.2278281 18.155489,13.7836927 18.155489,13.7836927 C18.5626989,13.9355859 19.2194889,14.3266302 19.2194889,14.3266302 C20.4476863,15.0376198 20.336032,16.3852682 20.336032,16.3852682 L20.336032,17.2707734 C20.1882543,19.4683776 17.0258101,19.406974 17.0258101,19.406974 C13.7155882,19.406974 13.7878351,17.3289453 13.7878351,17.3289453 L13.7878351,16.2398385 L16.3624522,16.2398385 L16.3624522,16.9896094 C16.3624522,17.6262682 17.0061064,17.6553542 17.0061064,17.6553542 C17.7088718,17.6844401 17.7679829,17.0283906 17.7679829,17.0283906 C17.8632174,16.3981953 17.1374644,15.9974557 17.1374644,15.9974557 C16.4182793,15.6451927 15.2163535,15.0214609 15.2163535,15.0214609 C14.6219585,14.6498073 14.3822301,14.3137031 14.3822301,14.3137031 C13.9586006,13.8030833 13.9848722,13.0016042 13.9848722,13.0016042 L13.9848722,12.3100052 C13.9848722,11.3566328 14.2541561,11.0787005 14.2541561,11.0787005 C14.2672919,11.0593099 14.2771437,11.0399193 14.2902795,11.0172969 C5.64363843,14.8501771 0.349910565,19.2906302 1.01983642,22.9392995 C2.37939184,30.3465182 24.0140563,31.3192813 49.4613871,27.5607318 C61.1785217,25.8317344 71.3751874,22.6484401 79.0924706,19.3488021 C79.0399274,19.3520339 78.9808162,19.3520339 78.9217051,19.3520339 C78.9217051,19.3520339 75.8019524,19.5944167 75.7297055,17.1867474 L75.7297055,12.5233021 C75.7297055,12.5233021 75.3389154,9.9508125 78.8330385,9.9508125 C78.8330385,9.9508125 81.1055321,9.88294531 81.706495,11.1756536 C81.706495,11.1756536 82.0020505,11.5214531 81.9199518,12.9498958 L79.4963964,12.9498958 L79.4963964,12.2162839 C79.4963964,12.2162839 79.4898285,11.621638 78.862594,11.621638 C78.862594,11.621638 78.205804,11.650724 78.205804,12.1451849 L78.205804,16.966987 C78.205804,16.966987 78.1762484,17.6133411 78.9184212,17.6133411 C78.9184212,17.6133411 79.525952,17.5971823 79.525952,16.9217422 L79.525952,15.528849 L78.862594,15.528849 L78.862594,14.2329089 L81.9757789,14.2329089 L81.9757789,16.9702188 C81.9757789,16.9702188 81.969211,17.545474 81.7163468,17.8815781 C81.7163468,17.8783464 81.4667666,18.2532318 81.3682481,18.321099 L81.3682481,18.3146354 L81.3846679,18.3081719 Z" id="Shape"></path>
                        </g>
                        <g id="slimfast" transform="translate(174.359454, 0.322917)">
                            <g id="Group">
                                <polygon id="Shape" points="65.3130151 27.6214009 65.2144966 27.6214009 65.2144966 27.8223583 65.3130151 27.8223583 65.360867 27.8195672 65.405904 27.8084029 65.4424966 27.7777011 65.4565707 27.7218796 65.4424966 27.6660581 65.405904 27.6353563 65.360867 27.624192"></polygon>
                                <path d="M74.0586439,0.146060488 L15.3866498,15.1927448 C6.9619099,17.3614099 0.133169846,25.8937256 0.133169846,34.2446214 L0.164132806,58.9791264 L58.8023491,43.7286937 C67.227089,41.5600285 74.0558291,33.0305039 74.0558291,24.676817 L74.0558291,0.146060488 L74.0586439,0.146060488 Z M61.0823489,30.2617577 C59.5201268,30.2617577 58.3688677,29.153701 58.3688677,27.473474 L58.3688677,16.1528745 L60.8064971,15.5053452 L60.8064971,18.3801522 L63.4242746,17.6851746 C63.311682,18.2154788 63.2159783,18.6815883 63.2019043,18.745783 C63.007682,19.6054341 62.2870895,20.4036815 61.4116822,20.6353407 L60.8064971,20.8000141 L60.8064971,26.8287357 C60.8064971,27.3897417 61.1921267,27.7609547 61.7128674,27.7609547 C61.8142007,27.7609547 61.9183488,27.7469993 62.0309414,27.7162975 C62.2167192,27.6660581 62.1660525,27.6800135 63.6663486,27.2836809 L63.6663486,29.7007517 C62.4813117,30.0161431 62.2589414,30.0747557 62.0309414,30.1361593 C61.7016081,30.2226826 61.3835341,30.2617577 61.0795341,30.2617577 L61.0823489,30.2617577 Z M37.6602772,36.6058707 L37.6602772,22.5639734 C37.6602772,20.5571906 39.2984992,18.4973774 41.3223509,17.961491 C41.4490175,17.9279981 44.1793876,17.2023187 44.1793876,17.2023187 C44.097758,17.5902781 44.0245728,17.9391624 43.9851654,18.1289555 L43.945758,18.3075843 C43.7374618,19.1532799 43.0281285,19.9291987 42.1667953,20.1552758 L41.3223509,20.3785618 C40.6467954,20.5599817 40.1007214,21.2465861 40.1007214,21.9136529 L40.1007214,23.7585534 L42.8367211,23.0328739 C42.7916841,23.2449956 42.5693137,24.2581558 42.5693137,24.2581558 C42.3244249,25.0536121 41.6432398,25.7653362 40.8241287,25.98304 L40.0979066,26.1784152 L40.0979066,34.1301874 C40.0979066,35.1377654 39.2731659,36.1732541 38.2570179,36.4411973 C38.2232401,36.4495705 37.6574624,36.6030797 37.6574624,36.6030797 L37.6602772,36.6058707 Z M53.538646,30.0468449 C53.6427941,30.0468449 53.7469422,30.0328896 53.8510904,30.0077699 C53.9073867,29.9938145 53.9693126,29.9770681 54.0312385,29.9603216 C54.706794,29.7816928 55.2556828,28.9778633 55.2556828,28.3080053 C55.2556828,26.0221151 50.4958315,27.5209222 50.4958315,24.2916487 C50.4958315,22.3965089 51.8272387,20.6548782 53.7919793,20.1329472 C54.1016089,20.052006 54.3943496,20.012931 54.6702014,20.012931 C56.1395346,20.012931 57.105016,21.1126145 57.105016,22.7119003 L57.105016,22.9937989 L56.2943494,23.2087116 C55.9875346,23.2896528 55.7426457,23.3315189 55.5484235,23.3315189 C55.1121273,23.3315189 54.9010162,23.1361437 54.7152384,22.7677218 C54.6983495,22.7314379 54.6673866,22.6895717 54.630794,22.6421235 C54.5407199,22.5165251 54.4140533,22.4272107 54.2564237,22.3909267 C54.2001274,22.3741803 54.1410163,22.3658071 54.0762755,22.3658071 C54.0565718,22.3658071 54.0340533,22.3658071 54.0115348,22.3685981 C53.9411644,22.3713892 53.8679793,22.3825535 53.7891645,22.4048821 C53.2712386,22.5416448 52.8659053,22.9323952 52.8659053,23.521312 C52.8659053,25.1680462 57.6933122,23.7334337 57.6933122,27.6660581 C57.6933122,29.7900661 56.1704975,31.7577738 54.1494607,32.2936602 L53.7328682,32.4053031 C53.3922756,32.4946175 53.0685719,32.5392747 52.7617572,32.5392747 C51.2417573,32.5392747 50.1890167,31.4758752 50.1890167,29.8068125 L50.1890167,29.2765083 L51.2699054,28.9890276 C51.4866462,28.9332061 51.6611647,28.9080864 51.8047202,28.9080864 C52.2663498,28.9080864 52.4183498,29.1760296 52.6519794,29.5946908 L52.702646,29.675632 C52.8687201,29.9156644 53.1980534,30.0552182 53.538646,30.0552182 L53.538646,30.0468449 Z M43.8219062,25.1903748 L43.8219062,22.773304 C44.8830913,22.4914054 45.5417579,22.3155677 45.7697579,22.2569551 C46.0990912,22.1704318 46.4171652,22.1285657 46.7183504,22.1285657 C48.2805724,22.1285657 49.4318316,23.2366224 49.4318316,24.9168494 L49.4318316,31.6852058 C49.4149427,32.6816196 48.5986465,33.6975708 47.5937577,33.965514 L46.9942022,34.1246052 L46.9942022,33.5077777 C46.7464985,33.8957371 45.8992393,34.4734896 45.2996838,34.6297898 C45.296869,34.6297898 45.1082764,34.6800291 45.0801283,34.6884023 C44.719832,34.78609 44.3736098,34.8307472 44.0499062,34.8307472 C42.5636841,34.8307472 41.5362768,33.853871 41.5362768,32.2043458 L41.5362768,32.0480456 C41.5362768,29.9603216 43.2955359,28.5368735 45.7190912,26.8929304 C46.4002763,26.429612 46.9491651,26.0249061 46.9885725,25.497393 C46.9913874,25.4666912 46.9942022,25.4387804 46.9942022,25.4108697 C46.9942022,24.9168494 46.6564244,24.5930848 46.1976097,24.5930848 C46.1075356,24.5930848 46.0146467,24.6042491 45.918943,24.6321598 C45.8823504,24.640533 44.8830913,24.9084762 43.8219062,25.1903748 L43.8219062,25.1903748 Z M18.4632421,41.6660894 C17.9340569,41.6660894 17.3063533,41.1469495 17.2303533,39.8574729 L17.2303533,25.648111 C17.2303533,25.4778555 17.371094,25.3020178 17.5427977,25.2545695 L18.6687235,24.9559245 C18.6968717,24.9475513 18.7250198,24.9447602 18.7475383,24.9447602 C18.8826494,24.9447602 18.9783531,25.0396567 18.9783531,25.1820015 L18.9783531,41.2446371 C18.9783531,41.4148926 18.843242,41.5879393 18.6715384,41.6353875 L18.6574643,41.6381786 C18.5927235,41.6549251 18.5279828,41.6632983 18.4604273,41.6632983 L18.4632421,41.6660894 Z M11.482502,41.8503003 C11.6795391,41.8503003 11.8878353,41.8223896 12.1017612,41.7665681 C13.4219093,41.4148926 14.4971684,40.0640124 14.4971684,38.7549983 C14.4971684,37.1333839 13.2107982,36.0755665 11.6570205,34.9591366 L11.4346502,34.8000453 C9.91746516,33.7143172 8.34961347,32.5923052 8.34961347,30.3957293 C8.34961347,28.3666179 10.0187985,26.2705207 12.0679835,25.7262611 C12.4142056,25.6341557 12.7491686,25.5894985 13.0672426,25.5894985 C14.6210202,25.5894985 15.732872,26.655689 15.732872,28.3191696 C15.732872,28.5033806 15.5836868,28.6931737 15.3979091,28.7406219 L14.350798,29.0197294 C14.3198351,29.0281026 14.2888721,29.0308937 14.2635388,29.0308937 C14.1199833,29.0308937 14.0130203,28.9276239 14.0130203,28.7741148 C14.0130203,27.9005084 13.4444278,27.3534577 12.6225019,27.3534577 C12.4479834,27.3534577 12.2622057,27.3785774 12.0651686,27.4288168 C10.9814651,27.7162975 10.0638355,28.8634292 10.0638355,29.9352019 C10.0638355,31.4256359 11.2432428,32.2657494 12.605613,33.2398345 L12.864576,33.4268365 C14.6294647,34.6939845 16.2142053,36.0225361 16.2142053,38.2972621 C16.2142053,40.5468684 14.3676869,42.8690426 12.0989464,43.4719148 C11.7302057,43.5696024 11.3755391,43.6170507 11.0349465,43.6170507 C9.27850226,43.6170507 7.98087276,42.3694402 7.98087276,40.4854647 C7.98087276,40.1672822 8.01746535,39.8407264 8.09065053,39.5141707 C8.13287275,39.3243776 8.31583569,39.1652863 8.49598382,39.1597042 L9.51494668,39.1290024 L9.52339113,39.1290024 C9.69790963,39.1290024 9.80768739,39.2769293 9.76265036,39.4639313 C9.72042814,39.6537244 9.69790963,39.8435175 9.69790963,40.0305195 C9.69790963,41.1274119 10.4550947,41.8530914 11.4768724,41.8530914 L11.482502,41.8503003 Z M30.4487224,27.5013847 C30.9666482,26.6501069 31.8082778,25.9579203 32.7653147,25.7067236 C33.018648,25.6397378 33.2663517,25.6062449 33.5027961,25.6062449 C34.7159812,25.6062449 35.6110922,26.468687 35.6110922,27.77491 L35.6110922,27.8139851 L35.6110922,27.8279405 L35.6110922,36.8319478 C35.6110922,37.0022034 35.4759811,37.1724589 35.3042774,37.2226983 L35.2902034,37.2254893 C35.2282774,37.2422358 35.1607219,37.250609 35.0903515,37.250609 C34.566796,37.250609 33.9419072,36.7370513 33.8574628,35.4643211 L33.8574628,28.5815307 C33.8574628,27.9200459 33.4042776,27.4846383 32.790648,27.4846383 C32.669611,27.4846383 32.5457592,27.5013847 32.4162777,27.5348776 C31.6703519,27.7330439 31.0567223,28.4587234 30.9807223,29.1983582 L30.9807223,38.0600207 C30.9807223,38.2302763 30.8456112,38.4033229 30.6739075,38.4507712 L30.6710927,38.4507712 C30.606352,38.4675176 30.5387964,38.4758909 30.4712409,38.4758909 C29.908278,38.4758909 29.2299077,37.8869741 29.2299077,36.3965401 L29.2299077,36.315599 L29.2299077,29.8068125 C29.2299077,29.1453278 28.7767225,28.7099201 28.163093,28.7099201 C28.0420559,28.7099201 27.9182041,28.7266665 27.7887226,28.7601594 C27.0456116,28.9583258 26.4291672,29.6812141 26.355982,30.420849 L26.355982,39.2853026 C26.355982,39.4555581 26.2208709,39.6286048 26.0491672,39.676053 L26.0435376,39.676053 C25.9787969,39.6927995 25.9140561,39.7011727 25.8465006,39.7011727 C25.2947969,39.7011727 24.6333155,39.1345845 24.6079822,37.7111364 L24.6079822,28.1768248 C24.6079822,28.0065692 24.7487229,27.8307315 24.9204266,27.7860743 L26.0463524,27.4874293 C26.0745006,27.4818472 26.1026487,27.476265 26.127982,27.476265 C26.2602783,27.476265 26.3587968,27.5711616 26.3587968,27.7135064 L26.3587968,28.0261068 C26.8457598,27.5069669 27.4678338,27.1078432 28.1433893,26.9292144 C28.3967226,26.8622286 28.6444262,26.8287357 28.8780558,26.8287357 C29.5226484,26.8287357 30.0771668,27.0715592 30.454352,27.4958026 L30.4487224,27.5013847 Z M21.5510936,27.585117 C21.1429455,27.585117 20.8445752,27.2976362 20.8445752,26.8594375 C20.8445752,26.3375065 21.2696122,25.8016201 21.7987973,25.6592753 C21.8832417,25.6369467 21.9676862,25.6257824 22.046501,25.6257824 C22.4518343,25.6257824 22.7530194,25.9132631 22.7530194,26.3514619 C22.7530194,26.8733929 22.3251676,27.4092792 21.7987973,27.548833 C21.7143529,27.5711616 21.6299084,27.5823259 21.5510936,27.5823259 L21.5510936,27.585117 Z M65.31583,28.7964434 C65.1919781,28.7964434 65.0765707,28.7741148 64.966793,28.7266665 C64.8570152,28.6792183 64.7641263,28.6150236 64.6824967,28.5368735 C64.6008671,28.4587234 64.5389412,28.3610357 64.4910893,28.2549749 C64.4432375,28.1489141 64.4207189,28.0316889 64.4207189,27.9116727 C64.4207189,27.7916565 64.4432375,27.6744313 64.4910893,27.5683705 C64.5389412,27.4595186 64.6036819,27.3674131 64.6824967,27.2864719 C64.7613115,27.2055308 64.8570152,27.1441271 64.966793,27.0966789 C65.0765707,27.0492306 65.1919781,27.026902 65.31583,27.026902 C65.4396818,27.026902 65.5550892,27.0492306 65.6620522,27.0966789 C65.7690151,27.1441271 65.8647188,27.2083219 65.9463484,27.2864719 C66.027978,27.364622 66.0927188,27.4595186 66.1405706,27.5683705 C66.1884225,27.6744313 66.210941,27.7916565 66.210941,27.9116727 C66.210941,28.0316889 66.1884225,28.1489141 66.1405706,28.2549749 C66.0927188,28.3610357 66.027978,28.4559323 65.9463484,28.5368735 C65.8647188,28.6178146 65.7718299,28.6792183 65.6620522,28.7266665 C65.5522744,28.7741148 65.436867,28.7964434 65.31583,28.7964434 L65.31583,28.7964434 Z M22.1478343,40.6864221 C21.6242788,40.6864221 21.0022048,40.1756554 20.9149455,38.9085075 L20.9149455,29.1620742 C20.9149455,28.9918187 21.0556863,28.8159809 21.2273899,28.7685327 L22.3533158,28.4698877 C22.3814639,28.4615144 22.4096121,28.4587234 22.4349454,28.4587234 C22.5672417,28.4587234 22.6657602,28.5536199 22.6657602,28.6959647 L22.6657602,40.2649698 C22.6657602,40.4352254 22.5306491,40.608272 22.3589454,40.6557203 L22.3448713,40.6585114 C22.2801306,40.6752578 22.2153898,40.683631 22.1478343,40.683631 L22.1478343,40.6864221 Z" id="Shape"></path>
                                <path d="M46.9942022,28.0372711 C46.7971652,28.3470804 46.0934615,28.8048166 45.5839801,29.153701 C44.5819061,29.8430965 43.8584988,30.6860011 43.8584988,31.4060984 L43.8584988,31.4451734 C43.8584988,32.0982849 44.2356839,32.47508 44.8014617,32.47508 C44.9253135,32.47508 45.0576098,32.4583336 45.1983505,32.4192585 C45.2659061,32.4025121 45.3053135,32.3913478 45.3306468,32.3857656 L45.3390912,32.3829746 C46.2764245,32.1345689 46.9942022,31.0627962 46.9942022,30.0412628 L46.9942022,28.0400621 L46.9942022,28.0372711 Z" id="Shape"></path>
                                <path d="M65.3130151,27.2390237 C65.2229411,27.2390237 65.1384966,27.2557701 65.0596818,27.2920541 C64.980867,27.3283381 64.9133115,27.3757863 64.8513856,27.43719 C64.7922745,27.4958026 64.7444226,27.5683705 64.7134597,27.6493117 C64.6824967,27.7302528 64.662793,27.8195672 64.662793,27.9088816 C64.662793,28.0009871 64.6796819,28.0875104 64.7134597,28.1684516 C64.7472374,28.2493928 64.7922745,28.3219607 64.8513856,28.3833643 C64.9104967,28.444768 64.980867,28.4922163 65.0596818,28.5285002 C65.1384966,28.5647842 65.2229411,28.5815307 65.3130151,28.5815307 C65.4030892,28.5815307 65.4875337,28.5647842 65.5663485,28.5285002 C65.6451633,28.4922163 65.7155336,28.444768 65.7746447,28.3833643 C65.8337558,28.3219607 65.8816077,28.2521838 65.9125706,28.1684516 C65.9463484,28.0875104 65.9632373,28.0009871 65.9632373,27.9088816 C65.9632373,27.8167762 65.9463484,27.7302528 65.9125706,27.6493117 C65.8787929,27.5683705 65.8337558,27.4958026 65.7746447,27.43719 C65.7155336,27.3785774 65.6451633,27.3283381 65.5663485,27.2920541 C65.4875337,27.2557701 65.4030892,27.2390237 65.3130151,27.2390237 L65.3130151,27.2390237 Z M64.9724226,28.3638268 L64.9724226,27.4343989 L65.3045707,27.4343989 C65.329904,27.4343989 65.3636818,27.4343989 65.4115337,27.4399811 C65.4593855,27.4455632 65.5016077,27.4539364 65.5438299,27.473474 C65.5860522,27.4930115 65.6254596,27.5237133 65.6564225,27.5627884 C65.6873855,27.6018634 65.7042744,27.660476 65.7042744,27.735835 C65.7042744,27.7832833 65.6986447,27.8223583 65.6845707,27.8558512 C65.6704966,27.8893441 65.6564225,27.9116727 65.6367188,27.9312102 C65.6170151,27.9507478 65.5916818,27.9647031 65.5663485,27.9758674 C65.5410151,27.9870317 65.512867,27.9926139 65.4847188,27.9954049 L65.7239781,28.3638268 L65.4706448,28.3638268 L65.2567189,28.0065692 L65.2173115,28.0065692 L65.2173115,28.3638268 L64.9724226,28.3638268 L64.9724226,28.3638268 Z" id="Shape"></path>
                            </g>
                        </g>
                        <g id="universal" transform="translate(320.543178, 8.877604)">
                            <g id="Group">
                                <path d="M50.2739949,13.8222839 C50.4283406,13.6251458 50.7140443,13.7382578 50.9242171,13.7285625 C51.4693529,13.8158203 51.1902171,13.6283776 51.6236985,14.1293021 C52.053896,14.4298568 52.0013528,14.0226536 52.5267848,14.342599 C53.0686366,14.8273646 53.0719206,14.652849 53.7516983,14.7433385 L53.7516983,14.7885833 L53.6498958,14.8596823 L53.5251057,14.8823047 L53.4003156,14.9307813 L53.3017971,14.9534036 L53.2525379,14.976026 C52.9996737,14.8176693 52.6548589,14.8176693 52.3757231,14.9307813 L52.3757231,14.8596823 L52.3494515,14.7885833 L52.0735997,14.5300417 L51.9717972,14.4815651 L51.8699948,14.4589427 L51.7452047,14.4589427 L51.6466862,14.4363203 L51.4956245,14.3910755 L51.3182911,14.2715 L51.0687109,14.0808255 L50.86839,13.9871042 L50.6943406,13.9160052 L50.3955011,13.9160052 L50.2936987,13.9386276 L50.2181678,13.9386276 L50.2181678,13.890151 L50.270711,13.8190521 L50.2739949,13.8222839 Z" id="Shape"></path>
                                <path d="M65.9712773,28.8435547 L65.8957465,28.6528802 L65.9187341,28.4654375 L65.9679934,28.3232396 L65.990981,28.274763 L52.8978712,28.274763 L54.3493773,29.4802135 L54.4741674,29.5254583 L54.5989575,29.6224115 L54.7237476,29.6902786 L54.8485377,29.7872318 C55.1802167,30.0651641 55.3115747,30.475599 55.4002413,30.8731068 L55.3739697,31.0153047 L55.2984389,31.0864036 L55.222908,31.2027474 L55.1211056,31.3934219 L55.0718463,31.7230625 L55.0225871,32.2433776 C55.029155,32.6214948 55.0784142,33.3130938 54.6449328,33.5425495 L54.5956735,33.4973047 L54.5694019,33.4973047 C54.5496982,34.5379349 54.1490563,35.5527109 53.5185378,36.4026667 C53.1474515,36.7323073 53.0883403,37.1233516 53.3674761,37.5111641 C53.1343156,37.6501302 52.8059206,38.9008255 52.8420441,39.0947318 L52.8913033,39.2595521 L52.9668342,39.4469948 L53.0916243,39.5891927 L53.242686,39.7055365 L53.443007,39.825112 L53.6203403,39.8477344 L53.7943897,39.825112 L53.8699205,39.7798672 L53.8436489,39.7313906 L53.7418465,39.6602917 L53.6663156,39.5891927 L53.6170563,39.4922396 L53.6925872,39.3758958 L53.8929082,39.2336979 L54.2935501,39.0462552 L54.5168587,38.8588125 L54.566118,38.6455156 L54.4643155,38.4806953 L54.3887847,38.4354505 L54.4413279,38.4354505 L54.5168587,38.386974 L54.7171797,38.3417292 L54.894513,38.244776 L55.1178216,38.0799557 L55.3411302,37.8440365 L55.5677228,37.5111641 L55.7910314,37.0878021 L56.0668833,37.1104245 L56.2934758,37.0651797 L56.4412536,36.9940807 L56.615303,36.877737 L56.8418955,36.7355391 L57.140735,36.5933411 L57.5676485,36.4737656 L58.3459448,36.2604688 L58.4707349,36.215224 L58.595525,36.144125 L58.6710558,36.0956484 L58.6973274,36.0019271 L58.7203151,35.9308281 C58.6185126,35.2877057 58.8648089,35.5203932 59.5445866,35.1519714 C60.8351791,34.3504922 61.4952531,33.7299922 62.2735493,32.505151 L62.3753518,32.2918542 L62.5264135,32.1044115 L62.7267344,31.9395911 L63.0255739,31.7747708 L63.3769566,31.6099505 L63.6528084,31.5162292 L64.0271788,31.5162292 L64.1782405,31.561474 L64.2800429,31.561474 L64.404833,31.490375 L64.5296231,31.3707995 L64.7824873,31.0411589 L64.9828083,30.7826172 C65.2356725,30.3010833 65.2192527,29.9455885 65.6330304,29.4834453 L65.7085613,29.4123464 L65.7840922,29.318625 L65.859623,29.247526 L65.9088823,29.1279505 L65.9844131,29.0342292 L65.9844131,28.9146536 L65.9581415,28.8403229 L65.9712773,28.8435547 Z" id="Shape"></path>
                                <polygon id="Shape" points="56.4576733 15.5448177 56.5102165 15.8033594 56.7105375 15.8033594 56.7860684 15.7322604 56.81234 15.6385391 56.7105375 15.5932943 56.6350067 15.5932943 56.5594758 15.5448177"></polygon>
                                <path d="M55.7581919,15.428474 C55.288587,15.5157318 54.7697229,15.4834141 54.3559452,15.7354922 C54.2738464,15.4995729 54.1096489,15.5480495 53.90276,15.5448177 L54.0045625,15.4252422 L54.0275501,15.3088984 L54.0275501,14.9534036 C54.7303155,14.6690078 55.2623154,15.3056667 55.754908,15.4252422 L55.7581919,15.428474 Z" id="Shape"></path>
                                <path d="M71.9809063,29.3153932 C64.6412775,50.0601302 34.947799,50.5901406 27.6672812,29.5060677 C35.4272557,48.2600339 64.3916972,48.1501536 71.9809063,29.3153932 L71.9809063,29.3153932 Z" id="Shape"></path>
                                <path d="M72.0301656,16.019888 C68.8939931,6.59927604 60.3852779,0.148661458 49.7715506,0.148661458 C38.6947862,0.138966146 31.0103426,6.06926562 27.614738,15.8065911 C30.3929599,9.00048177 35.9494038,4.66990885 42.2677241,2.78255469 C42.142934,3.0023151 42.0608353,3.17036719 42.0608353,3.17036719 C41.9360452,3.38043229 41.8670822,3.65190104 41.6601933,3.80702604 C41.1150576,4.03971354 40.8687613,4.86704687 40.6093293,5.34211719 L40.5108107,5.53279167 L40.5108107,5.62651302 L40.5337984,5.64913542 L40.5337984,5.86243229 C40.3039219,6.55079948 39.5354775,7.0808099 39.1808109,7.73039583 L38.9804899,8.13113542 L38.8556998,8.48663021 L38.7538973,8.842125 L38.6553788,9.10066667 L38.6323912,9.28810937 L38.6061196,9.33658594 C39.0658726,10.167151 39.1873788,11.1302187 39.0330331,12.0512734 L39.0330331,12.0738958 L39.0593047,12.0965182 L39.1348356,12.1449948 L39.236638,12.2387161 L39.3614281,12.4261589 L39.4599467,12.6168333 L39.5354775,12.8527526 L39.63728,13.0886719 L39.7357985,13.3472135 L39.8113293,13.5831328 L39.9131318,13.7027083 L39.962391,13.7253307 C40.5042428,12.946474 39.4336751,11.6408385 39.63728,10.7262474 L39.6865392,10.7262474 L39.8113293,10.632526 L39.9131318,10.6099036 C40.0116503,11.9769427 40.7932305,13.1953203 41.5156995,14.3393672 L41.4401687,14.4330885 L41.289107,14.6463854 L41.289107,14.8596823 L41.5649588,14.9307812 L41.3876255,15.3088984 L41.5649588,15.3088984 L41.6667612,15.3315208 L41.7915514,15.3315208 L41.9163415,15.3799974 L42.0674032,15.4252422 L42.1692056,15.5221953 L42.2939958,15.5932943 L42.4943167,15.7839687 L42.7931562,15.9940339 L42.9179463,16.0166562 L43.0164648,16.0392786 L47.6501187,16.0392786 C47.7978964,15.4737187 47.9423902,14.8758411 48.3003408,14.384612 L48.2740692,14.384612 L48.1755507,14.3361354 L47.7223656,14.3361354 L47.5975755,14.313513 L47.4727854,14.2424141 L47.3972545,14.1713151 L47.295452,14.1713151 C47.0819953,14.2811953 46.8652546,14.9243177 46.7207607,15.0697474 C46.5664151,15.5448177 45.5910818,15.5254271 45.1674523,15.5674401 C44.789798,15.6514661 44.8751807,15.5351224 44.6157486,15.2830443 C44.4811066,15.0503568 44.3431807,14.8176693 44.1888351,14.5979089 C43.4203907,13.0369635 45.0623658,10.6422214 47.0163163,11.47925 C48.0507606,10.7100885 48.3298964,11.5244948 49.2198469,11.1496094 L49.5942172,11.0785104 L49.8437975,11.1496094 L49.9948592,11.3596745 L50.0966616,11.6666927 L50.1951801,12.0448099 L50.3462419,12.4003047 L50.5728344,12.7073229 L50.9242171,12.917388 L51.0490072,12.4681719 L50.9734764,12.0674323 L50.8486862,11.6666927 L50.5465628,11.0041797 L50.471032,10.6971615 L50.5465628,10.435388 L50.8224146,10.1994687 C51.2755998,9.96354948 52.185254,9.47878385 52.3757231,8.99401823 L52.5235009,8.71285417 L52.648291,8.42845833 L52.848612,8.00186458 L52.9471305,7.83704427 L53.0489329,7.69484635 L53.1474515,7.601125 L53.2492539,7.55264844 L53.4725625,7.43630469 L53.6498958,7.29410677 L53.7516983,7.15190885 L53.8272292,6.98385677 L53.8502168,6.84165885 L53.8502168,6.7479375 L53.8272292,6.65421615 L53.8272292,6.63159375 L53.8764884,6.63159375 L53.9750069,6.65421615 L54.099797,6.67683854 L54.300118,6.67683854 L54.5267106,6.65421615 L54.7500192,6.58311719 L55.025871,6.48939583 L55.2524636,6.30195312 L55.0751303,6.23085417 L54.8485377,6.13713281 L54.6744883,6.04341146 L54.5234266,5.92383594 L54.3723649,5.83011458 L54.2475748,5.68791667 L54.2475748,5.38089844 L54.3986365,5.23870052 L54.6252291,5.23870052 L54.9503402,5.26132292 L55.3017228,5.35504427 L55.6531055,5.42614323 L56.0044882,5.42614323 L56.3033277,5.30656771 L56.5266363,5.04802604 C55.5118957,4.66344531 54.963476,4.02678646 54.0735254,3.63251042 L53.9224637,3.77470833 L53.7976736,3.84580729 L53.5218218,3.84580729 L53.3707601,3.8005625 L53.24597,3.72946354 L53.0686366,3.61311979 L52.8945873,3.47092187 C52.1556985,2.86658073 51.8962664,3.45799479 51.4168096,2.99908333 L51.3150072,3.257625 L51.3150072,3.61311979 L51.4168096,3.72946354 L51.4923405,3.8005625 L51.6434022,3.84580729 L51.7419207,3.89428385 L51.8437232,3.96538281 L51.9685133,4.10758073 L51.9685133,4.15605729 L51.919254,4.1334349 L51.7681923,4.1108125 L51.6171306,4.1334349 L51.4660689,4.25301042 L51.390538,4.46307552 L51.390538,4.91229167 L51.3642664,5.05448958 L51.3150072,5.12558854 L51.1902171,5.1966875 L51.065427,5.1740651 L50.9143653,5.12558854 C50.2444394,4.71515365 50.7238961,4.58265104 49.9882913,4.32410937 C49.4694271,4.05910417 48.484242,4.23361979 48.0606125,3.80379427 L48.1361433,3.68421875 L48.2379458,3.54202083 L48.4152791,3.42244531 L48.5893285,3.257625 L48.8389087,3.11542708 L49.1147605,2.92798437 L49.4168839,2.7373099 L49.7682666,2.59511198 C50.9275011,2.01339323 52.4611058,1.88735417 53.7484144,2.05217448 C53.7484144,2.05217448 53.6466119,2.00692969 53.4824144,1.93259896 C61.4000185,3.04432812 68.765919,7.74009115 72.0268817,16.0101927 L72.0301656,16.019888 Z" id="Shape"></path>
                                <path d="M9.74019655,17.9783411 L6.08515988,17.9783411 L6.63686353,18.615 L6.63686353,23.4788151 L6.51207342,23.7858333 L6.36101171,24.0217526 C6.03261668,24.4354193 5.37254267,24.5679219 4.85696248,24.5646901 L4.48259214,24.5420677 L4.15748106,24.4709688 L3.83236999,24.3772474 L3.58278976,24.2124271 L3.3824688,24.0217526 L3.23140708,23.7858333 L3.10661697,23.4788151 L3.10661697,18.615 L3.65832062,17.9783411 L0.00656790057,17.9783411 L0.558271549,18.615 C0.896518428,23.1039297 -0.981901136,26.2646016 4.86353038,26.3163099 C10.7779248,26.2613698 8.81740652,23.1782604 9.1950608,18.615 L9.74676445,17.9783411 L9.74019655,17.9783411 Z" id="Shape"></path>
                                <polygon id="Shape" points="22.4063928 17.9783411 19.352319 17.9783411 19.8777511 18.615 19.8777511 22.7484349 15.4706898 17.9783411 12.7154555 17.9783411 13.2671592 18.615 13.2671592 25.5600755 12.7154555 26.1514896 15.7695293 26.1514896 15.2440972 25.5600755 15.2440972 21.3781641 19.9270103 26.1514896 21.8546892 26.1514896 21.8546892 18.615"></polygon>
                                <polygon id="Shape" points="29.4931575 26.1514896 28.9677255 25.5600755 28.9677255 18.615 29.4931575 17.9783411 25.8381209 17.9783411 26.3898245 18.615 26.3898245 25.5600755 25.8381209 26.1514896"></polygon>
                                <polygon id="Shape" points="41.6372057 17.9783411 38.5305887 17.9783411 39.0822924 18.615 36.9050333 23.1265521 34.8000212 18.615 35.3517248 17.9783411 31.6966882 17.9783411 35.7293791 26.1514896 37.5322678 26.1514896"></polygon>
                                <polygon id="Shape" points="51.9520935 26.1514896 51.9520935 23.9538854 51.2755998 24.4515781 46.8718225 24.4515781 46.8718225 22.8938646 49.6500444 22.8938646 50.3035505 23.4141797 50.3035505 20.7673594 49.6500444 21.2876745 46.8718225 21.2876745 46.8718225 19.7041068 51.2755998 19.7041068 51.9520935 20.2244219 51.9520935 17.9815729 43.7914771 17.9815729 44.3431807 18.6182318 44.3431807 25.5633073 43.7914771 26.1547214"></polygon>
                                <path d="M58.2868337,21.7336589 L58.2868337,19.700875 L60.4640927,19.700875 L60.6644137,19.771974 L60.8647346,19.8204505 C61.2226852,19.9917344 61.3474753,20.2825938 61.3638951,20.6477839 C61.2588087,22.0115911 59.1767842,21.7724401 58.2835497,21.7336589 L58.2868337,21.7336589 Z M64.3457219,26.1514896 L61.9911296,22.9391094 C63.1569319,22.5092839 63.9549318,21.7175 63.94508,20.4829635 L63.9220923,19.9626484 L63.7710306,19.5134323 L63.547722,19.0900703 L63.2226109,18.7119531 L62.7464381,18.4275573 L62.1684629,18.191638 L61.4689815,18.0494401 L60.6184384,17.9783411 L55.2097722,17.9783411 L55.7614759,18.615 L55.7614759,25.5568438 L55.2097722,26.1482578 L58.8385373,26.1482578 L58.2868337,25.5568438 L58.2868337,23.2655182 L59.386957,23.2655182 L61.038784,25.5568438 L60.4870803,26.1482578 L64.342438,26.1482578 L64.3457219,26.1514896 Z" id="Shape"></path>
                                <path d="M75.3371035,23.7890651 C75.3009801,21.9889688 73.3010544,21.4718854 71.806857,21.0485234 C71.2682891,21.0032786 69.3438943,20.3601563 70.4308818,19.700875 C71.3996471,19.2064141 73.9775481,20.0402109 74.8872024,20.4797318 L74.8872024,17.7165677 L74.1877209,18.3532266 C72.4111038,17.6874818 69.9448572,17.4289401 68.306166,18.5180469 C67.8037216,18.9123229 67.3997957,19.4843464 67.4523389,20.124237 C67.3505364,21.6819505 68.8480178,22.4284896 70.1813016,22.8615469 L70.6312028,23.0037448 L71.081104,23.0974661 L71.4817459,23.1911875 L71.8594002,23.310763 L72.135252,23.4077161 L72.3585606,23.5725365 L72.53261,23.7373568 L72.5818693,23.9958984 C72.5720174,24.4612734 71.8988076,24.6196302 71.5047336,24.6099349 C70.089351,24.5388359 68.6706845,24.1251693 67.4720426,23.4077161 L67.4720426,26.4294219 L68.174808,25.7216641 C70.4078942,26.5296068 75.2484369,27.1436432 75.3338196,23.7858333 L75.3371035,23.7890651 Z" id="Shape"></path>
                                <path d="M81.2186585,23.2235052 L82.6471769,20.2955208 L84.1019669,23.2235052 L81.2219425,23.2235052 L81.2186585,23.2235052 Z M88.25288,26.1514896 L83.9968805,17.9783411 L81.0675968,17.9783411 L81.3664363,18.615 L77.5373502,26.1482578 L80.7162141,26.1482578 L80.1645105,25.5568438 L80.6176956,24.6842656 L84.7226335,24.6842656 L85.149547,25.5568438 L84.5978434,26.1482578 L88.25288,26.1482578 L88.25288,26.1514896 Z" id="Shape"></path>
                                <polygon id="Shape" points="90.6074724 17.9783411 91.159176 18.615 91.159176 25.5600755 90.6074724 26.1514896 98.5185086 26.1514896 98.5185086 23.9538854 97.8682865 24.4515781 93.6878177 24.4515781 93.6878177 18.6182318 94.2395214 17.9815729"></polygon>
                                <path d="M97.7434964,18.7119531 L97.6679655,18.6408542 L97.5431754,18.5923776 L97.4413729,18.5697552 L97.3165828,18.5697552 L97.0899902,18.5923776 L96.8896693,18.7119531 L96.7648792,18.92525 L96.7156199,19.1611693 L96.7648792,19.3970885 L96.8896693,19.5619089 L97.0899902,19.7041068 L97.3165828,19.7525833 L97.4413729,19.7041068 L97.5431754,19.7041068 L97.6679655,19.658862 L97.7434964,19.587763 L97.7434964,19.4455651 L97.6679655,19.5166641 L97.5431754,19.587763 L97.4413729,19.6103854 L97.3165828,19.6330078 L97.1162618,19.5845312 L96.9652001,19.4908099 L96.8141384,19.1579375 C96.9389285,18.6343906 97.37241,18.5148151 97.7402124,18.8509193 L97.7402124,18.7087214 L97.7434964,18.7119531 Z" id="Shape"></path>
                                <path d="M96.1901879,19.1353151 C96.2591508,17.8005937 98.3346074,17.8005937 98.3674469,19.1353151 C98.3477432,20.5055859 96.2394471,20.4991224 96.1901879,19.1353151 L96.1901879,19.1353151 Z M96.0916694,19.1353151 C96.0785336,20.589612 98.4232741,20.702724 98.495521,19.1353151 C98.4068543,17.5969922 96.0949533,17.7068724 96.0916694,19.1353151 L96.0916694,19.1353151 Z" id="Shape"></path>
                            </g>
                        </g>
                    </g>
                </g>
            </g>
        </g>
    </g>
</svg>