<?xml version="1.0" encoding="utf-8"?>
<!-- Generator: Adobe Illustrator 19.0.0, SVG Export Plug-In . SVG Version: 6.00 Build 0)  -->
<svg version="1.1" id="Layer_1" xmlns="http://www.w3.org/2000/svg" xmlns:xlink="http://www.w3.org/1999/xlink" x="0px" y="0px"
	 viewBox="46 280 588 154" style="enable-background:new 46 280 588 154;" xml:space="preserve">
<style type="text/css">
	.st0{opacity:0.5002;}
	.st1{fill:#444444;}
</style>
<title>Logos</title>
<desc>Created with Sketch.</desc>
<g id="Page-1" class="st0">
	<g id="About" transform="translate(-232.000000, -2572.000000)">
		<g id="Clients" transform="translate(50.000000, 2340.000000)">
			<g id="Logos" transform="translate(182.000000, 232.000000)">
				<g id="ee" transform="translate(30.000000, 81.000000)">
					<path id="Shape" class="st1" d="M63.2,322.2c0.6,0,1.1,0.3,1.4,0.8c0.3-0.5,0.8-0.8,1.4-0.8c0.7,0,1.3,0.4,1.6,1
						c0.3-0.6,0.9-1,1.6-1c0.7,0,1.3,0.4,1.6,1c0.3-0.6,0.9-1,1.6-1c0.9,0,1.7,0.8,1.7,1.7c0,0.9-0.8,1.7-1.7,1.7
						c-0.7,0-1.3-0.4-1.6-1c-0.3,0.6-0.9,1-1.6,1s-1.3-0.4-1.6-1c-0.3,0.6-0.9,1-1.6,1c-0.6,0-1.1-0.3-1.4-0.8
						c-0.1,0.2-0.3,0.3-0.5,0.5c0.4,0.3,0.7,0.8,0.7,1.4c0,0.6-0.3,1.1-0.7,1.4c0.4,0.3,0.7,0.8,0.7,1.4s-0.3,1.1-0.7,1.4
						c0.1,0.1,0.3,0.2,0.4,0.3c0.3-0.4,0.8-0.6,1.3-0.6c0.6,0,1.2,0.3,1.5,0.8c0.3-0.5,0.9-0.8,1.5-0.8c0.6,0,1.2,0.3,1.5,0.8
						c0.3-0.5,0.8-0.8,1.5-0.8c0.9,0,1.7,0.8,1.7,1.7s-0.8,1.7-1.7,1.7c-0.6,0-1.2-0.3-1.5-0.8c-0.3,0.5-0.8,0.8-1.5,0.8
						c-0.6,0-1.2-0.3-1.5-0.8c-0.3,0.5-0.8,0.8-1.5,0.8c-0.5,0-1-0.2-1.3-0.6c-0.1,0.1-0.2,0.2-0.4,0.3c0.4,0.3,0.7,0.8,0.7,1.4
						s-0.3,1.1-0.7,1.4c0.4,0.3,0.7,0.8,0.7,1.4s-0.3,1.1-0.7,1.4c0.2,0.1,0.3,0.3,0.5,0.5c0.3-0.5,0.8-0.8,1.4-0.8
						c0.7,0,1.3,0.4,1.6,1c0.3-0.6,0.9-1,1.6-1s1.3,0.4,1.6,1c0.3-0.6,0.9-1,1.6-1c0.9,0,1.7,0.8,1.7,1.7c0,0.9-0.8,1.7-1.7,1.7
						c-0.7,0-1.3-0.4-1.6-1c-0.3,0.6-0.9,1-1.6,1s-1.3-0.4-1.6-1c-0.3,0.6-0.9,1-1.6,1c-0.6,0-1.1-0.3-1.4-0.8
						c-0.3,0.5-0.8,0.8-1.4,0.8c-0.9,0-1.7-0.8-1.7-1.7c0-0.6,0.3-1.1,0.7-1.4c-0.4-0.3-0.7-0.8-0.7-1.4s0.3-1.1,0.7-1.4
						c-0.4-0.3-0.7-0.8-0.7-1.4s0.3-1.1,0.7-1.4c-0.4-0.3-0.7-0.8-0.7-1.4s0.3-1.1,0.7-1.4c-0.4-0.3-0.7-0.8-0.7-1.4
						s0.3-1.1,0.7-1.4c-0.4-0.3-0.7-0.8-0.7-1.4s0.3-1.1,0.7-1.4c-0.4-0.3-0.7-0.8-0.7-1.4C61.5,323,62.2,322.2,63.2,322.2
						L63.2,322.2z M63.2,290.8c0.6,0,1.1,0.3,1.4,0.8c0.3-0.5,0.8-0.8,1.4-0.8c0.7,0,1.3,0.4,1.6,1c0.3-0.6,0.9-1,1.6-1
						c0.7,0,1.3,0.4,1.6,1c0.3-0.6,0.9-1,1.6-1c0.9,0,1.7,0.8,1.7,1.7s-0.8,1.7-1.7,1.7c-0.7,0-1.3-0.4-1.6-1c-0.3,0.6-0.9,1-1.6,1
						s-1.3-0.4-1.6-1c-0.3,0.6-0.9,1-1.6,1c-0.6,0-1.1-0.3-1.4-0.8c-0.1,0.2-0.3,0.3-0.5,0.5c0.4,0.3,0.7,0.8,0.7,1.4
						c0,0.6-0.3,1.1-0.7,1.4c0.4,0.3,0.7,0.8,0.7,1.4c0,0.6-0.3,1.1-0.7,1.4c0.1,0.1,0.3,0.2,0.4,0.3c0.3-0.4,0.8-0.6,1.3-0.6
						c0.6,0,1.2,0.3,1.5,0.8c0.3-0.5,0.9-0.8,1.5-0.8c0.6,0,1.2,0.3,1.5,0.8c0.3-0.5,0.8-0.8,1.5-0.8c0.9,0,1.7,0.8,1.7,1.7
						s-0.8,1.7-1.7,1.7c-0.6,0-1.2-0.3-1.5-0.8c-0.3,0.5-0.8,0.8-1.5,0.8c-0.6,0-1.2-0.3-1.5-0.8c-0.3,0.5-0.8,0.8-1.5,0.8
						c-0.5,0-1-0.2-1.3-0.6c-0.1,0.1-0.2,0.2-0.4,0.3c0.4,0.3,0.7,0.8,0.7,1.4s-0.3,1.1-0.7,1.4c0.4,0.3,0.7,0.8,0.7,1.4
						s-0.3,1.1-0.7,1.4c0.2,0.1,0.3,0.3,0.5,0.5c0.3-0.5,0.8-0.8,1.4-0.8c0.7,0,1.3,0.4,1.6,1c0.3-0.6,0.9-1,1.6-1s1.3,0.4,1.6,1
						c0.3-0.6,0.9-1,1.6-1c0.9,0,1.7,0.8,1.7,1.7s-0.8,1.7-1.7,1.7c-0.7,0-1.3-0.4-1.6-1c-0.3,0.6-0.9,1-1.6,1s-1.3-0.4-1.6-1
						c-0.3,0.6-0.9,1-1.6,1c-0.6,0-1.1-0.3-1.4-0.8c-0.3,0.5-0.8,0.8-1.4,0.8c-0.9,0-1.7-0.8-1.7-1.7c0-0.6,0.3-1.1,0.7-1.4
						c-0.4-0.3-0.7-0.8-0.7-1.4s0.3-1.1,0.7-1.4c-0.4-0.3-0.7-0.8-0.7-1.4s0.3-1.1,0.7-1.4c-0.4-0.3-0.7-0.8-0.7-1.4
						c0-0.6,0.3-1.1,0.7-1.4c-0.4-0.3-0.7-0.8-0.7-1.4s0.3-1.1,0.7-1.4c-0.4-0.3-0.7-0.8-0.7-1.4c0-0.6,0.3-1.1,0.7-1.4
						c-0.4-0.3-0.7-0.8-0.7-1.4C61.5,291.6,62.2,290.8,63.2,290.8L63.2,290.8z M67.9,280.1c-11.9,0-21.1,9.5-21.1,20.6
						c0,9.8,6.5,15.1,6.5,15.1c0.6,0.6,0.5,0.8,0,1.3c0,0-6.6,5.9-6.6,14.9c0,12.4,10.1,20.8,21.1,20.8c12.3,0,21-9.8,21-20.6
						c0-9.3-6.3-14.8-6.3-14.8c-0.9-0.8-0.9-1,0-1.7c0,0,6.3-5.2,6.3-14.9C88.9,289.8,79.9,280.2,67.9,280.1L67.9,280.1z"/>
				</g>
				<g id="firstdirect" transform="translate(158.000000, 114.000000)">
					<g id="Group">
						<path id="Shape_1_" class="st1" d="M52.2,283.1h1.3v-2.5c-0.5,0-1.2,0-1.8,0c-3.1,0-4,1.7-4,3.4v1.1H46v2.3h1.7v8.9h3.5v-8.9
							h2.2V285h-2.1v-0.9C51.3,283.4,51.8,283.1,52.2,283.1L52.2,283.1z"/>
						<polygon id="Shape_2_" class="st1" points="54.8,284.8 58.1,284.8 58.1,296.3 54.8,296.3 						"/>
						<polygon id="Shape_3_" class="st1" points="54.9,280.5 58.2,280.5 58.2,283.2 54.9,283.2 						"/>
						<path id="Shape_4_" class="st1" d="M67.8,287.8v-3.2c-2.8,0-3.5,0.6-4.1,2l0-1.7h-3.3v11.4h3.4v-5.2
							C63.9,289.6,64.2,287.2,67.8,287.8L67.8,287.8z"/>
						<path id="Shape_5_" class="st1" d="M71.7,287.7c0-1.4,3.9-1.4,3.8,0.5h3c-0.2-2.8-2.6-3.6-5.1-3.6c-2.5,0-5,0.9-5,3.8
							c0,2,1.8,2.6,3.6,3.1c2.3,0.6,3.4,0.5,3.5,1.4c0.2,1.4-1.5,1.5-2,1.5c-1.2,0-2.4-0.4-2.4-1.7h-3c0.1,3,2.7,3.9,5.4,3.9
							c2.6,0,5.3-1.2,5.3-4.1C78.9,288.2,71.7,289.9,71.7,287.7L71.7,287.7z"/>
						<path id="Shape_6_" class="st1" d="M86.5,296.3v-2.5c-2.2,0-2.2-0.1-2.1-1.4v-5.1h2.1v-2.4h-2.1v-3.6H81v3.6h-1.6v2.4H81v5.9
							C81,295.3,80.9,296.6,86.5,296.3L86.5,296.3z"/>
						<path id="Shape_7_" class="st1" d="M95.3,290.6c0-2.9,1.5-3.5,2.6-3.5c1.8,0,2.6,1.4,2.6,3.5c0,2-0.7,3.6-2.6,3.6
							C96.2,294.2,95.3,292.7,95.3,290.6L95.3,290.6z M100.5,295.1l0.1,1.2h3.2v-15.7h-3.3l0,5.5c-0.7-1.1-2-1.5-3.3-1.5
							c-3.4,0-5.1,2.8-5.1,5.9c0,3.1,1.7,6.1,5.2,6.1C98.6,296.6,99.8,296.3,100.5,295.1L100.5,295.1z"/>
						<polygon id="Shape_8_" class="st1" points="105.9,284.8 109.2,284.8 109.2,296.3 105.9,296.3 						"/>
						<polygon id="Shape_9_" class="st1" points="106,280.5 109.2,280.5 109.2,283.2 106,283.2 						"/>
						<path id="Shape_10_" class="st1" d="M118.9,287.8v-3.2c-2.8,0-3.5,0.6-4.1,2l0-1.7h-3.3v11.3h3.4v-5.1
							C115,289.5,115.3,287.1,118.9,287.8L118.9,287.8z"/>
						<path id="Shape_11_" class="st1" d="M122.4,289.3c0-0.9,0.7-2.3,2.6-2.3c1.4,0,2.3,0.8,2.3,2.3H122.4z M130.5,293h-3.2
							c-0.3,0.5-0.9,1.2-2.3,1.2c-1,0-2.6-0.8-2.7-2.8h8.4c0.2-3.6-1.7-6.8-5.6-6.8c-3.5,0-5.9,2.6-5.9,6c0,3.5,2.2,6,5.9,6
							C127.7,296.5,129.6,295.7,130.5,293L130.5,293z"/>
						<path id="Shape_12_" class="st1" d="M135.3,290.6c0-1.7,0.7-3.7,2.6-3.7c1.1,0,2.1,0.8,2.3,2.1l3.1,0c-0.2-3-2.7-4.4-5.4-4.4
							c-3.7,0-5.9,2.6-5.9,6.1c0,3.7,2.3,5.9,5.8,5.9c3,0,5.1-1.5,5.5-4.5l-3.1-0.1c-0.2,1.4-1.1,2.1-2.5,2.1
							C136,294.1,135.3,292.4,135.3,290.6L135.3,290.6z"/>
						<path id="Shape_13_" class="st1" d="M148.9,292.5v-5.1h2.1v-2.4h-2.1v-3.6h-3.4v3.6H144v2.4h1.6v5.9c0,2-0.2,3.2,5.5,3v-2.5
							C148.9,293.8,148.9,293.8,148.9,292.5L148.9,292.5z"/>
					</g>
				</g>
				<g id="itv" transform="translate(332.000000, 98.000000)">
					<g id="Group_1_">
						<path id="Shape_14_" class="st1" d="M46.2,287.1c0.2,0.6,0.5,1.1,0.9,1.5c2.7,2.9,9.7,1.9,9.8-2.6c0.9-3.2-2.1-5.9-5.4-5.9
							c-0.5,0-0.9,0.1-1.4,0.2c-2,0.3-3.3,1.6-3.8,3.3C45.9,284.7,45.9,286,46.2,287.1L46.2,287.1L46.2,287.1z"/>
						<path id="Shape_15_" class="st1" d="M122.4,293.6L122.4,293.6c-2,5.7-3.8,11.6-7.5,16.5c-2.9-4.1-4.7-8.9-8.3-12.6
							c-0.3-6.5-10.6-4.3-11.4,0.7c0.5,1.9,1.7,3.7,2.8,5.4c0,2.4-0.4,4.9-2.2,6.7c-0.6,0.6-1.4,1.1-2.2,1.5
							c-5.2,2.5-13.2,0.2-13.7-5.6c0-0.4,0-0.9,0-1.4c0.1-0.9,0.1-1.7,0.1-2.6c0-0.9,0-1.7-0.1-2.6c3.1,0.8,6.3,0.5,9.4,0.5
							c0-1,0.1-2.1,0.1-3.1c0-1,0-2.1,0-3.1c-3.2-0.1-6.3,0.1-9.5-0.1c0-0.4,0-0.8,0-1.2c0-1.6,0.2-3.2,0.1-4.8
							c0-1.2-0.1-2.4-0.5-3.5c-2.3-1.7-6.7-2.1-9.2-0.4c-0.4,0.2-0.7,0.5-0.9,0.8c-0.1,3.9-0.2,7.8-0.2,11.7c0,3.9,0.1,7.8,0.2,11.7
							c-0.6,2.8-3.5,4.5-6.4,4.7c-1.9,0.1-3.8-0.5-4.9-2c-0.2-0.2-0.4-0.5-0.5-0.8c-1.5-5.3,0-10.9-0.8-16.3
							c-3.5,0.1-7-0.2-10.5,0.2c0,1.2,0,2.4,0,3.6c0,1.2,0,2.4,0,3.6c0,2.4,0,4.9,0.1,7.3c0,0.3,0.1,0.7,0.2,1
							c0,0.2,0.1,0.4,0.1,0.6c0,0.2,0.1,0.3,0.2,0.5c0.1,0.4,0.2,0.7,0.4,1.1c0,0.1,0.1,0.2,0.2,0.3c0.2,0.4,0.4,0.8,0.7,1.2
							c0.3,0.4,0.6,0.8,0.9,1.2c0,0,0.1,0.1,0.1,0.1c0.4,0.4,0.8,0.8,1.2,1.2l0,0c1.3,1.1,2.9,1.9,4.7,2.3
							c6.2,1.7,13.9,1.3,18.9-2.8c8.8,5.7,23.5,5.6,29.5-3.6c1.8,2,3,4.5,5,6.3c1.3,0.7,2.9,1.1,4.4,1.2c2.6,0,5.2-1,6.4-3.3
							c4-6.4,8.4-13.2,9.9-20.5C126.9,294.2,124.7,293.5,122.4,293.6L122.4,293.6L122.4,293.6z"/>
					</g>
				</g>
				<g id="lucozade" transform="translate(489.000000, 90.000000)">
					<g id="Group_2_">
						<path id="Shape_16_" class="st1" d="M48.2,327.1h2.5c0.2,0,0.3,0.1,0.3,0.3v0.8c0,0.2-0.1,0.3-0.3,0.3h-4.5
							c-0.2,0-0.3-0.1-0.3-0.3v-6.8c0-0.2,0.1-0.3,0.3-0.3h1.6c0.2,0,0.3,0.1,0.3,0.3V327.1L48.2,327.1z"/>
						<path id="Shape_17_" class="st1" d="M56.2,321.4c0-0.2,0.1-0.3,0.3-0.3h1.2c0.2,0,0.3,0.1,0.3,0.3v4.5c0,1.5-1.1,2.7-3.1,2.7
							c-1.6,0-3.2-0.7-3.2-2.6v-4.6c0-0.2,0.1-0.3,0.3-0.3h1.6c0.2,0,0.3,0.1,0.3,0.3v4.7c0,0.8,0.4,1.2,1.2,1.2
							c0.8,0,1.2-0.4,1.2-1.2V321.4L56.2,321.4z"/>
						<path id="Shape_18_" class="st1" d="M63,320.9c1.1,0,1.8,0.2,2.1,0.4c0.1,0.1,0.3,0.2,0.3,0.4v1.2c0,0.1-0.1,0.2-0.1,0.2
							s-0.1,0-0.2-0.1c-0.4-0.4-1.1-0.7-1.8-0.7c-1.1,0-2,0.6-2,2.5c0,1.9,0.9,2.5,2,2.5c0.8,0,1.5-0.3,1.8-0.7
							c0.1-0.1,0.1-0.1,0.2-0.1s0.1,0.1,0.1,0.2v1.2c0,0.2-0.1,0.4-0.3,0.4c-0.3,0.1-0.9,0.4-2.1,0.4c-2.2,0-4.2-1.3-4.2-3.9
							S60.8,320.9,63,320.9L63,320.9z"/>
						<path id="Shape_19_" class="st1" d="M69.4,327.3c0.2,0,0.3,0.1,0.5,0.1c0.2,0,0.4,0,0.5-0.1c0.7-0.2,1-0.8,1-2.5
							c0-1.7-0.3-2.3-1-2.5c-0.2,0-0.3-0.1-0.5-0.1s-0.4,0-0.5,0.1c-0.7,0.2-1,0.8-1,2.5C68.4,326.5,68.7,327.1,69.4,327.3
							L69.4,327.3z M73.8,324.8c0,2.5-1.6,3.9-3.9,3.9s-3.9-1.3-3.9-3.9c0-2.5,1.6-3.9,3.9-3.9S73.8,322.2,73.8,324.8L73.8,324.8z"
							/>
						<path id="Shape_20_" class="st1" d="M77,327.1h2.9c0.2,0,0.3,0.1,0.3,0.3v0.8c0,0.2-0.1,0.3-0.3,0.3h-5.4
							c-0.2,0-0.3-0.1-0.3-0.3v-0.3c0-0.2,0.3-0.8,0.4-1l2.8-4.5h-2.9c-0.2,0-0.3-0.1-0.3-0.3v-0.8c0-0.2,0.1-0.3,0.3-0.3h5.3
							c0.2,0,0.3,0.1,0.3,0.3v0.3c0,0.4-0.2,0.8-0.3,0.9L77,327.1L77,327.1z"/>
						<path id="Shape_21_" class="st1" d="M83.7,322.9l-0.7,2.6h1.4L83.7,322.9L83.7,322.9L83.7,322.9z M82.4,322
							c0.2-0.6,0.6-0.9,1.3-0.9H85c0.2,0,0.3,0.1,0.4,0.3l2.1,6.7c0,0.1,0.1,0.2,0.1,0.3c0,0.1-0.1,0.2-0.2,0.2h-1.7
							c-0.3,0-0.4-0.2-0.5-0.4l-0.4-1.4h-2.1l-0.4,1.4c-0.1,0.2-0.2,0.4-0.5,0.4h-1.3c-0.2,0-0.2-0.1-0.2-0.2c0-0.1,0-0.1,0.1-0.3
							L82.4,322L82.4,322z"/>
						<path id="Shape_22_" class="st1" d="M90.6,327c0,0.2,0.2,0.2,0.3,0.3c0.1,0,0.2,0,0.4,0c1.3,0,1.9-0.8,1.9-2.5
							c0-1.7-0.6-2.5-1.9-2.5c-0.2,0-0.3,0-0.4,0c-0.1,0-0.3,0.1-0.3,0.3V327L90.6,327z M88.3,321.4c0-0.2,0.1-0.3,0.3-0.3h2.7
							c2.8,0,4.2,1.8,4.2,3.7s-1.4,3.7-4.2,3.7h-2.7c-0.2,0-0.3-0.1-0.3-0.3V321.4L88.3,321.4z"/>
						<path id="Shape_23_" class="st1" d="M96.5,321.4c0-0.2,0.1-0.3,0.3-0.3c1.7,0,1.7,0,4.3,0c0.2,0,0.3,0.1,0.3,0.3v0.8
							c0,0.2-0.1,0.3-0.3,0.3h-2.3v1.4h2c0.2,0,0.3,0.1,0.3,0.3v0.8c0,0.2-0.1,0.3-0.3,0.3h-2v1.8h2.3c0.2,0,0.3,0.1,0.3,0.3v0.8
							c0,0.2-0.1,0.3-0.3,0.3h-4.3c-0.2,0-0.3-0.1-0.3-0.3V321.4L96.5,321.4z"/>
						<path id="Shape_24_" class="st1" d="M110.1,328.5c-0.5,0-0.7-0.1-0.8-0.4l-1-2.3c-0.1-0.2-0.2-0.4-0.2-0.7
							c0-0.4,0.2-0.5,0.4-0.6c0.4-0.2,0.7-0.5,0.7-1.3c0-0.8-0.4-1-1-1c-0.2,0-0.4,0-0.5,0.1c-0.1,0.1-0.2,0.2-0.2,0.3v5.6
							c0,0.2-0.1,0.3-0.3,0.3h-1.7c-0.2,0-0.3-0.1-0.3-0.3v-6.2c0-0.4,0.2-0.5,0.5-0.7c0.4-0.2,1.3-0.4,2.5-0.4
							c2.1,0,3.1,0.8,3.1,2.2c0,1.1-0.8,1.6-1.5,1.8v0c0.3,0.1,0.7,0.4,0.8,0.7l1,1.9c0.1,0.2,0.2,0.3,0.2,0.5
							c0,0.3-0.2,0.3-0.4,0.3L110.1,328.5L110.1,328.5z"/>
						<path id="Shape_25_" class="st1" d="M112.7,321.4c0-0.2,0.1-0.3,0.3-0.3h1.6c0.2,0,0.3,0.1,0.3,0.3v6.8c0,0.2-0.1,0.3-0.3,0.3
							H113c-0.2,0-0.3-0.1-0.3-0.3V321.4L112.7,321.4z"/>
						<path id="Shape_26_" class="st1" d="M118.6,327c0,0.2,0.1,0.2,0.2,0.3c0.1,0,0.3,0.1,0.5,0.1c0.8,0,1.1-0.4,1.1-0.9
							c0-0.6-0.4-0.9-0.7-1.2c-0.2-0.1-0.3-0.3-0.3-0.6c0-0.2,0.2-0.4,0.4-0.6c0.3-0.3,0.5-0.5,0.5-1c0-0.6-0.3-0.9-0.9-0.9
							c-0.2,0-0.4,0-0.5,0.1c-0.1,0.1-0.2,0.2-0.2,0.3L118.6,327L118.6,327z M121.1,324.5L121.1,324.5c0.9,0.2,1.5,0.8,1.5,1.6
							c0,1.4-1,2.3-2.9,2.3h-3.1c-0.2,0-0.3-0.1-0.3-0.3V322c0-0.4,0.2-0.6,0.5-0.7c0.4-0.2,1.2-0.4,2.4-0.4c2.2,0,3.1,0.8,3.1,2
							C122.3,323.9,121.7,324.3,121.1,324.5L121.1,324.5z"/>
						<path id="Shape_27_" class="st1" d="M123.8,321.4c0-0.2,0.1-0.3,0.3-0.3c1.7,0,1.7,0,4.3,0c0.2,0,0.3,0.1,0.3,0.3v0.8
							c0,0.2-0.1,0.3-0.3,0.3H126v1.4h2c0.2,0,0.3,0.1,0.3,0.3v0.8c0,0.2-0.1,0.3-0.3,0.3h-2v1.8h2.3c0.2,0,0.3,0.1,0.3,0.3v0.8
							c0,0.2-0.1,0.3-0.3,0.3h-4.3c-0.2,0-0.3-0.1-0.3-0.3V321.4L123.8,321.4z"/>
						<path id="Shape_28_" class="st1" d="M134.8,326.4v-5c0-0.2,0.1-0.3,0.3-0.3h1.2c0.2,0,0.3,0.1,0.3,0.3v6.8
							c0,0.2-0.1,0.3-0.3,0.3h-1.3c-0.7,0-1.2-0.3-1.4-1l-1.8-4.6h0v5.2c0,0.2-0.1,0.3-0.3,0.3h-1.2c-0.2,0-0.3-0.1-0.3-0.3v-6.8
							c0-0.2,0.1-0.3,0.3-0.3h1.4c0.7,0,1.2,0.3,1.4,0.8L134.8,326.4L134.8,326.4L134.8,326.4z"/>
						<path id="Shape_29_" class="st1" d="M140.6,322.9l-0.7,2.6h1.4L140.6,322.9L140.6,322.9L140.6,322.9z M139.2,322
							c0.2-0.6,0.6-0.9,1.3-0.9h1.4c0.2,0,0.3,0.1,0.4,0.3l2.1,6.7c0,0.1,0.1,0.2,0.1,0.3c0,0.1-0.1,0.2-0.2,0.2h-1.7
							c-0.3,0-0.4-0.2-0.5-0.4l-0.4-1.4h-2.1l-0.4,1.4c-0.1,0.2-0.2,0.4-0.5,0.4h-1.3c-0.2,0-0.2-0.1-0.2-0.2c0-0.1,0-0.1,0.1-0.3
							L139.2,322L139.2,322z"/>
						<path id="Shape_30_" class="st1" d="M75.3,332.8l-0.6,1c-0.5-0.3-1.1-0.4-1.6-0.4c-0.8,0-1.3,0.3-1.3,0.8
							c0,0.2,0.1,0.4,0.3,0.6c0.2,0.2,0.5,0.4,1.1,0.6c0.9,0.3,1.4,0.7,1.7,1.1c0.2,0.3,0.3,0.7,0.3,1.2c0,0.6-0.2,1.2-0.7,1.5
							c-0.5,0.4-1.2,0.6-2,0.6c-0.8,0-1.6-0.2-2.3-0.5l0.5-1c0.6,0.3,1.1,0.4,1.6,0.4c0.9,0,1.3-0.3,1.3-0.9c0-0.2-0.1-0.4-0.2-0.6
							c-0.2-0.2-0.5-0.4-1.1-0.6c-0.9-0.3-1.4-0.7-1.7-1.1c-0.2-0.3-0.3-0.7-0.3-1.2c0-0.5,0.2-1,0.6-1.3c0.5-0.5,1.2-0.7,2.1-0.7
							C73.8,332.3,74.6,332.4,75.3,332.8L75.3,332.8z"/>
						<path id="Shape_31_" class="st1" d="M82.9,332.4l0,4.7c0,0.8-0.3,1.5-0.9,2c-0.6,0.5-1.3,0.7-2.2,0.7c-1,0-1.7-0.3-2.3-0.8
							c-0.4-0.5-0.7-1.1-0.7-1.9l0-4.6h1.5l0,4.7c0,1.1,0.5,1.6,1.6,1.6c0.5,0,0.9-0.2,1.2-0.5c0.3-0.3,0.4-0.7,0.4-1.2l0-4.6
							L82.9,332.4L82.9,332.4z"/>
						<path id="Shape_32_" class="st1" d="M91.2,332.4l-0.1,7.1l-1.7,0.4l-2.6-4.6c-0.3-0.5-0.5-1-0.7-1.4v0
							c0.1,0.7,0.1,1.2,0.1,1.5l0,4.3h-1.3l0-7l1.7-0.4l2.6,4.5c0.3,0.5,0.5,0.9,0.7,1.4c-0.1-0.6-0.1-1.1-0.1-1.5l0-4.3L91.2,332.4
							L91.2,332.4z"/>
						<polygon id="Shape_33_" class="st1" points="92.5,332.4 92.5,333.5 94.4,333.5 94.4,339.6 95.9,339.6 95.9,333.5 97.8,333.5 
							97.8,332.4 						"/>
						<path id="Shape_34_" class="st1" d="M102.5,333.3c-0.6,0-1.1,0.2-1.5,0.6c-0.5,0.5-0.7,1.2-0.7,2.1c0,1.7,0.7,2.6,2.1,2.6
							c0.9,0,1.6-0.4,2-1.3c0.2-0.4,0.3-0.9,0.3-1.4c0-0.7-0.1-1.3-0.4-1.7C103.8,333.7,103.2,333.3,102.5,333.3L102.5,333.3z
							 M102.5,332.3c1.2,0,2.1,0.4,2.8,1.1c0.6,0.7,0.9,1.5,0.9,2.6c0,1.1-0.4,2-1.1,2.8c-0.7,0.7-1.6,1.1-2.7,1.1
							c-1.2,0-2.1-0.4-2.8-1.1c-0.6-0.6-0.9-1.5-0.9-2.6c0-1.1,0.4-2,1.1-2.7C100.5,332.6,101.4,332.3,102.5,332.3L102.5,332.3z"/>
						<path id="Shape_35_" class="st1" d="M113.4,339.2l-1.4,0.6l-2.3-3.4l0.4-0.6c1-0.1,1.5-0.5,1.5-1.2c0-0.8-0.5-1.1-1.4-1.1
							c-0.3,0-0.6,0-0.8,0l0,6.2h-1.5l0.1-7.3h0.1c1.1-0.1,1.9-0.1,2.3-0.1c1.9,0,2.8,0.7,2.8,2c0,1.1-0.6,1.8-1.7,2.1
							c0.2,0.1,0.3,0.3,0.4,0.5L113.4,339.2L113.4,339.2z"/>
						<path id="Shape_36_" class="st1" d="M120.1,332.8l-2.5,3.5l0,3.3h-1.5l0-3.2l-2.4-3.6l1.3-0.6l1.5,2.3
							c0.1,0.2,0.3,0.5,0.4,0.8l0,0c0.1-0.3,0.2-0.5,0.4-0.8l1.5-2.3L120.1,332.8L120.1,332.8z"/>
						<path id="Shape_37_" class="st1" d="M98.2,313.8c-4.8,0-7.3-2.3-8.5-4.3c-2.2-3.6-2.1-9,0.4-13.7c1.1-2.1,2.3-4.1,3.5-6
							c1.1-1.8,2.3-3.7,3.4-5.7c-0.8-1.3-1.5-2.6-2.2-3.9h0c-2.8,5.4-6.2,10-9.1,15.4c-4.9,9.3-2.5,21,9.1,21c4.7,0,7.8-1.8,9.6-4.6
							C103,313,101,313.8,98.2,313.8L98.2,313.8z"/>
						<path id="Shape_38_" class="st1" d="M103.8,295.5c-0.8-1.4-1.6-2.8-2.5-4.1c-0.3,0.5-0.6,1-0.9,1.5c-0.6,1-1.2,1.9-1.7,2.9
							c-1,1.9-1.1,4.1-0.3,5.4c0.6,0.9,1.6,1.4,2.9,1.4c1.4,0,2.4-0.5,3-1.4c0.6-1,0.7-2.6,0.2-4.1
							C104.4,296.6,104.1,296.1,103.8,295.5C103.9,295.6,103.9,295.6,103.8,295.5L103.8,295.5z"/>
						<path id="Shape_39_" class="st1" d="M101.4,304.8c-2.1,0-3.8-0.9-4.8-2.4c-1.2-2-1.1-4.9,0.2-7.5c0.6-1.1,1.2-2.1,1.8-3.1
							c0.5-0.8,1-1.6,1.5-2.4c-0.6-1-1.3-2.1-1.9-3.2c-0.9,1.6-1.9,3.2-2.8,4.7c-1.2,1.9-2.4,3.8-3.4,5.8c-2.2,4.2-2.4,8.8-0.5,11.8
							c1.3,2.2,3.7,3.3,6.8,3.3c3.1,0,5.5-1.1,6.9-3.3c0.8-1.3,1.2-2.9,1.2-4.7c0-0.4-0.1-0.9-0.1-1.3
							C105.2,304,103.5,304.8,101.4,304.8L101.4,304.8z"/>
					</g>
				</g>
				<g id="Group-3">
					<g id="qualcomm" transform="translate(0.000000, 26.036458)">
						<g id="Group_3_">
							<path id="Shape_40_" class="st1" d="M88.8,293.2c0,0.4,0.5,0.9,0.9,0.9l6.4,0l-1.4-2.3H91V283h-2.2V293.2L88.8,293.2z"/>
							<path id="Shape_41_" class="st1" d="M60,294.3v-3.1l-2.7,0.8l0,3.8c-0.5,0.1-1.1,0.2-1.6,0.2c-3.5,0-6.3-2.8-6.3-6.2
								c0-3.4,2.8-6.2,6.3-6.2c3.5,0,6.3,2.8,6.3,6.2C61.9,291.6,61.2,293.2,60,294.3L60,294.3z M65.3,289.8c0-5.3-4.3-9.6-9.7-9.6
								s-9.7,4.3-9.7,9.6c0,5.3,4.3,9.6,9.7,9.6c0.6,0,1.1-0.1,1.6-0.1l0,3.7H60v-4.7C63.1,296.8,65.3,293.6,65.3,289.8L65.3,289.8z
								"/>
							<path id="Shape_42_" class="st1" d="M74.2,294.1h-6.3c-0.4,0-0.9-0.5-0.9-0.9l0-10.2h2.2v8.8H73V283h2.2v10.2
								C75.1,293.6,74.6,294.1,74.2,294.1L74.2,294.1z"/>
							<path id="Shape_43_" class="st1" d="M103.6,283.4c-0.9-0.5-1.9-0.8-3-0.8c-3.3,0-5.9,2.6-5.9,5.9s2.7,5.9,5.9,5.9
								c1,0,2-0.3,2.8-0.7l-1.1-1.9c-0.5,0.3-1.1,0.4-1.8,0.4c-2.1,0-3.7-1.7-3.7-3.7c0-2,1.7-3.7,3.7-3.7c0.7,0,1.3,0.2,1.9,0.5
								L103.6,283.4L103.6,283.4z"/>
							<path id="Shape_44_" class="st1" d="M108.7,292.3c-2.1,0-3.7-1.6-3.7-3.7s1.7-3.7,3.7-3.7c2.1,0,3.7,1.7,3.7,3.7
								C112.5,290.6,110.8,292.3,108.7,292.3L108.7,292.3z M108.7,282.7c-3.3,0-5.9,2.7-5.9,5.9s2.6,5.9,5.9,5.9
								c3.3,0,5.9-2.6,5.9-5.9S112,282.7,108.7,282.7L108.7,282.7z"/>
							<path id="Shape_45_" class="st1" d="M80.2,289.8l1.8-4l1.8,4H80.2L80.2,289.8z M83,283h-2.2l-4.9,11h2.3l1.1-2.4h5.1l0.1,0.2
								l1,2.2h2.3L83,283L83,283z"/>
							<path id="Shape_46_" class="st1" d="M149.9,292.8l-4-9.2c-0.2-0.4-0.7-0.6-1.2-0.6s-1,0.2-1.2,0.6l-2.9,6.8l-2.9-6.8
								c-0.2-0.4-0.7-0.6-1.2-0.6c-0.6,0-1,0.2-1.2,0.6l-2.9,6.8l-2.9-6.8c-0.2-0.4-0.7-0.6-1.2-0.6s-1,0.2-1.2,0.6l-2.9,6.8
								l-2.9-6.8c-0.2-0.4-0.7-0.6-1.2-0.6s-1,0.2-1.2,0.6l-4,9.2c-0.6,1.4,1.4,2.2,2.1,1l3.2-7.3l3.2,7.3c0.4,0.7,1.7,0.7,2.1,0
								l3.2-7.3l3.2,7.3c0.2,0.4,0.5,0.5,0.9,0.5c0,0,0.1,0,0.1,0c0,0,0.1,0,0.1,0c0.4,0,0.7-0.2,0.9-0.5l3.2-7.3l3.2,7.3
								c0.4,0.7,1.6,0.7,2.1,0l3.2-7.3l3.2,7.3C148.5,295,150.5,294.2,149.9,292.8L149.9,292.8z"/>
							<path id="Shape_47_" class="st1" d="M149.5,284.3v-0.5h0.3c0.2,0,0.3,0,0.3,0.2c0,0.2-0.2,0.2-0.4,0.2L149.5,284.3
								L149.5,284.3z M150.4,284.1c0-0.3-0.2-0.4-0.5-0.4h-0.6v1.5h0.2v-0.6h0.3l0.4,0.6h0.3l-0.4-0.7
								C150.2,284.5,150.4,284.4,150.4,284.1L150.4,284.1z M149.8,285.5c-0.6,0-1.1-0.5-1.1-1.1c0-0.6,0.5-1.1,1.1-1.1
								c0.6,0,1,0.5,1,1.1C150.8,285,150.4,285.5,149.8,285.5L149.8,285.5z M149.8,283.1c-0.7,0-1.3,0.5-1.3,1.3
								c0,0.7,0.6,1.3,1.3,1.3c0.7,0,1.3-0.5,1.3-1.3C151.1,283.7,150.5,283.1,149.8,283.1L149.8,283.1z"/>
						</g>
					</g>
					<g id="slimfast" transform="translate(174.359454, 0.322917)">
						<g id="Group_4_">
							<polygon id="Shape_49_" class="st1" points="111.3,307.6 111.2,307.6 111.2,307.8 111.3,307.8 111.4,307.8 111.4,307.8 
								111.4,307.8 111.5,307.7 111.4,307.7 111.4,307.6 111.4,307.6 							"/>
							<path id="Shape_50_" class="st1" d="M120.1,280.1l-58.7,15c-8.4,2.2-15.3,10.7-15.3,19.1l0,24.7l58.6-15.3
								c8.4-2.2,15.3-10.7,15.3-19.1L120.1,280.1L120.1,280.1z M107.1,310.3c-1.6,0-2.7-1.1-2.7-2.8v-11.3l2.4-0.6v2.9l2.6-0.7
								c-0.1,0.5-0.2,1-0.2,1.1c-0.2,0.9-0.9,1.7-1.8,1.9l-0.6,0.2v6c0,0.6,0.4,0.9,0.9,0.9c0.1,0,0.2,0,0.3,0
								c0.2-0.1,0.1,0,1.6-0.4v2.4c-1.2,0.3-1.4,0.4-1.6,0.4C107.7,310.2,107.4,310.3,107.1,310.3L107.1,310.3z M83.7,316.6v-14
								c0-2,1.6-4.1,3.7-4.6c0.1,0,2.9-0.8,2.9-0.8c-0.1,0.4-0.2,0.7-0.2,0.9l0,0.2c-0.2,0.8-0.9,1.6-1.8,1.8l-0.8,0.2
								c-0.7,0.2-1.2,0.9-1.2,1.5v1.8l2.7-0.7c0,0.2-0.3,1.2-0.3,1.2c-0.2,0.8-0.9,1.5-1.7,1.7l-0.7,0.2v8c0,1-0.8,2-1.8,2.3
								C84.2,316.4,83.7,316.6,83.7,316.6L83.7,316.6z M99.5,310c0.1,0,0.2,0,0.3,0c0.1,0,0.1,0,0.2,0c0.7-0.2,1.2-1,1.2-1.7
								c0-2.3-4.8-0.8-4.8-4c0-1.9,1.3-3.6,3.3-4.2c0.3-0.1,0.6-0.1,0.9-0.1c1.5,0,2.4,1.1,2.4,2.7v0.3l-0.8,0.2
								c-0.3,0.1-0.6,0.1-0.7,0.1c-0.4,0-0.6-0.2-0.8-0.6c0,0,0-0.1-0.1-0.1c-0.1-0.1-0.2-0.2-0.4-0.3c-0.1,0-0.1,0-0.2,0
								c0,0,0,0-0.1,0c-0.1,0-0.1,0-0.2,0c-0.5,0.1-0.9,0.5-0.9,1.1c0,1.6,4.8,0.2,4.8,4.1c0,2.1-1.5,4.1-3.5,4.6l-0.4,0.1
								c-0.3,0.1-0.7,0.1-1,0.1c-1.5,0-2.6-1.1-2.6-2.7v-0.5l1.1-0.3c0.2-0.1,0.4-0.1,0.5-0.1c0.5,0,0.6,0.3,0.8,0.7l0.1,0.1
								C98.9,309.9,99.2,310.1,99.5,310L99.5,310z M89.8,305.2v-2.4c1.1-0.3,1.7-0.5,1.9-0.5c0.3-0.1,0.6-0.1,0.9-0.1
								c1.6,0,2.7,1.1,2.7,2.8v6.8c0,1-0.8,2-1.8,2.3l-0.6,0.2v-0.6c-0.2,0.4-1.1,1-1.7,1.1c0,0-0.2,0.1-0.2,0.1
								c-0.4,0.1-0.7,0.1-1,0.1c-1.5,0-2.5-1-2.5-2.6V312c0-2.1,1.8-3.5,4.2-5.2c0.7-0.5,1.2-0.9,1.3-1.4c0,0,0-0.1,0-0.1
								c0-0.5-0.3-0.8-0.8-0.8c-0.1,0-0.2,0-0.3,0C91.9,304.6,90.9,304.9,89.8,305.2L89.8,305.2z M64.5,321.7
								c-0.5,0-1.2-0.5-1.2-1.8v-14.2c0-0.2,0.1-0.3,0.3-0.4l1.1-0.3c0,0,0.1,0,0.1,0c0.1,0,0.2,0.1,0.2,0.2v16.1
								c0,0.2-0.1,0.3-0.3,0.4l0,0C64.6,321.7,64.5,321.7,64.5,321.7L64.5,321.7z M57.5,321.9c0.2,0,0.4,0,0.6-0.1
								c1.3-0.4,2.4-1.7,2.4-3c0-1.6-1.3-2.7-2.8-3.8l-0.2-0.2c-1.5-1.1-3.1-2.2-3.1-4.4c0-2,1.7-4.1,3.7-4.7c0.3-0.1,0.7-0.1,1-0.1
								c1.6,0,2.7,1.1,2.7,2.7c0,0.2-0.1,0.4-0.3,0.4l-1,0.3c0,0-0.1,0-0.1,0c-0.1,0-0.3-0.1-0.3-0.3c0-0.9-0.6-1.4-1.4-1.4
								c-0.2,0-0.4,0-0.6,0.1c-1.1,0.3-2,1.4-2,2.5c0,1.5,1.2,2.3,2.5,3.3l0.3,0.2c1.8,1.3,3.3,2.6,3.3,4.9c0,2.2-1.8,4.6-4.1,5.2
								c-0.4,0.1-0.7,0.1-1.1,0.1c-1.8,0-3.1-1.2-3.1-3.1c0-0.3,0-0.6,0.1-1c0-0.2,0.2-0.3,0.4-0.4l1,0h0c0.2,0,0.3,0.1,0.2,0.3
								c0,0.2-0.1,0.4-0.1,0.6C55.7,321.1,56.5,321.9,57.5,321.9L57.5,321.9z M76.4,307.5c0.5-0.9,1.4-1.5,2.3-1.8
								c0.3-0.1,0.5-0.1,0.7-0.1c1.2,0,2.1,0.9,2.1,2.2v0v0v9c0,0.2-0.1,0.3-0.3,0.4l0,0c-0.1,0-0.1,0-0.2,0c-0.5,0-1.1-0.5-1.2-1.8
								v-6.9c0-0.7-0.5-1.1-1.1-1.1c-0.1,0-0.2,0-0.4,0.1c-0.7,0.2-1.4,0.9-1.4,1.7v8.9c0,0.2-0.1,0.3-0.3,0.4h0c-0.1,0-0.1,0-0.2,0
								c-0.6,0-1.2-0.6-1.2-2.1v-0.1v-6.5c0-0.7-0.5-1.1-1.1-1.1c-0.1,0-0.2,0-0.4,0.1c-0.7,0.2-1.4,0.9-1.4,1.7v8.9
								c0,0.2-0.1,0.3-0.3,0.4h0c-0.1,0-0.1,0-0.2,0c-0.6,0-1.2-0.6-1.2-2v-9.5c0-0.2,0.1-0.3,0.3-0.4l1.1-0.3c0,0,0.1,0,0.1,0
								c0.1,0,0.2,0.1,0.2,0.2v0.3c0.5-0.5,1.1-0.9,1.8-1.1c0.3-0.1,0.5-0.1,0.7-0.1C75.5,306.8,76.1,307.1,76.4,307.5L76.4,307.5z
								 M67.6,307.6c-0.4,0-0.7-0.3-0.7-0.7c0-0.5,0.4-1.1,1-1.2c0.1,0,0.2,0,0.2,0c0.4,0,0.7,0.3,0.7,0.7c0,0.5-0.4,1.1-1,1.2
								C67.7,307.6,67.6,307.6,67.6,307.6L67.6,307.6z M111.3,308.8c-0.1,0-0.2,0-0.3-0.1c-0.1,0-0.2-0.1-0.3-0.2
								c-0.1-0.1-0.1-0.2-0.2-0.3s-0.1-0.2-0.1-0.3c0-0.1,0-0.2,0.1-0.3c0-0.1,0.1-0.2,0.2-0.3c0.1-0.1,0.2-0.1,0.3-0.2
								c0.1,0,0.2-0.1,0.3-0.1c0.1,0,0.2,0,0.3,0.1c0.1,0,0.2,0.1,0.3,0.2c0.1,0.1,0.1,0.2,0.2,0.3c0,0.1,0.1,0.2,0.1,0.3
								c0,0.1,0,0.2-0.1,0.3s-0.1,0.2-0.2,0.3c-0.1,0.1-0.2,0.1-0.3,0.2C111.6,308.8,111.4,308.8,111.3,308.8L111.3,308.8z
								 M68.1,320.7c-0.5,0-1.1-0.5-1.2-1.8v-9.7c0-0.2,0.1-0.3,0.3-0.4l1.1-0.3c0,0,0.1,0,0.1,0c0.1,0,0.2,0.1,0.2,0.2v11.6
								c0,0.2-0.1,0.3-0.3,0.4l0,0C68.3,320.7,68.2,320.7,68.1,320.7L68.1,320.7z"/>
							<path id="Shape_51_" class="st1" d="M93,308c-0.2,0.3-0.9,0.8-1.4,1.1c-1,0.7-1.7,1.5-1.7,2.3v0c0,0.7,0.4,1,0.9,1
								c0.1,0,0.3,0,0.4-0.1c0.1,0,0.1,0,0.1,0l0,0c0.9-0.2,1.7-1.3,1.7-2.3V308L93,308z"/>
							<path id="Shape_52_" class="st1" d="M111.3,307.2c-0.1,0-0.2,0-0.3,0.1c-0.1,0-0.1,0.1-0.2,0.1c-0.1,0.1-0.1,0.1-0.1,0.2
								c0,0.1-0.1,0.2-0.1,0.3c0,0.1,0,0.2,0.1,0.3c0,0.1,0.1,0.2,0.1,0.2s0.1,0.1,0.2,0.1c0.1,0,0.2,0.1,0.3,0.1
								c0.1,0,0.2,0,0.3-0.1c0.1,0,0.1-0.1,0.2-0.1s0.1-0.1,0.1-0.2c0-0.1,0.1-0.2,0.1-0.3s0-0.2-0.1-0.3c0-0.1-0.1-0.2-0.1-0.2
								c-0.1-0.1-0.1-0.1-0.2-0.1C111.5,307.3,111.4,307.2,111.3,307.2L111.3,307.2z M111,308.4v-0.9h0.3c0,0,0.1,0,0.1,0
								s0.1,0,0.1,0s0.1,0.1,0.1,0.1c0,0,0,0.1,0,0.2c0,0,0,0.1,0,0.1c0,0,0,0.1,0,0.1s0,0-0.1,0c0,0-0.1,0-0.1,0l0.2,0.4h-0.3
								l-0.2-0.4h0v0.4H111L111,308.4z"/>
						</g>
					</g>
					<g id="universal" transform="translate(320.543178, 8.877604)">
						<g id="Group_5_">
							<path id="Shape_53_" class="st1" d="M96.3,293.8c0.2-0.2,0.4-0.1,0.7-0.1c0.5,0.1,0.3-0.1,0.7,0.4c0.4,0.3,0.4-0.1,0.9,0.2
								c0.5,0.5,0.5,0.3,1.2,0.4v0l-0.1,0.1l-0.1,0l-0.1,0l-0.1,0l0,0c-0.3-0.2-0.6-0.2-0.9,0v-0.1l0-0.1l-0.3-0.3l-0.1,0l-0.1,0
								h-0.1l-0.1,0l-0.2,0l-0.2-0.1l-0.2-0.2l-0.2-0.1l-0.2-0.1h-0.3l-0.1,0h-0.1L96.3,293.8L96.3,293.8L96.3,293.8z"/>
							<path id="Shape_54_" class="st1" d="M112,308.8l-0.1-0.2l0-0.2l0-0.1l0,0H98.9l1.5,1.2l0.1,0l0.1,0.1l0.1,0.1l0.1,0.1
								c0.3,0.3,0.5,0.7,0.6,1.1l0,0.1l-0.1,0.1l-0.1,0.1l-0.1,0.2l0,0.3l0,0.5c0,0.4,0.1,1.1-0.4,1.3l0,0h0c0,1-0.4,2.1-1.1,2.9
								c-0.4,0.3-0.4,0.7-0.2,1.1c-0.2,0.1-0.6,1.4-0.5,1.6l0,0.2l0.1,0.2l0.1,0.1l0.2,0.1l0.2,0.1l0.2,0l0.2,0l0.1,0l0,0l-0.1-0.1
								l-0.1-0.1l0-0.1l0.1-0.1l0.2-0.1l0.4-0.2l0.2-0.2l0-0.2l-0.1-0.2l-0.1,0h0.1l0.1,0l0.2,0l0.2-0.1l0.2-0.2l0.2-0.2l0.2-0.3
								l0.2-0.4l0.3,0l0.2,0l0.1-0.1l0.2-0.1l0.2-0.1l0.3-0.1l0.4-0.1l0.8-0.2l0.1,0l0.1-0.1l0.1,0l0-0.1l0-0.1
								c-0.1-0.6,0.1-0.4,0.8-0.8c1.3-0.8,2-1.4,2.7-2.6l0.1-0.2l0.2-0.2l0.2-0.2l0.3-0.2l0.4-0.2l0.3-0.1h0.4l0.2,0h0.1l0.1-0.1
								l0.1-0.1l0.3-0.3l0.2-0.3c0.3-0.5,0.2-0.8,0.7-1.3l0.1-0.1l0.1-0.1l0.1-0.1l0-0.1l0.1-0.1L112,308.8L112,308.8L112,308.8z"/>
							<polygon id="Shape_55_" class="st1" points="102.5,295.5 102.5,295.8 102.7,295.8 102.8,295.7 102.8,295.6 102.7,295.6 
								102.6,295.6 102.6,295.5 							"/>
							<path id="Shape_56_" class="st1" d="M101.8,295.4c-0.5,0.1-1,0.1-1.4,0.3c-0.1-0.2-0.2-0.2-0.5-0.2l0.1-0.1l0-0.1V295
								C100.7,294.7,101.3,295.3,101.8,295.4L101.8,295.4z"/>
							<path id="Shape_57_" class="st1" d="M118,309.3c-7.3,20.7-37,21.3-44.3,0.2C81.4,328.3,110.4,328.2,118,309.3L118,309.3z"/>
							<path id="Shape_58_" class="st1" d="M118,296c-3.1-9.4-11.6-15.9-22.3-15.9c-11.1,0-18.8,5.9-22.2,15.7
								c2.8-6.8,8.3-11.1,14.7-13c-0.1,0.2-0.2,0.4-0.2,0.4c-0.1,0.2-0.2,0.5-0.4,0.6c-0.5,0.2-0.8,1.1-1.1,1.5l-0.1,0.2v0.1l0,0
								v0.2c-0.2,0.7-1,1.2-1.4,1.9l-0.2,0.4l-0.1,0.4l-0.1,0.4l-0.1,0.3l0,0.2l0,0c0.5,0.8,0.6,1.8,0.4,2.7v0l0,0l0.1,0l0.1,0.1
								l0.1,0.2l0.1,0.2l0.1,0.2l0.1,0.2l0.1,0.3l0.1,0.2l0.1,0.1l0,0c0.5-0.8-0.5-2.1-0.3-3h0l0.1-0.1l0.1,0
								c0.1,1.4,0.9,2.6,1.6,3.7l-0.1,0.1l-0.2,0.2v0.2l0.3,0.1l-0.2,0.4h0.2l0.1,0h0.1l0.1,0l0.2,0l0.1,0.1l0.1,0.1l0.2,0.2
								l0.3,0.2l0.1,0l0.1,0h4.6c0.1-0.6,0.3-1.2,0.7-1.7h0l-0.1,0h-0.5l-0.1,0l-0.1-0.1l-0.1-0.1h-0.1c-0.2,0.1-0.4,0.8-0.6,0.9
								c-0.2,0.5-1.1,0.5-1.6,0.5c-0.4,0.1-0.3,0-0.6-0.3c-0.1-0.2-0.3-0.5-0.4-0.7c-0.8-1.6,0.9-4,2.8-3.1c1-0.8,1.3,0,2.2-0.3
								l0.4-0.1l0.2,0.1l0.2,0.2l0.1,0.3l0.1,0.4l0.2,0.4l0.2,0.3l0.4,0.2l0.1-0.4l-0.1-0.4l-0.1-0.4l-0.3-0.7l-0.1-0.3l0.1-0.3
								l0.3-0.2c0.5-0.2,1.4-0.7,1.6-1.2l0.1-0.3l0.1-0.3l0.2-0.4l0.1-0.2l0.1-0.1l0.1-0.1l0.1,0l0.2-0.1l0.2-0.1l0.1-0.1l0.1-0.2
								l0-0.1v-0.1l0-0.1v0h0l0.1,0l0.1,0h0.2l0.2,0l0.2-0.1l0.3-0.1l0.2-0.2l-0.2-0.1l-0.2-0.1l-0.2-0.1l-0.2-0.1l-0.2-0.1
								l-0.1-0.1v-0.3l0.2-0.1h0.2l0.3,0l0.4,0.1l0.4,0.1h0.4l0.3-0.1l0.2-0.3c-1-0.4-1.6-1-2.5-1.4l-0.2,0.1l-0.1,0.1h-0.3l-0.2,0
								l-0.1-0.1l-0.2-0.1l-0.2-0.1c-0.7-0.6-1,0-1.5-0.5l-0.1,0.3v0.4l0.1,0.1l0.1,0.1l0.2,0l0.1,0l0.1,0.1l0.1,0.1v0l0,0l-0.2,0
								l-0.2,0l-0.2,0.1l-0.1,0.2v0.4l0,0.1l0,0.1l-0.1,0.1l-0.1,0l-0.2,0c-0.7-0.4-0.2-0.5-0.9-0.8c-0.5-0.3-1.5-0.1-1.9-0.5
								l0.1-0.1l0.1-0.1l0.2-0.1l0.2-0.2l0.2-0.1l0.3-0.2l0.3-0.2l0.4-0.1c1.2-0.6,2.7-0.7,4-0.5c0,0-0.1,0-0.3-0.1
								C107.4,283,114.8,287.7,118,296L118,296z"/>
							<path id="Shape_59_" class="st1" d="M55.7,298h-3.7l0.6,0.6v4.9l-0.1,0.3l-0.2,0.2c-0.3,0.4-1,0.5-1.5,0.5l-0.4,0l-0.3-0.1
								l-0.3-0.1l-0.2-0.2l-0.2-0.2l-0.2-0.2l-0.1-0.3v-4.9l0.6-0.6H46l0.6,0.6c0.3,4.5-1.5,7.6,4.3,7.7c5.9-0.1,4-3.1,4.3-7.7
								L55.7,298L55.7,298z"/>
							<polygon id="Shape_60_" class="st1" points="68.4,298 65.4,298 65.9,298.6 65.9,302.7 61.5,298 58.7,298 59.3,298.6 
								59.3,305.6 58.7,306.2 61.8,306.2 61.2,305.6 61.2,301.4 65.9,306.2 67.9,306.2 67.9,298.6 							"/>
							<polygon id="Shape_61_" class="st1" points="75.5,306.2 75,305.6 75,298.6 75.5,298 71.8,298 72.4,298.6 72.4,305.6 
								71.8,306.2 							"/>
							<polygon id="Shape_62_" class="st1" points="87.6,298 84.5,298 85.1,298.6 82.9,303.1 80.8,298.6 81.4,298 77.7,298 
								81.7,306.2 83.5,306.2 							"/>
							<polygon id="Shape_63_" class="st1" points="98,306.2 98,304 97.3,304.5 92.9,304.5 92.9,302.9 95.7,302.9 96.3,303.4 
								96.3,300.8 95.7,301.3 92.9,301.3 92.9,299.7 97.3,299.7 98,300.2 98,298 89.8,298 90.3,298.6 90.3,305.6 89.8,306.2 							
								"/>
							<path id="Shape_64_" class="st1" d="M104.3,301.7v-2h2.2l0.2,0.1l0.2,0c0.4,0.2,0.5,0.5,0.5,0.8
								C107.3,302,105.2,301.8,104.3,301.7L104.3,301.7z M110.3,306.2l-2.4-3.2c1.2-0.4,2-1.2,2-2.5l0-0.5l-0.2-0.4l-0.2-0.4
								l-0.3-0.4l-0.5-0.3l-0.6-0.2l-0.7-0.1l-0.9-0.1h-5.4l0.6,0.6v6.9l-0.6,0.6h3.6l-0.6-0.6v-2.3h1.1l1.7,2.3l-0.6,0.6
								L110.3,306.2L110.3,306.2z"/>
							<path id="Shape_65_" class="st1" d="M121.3,303.8c0-1.8-2-2.3-3.5-2.7c-0.5,0-2.5-0.7-1.4-1.3c1-0.5,3.5,0.3,4.5,0.8v-2.8
								l-0.7,0.6c-1.8-0.7-4.2-0.9-5.9,0.2c-0.5,0.4-0.9,1-0.9,1.6c-0.1,1.6,1.4,2.3,2.7,2.7l0.4,0.1l0.4,0.1l0.4,0.1l0.4,0.1
								l0.3,0.1l0.2,0.2l0.2,0.2l0,0.3c0,0.5-0.7,0.6-1.1,0.6c-1.4-0.1-2.8-0.5-4-1.2v3l0.7-0.7
								C116.4,306.5,121.2,307.1,121.3,303.8L121.3,303.8z"/>
							<path id="Shape_66_" class="st1" d="M127.2,303.2l1.4-2.9l1.5,2.9H127.2L127.2,303.2z M134.3,306.2L130,298h-2.9l0.3,0.6
								l-3.8,7.5h3.2l-0.6-0.6l0.5-0.9h4.1l0.4,0.9l-0.6,0.6L134.3,306.2L134.3,306.2z"/>
							<polygon id="Shape_67_" class="st1" points="136.6,298 137.2,298.6 137.2,305.6 136.6,306.2 144.5,306.2 144.5,304 
								143.9,304.5 139.7,304.5 139.7,298.6 140.2,298 							"/>
							<path id="Shape_68_" class="st1" d="M143.7,298.7L143.7,298.7l-0.2-0.1l-0.1,0h-0.1l-0.2,0l-0.2,0.1l-0.1,0.2l0,0.2l0,0.2
								l0.1,0.2l0.2,0.1l0.2,0l0.1,0h0.1l0.1,0l0.1-0.1v-0.1l-0.1,0.1l-0.1,0.1l-0.1,0l-0.1,0l-0.2,0l-0.2-0.1l-0.2-0.3
								c0.1-0.5,0.6-0.6,0.9-0.3L143.7,298.7L143.7,298.7z"/>
							<path id="Shape_69_" class="st1" d="M142.2,299.1c0.1-1.3,2.1-1.3,2.2,0C144.3,300.5,142.2,300.5,142.2,299.1L142.2,299.1z
								 M142.1,299.1c0,1.5,2.3,1.6,2.4,0C144.4,297.6,142.1,297.7,142.1,299.1L142.1,299.1z"/>
						</g>
					</g>
				</g>
			</g>
		</g>
	</g>
</g>
<path class="st1" d="M569.3,300.9c1.9,0.4,3.7,1.1,5.4,2c1.8,1,3.4,2.3,4.6,3.7c1.3-1.5,2.8-2.7,4.5-3.6c1.7-1,3.6-1.6,5.5-2
	c-0.6-1.8-1-3.8-1-5.7c0-1.9,0.3-3.8,1-5.7c-1.9-0.4-3.8-1.1-5.5-2c-1.7-1-3.3-2.2-4.5-3.7c-1.3,1.5-2.8,2.7-4.6,3.7
	c-1.7,1-3.6,1.6-5.5,2c0.7,1.8,1,3.7,1,5.7C570.3,297.2,569.9,299.1,569.3,300.9L569.3,300.9z M579.3,307.9l-0.3-0.4
	c-1.2-1.5-2.8-2.8-4.7-3.9c-1.8-1-3.7-1.7-5.6-2l-0.5-0.1l0.2-0.5c0.7-1.8,1-3.8,1-5.8c0-2-0.4-4-1.1-5.9l-0.2-0.5l0.5-0.1
	c2-0.3,3.9-1,5.7-2c1.8-1,3.4-2.3,4.7-3.8l0.3-0.4l0.3,0.4c1.3,1.5,2.8,2.8,4.6,3.8c1.8,1,3.7,1.7,5.8,2l0.5,0.1l-0.2,0.5
	c-0.7,1.9-1.1,3.8-1.1,5.8c0,2,0.3,4,1.1,5.9l0.2,0.5l-0.5,0.1c-2,0.3-4,1-5.7,2c-1.7,1-3.2,2.2-4.6,3.8L579.3,307.9L579.3,307.9z"
	/>
<path class="st1" d="M578.6,287.6c0-0.4,0.3-0.8,0.8-0.8c0.4,0,0.8,0.3,0.8,0.8c0,0.4-0.3,0.8-0.8,0.8S578.6,288,578.6,287.6z
	 M578.9,293.6h0.8v-2l4.9,0.1l0-0.8l-4.9,0.1v-2c0.7-0.2,1.2-0.8,1.2-1.5c0-0.9-0.7-1.6-1.6-1.6s-1.6,0.7-1.6,1.6
	c0,0.7,0.5,1.3,1.2,1.5v2l-4.7-0.2l0,0.8l4.7-0.1V293.6L578.9,293.6z"/>
<path class="st1" d="M585.8,297.4c-0.1,1.9-2.5,4-5.1,4c-0.7,0-0.9-0.5-0.9-1v-2.3c0.5,0,1-0.1,1.3-0.4c0-0.1,0-0.6,0-0.7
	c-0.9,0.8-1.7,1-2.3,0.4c-0.5-0.5-0.5-1.3-0.5-1.7c0-0.8,0.3-1.9,1.3-1.9c0.5,0,0.8,0.2,1.1,0.4c0.3,0.3,0.5,0.5,0.5,0.5
	c0,0,0,0,0-0.1c0-0.2,0-1.2,0-1.2s-0.1,0-0.2,0c0,0-0.1,0.1-0.1,0.1c0,0.2-0.7-0.1-1.3-0.1c-0.7,0-1.3,0.3-1.6,0.6
	c-0.4,0.4-0.6,1-0.6,1.6c0,0.5,0.2,1.3,0.6,1.7c0.3,0.2,0.5,0.5,1,0.6v2.3c0,0.4-0.2,1.1-0.9,1.1c-2.7,0-5-2.1-5.1-4l-1.4-0.8
	c1.2,5.3,7.6,5.9,7.8,7v0c0,0,0,0,0,0c0,0,0,0,0,0v0c0.2-1.1,6.6-1.7,7.8-7L585.8,297.4L585.8,297.4z"/>
<path class="st1" d="M572.7,293.9h0.4c0.2,0,0.2,0,0.3,0.2s1.4,3.2,1.6,3.7c0,0.1,0.1,0.1,0.1,0.1c0.1,0,0.1,0,0.1-0.1
	c0.1-0.1,1.4-3.4,1.6-3.7c0.1-0.2,0.4-0.3,0.5-0.3h0.1c0,0,0.1,0,0.1,0v-0.1c0,0,0,0-0.1,0H576c0,0,0,0,0,0v0.1c0,0,0,0.1,0,0.1h0.2
	c0.3,0,0.3,0.1,0.3,0.2c-0.1,0.2-1,2.5-1,2.5l-1.1-2.7l0.6,0c0,0,0,0,0-0.1v-0.1c0,0,0,0-0.1,0h-2.2c0,0,0,0,0,0L572.7,293.9
	C572.7,293.9,572.7,293.9,572.7,293.9z"/>
<path class="st1" d="M580.9,293.6L580.9,293.6z"/>
<path class="st1" d="M584.5,295c0,0.2,0,0.5-0.2,0.6c-0.2,0.2-0.5,0.4-0.8,0.4c-0.2,0-0.3,0-0.5-0.1v-2c0.1-0.1,0.3,0,0.4,0
	C583.8,294,584.5,294.1,584.5,295L584.5,295z M581.7,293.8C581.7,293.8,581.7,293.8,581.7,293.8l0,0.2c0,0,0,0,0,0l0.6,0l0,3.9
	l-0.5,0c0,0,0,0,0,0.1v0.2c0,0,0,0,0.1,0h1.9c0.1,0,0.1,0,0.1-0.1v-0.1c0,0,0,0-0.1,0l-0.6,0l0-1.7c0.2,0,0.4,0,0.6,0
	c1.1,0,1.7-0.5,1.7-1.2c0-0.4-0.2-0.7-0.5-0.9c-0.4-0.2-0.8-0.3-1.5-0.3H581.7L581.7,293.8z"/>
<path class="st1" d="M536.8,313.1v0.5h1.9l-3.3,9.9h0l-3.5-9.9h1.6v-0.5h-5.2v0.5h1.5l4.6,13.1h0.5l4.4-13.1h1.5v-0.5H536.8z"/>
<path class="st1" d="M540.4,321.3h3.2v-0.7c0-0.5-0.1-0.8-0.2-1.1c-0.1-0.3-0.3-0.5-0.5-0.6c-0.2-0.1-0.5-0.2-0.8-0.2
	c-0.4,0-0.8,0.2-1,0.5c-0.3,0.3-0.4,0.6-0.5,0.8C540.5,320.3,540.4,320.7,540.4,321.3L540.4,321.3z M544.8,323.9h0.4
	c-0.1,0.6-0.3,1.1-0.6,1.5c-0.3,0.4-0.6,0.7-1,0.9c-0.4,0.2-0.9,0.3-1.4,0.3c-0.9,0-1.7-0.4-2.4-1.1c-0.7-0.7-1-1.7-1-2.7
	c0-0.8,0.1-1.5,0.4-2.2c0.3-0.7,0.7-1.3,1.2-1.7s1.1-0.6,1.7-0.6c0.6,0,1.1,0.1,1.6,0.4c0.5,0.3,0.8,0.7,1.1,1.2
	c0.3,0.5,0.4,1.2,0.4,1.9h-4.8v0.8c0,1.2,0.1,2,0.4,2.7s0.8,0.9,1.7,0.9c0.3,0,0.6-0.1,1-0.3c0.3-0.2,0.6-0.5,0.9-0.8
	C544.6,324.7,544.7,324.3,544.8,323.9L544.8,323.9z"/>
<path class="st1" d="M554.3,325.9v0.5l-2.4,0v-1.5h0c-0.2,0.5-0.6,1-1,1.3c-0.5,0.3-1,0.5-1.6,0.5c-1.4,0-2.1-0.6-2.1-1.9v-5.8h-1
	v-0.5l2.4,0v6.1c0,1,0.4,1.5,1.1,1.5c0.6,0,1.2-0.3,1.6-0.8c0.4-0.5,0.6-1.1,0.6-1.8v-4.5h-1.4v-0.5l2.8,0v7.4L554.3,325.9
	L554.3,325.9z"/>
<path class="st1" d="M616.5,325.9v0.5l-2.2,0v-1.5h0c-0.2,0.5-0.5,1-1,1.3c-0.4,0.3-0.9,0.5-1.5,0.5c-1.3,0-2-0.6-2-1.9v-5.8h-0.9
	v-0.5l2.2,0v6.1c0,1,0.3,1.5,1,1.5c0.6,0,1.1-0.3,1.5-0.8c0.4-0.5,0.6-1.1,0.6-1.8v-4.5h-1v-0.5l2.3,0v7.4L616.5,325.9L616.5,325.9z
	"/>
<path class="st1" d="M555.3,318.9h-0.8v-0.5h3.9v0.5H557l1.9,5.4l1.6-5.4h-1v-0.5h2.3v0.5H561l-2.3,7.7h-0.6L555.3,318.9z"/>
<path class="st1" d="M563.6,321.3h3.2v-0.7c0-0.5-0.1-0.8-0.2-1.1c-0.1-0.3-0.3-0.5-0.5-0.6c-0.2-0.1-0.5-0.2-0.8-0.2
	c-0.4,0-0.8,0.2-1,0.5c-0.3,0.3-0.4,0.6-0.5,0.8C563.7,320.3,563.6,320.7,563.6,321.3L563.6,321.3z M568,323.9h0.4
	c-0.1,0.6-0.3,1.1-0.6,1.5c-0.3,0.4-0.6,0.7-1,0.9c-0.4,0.2-0.9,0.3-1.4,0.3c-0.9,0-1.7-0.4-2.4-1.1c-0.7-0.7-1-1.7-1-2.7
	c0-0.8,0.1-1.5,0.4-2.2c0.3-0.7,0.7-1.3,1.2-1.7c0.5-0.4,1.1-0.6,1.7-0.6c0.6,0,1.1,0.1,1.6,0.4c0.5,0.3,0.8,0.7,1.1,1.2
	c0.3,0.5,0.4,1.2,0.4,1.9h-4.8v0.8c0,1.2,0.1,2,0.4,2.7s0.8,0.9,1.7,0.9c0.3,0,0.6-0.1,1-0.3c0.3-0.2,0.6-0.5,0.9-0.8
	C567.8,324.7,567.9,324.3,568,323.9L568,323.9z"/>
<path class="st1" d="M587.4,326.4h-4.5v-0.5h1.5v-12.3h-1.5v-0.5l3,0v12.8h1.5V326.4z"/>
<path class="st1" d="M589.2,315.2c0-0.3,0.1-0.5,0.3-0.7c0.2-0.2,0.4-0.3,0.7-0.3c0.2,0,0.3,0,0.5,0.1c0.2,0.1,0.3,0.2,0.4,0.3
	s0.1,0.3,0.1,0.5c0,0.3-0.1,0.6-0.3,0.8s-0.4,0.3-0.7,0.3c-0.3,0-0.5-0.1-0.7-0.3S589.2,315.5,589.2,315.2L589.2,315.2z M592,326.4
	h-4v-0.5h1.3v-7h-1.3v-0.5l2.8,0v7.4h1.2C592,325.9,592,326.4,592,326.4z"/>
<path class="st1" d="M598.8,323.9h0.4c-0.2,0.8-0.6,1.5-1,1.9c-0.4,0.5-1.1,0.7-1.9,0.8c-0.8,0-1.5-0.2-2-0.7
	c-0.5-0.4-0.9-1-1.1-1.6c-0.2-0.6-0.3-1.2-0.3-1.7c0-1.1,0.2-1.9,0.6-2.6c0.4-0.7,0.9-1.1,1.4-1.4c0.5-0.3,1-0.4,1.4-0.4
	c0.3,0,0.6,0,0.9,0.1c0.3,0.1,0.6,0.2,0.9,0.4s0.5,0.4,0.7,0.7c0.2,0.3,0.3,0.6,0.3,1c0,0.3-0.1,0.5-0.2,0.7s-0.3,0.3-0.6,0.3
	c-0.2,0-0.4-0.1-0.6-0.3c-0.2-0.2-0.2-0.4-0.2-0.7c0-0.2,0-0.4,0.1-0.5c0.2-0.3,0.4-1.3-1-1.3c-0.5,0-1,0.2-1.3,0.5
	s-0.5,0.7-0.6,1.3c-0.1,0.6-0.2,1.3-0.2,2.2c0,0.4,0,0.7,0.1,1c0,0.3,0.1,0.6,0.1,0.8c0.1,0.2,0.1,0.4,0.2,0.6
	c0.3,0.7,0.8,1.1,1.7,1.1c0.5,0,1-0.2,1.5-0.6C598.3,325.1,598.7,324.6,598.8,323.9L598.8,323.9z"/>
<path class="st1" d="M605.2,322.3c0-0.8,0-1.3-0.1-1.7s-0.3-0.8-0.6-1.1c-0.4-0.5-0.8-0.7-1.4-0.7c-0.5,0-0.9,0.2-1.1,0.6
	s-0.4,0.9-0.5,1.4c-0.1,0.5-0.1,1.2-0.1,1.9c0,0.7,0,1.2,0.1,1.7s0.2,0.9,0.5,1.2c0.3,0.3,0.6,0.5,1.1,0.5c0.2,0,0.5-0.1,0.8-0.2
	s0.6-0.4,0.8-0.8s0.4-1,0.4-1.7c0-0.2,0-0.4,0-0.5C605.2,322.8,605.2,322.5,605.2,322.3z M606.5,329.4h1v0.5H604v-0.5h1.1v-4.1h0
	c-0.4,0.9-1.2,1.3-2.2,1.3c-0.6,0-1.1-0.2-1.6-0.6c-0.5-0.4-0.8-0.9-1.1-1.5c-0.3-0.6-0.4-1.3-0.4-2c0-1,0.2-1.8,0.5-2.4
	c0.3-0.6,0.8-1.1,1.2-1.4c0.5-0.3,0.9-0.4,1.4-0.4c0.5,0,0.9,0.1,1.3,0.4c0.4,0.3,0.7,0.7,0.9,1.2l0-1.5l2.4,0v0.5h-1V329.4
	L606.5,329.4z"/>
<path class="st1" d="M621,318.7c-0.6,0-1,0.2-1.2,0.5s-0.4,0.8-0.5,1.3c-0.1,0.5-0.1,1.1-0.1,1.9c0,0.8,0,1.4,0.1,1.9
	c0.1,0.5,0.2,0.9,0.5,1.3s0.7,0.6,1.2,0.6s1-0.2,1.2-0.6s0.4-0.8,0.5-1.3c0.1-0.5,0.1-1.1,0.1-1.9c0-0.8,0-1.4-0.1-1.9
	c-0.1-0.5-0.2-0.9-0.5-1.3C622,318.9,621.6,318.7,621,318.7z M621,318.3c0.6,0,1.2,0.2,1.7,0.5s0.9,0.9,1.2,1.5
	c0.3,0.6,0.5,1.3,0.5,2.1c0,0.6-0.1,1.2-0.3,1.7c-0.2,0.5-0.4,0.9-0.7,1.3c-0.3,0.4-0.7,0.7-1.1,0.9c-0.4,0.2-0.9,0.3-1.3,0.3
	c-0.5,0-0.9-0.1-1.3-0.3c-0.4-0.2-0.8-0.5-1.1-0.9c-0.3-0.4-0.6-0.8-0.7-1.3c-0.2-0.5-0.3-1.1-0.3-1.7c0-0.8,0.2-1.5,0.5-2.1
	s0.7-1.1,1.3-1.5C619.8,318.5,620.4,318.3,621,318.3L621,318.3z"/>
<path class="st1" d="M625.3,318.9v-0.5h1.1v-2l1.5-0.8v2.7h1.7v0.5h-1.7v6.1c0,0.3,0,0.5,0.1,0.7c0.1,0.2,0.3,0.2,0.6,0.2
	c0.2,0,0.4-0.1,0.6-0.2c0.1-0.1,0.3-0.3,0.5-0.6l0.3,0.2c-0.1,0.2-0.3,0.4-0.5,0.6c-0.2,0.2-0.5,0.3-0.8,0.4
	c-0.3,0.1-0.5,0.1-0.8,0.1c-0.6,0-1-0.1-1.2-0.4c-0.2-0.3-0.3-0.7-0.3-1.3v-5.9L625.3,318.9L625.3,318.9z"/>
<path class="st1" d="M579.6,313.3c0.5,0.2,0.8,0.3,0.9,0.3c0.1,0,0.3-0.1,0.4-0.2s0.2-0.3,0.2-0.5h0.5l0,4.5h-0.3
	c-0.2-0.9-0.5-1.6-0.7-2.2c-0.4-1-1.3-1.7-2.3-1.7c-1.8,0-3.2,2-3.2,6.2c0,3.1,1.2,6.4,3.5,6.4c1.9,0,2.9-1.9,3.2-3.8l0.4,0
	c-0.5,2.9-1.6,4.3-4,4.3c-1.5,0-2.8-0.7-3.7-2.1c-0.8-1.3-1.2-2.8-1.2-4.7c0-1.9,0.4-3.6,1.3-4.9c0.9-1.4,2.1-2.1,3.6-2.1
	C578.6,313,579.1,313.1,579.6,313.3L579.6,313.3z"/>
</svg>
