<?xml version="1.0" encoding="utf-8"?>
<!-- Generator: Adobe Illustrator 21.0.0, SVG Export Plug-In . SVG Version: 6.00 Build 0)  -->
<svg version="1.1" id="Layer_1" xmlns="http://www.w3.org/2000/svg" xmlns:xlink="http://www.w3.org/1999/xlink" x="0px" y="0px"
	 viewBox="0 0 555.1 309.5" style="enable-background:new 0 0 555.1 309.5;" xml:space="preserve">
<style type="text/css">
	.st0{fill:#D6D6D6;}
</style>
<g>
	<title>Logos</title>
	<desc>Created with Sketch.</desc>
	<g>
		<g>
			<path class="st0" d="M488.8,7.8c-13.1,0-23,10.4-23,22.6c0,10.8,7.1,16.5,7.1,16.5c0.7,0.7,0.6,0.9,0,1.5c0,0-7.3,6.5-7.3,16.3
				c0,13.7,11,22.8,23,22.8c13.5,0,23-10.8,23-22.6c0-10.2-6.9-16.2-6.9-16.2c-1-0.9-1-1.2,0-1.8c0,0,6.9-5.7,6.9-16.3
				C511.9,18.2,502.1,7.9,488.8,7.8 M492.1,20.5c0.3-0.7,1-1.2,1.7-1.2c1,0,1.8,0.9,1.8,1.8c0,0.9-0.9,1.8-1.8,1.8
				c-0.8,0-1.5-0.4-1.7-1.2c-0.3,0.7-1,1.2-1.7,1.2c-0.7,0-1.5-0.4-1.7-1.2c-0.3,0.7-1,1.2-1.7,1.2c-0.7,0-1.2-0.3-1.6-0.9
				c-0.1,0.2-0.3,0.3-0.6,0.6c0.4,0.3,0.8,0.9,0.8,1.6s-0.3,1.2-0.8,1.5c0.4,0.3,0.8,0.9,0.8,1.6s-0.3,1.2-0.8,1.5
				c0.1,0.1,0.3,0.2,0.4,0.3c0.3-0.4,0.9-0.7,1.5-0.7c0.7,0,1.3,0.3,1.6,0.9c0.3-0.6,1-0.9,1.6-0.9c0.7,0,1.3,0.3,1.6,0.9
				c0.3-0.6,0.9-0.9,1.6-0.9c1,0,1.8,0.9,1.8,1.8s-0.9,1.8-1.8,1.8c-0.7,0-1.3-0.3-1.6-0.9c-0.3,0.6-0.9,0.9-1.6,0.9
				s-1.3-0.3-1.6-0.9c-0.3,0.6-0.9,0.9-1.6,0.9c-0.6,0-1.2-0.2-1.5-0.7c-0.1,0.1-0.2,0.2-0.4,0.3c0.4,0.3,0.8,0.9,0.8,1.6
				c0,0.7-0.3,1.2-0.8,1.5c0.4,0.3,0.8,0.9,0.8,1.6c0,0.7-0.3,1.2-0.8,1.5c0.2,0.1,0.3,0.3,0.6,0.6c0.3-0.6,0.9-0.9,1.6-0.9
				c0.8,0,1.5,0.4,1.7,1.2c0.3-0.7,1-1.2,1.7-1.2c0.7,0,1.5,0.4,1.7,1.2c0.3-0.7,1-1.2,1.7-1.2c1,0,1.8,0.9,1.8,1.8
				s-0.9,1.8-1.8,1.8c-0.8,0-1.5-0.4-1.7-1.2c-0.3,0.7-1,1.2-1.7,1.2c-0.7,0-1.5-0.4-1.7-1.2c-0.3,0.7-1,1.2-1.7,1.2
				c-0.7,0-1.2-0.3-1.6-0.9c-0.3,0.6-0.9,0.9-1.6,0.9c-1,0-1.8-0.9-1.8-1.8c0-0.7,0.3-1.2,0.8-1.6c-0.4-0.3-0.8-0.9-0.8-1.5
				c0-0.7,0.3-1.2,0.8-1.6c-0.4-0.3-0.8-0.9-0.8-1.5c0-0.7,0.3-1.2,0.8-1.6c-0.4-0.3-0.8-0.9-0.8-1.5c0-0.7,0.3-1.2,0.8-1.6
				c-0.4-0.3-0.8-0.9-0.8-1.5c0-0.7,0.3-1.2,0.8-1.6c-0.4-0.3-0.8-0.9-0.8-1.5c0-0.7,0.3-1.2,0.8-1.6c-0.4-0.3-0.8-0.9-0.8-1.5
				c0-1,0.8-1.8,1.8-1.8c0.7,0,1.2,0.3,1.6,0.9c0.3-0.6,0.9-0.9,1.6-0.9c0.8,0,1.5,0.4,1.7,1.2c0.3-0.7,1-1.2,1.7-1.2
				C491,19.1,491.7,20,492.1,20.5 M492.1,54.9c0.3-0.7,1-1.2,1.7-1.2c1,0,1.8,0.9,1.8,1.8c0,0.9-0.9,1.8-1.8,1.8
				c-0.8,0-1.5-0.4-1.7-1.2c-0.3,0.7-1,1.2-1.7,1.2c-0.7,0-1.5-0.4-1.7-1.2c-0.3,0.7-1,1.2-1.7,1.2c-0.7,0-1.2-0.3-1.6-0.9
				c-0.1,0.2-0.3,0.3-0.6,0.6c0.4,0.3,0.8,0.9,0.8,1.5c0,0.7-0.3,1.2-0.8,1.6c0.4,0.3,0.8,0.9,0.8,1.5c0,0.7-0.3,1.2-0.8,1.6
				c0.1,0.1,0.3,0.2,0.4,0.3c0.3-0.4,0.9-0.7,1.5-0.7c0.7,0,1.3,0.3,1.6,0.9c0.3-0.6,1-0.9,1.6-0.9c0.7,0,1.3,0.3,1.6,0.9
				c0.3-0.6,0.9-0.9,1.6-0.9c1,0,1.8,0.9,1.8,1.8c0,1-0.9,1.8-1.8,1.8c-0.7,0-1.3-0.3-1.6-0.9c-0.3,0.6-0.9,0.9-1.6,0.9
				s-1.3-0.3-1.6-0.9c-0.3,0.6-0.9,0.9-1.6,0.9c-0.6,0-1.2-0.2-1.5-0.7c-0.1,0.1-0.2,0.2-0.4,0.3c0.4,0.3,0.8,0.9,0.8,1.5
				c0,0.7-0.3,1.2-0.8,1.5c0.4,0.3,0.8,0.9,0.8,1.6c0,0.7-0.3,1.2-0.8,1.5c0.2,0.1,0.3,0.3,0.6,0.6c0.3-0.6,0.9-0.9,1.6-0.9
				c0.8,0,1.5,0.4,1.7,1.2c0.3-0.7,1-1.2,1.7-1.2c0.7,0,1.5,0.4,1.7,1.2c0.3-0.7,1-1.2,1.7-1.2c1,0,1.8,0.9,1.8,1.8
				c0,1-0.9,1.8-1.8,1.8c-0.8,0-1.5-0.4-1.7-1.2c-0.3,0.7-1,1.2-1.7,1.2c-0.7,0-1.5-0.4-1.7-1.2c-0.3,0.7-1,1.2-1.7,1.2
				c-0.7,0-1.2-0.3-1.6-0.9c-0.3,0.6-0.9,0.9-1.6,0.9c-1,0-1.8-0.9-1.8-1.8c0-0.7,0.3-1.2,0.8-1.5c-0.4-0.3-0.8-0.9-0.8-1.5
				c0-0.7,0.3-1.2,0.8-1.6c-0.4-0.3-0.8-0.9-0.8-1.5c0-0.7,0.3-1.2,0.8-1.5c-0.4-0.3-0.8-0.9-0.8-1.5c0-0.7,0.3-1.2,0.8-1.6
				c-0.4-0.3-0.8-0.9-0.8-1.6s0.3-1.2,0.8-1.5c-0.4-0.3-0.8-0.9-0.8-1.6c0-0.7,0.3-1.2,0.8-1.5c-0.4-0.3-0.8-0.9-0.8-1.6
				c0-1,0.8-1.8,1.8-1.8c0.7,0,1.2,0.3,1.6,0.9c0.3-0.6,0.9-0.9,1.6-0.9c0.8,0,1.5,0.4,1.7,1.2c0.3-0.7,1-1.2,1.7-1.2
				C491,53.6,491.7,54.3,492.1,54.9"/>
			<path class="st0" d="M33.6,148.1h-2.2c-3.9,0-5.1,2.1-5.1,4.3v1.4h-2.1v2.9h2.1v11.4h4.5v-11.4h2.8v-3.1H31v-1.2
				c0-1,0.7-1.3,1.2-1.3h1.7V148L33.6,148.1L33.6,148.1z"/>
		</g>
		<rect x="35.3" y="153.3" class="st0" width="4.2" height="14.6"/>
		<rect x="35.4" y="148.1" class="st0" width="4.2" height="3.5"/>
		<g>
			<path class="st0" d="M51.8,153.3c-3.6,0-4.5,0.8-5.3,2.5v-2.1h-4.2v14.5h4.3v-6.5c0.1-1.7,0.4-4.3,3.7-4.3c0.4,0,0.8,0,1.3,0.1
				L51.8,153.3L51.8,153.3z"/>
			<path class="st0" d="M58.9,153.3c-3.2,0-6.4,1.2-6.4,4.9c0,2.5,2.2,3.3,4.6,3.9c2.9,0.8,4.3,0.7,4.5,1.8c0.3,1.7-1.8,1.8-2.5,1.8
				c-1.5,0-3.1-0.5-3.1-2.1h-3.8c0.1,3.8,3.5,5,6.8,5c3.3,0,6.7-1.5,6.7-5.3c0.1-5.4-8.9-3.3-8.9-6.1c0-0.8,1.1-1.3,2.2-1.3
				c1.3,0,2.8,0.7,2.6,1.8h3.8C65.3,154.3,62.1,153.3,58.9,153.3"/>
			<path class="st0" d="M73,149.1h-4.2v4.6h-2v3.1h2v7.5c0,2.4-0.1,3.9,5.1,3.9c0.5,0,1.2,0,1.8,0V165c-2.8,0-2.8-0.1-2.6-1.7v-6.4
				h2.6v-3.1h-2.6L73,149.1L73,149.1L73,149.1z"/>
			<path class="st0" d="M97.8,148.1h-4.2v7c-1-1.4-2.5-1.8-4.2-1.8c-4.3,0-6.4,3.6-6.4,7.5s2.1,7.8,6.6,7.8c1.7,0,3.2-0.4,4.1-1.8
				l0.1,1.5h4.1L97.8,148.1L97.8,148.1z M90.2,165.5c-2.1,0-3.3-1.8-3.3-4.6c0-3.7,1.8-4.5,3.3-4.5c2.2,0,3.3,1.8,3.3,4.5
				C93.5,163.6,92.6,165.5,90.2,165.5"/>
		</g>
		<rect x="100.4" y="153.3" class="st0" width="4.2" height="14.6"/>
		<rect x="100.5" y="148.1" class="st0" width="4.1" height="3.5"/>
		<g>
			<path class="st0" d="M116.8,153.3c-3.6,0-4.5,0.8-5.3,2.5v-2.1h-4.1V168h4.3v-6.4c0.1-1.8,0.4-4.3,3.6-4.3c0.4,0,1,0,1.4,0.1
				L116.8,153.3L116.8,153.3L116.8,153.3z"/>
			<path class="st0" d="M124.8,153.3c-4.5,0-7.5,3.3-7.5,7.7c0,4.5,2.8,7.7,7.5,7.7c3.3-0.1,5.7-1.2,6.8-4.6h-4.1
				c-0.4,0.7-1.2,1.5-2.9,1.5c-1.3,0-3.3-1.1-3.5-3.6h10.7C132.1,157.3,129.8,153.3,124.8,153.3 M121.4,159.3c0-1.2,1-2.9,3.3-2.9
				c1.8,0,2.9,1.1,2.9,2.9H121.4z"/>
			<path class="st0" d="M141,153.3c-4.7,0-7.5,3.3-7.5,7.8c0,4.7,2.9,7.5,7.4,7.5c3.8,0,6.4-1.8,7-5.7l-3.9-0.1
				c-0.3,1.7-1.4,2.6-3.2,2.6c-2.1,0-3.1-2.1-3.1-4.5c0-2.1,1-4.7,3.3-4.7c1.4,0,2.6,1.1,2.9,2.6h3.9
				C147.6,154.9,144.4,153.3,141,153.3"/>
			<path class="st0" d="M155,149.3h-4.3v4.6h-1.9v3.1h2v7.5c0,2.4-0.3,3.8,5.6,3.8c0.4,0,1,0,1.4,0v-3.2c-2.8,0-2.8,0-2.8-1.7v-6.5
				h2.6v-3.1H155L155,149.3L155,149.3z"/>
			<path class="st0" d="M228.9,168.2h-2c-0.3,0-0.4,0.1-0.4,0.4v8.8c0,0.3,0.1,0.4,0.4,0.4h5.7c0.3,0,0.4-0.1,0.4-0.4v-1.1
				c0-0.3-0.1-0.4-0.4-0.4h-3.2h-0.1v-7.2C229.3,168.2,229.2,168.2,228.9,168.2"/>
			<path class="st0" d="M241.5,168.2H240c-0.3,0-0.4,0.1-0.4,0.4h0.1v6c0,1.1-0.5,1.5-1.5,1.5s-1.5-0.5-1.5-1.5v-6
				c0-0.3-0.1-0.4-0.4-0.4h-2c-0.3,0-0.4,0.1-0.4,0.4v5.8c0,2.4,2,3.3,4.1,3.3c2.5,0,3.9-1.5,3.9-3.5v-5.7
				C242,168.2,241.8,168.2,241.5,168.2"/>
			<path class="st0" d="M248.2,167.9c-2.8,0-5.4,1.7-5.4,5s2.5,5,5.4,5c1.5,0,2.2-0.4,2.6-0.5c0.3,0,0.4-0.3,0.4-0.5v-1.5
				c0-0.1,0-0.3-0.1-0.3c-0.1,0-0.1,0-0.3,0.1c-0.4,0.5-1.3,1-2.2,1c-1.4,0-2.5-0.8-2.5-3.2s1.2-3.2,2.5-3.2c1,0,1.8,0.4,2.2,1
				c0.1,0.1,0.3,0.1,0.3,0.1s0.1-0.1,0.1-0.3V169c0-0.3-0.3-0.4-0.4-0.5C250.5,168.2,249.6,167.9,248.2,167.9"/>
			<path class="st0" d="M257,167.9c-2.9,0-5,1.8-5,5c0,3.3,2,5,5,5c2.9,0,5-1.7,5-5S260,167.9,257,167.9 M257,176.3
				c-0.3,0-0.4-0.1-0.7-0.1c-1-0.3-1.3-1.1-1.3-3.2c0-2.1,0.4-2.9,1.3-3.2c0.1-0.1,0.4-0.1,0.7-0.1s0.4,0.1,0.7,0.1
				c1,0.3,1.3,1.1,1.3,3.2c0,2.1-0.4,2.9-1.3,3.2C257.5,176.3,257.3,176.3,257,176.3"/>
			<path class="st0" d="M269.7,168.1H263c-0.3,0-0.4,0.1-0.4,0.4v1.1c0,0.3,0.1,0.4,0.4,0.4h3.7l-3.6,5.7c-0.1,0.3-0.5,1.1-0.5,1.3
				v0.4c0,0.3,0.1,0.4,0.4,0.4h6.8c0.3,0,0.4-0.1,0.4-0.4v-1.1c0-0.3-0.1-0.4-0.4-0.4h-3.7l3.6-5.8c0.1-0.1,0.4-0.7,0.4-1.2v-0.4
				C270.1,168.2,269.9,168.1,269.7,168.1"/>
			<path class="st0" d="M276.2,168.2h-1.7c-1,0-1.4,0.4-1.7,1.2l-2.5,7.8c-0.1,0.3-0.1,0.3-0.1,0.4s0,0.3,0.3,0.3h1.7
				c0.4,0,0.5-0.3,0.7-0.5l0.5-1.7h2.6l0.5,1.7c0.1,0.3,0.3,0.5,0.7,0.5h2.1c0.1,0,0.3-0.1,0.3-0.3c0-0.1-0.1-0.3-0.1-0.4l-2.6-8.6
				C276.6,168.2,276.5,168.2,276.2,168.2 M273.7,173.8l1-3.3l1,3.3H273.7z"/>
			<path class="st0" d="M284.3,168.2h-3.5c-0.3,0-0.4,0.1-0.4,0.4v8.8c0,0.3,0.1,0.4,0.4,0.4h3.5c3.6,0,5.4-2.2,5.4-4.7
				C289.7,170.4,287.9,168.2,284.3,168.2 M283.7,176c-0.1-0.1-0.4-0.1-0.4-0.4V170c0-0.3,0.3-0.4,0.4-0.4h0.5c1.7,0,2.4,1.1,2.4,3.2
				s-0.8,3.2-2.4,3.2L283.7,176"/>
			<path class="st0" d="M296.7,168.2h-5.4c-0.3,0-0.4,0.1-0.4,0.4v8.8c0,0.3,0.1,0.4,0.4,0.4h5.4c0.3,0,0.4-0.1,0.4-0.4v-1.1
				c0-0.3-0.1-0.4-0.4-0.4h-2.9v-2.2h2.5c0.3,0,0.4-0.1,0.4-0.4v-1.1c0-0.3-0.1-0.4-0.4-0.4h-2.5v-1.7h2.9c0.3,0,0.4-0.1,0.4-0.4
				v-1.1C297.1,168.2,296.9,168.2,296.7,168.2"/>
			<path class="st0" d="M305.8,167.9c-1.5,0-2.6,0.3-3.2,0.5c-0.4,0.3-0.7,0.4-0.7,1v7.9c0,0.3,0.1,0.4,0.4,0.4h2.1
				c0.3,0,0.4-0.1,0.4-0.4v-7.1c0-0.1,0.1-0.3,0.3-0.4c0.1-0.1,0.4-0.1,0.7-0.1c0.8,0,1.3,0.3,1.3,1.3c0,1.1-0.4,1.4-1,1.7
				c-0.3,0.1-0.5,0.3-0.5,0.8c0,0.4,0.1,0.7,0.3,1l1.3,2.9c0.1,0.4,0.4,0.5,1.1,0.5l1.7-0.3c0.3,0,0.5,0,0.5-0.4
				c0-0.3-0.1-0.4-0.3-0.7l-1.3-2.4c-0.1-0.4-0.7-0.8-1.1-1c1-0.3,1.8-1,1.8-2.2C309.7,168.9,308.5,167.9,305.8,167.9"/>
			<path class="st0" d="M313.9,168.2h-2c-0.3,0-0.4,0.1-0.4,0.4v8.8c0,0.3,0.1,0.4,0.4,0.4h2c0.3,0,0.4-0.1,0.4-0.4v-8.8
				C314.2,168.2,314.1,168.2,313.9,168.2"/>
			<path class="st0" d="M319.8,167.9c-1.5,0-2.5,0.3-3.1,0.5c-0.4,0.1-0.7,0.4-0.7,1v7.8c0,0.3,0.1,0.4,0.4,0.4h3.9
				c2.4,0,3.7-1.2,3.7-2.9c0-1.1-0.8-1.7-1.8-2c0.8-0.3,1.5-0.8,1.5-2C323.8,168.9,322.5,167.9,319.8,167.9 M319.9,176.3
				c-0.3,0-0.5-0.1-0.7-0.1c-0.1-0.1-0.3-0.1-0.3-0.4l0.1-5.6c0-0.1,0.1-0.3,0.3-0.4c0.1-0.1,0.4-0.1,0.7-0.1c0.8,0,1.2,0.4,1.2,1.2
				c0,0.7-0.3,1-0.7,1.3c-0.3,0.3-0.5,0.5-0.5,0.8c0,0.4,0.1,0.7,0.4,0.8c0.4,0.4,1,0.8,1,1.5C321.3,175.6,320.9,176.3,319.9,176.3"
				/>
			<path class="st0" d="M331.6,168.2h-5.4c-0.3,0-0.4,0.1-0.4,0.4h-0.2v8.8c0,0.3,0.1,0.4,0.4,0.4h5.4c0.3,0,0.4-0.1,0.4-0.4v-1.1
				c0-0.3-0.1-0.4-0.4-0.4h-2.9v-2.2h2.5c0.3,0,0.4-0.1,0.4-0.4v-1.1c0-0.3-0.1-0.4-0.4-0.4h-2.5v-1.7h3.1c0.3,0,0.4-0.1,0.4-0.4
				v-1.1C331.7,168.2,331.7,168.2,331.6,168.2"/>
			<path class="st0" d="M335.6,168.1h-1.8c-0.3,0-0.4,0.1-0.4,0.4v8.8c0,0.3,0.1,0.4,0.4,0.4h1.5c0.3,0,0.4-0.1,0.4-0.4v-6.6
				l2.2,5.8c0.3,1,1,1.3,1.8,1.3h1.7c0.3,0,0.4-0.1,0.4-0.4v-8.8c0-0.3-0.1-0.4-0.4-0.4h-1.5c-0.3,0-0.4,0.1-0.4,0.4v6.4l-2.1-5.8
				C337.2,168.5,336.6,168.1,335.6,168.1"/>
			<path class="st0" d="M348.7,168.2h-1.8c-1,0-1.4,0.4-1.7,1.2l-2.4,7.8c-0.1,0.3-0.1,0.3-0.1,0.4s0,0.3,0.3,0.3h1.7
				c0.4,0,0.5-0.3,0.7-0.5l0.5-1.7h2.6l0.5,1.7c0.1,0.3,0.3,0.5,0.7,0.5h2.1c0.1,0,0.3-0.1,0.3-0.3c0-0.1-0.1-0.3-0.1-0.4l-2.6-8.6
				C349.1,168.2,349,168.2,348.7,168.2 M346.1,173.8l1-3.3l1,3.3H346.1z"/>
			<path class="st0" d="M260.9,182.4c-1.2,0-2,0.3-2.6,1c-0.5,0.4-0.8,1.1-0.8,1.7c0,0.7,0.1,1.2,0.4,1.5c0.4,0.5,1.1,1.1,2.1,1.4
				c0.8,0.3,1.2,0.5,1.4,0.8c0.1,0.3,0.3,0.5,0.3,0.8c0,0.8-0.5,1.2-1.7,1.2c-0.7,0-1.3-0.1-2-0.5l-0.7,1.3c1,0.4,1.8,0.7,2.9,0.7
				c1.1,0,1.8-0.3,2.5-0.8c0.7-0.4,1-1.2,1-1.8c0-0.7-0.1-1.2-0.4-1.5c-0.4-0.5-1.1-1.1-2.1-1.4c-0.8-0.3-1.2-0.5-1.4-0.8
				c-0.3-0.3-0.4-0.5-0.4-0.8c0-0.7,0.7-1.1,1.7-1.1c0.7,0,1.4,0.1,2,0.5l0.8-1.3C263.1,182.5,262,182.4,260.9,182.4"/>
			<path class="st0" d="M273.6,182.5l-1.8,0.1v5.8c0,0.7-0.1,1.2-0.5,1.5c-0.4,0.4-1,0.7-1.5,0.7c-1.4,0-2-0.7-2-2v-5.8h-1.8v5.8
				c0,1.1,0.4,1.7,1,2.4c0.8,0.7,1.7,1.1,2.9,1.1s2-0.3,2.8-1c0.8-0.7,1.2-1.5,1.2-2.5L273.6,182.5L273.6,182.5L273.6,182.5z"/>
			<path class="st0" d="M278.3,182.4l-2.1,0.5v8.9h1.7v-5.4c0-0.4,0-1.1-0.1-1.8c0.3,0.5,0.5,1.2,1,1.7l3.3,5.8l2.1-0.5l0.1-8.9
				h-1.9v5.4c0,0.5,0,1.2,0.1,1.8c-0.3-0.7-0.5-1.2-1-1.7L278.3,182.4z"/>
		</g>
		<polygon class="st0" points="292.5,182.5 285.8,182.5 285.8,183.9 288.3,183.9 288.3,191.7 290.1,191.7 290.1,183.9 292.5,183.9 
					"/>
		<g>
			<path class="st0" d="M298.6,182.4c-1.4,0-2.5,0.4-3.5,1.5c-1,1-1.4,2-1.4,3.5s0.4,2.5,1.2,3.3c1,1,2,1.4,3.6,1.4
				c1.4,0,2.5-0.5,3.5-1.4c1-1.1,1.4-2.1,1.4-3.6s-0.4-2.4-1.2-3.3C301.2,182.8,300,182.4,298.6,182.4 M298.5,190.5
				c-1.8,0-2.6-1.2-2.6-3.3c0-1.2,0.3-2,1-2.6c0.5-0.5,1.2-0.8,1.8-0.8c1,0,1.7,0.5,2.2,1.2c0.4,0.5,0.5,1.3,0.5,2.1
				c0,0.7-0.1,1.3-0.4,1.7C300.4,189.8,299.4,190.5,298.5,190.5"/>
			<path class="st0" d="M308.6,182.4c-0.5,0-1.5,0-2.9,0.1h-0.1l-0.1,9.2h1.8v-7.9h1.1c1.2,0,1.7,0.4,1.7,1.4c0,1-0.7,1.4-1.8,1.5
				l-0.5,0.8l2.9,4.3l1.8-0.8l-1.8-2.9c-0.1-0.3-0.3-0.5-0.5-0.7c1.4-0.4,2.1-1.3,2.1-2.6C312.1,183.2,311,182.4,308.6,182.4"/>
			<path class="st0" d="M319.2,182.1l-1.8,2.9c-0.3,0.4-0.4,0.7-0.5,1.1c-0.1-0.4-0.4-0.8-0.5-1.1l-1.8-2.9l-1.7,0.8l3.1,4.6v4.1
				h1.8v-4.2l3.2-4.5L319.2,182.1z"/>
			<path class="st0" d="M288.7,116c-3.6,6.8-7.9,12.7-11.6,19.6c-6.2,11.8-3.2,26.7,11.6,26.7c6,0,9.9-2.2,12.3-5.8
				c-1.8,1.3-4.3,2.2-7.9,2.2c-6.1,0-9.2-2.9-10.8-5.4c-2.8-4.6-2.6-11.4,0.5-17.4c1.4-2.6,2.9-5.3,4.5-7.7c1.4-2.2,2.9-4.7,4.3-7.2
				C290.5,119.4,289.6,117.8,288.7,116"/>
			<path class="st0" d="M296.9,130.5c-0.4,0.7-0.8,1.3-1.2,1.8c-0.8,1.3-1.5,2.4-2.1,3.7c-1.3,2.4-1.4,5.3-0.4,6.8
				c0.8,1.2,2,1.8,3.7,1.8c1.6,0,3.1-0.7,3.8-1.8c0.8-1.3,1-3.3,0.3-5.3c-0.1-0.7-0.5-1.3-1-2l0.1,0.1c0,0,0,0-0.1-0.1
				C299.2,133.8,298.2,131.9,296.9,130.5"/>
			<path class="st0" d="M293,123.8c-1.2,2-2.4,4.1-3.6,6c-1.5,2.4-3.1,4.9-4.3,7.4c-2.8,5.4-3.1,11.3-0.7,15
				c1.7,2.8,4.7,4.2,8.8,4.2c4,0,7-1.4,8.9-4.2c1.1-1.7,1.5-3.7,1.5-6c0-0.5-0.1-1.2-0.1-1.7c-1.4,1.8-3.6,2.9-6.2,2.9
				s-4.9-1.2-6.1-3.1c-1.5-2.5-1.4-6.2,0.3-9.5c0.8-1.4,1.5-2.6,2.2-3.9c0.7-1.1,1.3-2,1.8-3.1C294.7,126.6,293.8,125.2,293,123.8"
				/>
			<path class="st0" d="M78.6,47.2h-2.8v12.9c0,0.5,0.7,1.2,1.2,1.2h8.2l-1.8-2.9h-4.7V47.2L78.6,47.2z"/>
			<path class="st0" d="M33.6,43.7c-6.8,0-12.4,5.4-12.4,12.3c0,6.7,5.4,12.3,12.4,12.3c0.8,0,1.4-0.1,2-0.1V73h3.6v-6
				c3.9-1.8,6.7-6,6.7-10.8C46,49.2,40.4,43.7,33.6,43.7 M33.7,63.7c-4.5,0-8.1-3.6-8.1-7.9s3.6-7.9,8.1-7.9s8.1,3.6,8.1,7.9
				c-0.1,2.2-1.1,4.3-2.5,5.7v-3.9l-3.5,1.1v4.9C35.1,63.7,34.3,63.7,33.7,63.7"/>
			<path class="st0" d="M58.5,47.2h-2.8v11.3h-4.9V47.2H48v12.9c0,0.5,0.7,1.2,1.2,1.2h8.1c0.5,0,1.2-0.7,1.3-1.2L58.5,47.2
				L58.5,47.2z"/>
			<path class="st0" d="M90.8,46.8c-4.2,0-7.5,3.3-7.5,7.5c0,4.2,3.5,7.5,7.5,7.5c1.3,0,2.5-0.4,3.6-1l-1.4-2.4
				c-0.7,0.4-1.4,0.5-2.2,0.5c-2.6,0-4.7-2.1-4.7-4.7c0-2.5,2.1-4.7,4.7-4.7c1,0,1.7,0.3,2.4,0.7l1.5-2.4
				C93.5,47.2,92.3,46.8,90.8,46.8"/>
			<path class="st0" d="M101.1,46.8c-4.2,0-7.5,3.5-7.5,7.5c0,4.1,3.3,7.5,7.5,7.5s7.5-3.3,7.5-7.5
				C108.6,50.1,105.4,46.8,101.1,46.8 M101.1,59.1c-2.6,0-4.7-2-4.7-4.7c0-2.8,2.1-4.7,4.7-4.7s4.7,2.1,4.7,4.7
				C106,57,103.7,59.1,101.1,59.1"/>
		</g>
		<path class="st0" d="M68.4,47.2h-2.8l-6.2,14h2.9l1.4-3.1h6.4l0.1,0.3l1.3,2.8h2.9L68.4,47.2z M64.8,55.8l2.2-5.1l2.2,5.1H64.8z"
			/>
		<g>
			<path class="st0" d="M146.9,47.2c-0.7,0-1.3,0.3-1.5,0.8l-3.7,8.8l-3.7-8.8c-0.3-0.5-1-0.8-1.5-0.8c-0.8,0-1.3,0.3-1.5,0.8
				l-3.7,8.8l-3.7-8.8c-0.3-0.5-1-0.8-1.5-0.8s-1.3,0.3-1.5,0.8l-3.7,8.8l-3.7-8.8c-0.3-0.5-1-0.8-1.5-0.8c-0.7,0-1.3,0.3-1.5,0.8
				l-5.1,11.7c-0.5,1.2,0.4,2,1.3,2c0.5,0,1-0.3,1.3-0.8l4.1-9.2l4.1,9.2c0.3,0.4,0.8,0.7,1.3,0.7c0.5,0,1.1-0.3,1.3-0.7l4.1-9.2
				L131,61c0.3,0.5,0.7,0.7,1.2,0.7h0.1h0.1c0.5,0,1-0.3,1.2-0.7l4.1-9.2l4.1,9.2c0.3,0.4,0.8,0.7,1.3,0.7s1.1-0.3,1.3-0.7l4.1-9.2
				l4.1,9.2c-0.1,0.5,0.1,0.8,0.4,0.8c0.5,0,1.5-0.8,1.1-2L149.1,48C148.3,47.6,147.6,47.2,146.9,47.2"/>
			<path class="st0" d="M153.5,47.5c-1,0-1.7,0.7-1.7,1.7c0,1,0.8,1.7,1.7,1.7s1.7-0.7,1.7-1.7C155.1,48.2,154.3,47.5,153.5,47.5
				 M153.5,50.5c-0.8,0-1.4-0.7-1.4-1.4c0-0.8,0.7-1.4,1.4-1.4c0.8,0,1.3,0.7,1.3,1.4C154.7,49.9,154.1,50.5,153.5,50.5 M153.5,48.2
				h-0.8V50h0.3v-0.8h0.4l0.5,0.8h0.4l-0.5-1c0.1,0,0.4-0.1,0.4-0.5C154.1,48.2,153.9,48.2,153.5,48.2 M153.1,48.9v-0.7h0.4
				c0.3,0,0.4,0,0.4,0.3s-0.3,0.3-0.5,0.3L153.1,48.9z"/>
		</g>
		<g>
			<path class="st0" d="M290.4,38.9c-0.1,0-0.3,0-0.4,0.1h0.1h0.1h0.4l0.3,0.1l0.3,0.1l0.3,0.3l0.3,0.1h0.3l0,0h0.1h0.1h0.1l0.4,0.4
				v0.1v0.1c0.1-0.1,0.4-0.1,0.5-0.1s0.4,0,0.5,0.1h0.1h0.1h0.1l0.1-0.1c-1-0.1-1,0.1-1.5-0.5c-0.1-0.1-0.4-0.1-0.4-0.1
				c-0.1,0-0.1,0-0.1,0H292c-0.1,0-0.3,0-0.4-0.1c-0.5-0.7-0.3-0.4-1-0.5C290.7,39.2,290.5,38.9,290.4,38.9"/>
			<path class="st0" d="M309.8,57.6h-16.5l1.8,1.5h0.1l0.1,0.1l0.1,0.1l0.1,0.1c0.4,0.4,0.7,1,0.8,1.4v0.1l-0.1,0.1l-0.1,0.1
				l-0.1,0.3v0.4v0.7c0,0.5,0.1,1.4-0.5,1.7c0,1.3-0.5,2.6-1.4,3.7c-0.5,0.4-0.5,1-0.3,1.4c-0.3,0.1-0.8,1.8-0.7,2v0.3l0.1,0.3
				l0.1,0.1l0.3,0.1l0.3,0.1h0.3h0.3h0.1l-0.1-0.1l-0.1-0.1v-0.1l0.1-0.1l0.3-0.1l0.5-0.3l0.3-0.3v-0.3l-0.1-0.3h-0.1h0.1h0.1h0.3
				l0.3-0.1l0.3-0.3l0.3-0.3l0.3-0.4l0.3-0.5h0.4h0.3l0.1-0.1l0.3-0.1l0.3-0.1l0.4-0.1l0.5-0.1l1.1-0.3h0.1l0.1-0.1h0.1v-0.1V68
				c-0.1-0.8,0.1-0.5,1.1-1.1c1.7-1.1,2.5-1.7,3.5-3.3l0.1-0.3l0.3-0.3l0.3-0.3l0.4-0.3l0.5-0.3l0.4-0.1h0.5l0,0h0.1l0.1-0.1
				l0.1-0.1l0.4-0.4l0.3-0.4c0.4-0.7,0.3-1.1,1-1.7l0.1-0.1l0.1-0.1l0.1-0.1V59l0.1-0.1l-0.3-0.5l-0.1-0.3L309.8,57.6L309.8,57.6z"
				/>
		</g>
		<polygon class="st0" points="297.8,41.2 297.8,41.8 298,41.8 298.2,41.5 298.2,41.5 298,41.5 297.9,41.5 297.9,41.2 		"/>
		<g>
			<path class="st0" d="M295.1,40.7c-0.1,0-0.4,0-0.5,0.1v0.4v0.1l-0.1,0.1c0.4,0,0.5,0,0.7,0.3c0.5-0.3,1.2-0.3,1.7-0.4
				C296.5,41.1,295.8,40.7,295.1,40.7"/>
			<path class="st0" d="M317.6,58.9C312.7,71,300.9,77,289.4,77s-23.2-6-28.1-17.8c4.6,13.4,16.3,19.8,27.8,19.8
				C301,78.8,312.8,72.3,317.6,58.9"/>
			<path class="st0" d="M289.3,21.7c-14.1,0-23.9,7.5-28.2,19.9c3.6-8.8,10.6-14.1,18.8-16.5c-0.1,0.3-0.3,0.5-0.3,0.5
				c-0.1,0.3-0.3,0.7-0.5,0.8c-0.7,0.3-1.1,1.4-1.4,1.8l-0.1,0.3v0.1v0.3c-0.3,1-1.3,1.5-1.8,2.4l-0.3,0.5l-0.1,0.5l-0.1,0.5
				l-0.1,0.4v0.3c0.7,1.1,0.8,2.2,0.5,3.5h0.1l0.1,0.1l0.1,0.3l0.1,0.3l0.1,0.3l0.1,0.3l0.1,0.4l0.1,0.3l0.1,0.1
				c0.7-1.1-0.7-2.6-0.4-3.8l0.1-0.1h0.1c0.1,1.7,1.2,3.3,2,4.7l-0.1,0.1l-0.3,0.3v0.3l0.4,0.1l-0.3,0.5h0.3h0.1h0.3h0.1h0.3
				l0.1,0.1l0.1,0.1l0.3,0.3l0.4,0.3l0,0h0.1h5.8c0.1-0.8,0.4-1.5,1-2.1h-0.1h-0.5h-0.1l-0.1-0.1l-0.1-0.1h-0.1
				c-0.3,0.1-0.5,1.1-0.8,1.2c-0.3,0.7-1.4,0.7-2,0.7c-0.1,0-0.3,0-0.3,0c-0.1,0-0.1-0.1-0.5-0.4c-0.1-0.3-0.4-0.7-0.5-1
				c-1-1.7,0.5-4.2,2.5-4.2c0.4,0,0.7,0.1,1.1,0.3c0.4-0.4,0.8-0.5,1.1-0.5s0.4,0,0.5,0.1c0.1,0,0.4,0.1,0.7,0.1
				c0.1,0,0.4,0,0.5-0.1l0.5-0.1l0.3,0.1l0.3,0.3l0.1,0.4l0.1,0.5l0.3,0.5l0.3,0.4l0.5,0.3l0.1-0.5l-0.1-0.5l-0.1-0.5l-0.4-1
				l-0.1-0.4l0.1-0.4l0.4-0.3c0.7-0.3,1.7-1,2-1.5l0.1-0.4l0.1-0.4l0.3-0.5l0.1-0.3l0.1-0.1l0.1-0.1h0.3l0.3-0.1l0.3-0.1l0.1-0.1
				l0.1-0.3v-0.1v-0.3v-0.1h0.1h0.1h0.3h0.3l0.3-0.1l0.4-0.1l0.3-0.3l-0.3-0.1l-0.3-0.1l-0.3-0.1l-0.3-0.1l-0.3-0.1l-0.1-0.1v-0.4
				l0.3-0.1h0.3h0.4l0.5,0.1l0.5,0.1h0.5l0.4-0.1v-0.3c-1.3-0.5-2-1.3-3.2-1.8v-0.2l-0.1,0.1h-0.4h-0.3l-0.2-0.1l-0.3-0.1l-0.3-0.1
				c-0.4-0.3-0.7-0.4-1-0.4h-0.1h-0.1c-0.3,0-0.4,0-0.7-0.3l-0.1,0.4v0.5l0.1,0.1l0.1,0.1h0.3h0.1l0.1,0.1l0.1,0.1h-0.3h-0.3
				l-0.3,0.1l-0.1,0.3v0.5v0.1v0.1l-0.1,0.1H290h-0.3c-1-0.5-0.3-0.7-1.2-1.1c-0.7-0.4-1.8-0.1-2.4-0.7l0.1-0.1l0.1-0.1l0.3-0.1
				l0.3-0.3l0.3-0.1l0.4-0.3l0.4-0.3l0.5-0.1c1.1-0.5,2.4-0.8,3.6-0.8c0.5,0,1.1,0,1.4,0.1c0,0-0.1,0-0.3-0.1
				c10.7,1.2,20,7.1,24.1,17.7C313.6,30.1,302.8,21.7,289.3,21.7 M293.7,24.4L293.7,24.4L293.7,24.4"/>
			<path class="st0" d="M230.7,44.4h-4.6l0.8,0.8c0.4,5.7-1.8,9.6,5.4,9.7c7.5-0.1,5.1-3.9,5.4-9.7l0.7-0.7h-4.7l0.8,0.8v6.2
				l-0.1,0.4l-0.3,0.3c-0.4,0.5-1.3,0.7-1.8,0.7h-0.5l-0.4-0.1l-0.4-0.1l-0.3-0.3l-0.3-0.3l-0.3-0.3l-0.1-0.4v-6.2L230.7,44.4z"/>
		</g>
		<polygon class="st0" points="254.5,44.6 250.7,44.6 251.3,45.3 251.3,50.5 245.7,44.6 242.1,44.6 242.9,45.3 242.9,54.2 242.1,55 
			246.1,55 245.3,54.2 245.3,48.9 251.3,55 253.9,55 253.9,45.3 		"/>
		<polygon class="st0" points="263.5,44.6 258.8,44.6 259.5,45.3 259.5,54.2 258.8,55 263.5,55 262.8,54.2 262.8,45.3 		"/>
		<polygon class="st0" points="279,44.6 274.9,44.6 275.8,45.3 272.8,51 270.2,45.3 271,44.6 266.3,44.6 271.4,55 273.7,55 		"/>
		<polygon class="st0" points="292.2,44.6 281.7,44.6 282.3,45.3 282.3,54.2 281.7,55 292.2,55 292.2,52.1 291.2,52.9 285.6,52.9 
			285.6,50.8 289.3,50.8 290,51.4 290,48.2 289.3,48.8 285.6,48.8 285.6,46.5 291.2,46.5 292.2,47.2 		"/>
		<g>
			<path class="st0" d="M302.9,44.6h-6.8l0.8,0.8v8.9l-0.8,0.8h4.6l-0.8-0.8v-2.9h1.3l2.1,2.9l-0.8,0.8h5.3l-3.1-4.1
				c1.5-0.5,2.5-1.5,2.5-3.2V47l-0.3-0.5l-0.3-0.5l-0.4-0.5l-0.7-0.4l-0.8-0.3l-1-0.1L302.9,44.6z M301.5,49.2c-0.5,0-1.1,0-1.3-0.1
				v-2.6h2.8l0.3,0.1h0.3c0.5,0.3,0.7,0.7,0.7,1.1C304,49.2,302.6,49.2,301.5,49.2"/>
			<path class="st0" d="M321.3,44.2l-1,0.8c-1.2-0.4-2.5-0.8-3.8-0.8c-1.3,0-2.6,0.3-3.7,1c-0.7,0.5-1.2,1.3-1.2,2
				c-0.1,2,1.7,2.9,3.5,3.5l0.5,0.1l0.5,0.1l0.5,0.1l0.5,0.1l0.4,0.1l0.3,0.3l0.3,0.3v0.4c0,0.7-1,0.8-1.4,0.8
				c-1.8-0.1-3.6-0.7-5.1-1.5v3.8l1-1c1.2,0.4,2.9,0.7,4.6,0.7c2.4,0,4.6-0.8,4.7-3.3c0-2.2-2.5-2.9-4.5-3.5c-0.7,0-3.2-1-1.8-1.7
				c0.3-0.1,0.7-0.3,1.1-0.3c1.4,0,3.7,0.7,4.6,1.2v-3.2L321.3,44.2L321.3,44.2z"/>
		</g>
		<path class="st0" d="M332.9,44.6h-3.7l0.4,0.8l-4.9,9.5h4.1l-0.8-0.8l0.7-1.2h5.3l0.5,1.2l-0.8,0.8l4.7,0.1L332.9,44.6z
			 M329.3,51.1l1.8-3.7l1.8,3.7H329.3z"/>
		<polygon class="st0" points="345.8,44.6 341.2,44.6 342,45.3 342,54.2 341.2,55 351.2,55 351.2,52.1 350.6,52.9 345.2,52.9 
			345.2,45.3 		"/>
		<g>
			<path class="st0" d="M350.1,45.3L350.1,45.3h-0.3h-0.3l-0.3,0.1l-0.1,0.3v0.1c0.1-0.1,0.3-0.3,0.5-0.3c0.1,0,0.4,0.1,0.5,0.3
				l0.1-0.3L350.1,45.3z M349.1,45.8c0,0.1-0.1,0.1-0.1,0.3l0.3,0.4l-0.1-0.3L349.1,45.8L349.1,45.8z M350.3,46.4L350.3,46.4
				l-0.3,0.3h-0.1h-0.1h-0.3l-0.3-0.1l0.3,0.1h0.3h0.1h0.1h0.1L350.3,46.4L350.3,46.4z"/>
			<path class="st0" d="M349.8,44.6c-0.8,0-1.5,0.5-1.5,1.3c0,1,0.8,1.4,1.4,1.4c0.8,0,1.4-0.5,1.5-1.4
				C351.2,45.1,350.5,44.6,349.8,44.6 M349.7,47.2c-0.7,0-1.3-0.4-1.3-1.3c0-0.8,0.8-1.2,1.4-1.2s1.3,0.4,1.4,1.2
				C351.1,46.8,350.5,47.2,349.7,47.2"/>
		</g>
	</g>
</g>
<path class="st0" d="M549.2,140H442.7c-5.8,0.1-11.4,1.6-14.6,7c-2.7,4.3-2.6,11.1,0.2,15.3c2.8,4.6,7.6,6.5,12.5,6.6h100.5
	L549.2,140L549.2,140L549.2,140z M541.9,169.6H440.2c-5.5-0.2-10.9-3.1-13.3-8.5c-2.4-4.9-1.9-11.9,1.7-16.1
	c3.5-4.2,8.2-5.7,13.4-5.8h108.2L541.9,169.6L541.9,169.6L541.9,169.6z M451.3,150.2h-16.9l1.9-7c4.1-1.5,8.6-0.6,11.7,2.1
	C450.4,147.5,451.3,150,451.3,150.2L451.3,150.2L451.3,150.2z"/>
<path class="st0" d="M469.3,145.4c0.9,1.9,0,4.3-0.5,6.1l-4.5,0.8c0.2-1.7,1.2-3.4,0.9-5.3c-0.1-0.2-0.3-0.4-0.6-0.5
	c-1.2-0.1-2,1.1-2.6,2c-1.5,3.3-2.7,6.9-3.2,10.6c0,1-0.3,2.5,0.8,2.9c0.6,0.1,1-0.1,1.3-0.5c1-1.3,2-4.4,2-4.4
	c1.6-0.2,3.1-0.5,4.6-0.9c-0.9,3.4-2.2,8.2-6.4,8.9c-2.1,0.2-4.4,0.2-5.9-1.5c-1.8-2.3-1.1-6-0.6-8.6c1.3-4.6,3.7-11,9.4-11.6
	C466.1,143.2,468.3,143.4,469.3,145.4L469.3,145.4L469.3,145.4L469.3,145.4z M501.3,143.6l-1.1,4.6h3l-0.7,2.6h-3
	c0,0-1.2,4.1-1.7,6.1c-0.4,1.5-0.9,3.4-0.9,4.6c0.7,0.7,1.8,0.3,2.7,0.4c-0.1,0.9-0.4,1.7-0.6,2.6c-2.2-0.2-5.2,0.8-6.4-1.5
	c-0.4-0.7-0.1-1.7,0-2.5c0.8-3.2,2.6-9.7,2.6-9.7h-1.5l0.6-2.6h1.5c0.4-1.3,1.1-3.9,1.1-3.9L501.3,143.6L501.3,143.6L501.3,143.6z
	 M527.7,160c0,0.5-0.3,1,0.1,1.5c0.7,0.7,1.7,0.4,2.6,0.4c0,0-0.5,2.6-0.5,2.6s-1.6,0-2.4,0c-1.7,0.1-3.4,0-4.1-1.8
	c-0.5-2.8,0.9-5.4,1.5-8c0.8-3.4,2.7-10.2,2.7-10.2l4.5-0.9L527.7,160L527.7,160z M433.4,144.9c-1,3.2-1.8,6.5-2.7,9.7
	c-0.2,0.9-0.3,1.9,0.4,2.6c0.5,0.5,1.1,0.8,1.8,0.8h18.7c-0.9,3.6-3.9,6.5-7.2,7.8c-3.7,1.4-8.1,0.7-11.1-1.7
	c-3.7-3-5.4-7.4-4.3-12.1C429.5,149.2,431,146.6,433.4,144.9L433.4,144.9L433.4,144.9z M493.1,148.2c0,0-0.7,2.5-0.7,2.5
	c-1.6-0.1-4-0.6-5,1.2c-0.7,2.6,3.1,3.5,3.5,5.9c0.5,2,0,4.2-1.7,5.5c-2.3,2.1-6.2,1.7-9.1,1c0,0,0.7-2.7,0.7-2.7
	c1.7,0.3,4.6,1.1,5.8-0.8c0.8-2.3-2.1-3.2-3.1-5c-1.1-1.5-0.9-3.7,0-5.2C485.8,147.5,489.9,147.1,493.1,148.2L493.1,148.2z"/>
<path class="st0" d="M513,148.1l-1.6,2.6c-1-0.1-2.1-0.1-3,0.2l-3.7,13.6h-4.2l4.2-15.6c2.1-1,4.5-1.4,7.1-1.2L513,148.1
	C513,148.1,513,148.1,513,148.1z M518.1,150.6c-0.4,0.1-0.7,0.4-1.1,0.7c-1.8,3-3.1,7-3.2,9.9c0,0.5,0.3,0.7,0.7,0.8
	c0.7,0,0.9-0.3,1.3-0.7c1.7-2.8,3-6.4,3.1-10C519,150.7,518.5,150.5,518.1,150.6C518.1,150.6,518.1,150.6,518.1,150.6z M522.7,149.8
	c1.3,2.7,0.2,5.8-0.6,8.3c-0.9,2.6-2.7,5.5-5.5,6.4c-1.9,0.5-4.3,0.6-6-0.6c-2.2-2-1.4-5.8-0.6-8.1c1.1-3.4,3.7-7.6,7.6-8
	C519.7,147.6,521.7,147.9,522.7,149.8L522.7,149.8L522.7,149.8L522.7,149.8z M476.2,156.7c-1.3,0.2-2.9,0.6-3.7,2
	c-0.4,0.9-0.6,2.2,0.1,2.9c0.5,0.5,1.4,0.2,2.1,0.2L476.2,156.7C476.2,156.7,476.2,156.7,476.2,156.7z M481,149.1
	c1,1.3,0.7,3.5,0.3,5l-2.7,9.9c-1.1,0.5-2.5,0.6-3.8,0.8c-2.5,0.3-5.3,0.1-6.7-2.2c-0.7-1.7-0.4-3.9,0.6-5.3c2.1-2.6,5.2-3,8.3-3.5
	c0.2-0.8,0.6-1.8,0.2-2.6c-0.9-1.2-2.7-0.6-4-0.5c-0.7,0.1-1.3,0.4-2,0.6c0,0,0.6-2.8,0.6-2.8C474.5,147.5,478.7,146.8,481,149.1
	C481,149.1,481,149.1,481,149.1z M437.9,153.6c0.2,0,0.3-0.1,0.3-0.3l0,0c0-0.2-0.1-0.3-0.3-0.3h-0.8c-0.2,0-0.3,0.1-0.3,0.3l0,0
	c0,0.2,0.1,0.3,0.3,0.3H437.9z M437.4,155.3c0.2,0,0.3-0.1,0.3-0.3l0,0c0-0.2-0.1-0.3-0.3-0.3h-0.8c-0.2,0-0.3,0.1-0.3,0.3l0,0
	c0,0.2,0.1,0.3,0.3,0.3H437.4L437.4,155.3z M436.4,154.4c0.1,0,0.2-0.1,0.2-0.2v0c0-0.1-0.1-0.2-0.2-0.2h-0.5
	c-0.1,0-0.2,0.1-0.2,0.2v0c0,0.1,0.1,0.2,0.2,0.2H436.4z M436.9,152.7c0.1,0,0.2-0.1,0.2-0.2l0,0c0-0.1-0.1-0.2-0.2-0.2h-0.5
	c-0.1,0-0.2,0.1-0.2,0.2l0,0c0,0.1,0.1,0.2,0.2,0.2H436.9z M435.9,156.1c0.1,0,0.2-0.1,0.2-0.2l0,0c0-0.1-0.1-0.2-0.2-0.2h-0.5
	c-0.1,0-0.2,0.1-0.2,0.2v0c0,0.1,0.1,0.2,0.2,0.2C435.4,156.1,435.9,156.1,435.9,156.1z M435.4,153.5c0.1,0,0.2-0.1,0.2-0.2l0,0
	c0-0.1-0.1-0.2-0.2-0.2h-0.5c-0.1,0-0.2,0.1-0.2,0.2v0c0,0.1,0.1,0.2,0.2,0.2C434.9,153.5,435.4,153.5,435.4,153.5z M434.9,155.2
	c0.1,0,0.2-0.1,0.2-0.2l0,0c0-0.1-0.1-0.2-0.2-0.2h-0.5c-0.1,0-0.2,0.1-0.2,0.2v0c0,0.1,0.1,0.2,0.2,0.2H434.9z M434,154.3
	c0.1,0,0.2-0.1,0.2-0.2v0c0-0.1-0.1-0.2-0.2-0.2h-0.5c-0.1,0-0.2,0.1-0.2,0.2v0c0,0.1,0.1,0.2,0.2,0.2H434z M434.5,152.7
	c0.1,0,0.2-0.1,0.2-0.2l0,0c0-0.1-0.1-0.2-0.2-0.2h-0.5c-0.1,0-0.2,0.1-0.2,0.2v0c0,0.1,0.1,0.2,0.2,0.2
	C434,152.7,434.5,152.7,434.5,152.7z M433.6,156.1c0.1,0,0.2-0.1,0.2-0.2l0,0c0-0.1-0.1-0.2-0.2-0.2h-0.5c-0.1,0-0.2,0.1-0.2,0.2
	l0,0c0,0.1,0.1,0.2,0.2,0.2H433.6z M439.3,153.7h-0.7c-0.3,0-0.5,0.2-0.5,0.4l0,0c0,0.2,0.2,0.4,0.4,0.4h0.5L439.3,153.7
	C439.3,153.7,439.3,153.7,439.3,153.7z M438.7,155.4h-0.7c-0.3,0-0.5,0.2-0.5,0.4l0,0c0,0.2,0.2,0.4,0.4,0.4h0.5L438.7,155.4
	L438.7,155.4L438.7,155.4z M439.8,152h-0.7c-0.3,0-0.5,0.2-0.5,0.4l0,0c0,0.2,0.2,0.4,0.4,0.4h0.5L439.8,152L439.8,152z
	 M445.4,152.3c-0.1,0-0.2,0.1-0.2,0.2v0c0,0.1,0.1,0.2,0.2,0.2h0.5c0.1,0,0.2-0.1,0.2-0.2l0,0c0-0.1-0.1-0.2-0.2-0.2H445.4z
	 M444.5,155.6c-0.1,0-0.2,0.1-0.2,0.2v0c0,0.1,0.1,0.2,0.2,0.2h0.5c0.1,0,0.2-0.1,0.2-0.2l0,0c0-0.1-0.1-0.2-0.2-0.2H444.5z
	 M444.9,153.9c-0.1,0-0.2,0.1-0.2,0.2l0,0c0,0.1,0.1,0.2,0.2,0.2h0.5c0.1,0,0.2-0.1,0.2-0.2l0,0c0-0.1-0.1-0.2-0.2-0.2H444.9z
	 M443.8,153.1c-0.1,0-0.2,0.1-0.2,0.2v0c0,0.1,0.1,0.2,0.2,0.2h0.5c0.1,0,0.2-0.1,0.2-0.2l0,0c0-0.1-0.1-0.2-0.2-0.2H443.8z
	 M443.4,154.8c-0.1,0-0.2,0.1-0.2,0.2v0c0,0.1,0.1,0.2,0.2,0.2h0.5c0.1,0,0.2-0.1,0.2-0.2l0,0c0-0.1-0.1-0.2-0.2-0.2H443.4
	L443.4,154.8z M442.8,152.3c-0.1,0-0.2,0.1-0.2,0.2v0c0,0.1,0.1,0.2,0.2,0.2h0.5c0.1,0,0.2-0.1,0.2-0.2v0c0-0.1-0.1-0.2-0.2-0.2
	H442.8z M441.8,155.6c-0.1,0-0.2,0.1-0.2,0.2l0,0c0,0.1,0.1,0.2,0.2,0.2h0.5c0.1,0,0.2-0.1,0.2-0.2l0,0c0-0.1-0.1-0.2-0.2-0.2H441.8
	z M442.3,153.9c-0.1,0-0.2,0.1-0.2,0.2l0,0c0,0.1,0.1,0.2,0.2,0.2h0.5c0.1,0,0.2-0.1,0.2-0.2l0,0c0-0.1-0.1-0.2-0.2-0.2H442.3z
	 M441.1,153c-0.1,0-0.3,0.1-0.3,0.2l0,0c0,0.1,0.1,0.2,0.2,0.2h0.7c0.1,0,0.3-0.1,0.3-0.2l0,0c0-0.1-0.1-0.2-0.2-0.2H441.1z
	 M440.5,154.7c-0.1,0-0.3,0.1-0.3,0.2l0,0c0,0.1,0.1,0.2,0.2,0.2h0.7c0.1,0,0.3-0.1,0.3-0.2l0,0c0-0.1-0.1-0.2-0.2-0.2H440.5z
	 M439,154.6h0.8c0.3,0,0.5-0.2,0.5-0.4l0,0c0-0.2-0.2-0.4-0.4-0.4h-0.6l0.2-0.8h0.8c0.3,0,0.5-0.2,0.5-0.4l0,0
	c0-0.2-0.2-0.4-0.4-0.4l11.5,0c0.5,2.4,0.1,4.3,0.1,4.3h-12.7c0.3,0,0.5-0.2,0.5-0.4l0,0c0-0.2-0.2-0.4-0.4-0.4h-0.6L439,154.6
	L439,154.6L439,154.6z"/>
<g>
	<path class="st0" d="M254.2,267h3.2c1.2,0,1.7,0.4,1.7,1.5c0,1-0.5,1.4-1.7,1.4h-3.2V267 M249.3,277.5h4.9v-4.3h5.2
		c3.5,0,4.7-2,4.7-4.7c0-3.1-1.3-4.8-4.8-4.8h-10.1L249.3,277.5L249.3,277.5z"/>
	<polyline class="st0" points="265.8,263.7 279,263.7 279,267.1 270.7,267.1 270.7,268.9 278.4,268.9 278.4,272.3 270.7,272.3 
		270.7,274.1 279,274.1 279,277.5 265.8,277.5 265.8,263.7 	"/>
	<path class="st0" d="M285.9,267h3.2c1.2,0,1.7,0.4,1.7,1.5c0,1-0.5,1.4-1.7,1.4h-3.2V267 M281,277.5h4.9v-4.3h5.2
		c3.5,0,4.7-2,4.7-4.7c0-3.1-1.3-4.8-4.8-4.8H281L281,277.5L281,277.5z"/>
	<path class="st0" d="M300.6,271.7c-2.4-0.4-3.4-1.9-3.4-3.9c0-3.6,3.1-4.5,7.2-4.5c5.5,0,7.8,1.6,8,4.5h-5.7c0-0.6-0.3-0.9-0.7-1.1
		c-0.4-0.2-1-0.3-1.5-0.3c-1.5,0-2,0.4-2,1c0,0.4,0.2,0.6,0.6,0.7l5.8,1c2.5,0.4,4,1.7,4,4c0,3.4-2.5,4.9-8,4.9
		c-3.8,0-7.9-0.6-7.9-4.6h5.9c0,0.5,0.2,0.8,0.5,1c0.4,0.2,0.9,0.3,1.7,0.3c1.5,0,1.9-0.5,1.9-1.1c0-0.4-0.2-0.8-0.9-0.9
		L300.6,271.7"/>
	<rect x="314.5" y="263.7" class="st0" width="4.9" height="13.8"/>
	<path class="st0" d="M337.5,272.1c-0.3,1.8-0.9,3.3-2.1,4.3c-1.2,1-3.1,1.6-6.1,1.6c-3,0-8.5-0.2-8.5-7.4s5.5-7.4,8.5-7.4
		c2.9,0,7.5,0.4,8.1,5.9H332c-0.1-1-0.7-2.4-2.6-2.4c-2,0-3.3,1.1-3.3,3.9c0,2.8,1.2,3.9,3,3.9c1.5,0,2.5-0.7,2.9-2.4L337.5,272.1"
		/>
	<path class="st0" d="M343.9,270.6c0-2.8,1.3-3.9,3.3-3.9c2,0,3.3,1.1,3.3,3.9c0,2.8-1.3,3.9-3.3,3.9
		C345.1,274.5,343.9,273.4,343.9,270.6 M338.7,270.6c0,7.1,5.5,7.4,8.5,7.4c3,0,8.5-0.2,8.5-7.4c0-7.1-5.5-7.4-8.5-7.4
		C344.2,263.3,338.7,263.5,338.7,270.6z"/>
	<path class="st0" d="M242,263.9c0.3-6.6-5.4-14-13.1-15l0-0.1c7.7,0,13.5,7.1,13.5,12.7c0,1.2-0.1,1.9-0.3,2.4L242,263.9
		 M241.5,264.7c-0.5,0.6-1.1,1.2-1.9,1.8c-1.4-7.9-7.2-14.9-11.3-16.9l-0.1,0.1c4.1,3.4,9.1,10,11,17.1c-0.9,0.7-2,1.3-3.2,1.8
		c-3.9-4.5-7.6-13.1-8.7-18.5l-0.1,0c0,5.3,3.8,14.3,8.4,18.7c-1,0.4-2.1,0.7-3.3,0.9c-4.4-1.7-7.5-7.3-7.5-13c0-3.7,1.1-6,1.4-6.5
		l-0.1,0c-0.3,0.4-1.9,2.7-1.9,6.7c0,6.5,3.2,11.4,7.4,13c-1.4,0.2-3,0.1-4.5-0.2l0,0.1c0.5,0.2,2,0.8,4.3,0.8
		c5.3,0,8.9-3.3,10.3-5.8L241.5,264.7z"/>
	<path class="st0" d="M230.7,246.5c-4,0-8.7,2.9-8.7,5.5c0,1,0.9,1.9,2.9,1.9c4.5,0,8.7-3.1,8.7-5.5
		C233.6,247.2,232.4,246.5,230.7,246.5 M232.3,248.4c0,2-3.9,4.5-7.2,4.5c-1.4,0-2.2-0.6-2.2-1.5c0-2.1,3.9-4.5,7-4.5
		C232,246.9,232.3,247.9,232.3,248.4z"/>
	<g>
		<path class="st0" d="M220.4,253.3c-0.1,0.2-0.6,1.1-0.6,2c0,1.7,1.7,3.2,4.8,3.2c6,0,13-4.4,13-8.5c0-1.8-1.7-2.8-3-3.1l0,0.1
			c0.4,0.1,1.8,0.8,1.8,2.4c0,3.3-6.1,7.7-12.3,7.7c-2.3,0-3.8-1.2-3.8-2.8C220.3,253.8,220.5,253.4,220.4,253.3L220.4,253.3"/>
		<path class="st0" d="M240.1,250.3c0.2,0.1,1.2,1,1.2,2.5c0,5.3-8.3,10.6-15.7,10.6c-4.4,0-6.4-2.2-6.3-4.1h0.1
			c0.2,1,1.6,2.8,5.5,2.8c7.4,0,15.6-5.4,15.6-10.2C240.4,251.1,240.2,250.6,240.1,250.3L240.1,250.3"/>
	</g>
	<path class="st0" d="M242.9,255.2c0,0.1,0.2,0.6,0.2,1.4c0,5.9-8.4,11-15.8,11c-3.8,0-5.8-1.8-6.2-2.6l0.1-0.1
		c1,0.9,3.1,1.6,5.5,1.6C233.2,266.6,242.9,261.7,242.9,255.2L242.9,255.2"/>
</g>
<g>
	<g>
		<g>
			<path class="st0" d="M48.7,249.1V260h11.5v-10.9h6.2v28.4h-6.2v-12.2H48.7v12.2h-6.2v-28.4H48.7z"/>
			<path class="st0" d="M83.1,277.4v-2.9h-0.1c-0.7,1.2-1.6,2.1-2.8,2.6c-1.1,0.5-2.3,0.8-3.5,0.8c-1.5,0-2.7-0.2-3.7-0.6
				c-1-0.4-1.7-1-2.3-1.7c-0.6-0.7-0.9-1.6-1.2-2.7c-0.2-1-0.3-2.2-0.3-3.5v-12.6h5.6v11.6c0,1.7,0.3,3,0.8,3.8
				c0.5,0.8,1.5,1.3,2.8,1.3c1.5,0,2.6-0.5,3.3-1.4c0.7-0.9,1-2.4,1-4.5v-10.8h5.6v20.5H83.1z"/>
			<path class="st0" d="M96.9,272.5c0.8,0.8,2.1,1.2,3.7,1.2c1.1,0,2.1-0.3,2.9-0.9c0.8-0.6,1.3-1.2,1.5-1.8h5
				c-0.8,2.5-2,4.2-3.7,5.3c-1.6,1.1-3.6,1.6-6,1.6c-1.6,0-3.1-0.3-4.4-0.8c-1.3-0.5-2.4-1.3-3.3-2.2c-0.9-1-1.6-2.1-2.1-3.4
				c-0.5-1.3-0.7-2.8-0.7-4.4c0-1.5,0.3-3,0.8-4.3c0.5-1.3,1.2-2.5,2.1-3.4c0.9-1,2-1.7,3.3-2.3c1.3-0.6,2.7-0.8,4.3-0.8
				c1.7,0,3.3,0.3,4.6,1c1.3,0.7,2.4,1.6,3.2,2.7c0.8,1.1,1.4,2.4,1.8,3.9c0.4,1.5,0.5,3,0.4,4.6H95.5
				C95.6,270.4,96.1,271.7,96.9,272.5z M103.3,261.7c-0.7-0.7-1.7-1.1-3.1-1.1c-0.9,0-1.6,0.2-2.2,0.5c-0.6,0.3-1.1,0.7-1.4,1.1
				c-0.4,0.4-0.6,0.9-0.8,1.4c-0.1,0.5-0.2,1-0.3,1.3h9.2C104.4,263.5,104,262.4,103.3,261.7z"/>
			<path class="st0" d="M117.6,249.1v28.4H112v-28.4H117.6z"/>
		</g>
		<g>
			<path class="st0" d="M121.5,250.2v-1.1h5v1.1h-1.8v5h-1.3v-5H121.5z"/>
			<path class="st0" d="M128.7,249.1l1.4,4.2h0l1.4-4.2h1.9v6.1h-1.3v-4.3h0l-1.5,4.3h-1l-1.5-4.3h0v4.3h-1.3v-6.1H128.7z"/>
		</g>
	</g>
</g>
<g>
	<path class="st0" d="M462.4,250.7v3.6c0,0.8-0.7,1.5-1.5,1.5c-0.2,0-0.5-0.1-0.7-0.2c-2.9-1.4-5.8-2.2-8.6-2.2
		c-5.5,0-9.7,4.1-9.7,9.7c0,5.6,4.2,9.6,10.3,9.6c1.9,0,3.6-0.4,5.1-0.9v-5.8h-4.8c-0.8,0-1.5-0.7-1.5-1.5v-3.9h10.6
		c0.8,0,1.5,0.7,1.5,1.5v13.4l-0.5,0.2c-3.8,1.7-6.9,2.3-10.9,2.3c-9,0-15.6-6.3-15.6-14.9c0-8.7,6.8-15.2,15.7-15.2
		c3.4,0,5.8,0.6,10.2,2.4L462.4,250.7z"/>
	<path class="st0" d="M479.7,248.3h-2.8c-0.6,0-1.2,0.4-1.4,0.9l-10.3,25.5c-0.3,0.8,0,1.6,0.8,2l4.4,1.4l2.8-7.7h9.4l2.8,7.7
		l4.4-1.4c0.8-0.3,1.1-1.2,0.8-2L479.7,248.3z M475,265.1l2.8-7.7l2.8,7.7H475z"/>
	<path class="st0" d="M522.4,249.7c0-0.8,0.7-1.5,1.5-1.5h16.9h0.9v3.9c0,0.8-0.7,1.5-1.5,1.5h-11.9v6.6h13.1v3.9
		c0,0.8-0.7,1.5-1.5,1.5h-11.5v6.9h13.8v3.9c0,0.8-0.7,1.5-1.5,1.5H524c-0.8,0-1.5-0.7-1.5-1.6V249.7z"/>
	<path class="st0" d="M497.8,248.3H494c-0.8,0-1.5,0.7-1.5,1.5v25.3c0,0.6,0.3,1.1,0.9,1.4l4.8,1.6v-17.7c1,1.7,4.8,7.9,5.7,9.1
		c0.3,0.5,1,0.9,1.6,0.9h1.2c0.6,0,1.3-0.4,1.6-0.9c0.8-1.3,4.7-7.4,5.7-9.1v17.7l4.9-1.6c0.6-0.2,0.9-0.8,0.9-1.4v-26.8h-4.4
		c-0.4,0-0.9,0.2-1.1,0.5c-0.3,0.5-0.3,0.5-8,12.9L497.8,248.3z"/>
</g>
</svg>
