<?xml version="1.0" encoding="utf-8"?>
<!-- Generator: Adobe Illustrator 19.0.0, SVG Export Plug-In . SVG Version: 6.00 Build 0)  -->
<svg version="1.1" id="Layer_1" xmlns="http://www.w3.org/2000/svg" xmlns:xlink="http://www.w3.org/1999/xlink" x="0px" y="0px"
	 viewBox="-140 307 213.6 100" style="enable-background:new -140 307 213.6 100;" xml:space="preserve">
<style type="text/css">
	.st0{clip-path:url(#SVGID_2_);}
	.st1{clip-path:url(#SVGID_4_);}
	.st2{clip-path:url(#SVGID_6_);}
	.st3{clip-path:url(#SVGID_8_);}
	.st4{clip-path:url(#SVGID_10_);}
	.st5{clip-path:url(#SVGID_12_);}
	.st6{clip-path:url(#SVGID_14_);}
	.st7{clip-path:url(#SVGID_16_);}
	.st8{clip-path:url(#SVGID_18_);}
	.st9{clip-path:url(#SVGID_20_);}
</style>
<g>
	<g>
		<defs>
			<path id="SVGID_1_" d="M-101.6,345.6h27v-8.4h-27V345.6z M-103.5,347.5h30.8v-12.2h-30.8V347.5z"/>
		</defs>
		<clipPath id="SVGID_2_">
			<use xlink:href="#SVGID_1_"  style="overflow:visible;"/>
		</clipPath>
		<g class="st0">
			<defs>
				<rect id="SVGID_3_" x="-103.5" y="334.1" width="141" height="46"/>
			</defs>
			<clipPath id="SVGID_4_">
				<use xlink:href="#SVGID_3_"  style="overflow:visible;"/>
			</clipPath>
			<rect x="-108.5" y="330.3" class="st1" width="40.8" height="22.2"/>
		</g>
	</g>
	<g>
		<defs>
			<path id="SVGID_5_" d="M-101.6,376.4h27V368h-27V376.4z M-103.5,378.3h30.8v-12.2h-30.8V378.3z"/>
		</defs>
		<clipPath id="SVGID_6_">
			<use xlink:href="#SVGID_5_"  style="overflow:visible;"/>
		</clipPath>
		<g class="st2">
			<defs>
				<rect id="SVGID_7_" x="-103.5" y="334.1" width="141" height="46"/>
			</defs>
			<clipPath id="SVGID_8_">
				<use xlink:href="#SVGID_7_"  style="overflow:visible;"/>
			</clipPath>
			<rect x="-108.5" y="361.1" class="st3" width="40.8" height="22.2"/>
		</g>
	</g>
	<g>
		<defs>
			<path id="SVGID_9_" d="M-50.5,338.9l15.9,37.5h-31.8L-50.5,338.9z M-50.5,334.1l-18.8,44.2h37.6L-50.5,334.1z"/>
		</defs>
		<clipPath id="SVGID_10_">
			<use xlink:href="#SVGID_9_"  style="overflow:visible;"/>
		</clipPath>
		<g class="st4">
			<defs>
				<rect id="SVGID_11_" x="-103.5" y="334.1" width="141" height="46"/>
			</defs>
			<clipPath id="SVGID_12_">
				<use xlink:href="#SVGID_11_"  style="overflow:visible;"/>
			</clipPath>
			<rect x="-74.3" y="329.1" class="st5" width="47.6" height="54.2"/>
		</g>
	</g>
	<g>
		<defs>
			<path id="SVGID_13_" d="M-15.9,335.3c-10.1,0-18.3,8.3-18.3,18.5c0,10.2,8.2,18.5,18.3,18.5c10.1,0,18.3-8.3,18.3-18.5
				C2.4,343.6-5.8,335.3-15.9,335.3 M-15.9,370.5c-9,0-16.4-7.5-16.4-16.6c0-9.2,7.4-16.6,16.4-16.6s16.4,7.5,16.4,16.6
				C0.6,363-6.8,370.5-15.9,370.5"/>
		</defs>
		<clipPath id="SVGID_14_">
			<use xlink:href="#SVGID_13_"  style="overflow:visible;"/>
		</clipPath>
		<g class="st6">
			<defs>
				<rect id="SVGID_15_" x="-103.5" y="334.1" width="141" height="46"/>
			</defs>
			<clipPath id="SVGID_16_">
				<use xlink:href="#SVGID_15_"  style="overflow:visible;"/>
			</clipPath>
			<rect x="-39.1" y="330.3" class="st7" width="46.6" height="47.1"/>
		</g>
	</g>
	<g>
		<defs>
			<path id="SVGID_17_" d="M3.5,337.2h31.7v37.5L3.5,337.2z M-0.5,335.3l37.7,44.6v-44.6H-0.5z"/>
		</defs>
		<clipPath id="SVGID_18_">
			<use xlink:href="#SVGID_17_"  style="overflow:visible;"/>
		</clipPath>
		<g class="st8">
			<defs>
				<rect id="SVGID_19_" x="-103.5" y="334.1" width="141" height="46"/>
			</defs>
			<clipPath id="SVGID_20_">
				<use xlink:href="#SVGID_19_"  style="overflow:visible;"/>
			</clipPath>
			<rect x="-5.5" y="330.3" class="st9" width="47.7" height="54.6"/>
		</g>
	</g>
</g>
</svg>
