<svg style="position: absolute; width: 0; height: 0; overflow: hidden;" version="1.1" xmlns="http://www.w3.org/2000/svg" xmlns:xlink="http://www.w3.org/1999/xlink">
<defs>
<symbol id="icon-diageo" viewBox="0 0 149 32">
<title>diageo</title>
<path d="M46.261 19.843c0.088-0.194 0.253-0.515 0.314-0.676l3.9-9.471 3.826 9.563c0.061 0.165 0.196 0.418 0.282 0.644l-0.473 0.095c-1.088 0.291-2.294 0.482-3.546 0.482-1.233 0-2.38-0.163-3.601-0.482-0.227-0.063-0.535-0.156-0.701-0.156zM6.7 5.407c4.331 0 7.382 0.895 9.304 2.594 2.294 2.015 3.441 4.674 3.441 7.996 0 3.171-1.118 5.794-3.306 7.846-1.921 1.82-5.049 2.784-9.439 2.784h-1.416v-21.22h1.416zM140.602 8.129c2.172 2.112 3.214 4.765 3.214 7.867 0 3.075-1.073 5.696-3.214 7.876-2.132 2.142-4.72 3.234-7.744 3.234-6.088 0-10.943-5.027-10.943-11.11 0-3.069 1.088-5.726 3.228-7.901 2.105-2.144 4.727-3.2 7.715-3.2 2.993 0 5.585 1.088 7.744 3.234zM89.247 9.986l3.857-3.329c-3.321-4.45-7.761-6.657-12.985-6.657-8.889 0-16.067 7.139-16.067 16.062 0 8.735 7.147 15.938 15.845 15.938 2.205 0 4.306-0.479 6.341-1.411 1.985-0.896 3.71-2.142 5.108-3.772 1.343-1.506 2.206-3.231 2.711-5.124 0.417-1.565 0.674-3.487 0.537-5.789l-0.057-0.927h-13.91v4.896h8.548c-0.221 1.918-1.204 3.586-2.936 4.961-1.873 1.533-4.019 2.272-6.404 2.272-2.765 0-5.253-1.151-7.561-3.428-2.069-2.112-3.111-4.638-3.111-7.583 0-3.107 1.073-5.789 3.306-8.032 2.113-2.142 4.657-3.168 7.593-3.168 3.767 0 6.73 1.728 9.186 5.090zM56.566 24.739l2.826 6.782h5.615l-13.164-31.105h-2.559l-13.509 31.105h5.571l2.963-6.913c0.076-0.19 0.105-0.321 0.137-0.448 0.131 0.063 0.307 0.127 0.535 0.222 1.667 0.642 3.647 0.993 5.581 0.993 1.921 0 3.798-0.38 4.916-0.767 0.566-0.19 0.758-0.289 0.924-0.384 0.029 0.129 0.133 0.418 0.164 0.515zM6.534 31.521c5.674 0 10.038-1.282 12.968-3.935 3.353-3.008 5.049-6.851 5.049-11.553 0-4.894-1.728-8.833-5.166-11.777-2.904-2.492-7.208-3.745-12.789-3.745h-6.595v31.009h6.534zM28.692 31.521h5.074v-31.009h-5.074v31.009zM102.974 17.055h10.81v-4.86h-10.81v-6.788h11.779v-4.896h-16.842v31.009h16.874v-4.894h-11.81v-9.572zM121.544 4.706c-3.157 3.105-4.718 6.913-4.718 11.327 0 8.925 7.176 15.967 16.032 15.967 8.889 0 16.040-7.006 16.040-15.967 0-4.385-1.599-8.13-4.693-11.298-3.125-3.168-6.907-4.735-11.347-4.735-4.405 0-8.187 1.567-11.314 4.706z"></path>
</symbol>
<symbol id="icon-ee" viewBox="0 0 32 32">
<title>ee</title>
<path d="M14.58 17.764c0.182 0 0.344 0.094 0.438 0.236 0.092-0.142 0.254-0.236 0.438-0.236 0.21 0 0.392 0.124 0.474 0.302 0.084-0.178 0.262-0.302 0.474-0.302s0.392 0.124 0.474 0.3c0.084-0.178 0.266-0.3 0.474-0.3 0.29 0 0.522 0.234 0.522 0.522s-0.234 0.522-0.522 0.522c-0.21 0-0.392-0.124-0.474-0.302-0.082 0.178-0.264 0.302-0.474 0.302s-0.392-0.124-0.474-0.302c-0.084 0.178-0.264 0.302-0.474 0.302-0.182 0-0.344-0.094-0.438-0.236-0.038 0.056-0.084 0.106-0.14 0.144 0.136 0.094 0.226 0.252 0.226 0.428s-0.090 0.332-0.224 0.426c0.136 0.094 0.224 0.25 0.224 0.426s-0.090 0.332-0.224 0.426c0.042 0.028 0.078 0.064 0.11 0.104 0.096-0.12 0.244-0.196 0.41-0.196 0.192 0 0.358 0.104 0.45 0.258 0.090-0.154 0.258-0.258 0.45-0.258 0.19 0 0.356 0.1 0.446 0.252 0.092-0.15 0.258-0.252 0.446-0.252 0.288 0 0.522 0.234 0.522 0.522s-0.234 0.522-0.522 0.522c-0.19 0-0.356-0.1-0.446-0.252-0.092 0.15-0.258 0.252-0.446 0.252-0.192 0-0.36-0.104-0.45-0.256-0.090 0.152-0.258 0.256-0.45 0.256-0.166 0-0.314-0.078-0.41-0.196-0.032 0.040-0.070 0.076-0.112 0.106 0.136 0.094 0.226 0.252 0.226 0.428s-0.090 0.336-0.226 0.428c0.136 0.094 0.226 0.252 0.226 0.428s-0.090 0.336-0.226 0.428c0.054 0.040 0.102 0.086 0.14 0.144 0.092-0.144 0.256-0.236 0.438-0.236 0.21 0 0.392 0.124 0.474 0.302 0.084-0.178 0.264-0.302 0.474-0.302s0.392 0.124 0.474 0.3c0.084-0.178 0.266-0.3 0.474-0.3 0.29 0 0.522 0.234 0.522 0.522s-0.234 0.522-0.522 0.522c-0.21 0-0.392-0.124-0.474-0.3-0.082 0.178-0.264 0.3-0.474 0.3s-0.392-0.124-0.474-0.302c-0.084 0.178-0.264 0.302-0.474 0.302-0.182 0-0.342-0.092-0.436-0.234-0.092 0.144-0.256 0.236-0.44 0.236-0.288 0-0.522-0.234-0.522-0.522 0-0.178 0.090-0.336 0.226-0.428-0.138-0.094-0.226-0.252-0.226-0.428s0.090-0.336 0.226-0.428c-0.136-0.094-0.226-0.252-0.226-0.428s0.090-0.334 0.226-0.428c-0.138-0.094-0.226-0.252-0.226-0.428s0.090-0.334 0.224-0.428c-0.136-0.094-0.224-0.25-0.224-0.426s0.090-0.332 0.224-0.426c-0.136-0.094-0.224-0.25-0.224-0.426s0.090-0.336 0.226-0.428c-0.136-0.094-0.226-0.252-0.226-0.428 0-0.288 0.234-0.522 0.522-0.522zM14.58 8.054c0.182 0 0.344 0.094 0.438 0.236 0.092-0.142 0.254-0.236 0.438-0.236 0.21 0 0.392 0.124 0.474 0.302 0.084-0.178 0.262-0.302 0.474-0.302s0.392 0.122 0.474 0.302c0.084-0.178 0.266-0.302 0.474-0.302 0.29 0 0.522 0.234 0.522 0.522s-0.234 0.522-0.522 0.522c-0.21 0-0.392-0.122-0.474-0.302-0.082 0.178-0.264 0.302-0.474 0.302s-0.392-0.124-0.474-0.302c-0.084 0.178-0.264 0.302-0.474 0.302-0.182 0-0.344-0.094-0.438-0.236-0.038 0.058-0.086 0.106-0.14 0.144 0.136 0.094 0.226 0.25 0.226 0.43s-0.088 0.334-0.224 0.428c0.134 0.094 0.224 0.25 0.224 0.428s-0.088 0.334-0.224 0.428c0.042 0.028 0.078 0.064 0.108 0.102 0.096-0.12 0.244-0.196 0.41-0.196 0.192 0 0.358 0.102 0.45 0.256 0.090-0.154 0.258-0.256 0.45-0.256 0.19 0 0.356 0.1 0.446 0.25 0.092-0.15 0.258-0.25 0.446-0.25 0.288 0 0.522 0.234 0.522 0.522s-0.234 0.522-0.522 0.522c-0.19 0-0.356-0.1-0.446-0.25-0.092 0.15-0.258 0.25-0.446 0.25-0.192 0-0.36-0.102-0.45-0.256-0.090 0.154-0.258 0.256-0.45 0.256-0.166 0-0.314-0.076-0.41-0.196-0.032 0.040-0.070 0.074-0.112 0.104 0.138 0.094 0.226 0.25 0.226 0.43s-0.090 0.336-0.226 0.43c0.136 0.094 0.226 0.25 0.226 0.43s-0.090 0.336-0.226 0.43c0.054 0.038 0.102 0.086 0.14 0.142 0.092-0.144 0.256-0.238 0.438-0.238 0.21 0 0.392 0.124 0.474 0.302 0.084-0.178 0.264-0.302 0.474-0.302s0.392 0.122 0.474 0.302c0.084-0.178 0.266-0.302 0.474-0.302 0.29 0 0.522 0.234 0.522 0.522s-0.234 0.522-0.522 0.522c-0.21 0-0.392-0.122-0.474-0.302-0.082 0.178-0.264 0.302-0.474 0.302s-0.392-0.122-0.474-0.302c-0.084 0.18-0.264 0.302-0.474 0.302-0.182 0-0.342-0.092-0.436-0.234-0.092 0.144-0.256 0.238-0.44 0.238-0.288 0-0.522-0.234-0.522-0.522 0-0.178 0.090-0.336 0.226-0.43-0.138-0.094-0.226-0.25-0.226-0.43s0.090-0.336 0.226-0.43c-0.138-0.094-0.226-0.252-0.226-0.43s0.090-0.336 0.226-0.43c-0.138-0.094-0.226-0.25-0.226-0.43s0.088-0.334 0.224-0.428c-0.134-0.094-0.224-0.25-0.224-0.428s0.088-0.334 0.224-0.428c-0.134-0.094-0.224-0.25-0.224-0.428s0.090-0.336 0.226-0.43c-0.138-0.094-0.226-0.252-0.226-0.43 0-0.288 0.234-0.522 0.522-0.522zM16.010 4.752c-3.622 0-6.428 2.934-6.428 6.366 0 3.042 1.99 4.678 1.99 4.678 0.196 0.174 0.148 0.264 0.006 0.404 0 0-1.996 1.812-1.996 4.614 0 3.842 3.080 6.434 6.428 6.434 3.742 0 6.406-3.036 6.406-6.388 0-2.886-1.918-4.59-1.918-4.59-0.272-0.26-0.27-0.304 0-0.54 0 0 1.918-1.606 1.918-4.612 0-3.394-2.734-6.366-6.406-6.366z"></path>
</symbol>
<symbol id="icon-huel" viewBox="0 0 96 32">
<title>huel</title>
<path d="M6.905 0.104v12.021h12.711v-12.021h6.906v31.325h-6.906v-13.513h-12.711v13.513h-6.905v-31.325h6.905zM45.29 31.43v-3.159h-0.132c-0.792 1.316-1.819 2.267-3.079 2.852-1.261 0.585-2.551 0.878-3.871 0.878-1.671 0-3.043-0.219-4.112-0.658-1.071-0.439-1.913-1.060-2.529-1.865s-1.049-1.784-1.297-2.94c-0.249-1.155-0.374-2.435-0.374-3.839v-13.952h6.246v12.811c0 1.872 0.293 3.268 0.88 4.19s1.627 1.382 3.123 1.382c1.7 0 2.932-0.504 3.695-1.513 0.762-1.009 1.143-2.669 1.143-4.98v-11.89h6.246v22.683h-5.938zM67.685 14.056c-0.748-0.819-1.884-1.229-3.408-1.229-0.998 0-1.826 0.169-2.486 0.505s-1.187 0.753-1.583 1.25c-0.396 0.498-0.675 1.024-0.836 1.58s-0.257 1.053-0.286 1.492h10.16c-0.293-1.579-0.814-2.779-1.561-3.598zM60.626 25.989c0.938 0.907 2.287 1.36 4.047 1.36 1.26 0 2.346-0.314 3.255-0.943 0.908-0.628 1.466-1.294 1.671-1.996h5.498c-0.88 2.72-2.228 4.666-4.046 5.835-1.819 1.17-4.018 1.755-6.598 1.755-1.789 0-3.402-0.285-4.838-0.856s-2.654-1.382-3.651-2.435c-0.997-1.053-1.767-2.31-2.309-3.773-0.543-1.462-0.814-3.071-0.814-4.826 0-1.696 0.278-3.276 0.836-4.738s1.349-2.727 2.375-3.795c1.026-1.067 2.25-1.909 3.672-2.523s2.998-0.921 4.729-0.921c1.935 0 3.621 0.373 5.058 1.119s2.617 1.748 3.541 3.005c0.924 1.258 1.59 2.691 2.001 4.3s0.557 3.291 0.44 5.046h-16.406c0.088 2.018 0.601 3.481 1.54 4.387zM77.326 31.43h6.246v-31.325h-6.246v31.325z"></path>
<path d="M93.386 2.706c-0.016-0.569-0.331-0.787-0.699-0.904-0.345-0.109-0.772-0.095-0.772-0.095h-1.462v3.818h0.95v-1.466h0.187c0.19 0.020 0.489 0.079 0.606 0.253 0.178 0.264 0.637 1.224 0.637 1.224l1.034 0.010c0 0-0.334-0.696-0.491-1.013s-0.355-0.664-0.615-0.749c-0.028-0.009-0.064-0.013-0.106-0.013 0.081-0.043 0.233-0.115 0.34-0.175 0.224-0.136 0.407-0.317 0.391-0.891zM92.338 2.595c0.029 0.065 0.057 0.153 0.057 0.295 0 0.163-0.033 0.282-0.052 0.325-0.094 0.211-0.48 0.19-0.48 0.19v0.002l-0.459 0.009v-1.002h0.51c0.113 0.004 0.353 0.023 0.424 0.181z"></path>
<path d="M95.775 3.776c0-1.013-0.358-1.878-1.074-2.594s-1.58-1.076-2.591-1.076c-0.965 0-1.805 0.332-2.521 0.996-0.763 0.71-1.144 1.602-1.144 2.674 0 1.032 0.353 1.902 1.059 2.609s1.575 1.061 2.606 1.061c0.998 0 1.853-0.345 2.566-1.036 0.733-0.713 1.099-1.592 1.099-2.634zM95.128 3.776c0 0.84-0.295 1.561-0.885 2.161-0.591 0.598-1.302 0.896-2.134 0.896-0.836 0-1.548-0.297-2.138-0.892-0.594-0.594-0.891-1.316-0.891-2.166 0-0.82 0.292-1.529 0.876-2.126 0.594-0.611 1.311-0.916 2.153-0.916 0.832 0 1.545 0.305 2.138 0.916 0.587 0.601 0.88 1.31 0.88 2.126z"></path>
</symbol>
<symbol id="icon-lrs" viewBox="0 0 52 32">
<title>lrs</title>
<path d="M1.215 24.897h1.375c0.109 0 0.161 0.070 0.161 0.168v0.402c0 0.097-0.052 0.168-0.161 0.168h-2.43c-0.109 0-0.16-0.071-0.16-0.168v-3.539c0-0.098 0.051-0.168 0.16-0.168h0.894c0.109 0 0.16 0.070 0.16 0.168v2.969z"></path>
<path d="M5.392 21.892c0-0.098 0.049-0.169 0.152-0.169h0.61c0.103 0 0.152 0.071 0.152 0.169v2.378c0 0.813-0.55 1.424-1.605 1.424-0.843 0-1.665-0.377-1.665-1.369v-2.432c0-0.098 0.049-0.169 0.152-0.169h0.849c0.104 0 0.152 0.071 0.152 0.169v2.454c0 0.425 0.218 0.611 0.599 0.611 0.435 0 0.604-0.185 0.604-0.611v-2.454z"></path>
<path d="M8.855 21.723c0.57 0 0.888 0.136 1.041 0.216 0.074 0.040 0.148 0.096 0.148 0.231v0.635c0 0.057-0.026 0.091-0.069 0.091s-0.074-0.023-0.105-0.051c-0.196-0.193-0.544-0.363-0.925-0.363-0.555 0-0.993 0.329-0.993 1.343s0.438 1.343 0.993 1.343c0.381 0 0.729-0.17 0.925-0.363 0.032-0.028 0.063-0.051 0.105-0.051s0.069 0.034 0.069 0.091v0.635c0 0.136-0.074 0.193-0.148 0.232-0.153 0.079-0.47 0.216-1.041 0.216-1.125 0-2.081-0.726-2.081-2.102s0.956-2.102 2.081-2.102z"></path>
<path d="M14.248 23.825c0 1.371-0.837 2.102-1.988 2.102s-1.983-0.731-1.983-2.102c0-1.377 0.832-2.102 1.983-2.102s1.988 0.725 1.988 2.102zM12.001 25.202c0.081 0.023 0.162 0.040 0.265 0.040s0.184-0.017 0.264-0.040c0.351-0.102 0.518-0.449 0.518-1.377s-0.167-1.276-0.518-1.377c-0.081-0.023-0.162-0.039-0.264-0.039s-0.184 0.017-0.265 0.039c-0.351 0.102-0.518 0.448-0.518 1.377s0.167 1.275 0.518 1.377z"></path>
<path d="M16.282 24.936h1.544c0.109 0 0.16 0.072 0.16 0.173v0.412c0 0.1-0.051 0.172-0.16 0.172h-2.95c-0.109 0-0.16-0.073-0.16-0.172v-0.139c0-0.134 0.189-0.435 0.24-0.512l1.521-2.389h-1.544c-0.109 0-0.16-0.073-0.16-0.173v-0.412c0-0.1 0.051-0.173 0.16-0.173h2.893c0.109 0 0.16 0.073 0.16 0.173v0.156c0 0.228-0.131 0.418-0.183 0.495l-1.521 2.389z"></path>
<path d="M19.018 22.229c0.092-0.328 0.303-0.506 0.654-0.506h0.714c0.097 0 0.179 0.055 0.206 0.15l1.098 3.565c0.017 0.061 0.032 0.083 0.032 0.139s-0.043 0.117-0.124 0.117h-0.892c-0.146 0-0.216-0.095-0.249-0.223l-0.195-0.728h-1.082l-0.189 0.728c-0.032 0.128-0.097 0.223-0.243 0.223h-0.644c-0.081 0-0.119-0.062-0.119-0.117s0.011-0.078 0.026-0.139l1.006-3.209zM19.711 22.74l-0.363 1.374h0.741l-0.368-1.374h-0.011z"></path>
<path d="M22.19 21.895c0-0.1 0.050-0.173 0.154-0.173h1.395c1.461 0 2.188 0.984 2.188 1.985s-0.728 1.985-2.188 1.985h-1.395c-0.104 0-0.154-0.072-0.154-0.172v-3.626zM23.358 24.887c0 0.095 0.088 0.133 0.143 0.144 0.077 0.017 0.11 0.022 0.21 0.022 0.695 0 1.003-0.433 1.003-1.34 0-0.917-0.309-1.352-1.003-1.352-0.099 0-0.132 0.006-0.21 0.022-0.055 0.011-0.143 0.050-0.143 0.145v2.358z"></path>
<path d="M26.394 21.895c0-0.1 0.050-0.173 0.156-0.173 0.888 0 0.905 0 2.257 0.006 0.106 0 0.156 0.072 0.156 0.173v0.411c0 0.1-0.051 0.172-0.156 0.172h-1.229v0.757h1.061c0.106 0 0.156 0.072 0.156 0.173v0.411c0 0.1-0.050 0.173-0.156 0.173h-1.061v0.94h1.229c0.106 0 0.156 0.072 0.156 0.172v0.412c0 0.1-0.051 0.172-0.156 0.172h-2.257c-0.106 0-0.156-0.072-0.156-0.172v-3.626z"></path>
<path d="M33.463 25.693c-0.231 0-0.336-0.032-0.41-0.213l-0.489-1.21c-0.042-0.11-0.095-0.208-0.095-0.383 0-0.185 0.105-0.24 0.216-0.31 0.194-0.125 0.352-0.24 0.352-0.682 0-0.436-0.194-0.534-0.494-0.534-0.084 0-0.194 0.005-0.263 0.049-0.068 0.038-0.1 0.087-0.1 0.164v2.951c0 0.104-0.042 0.169-0.142 0.169h-0.826c-0.1 0-0.147-0.071-0.147-0.169v-3.25c0-0.207 0.095-0.289 0.247-0.366 0.184-0.092 0.668-0.185 1.23-0.185 1.052 0 1.536 0.431 1.536 1.172 0 0.557-0.39 0.813-0.763 0.949v0.017c0.173 0.049 0.347 0.229 0.421 0.376l0.494 1.021c0.058 0.119 0.105 0.174 0.105 0.267 0 0.148-0.105 0.169-0.205 0.169h-0.668z"></path>
<path d="M35.036 21.895c0-0.1 0.050-0.173 0.155-0.173h0.859c0.105 0 0.154 0.072 0.154 0.173v3.626c0 0.1-0.049 0.172-0.154 0.172h-0.859c-0.105 0-0.155-0.072-0.155-0.172v-3.626z"></path>
<path d="M39.412 23.631v0.016c0.451 0.093 0.763 0.404 0.763 0.846 0 0.736-0.543 1.2-1.497 1.2h-1.619c-0.104 0-0.154-0.072-0.154-0.169v-3.25c0-0.208 0.099-0.29 0.258-0.366 0.192-0.093 0.636-0.185 1.224-0.185 1.141 0 1.602 0.442 1.602 1.075 0 0.475-0.308 0.714-0.577 0.834zM38.069 24.935c0 0.098 0.060 0.125 0.093 0.136 0.055 0.017 0.16 0.033 0.252 0.033 0.412 0 0.576-0.202 0.576-0.497 0-0.338-0.202-0.49-0.373-0.621-0.099-0.077-0.181-0.137-0.181-0.311 0-0.125 0.104-0.235 0.208-0.327 0.148-0.136 0.264-0.267 0.264-0.512 0-0.311-0.148-0.453-0.46-0.453-0.089 0-0.204 0.006-0.274 0.049-0.072 0.038-0.104 0.087-0.104 0.163v2.341z"></path>
<path d="M40.642 21.895c0-0.1 0.051-0.173 0.156-0.173 0.888 0 0.905 0 2.257 0.006 0.106 0 0.156 0.072 0.156 0.173v0.411c0 0.1-0.050 0.172-0.156 0.172h-1.229v0.757h1.062c0.106 0 0.156 0.072 0.156 0.173v0.411c0 0.1-0.050 0.173-0.156 0.173h-1.062v0.94h1.229c0.106 0 0.156 0.072 0.156 0.172v0.412c0 0.1-0.050 0.172-0.156 0.172h-2.257c-0.106 0-0.156-0.072-0.156-0.172v-3.626z"></path>
<path d="M46.315 24.564v-2.669c0-0.1 0.046-0.173 0.145-0.173h0.579c0.098 0 0.144 0.072 0.144 0.173v3.626c0 0.1-0.046 0.173-0.144 0.173h-0.656c-0.362 0-0.574-0.178-0.703-0.529l-0.889-2.436h-0.011v2.792c0 0.1-0.046 0.173-0.145 0.173h-0.578c-0.098 0-0.145-0.072-0.145-0.173v-3.626c0-0.1 0.046-0.173 0.145-0.173h0.697c0.361 0 0.574 0.139 0.672 0.417l0.873 2.425h0.015z"></path>
<path d="M48.916 22.229c0.092-0.328 0.302-0.506 0.654-0.506h0.713c0.098 0 0.179 0.055 0.205 0.15l1.099 3.565c0.017 0.061 0.032 0.083 0.032 0.139s-0.043 0.117-0.124 0.117h-0.892c-0.146 0-0.217-0.095-0.249-0.223l-0.195-0.728h-1.082l-0.189 0.728c-0.032 0.128-0.097 0.223-0.243 0.223h-0.644c-0.081 0-0.119-0.062-0.119-0.117s0.011-0.078 0.026-0.139l1.007-3.209zM49.609 22.74l-0.363 1.374h0.741l-0.369-1.374h-0.010z"></path>
<path d="M15.416 28.070l-0.316 0.522c-0.277-0.137-0.578-0.206-0.903-0.206-0.458 0-0.687 0.146-0.687 0.438 0 0.124 0.046 0.23 0.139 0.317 0.1 0.096 0.299 0.195 0.598 0.301 0.466 0.169 0.768 0.356 0.908 0.56 0.126 0.183 0.188 0.387 0.188 0.613 0 0.342-0.122 0.614-0.366 0.818-0.265 0.222-0.637 0.333-1.113 0.333-0.443 0-0.86-0.095-1.252-0.285l0.294-0.523c0.313 0.134 0.609 0.201 0.886 0.201 0.477 0 0.715-0.158 0.715-0.475 0-0.127-0.044-0.231-0.133-0.312-0.096-0.091-0.292-0.19-0.587-0.296-0.469-0.169-0.775-0.355-0.92-0.559-0.126-0.183-0.188-0.387-0.188-0.612 0-0.278 0.103-0.516 0.31-0.713 0.273-0.264 0.654-0.396 1.141-0.396 0.454 0 0.883 0.091 1.285 0.274z"></path>
<path d="M19.62 28.029l-0.011 2.513c-0.004 0.454-0.158 0.812-0.462 1.072-0.305 0.257-0.708 0.386-1.211 0.386-0.54 0-0.949-0.151-1.228-0.455-0.242-0.257-0.361-0.606-0.358-1.046l0.016-2.47h0.793l-0.016 2.513c-0.004 0.586 0.288 0.879 0.875 0.879 0.279 0 0.497-0.085 0.655-0.257 0.15-0.164 0.226-0.385 0.226-0.664l0.011-2.47h0.71z"></path>
<path d="M23.825 27.864l-0.037 3.699-0.873 0.204-1.372-2.395c-0.158-0.275-0.273-0.524-0.347-0.746v0.021c0.032 0.351 0.047 0.605 0.047 0.761l-0.005 2.259h-0.683l0.026-3.678 0.878-0.193 1.362 2.379c0.137 0.24 0.256 0.488 0.357 0.746-0.031-0.292-0.047-0.553-0.047-0.783l0.005-2.275h0.689z"></path>
<path d="M27.328 28.608h-1.014l-0.022 3.158h-0.774l0.022-3.158h-1.014v-0.579h2.803z"></path>
<path d="M29.571 27.796c0.634 0 1.129 0.195 1.485 0.586 0.317 0.349 0.476 0.801 0.476 1.357 0 0.588-0.194 1.073-0.583 1.458-0.384 0.38-0.864 0.57-1.438 0.57-0.637 0-1.131-0.192-1.479-0.576-0.314-0.341-0.471-0.8-0.471-1.378 0-0.587 0.194-1.073 0.583-1.457 0.374-0.374 0.85-0.56 1.427-0.56zM29.561 28.366c-0.306 0-0.562 0.102-0.769 0.307-0.264 0.26-0.396 0.637-0.396 1.13 0 0.926 0.374 1.389 1.122 1.389 0.495 0 0.841-0.234 1.037-0.702 0.093-0.215 0.139-0.456 0.139-0.723 0-0.363-0.070-0.664-0.208-0.904-0.196-0.33-0.504-0.496-0.925-0.496z"></path>
<path d="M35.504 31.451l-0.741 0.315-1.261-1.815 0.199-0.341c0.546-0.038 0.819-0.252 0.819-0.64 0-0.398-0.259-0.598-0.775-0.598-0.177 0-0.328 0.005-0.453 0.015l-0.022 3.284h-0.802l0.028-3.824h0.039c0.623-0.035 1.047-0.052 1.272-0.052 1.022 0 1.532 0.356 1.532 1.070 0 0.566-0.313 0.936-0.939 1.112 0.088 0.073 0.167 0.159 0.237 0.257l0.869 1.217z"></path>
<path d="M38.774 28.116l-1.282 1.895-0.011 1.756h-0.762l0.010-1.719-1.224-1.91 0.679-0.342 0.757 1.228c0.067 0.11 0.133 0.251 0.2 0.421l0.005 0.011c0.053-0.142 0.126-0.287 0.221-0.432l0.798-1.228 0.61 0.32z"></path>
<path d="M27.277 17.896c-2.57 0-3.878-1.241-4.521-2.283-1.183-1.912-1.093-4.787 0.23-7.323 0.585-1.122 1.24-2.171 1.875-3.184 0.606-0.969 1.23-1.97 1.784-3.023-0.401-0.675-0.789-1.366-1.154-2.083h-0.020c-1.472 2.89-3.315 5.332-4.816 8.209-2.587 4.963-1.328 11.178 4.826 11.178 2.479 0 4.155-0.964 5.117-2.436-0.76 0.54-1.827 0.945-3.321 0.945z"></path>
<path d="M30.058 8.296c-0.394-0.765-0.815-1.503-1.231-2.223-0.152 0.274-0.306 0.541-0.458 0.803-0.306 0.529-0.596 1.029-0.859 1.575-0.497 1.028-0.552 2.205-0.138 2.929 0.291 0.508 0.785 0.766 1.471 0.766 0.699 0 1.2-0.255 1.489-0.759 0.316-0.553 0.349-1.385 0.115-2.215-0.111-0.277-0.231-0.552-0.362-0.823-0.008-0.018-0.017-0.035-0.026-0.053z"></path>
<path d="M28.99 13.273c-1.102 0-1.988-0.465-2.496-1.309-0.639-1.063-0.598-2.646 0.104-4.030 0.295-0.582 0.623-1.121 0.94-1.642 0.269-0.443 0.525-0.867 0.763-1.312-0.333-0.555-0.665-1.122-0.984-1.709-0.473 0.874-0.979 1.706-1.471 2.516-0.61 1.005-1.241 2.043-1.796 3.138-1.132 2.233-1.235 4.721-0.263 6.338 0.704 1.17 1.924 1.789 3.531 1.789 1.637 0 2.871-0.614 3.569-1.776 0.422-0.701 0.635-1.576 0.646-2.526-0.016-0.234-0.042-0.47-0.075-0.706-0.511 0.794-1.384 1.231-2.468 1.231z"></path>
</symbol>
<symbol id="icon-universal" viewBox="0 0 54 32">
<title>universal</title>
<path d="M28.444 1.089c-0.654-0.159-1.372-0.038-1.349-0.015-0.074-0.020-0.208-0.066-0.284-0.053-0.005 0.005-0.013 0.008-0.020 0.010 0.015 0.005 0.028 0.010 0.043 0.020-0.043 0.015-0.063-0.008-0.107-0.015 0.028 0.033 0.023 0.025 0 0.063l0.008 0.015c0.107 0.025 0.208 0.063 0.358 0.046v-0.005c-0.035-0.030-0.101-0.035-0.145-0.066h-0.013v-0.010c0.099 0.020 0.183 0.063 0.243 0.106 0.013-0.008 0.023-0.013 0.030-0.020-0.023 0.043-0.051 0.053-0.038 0.089-0.155-0.023-0.274-0.079-0.335 0.096 0.018 0.013 0.035 0.028 0.051 0.043-0.010 0.003-0.025 0.010-0.035 0.015-0.005 0.013-0.010 0.028-0.010 0.043 0.068 0.058 0.099 0.089 0.177 0.114 0.003 0.033 0.008 0.066 0.015 0.099 0.015 0.013 0.015 0.010 0.046 0.005 0.033 0.030 0.010 0.058 0.028 0.081 0.043 0.051 0.205 0.134 0.241 0.185 0.013 0.018 0.005 0.048 0.030 0.066 0.061 0.041 0.129 0.061 0.177 0.106 0.018 0.008 0.003 0 0 0.020 0.119 0.058 0.299 0.051 0.398 0.106 0.015 0.023 0.005 0.010 0.005 0.038 0.101 0.030 0.205 0.056 0.304 0.084 0.008 0 0.015-0.003 0.023-0.008 0.003-0.028 0.003-0.028-0.005-0.048 0.056-0.033 0.074-0.104 0.117-0.149-0.018-0.041-0.025-0.043-0.020-0.094 0.084-0.010 0.112-0.058 0.18-0.073-0.013-0.040-0.003-0.051-0.038-0.068 0.020-0.015 0.013-0.010 0.046 0 0.008-0.008 0.015-0.013 0.020-0.020-0.020-0.018-0.043-0.038-0.066-0.058h-0.015v-0.008c0.041 0.010 0.081 0.018 0.127 0.010 0.003-0.003 0.008-0.003 0.015-0.005-0.013-0.015-0.020-0.028-0.030-0.040 0 0 0.005-0.005 0.008-0.005 0.058 0.030 0.091 0.033 0.183 0.038 0.003-0.023 0.008-0.043 0.010-0.058 0.013-0.003 0.025-0.003 0.038-0.008-0.013 0.015-0.025 0.035-0.038 0.056 0.003 0.003 0.005 0.013 0.008 0.018 0.175 0.038 0.294-0.033 0.462-0.058v-0.043c0.198-0.058 0.479 0.063 0.68 0.048 0.056-0.005-0.715-0.496-1.522-0.691zM24.736 1.451c0.094 0.010 0.218 0.023 0.32 0.073 0.099 0.040 0.132 0.109 0.243 0.127-0.028 0.018-0.041 0.010-0.076 0 0.025 0.043 0.053 0.068 0.117 0.079-0.010 0.005-0.018 0.010-0.028 0.013 0.028 0.028 0.046 0.046 0.089 0.063h0.030c-0.010-0.030-0.003-0.023-0.030-0.033 0-0.003 0.003-0.003 0.003-0.005 0.216 0.066 0.411 0.218 0.659 0.256 0.008-0.033-0.005-0.015 0.025-0.020v-0.008c-0.068-0.096-0.241-0.2-0.358-0.246-0.003-0.010-0.005-0.020-0.008-0.028 0.043 0.023 0.094 0.048 0.137 0.071v-0.025c0.132 0.079 0.292 0.172 0.421 0.246 0.015-0.003 0.025-0.003 0.038-0.005h0.018v-0.008c-0.051-0.028-0.074-0.023-0.104-0.076 0.020 0.013 0.041 0.020 0.058 0.028h0.005c0.005-0.028-0.003-0.033-0.018-0.058 0.003-0.008 0.003-0.010 0.005-0.015 0.018 0.013 0.013 0.008 0.023 0.028 0.048-0.005 0.035-0.008 0.056-0.030 0.010 0.025 0.010 0.025 0.033 0.040h0.008c-0.005-0.010-0.010-0.018-0.013-0.030 0.015 0 0.033 0 0.051 0.003v-0.013c-0.043-0.025-0.079-0.058-0.139-0.076-0.005-0.005-0.005-0.008-0.008-0.015 0.013-0.003 0.030-0.003 0.046-0.005 0-0.005 0.003-0.005 0.003-0.005-0.046-0.035-0.175-0.139-0.269-0.127 0-0.043-0.020-0.101-0.074-0.114 0.023 0.003 0.043 0.003 0.063 0.003 0.003-0.008 0.005-0.010 0.005-0.015l-0.028-0.033c0.099 0.008 0.177 0.086 0.264 0.091-0.028 0.096 0.162 0.124 0.226 0.177 0.053-0.008 0.053-0.023 0.084-0.025-0.008-0.005-0.015-0.010-0.018-0.020 0.005-0.020 0-0.013 0.018-0.025 0.041 0.013 0.076 0.033 0.114 0.008v0.033h0.053c-0.008-0.008-0.015-0.023-0.025-0.030 0.028-0.015 0.003-0.008 0.033 0 0.008-0.003 0.015-0.003 0.020-0.005-0.005-0.015-0.018-0.028-0.025-0.043 0.061 0.018 0.091 0.015 0.145 0.003-0.015-0.063-0.101-0.089-0.175-0.084-0.013-0.018 0.005-0.010 0.025-0.018-0.028-0.003-0.053-0.003-0.079-0.005-0.023-0.008-0.046-0.056-0.124-0.058 0.015-0.015 0.003-0.008 0.025-0.015-0.018-0.020-0.091-0.058-0.134-0.056-0.005-0.008-0.010-0.010-0.015-0.018 0.010-0.005 0.020-0.010 0.028-0.015-0.081-0.015-0.096-0.035-0.15-0.008-0.046-0.033-0.041-0.056-0.119-0.063 0.008-0.008 0.013-0.018 0.018-0.023-0.058-0.015-0.119-0.030-0.175-0.043v-0.008c0.015-0.003 0.025-0.008 0.041-0.008 0.003-0.028 0.003-0.018-0.008-0.043 0.061 0.018 0.112 0.030 0.165 0.043 0.005-0.003 0.010-0.005 0.018-0.010-0.033-0.035-0.086-0.056-0.134-0.053 0.005-0.008 0.010-0.015 0.010-0.025 0.025 0.010 0.051 0.018 0.079 0.025 0-0.003 0.003-0.005 0.005-0.008 0-0.008 0.005-0.013 0.005-0.018-0.068-0.051-0.081-0.053-0.188-0.046 0.023-0.035 0.030-0.025 0.074-0.030v-0.008c-0.074-0.053-0.185-0.025-0.264-0.071 0 0-0.068-0.076-0.079-0.084-0.056-0.033-0.246-0.073-0.282-0.076 0.005-0.003 0.010-0.010 0.015-0.018-0.071-0.030-0.145-0.058-0.221-0.091h0.061v-0.008c-0.035-0.056-0.37 0.086-0.439 0.17-0.018-0.015 0.139 0.124 0.099 0.116-0.005 0.008-0.010 0.013-0.015 0.020h-0.015c0.023 0.033 0.172 0.023 0.216 0.025 0.003 0.005 0.003 0.010 0.005 0.015-0.030 0.013-0.038-0.010-0.079 0h-0.008c0.015 0.053 0.066 0.040 0.112 0.020 0.010 0.020 0.015 0.040 0.023 0.061-0.028-0.013-0.051-0.013-0.096-0.015 0.018 0.048 0.107 0.058 0.175 0.061 0-0.010 0-0.018 0.003-0.028-0.020-0.005-0.046-0.010-0.074-0.015 0.003-0.010 0.005-0.023 0.008-0.038 0.048 0.015 0.066 0.038 0.127 0.046 0.013 0.038 0.025 0.079 0.038 0.114-0.119 0.013-0.233 0.028-0.352 0.040-0.005 0.005-0.005 0.010-0.008 0.015 0.025 0.025 0.048 0.046 0.071 0.066v0.010c-0.084-0.025-0.17-0.005-0.243-0.018-0.165-0.025-0.287-0.111-0.446-0.018 0.005 0.008 0.005 0.018 0.008 0.023 0.046 0.084 0.185 0.053 0.279 0.068zM25.505 1.345c0.018-0.010 0.035-0.020 0.053-0.028 0.071 0.015 0.058 0.053 0.15 0.056 0.005 0.033 0.013 0.010-0.018 0.030 0.008 0.005 0.023 0.015 0.033 0.023-0.091-0.018-0.119-0.028-0.218-0.020 0.015-0.028 0.015-0.033 0-0.061zM25.393 1.466c0.048 0.015 0.107 0.038 0.124 0.081l0.015 0.020c-0.063-0.018-0.117-0.025-0.195-0.035-0.003-0.005-0.005-0.008-0.008-0.013h0.068c0-0.018-0.003-0.035-0.005-0.053zM19.631 17.455c0.094 0.147 0.175 0.349 0.289 0.466 0.238 0.246 0.634 0.382 0.784 0.699 0.076 0.068 0.147 0.139 0.218 0.213-0.005 0.033-0.010 0.063-0.015 0.099 0.015 0.104 0.061 0.241 0.046 0.347-0.010 0.043-0.025 0.109-0.023 0.157 0.010 0.035 0.018 0.066 0.025 0.099-0.018 0.099-0.063 0.203-0.063 0.332-0.028 0.010-0.010 0.005-0.048 0-0.008 0.035-0.008 0.071-0.010 0.109h0.041c-0.010 0.063-0.018 0.132-0.028 0.195 0.008 0.066 0.015 0.134 0.025 0.2-0.010 0.028-0.056 0.038-0.061 0.076 0.003 0.025 0.010 0.053 0.013 0.081-0.010 0.132-0.038 0.246-0.074 0.324-0.043 0.084 0.003 0.162-0.074 0.215 0.010 0.106 0.048 0.154 0.038 0.268-0.028 0.013-0.015 0.010-0.046 0.010-0.020 0.251 0.107 0.382 0.025 0.572 0.013 0.003 0.041 0.078 0.030 0.104-0.058 0.162-0.134 0.324-0.15 0.514-0.003-0.003-0.013-0.008-0.018-0.013v0.099c-0.023-0.008-0.046-0.020-0.068-0.025-0.003 0.003-0.005 0.005-0.010 0.005 0.015 0.139 0.086 0.286 0.139 0.4-0.008 0.165-0.101 0.208 0.020 0.387v0.025c-0.015-0.005-0.028-0.010-0.038-0.018-0.025 0.071 0.013 0.147-0.008 0.228 0.025 0.033 0.056 0.043 0.096 0.058l0.023-0.008c0.018-0.081 0.008-0.175-0.030-0.241 0.003-0.003 0.008-0.005 0.013-0.013 0.018 0.008 0.035 0.013 0.056 0.023h0.008c-0.005-0.033 0.013-0.028-0.018-0.030 0.008-0.010 0.013-0.015 0.018-0.025 0.013 0.015 0.025 0.025 0.033 0.041-0.008 0.010-0.010 0.018-0.018 0.033 0.033 0.028 0.051 0.109 0.008 0.129 0.008 0.008 0.023 0.020 0.033 0.028-0.020 0.129 0.005 0.218 0.005 0.352h-0.015c-0.010-0.041-0.038-0.149-0.020-0.16-0.028-0.041-0.058-0.068-0.107-0.086-0.023 0.033-0.035 0.086-0.043 0.134 0.020 0.023 0.043 0.041 0.058 0.061-0.003 0.033-0.005 0.073-0.008 0.106h-0.051v0.008c0.010 0.015 0.018 0.028 0.025 0.043-0.020 0.018-0.041 0.030-0.061 0.046v0.028c0.015 0.010 0.035 0.020 0.053 0.030 0.013-0.010 0.020-0.020 0.028-0.030 0.035 0.030 0.104 0.043 0.134 0.078-0.010-0.005-0.020-0.008-0.030-0.010 0.010 0.025 0.008 0.015 0.023 0.028-0.008 0.023-0.015 0.051-0.023 0.081-0.023-0.023-0.025-0.030-0.074-0.035v0.010c0.008 0.005 0.015 0.015 0.023 0.025-0.015 0.005-0.025 0.013-0.038 0.020 0.041 0.073 0.053 0.185 0.099 0.243 0.038 0.018 0.071 0.038 0.104 0.056-0.018-0.008-0.038-0.013-0.058-0.015v0.008c0.010 0.030 0.018 0.058 0.025 0.091 0.010 0.003 0.025 0.010 0.035 0.015 0.008-0.025 0.018-0.048 0.028-0.071 0.010 0.018 0.015 0.035 0.025 0.056h-0.033c-0.003 0.003-0.005 0.003-0.008 0.005 0.030 0.041 0.035 0.061 0.041 0.127 0.028-0.010 0.056-0.020 0.086-0.033 0.020 0.023 0.013 0.023 0.046 0.033-0.005 0.008-0.008 0.018-0.013 0.028-0.028-0.010-0.053-0.013-0.079-0.020 0 0.005-0.003 0.010-0.003 0.010 0.023 0.051 0.061 0.081 0.109 0.106-0.003-0.008-0.010-0.020-0.015-0.028 0.041 0.030 0.086 0.068 0.124 0.104 0 0.003 0.003 0.005 0.003 0.010l-0.117-0.053c0.048 0.061 0.091 0.081 0.145 0.094-0.003 0.020 0.003 0-0.005 0.020 0.061 0.063 0.297 0.22 0.365 0.203-0.003 0.033 0.003 0.005-0.008 0.033 0.068 0.066 0.297 0.144 0.406 0.172v-0.005c-0.018-0.020-0.035-0.035-0.053-0.051 0.053 0.018 0.096 0.020 0.132 0.028v-0.008l0.018 0.015c0.013 0.008 0.028 0.005 0.038 0.015v-0.030c0.030 0.008 0.066 0.008 0.104 0.013h0.008c0.003-0.005 0.005-0.005 0.008-0.013v-0.020c-0.203-0.023-0.271-0.2-0.431-0.246 0.008-0.013 0.015-0.020 0.020-0.028-0.046-0.051-0.107-0.046-0.147-0.099-0.008-0.003-0.013-0.005-0.018-0.005 0.008-0.008 0.018-0.013 0.025-0.018 0.033 0.018 0.071 0.030 0.112 0.043v-0.008c-0.063-0.071-0.157-0.124-0.165-0.248 0-0.008 0.003-0.010 0.005-0.015 0.033-0.008 0.071-0.015 0.104-0.025 0.028-0.023 0.018-0.063 0.015-0.116 0.048-0.033 0.147-0.056 0.183-0.096 0.013-0.018 0.013-0.063 0.008-0.111-0.122-0.078-0.302-0.106-0.259-0.286 0.053-0.043 0.132-0.061 0.208-0.028h0.028c-0.010-0.033 0-0.018-0.023-0.033 0.015-0.030 0.020-0.025 0.051-0.035 0.005-0.043-0.010-0.089-0.023-0.124 0.030-0.051 0.056-0.071 0.132-0.073-0.020-0.033-0.061-0.038-0.091-0.066-0.003-0.005-0.008-0.005-0.013-0.008 0.015-0.010 0.035-0.015 0.053-0.023 0.035 0.025 0.048 0.046 0.074 0.084 0.020 0.005 0.041 0.005 0.058 0.008 0.005-0.008 0.015-0.015 0.020-0.023 0-0.048-0.003-0.066-0.020-0.089-0.005-0.008-0.010-0.015-0.013-0.025-0.030 0.005-0.058 0.008-0.086 0.010 0.013 0.010 0.025 0.020 0.041 0.028v0.008c-0.020-0.005-0.038-0.010-0.051-0.013-0.023-0.020-0.025-0.041-0.076-0.053-0.028-0.046-0.028-0.134-0.046-0.19 0.053-0.068 0.18 0.071 0.256 0.094 0.063-0.003 0.122-0.005 0.183-0.008 0.008-0.030 0.020-0.056 0.033-0.086-0.010 0.008-0.020 0.010-0.030 0.018-0.008-0.010-0.015-0.020-0.025-0.030 0.030-0.053 0.086-0.109 0.056-0.18 0.008 0.005 0.018 0.010 0.030 0.015h0.010c-0.008-0.015-0.015-0.030-0.018-0.043 0.104 0.043 0.581 0.111 0.708 0.035 0.030-0.015 0.147-0.154 0.188-0.19v-0.109c-0.066-0.015-0.096-0.020-0.101-0.104 0.020-0.015 0.041-0.030 0.063-0.048-0.035-0.137-0.17-0.149-0.228-0.253 0.013-0.013 0.020-0.025 0.030-0.033 0.008-0.005 0.018-0.008 0.023-0.010 0.018 0.030 0.038 0.038 0.051 0.084 0.051 0.010 0.094 0.020 0.142 0.028 0.043 0.030 0.094 0.116 0.15 0.127 0.043 0.013 0.079-0.015 0.124 0 0.041 0.018 0.063 0.066 0.122 0.058 0.152-0.018 0.175-0.089 0.264-0.152 0.051-0.023 0.104-0.046 0.155-0.066 0.043-0.053 0.079-0.099 0.122-0.154 0.099-0.041 0.193-0.086 0.292-0.124 0.117-0.081 0.177-0.218 0.287-0.304 0.139-0.106 0.307-0.122 0.363-0.314-0.010-0.005-0.020-0.008-0.030-0.008 0.020-0.076 0.025-0.17 0.068-0.273 0.028-0.078 0.55-0.344 0.685-0.301 0.033 0.020 0.063 0.043 0.091 0.066 0.003-0.020 0.008-0.033 0.015-0.051-0.013-0.003-0.020-0.005-0.030-0.008v-0.008c0.068-0.018 0.132-0.122 0.2-0.096 0.020-0.025 0.023-0.015 0-0.038v-0.025c0.139 0 0.406 0.061 0.535 0.119 0.013-0.020 0.010-0.020 0.038-0.028-0.010-0.114 0.134-0.073 0.218-0.111 0.058-0.043 0.063-0.185 0.155-0.225 0.137-0.071 0.129-0.111 0.226-0.18 0.041-0.028 0.086-0.023 0.109-0.066 0.101-0.16 0.033-0.23 0.238-0.306 0.038-0.109 0.066-0.197 0.129-0.273 0.030-0.038 0.061-0.078 0.091-0.114 0.041-0.096 0.015-0.182 0.056-0.273 0.038-0.096 0.122-0.154 0.129-0.281 0.091-0.051 0.175-0.033 0.264-0.094 0.124-0.111 0.249-0.22 0.378-0.332 0.046-0.008 0.086-0.020 0.129-0.030 0.061-0.041 0.119-0.084 0.175-0.132 0.205-0.129 0.375-0.246 0.454-0.506 0.003-0.051 0.005-0.101 0.005-0.147 0.025-0.099 0.134-0.709 0.132-0.709-5.741-0.013-10.002 0.056-10.002 0.056zM21.358 25.075l-0.015-0.015c0.003 0 0.005-0.003 0.008-0.008 0.010 0.008 0.023 0.010 0.030 0.018-0.005 0-0.015 0.003-0.023 0.005zM21.417 25.143c0.018-0.013 0.030-0.025 0.046-0.033 0.008 0 0.018 0.003 0.023 0.008h0.015c-0.015 0.046-0.035 0.028-0.084 0.025zM21.622 25.366c-0.003-0.005-0.005-0.013-0.008-0.015h0.013c0 0.003-0.003 0.010-0.005 0.015zM21.731 25.23v0.008c-0.023 0.008-0.048 0.013-0.071 0.015v0.010c0.013 0.018 0.025 0.033 0.043 0.048-0.038-0.015-0.056-0.043-0.068-0.081-0.005-0.005-0.008-0.005-0.013-0.008-0.008 0.023-0.018 0.035-0.023 0.053-0.010-0.003-0.015-0.005-0.025-0.005 0.008-0.035-0.010-0.096-0.023-0.152 0.053 0.013 0.048 0.033 0.053 0.081 0.038 0.025 0.066 0.025 0.127 0.030zM21.66 25.118c0.003 0.005 0.005 0.010 0.010 0.013-0.013 0.008-0.020 0.015-0.033 0.018-0.003-0.005-0.010-0.018-0.015-0.025-0.005 0-0.010-0.005-0.018-0.005 0.008-0.005 0.018-0.008 0.023-0.008 0.010 0 0.023 0.003 0.033 0.008zM22.396 23.379c-0.030-0.013-0.028-0.020-0.035-0.061 0.035 0.015 0.023 0.028 0.035 0.053v0.008zM24.465 22.402v0.038c-0.046 0.028-0.091 0.053-0.162 0.068-0.015-0.005-0.025-0.015-0.035-0.018v-0.010c0.076-0.048 0.162-0.096 0.205-0.182 0.033-0.005 0.066-0.013 0.104-0.018 0.003 0.023 0.003 0.048 0.003 0.068-0.035 0.020-0.068 0.043-0.114 0.053zM25.109 21.893c0-0.010 0.005-0.018 0.008-0.028 0 0.005 0 0.008 0.003 0.010-0.003 0.005-0.005 0.010-0.010 0.018zM25.119 21.852c0.003-0.010 0.005-0.018 0.008-0.023h0.008c-0.010 0.023 0 0.008-0.015 0.023zM26.486 21.123c0.003-0.010 0.003-0.023 0.005-0.030h0.028c-0.010 0.008-0.023 0.020-0.033 0.030zM19.86 6.669c0.058 0.048 0.21-0.043 0.289-0.043 0.030 0.040 0.107 0.218 0.145 0.228 0.063 0.142-0.109 0.21-0.091 0.319 0.010 0.003 0.013 0.003 0.018 0.005 0.030-0.025 0.023-0.023 0.015-0.056l0.015-0.008c0.013 0.038-0.003 0.030 0.033 0.035-0.028 0.018-0.051 0.038-0.081 0.061-0.013 0.028 0.010 0.101 0.015 0.167 0.015 0.005 0.025 0.010 0.038 0.015 0.003-0.013 0.008-0.020 0.010-0.028 0.005 0 0.008 0.005 0.010 0.013-0.025 0.038-0.028 0.053-0.048 0.089 0.015 0.005 0.010 0 0.028-0.005 0.013 0.023 0.023 0.038 0.010 0.081 0.005 0.114 0.122 0.114 0.071 0.235 0.035 0.056 0.17 0.015 0.208 0.020-0.003-0.091 0.114-0.187 0.152-0.276 0.056-0.116 0.003-0.271 0.003-0.413 0.015-0.005 0.030-0.010 0.048-0.015-0.020-0.106-0.038-0.213-0.053-0.319 0.035-0.4 0.358-0.499 0.685-0.595 0.15-0.048 0.094-0.177 0.37-0.122 0.074-0.137 0.307-0.106 0.444-0.142 0-0.005 0.003-0.008 0.008-0.015-0.033-0.015-0.025-0.010-0.038-0.040v-0.010c0.038-0.025 0.152-0.043 0.195-0.043 0.013-0.018 0.025-0.038 0.038-0.056-0.025-0.040-0.076-0.058-0.134-0.061v-0.008c0.048 0.008 0.096 0.015 0.142 0.020v0.063c0.003-0.003 0.020-0.16 0.028-0.233-0.018-0.005-0.033-0.013-0.048-0.015-0.018-0.020-0.008-0.008-0.008-0.038-0.003-0.030 0.056-0.106 0.079-0.137-0.020-0.018 0-0.139 0.003-0.177 0.033-0.030 0.068-0.061 0.107-0.094-0.086 0.122-0.043 0.122-0.074 0.263 0.023 0.008 0.046 0.015 0.071 0.023-0.048 0.035-0.089 0.053-0.114 0.106-0.003 0.003-0.005 0.008-0.008 0.015 0.015 0.010 0.010 0.008 0.035 0.015 0.041-0.094 0.216-0.149 0.297-0.276-0.053-0.051-0.030-0.073-0.046-0.147 0.038 0.033 0.051 0.061 0.104 0.076-0.010 0.008-0.020 0.020-0.030 0.033v0.008c0.117 0.018 0.274-0.134 0.322-0.213-0.008-0.030 0-0.018-0.018-0.030-0.003-0.005-0.003-0.008-0.005-0.013 0.129-0.018 0.322 0.018 0.469 0.005-0.013-0.013-0.025-0.028-0.035-0.043-0.112 0.015-0.213-0.033-0.32-0.003 0.127-0.109 0.533 0.040 0.71-0.030 0.020 0.048 0.061 0.048 0.147 0.051 0.010-0.015 0.020-0.030 0.033-0.048-0.010-0.010-0.015-0.025-0.025-0.033-0.018 0.035 0 0.040-0.041 0.040-0.020-0.005-0.043-0.008-0.063-0.010-0.010-0.040 0.008-0.104-0.074-0.114v-0.018c0.035-0.005 0.071-0.015 0.107-0.023-0.013-0.015-0.020-0.030-0.030-0.048 0.053-0.058 0.16-0.094 0.203-0.142 0.119 0.025 0.195 0.023 0.309-0.040 0.018 0.023 0.015 0.018 0.015 0.040 0.15-0.008 0.284 0.003 0.436-0.035-0.008-0.015-0.015-0.030-0.023-0.048 0.018 0 0.096 0.030 0.122 0.035 0.112 0.025 0.332 0 0.426-0.033l0.015 0.015c-0.033 0.010-0.066 0.020-0.104 0.028-0.003 0.005-0.005 0.010-0.005 0.015 0.041 0.008 0.079 0.015 0.117 0.023-0.142 0.023-0.284 0.043-0.426 0.071-0.005 0.005-0.008 0.008-0.010 0.013 0.020-0.005 0.038-0.008 0.056-0.013-0.010 0.005-0.020 0.010-0.030 0.013-0.038 0.040-0.048 0.043-0.048 0.124h0.048c0.028 0.040 0.010 0.066 0.063 0.068 0.104 0.008 0.2-0.066 0.317-0.071 0.013-0.030 0.003-0.035 0.041-0.051 0.003 0.010 0.008 0.015 0.013 0.023 0.010-0.010 0.020-0.018 0.028-0.030 0.013 0.051 0.033 0.051 0.079 0.061 0.061-0.066 0.459 0.018 0.576-0.013 0.005 0 0.010 0.003 0.015 0.003-0.023-0.025-0.041-0.033-0.089-0.033 0.025-0.015 0.028-0.010 0.038-0.033 0.094 0.035 0.195 0.010 0.317 0.013v-0.023c0.008-0.040-0.063-0.079-0.112-0.084v-0.008c0.020-0.023 0.041-0.046 0.061-0.068-0.020-0.028-0.018-0.013-0.018-0.046-0.015-0.003-0.028-0.008-0.043-0.010-0.076 0.040-0.243 0.079-0.251 0.182-0.048 0.008-0.074 0.008-0.079-0.056-0.175 0.020-0.243-0.068-0.388-0.084-0.005-0.015-0.015-0.028-0.025-0.040 0.010 0.003 0.020 0.003 0.025 0.003 0.003-0.005 0.008-0.010 0.010-0.015-0.043-0.018-0.091-0.033-0.134-0.053-0.023-0.015-0.051-0.084-0.066-0.119 0.010-0.010 0.025-0.020 0.035-0.030-0.020-0.013-0.041-0.018-0.079-0.018v-0.018c0.076-0.013 0.114-0.056 0.188-0.084 0.005-0.005 0.010-0.015 0.018-0.025v-0.008c-0.079 0.023-0.15 0.010-0.259 0.008-0.015-0.058-0.053-0.076-0.114-0.084 0-0.005-0.003-0.010-0.005-0.015 0.101 0.010 0.137 0.051 0.223 0.063 0.079-0.010 0.157-0.020 0.233-0.030 0-0.008 0.003-0.013 0.003-0.020 0.025-0.015 0-0.018-0.008-0.041 0.008 0.003 0.023 0.003 0.033 0.005v-0.005c-0.185-0.248-0.827-0.162-1.106-0.109-0.112 0.018-0.188 0.124-0.34 0.124 0.068-0.066 0.459-0.21 0.583-0.251 0 0 0.249 0.020 0.259 0.018 0.023-0.028 0.046-0.051 0.074-0.073 0.101-0.056 0.249-0.033 0.378 0.003 0.177 0.046 0.335 0.063 0.507 0.124 0.107 0.035 0.431 0.167 0.54 0.149 0.086-0.015 0.167-0.041 0.243-0.068 0.177-0.076 0.545 0.111 0.669-0.025 0.008-0.028 0.008-0.003-0.008-0.038l0.015 0.008c0.018-0.033-0.003-0.152 0.020-0.197-0.038-0.015-0.086-0.033-0.124-0.046 0.003-0.018 0-0.003 0.008-0.028-0.079-0.008-0.084-0.028-0.132-0.023-0.018-0.084-0.099-0.122-0.188-0.129v-0.010c0.063 0.010 0.127 0.015 0.193 0.023-0.035-0.046-0.117-0.053-0.124-0.106-0.063-0.015-0.119-0.003-0.17-0.035-0.023-0.015-0.018-0.018-0.018-0.043-0.030-0.023-0.112-0.018-0.145-0.043s-0.038-0.051-0.086-0.073c-0.010-0.033-0.020-0.013 0.008-0.038-0.008-0.013-0.142-0.109-0.193-0.119 0.018-0.020 0.008-0.010 0.033-0.013 0.008-0.015 0.005-0.061 0.013-0.116-0.020-0.008-0.038-0.013-0.051-0.023-0.008-0.003 0.013-0.043 0.013-0.084-0.068-0.028-0.139-0.058-0.129-0.134-0.015-0.005-0.028-0.005-0.043-0.005-0.041-0.063-0.216-0.281-0.21-0.357-0.18 0.053-0.416 0.344-0.667 0.144-0.041 0.005-0.071-0.058-0.147-0.071 0-0.023-0.003-0.046-0.003-0.066-0.020-0.005-0.038-0.008-0.056-0.010 0.023-0.056 0.046-0.068 0.038-0.144 0.033-0.010 0.056-0.025 0.084-0.038-0.005-0.010-0.013-0.023-0.023-0.033-0.018 0.005-0.041 0.018-0.066 0.025-0.046-0.053-0.155-0.076-0.246-0.104-0.003-0.005-0.005-0.008-0.008-0.013v-0.008c0.018-0.010 0.013-0.008 0.038-0.010v-0.008c-0.053-0.053-0.175-0.142-0.249-0.17-0.061 0.005-0.122 0.005-0.185 0.005-0.155-0.046-0.302-0.111-0.456-0.106-0.015 0.013-0.030 0.030-0.051 0.046 0 0.008-0.003 0.018-0.005 0.025 0.015 0.018 0.010 0.018 0.038 0.028-0.035 0.043-0.074 0.061-0.139 0.071 0.061 0.068 0.020 0.079 0.053 0.116-0.023 0.025-0.203 0.099-0.274 0.099-0.008 0.013-0.013 0.025-0.023 0.041 0.096 0.035 0.177 0.101 0.185 0.218-0.084 0.172-0.264 0.2-0.479 0.241-0.076 0.003-0.152 0.003-0.231 0.005h-0.015c0.008 0.033-0.003 0.073 0.043 0.091-0.043 0.076-0.122 0.167-0.063 0.251-0.041 0.033-0.094 0.076-0.147 0.076v0.058c-0.010 0.003-0.023 0.003-0.030 0.008-0.003-0.025-0.018-0.023-0.028-0.056-0.063 0.010-0.094 0.030-0.132 0.056-0.028-0.013-0.053-0.023-0.076-0.035-0.023-0.114-0.101-0.185-0.152-0.294 0.041-0.033 0.074-0.063 0.099-0.109 0-0.018-0.003-0.033-0.003-0.051 0.043-0.048 0.086-0.068 0.124-0.122-0.157-0.015-0.596-0.149-0.69-0.235-0.028-0.030-0.035-0.096-0.084-0.132-0.068-0.028-0.137-0.061-0.205-0.094-0.076 0-0.15 0.003-0.231 0.003h-0.015c0.058-0.051 0.089-0.134 0.132-0.203-0.035-0.018-0.091-0.020-0.152-0.018 0-0.013 0.003-0.020 0.003-0.030 0.142-0.17 0.614-0.342 0.809-0.327-0.008-0.013-0.020-0.025-0.028-0.038 0.076 0.005 0.155 0.018 0.228 0.005 0.030-0.038 0.025-0.038-0.005-0.066h-0.015v-0.008c0.117 0.030 0.505 0.028 0.687-0.063 0.023-0.015 0.008-0.008 0-0.025 0.076-0.018 0.152-0.035 0.233-0.051h0.013v-0.008c-0.013-0.015-0.020-0.018-0.053-0.020-0.003-0.003-0.005-0.010-0.005-0.015 0.053 0.005 0.104 0.010 0.157 0.015 0 0.038 0.109 0.109 0.157 0.122 0.018-0.015 0.005 0 0.008-0.020 0.005-0.003 0.008-0.005 0.010-0.005-0.020 0-0.013-0.005-0.033 0.005-0.010-0.025-0.018-0.028-0.046-0.053v-0.005c0.020 0.010 0.046 0.020 0.068 0.033-0.003-0.020-0.003-0.040-0.005-0.066 0.030 0.025 0.058 0.046 0.086 0.066 0.003-0.008 0.003-0.013 0.003-0.020 0.124-0.035 0.249-0.028 0.345-0.058-0.020-0.018-0.041-0.038-0.061-0.061 0.005-0.003-0.692-0.387-1.504-0.372-0.522 0.005-2.412 0.651-3.9 1.403-1.141 0.575-2.014 1.294-2.072 1.344-0.451 0.397-0.888 0.879-1.118 1.471-0.028 0.025-0.056 0.061-0.079 0.091-0.020 0.035-0.152 0.377-0.155 0.392 0.025 0.005 0.048 0.008 0.063 0.008-0.010 0.099 0.053 0.099 0.023 0.225-0.038 0.175-0.165 0.395-0.221 0.587-0.013 0.043-0.051 0.142-0.043 0.192 0.015 0.066 0.038 0.157 0.015 0.243-0.028 0.048-0.061 0.094-0.086 0.144-0.033 0-0.046 0.010-0.084 0h-0.010c-0.010 0.099 0.028 0.157 0.023 0.246 0.025 0 0.015 0 0.036-0.013 0.058 0.154 0.028 0.324-0.084 0.433 0.033 0.149 0.109 0.23 0.084 0.456v0.005c0.005 0.003 0.008 0.003 0.013 0.005 0.132-0.139 0.099-0.122 0.114-0.296-0.005-0.018-0.010-0.038-0.015-0.053-0.010 0.015-0.023 0.030-0.038 0.046 0 0-0.003 0-0.005 0.003-0.018-0.116 0.096-0.4 0.122-0.522 0.015-0.081-0.028-0.215-0.010-0.309 0.053-0.22 0.076-0.696 0.261-0.833 0.005 0.015 0.015 0.030 0.025 0.046 0.010-0.008 0.020-0.013 0.028-0.018 0.038 0.129-0.122 0.319-0.101 0.494-0.041 0.030-0.056 0.048-0.081 0.094l0.020 0.020c0.010-0.018 0.025-0.030 0.038-0.046 0 0.046-0.020 0.182 0.023 0.228 0.013 0.018-0.003 0.005 0.023 0.005 0.005 0.003 0.010 0.008 0.015 0.010-0.025 0.048-0.046 0.076-0.046 0.152 0.015 0.013 0.008 0.013 0.036 0.020-0.005 0.028-0.013 0.056-0.020 0.089 0.013-0.003 0.023-0.003 0.038-0.008 0 0.101-0.038 0.132-0.091 0.197 0.013 0.091 0.056 0.114 0.096 0.18-0.030 0.030-0.028 0.048-0.038 0.096 0.071 0.094 0.162 0.749 0.028 0.843-0.030 0.046-0.033 0.035-0.013 0.084-0.028 0.033-0.043 0.030-0.074 0.043-0.101 0.248 0.122 0.316 0.127 0.519 0.015 0.010 0.033 0.020 0.051 0.033 0 0 0.827-0.028 1.314-0.040 0.018 0-0.033-0.015-0.056-0.038-0.028-0.018-0.122-0.519-0.101-0.587 0.018-0.025 0.033-0.056 0.048-0.081-0.074-0.157 0.038-0.322 0.101-0.461 0.053-0.122 0.104-0.248 0.155-0.37 0.046-0.056 0.139-0.043 0.165-0.147 0.018-0.071-0.013-0.134 0.023-0.22 0.035-0.084 0.119-0.109 0.117-0.213 0.048 0.008 0.132-0.033 0.137-0.073 0.008-0.008 0.015-0.020 0.025-0.035 0 0.030 0 0.020-0.010 0.043 0.035-0.013 0.023-0.020 0.041-0.015 0.010-0.013 0.023-0.028 0.033-0.040l-0.023-0.038c0.129 0.013 0.221-0.033 0.332-0.101 0.066 0.020 0.046-0.028 0.041-0.063 0.013-0.025 0.030-0.033 0.056-0.046 0.003 0.003 0.005 0.005 0.008 0.005-0.010 0.013-0.020 0.025-0.028 0.038 0.008 0.003 0.018 0.008 0.028 0.010 0.033 0.028 0.15-0.040 0.218-0.033 0.068 0.010 0.218 0.066 0.266 0.091h0.023v-0.028c-0.015 0-0.033-0.003-0.048-0.003-0.003-0.008-0.005-0.018-0.005-0.023 0.018-0.005 0.035-0.013 0.053-0.020 0.008 0.025 0.051 0.066 0.074 0.101-0.003 0.003-0.005 0.005-0.013 0.008-0.005 0.008-0.010 0.015-0.013 0.023 0.023 0.018 0.046 0.033 0.068 0.051 0.038-0.015 0.071-0.028 0.101-0.038 0.005 0.013 0.010 0.028 0.015 0.046 0.051-0.013 0.056-0.038 0.091-0.068 0.028 0.030 0.053 0.076 0.091 0.099 0.008 0.003 0.015 0.010 0.023 0.013 0.003 0 0.005 0 0.010-0.003 0.008-0.010 0.018-0.025 0.030-0.038-0.025-0.025-0.053-0.043-0.079-0.068l-0.010-0.013c0.020-0.030 0.035-0.038 0.081-0.046 0.013-0.023 0.008-0.023 0.008-0.061-0.020 0.010-0.041 0.020-0.063 0.030h-0.005c-0.005-0.005-0.010-0.013-0.015-0.020 0.114-0.076 0.249-0.058 0.37-0.035l0.023-0.051c0.008-0.005 0.013-0.010 0.023-0.015v0.094c0.16 0.023 0.284-0.046 0.408 0.084 0.030 0.033 0.028 0.089 0.043 0.101zM23.478 4.925l0.015-0.008h0.023l-0.038 0.015v-0.008zM26.283 4.586h0.018c0.013 0.023-0.003 0.013-0.023 0.015 0.003-0.003 0.003-0.010 0.005-0.015zM26.24 4.606c0.013 0 0.028 0 0.038 0.003 0 0.008 0.003 0.015 0.005 0.018v0.008c-0.028 0-0.061 0-0.091-0.003 0.015-0.008 0.030-0.015 0.048-0.025zM25.644 4.553c-0.041 0.008-0.091 0.015-0.132 0.020-0.010-0.005-0.015-0.013-0.028-0.015 0.005-0.010 0.005-0.020 0.013-0.030 0.048 0.010 0.101 0.018 0.147 0.025zM27.3 3.52v0.005c-0.008 0.008-0.018 0.010-0.025 0.015-0.015-0.020-0.008-0.008-0.008-0.030 0.010 0 0.023 0.008 0.033 0.010zM26.73 3.373c0.018-0.008 0.038-0.010 0.056-0.015 0.068 0.010 0.142 0.023 0.216 0.030-0.089 0.008-0.19 0.025-0.294 0.030 0.018-0.033 0.018 0.003 0.023-0.046zM15.63 5.687c-0.003 0.003-0.008 0.003-0.010 0.003 0.015-0.076 0.051-0.132 0.074-0.215 0.051 0.096-0.030 0.157-0.063 0.213zM16.87 8.229v0.008c-0.010 0-0.018 0-0.028 0.003v-0.058c0.018 0.013 0.020 0.025 0.028 0.048zM19.023 6.457c-0.041 0-0.074 0.010-0.124 0 0.013-0.035 0.033-0.038 0.061-0.056 0.023 0.015 0.038 0.033 0.063 0.051v0.005zM25.089 1.163c0.015-0.015 0.028-0.025 0.041-0.038v-0.023c-0.068-0.015-0.119-0.040-0.221-0.038-0.030 0.010-0.066 0.025-0.099 0.035-0.003 0.013-0.003 0.025-0.005 0.038v0.005c0.051 0.025 0.21 0.061 0.284 0.020zM24.082 1.383c-0.030-0.023-0.084-0.033-0.129-0.030 0.008-0.015 0.015-0.033 0.023-0.053-0.056-0.038-0.172-0.068-0.213-0.124-0.023-0.028 0.003-0.061-0.038-0.081-0.008 0.005-0.010 0.013-0.015 0.020-0.139-0.013-0.294 0.053-0.335 0.144-0.066 0-0.137 0-0.17 0.030 0.035 0.028 0.142 0.018 0.195 0.020-0.013 0.008-0.025 0.015-0.033 0.020-0.008 0.015-0.018 0.025-0.025 0.038 0.109 0.020 0.289-0.010 0.363-0.053 0.038 0.013 0.079 0.023 0.124 0.035-0.013 0.003-0.025 0.005-0.041 0.010 0.068 0.063 0.193 0.066 0.325 0.058-0.010-0.013-0.020-0.025-0.030-0.035zM23.674 1.175c0.005-0.015 0.013-0.028 0.018-0.038 0.010 0.005 0.015 0.010 0.023 0.015h0.015c-0.015 0.008-0.038 0.015-0.056 0.023zM26.324 1.342c-0.005 0.003-0.008 0.008-0.008 0.010h0.013c0-0.003-0.005-0.005-0.005-0.010zM23.473 1.459c0.003 0.015 0.005 0.030 0.005 0.051 0.114-0.013 0.218-0.008 0.314-0.038 0.003-0.003 0.008-0.010 0.010-0.013-0.071-0.008-0.142-0.023-0.208-0.033-0.043 0.010-0.079 0.025-0.122 0.033zM24.485 1.449c-0.018-0.005-0.033-0.010-0.051-0.015 0 0.008 0 0.015-0.005 0.020 0.020 0.003 0.038 0.003 0.056 0.003v-0.008zM24.298 1.487c0.015 0.015 0.035 0.030 0.053 0.046 0.020 0.003 0.041 0.005 0.063 0.005 0.005 0 0.005-0.003 0.008-0.005v-0.020c-0.038-0.015-0.074-0.028-0.119-0.038 0 0.005-0.003 0.008-0.005 0.013zM24.526 1.54h0.033c0.003-0.005 0.003-0.010 0.008-0.013-0.005-0.013-0.015-0.023-0.023-0.033-0.028-0.005-0.051-0.008-0.074-0.013 0.013 0.033 0.030 0.038 0.056 0.058zM24.006 1.558c-0.025 0.005-0.051 0.018-0.076 0.025-0.003 0.010-0.008 0.020-0.013 0.028 0.008 0.015 0.013 0.028 0.020 0.038 0.053 0.010 0.084-0.020 0.132-0.038 0.008-0.008 0.015-0.018 0.023-0.025-0.028-0.020-0.038-0.025-0.086-0.028zM25.155 1.606v-0.008h-0.020v0.013c0.008-0.003 0.015-0.003 0.020-0.005zM24.881 1.687c-0.020-0.018-0.058-0.028-0.086-0.033 0.010 0.020 0.028 0.023 0.056 0.033h0.030zM24.095 1.78v-0.005l-0.053-0.008c0.003 0.005 0.008 0.008 0.013 0.013h0.041zM31.185 2.277c-0.013 0-0.025 0.003-0.038 0.003 0.008 0.010 0.015 0.018 0.023 0.023-0.079 0.015-0.18-0.035-0.264-0.058-0.003 0.005-0.005 0.008-0.010 0.010 0.008 0.010 0.013 0.018 0.018 0.030-0.038-0.028-0.066-0.058-0.119-0.068v0.005c0.013 0.018 0.025 0.035 0.041 0.051v0.008c-0.038-0.013-0.028-0.020-0.058 0.005-0.084-0.071-0.155-0.165-0.294-0.18 0.013 0.015 0.023 0.028 0.033 0.043-0.015-0.013-0.035-0.020-0.056-0.028-0.023 0.015-0.043 0.033-0.061 0.051 0 0.003-0.003 0.010-0.005 0.015 0.094 0.020 0.193 0.046 0.289 0.071-0.051 0.035-0.099 0.020-0.18 0.008 0 0.003-0.003 0.005-0.008 0.008 0.005 0.005 0.008 0.008 0.008 0.015 0.134 0.028 0.19 0.068 0.284 0.116 0.003 0.005 0.005 0.005 0.008 0.010-0.028-0.005-0.053-0.008-0.076-0.015-0.003 0.005-0.005 0.005-0.005 0.008 0.003 0.008 0.008 0.018 0.010 0.028 0.203 0.056 0.7 0.299 0.867 0.104v-0.008c-0.089-0.053-0.216-0.137-0.269-0.205-0.063 0.015-0.084-0.020-0.137-0.048zM25.38 1.986c-0.005 0-0.010-0.003-0.015-0.003v0.013c0.005-0.005 0.010-0.008 0.015-0.010zM26.096 2.041c-0.018-0.015-0.010-0.013-0.033-0.018 0.010 0.023 0.005 0.018 0.033 0.025v-0.008zM26.118 2.061v0.008c0.025 0.023 0.056 0.046 0.096 0.058 0.010-0.013 0.025-0.018 0.038-0.030-0.005-0.010-0.015-0.025-0.020-0.038-0.023-0.008-0.043-0.010-0.061-0.018-0.008 0.025-0.003 0.023-0.053 0.020zM25.586 2.107c-0.003 0.005-0.010 0.013-0.015 0.020 0.028 0.023 0.071 0.018 0.104 0.010 0.005-0.005 0.008-0.010 0.010-0.015-0.013-0.008-0.025-0.013-0.038-0.023-0.010-0.003-0.020-0.005-0.035-0.008-0.008 0.005-0.013 0.010-0.025 0.015zM37.2 8.495h0.010c-0.041-0.076-0.074-0.154-0.114-0.228 0.008 0.008 0.018 0.020 0.025 0.030 0.008 0.003 0.013 0.005 0.015 0.008v-0.015c0.008-0.035-0.041-0.081-0.061-0.114l0.015-0.008c0.015 0.020 0.038 0.038 0.053 0.056h0.008c-0.013-0.030-0.023-0.061-0.038-0.094 0.028 0.028 0.051 0.056 0.079 0.081-0.033-0.081-0.134-0.246-0.218-0.284 0.010-0.028 0-0.018 0.025-0.013-0.023-0.094-0.16-0.175-0.175-0.319h0.005c0.013 0.079 0.066 0.061 0.101 0.089 0.005 0.003 0.005 0.003 0.008 0.003-0.028-0.038-0.061-0.084-0.089-0.124 0.018-0.010 0.028-0.020 0.046-0.033 0.035-0.025 0.061 0.053 0.109 0.053 0.005 0.033 0.010 0.035 0.015 0.071 0.008-0.091-0.003-0.205-0.020-0.238-0.038-0.046-0.061-0.111-0.099-0.165-0.112-0.19-0.19-0.342-0.274-0.554-0.020-0.056-0.702-1.114-1.565-1.922-0.89-0.83-1.973-1.418-1.955-1.42-0.025 0.025-0.041 0.046-0.079 0.061 0.003 0.046-0.008 0.046 0.013 0.073-0.020 0.008-0.035 0.020-0.066 0.033 0.028 0.043 0.063 0.066 0.091 0.101 0.005 0.025 0.008 0.051 0.015 0.073 0.068 0.104 0.208 0.157 0.266 0.279 0.033 0.013 0.030 0 0.056-0.018 0.015 0.033 0.023 0.061 0.033 0.094 0.033 0.043 0.233 0.154 0.309 0.111 0.030-0.020 0.033-0.071 0.018-0.116 0.015-0.005 0.028-0.013 0.041-0.020-0.005-0.013-0.010-0.023-0.015-0.035v-0.003c0.21 0.096 0.312 0.352 0.533 0.441 0.010 0.025 0.020 0.053 0.030 0.081-0.033 0.008-0.041 0.030-0.056 0.058 0.038 0.053 0.089 0.094 0.155 0.127-0.018 0.028-0.010 0.013-0.048 0.005v0.005c0.013 0.025 0.028 0.033 0.058 0.051 0.013 0 0.030 0.003 0.043 0.003v-0.056c-0.023-0.018-0.048-0.066-0.084-0.079 0-0.025-0.005-0.010 0.015-0.025-0.015-0.018-0.023-0.040-0.043-0.053 0.015 0.015 0.028 0.033 0.043 0.053 0.010 0.013 0.028 0.023 0.038 0.040 0.030 0 0.056 0 0.086 0.003 0.003 0.003 0.005 0.003 0.008 0.003 0-0.008-0.003-0.015-0.003-0.020-0.018-0.023-0.038-0.048-0.053-0.073 0.008-0.023 0.008-0.010 0.005-0.033 0.025 0.003 0.051 0.005 0.081 0.010-0.010-0.018-0.020-0.035-0.033-0.056 0.018 0.013 0.312 0.279 0.297 0.286-0.038 0.023-0.028 0.040-0.020 0.081-0.010 0.005-0.023 0.010-0.033 0.013-0.053 0.063-0.066 0.005-0.129 0-0.025-0.025-0.013-0.010-0.008-0.035-0.023-0.018-0.043-0.040-0.063-0.061 0 0.015 0 0.030 0.003 0.048-0.015-0.005-0.030-0.010-0.048-0.013 0.008 0.043-0.010 0.025-0.020 0.079l-0.035-0.008c-0.015-0.015-0.023-0.051-0.023-0.068-0.018-0.018-0.010-0.018-0.038-0.025 0.005 0.013 0.010 0.023 0.015 0.030-0.058 0.005-0.106-0.048-0.152-0.084-0.013-0.005 0-0.005 0.010-0.013-0.018-0.023-0.028-0.025-0.068-0.033-0.003-0.008-0.005-0.013-0.005-0.018 0-0.003 0.003-0.008 0.003-0.013 0.056 0.030 0.104 0.063 0.155 0.094-0.030-0.068-0.099-0.162-0.183-0.139-0.018-0.023-0.020-0.076-0.043-0.106 0.010 0.005 0.020 0.010 0.028 0.013 0-0.008 0.003-0.020 0.008-0.033-0.068-0.076-0.167-0.122-0.205-0.233-0.015 0.008-0.025 0.013-0.041 0.020 0.005 0.023 0.013 0.046 0.018 0.063-0.010 0-0.020-0.003-0.033-0.003-0.013 0.005-0.025 0.015-0.038 0.020 0.030 0.132 0.294 0.332 0.284 0.392 0.013 0.003 0.030 0.005 0.048 0.008 0.033 0.056 0.063 0.086 0.099 0.139-0.030 0.013-0.020-0.005-0.015 0.043-0.043-0.013-0.051-0.020-0.112-0.020v0.035c-0.030 0.005-0.068 0.008-0.104 0.008-0.003 0.010-0.008 0.023-0.013 0.035 0.010 0.018 0.020 0.035 0.028 0.051 0.033 0.015 0.023 0.013 0.056 0.003 0.018 0.038 0.033 0.046 0.028 0.086-0.015 0.025-0.005 0.015-0.033 0.005h-0.008c0.008 0.051 0.005 0.058 0.030 0.091-0.018-0.003-0.041-0.005-0.061-0.008-0.028-0.073-0.048-0.152-0.076-0.225-0.003 0-0.008-0.003-0.013-0.008h-0.010c0.028 0.099 0.106 0.261 0.051 0.311-0.041 0.040-0.114 0.046-0.147 0.089l0.058 0.134c-0.020 0.025-0.038 0.035-0.081 0.043-0.020 0.025-0.038 0.046 0 0.071-0.005 0.008-0.013 0.015-0.020 0.023-0.094 0.018-0.193-0.063-0.259-0.084l-0.008 0.008c0.041 0.061 0.094 0.096 0.122 0.172 0.008 0.008 0.015 0.018 0.020 0.025v0.005c-0.061-0.010-0.094-0.018-0.134 0.013-0.030-0.023-0.058-0.043-0.089-0.068-0.051 0.030-0.129 0.018-0.172 0.063h-0.013c0.010 0.061 0.058 0.051 0.096 0.086l-0.043 0.008c0.079 0.073 0.193 0.051 0.302 0.094 0.005 0 0.358 0.324 0.36 0.342-0.013-0.010-0.023-0.018-0.041-0.028 0 0.003-0.003 0.003-0.005 0.008 0.086 0.119 0.185 0.296 0.185 0.524-0.127 0.046-0.431-0.038-0.596-0.061-0.046-0.005-0.16 0.048-0.226 0.023-0.035-0.013-0.048-0.038-0.099-0.028-0.041-0.010-0.061 0.040-0.043 0.073-0.035 0.013-0.084 0.018-0.099 0.040-0.010 0.008-0.018 0.013-0.028 0.020 0.005 0.073 0.046 0.068 0.058 0.127 0.020-0.003 0.015 0 0.038-0.020 0.018 0.132 0.091 0.223 0.132 0.339 0.041 0.106 0.018 0.42-0.008 0.524 0.035 0.030 0.056 0.051 0.084 0.084 0.015-0.008 0.028-0.018 0.043-0.025 0.035 0.099 0.068 0.2 0.063 0.36 0.066-0.028 0.152 0.015 0.193 0.003 0.025-0.010 0.041-0.043 0.079-0.053 0.129-0.056 0.19 0.243 0.33 0.273 0.030-0.033 0.137-0.132 0.145-0.159 0.101-0.005 0.17-0.013 0.251 0.010 0.005-0.010 0.008-0.023 0.013-0.030 0.046 0.005 0.046 0.008 0.071 0.023 0.020-0.048 0.038-0.137 0.061-0.182 0.025-0.013 0.035-0.018 0.079-0.018 0-0.040-0.030-0.109-0.005-0.18 0.013-0.046 0.051-0.048 0.063-0.101-0.223-0.154-0.020-0.347-0.086-0.466 0.041-0.056 0.079-0.035 0.132-0.079 0.035-0.023 0.071-0.089 0.096-0.122-0.013-0.079-0.137-0.2-0.112-0.286 0.008-0.025 0.048-0.040 0.061-0.068 0.117 0.035 0.185 0.086 0.284 0.122 0.051-0.043 0.038-0.132 0.127-0.144 0.008-0.035 0.015-0.071 0.020-0.099v-0.018c0.2 0.035 0.317 0.306 0.418 0.446 0 0 0.274 0.263 0.287 0.271 0.010 0.005 0.041-0.013 0.063 0.005 0.018 0.033 0.035 0.061 0.056 0.089 0.21 0.2 0.274 0.261 0.365 0.567-0.020 0.010-0.063 0.018-0.086 0.051-0.071-0.003-0.071-0.010-0.114-0.046-0.015 0.015-0.013 0.010-0.018 0.035-0.008-0.005-0.018-0.013-0.028-0.023h-0.005c-0.005 0.033-0.013 0.066 0.005 0.099 0.015 0.025 0.279 0.238 0.312 0.251h0.008c-0.015-0.116-0.074-0.17-0.074-0.311 0.015 0.013 0.030 0.025 0.043 0.038h0.010c0.018-0.061 0-0.137-0.023-0.182 0.005-0.040 0.003-0.028 0.033-0.046-0.030-0.089-0.071-0.104-0.117-0.165-0.015-0.058-0.033-0.111-0.048-0.17 0.008-0.003 0.013-0.008 0.015-0.015 0.033 0.051 0.117 0.134 0.162 0.167-0.041-0.162-0.198-0.299-0.335-0.367-0.018-0.028-0.023-0.046-0.023-0.101-0.043-0.020-0.074-0.003-0.124-0.038-0.106-0.089-0.152-0.223-0.238-0.334-0.074-0.094-0.21-0.132-0.243-0.261 0-0.018 0.005-0.033 0.005-0.048-0.020-0.043-0.061-0.053-0.076-0.104 0.041-0.005 0.038-0.020 0.061-0.048 0.010 0.003 0.020 0.003 0.030 0.003 0.025 0.038 0.079 0.142 0.101 0.185 0.005 0.005 0.010 0.008 0.015 0.010 0.003-0.018 0.003-0.030 0.003-0.048 0.013 0.028 0.025 0.048 0.038 0.076 0.010 0.008 0.015 0.013 0.025 0.018-0.013-0.025-0.023-0.048-0.030-0.068 0.068 0.023 0.094 0.144 0.127 0.187 0.056 0.061 0.137 0.101 0.183 0.147-0.008-0.003-0.018-0.005-0.025-0.008 0.020 0.033 0.030 0.046 0.048 0.073 0.015 0.003 0.028 0.003 0.038 0.005-0.010-0.013-0.023-0.025-0.038-0.033 0.005-0.005 0.013-0.008 0.018-0.008 0.015 0.010 0.030 0.023 0.041 0.033 0 0.008 0.005 0.010 0.005 0.015-0.010 0.005-0.025 0.008-0.038 0.013 0.028 0.028 0.025 0 0.061 0.015 0.084 0.046 0.216 0.185 0.264 0.261 0.038 0.106 0.081 0.213 0.124 0.324 0.046 0.094 0.162 0.185 0.203 0.281 0.018 0 0.003 0.003 0.020-0.005 0 0.008-0.018 0.040 0 0.073 0.023 0.033 0.066 0.078 0.117 0.086-0.010 0.038-0.015 0.025-0.015 0.089 0.048 0.071 0.104 0.142 0.132 0.241 0.008 0.005 0.013 0.008 0.020 0.013 0.003 0 0.005 0.003 0.010 0.003-0.008-0.015-0.013-0.035-0.018-0.053h0.008c0.023 0.040 0.038 0.076 0.056 0.116 0.003 0.003 0.005 0.005 0.010 0.008-0.005-0.020-0.008-0.043-0.010-0.063 0.010 0.018 0.028 0.038 0.041 0.058zM34.162 5.006c-0.003 0.005-0.013 0.010-0.018 0.013 0 0-0.003-0.003-0.008-0.005 0.005-0.005 0.008-0.010 0.008-0.015 0.005 0 0.015 0.003 0.018 0.003v0.005zM33.44 7.867c-0.003-0.010-0.003-0.025-0.005-0.040h0.015c-0.005 0.015-0.008 0.030-0.010 0.040zM34.218 4.973c0.003-0.005 0.008-0.010 0.008-0.013h0.015c-0.013 0.013 0 0.005-0.023 0.013zM34.801 4.93l-0.046-0.023c0.028 0.008 0.028 0.003 0.046 0.018v0.005zM35.788 6.578c-0.003-0.015-0.010-0.025-0.018-0.035 0.008 0.003 0.015 0.005 0.018 0.008v0.028zM37.051 8.14c-0.023-0.020-0.051-0.040-0.068-0.063 0.010 0.005 0.018 0.008 0.030 0.013 0.018 0.013 0.035 0.023 0.048 0.038-0.005 0.003-0.005 0.008-0.010 0.013zM22.779 2.639c0.018 0.046 0.134 0.081 0.185 0.091h0.010c0.008-0.028 0.003-0.041-0.008-0.068-0.041-0.023-0.089-0.030-0.15-0.035-0.015 0.005-0.025 0.008-0.038 0.013zM26.661 2.905h0.010c0-0.005 0.003-0.013 0.005-0.018-0.013-0.003-0.028-0.005-0.038-0.010 0.015 0.030-0.005 0.010 0.023 0.028zM27.052 3.249c-0.005-0.005-0.013-0.010-0.020-0.018 0.005 0.010 0.008 0.018 0.013 0.023h0.008v-0.005zM25.71 3.768c0.165 0.104 0.279 0.195 0.505 0.258 0.003 0 0.008-0.003 0.013-0.005v-0.023c-0.114-0.099-0.317-0.233-0.51-0.246-0.005 0.005-0.008 0.010-0.008 0.015zM27.587 3.874c0 0.008-0.003 0.013-0.008 0.018 0.030-0.008 0.010 0.008 0.028-0.018h-0.020zM33.199 5.282c0 0.068-0.043 0.142-0.101 0.2v0.013c0.043 0.005 0.046-0.005 0.081 0.023 0.020-0.033 0.013-0.053 0.071-0.068 0.035-0.013 0.081 0.013 0.117 0.018 0.003-0.020-0.005-0.071 0.015-0.084 0-0.003 0.238 0.018 0.249 0.020h0.020c-0.005-0.010-0.010-0.023-0.013-0.033 0.114 0.005 0.165 0 0.254-0.043 0.003-0.003 0.008-0.010 0.008-0.015-0.005-0.015-0.010-0.030-0.013-0.043-0.033-0.005-0.074-0.010-0.106-0.013 0.018-0.025 0.056-0.079 0.041-0.122-0.015-0.076-0.145-0.22-0.228-0.124-0.005-0.005-0.015-0.008-0.023-0.010-0.043-0.094-0.117-0.203-0.231-0.279-0.048-0.020-0.091-0.038-0.139-0.061-0.122-0.111-0.175-0.205-0.36-0.205 0.020-0.015 0.038-0.028 0.061-0.043-0.015-0.005-0.025-0.018-0.041-0.025 0.033-0.061-0.003-0.106 0.005-0.165-0.061-0.063-0.185-0.046-0.274-0.028 0-0.043 0.013-0.025-0.025-0.043 0.013-0.035 0.025-0.056 0.053-0.068-0.003-0.018-0.010-0.038-0.015-0.053-0.079-0.018-0.152 0.015-0.226-0.008-0.013 0.020-0.013 0.028 0.003 0.053-0.013 0.028-0.008 0.030 0.015 0.061-0.005 0-0.010 0.005-0.015 0.010-0.028-0.008-0.013-0.010-0.033 0.013 0.018 0.025 0.035 0.046 0.048 0.071v0.005c-0.030-0.023-0.068-0.043-0.099-0.066-0.013 0.028-0.008 0.010-0.028 0.040 0.035 0.040 0.119 0.068 0.155 0.073 0.005 0.008 0.010 0.018 0.018 0.023-0.015 0.010-0.028 0.018-0.035 0.025 0.013 0.040 0.025 0.040 0.018 0.079 0.028 0 0.053-0.003 0.079-0.005 0.003-0.013 0.005-0.025 0.008-0.035v-0.018h0.005c0.015 0.079 0.058 0.137 0.079 0.223h0.030c0.003-0.005 0.005-0.013 0.008-0.018-0.005-0.010-0.010-0.023-0.013-0.035 0.013 0.010 0.028 0.018 0.043 0.028h0.005c-0.005-0.023-0.015-0.046-0.023-0.068 0.020 0.013 0.043 0.028 0.063 0.038 0.015 0.038 0.015 0.071 0.003 0.109 0.020 0.018 0.043 0.038 0.063 0.058h0.013c-0.010-0.008-0.015-0.020-0.020-0.030v-0.008c0.025 0.010 0.048 0.020 0.068 0.030v-0.030c0.051 0.020 0.071 0.005 0.104-0.023 0.056 0.066 0.030 0.165 0.15 0.142 0.003 0.063 0.020 0.084 0.043 0.124-0.058 0.048-0.117 0.013-0.183 0.003 0.013 0.046 0.028 0.038 0.056 0.061-0.008 0.013-0.020 0.023-0.030 0.038 0.005 0.005 0.008 0.010 0.008 0.013 0.020-0.005 0.041-0.013 0.058-0.023 0.023 0.028 0.043 0.053 0.063 0.079-0.010 0.048-0.048 0.068-0.096 0.076-0.008 0.008-0.013 0.013-0.023 0.018 0.028 0.023 0.051 0.046 0.076 0.066 0.081-0.043 0.152 0.010 0.238 0.038 0.023-0.005 0.041-0.015 0.058-0.028-0.008 0.025-0.005 0.025-0.003 0.051h-0.155zM32.61 4.512c0-0.013-0.003-0.020-0.003-0.030h0.013c0.008 0.008 0.010 0.015 0.015 0.020-0.008 0.003-0.018 0.008-0.025 0.010zM27.564 3.96l0.008-0.023c-0.035-0.013-0.079-0.025-0.119-0.035-0.041 0-0.089 0-0.134 0.003-0.025 0.005-0.109 0.053-0.15 0.076-0.081 0.038-0.117 0.139-0.221 0.167-0.013 0.028-0.010 0.020 0 0.051v0.003c-0.030-0.003-0.023 0-0.035-0.013-0.051 0.013-0.074 0.040-0.099 0.076 0.015 0.013 0.028 0.025 0.043 0.038-0.058-0.013-0.139 0.025-0.21 0.033 0.008 0.028 0.013 0.051 0.018 0.076 0.124 0.030 0.629 0.129 0.667 0.175h-0.030c0.048 0.018 0.101 0.038 0.147 0.053 0.015-0.013 0.013-0.008 0.018-0.033 0.030 0.015 0.066 0.025 0.094 0.040-0.056 0.023-0.122 0.043-0.228 0.033-0.003 0.013-0.005 0.020-0.008 0.030 0.155 0.058 0.287-0.013 0.421-0.058 0.010 0.015 0.018 0.033 0.030 0.046-0.005 0.058-0.041 0.079-0.081 0.106 0.013 0.028 0.010 0.020 0.035 0.033 0.033-0.008 0.068-0.020 0.107-0.028-0.018 0.025-0.025 0.033-0.025 0.086 0.041 0.013 0.071 0.018 0.112 0.028 0.053-0.028 0.071-0.086 0.122-0.116 0-0.023-0.003-0.043-0.008-0.063-0.041-0.010-0.046 0.025-0.104 0.033-0.005-0.013-0.008-0.020-0.008-0.030 0.023-0.028 0.046-0.048 0.081-0.061 0-0.005 0.003-0.010 0.005-0.018-0.003 0-0.005-0.005-0.005-0.008-0.094 0.008-0.117 0.028-0.165 0.068l-0.015-0.030c-0.020-0.005-0.005 0.005-0.025-0.008 0.058-0.048 0.165-0.073 0.18-0.094 0.008-0.005 0.013-0.010 0.015-0.015-0.028-0.030-0.109-0.023-0.16-0.030 0.018-0.046 0.003-0.013-0.008-0.073 0.041-0.008 0.056-0.013 0.079-0.040-0.043-0.043-0.127-0.091-0.19-0.073-0.030-0.033-0.008-0.051-0.056-0.071-0.018 0.010 0 0.015-0.020 0.008-0.005 0.020-0.008 0.010 0.008 0.028-0.015 0-0.028-0.003-0.043-0.003-0.048 0.003-0.033 0.005-0.028-0.035-0.033 0.005-0.023-0.003-0.028 0.018-0.025-0.013-0.043-0.020-0.076-0.020 0.005-0.010 0.010-0.015 0.015-0.023-0.028-0.013-0.010-0.010-0.038-0.003l-0.013-0.018v-0.030c0.030 0 0.058 0 0.091-0.003v-0.008c-0.048-0.030-0.094-0.028-0.145-0.073-0.043 0.023-0.089 0.040-0.134 0.058 0.023-0.076 0.152-0.142 0.223-0.162 0.013-0.013 0.020-0.023 0.035-0.035-0.023-0.015-0.025-0.015-0.063-0.020v-0.015c0.041 0.010 0.071 0.020 0.104 0.020l0.015-0.015zM32.212 4.17c0.018-0.015 0.035-0.033 0.056-0.046-0.008-0.025-0.013-0.048-0.020-0.071-0.010-0.003-0.025-0.008-0.035-0.008-0.018 0.018-0.041 0.035-0.061 0.048 0.020 0.025 0.038 0.035 0.041 0.061l0.020 0.015zM27.518 4.044c0.003-0.003 0.008-0.010 0.013-0.013-0.005 0-0.010-0.003-0.013-0.003v0.015zM32.212 4.186l-0.028-0.015c-0.013 0.005-0.020 0.010-0.033 0.015 0.030 0.025 0.043 0.046 0.063 0.086 0.005 0.003 0.013 0.005 0.023 0.008-0.010-0.033-0.018-0.066-0.025-0.094zM27.531 4.084c0.003-0.003 0.008-0.005 0.013-0.008v-0.008c-0.013-0.003-0.023-0.005-0.035-0.010 0.008 0.010 0.015 0.018 0.023 0.025zM34.106 4.322c-0.010-0.023 0.005-0.010-0.020-0.020 0.005 0.005 0.010 0.013 0.013 0.018 0.003 0.003 0.005 0.003 0.008 0.003zM32.349 4.277c0.013 0.010 0.018 0.020 0.025 0.028 0.003-0.005 0.005-0.008 0.008-0.015-0.010-0.003-0.020-0.008-0.033-0.013zM32.215 4.3c0.005 0 0.015-0.003 0.023-0.008v-0.005h-0.023v0.013zM32.362 4.345v0.008c0 0.005 0.003 0.008 0.005 0.010h0.008c0.003-0.010 0.005-0.018 0.008-0.025h-0.015c-0.003 0.005-0.005 0.008-0.005 0.008zM32.334 4.363c0.003 0.010 0.003 0.015 0.003 0.023h0.013c-0.010-0.023 0-0.008-0.015-0.023zM26.724 4.231c-0.008 0-0.013 0.003-0.018 0.005l-0.005 0.023c0.033 0.005 0.071 0.010 0.104 0.013-0.010-0.013-0.023-0.028-0.035-0.040h-0.046zM27.751 4.31c0 0.010-0.005 0.020-0.008 0.028 0.020 0.003 0.041 0.003 0.061 0.005-0.015-0.035-0.010-0.030-0.053-0.033zM32.511 4.525c0.018-0.015 0.030-0.073 0.003-0.101-0.013 0.030-0.018 0.040-0.056 0.053 0.013 0.040 0.023 0.033 0.053 0.048zM32.461 4.431c0 0.005-0.003 0.005-0.003 0.008v0.008c0.003 0.003 0.010 0.005 0.013 0.008 0.005-0.003 0.008-0.005 0.008-0.010-0.003-0.003-0.010-0.008-0.018-0.013zM25.637 4.251c-0.028 0.010-0.061 0.023-0.086 0.033-0.005 0.005-0.005 0.008-0.008 0.015 0.084 0.071 0.152 0.111 0.261 0.152 0.025 0.015 0.013 0 0.015 0.023 0.018 0.023 0.033 0.025 0.061 0.038 0.068-0.013 0.061-0.048 0.16-0.046 0.003 0 0.005-0.003 0.005-0.010v-0.005c-0.051-0.023-0.36-0.091-0.36-0.091-0.028-0.018-0.015 0-0.023-0.038-0.033-0.030-0.018-0.018-0.005-0.063-0.010-0.005-0.015-0.008-0.020-0.008zM32.664 4.806c0.048-0.013 0.046-0.038 0.074-0.053v-0.035c-0.051-0.053-0.099-0.053-0.145-0.119-0.056-0.028-0.096-0.018-0.142 0.018 0.005-0.018 0.003-0.010 0.013-0.030-0.020-0.008-0.046-0.018-0.063-0.028-0.023 0.025-0.063 0.038-0.112 0.040-0.010 0.046-0.008 0.048-0.033 0.081 0.030 0.023 0.056 0.023 0.089 0.013-0.013 0.035-0.025 0.028-0.028 0.058-0.068 0.003-0.134 0.003-0.205 0.005 0.005 0.043 0.013 0.013 0.030 0.043-0.005 0.005-0.015 0.008-0.023 0.010 0.028 0.025 0.058 0.023 0.099 0.023-0.023 0.025-0.025 0.028-0.051 0.056 0.058 0.073 0.109 0.030 0.198 0.053-0.053 0.033-0.038 0.033-0.041 0.084-0.028 0.030-0.025 0.020 0 0.043-0.018 0.038-0.013 0.015-0.005 0.056-0.018 0-0.038-0.003-0.061-0.003-0.003 0.013-0.010 0.028-0.015 0.035 0.033-0.003 0.058-0.005 0.081-0.010-0.015 0.010-0.028 0.020-0.048 0.030 0.091 0.215 0.403-0.061 0.543-0.056-0.005-0.099-0.053-0.253-0.15-0.299 0-0.005-0.003-0.013-0.005-0.015zM27.863 4.5c0-0.003-0.008-0.008-0.013-0.015-0.003 0.008-0.005 0.015-0.010 0.023 0.010-0.003 0.018-0.005 0.023-0.008zM34.624 4.659c0.003 0.015 0.008 0.028 0.010 0.038 0.018 0.005 0.035 0.013 0.056 0.018-0.020-0.030-0.033-0.040-0.066-0.056zM24.916 4.525c0.008 0.003 0.010 0.003 0.015 0.008 0.020-0.015 0.018-0.005 0.028-0.035h-0.020c-0.008 0.013-0.015 0.020-0.023 0.028zM32.841 4.763c0.005 0.008 0.008 0.018 0.010 0.023 0.010 0 0.023-0.003 0.041-0.005 0-0.010 0.003-0.018 0.005-0.025-0.013-0.010-0.028-0.023-0.041-0.033-0.005 0.010-0.010 0.028-0.015 0.040zM24.488 4.527c-0.005-0.008-0.013-0.013-0.020-0.018-0.008 0.023-0.008 0.013 0.008 0.033l0.013-0.015zM24.526 4.538h-0.015c-0.003 0.003-0.003 0.008-0.003 0.013 0.005-0.005 0.013-0.010 0.018-0.013zM27.239 4.646c0.005 0.010 0.010 0.020 0.015 0.033l0.013-0.018c-0.010-0.005-0.018-0.010-0.028-0.015zM27.744 4.679h-0.023c-0.013 0.005-0.023 0.013-0.033 0.020-0.003 0.005-0.003 0.015-0.008 0.020 0.008 0 0.015 0 0.023 0.003 0.015-0.008 0.028-0.015 0.041-0.023v-0.020zM27.229 4.7c0.010 0.003 0.018 0.005 0.025 0.008 0.003-0.003 0.008-0.005 0.013-0.008-0.010-0.003-0.018-0.010-0.028-0.015-0.003 0.005-0.008 0.010-0.010 0.015zM27.267 4.707v0.015c0.008-0.005 0.010-0.008 0.015-0.013-0.005-0.003-0.008-0.003-0.015-0.003zM34.129 5.044v0.023h0.018c-0.010-0.020 0-0.008-0.018-0.023zM24.064 4.816h-0.010v0.018c0.003-0.005 0.005-0.010 0.010-0.018zM23.866 4.925v0.015c0.028 0 0.053 0.003 0.079 0.003v-0.003c-0.015-0.023-0.008-0.020-0.041-0.030-0.010 0.005-0.023 0.010-0.038 0.015zM23.623 4.94c-0.015-0.013 0-0.003-0.023-0.013l0.015 0.013h0.008zM24.036 4.993h0.008c0-0.008 0.003-0.013 0.005-0.018-0.015-0.013-0.013-0.010-0.046-0.015-0.003 0.005-0.005 0.010-0.010 0.015 0.013 0.005 0.028 0.008 0.043 0.018zM22.388 5.884c-0.008-0.005-0.013-0.010-0.018-0.018-0.003 0.008-0.003 0.013-0.003 0.018h0.020zM15.419 6.444c0.003 0.005 0.005 0.010 0.008 0.013h0.005c0.010-0.035 0.023-0.068 0.036-0.106-0.008-0.005-0.020-0.008-0.025-0.013-0.010 0.038-0.015 0.076-0.023 0.106zM18.044 6.522l0.030-0.013c-0.005-0.003-0.010-0.008-0.013-0.008-0.008 0.008-0.013 0.015-0.018 0.020zM36.138 7.044c-0.008-0.023 0.003-0.010-0.013-0.023v0.023h0.013zM35.653 7.32c0.005 0.005 0.010 0.010 0.013 0.018h0.010c-0.005-0.109-0.058-0.306-0.132-0.349 0.008 0.020 0.015 0.038 0.020 0.056-0.013 0.005-0.028 0.013-0.046 0.020 0.003 0.096 0.068 0.218 0.134 0.256zM35.653 7.029c-0.005 0.003-0.010 0.003-0.013 0.005v0.023h0.035c-0.010-0.020-0.005-0.013-0.023-0.028zM15.079 7.464c0 0.008-0.003 0.010-0.003 0.015 0.003 0.010 0.010 0.018 0.018 0.025h0.005c-0.003-0.033 0.003-0.030-0.020-0.040zM35.686 7.365c-0.005 0.025-0.008 0.046-0.013 0.071-0.030 0.015-0.020 0.015-0.061 0 0.005 0.086 0.094 0.165 0.122 0.238 0.028 0.053 0.008 0.119 0.025 0.165 0.028 0.018 0.033 0.043 0.094 0.053 0-0.023-0.005-0.043-0.005-0.066 0.018 0.003 0.018 0.008 0.041 0.020 0.003 0 0.005 0 0.008 0.003-0.025-0.175-0.101-0.354-0.188-0.473-0.008-0.003-0.015-0.005-0.023-0.010zM36.888 7.573c0.008 0.005 0.013 0.010 0.023 0.015-0.010-0.033-0.005-0.025-0.023-0.043v0.028zM36.967 7.634h0.008c-0.010-0.033 0-0.018-0.023-0.033 0.005 0.008 0.010 0.020 0.015 0.033zM36.919 7.74c0.008-0.005 0.013-0.018 0.020-0.023-0.010-0.013-0.023-0.025-0.038-0.038 0.008 0.010 0.013 0.023 0.018 0.035-0.010-0.008-0.023-0.018-0.030-0.023 0.008 0.015 0.020 0.030 0.030 0.048zM36.982 7.738c0.010 0.008 0.018 0.018 0.030 0.023v-0.025c-0.013-0.010-0.020-0.015-0.030-0.023v0.025zM37.056 7.945v0.020c0.008 0.008 0.018 0.010 0.028 0.018-0.010-0.015-0.020-0.028-0.028-0.038zM36.873 8.049v0.056c0.005 0.008 0.015 0.018 0.020 0.025 0.008 0 0.015 0.005 0.025 0.008 0-0.003 0.003-0.010 0.008-0.015-0.018-0.023-0.038-0.048-0.053-0.073zM36.932 8.201c0.010 0.010 0.018 0.015 0.028 0.023v-0.028c-0.010-0.008-0.023-0.015-0.033-0.025 0 0.010 0.003 0.023 0.005 0.030zM37.2 8.515c0.010 0.013 0.015 0.028 0.025 0.043 0.003-0.003 0.005-0.008 0.005-0.013-0.008-0.010-0.020-0.018-0.030-0.030zM26.232 21.118c0.005 0.008 0.013 0.015 0.015 0.018h0.033v-0.010c-0.005-0.005-0.018-0.013-0.028-0.023-0.005 0.008-0.013 0.010-0.020 0.015zM26.311 21.131c0.005-0.008 0.013-0.013 0.018-0.018h-0.018v0.018zM20.463 22.804c0.003 0.003 0.005 0.008 0.010 0.008 0.003 0 0.005-0.005 0.010-0.008-0.008-0.005-0.013-0.010-0.015-0.015-0.003 0.005-0.005 0.010-0.005 0.015zM20.757 23.513v-0.008h-0.033c0.015 0.020 0 0 0.025 0.013 0.003-0.003 0.005-0.005 0.008-0.005zM20.57 23.688h0.023v-0.008c-0.015-0.013-0.013-0.013-0.041-0.015 0.005 0.008 0.010 0.015 0.018 0.023zM20.603 23.842h0.023c-0.008-0.008-0.018-0.013-0.023-0.020v0.020zM20.671 23.941h0.013c-0.003-0.008-0.005-0.013-0.008-0.013 0 0 0 0.005-0.005 0.013zM22.099 25.523c0 0-0.003-0.005-0.005-0.005-0.005-0.003-0.013-0.008-0.018-0.008 0 0.008 0.003 0.005 0.023 0.013zM22.38 25.538l0.008-0.015c-0.030-0.005-0.061-0.010-0.096-0.013 0.020 0.028 0.056 0.023 0.089 0.028z"></path>
<path d="M25.28 0.026c-5.639 0-10.476 3.404-12.547 8.253 1.915-3.394 5.963-7.458 12.539-7.453 5.943 0.008 10.384 3.561 12.562 7.463-2.074-4.856-6.916-8.263-12.555-8.263z"></path>
<path d="M38.154 17.846c-1.759 5.361-6.698 9.538-12.954 9.538-6.637 0-11.098-4.117-12.893-9.422 1.87 4.94 6.939 8.485 12.9 8.485 6.012 0 11.114-3.598 12.946-8.601z"></path>
<path d="M2.126 17.231c-1.369 0-2.1-0.86-2.105-2.488l-0.021-3.749c0-0.038 0.033-0.076 0.077-0.081l1.189-0.111c0.026-0.005 0.049 0.005 0.062 0.020 0.021 0.018 0.031 0.038 0.031 0.058l0.018 3.701c0.003 0.814 0.319 1.233 0.937 1.233 0.049 0 0.098-0.003 0.152-0.008 0.731-0.073 1.099-0.555 1.094-1.45l-0.018-3.696c0-0.043 0.031-0.081 0.075-0.086l1.197-0.113c0.023 0 0.046 0.008 0.064 0.023s0.028 0.038 0.028 0.063l0.018 3.746c0.005 1.001-0.306 2.715-2.447 2.917-0.121 0.015-0.239 0.020-0.35 0.020z"></path>
<path d="M6.265 16.923c-0.023 0-0.040-0.008-0.053-0.023-0.018-0.015-0.028-0.036-0.028-0.059l-0.030-6.252c0-0.041 0.033-0.079 0.076-0.084l1.248-0.084c0.028 0 0.053 0.010 0.071 0.033l2.651 3.526-0.020-3.671c0-0.043 0.035-0.082 0.076-0.084l1.013-0.071c0.023 0 0.040 0.008 0.058 0.023 0.015 0.015 0.025 0.036 0.025 0.059l0.033 6.254c0 0.041-0.035 0.074-0.078 0.076l-1.039 0.074c-0.028 0.003-0.053-0.008-0.068-0.031l-2.863-3.824 0.020 3.985c0 0.043-0.033 0.079-0.076 0.082l-1.016 0.071z"></path>
<path d="M12.731 16.308c-0.022 0-0.042-0.010-0.057-0.023-0.015-0.015-0.022-0.033-0.022-0.059l-0.037-6.231c0-0.043 0.034-0.079 0.074-0.084l1.314-0.064c0.017-0.005 0.042 0.005 0.057 0.023 0.017 0.010 0.025 0.033 0.025 0.054l0.027 6.236c0.002 0.043-0.032 0.079-0.076 0.082l-1.302 0.064-0.002 0.003z"></path>
<path d="M17.755 16c-0.032 0-0.057-0.020-0.072-0.051l-2.6-6.11c-0.010-0.020-0.008-0.051 0.005-0.073 0.015-0.023 0.040-0.038 0.065-0.038l1.519-0.043c0.037 0 0.065 0.018 0.075 0.046l1.694 3.991 1.747-4.098c0.012-0.025 0.040-0.046 0.070-0.046l1.198-0.040c0.032 0.003 0.055 0.015 0.067 0.040 0.017 0.020 0.020 0.048 0.010 0.073l-2.667 6.269c-0.012 0.028-0.040 0.046-0.070 0.046l-1.040 0.033z"></path>
<path d="M22.584 16c-0.048 0-0.082-0.036-0.082-0.082l-0.041-6.292c0-0.021 0.010-0.041 0.026-0.059 0.018-0.015 0.036-0.026 0.056-0.026l5.001-0.003c0.046 0 0.082 0.033 0.084 0.082l0.005 1.225c0 0.021-0.010 0.041-0.026 0.059-0.015 0.013-0.036 0.021-0.056 0.021l-3.483 0.003 0.005 1.091 2.337-0.003c0.046 0 0.084 0.039 0.084 0.080l0.005 1.236c0 0.023-0.008 0.044-0.028 0.059-0.013 0.013-0.033 0.023-0.056 0.023l-2.337 0.003 0.005 1.184 3.524-0.008c0.043 0 0.079 0.039 0.079 0.082l0.005 1.236c0 0.021-0.005 0.041-0.020 0.057-0.018 0.015-0.038 0.026-0.059 0.026l-5.029 0.005z"></path>
<path d="M34.691 16h-0.003l-1.611-0.048c-0.025-0.002-0.051-0.015-0.066-0.040l-1.36-2.315-0.88-0.025 0.010 2.227c0 0.023-0.008 0.045-0.025 0.060-0.013 0.015-0.038 0.020-0.058 0.020l-1.358-0.040c-0.043 0-0.079-0.033-0.079-0.078l-0.030-6.143c0-0.020 0.010-0.043 0.025-0.058s0.038-0.023 0.061-0.023l3.413 0.1c1.132 0.035 1.786 0.747 1.791 1.957 0.005 1.165-0.627 1.649-1.2 1.852l1.439 2.433c0.013 0.025 0.013 0.058 0 0.080-0.015 0.025-0.043 0.040-0.069 0.040zM30.756 12.224l1.101 0.033c0.051 0.002 0.096 0.002 0.145 0.002 0.406 0 0.642-0.058 0.771-0.185 0.104-0.1 0.15-0.261 0.15-0.519-0.003-0.293-0.058-0.556-0.731-0.576l-1.444-0.043 0.008 1.288z"></path>
<path d="M38.019 16.615c-0.083 0-0.169 0-0.263-0.008-0.952-0.053-1.953-0.648-2.235-0.832-0.025-0.015-0.040-0.040-0.040-0.066l-0.005-1.432c-0.003-0.030 0.015-0.058 0.040-0.071 0.030-0.015 0.058-0.013 0.083 0.003 0.871 0.579 1.692 0.954 2.162 0.984 0.442 0.020 0.733-0.046 0.882-0.192 0.071-0.073 0.109-0.167 0.106-0.283 0-0.139-0.144-0.276-0.447-0.428-0.179-0.091-0.397-0.182-0.624-0.273-0.965-0.397-2.288-0.941-2.294-2.404-0.003-0.488 0.154-0.896 0.46-1.202 0.392-0.397 1.023-0.597 1.733-0.562 0.834 0.046 1.829 0.473 2.294 0.754 0.028 0.013 0.040 0.040 0.043 0.066l0.005 1.386c0 0.028-0.018 0.056-0.043 0.071-0.023 0.015-0.058 0.013-0.083-0.003-0.285-0.19-1.291-0.805-2.218-0.855-0.326-0.018-0.49 0.068-0.561 0.142-0.071 0.068-0.078 0.139-0.078 0.175 0 0.152 0.149 0.304 0.452 0.468 0.182 0.099 0.414 0.195 0.662 0.299 0.952 0.402 2.253 0.951 2.258 2.267 0.003 0.589-0.167 1.058-0.505 1.397-0.394 0.397-0.993 0.6-1.783 0.6z"></path>
<path d="M46.691 16.923h-0.010l-1.332-0.1c-0.033-0.003-0.061-0.026-0.073-0.054l-0.446-1.27-2.175-0.157-0.456 1.191c-0.015 0.031-0.046 0.051-0.086 0.051l-1.117-0.085c-0.028-0.003-0.051-0.018-0.061-0.039-0.013-0.018-0.018-0.046-0.008-0.075l2.4-6.178c0.015-0.036 0.041-0.057 0.078-0.054l0.934 0.072c0.035 0.003 0.061 0.023 0.071 0.054l2.352 6.532c0.010 0.026 0.005 0.057-0.013 0.075-0.010 0.023-0.035 0.036-0.061 0.036zM43.184 13.983l1.127 0.085-0.552-1.543-0.575 1.458z"></path>
<path d="M51.304 17.231h-0.008l-3.805-0.355c-0.045-0.008-0.075-0.038-0.075-0.078l-0.033-6.25c0-0.025 0.008-0.045 0.020-0.060 0.020-0.020 0.043-0.028 0.065-0.025l1.15 0.108c0.040 0.003 0.073 0.040 0.073 0.078l0.025 4.955 2.59 0.239c0.043 0.003 0.073 0.038 0.073 0.078l0.005 1.229c0 0.020-0.008 0.040-0.028 0.058-0.013 0.015-0.030 0.023-0.053 0.023z"></path>
<path d="M4.071 30.068l-0.866 1.731h0.476l0.165-0.33h0.719l0.157 0.33h0.549l-0.829-1.731h-0.371zM4.215 30.735l0.157 0.327h-0.322l0.165-0.327z"></path>
<path d="M9.176 31.846c-0.481 0-0.968-0.28-0.968-0.91 0-0.633 0.486-0.913 0.968-0.913 0.309 0 0.586 0.123 0.641 0.149l0.060 0.026v0.466l-0.157-0.081c-0.044-0.026-0.282-0.144-0.544-0.144-0.439 0-0.455 0.447-0.455 0.497s0.016 0.494 0.455 0.494c0.288 0 0.413-0.065 0.515-0.118l0.194-0.097v0.473l-0.092 0.039c-0.141 0.052-0.316 0.118-0.617 0.118z"></path>
<path d="M11.771 31.846c-0.481 0-0.968-0.28-0.968-0.91s0.486-0.913 0.968-0.913c0.486 0 0.968 0.282 0.968 0.913s-0.481 0.91-0.968 0.91zM11.771 30.439c-0.442 0-0.452 0.447-0.452 0.497s0.010 0.497 0.452 0.497c0.364 0 0.458-0.316 0.458-0.497 0-0.186-0.094-0.497-0.458-0.497z"></path>
<path d="M15.055 30.066l-0.479 1.002-0.494-1.002h-0.473v1.734h0.418v-0.722l0.364 0.722h0.282l0.34-0.714v0.714h0.502v-1.734z"></path>
<path d="M17.655 31.846c-0.484 0-0.968-0.28-0.968-0.91 0-0.633 0.484-0.913 0.968-0.913 0.309 0 0.588 0.123 0.641 0.149l0.060 0.026v0.466l-0.157-0.081c-0.044-0.026-0.288-0.144-0.544-0.144-0.442 0-0.455 0.447-0.455 0.497s0.013 0.494 0.455 0.494c0.288 0 0.413-0.065 0.513-0.118l0.196-0.097v0.473l-0.094 0.039c-0.141 0.052-0.314 0.118-0.615 0.118z"></path>
<path d="M19.971 30.068l-0.866 1.731h0.481l0.162-0.33h0.719l0.154 0.33h0.549l-0.829-1.731h-0.371zM20.115 30.735l0.157 0.327h-0.322l0.165-0.327z"></path>
<path d="M22.709 31.846c-0.235 0-0.507-0.084-0.675-0.173l-0.058-0.026v-0.479l0.157 0.086c0.157 0.084 0.421 0.175 0.575 0.175 0.131 0 0.29-0.018 0.29-0.118 0-0.058-0.233-0.128-0.387-0.178l-0.024-0.008c-0.207-0.063-0.636-0.196-0.636-0.594 0-0.309 0.277-0.51 0.706-0.51 0.248 0 0.557 0.089 0.685 0.152l0.063 0.026v0.466l-0.16-0.084c-0.073-0.037-0.348-0.144-0.588-0.144-0.107 0-0.186 0.031-0.186 0.073 0 0.073 0.173 0.126 0.337 0.175 0.055 0.018 0.112 0.037 0.17 0.055 0.162 0.055 0.544 0.186 0.544 0.526 0 0.173-0.078 0.578-0.816 0.578z"></path>
<path d="M24.33 30.066v0.408h0.565v1.326h0.497v-1.326h0.573v-0.408z"></path>
<path d="M29.89 31.846c-0.481 0-0.968-0.28-0.968-0.91 0-0.633 0.486-0.913 0.968-0.913 0.309 0 0.586 0.123 0.638 0.149l0.063 0.026v0.466l-0.157-0.081c-0.042-0.026-0.288-0.144-0.544-0.144-0.445 0-0.455 0.447-0.455 0.497s0.010 0.494 0.455 0.494c0.288 0 0.413-0.065 0.515-0.118l0.196-0.097v0.473l-0.097 0.039c-0.139 0.052-0.314 0.118-0.615 0.118z"></path>
<path d="M32.395 31.846c-0.484 0-0.968-0.28-0.968-0.91s0.484-0.913 0.968-0.913c0.484 0 0.97 0.282 0.97 0.913s-0.486 0.91-0.97 0.91zM32.395 30.439c-0.442 0-0.455 0.447-0.455 0.497s0.013 0.497 0.455 0.497c0.364 0 0.455-0.316 0.455-0.497 0-0.186-0.092-0.497-0.455-0.497z"></path>
<path d="M35.839 30.066l-0.473 1.002-0.5-1.002h-0.471v1.734h0.418v-0.722l0.358 0.722h0.288l0.34-0.714v0.714h0.502v-1.734z"></path>
<path d="M37.82 31.803h-0.497v-1.734h0.936c0.463 0 0.693 0.201 0.693 0.599 0 0.599-0.439 0.667-0.766 0.667h-0.366v0.468zM37.82 30.932h0.285c0.28 0 0.316-0.052 0.316-0.264 0-0.089-0.026-0.194-0.23-0.194h-0.371v0.458z"></path>
<path d="M40.33 30.068l-0.86 1.731h0.473l0.165-0.33h0.719l0.154 0.33h0.552l-0.826-1.731h-0.377zM40.479 30.735l0.152 0.327h-0.322l0.17-0.327z"></path>
<path d="M43.599 30.066v0.962l-0.847-0.962h-0.479v1.734h0.421v-1.041l0.923 1.041h0.398v-1.734z"></path>
<path d="M46.713 30.066l-0.497 0.667-0.479-0.667h-0.609l0.782 1.104v0.63h0.502v-0.625l0.813-1.109z"></path>
<path d="M53.137 16.192c0.484 0 0.887 0.382 0.887 0.879 0 0.51-0.403 0.892-0.887 0.892-0.489 0-0.892-0.382-0.892-0.892 0-0.497 0.403-0.879 0.892-0.879zM53.137 17.829c0.408 0 0.724-0.327 0.724-0.758 0-0.416-0.316-0.748-0.724-0.748-0.413 0-0.727 0.332-0.727 0.748 0 0.432 0.314 0.758 0.727 0.758zM53.608 17.246c-0.052 0.228-0.222 0.371-0.442 0.371-0.316 0-0.523-0.233-0.523-0.541 0-0.311 0.191-0.539 0.515-0.539 0.228 0 0.408 0.126 0.447 0.361h-0.152c-0.026-0.131-0.136-0.228-0.293-0.228-0.235 0-0.361 0.173-0.361 0.4 0 0.222 0.141 0.416 0.366 0.416 0.152 0 0.264-0.102 0.288-0.241h0.154z"></path>
</symbol>
<symbol id="icon-diagram-rev" viewBox="0 0 32 32">
<title>diagram-rev</title>
<path d="M21.292 29.528l0.331-0.119-0.325-0.907 0.31-0.111 0.795 2.217-0.835 0.299c-0.419 0.15-0.784-0.051-0.915-0.416-0.114-0.319 0-0.639 0.312-0.821l-0.861-0.739 0.356-0.128 0.832 0.725zM21.253 29.853c-0.25 0.090-0.366 0.297-0.284 0.525 0.084 0.234 0.307 0.324 0.557 0.234l0.469-0.168-0.272-0.76-0.47 0.169z"></path>
<path d="M18.672 29.718c0.025-0.295 0.225-0.568 0.588-0.651 0.418-0.094 0.853 0.127 0.972 0.655 0.111 0.489-0.167 0.903-0.559 0.991-0.479 0.108-0.823-0.161-0.933-0.647-0.009-0.039-0.014-0.078-0.015-0.099l1.173-0.265c-0.070-0.277-0.314-0.426-0.577-0.367-0.253 0.057-0.347 0.225-0.366 0.413l-0.283-0.030zM19.092 30.144c0.057 0.222 0.242 0.364 0.518 0.302 0.256-0.058 0.367-0.291 0.334-0.494l-0.852 0.192z"></path>
<path d="M17.636 29.38l0.313-0.035 0.822 1.515-0.35 0.039-0.589-1.174-0.318 1.275-0.333 0.037 0.455-1.657z"></path>
<path d="M15.513 29.916c0.085-0.284 0.338-0.51 0.71-0.515 0.428-0.006 0.808 0.3 0.816 0.841 0.007 0.501-0.349 0.849-0.751 0.855-0.491 0.007-0.772-0.327-0.779-0.825-0.001-0.040 0.002-0.080 0.005-0.1l1.202-0.018c-0.011-0.286-0.22-0.482-0.489-0.478-0.259 0.004-0.386 0.149-0.444 0.329l-0.27-0.089zM15.836 30.419c0.010 0.229 0.162 0.406 0.444 0.402 0.262-0.004 0.419-0.209 0.429-0.415l-0.873 0.013z"></path>
<path d="M14.978 29.399l0.31 0.036-0.182 1.587-0.304-0.035 0.026-0.228c-0.138 0.185-0.335 0.239-0.52 0.218-0.379-0.044-0.536-0.339-0.496-0.692l0.115-1.006 0.31 0.036-0.109 0.954c-0.025 0.221 0.047 0.41 0.324 0.442 0.244 0.028 0.392-0.152 0.42-0.393l0.106-0.919z"></path>
<path d="M13.093 29.044c0.362 0.086 0.517 0.41 0.433 0.762l-0.233 0.979-0.304-0.072 0.222-0.934c0.051-0.213-0.001-0.424-0.257-0.484-0.245-0.059-0.407 0.074-0.463 0.309l-0.223 0.937-0.304-0.072 0.302-1.266c0.029-0.123 0.046-0.235 0.052-0.291l0.291 0.069c-0.002 0.037-0.016 0.126-0.032 0.19 0.124-0.142 0.336-0.17 0.516-0.127z"></path>
<path d="M10.549 28.76c0.182-0.234 0.499-0.354 0.848-0.225 0.402 0.148 0.646 0.571 0.459 1.079-0.174 0.47-0.631 0.666-1.008 0.527-0.461-0.17-0.602-0.583-0.43-1.051 0.014-0.037 0.031-0.074 0.041-0.091l1.128 0.416c0.093-0.27-0.032-0.528-0.284-0.622-0.243-0.090-0.414 0-0.532 0.147l-0.222-0.18zM10.669 29.346c-0.073 0.217 0.005 0.437 0.27 0.535 0.246 0.091 0.466-0.044 0.549-0.233l-0.819-0.302z"></path>
<path d="M0.74 13.408c-0.171 0.009-0.417 0.127-0.451 0.454-0.027 0.264 0.125 0.47 0.343 0.493 0.168 0.017 0.308-0.072 0.371-0.265l0.112-0.342c0.126-0.381 0.393-0.574 0.72-0.54 0.363 0.038 0.662 0.382 0.61 0.881-0.058 0.565-0.449 0.795-0.788 0.803l-0.067-0.321c0.263 0.004 0.524-0.156 0.56-0.51 0.033-0.324-0.119-0.5-0.323-0.521-0.168-0.017-0.326 0.083-0.4 0.313l-0.106 0.327c-0.107 0.326-0.35 0.541-0.7 0.505-0.367-0.038-0.662-0.412-0.617-0.845 0.055-0.529 0.404-0.706 0.663-0.733l0.073 0.301z"></path>
<path d="M2.596 12.759l-0.070 0.304-2.342-0.542 0.070-0.304 0.967 0.224c-0.139-0.151-0.158-0.347-0.117-0.525 0.086-0.372 0.397-0.494 0.743-0.414l0.987 0.228-0.070 0.304-0.935-0.216c-0.217-0.050-0.412 0-0.475 0.272-0.054 0.233 0.099 0.398 0.327 0.457l0.915 0.212z"></path>
<path d="M2.202 10.751l0.087-0.428c0.020-0.095-0.018-0.137-0.071-0.156-0.147-0.053-0.304 0-0.386 0.228-0.074 0.206 0.012 0.368 0.181 0.45l-0.167 0.258c-0.276-0.135-0.383-0.466-0.266-0.791 0.162-0.45 0.481-0.533 0.775-0.427l0.753 0.271c0.131 0.047 0.214 0.063 0.254 0.070l-0.103 0.288c-0.040-0.007-0.099-0.018-0.209-0.057 0.083 0.104 0.173 0.306 0.076 0.574-0.11 0.306-0.393 0.427-0.631 0.341-0.27-0.097-0.349-0.348-0.293-0.621zM2.605 10.307l-0.069-0.025-0.096 0.484c-0.026 0.132 0.012 0.251 0.146 0.3 0.113 0.040 0.252-0.015 0.306-0.165 0.087-0.241 0.041-0.476-0.287-0.594z"></path>
<path d="M2.719 8.585c-0.026 0.039-0.049 0.080-0.067 0.119-0.112 0.237-0.061 0.456 0.257 0.606l0.724 0.342-0.134 0.282-1.444-0.682 0.13-0.276 0.252 0.119c-0.173-0.21-0.142-0.416-0.072-0.563 0.018-0.039 0.043-0.075 0.053-0.089l0.301 0.142z"></path>
<path d="M4.278 7.552c0.196 0.222 0.255 0.556 0.063 0.875-0.221 0.367-0.682 0.528-1.146 0.249-0.43-0.258-0.537-0.745-0.33-1.089 0.254-0.421 0.686-0.483 1.113-0.227 0.034 0.021 0.067 0.044 0.082 0.057l-0.619 1.031c0.248 0.141 0.525 0.067 0.664-0.163 0.133-0.222 0.078-0.407-0.045-0.55l0.218-0.183zM3.68 7.561c-0.2-0.112-0.431-0.077-0.576 0.165-0.135 0.225-0.044 0.466 0.126 0.583l0.45-0.748z"></path>
<path d="M4.315 6.727l0.211-0.382c0.048-0.084 0.024-0.135-0.021-0.17-0.124-0.094-0.29-0.091-0.436 0.102-0.133 0.175-0.099 0.355 0.037 0.483l-0.236 0.196c-0.223-0.211-0.226-0.56-0.016-0.834 0.29-0.381 0.619-0.364 0.867-0.175l0.637 0.485c0.111 0.084 0.185 0.124 0.221 0.143l-0.186 0.243c-0.035-0.019-0.089-0.047-0.181-0.118 0.048 0.124 0.073 0.343-0.1 0.57-0.198 0.26-0.504 0.289-0.705 0.137-0.227-0.173-0.227-0.436-0.092-0.68zM4.833 6.425l-0.058-0.045-0.238 0.433c-0.065 0.118-0.064 0.243 0.049 0.33 0.095 0.072 0.245 0.061 0.342-0.065 0.156-0.204 0.182-0.442-0.095-0.653z"></path>
<path d="M5.763 6.356l-1.724-1.676 0.215-0.221 0.741 0.72c-0.049-0.155-0.013-0.379 0.173-0.569 0.338-0.348 0.778-0.267 1.112 0.057 0.34 0.331 0.421 0.785 0.090 1.126-0.164 0.169-0.365 0.228-0.558 0.179l0.167 0.162-0.216 0.222zM5.326 4.842c-0.192 0.198-0.176 0.491 0.071 0.732 0.248 0.241 0.548 0.255 0.741 0.058 0.199-0.205 0.167-0.496-0.081-0.736-0.248-0.241-0.53-0.261-0.731-0.054z"></path>
<path d="M7.070 5.074l-1.562-1.827 0.237-0.203 1.563 1.828-0.238 0.202z"></path>
<path d="M8.479 3.427c0.091 0.282 0.013 0.611-0.29 0.828-0.349 0.25-0.835 0.214-1.15-0.226-0.292-0.408-0.196-0.897 0.13-1.13 0.4-0.286 0.821-0.171 1.111 0.234 0.023 0.032 0.044 0.067 0.053 0.085l-0.978 0.699c0.171 0.228 0.455 0.271 0.673 0.114 0.211-0.151 0.233-0.342 0.178-0.523l0.273-0.081zM7.926 3.198c-0.138-0.183-0.364-0.242-0.594-0.077-0.213 0.153-0.225 0.41-0.116 0.585l0.71-0.508z"></path>
<path d="M23.905 3.93l1.382-1.906 0.263 0.191-1.203 1.659 0.901 0.653-0.179 0.247-1.164-0.844z"></path>
<path d="M26.827 5.312c-0.332 0.358-0.826 0.393-1.177 0.068s-0.352-0.821-0.020-1.179c0.33-0.355 0.824-0.39 1.175-0.065s0.352 0.821 0.022 1.176zM26.594 5.095c0.251-0.27 0.216-0.574 0.021-0.755s-0.501-0.193-0.751 0.078c-0.253 0.273-0.218 0.577-0.023 0.758s0.5 0.192 0.753-0.081z"></path>
<path d="M26.627 6.301l-0.201-0.239 1.222-1.029 0.197 0.234-0.175 0.148c0.227-0.039 0.408 0.056 0.527 0.198 0.246 0.292 0.157 0.615-0.115 0.843l-0.775 0.652-0.201-0.238 0.734-0.618c0.17-0.143 0.248-0.33 0.068-0.543-0.158-0.189-0.389-0.159-0.575-0.003l-0.706 0.595z"></path>
<path d="M27.582 7.527c-0.174 0.141-0.223 0.375-0.091 0.578 0.183 0.281 0.411 0.315 0.701 0.126l0.192-0.125c-0.164 0.016-0.356-0.065-0.486-0.266-0.232-0.356-0.131-0.791 0.248-1.037 0.362-0.236 0.812-0.177 1.052 0.191 0.134 0.206 0.147 0.396 0.057 0.55l0.186-0.121 0.169 0.259-1.238 0.807c-0.34 0.221-0.779 0.27-1.108-0.234-0.218-0.334-0.169-0.722 0.096-0.942l0.222 0.214zM28.82 7.839c0.259-0.169 0.327-0.435 0.18-0.66-0.15-0.231-0.422-0.276-0.681-0.108-0.262 0.17-0.331 0.429-0.177 0.666 0.148 0.225 0.419 0.27 0.678 0.102z"></path>
<path d="M29.449 9.882c-0.293 0.045-0.606-0.086-0.77-0.42-0.19-0.384-0.076-0.859 0.41-1.099 0.45-0.222 0.917-0.049 1.095 0.312 0.218 0.441 0.036 0.838-0.411 1.058-0.036 0.018-0.073 0.032-0.092 0.038l-0.532-1.078c-0.253 0.132-0.341 0.405-0.222 0.647 0.115 0.232 0.3 0.285 0.487 0.259l0.035 0.283zM29.765 9.374c0.203-0.107 0.297-0.321 0.172-0.574-0.116-0.235-0.368-0.289-0.559-0.209l0.387 0.783z"></path>
<path d="M29.364 10.969l-0.108-0.297 1.28-1.154 0.12 0.331-1.003 0.848 1.314 0.010 0.114 0.315-1.717-0.053z"></path>
<path d="M29.609 11.745l1.541-0.42 0.081 0.298-1.541 0.42-0.081-0.298zM31.992 11.254c0.033 0.122-0.037 0.244-0.158 0.277-0.119 0.032-0.241-0.038-0.274-0.159-0.032-0.119 0.038-0.241 0.156-0.273 0.121-0.033 0.243 0.036 0.276 0.155z"></path>
<path d="M31.445 12.556l0.069 0.338-0.277 0.056-0.069-0.338-0.814 0.165c-0.143 0.029-0.203 0.102-0.171 0.262 0.008 0.039 0.026 0.093 0.037 0.118l-0.26 0.053c-0.015-0.024-0.050-0.098-0.072-0.202-0.054-0.267 0.074-0.469 0.357-0.527l0.859-0.174-0.061-0.299 0.277-0.056 0.017 0.085c0.034 0.169 0.153 0.22 0.29 0.192l0.254-0.052 0.057 0.28-0.493 0.099z"></path>
<path d="M29.341 13.621l0.88 0.309 1.343-0.831 0.037 0.357-1.045 0.61 1.146 0.361 0.035 0.334-2.361-0.799-0.035-0.341z"></path>
<path d="M9.094 28.706c-4.453-2.419-7.361-6.868-7.781-11.902-0.035-0.413-0.052-0.837-0.052-1.259h0.277c0 0.415 0.017 0.831 0.051 1.237 0.411 4.94 3.266 9.307 7.637 11.682l-0.132 0.242z"></path>
<path d="M23.034 28.879l-0.125-0.246c4.559-2.333 7.535-6.764 7.959-11.854 0.034-0.409 0.051-0.824 0.051-1.234h0.277c0 0.417-0.017 0.84-0.051 1.257-0.434 5.185-3.465 9.7-8.111 12.077z"></path>
<path d="M9.226 2.628l-0.132-0.243c2.175-1.182 4.642-1.807 7.134-1.807 2.377 0 4.651 0.541 6.757 1.608l-0.125 0.246c-2.067-1.047-4.298-1.578-6.631-1.578-2.447 0.001-4.868 0.614-7.003 1.774z"></path>
</symbol>
<symbol id="icon-circle" viewBox="0 0 32 32">
<title>circle</title>
<path d="M16 31.96c-8.815 0-15.96-7.146-15.96-15.96s7.146-15.96 15.96-15.96c8.815 0 15.96 7.146 15.96 15.96s-7.146 15.96-15.96 15.96zM16 31.564c8.596 0 15.564-6.968 15.564-15.564s-6.968-15.564-15.564-15.564c-8.596 0-15.564 6.968-15.564 15.564s6.968 15.564 15.564 15.564z"></path>
</symbol>
<symbol id="icon-rectangle" viewBox="0 0 24 32">
<title>rectangle</title>
<path d="M0.437 26.734l8.366 4.83 15.151-26.242-8.366-4.83-15.151 26.242zM24.384 5.207l-15.466 26.788-8.912-5.146 15.466-26.788 8.912 5.146z"></path>
</symbol>
<symbol id="icon-diagram" viewBox="0 0 32 32">
<title>diagram</title>
<path d="M6.68 3.865c4.626-3.882 11.044-4.617 16.387-2.027l0.115-0.237c-5.436-2.635-11.965-1.887-16.671 2.062l0.169 0.201z"></path>
<path d="M12.293 29.971c-2.87-0.826-5.44-2.482-7.404-4.823-2.458-2.929-3.686-6.6-3.537-10.336l-0.263-0.010c-0.151 3.801 1.098 7.536 3.598 10.516 1.998 2.381 4.613 4.066 7.533 4.907l0.073-0.253z"></path>
<path d="M30.64 10.332c1.93 5.494 0.523 11.687-3.692 15.826l0.184 0.188c4.288-4.211 5.719-10.511 3.756-16.1l-0.248 0.087z"></path>
<path d="M24.649 2.018c0.26 0.155 0.424 0.102 0.536-0.080 0.114-0.183 0.087-0.35-0.173-0.505l-0.482-0.287-0.363 0.585 0.482 0.287zM25.155 1.268c0.342 0.204 0.422 0.493 0.236 0.794-0.125 0.202-0.299 0.296-0.507 0.273l-0.202 0.895-0.211-0.126 0.188-0.837c-0.046-0.021-0.093-0.046-0.136-0.071l-0.471-0.28-0.426 0.686-0.204-0.121 1.017-1.638 0.715 0.426z"></path>
<path d="M25.478 2.957l0.623 0.472c0.098-0.148 0.086-0.347-0.096-0.485-0.195-0.148-0.395-0.109-0.527 0.013v0zM26.169 3.727l-0.822-0.623c-0.197 0.266-0.203 0.511 0.019 0.68 0.152 0.115 0.293 0.118 0.406 0.038l0.184 0.139c-0.18 0.161-0.448 0.187-0.716-0.016-0.336-0.255-0.33-0.648-0.067-0.986s0.634-0.42 0.961-0.172c0.321 0.243 0.287 0.602 0.083 0.877l-0.049 0.063z"></path>
<path d="M26.789 3.263l0.171 0.157-0.51 1.092 0.080 0.073 1.047-0.597 0.173 0.159-1.259 0.697-0.308-0.284z"></path>
<path d="M27.786 4.858l0.502 0.559c0.116-0.121 0.138-0.311-0.009-0.474-0.157-0.175-0.35-0.175-0.493-0.085v0zM28.302 5.71l-0.662-0.737c-0.228 0.214-0.274 0.443-0.095 0.643 0.122 0.136 0.253 0.165 0.372 0.11l0.148 0.165c-0.194 0.119-0.448 0.093-0.664-0.147-0.271-0.302-0.199-0.67 0.101-0.94s0.659-0.279 0.923 0.014c0.259 0.288 0.167 0.619-0.068 0.841l-0.056 0.050z"></path>
<path d="M28.413 7.060l0.669-0.494c0.206-0.152 0.243-0.317 0.114-0.494-0.136-0.188-0.402-0.184-0.599-0.038l-0.605 0.447-0.129-0.177 1.116-0.824 0.124 0.171-0.12 0.088 0.033 0.046c0.129-0.005 0.275 0.066 0.378 0.207 0.188 0.259 0.122 0.525-0.146 0.723l-0.709 0.523-0.129-0.177z"></path>
<path d="M30.054 7.084l-0.669 0.389c-0.206 0.12-0.252 0.275-0.14 0.465 0.117 0.199 0.367 0.236 0.569 0.118l0.605-0.352 0.111 0.19-1.117 0.65-0.107-0.183 0.12-0.070-0.029-0.049c-0.123-0.012-0.259-0.101-0.348-0.253-0.163-0.277-0.083-0.527 0.185-0.683l0.709-0.413 0.111 0.19z"></path>
<path d="M30.344 8.575l0.322 0.716c0.154-0.086 0.237-0.27 0.143-0.479-0.101-0.224-0.293-0.283-0.465-0.237v0zM30.586 9.589l-0.425-0.944c-0.296 0.146-0.415 0.362-0.3 0.617 0.079 0.175 0.2 0.243 0.336 0.225l0.095 0.212c-0.232 0.060-0.477-0.044-0.616-0.351-0.174-0.386 0.015-0.735 0.402-0.914s0.747-0.079 0.917 0.298c0.166 0.369-0.031 0.674-0.337 0.824l-0.072 0.034z"></path>
<path d="M25.925 27.835c-0.261 0.125-0.501 0.127-0.704-0.13-0.187-0.235-0.169-0.591 0.204-0.887 0.345-0.273 0.716-0.267 0.946-0.024l-0.188 0.149c-0.195-0.177-0.427-0.106-0.63 0.054-0.204 0.162-0.285 0.383-0.148 0.555 0.128 0.162 0.282 0.139 0.453 0.058 0.088-0.042 0.254-0.129 0.339-0.17 0.25-0.126 0.485-0.121 0.659 0.097 0.185 0.233 0.144 0.563-0.188 0.826-0.306 0.242-0.632 0.233-0.856 0.018l0.188-0.149c0.155 0.123 0.321 0.125 0.536-0.045 0.177-0.141 0.261-0.34 0.136-0.498-0.115-0.145-0.278-0.091-0.423-0.021-0.072 0.040-0.234 0.12-0.324 0.164z"></path>
<path d="M23.917 27.898l0.427 0.677c0.129 0.204 0.293 0.251 0.483 0.132 0.201-0.126 0.224-0.388 0.098-0.587l-0.386-0.612 0.19-0.119 1.027 1.63-0.19 0.119-0.391-0.621-0.049 0.031c-0.005 0.125-0.089 0.265-0.241 0.361-0.275 0.173-0.534 0.098-0.705-0.173l-0.452-0.718 0.19-0.119z"></path>
<path d="M22.899 29.007l0.053 0.108 0.361-0.182c0.198-0.1 0.247-0.231 0.178-0.372-0.066-0.134-0.208-0.168-0.387-0.078-0.201 0.101-0.297 0.335-0.204 0.523v0zM22.717 28.655l0.052-0.027c0.029-0.129 0.127-0.258 0.298-0.345 0.277-0.14 0.523-0.035 0.622 0.167 0.094 0.191 0.067 0.457-0.267 0.626l-0.392 0.198 0.023 0.047c0.071 0.143 0.205 0.205 0.415 0.099 0.179-0.091 0.236-0.205 0.195-0.313l0.203-0.103c0.091 0.227-0.037 0.451-0.307 0.587-0.303 0.153-0.567 0.108-0.698-0.158l-0.398-0.807 0.191-0.097 0.061 0.125z"></path>
<path d="M21.891 30.207l0.109-0.045c0.259-0.106 0.356-0.327 0.245-0.61l-0.252-0.642 0.22-0.090 0.504 1.285-0.212 0.087-0.060-0.153-0.057 0.023c-0.034 0.106-0.129 0.23-0.318 0.308l-0.098 0.040-0.080-0.204z"></path>
<path d="M21.339 30.081l-0.742 0.22c0.067 0.162 0.238 0.268 0.455 0.204 0.232-0.069 0.313-0.249 0.287-0.423v0zM20.314 30.182l0.979-0.29c-0.109-0.309-0.307-0.455-0.572-0.377-0.181 0.054-0.263 0.163-0.26 0.299l-0.219 0.065c-0.032-0.235 0.099-0.461 0.417-0.556 0.4-0.119 0.721 0.113 0.852 0.516s-0.010 0.743-0.4 0.858c-0.382 0.113-0.659-0.12-0.772-0.44l-0.025-0.075z"></path>
<path d="M19.173 30.301l0.021 0.115 0.385-0.090c0.211-0.050 0.292-0.162 0.264-0.312-0.026-0.142-0.149-0.206-0.341-0.162-0.214 0.050-0.366 0.25-0.329 0.449v0zM19.096 29.927l0.056-0.013c0.061-0.116 0.186-0.215 0.37-0.258 0.295-0.070 0.497 0.086 0.536 0.3 0.037 0.202-0.059 0.448-0.415 0.531l-0.418 0.098 0.009 0.050c0.028 0.152 0.137 0.241 0.361 0.188 0.191-0.045 0.275-0.14 0.265-0.252l0.217-0.051c0.025 0.236-0.154 0.418-0.442 0.486-0.323 0.076-0.558-0.027-0.609-0.309l-0.157-0.854 0.204-0.048 0.024 0.132z"></path>
<path d="M17.562 30.677c0.038 0.297 0.206 0.494 0.47 0.471 0.293-0.026 0.383-0.28 0.35-0.543s-0.185-0.496-0.478-0.47c-0.265 0.023-0.379 0.245-0.342 0.542zM17.34 30.697c-0.050-0.395 0.125-0.721 0.49-0.753 0.209-0.018 0.349 0.055 0.434 0.142l0.058-0.005-0.018-0.143 0.215-0.019 0.245 1.927-0.223 0.020-0.093-0.734-0.058 0.005c-0.059 0.102-0.171 0.195-0.381 0.213-0.364 0.032-0.617-0.249-0.668-0.652z"></path>
<path d="M16.986 31.725l0.012 0.25-0.243 0.004-0.012-0.25 0.243-0.004zM16.666 30.002l0.23-0.004 0.068 1.371-0.23 0.004-0.068-1.371z"></path>
<path d="M16.1 31.868l0.081-1.911 0.226-0.005-0.081 1.911z"></path>
<path d="M15.716 31.694l-0.012 0.241-0.236-0.013 0.012-0.241 0.236 0.013zM15.573 30.017l0.223 0.012-0.067 1.32-0.223-0.012 0.067-1.32z"></path>
<path d="M14.363 31.184l0.026-0.193 0.332 0.027 0.098-0.722c0.018-0.133-0.030-0.206-0.208-0.22l-0.097-0.008 0.027-0.198 0.102 0.008c0.285 0.023 0.441 0.125 0.403 0.404l-0.102 0.754 0.228 0.018-0.026 0.193-0.228-0.018-0.054 0.396-0.222-0.018 0.054-0.396-0.332-0.027z"></path>
<path d="M14.16 29.289l-0.41 0.602 0.306 1.287-0.238-0.039-0.216-0.934-0.065-0.011-0.552 0.809-0.233-0.038 1.184-1.713z"></path>
<path d="M1.822 13.082l0.219 0.019-0.16 1.264-1.843-0.161 0.029-0.232 1.623 0.142z"></path>
<path d="M1.602 11.78c-0.254-0.052-0.52 0.033-0.583 0.318-0.064 0.288 0.144 0.467 0.398 0.52s0.52-0.030 0.583-0.318c0.063-0.285-0.144-0.467-0.398-0.52zM1.65 11.561c0.383 0.078 0.629 0.373 0.54 0.777-0.090 0.406-0.439 0.576-0.821 0.498s-0.63-0.371-0.54-0.777c0.089-0.404 0.439-0.576 0.821-0.498z"></path>
<path d="M2.625 10.621l-0.763-0.211c-0.235-0.065-0.392 0.013-0.472 0.231-0.085 0.231 0.058 0.439 0.283 0.501l0.69 0.19-0.080 0.218-1.273-0.351 0.078-0.21 0.136 0.038 0.021-0.056c-0.072-0.099-0.090-0.262-0.026-0.436 0.117-0.318 0.374-0.439 0.679-0.354l0.809 0.223-0.080 0.218z"></path>
<path d="M2.695 8.943c-0.234-0.106-0.496-0.079-0.607 0.179-0.102 0.237 0.017 0.451 0.285 0.573 0.263 0.119 0.499 0.066 0.601-0.171 0.111-0.259-0.047-0.476-0.279-0.581v0zM2.189 8.476l1.156 0.525c0.34 0.154 0.47 0.465 0.319 0.817-0.132 0.309-0.349 0.451-0.605 0.378l0.086-0.201c0.16 0.030 0.267-0.071 0.345-0.253 0.107-0.249 0.003-0.431-0.241-0.542l-0.097-0.044-0.023 0.053c0.057 0.103 0.085 0.253 0.007 0.435-0.143 0.333-0.495 0.416-0.85 0.255-0.357-0.162-0.535-0.486-0.393-0.819 0.081-0.189 0.207-0.269 0.32-0.296l0.022-0.053-0.13-0.059 0.084-0.196z"></path>
<path d="M2.852 8.098l0.374-0.661c-0.152-0.070-0.339-0.030-0.448 0.163-0.117 0.207-0.056 0.39 0.075 0.497v0zM3.5 7.329l-0.493 0.872c0.276 0.147 0.509 0.116 0.642-0.12 0.091-0.161 0.077-0.295-0.013-0.39l0.111-0.195c0.175 0.146 0.23 0.397 0.070 0.68-0.202 0.356-0.576 0.409-0.927 0.211s-0.474-0.537-0.278-0.884c0.193-0.341 0.537-0.362 0.822-0.21l0.066 0.037z"></path>
<path d="M3.007 6.871l0.138-0.193 1.126 0.301 0.065-0.090-0.691-0.909 0.14-0.195 0.809 1.096-0.25 0.349z"></path>
<path d="M5.129 6.178l-0.142 0.175-1.026-0.816 0.141-0.175 1.026 0.816zM3.691 5.329l-0.187-0.149 0.15-0.186 0.187 0.149-0.15 0.186z"></path>
<path d="M4.872 4.55l0.148 0.134-0.217 0.246 0.552 0.5c0.102 0.092 0.191 0.096 0.307-0.035l0.063-0.072 0.152 0.137-0.067 0.075c-0.186 0.211-0.364 0.274-0.577 0.080l-0.576-0.522-0.149 0.168-0.148-0.134 0.149-0.168-0.303-0.274 0.145-0.165 0.303 0.274 0.217-0.246z"></path>
<path d="M6.558 5.373l-0.249-0.653-1.227-0.477 0.171-0.163 0.887 0.351 0.047-0.045-0.335-0.878 0.167-0.16 0.7 1.871z"></path>
</symbol>
<symbol id="icon-moon" viewBox="0 0 26 32">
<title>moon</title>
<path d="M17.242 31.379c7.813-4.639 10.461-14.713 5.905-22.605s-14.605-10.634-22.529-6.188l16.624 28.793zM0.229 2.328c8.151-4.706 18.573-1.913 23.279 6.238s1.913 18.573-6.238 23.279l-0.18 0.104-17.042-29.517 0.18-0.104z"></path>
</symbol>
<symbol id="icon-triangle" viewBox="0 0 27 32">
<title>triangle</title>
<path d="M0.885 17.609l23.553 13.598 1.822-30.352-25.375 16.754zM24.831 31.937l-24.775-14.304 26.691-17.623-1.916 31.927z"></path>
</symbol>
<symbol id="icon-logo" viewBox="0 0 48 32">
<title>logo</title>
<path d="M1.508 5.27h9.902v-3.878h-9.902v3.878zM2.114 1.998h8.69v2.668h-8.69v-2.668z"></path>
<path d="M1.508 15.086h9.902v-3.878h-9.902v3.878zM2.114 11.814h8.69v2.666h-8.69v-2.666z"></path>
<path d="M18.544 1l-6.038 14.086h12.074l-6.038-14.086zM18.544 2.538l5.118 11.944h-10.238l5.118-11.944z"></path>
<path d="M29.7 1.392c-3.242 0-5.88 2.652-5.88 5.912s2.638 5.912 5.88 5.912c3.242 0 5.88-2.652 5.88-5.912s-2.638-5.912-5.88-5.912zM29.7 12.61c-2.908 0-5.274-2.38-5.274-5.306s2.366-5.308 5.274-5.308c2.908 0 5.276 2.38 5.276 5.308s-2.366 5.306-5.276 5.306z"></path>
<path d="M34.622 1.392l12.114 14.214v-14.214h-12.114zM35.934 1.998h10.196v11.964l-10.196-11.964z"></path>
<path d="M8.084 29.068h-4.084v-1.456h3.994v-1.932h-3.994v-1.34h4.084v-1.934h-6.3v8.594h6.3v-1.932zM18.356 22.406h-2.796l-3.234 8.594h2.512l0.426-1.238h3.39l0.424 1.238h2.512l-3.234-8.594zM15.868 27.83l1.096-3.234 1.082 3.234h-2.178zM31.666 27.842c0.472-0.164 0.876-0.462 1.212-0.896s0.502-0.994 0.502-1.682c0-0.826-0.266-1.508-0.798-2.050s-1.262-0.812-2.19-0.812h-4.304v8.594h2.216v-2.886h1.134l1.442 2.886h2.538l-1.752-3.158zM28.304 26.182v-1.842h1.752c0.31 0 0.564 0.082 0.766 0.244s0.302 0.386 0.302 0.67c0 0.292-0.1 0.52-0.302 0.684s-0.458 0.246-0.766 0.246h-1.752zM46.46 22.406h-2.23v4.73l-3.48-4.73h-2.28v8.594h2.216v-4.974l3.634 4.974h2.14v-8.594z"></path>
</symbol>
</defs>
</svg>
